0
SECTION
2
HEADER
9
$INSUNITS
70
4
9
$ACADVER
1
AC1014
9
$HANDSEED
5
FFFF
0
ENDSEC
0
SECTION
2
TABLES
0
TABLE
2
VPORT
5
8
100
AcDbSymbolTable
0
ENDTAB
0
TABLE
2
LTYPE
5
5
100
AcDbSymbolTable
70
2
0
LTYPE
5
14
100
AcDbSymbolTableRecord
100
AcDbLinetypeTableRecord
2
BYBLOCK
70
0
0
LTYPE
5
15
100
AcDbSymbolTableRecord
100
AcDbLinetypeTableRecord
2
BYLAYER
70
0
0
ENDTAB
0
TABLE
2
LAYER
5
2
100
AcDbSymbolTable
70
3
0
LAYER
5
50
100
AcDbSymbolTableRecord
100
AcDbLayerTableRecord
2
0
70
0
6
CONTINUOUS
0
LAYER
5
51
100
AcDbSymbolTableRecord
100
AcDbLayerTableRecord
2
CUTOUTS
70
0
62
1
6
CONTINUOUS
0
LAYER
5
52
100
AcDbSymbolTableRecord
100
AcDbLayerTableRecord
2
PERIMETER
70
0
62
5
6
CONTINUOUS
0
ENDTAB
0
TABLE
2
STYLE
5
3
100
AcDbSymbolTable
70
1
0
STYLE
5
11
100
AcDbSymbolTableRecord
100
AcDbTextStyleTableRecord
2
STANDARD
70
0
0
ENDTAB
0
TABLE
2
VIEW
5
6
100
AcDbSymbolTable
0
ENDTAB
0
TABLE
2
UCS
5
7
100
AcDbSymbolTable
0
ENDTAB
0
TABLE
2
APPID
5
9
100
AcDbSymbolTable
70
1
0
APPID
5
12
100
AcDbSymbolTableRecord
100
AcDbRegAppTableRecord
2
ACAD
70
0
0
ENDTAB
0
TABLE
2
DIMSTYLE
5
A
100
AcDbSymbolTable
0
ENDTAB
0
TABLE
2
BLOCK_RECORD
5
1
100
AcDbSymbolTable
70
2
0
BLOCK_RECORD
5
1F
100
AcDbSymbolTableRecord
100
AcDbBlockTableRecord
2
*MODEL_SPACE
0
BLOCK_RECORD
5
1B
100
AcDbSymbolTableRecord
100
AcDbBlockTableRecord
2
*PAPER_SPACE
0
ENDTAB
0
ENDSEC
0
SECTION
2
BLOCKS
0
BLOCK
5
20
100
AcDbEntity
100
AcDbBlockBegin
2
*MODEL_SPACE
0
ENDBLK
5
21
100
AcDbEntity
100
AcDbBlockEnd
0
BLOCK
5
1C
100
AcDbEntity
100
AcDbBlockBegin
2
*PAPER_SPACE
0
ENDBLK
5
1D
100
AcDbEntity
100
AcDbBlockEnd
0
ENDSEC
0
SECTION
2
ENTITIES
0
CIRCLE
5
100
100
AcDbEntity
8
CUTOUTS
100
AcDbCircle
10
-118.37500000000173
20
352.5000000000278
30
0
40
3.2249999999999979
210
0
220
0
230
1
0
CIRCLE
5
101
100
AcDbEntity
8
CUTOUTS
100
AcDbCircle
10
-335.0000000000025
20
2.5129413185816666e-11
30
0
40
3.2249999999999801
210
0
220
0
230
1
0
CIRCLE
5
102
100
AcDbEntity
8
CUTOUTS
100
AcDbCircle
10
229.99999999999767
20
-352.4999999999747
30
0
40
3.2250000000000156
210
0
220
0
230
1
0
CIRCLE
5
103
100
AcDbEntity
8
CUTOUTS
100
AcDbCircle
10
-230.0000000000023
20
-352.49999999997493
30
0
40
3.2250000000000156
210
0
220
0
230
1
0
CIRCLE
5
104
100
AcDbEntity
8
CUTOUTS
100
AcDbCircle
10
334.9999999999975
20
247.50000000002467
30
0
40
3.2249999999999801
210
0
220
0
230
1
0
CIRCLE
5
105
100
AcDbEntity
8
CUTOUTS
100
AcDbCircle
10
-335.00000000000227
20
247.50000000002507
30
0
40
3.2249999999999801
210
0
220
0
230
1
0
CIRCLE
5
106
100
AcDbEntity
8
CUTOUTS
100
AcDbCircle
10
-335.00000000000233
20
-247.49999999997493
30
0
40
3.2249999999999801
210
0
220
0
230
1
0
CIRCLE
5
107
100
AcDbEntity
8
CUTOUTS
100
AcDbCircle
10
-2.5179420503215051e-12
20
-352.49999999997499
30
0
40
3.2250000000000001
210
0
220
0
230
1
0
CIRCLE
5
108
100
AcDbEntity
8
CUTOUTS
100
AcDbCircle
10
334.9999999999975
20
-247.49999999997442
30
0
40
3.2249999999999801
210
0
220
0
230
1
0
CIRCLE
5
109
100
AcDbEntity
8
CUTOUTS
100
AcDbCircle
10
334.99999999999744
20
2.4638330091262123e-11
30
0
40
3.2249999999999801
210
0
220
0
230
1
0
CIRCLE
5
10A
100
AcDbEntity
8
CUTOUTS
100
AcDbCircle
10
118.37499999996645
20
352.50000000003217
30
0
40
3.2249999999999979
210
0
220
0
230
1
0
LINE
5
10B
100
AcDbEntity
8
PERIMETER
100
AcDbLine
10
259.57500000019849
20
-337.32793846877382
30
0
11
319.82793846868378
21
-277.07499999984628
31
0
0
LINE
5
10C
100
AcDbEntity
8
PERIMETER
100
AcDbLine
10
319.82793846868378
20
-277.07499999984628
30
0
11
350.0750000000474
21
-277.07499999984066
31
0
0
LINE
5
10D
100
AcDbEntity
8
PERIMETER
100
AcDbLine
10
350.0750000000474
20
-277.07499999984066
30
0
11
350.0750000000707
21
277.07499999998424
31
0
0
LINE
5
10E
100
AcDbEntity
8
PERIMETER
100
AcDbLine
10
350.0750000000707
20
277.07499999998424
30
0
11
319.82793846870663
21
277.07499999984759
31
0
0
LINE
5
10F
100
AcDbEntity
8
PERIMETER
100
AcDbLine
10
319.82793846870663
20
277.07499999984759
30
0
11
259.5750000001708
21
337.32793846866639
31
0
0
LINE
5
110
100
AcDbEntity
8
PERIMETER
100
AcDbLine
10
259.5750000001708
20
337.32793846866639
30
0
11
259.57499999996355
21
341.57499999999834
31
0
0
LINE
5
111
100
AcDbEntity
8
PERIMETER
100
AcDbLine
10
259.57499999996355
20
341.57499999999834
30
0
11
214.07500000007536
21
341.57500000008258
31
0
0
LINE
5
112
100
AcDbEntity
8
PERIMETER
100
AcDbLine
10
214.07500000007536
20
341.57500000008258
30
0
11
214.07500000004302
21
367.57500000003637
31
0
0
LINE
5
113
100
AcDbEntity
8
PERIMETER
100
AcDbLine
10
214.07500000004302
20
367.57500000003637
30
0
11
22.674999999998278
21
367.57500000002727
31
0
0
LINE
5
114
100
AcDbEntity
8
PERIMETER
100
AcDbLine
10
22.674999999998278
20
367.57500000002727
30
0
11
22.674999999998292
21
341.5750000000271
31
0
0
LINE
5
115
100
AcDbEntity
8
PERIMETER
100
AcDbLine
10
22.674999999998292
20
341.5750000000271
30
0
11
-22.675000000001702
21
341.5750000000271
31
0
0
LINE
5
116
100
AcDbEntity
8
PERIMETER
100
AcDbLine
10
-22.675000000001702
20
341.5750000000271
30
0
11
-22.675000000001695
21
367.57500000002727
31
0
0
LINE
5
117
100
AcDbEntity
8
PERIMETER
100
AcDbLine
10
-22.675000000001695
20
367.57500000002727
30
0
11
-214.07500000000226
21
367.57500000003012
31
0
0
LINE
5
118
100
AcDbEntity
8
PERIMETER
100
AcDbLine
10
-214.07500000000226
20
367.57500000003012
30
0
11
-214.07500000000226
21
341.57500000002722
31
0
0
LINE
5
119
100
AcDbEntity
8
PERIMETER
100
AcDbLine
10
-214.07500000000226
20
341.57500000002722
30
0
11
-259.57500000000226
21
341.575000000025
31
0
0
LINE
5
11A
100
AcDbEntity
8
PERIMETER
100
AcDbLine
10
-259.57500000000226
20
341.575000000025
30
0
11
-259.57500000000226
21
337.3279384686611
31
0
0
LINE
5
11B
100
AcDbEntity
8
PERIMETER
100
AcDbLine
10
-259.57500000000226
20
337.3279384686611
30
0
11
-319.82793846863785
21
277.075000000025
31
0
0
LINE
5
11C
100
AcDbEntity
8
PERIMETER
100
AcDbLine
10
-319.82793846863785
20
277.075000000025
30
0
11
-350.07500000000226
21
277.07500000002483
31
0
0
LINE
5
11D
100
AcDbEntity
8
PERIMETER
100
AcDbLine
10
-350.07500000000226
20
277.07500000002483
30
0
11
-350.07500000007065
21
-277.0749999999482
31
0
0
LINE
5
11E
100
AcDbEntity
8
PERIMETER
100
AcDbLine
10
-350.07500000007065
20
-277.0749999999482
30
0
11
-319.82793846870612
21
-277.07499999998373
31
0
0
LINE
5
11F
100
AcDbEntity
8
PERIMETER
100
AcDbLine
10
-319.82793846870612
20
-277.07499999998373
30
0
11
-259.57500000008179
21
-337.32793846862944
31
0
0
LINE
5
120
100
AcDbEntity
8
PERIMETER
100
AcDbLine
10
-259.57500000008179
20
-337.32793846862944
30
0
11
-259.57500000008883
21
-367.57499999999254
31
0
0
LINE
5
121
100
AcDbEntity
8
PERIMETER
100
AcDbLine
10
-259.57500000008883
20
-367.57499999999254
30
0
11
259.57500000033832
21
-367.57500000003637
31
0
0
LINE
5
122
100
AcDbEntity
8
PERIMETER
100
AcDbLine
10
259.57500000033832
20
-367.57500000003637
30
0
11
259.57500000019849
21
-337.32793846877382
31
0
0
ENDSEC
0
SECTION
2
OBJECTS
0
DICTIONARY
5
C
100
AcDbDictionary
3
ACAD_GROUP
350
D
3
ACAD_MLINESTYLE
350
17
0
DICTIONARY
5
D
100
AcDbDictionary
0
DICTIONARY
5
1A
330
C
100
AcDbDictionary
0
DICTIONARY
5
17
100
AcDbDictionary
0
ENDSEC
0
EOF
