0
SECTION
2
HEADER
9
$INSUNITS
70
1
9
$ACADVER
1
AC1014
9
$HANDSEED
5
FFFF
0
ENDSEC
0
SECTION
2
TABLES
0
TABLE
2
VPORT
5
8
100
AcDbSymbolTable
0
ENDTAB
0
TABLE
2
LTYPE
5
5
100
AcDbSymbolTable
70
2
0
LTYPE
5
14
100
AcDbSymbolTableRecord
100
AcDbLinetypeTableRecord
2
BYBLOCK
70
0
0
LTYPE
5
15
100
AcDbSymbolTableRecord
100
AcDbLinetypeTableRecord
2
BYLAYER
70
0
0
ENDTAB
0
TABLE
2
LAYER
5
2
100
AcDbSymbolTable
70
3
0
LAYER
5
50
100
AcDbSymbolTableRecord
100
AcDbLayerTableRecord
2
0
70
0
6
CONTINUOUS
0
LAYER
5
51
100
AcDbSymbolTableRecord
100
AcDbLayerTableRecord
2
CUTOUTS
70
0
62
1
6
CONTINUOUS
0
LAYER
5
52
100
AcDbSymbolTableRecord
100
AcDbLayerTableRecord
2
PERIMETER
70
0
62
5
6
CONTINUOUS
0
ENDTAB
0
TABLE
2
STYLE
5
3
100
AcDbSymbolTable
70
1
0
STYLE
5
11
100
AcDbSymbolTableRecord
100
AcDbTextStyleTableRecord
2
STANDARD
70
0
0
ENDTAB
0
TABLE
2
VIEW
5
6
100
AcDbSymbolTable
0
ENDTAB
0
TABLE
2
UCS
5
7
100
AcDbSymbolTable
0
ENDTAB
0
TABLE
2
APPID
5
9
100
AcDbSymbolTable
70
1
0
APPID
5
12
100
AcDbSymbolTableRecord
100
AcDbRegAppTableRecord
2
ACAD
70
0
0
ENDTAB
0
TABLE
2
DIMSTYLE
5
A
100
AcDbSymbolTable
0
ENDTAB
0
TABLE
2
BLOCK_RECORD
5
1
100
AcDbSymbolTable
70
2
0
BLOCK_RECORD
5
1F
100
AcDbSymbolTableRecord
100
AcDbBlockTableRecord
2
*MODEL_SPACE
0
BLOCK_RECORD
5
1B
100
AcDbSymbolTableRecord
100
AcDbBlockTableRecord
2
*PAPER_SPACE
0
ENDTAB
0
ENDSEC
0
SECTION
2
BLOCKS
0
BLOCK
5
20
100
AcDbEntity
100
AcDbBlockBegin
2
*MODEL_SPACE
0
ENDBLK
5
21
100
AcDbEntity
100
AcDbBlockEnd
0
BLOCK
5
1C
100
AcDbEntity
100
AcDbBlockBegin
2
*PAPER_SPACE
0
ENDBLK
5
1D
100
AcDbEntity
100
AcDbBlockEnd
0
ENDSEC
0
SECTION
2
ENTITIES
0
CIRCLE
5
100
100
AcDbEntity
8
CUTOUTS
100
AcDbCircle
10
9.3582677165354173
20
-5.2893700787401556
30
0
40
0.063976377952756458
210
0
220
0
230
1
0
CIRCLE
5
101
100
AcDbEntity
8
CUTOUTS
100
AcDbCircle
10
9.3582677165354138
20
-2.5728346456692885
30
0
40
0.063976377952756458
210
0
220
0
230
1
0
CIRCLE
5
102
100
AcDbEntity
8
CUTOUTS
100
AcDbCircle
10
9.015748031496047
20
-1.6811023622047216
30
0
40
0.063976377952756458
210
0
220
0
230
1
0
CIRCLE
5
103
100
AcDbEntity
8
CUTOUTS
100
AcDbCircle
10
8.6732283464566731
20
-2.5728346456692885
30
0
40
0.063976377952756458
210
0
220
0
230
1
0
CIRCLE
5
104
100
AcDbEntity
8
CUTOUTS
100
AcDbCircle
10
8.6732283464566766
20
-5.2893700787401556
30
0
40
0.063976377952756458
210
0
220
0
230
1
0
CIRCLE
5
105
100
AcDbEntity
8
CUTOUTS
100
AcDbCircle
10
9.0157480314960434
20
2.535154938120436e-15
30
0
40
0.063976377952756458
210
0
220
0
230
1
0
CIRCLE
5
106
100
AcDbEntity
8
CUTOUTS
100
AcDbCircle
10
7.4999999999999982
20
5.7086614173228245
30
0
40
0.12696850393700848
210
0
220
0
230
1
0
CIRCLE
5
107
100
AcDbEntity
8
CUTOUTS
100
AcDbCircle
10
-10.531496062992122
20
3.5236220472440869
30
0
40
0.12696850393700848
210
0
220
0
230
1
0
CIRCLE
5
108
100
AcDbEntity
8
CUTOUTS
100
AcDbCircle
10
-6.7913385826771595
20
-9.448818897637798
30
0
40
0.12696850393700848
210
0
220
0
230
1
0
CIRCLE
5
109
100
AcDbEntity
8
CUTOUTS
100
AcDbCircle
10
6.7913385826771631
20
-9.4488188976377909
30
0
40
0.12696850393700848
210
0
220
0
230
1
0
CIRCLE
5
10A
100
AcDbEntity
8
CUTOUTS
100
AcDbCircle
10
10.531496062992119
20
-1.0505890931699078e-14
30
0
40
0.12696850393700848
210
0
220
0
230
1
0
CIRCLE
5
10B
100
AcDbEntity
8
CUTOUTS
100
AcDbCircle
10
10.531496062992122
20
5.7086614173228245
30
0
40
0.12696850393700848
210
0
220
0
230
1
0
CIRCLE
5
10C
100
AcDbEntity
8
CUTOUTS
100
AcDbCircle
10
2.5297976559779594e-15
20
9.4488188976377909
30
0
40
0.12696850393700787
210
0
220
0
230
1
0
CIRCLE
5
10D
100
AcDbEntity
8
CUTOUTS
100
AcDbCircle
10
-6.7913385826771604
20
9.4488188976377909
30
0
40
0.12696850393700848
210
0
220
0
230
1
0
CIRCLE
5
10E
100
AcDbEntity
8
CUTOUTS
100
AcDbCircle
10
6.7913385826771648
20
9.448818897637782
30
0
40
0.12696850393700848
210
0
220
0
230
1
0
CIRCLE
5
10F
100
AcDbEntity
8
CUTOUTS
100
AcDbCircle
10
7.4999999999999938
20
-8.3474400265679823e-15
30
0
40
0.12696850393700848
210
0
220
0
230
1
0
CIRCLE
5
110
100
AcDbEntity
8
CUTOUTS
100
AcDbCircle
10
10.531496062992122
20
-5.7086614173228325
30
0
40
0.12696850393700848
210
0
220
0
230
1
0
CIRCLE
5
111
100
AcDbEntity
8
CUTOUTS
100
AcDbCircle
10
3.6869442378494728e-15
20
-9.448818897637798
30
0
40
0.12696850393700787
210
0
220
0
230
1
0
CIRCLE
5
112
100
AcDbEntity
8
CUTOUTS
100
AcDbCircle
10
-10.531496062992122
20
-4.2580081719300818e-15
30
0
40
0.12696850393700848
210
0
220
0
230
1
0
CIRCLE
5
113
100
AcDbEntity
8
CUTOUTS
100
AcDbCircle
10
-10.531496062992121
20
-3.5236220472440953
30
0
40
0.12696850393700848
210
0
220
0
230
1
0
CIRCLE
5
114
100
AcDbEntity
8
CUTOUTS
100
AcDbCircle
10
7.4999999999999982
20
-5.7086614173228325
30
0
40
0.12696850393700848
210
0
220
0
230
1
0
LINE
5
115
100
AcDbEntity
8
CUTOUTS
100
AcDbLine
10
9.4064960629921028
20
-0.1545275590551197
30
0
11
9.4064960629921028
21
-1.5265748031496078
31
0
0
LINE
5
116
100
AcDbEntity
8
CUTOUTS
100
AcDbLine
10
9.4064960629921028
20
-1.5265748031496078
30
0
11
8.6249999999999787
21
-1.5265748031496078
31
0
0
LINE
5
117
100
AcDbEntity
8
CUTOUTS
100
AcDbLine
10
8.6249999999999787
20
-1.5265748031496078
30
0
11
8.6249999999999787
21
-0.1545275590551197
31
0
0
LINE
5
118
100
AcDbEntity
8
CUTOUTS
100
AcDbLine
10
8.6249999999999787
20
-0.1545275590551197
30
0
11
9.4064960629921028
21
-0.1545275590551197
31
0
0
LINE
5
119
100
AcDbEntity
8
CUTOUTS
100
AcDbLine
10
9.5541338582676669
20
-2.9694881889763791
30
0
11
9.5541338582676669
21
-4.8139763779527582
31
0
0
LINE
5
11A
100
AcDbEntity
8
CUTOUTS
100
AcDbLine
10
9.5541338582676669
20
-4.8139763779527582
30
0
11
8.4773622047243613
21
-4.8139763779527582
31
0
0
LINE
5
11B
100
AcDbEntity
8
CUTOUTS
100
AcDbLine
10
8.4773622047243613
20
-4.8139763779527582
30
0
11
8.4773622047243613
21
-2.9694881889763791
31
0
0
LINE
5
11C
100
AcDbEntity
8
CUTOUTS
100
AcDbLine
10
8.4773622047243613
20
-2.9694881889763791
30
0
11
9.5541338582676669
21
-2.9694881889763791
31
0
0
LINE
5
11D
100
AcDbEntity
8
PERIMETER
100
AcDbLine
10
-7.5620078740157455
20
-10.042322834645677
30
0
11
7.5620078740157428
21
-10.042322834645669
31
0
0
LINE
5
11E
100
AcDbEntity
8
PERIMETER
100
AcDbLine
10
7.5620078740157428
20
-10.042322834645669
30
0
11
7.5620078740157428
21
-8.8514936404974041
31
0
0
LINE
5
11F
100
AcDbEntity
8
PERIMETER
100
AcDbLine
10
7.5620078740157428
20
-8.8514936404974041
30
0
11
9.9341708058517284
21
-6.479330708661422
31
0
0
LINE
5
120
100
AcDbEntity
8
PERIMETER
100
AcDbLine
10
9.9341708058517284
20
-6.479330708661422
30
0
11
11.124999999999995
21
-6.4793307086614149
31
0
0
LINE
5
121
100
AcDbEntity
8
PERIMETER
100
AcDbLine
10
11.124999999999995
20
-6.4793307086614149
30
0
11
11.124999999999993
21
6.479330708661398
31
0
0
LINE
5
122
100
AcDbEntity
8
PERIMETER
100
AcDbLine
10
11.124999999999993
20
6.479330708661398
30
0
11
9.9341708058517302
21
6.4793307086614051
31
0
0
LINE
5
123
100
AcDbEntity
8
PERIMETER
100
AcDbLine
10
9.9341708058517302
20
6.4793307086614051
30
0
11
7.5620078740157428
21
8.8514936404973881
31
0
0
LINE
5
124
100
AcDbEntity
8
PERIMETER
100
AcDbLine
10
7.5620078740157428
20
8.8514936404973881
30
0
11
7.5620078740157428
21
10.042322834645653
31
0
0
LINE
5
125
100
AcDbEntity
8
PERIMETER
100
AcDbLine
10
7.5620078740157428
20
10.042322834645653
30
0
11
-7.5620078740157455
21
10.04232283464566
31
0
0
LINE
5
126
100
AcDbEntity
8
PERIMETER
100
AcDbLine
10
-7.5620078740157455
20
10.04232283464566
30
0
11
-7.5620078740157455
21
8.8514936404973952
31
0
0
LINE
5
127
100
AcDbEntity
8
PERIMETER
100
AcDbLine
10
-7.5620078740157455
20
8.8514936404973952
30
0
11
-9.9341708058517355
21
6.4793307086614069
31
0
0
LINE
5
128
100
AcDbEntity
8
PERIMETER
100
AcDbLine
10
-9.9341708058517355
20
6.4793307086614069
30
0
11
-10.022637795275591
21
6.4793307086614069
31
0
0
LINE
5
129
100
AcDbEntity
8
PERIMETER
100
AcDbLine
10
-10.022637795275591
20
6.4793307086614069
30
0
11
-10.022637795275589
21
4.1171259842519614
31
0
0
LINE
5
12A
100
AcDbEntity
8
PERIMETER
100
AcDbLine
10
-10.022637795275589
20
4.1171259842519614
30
0
11
-11.125
21
4.1171259842519596
31
0
0
LINE
5
12B
100
AcDbEntity
8
PERIMETER
100
AcDbLine
10
-11.125
20
4.1171259842519596
30
0
11
-11.125
21
-4.1171259842519765
31
0
0
LINE
5
12C
100
AcDbEntity
8
PERIMETER
100
AcDbLine
10
-11.125
20
-4.1171259842519765
30
0
11
-10.022637795275589
21
-4.1171259842519774
31
0
0
LINE
5
12D
100
AcDbEntity
8
PERIMETER
100
AcDbLine
10
-10.022637795275589
20
-4.1171259842519774
30
0
11
-10.022637795275591
21
-6.4793307086614238
31
0
0
LINE
5
12E
100
AcDbEntity
8
PERIMETER
100
AcDbLine
10
-10.022637795275591
20
-6.4793307086614238
30
0
11
-9.9341708058517355
21
-6.4793307086614238
31
0
0
LINE
5
12F
100
AcDbEntity
8
PERIMETER
100
AcDbLine
10
-9.9341708058517355
20
-6.4793307086614238
30
0
11
-7.5620078740157446
21
-8.8514936404974129
31
0
0
LINE
5
130
100
AcDbEntity
8
PERIMETER
100
AcDbLine
10
-7.5620078740157446
20
-8.8514936404974129
30
0
11
-7.5620078740157455
21
-10.042322834645677
31
0
0
ENDSEC
0
SECTION
2
OBJECTS
0
DICTIONARY
5
C
100
AcDbDictionary
3
ACAD_GROUP
350
D
3
ACAD_MLINESTYLE
350
17
0
DICTIONARY
5
D
100
AcDbDictionary
0
DICTIONARY
5
1A
330
C
100
AcDbDictionary
0
DICTIONARY
5
17
100
AcDbDictionary
0
ENDSEC
0
EOF
