0
SECTION
2
HEADER
9
$INSUNITS
70
1
9
$ACADVER
1
AC1014
9
$HANDSEED
5
FFFF
0
ENDSEC
0
SECTION
2
TABLES
0
TABLE
2
VPORT
5
8
100
AcDbSymbolTable
0
ENDTAB
0
TABLE
2
LTYPE
5
5
100
AcDbSymbolTable
70
2
0
LTYPE
5
14
100
AcDbSymbolTableRecord
100
AcDbLinetypeTableRecord
2
BYBLOCK
70
0
0
LTYPE
5
15
100
AcDbSymbolTableRecord
100
AcDbLinetypeTableRecord
2
BYLAYER
70
0
0
ENDTAB
0
TABLE
2
LAYER
5
2
100
AcDbSymbolTable
70
3
0
LAYER
5
50
100
AcDbSymbolTableRecord
100
AcDbLayerTableRecord
2
0
70
0
6
CONTINUOUS
0
LAYER
5
51
100
AcDbSymbolTableRecord
100
AcDbLayerTableRecord
2
CUTOUTS
70
0
62
1
6
CONTINUOUS
0
LAYER
5
52
100
AcDbSymbolTableRecord
100
AcDbLayerTableRecord
2
PERIMETER
70
0
62
5
6
CONTINUOUS
0
ENDTAB
0
TABLE
2
STYLE
5
3
100
AcDbSymbolTable
70
1
0
STYLE
5
11
100
AcDbSymbolTableRecord
100
AcDbTextStyleTableRecord
2
STANDARD
70
0
0
ENDTAB
0
TABLE
2
VIEW
5
6
100
AcDbSymbolTable
0
ENDTAB
0
TABLE
2
UCS
5
7
100
AcDbSymbolTable
0
ENDTAB
0
TABLE
2
APPID
5
9
100
AcDbSymbolTable
70
1
0
APPID
5
12
100
AcDbSymbolTableRecord
100
AcDbRegAppTableRecord
2
ACAD
70
0
0
ENDTAB
0
TABLE
2
DIMSTYLE
5
A
100
AcDbSymbolTable
0
ENDTAB
0
TABLE
2
BLOCK_RECORD
5
1
100
AcDbSymbolTable
70
2
0
BLOCK_RECORD
5
1F
100
AcDbSymbolTableRecord
100
AcDbBlockTableRecord
2
*MODEL_SPACE
0
BLOCK_RECORD
5
1B
100
AcDbSymbolTableRecord
100
AcDbBlockTableRecord
2
*PAPER_SPACE
0
ENDTAB
0
ENDSEC
0
SECTION
2
BLOCKS
0
BLOCK
5
20
100
AcDbEntity
100
AcDbBlockBegin
2
*MODEL_SPACE
0
ENDBLK
5
21
100
AcDbEntity
100
AcDbBlockEnd
0
BLOCK
5
1C
100
AcDbEntity
100
AcDbBlockBegin
2
*PAPER_SPACE
0
ENDBLK
5
1D
100
AcDbEntity
100
AcDbBlockEnd
0
ENDSEC
0
SECTION
2
ENTITIES
0
CIRCLE
5
100
100
AcDbEntity
8
CUTOUTS
100
AcDbCircle
10
7.4999999999999964
20
5.7086614173228289
30
0
40
0.12696850393700848
210
0
220
0
230
1
0
CIRCLE
5
101
100
AcDbEntity
8
CUTOUTS
100
AcDbCircle
10
-10.531496062992126
20
3.5236220472440909
30
0
40
0.12696850393700848
210
0
220
0
230
1
0
CIRCLE
5
102
100
AcDbEntity
8
CUTOUTS
100
AcDbCircle
10
-6.7913385826771675
20
-9.4488188976377945
30
0
40
0.12696850393700848
210
0
220
0
230
1
0
CIRCLE
5
103
100
AcDbEntity
8
CUTOUTS
100
AcDbCircle
10
6.7913385826771648
20
-9.4488188976377945
30
0
40
0.12696850393700848
210
0
220
0
230
1
0
CIRCLE
5
104
100
AcDbEntity
8
CUTOUTS
100
AcDbCircle
10
10.531496062992121
20
-5.6937011160006906e-15
30
0
40
0.12696850393700848
210
0
220
0
230
1
0
CIRCLE
5
105
100
AcDbEntity
8
CUTOUTS
100
AcDbCircle
10
10.531496062992122
20
5.7086614173228289
30
0
40
0.12696850393700848
210
0
220
0
230
1
0
CIRCLE
5
106
100
AcDbEntity
8
CUTOUTS
100
AcDbCircle
10
-8.2491126315112115e-16
20
9.4488188976377945
30
0
40
0.12696850393700787
210
0
220
0
230
1
0
CIRCLE
5
107
100
AcDbEntity
8
CUTOUTS
100
AcDbCircle
10
-6.7913385826771666
20
9.4488188976377945
30
0
40
0.12696850393700848
210
0
220
0
230
1
0
CIRCLE
5
108
100
AcDbEntity
8
CUTOUTS
100
AcDbCircle
10
6.7913385826771648
20
9.4488188976377945
30
0
40
0.12696850393700848
210
0
220
0
230
1
0
CIRCLE
5
109
100
AcDbEntity
8
CUTOUTS
100
AcDbCircle
10
7.4999999999999938
20
-3.8190288252827675e-15
30
0
40
0.12696850393700848
210
0
220
0
230
1
0
CIRCLE
5
10A
100
AcDbEntity
8
CUTOUTS
100
AcDbCircle
10
10.531496062992124
20
-5.7086614173228289
30
0
40
0.12696850393700848
210
0
220
0
230
1
0
CIRCLE
5
10B
100
AcDbEntity
8
CUTOUTS
100
AcDbCircle
10
3.3223531872037399e-16
20
-9.4488188976377945
30
0
40
0.12696850393700787
210
0
220
0
230
1
0
CIRCLE
5
10C
100
AcDbEntity
8
CUTOUTS
100
AcDbCircle
10
-10.531496062992126
20
0
30
0
40
0.12696850393700848
210
0
220
0
230
1
0
CIRCLE
5
10D
100
AcDbEntity
8
CUTOUTS
100
AcDbCircle
10
-10.531496062992126
20
-3.5236220472440909
30
0
40
0.12696850393700848
210
0
220
0
230
1
0
CIRCLE
5
10E
100
AcDbEntity
8
CUTOUTS
100
AcDbCircle
10
7.4999999999999982
20
-5.7086614173228281
30
0
40
0.12696850393700848
210
0
220
0
230
1
0
LINE
5
10F
100
AcDbEntity
8
PERIMETER
100
AcDbLine
10
7.5620078740157419
20
-8.8514936404974041
30
0
11
9.9341708058517373
21
-6.4793307086614069
31
0
0
LINE
5
110
100
AcDbEntity
8
PERIMETER
100
AcDbLine
10
9.9341708058517373
20
-6.4793307086614069
30
0
11
11.124999999999993
21
-6.4793307086614096
31
0
0
LINE
5
111
100
AcDbEntity
8
PERIMETER
100
AcDbLine
10
11.124999999999993
20
-6.4793307086614096
30
0
11
11.124999999999993
21
6.4793307086614096
31
0
0
LINE
5
112
100
AcDbEntity
8
PERIMETER
100
AcDbLine
10
11.124999999999993
20
6.4793307086614096
30
0
11
9.9341708058517373
21
6.4793307086614069
31
0
0
LINE
5
113
100
AcDbEntity
8
PERIMETER
100
AcDbLine
10
9.9341708058517373
20
6.4793307086614069
30
0
11
7.5620078740157428
21
8.8514936404974041
31
0
0
LINE
5
114
100
AcDbEntity
8
PERIMETER
100
AcDbLine
10
7.5620078740157428
20
8.8514936404974041
30
0
11
7.5620078740157428
21
10.042322834645669
31
0
0
LINE
5
115
100
AcDbEntity
8
PERIMETER
100
AcDbLine
10
7.5620078740157428
20
10.042322834645669
30
0
11
-7.5620078740157544
21
10.042322834645669
31
0
0
LINE
5
116
100
AcDbEntity
8
PERIMETER
100
AcDbLine
10
-7.5620078740157544
20
10.042322834645669
30
0
11
-7.5620078740157552
21
8.8514936404974041
31
0
0
LINE
5
117
100
AcDbEntity
8
PERIMETER
100
AcDbLine
10
-7.5620078740157552
20
8.8514936404974041
30
0
11
-9.9341708058517497
21
6.4793307086614123
31
0
0
LINE
5
118
100
AcDbEntity
8
PERIMETER
100
AcDbLine
10
-9.9341708058517497
20
6.4793307086614123
30
0
11
-10.022637795275598
21
6.4793307086614123
31
0
0
LINE
5
119
100
AcDbEntity
8
PERIMETER
100
AcDbLine
10
-10.022637795275598
20
6.4793307086614123
30
0
11
-10.022637795275594
21
4.1171259842519641
31
0
0
LINE
5
11A
100
AcDbEntity
8
PERIMETER
100
AcDbLine
10
-10.022637795275594
20
4.1171259842519641
30
0
11
-11.125000000000005
21
4.117125984251965
31
0
0
LINE
5
11B
100
AcDbEntity
8
PERIMETER
100
AcDbLine
10
-11.125000000000005
20
4.117125984251965
30
0
11
-11.125000000000005
21
-4.117125984251965
31
0
0
LINE
5
11C
100
AcDbEntity
8
PERIMETER
100
AcDbLine
10
-11.125000000000005
20
-4.117125984251965
30
0
11
-10.022637795275594
21
-4.1171259842519641
31
0
0
LINE
5
11D
100
AcDbEntity
8
PERIMETER
100
AcDbLine
10
-10.022637795275594
20
-4.1171259842519641
30
0
11
-10.022637795275598
21
-6.4793307086614123
31
0
0
LINE
5
11E
100
AcDbEntity
8
PERIMETER
100
AcDbLine
10
-10.022637795275598
20
-6.4793307086614123
30
0
11
-9.9341708058517515
21
-6.4793307086614123
31
0
0
LINE
5
11F
100
AcDbEntity
8
PERIMETER
100
AcDbLine
10
-9.9341708058517515
20
-6.4793307086614123
30
0
11
-7.562007874015757
21
-8.8514936404974041
31
0
0
LINE
5
120
100
AcDbEntity
8
PERIMETER
100
AcDbLine
10
-7.562007874015757
20
-8.8514936404974041
30
0
11
-7.5620078740157544
21
-10.042322834645669
31
0
0
LINE
5
121
100
AcDbEntity
8
PERIMETER
100
AcDbLine
10
-7.5620078740157544
20
-10.042322834645669
30
0
11
7.5620078740157428
21
-10.042322834645669
31
0
0
LINE
5
122
100
AcDbEntity
8
PERIMETER
100
AcDbLine
10
7.5620078740157428
20
-10.042322834645669
30
0
11
7.5620078740157419
21
-8.8514936404974041
31
0
0
ENDSEC
0
SECTION
2
OBJECTS
0
DICTIONARY
5
C
100
AcDbDictionary
3
ACAD_GROUP
350
D
3
ACAD_MLINESTYLE
350
17
0
DICTIONARY
5
D
100
AcDbDictionary
0
DICTIONARY
5
1A
330
C
100
AcDbDictionary
0
DICTIONARY
5
17
100
AcDbDictionary
0
ENDSEC
0
EOF
