0
SECTION
2
HEADER
9
$INSUNITS
70
1
9
$ACADVER
1
AC1014
9
$HANDSEED
5
FFFF
0
ENDSEC
0
SECTION
2
TABLES
0
TABLE
2
VPORT
5
8
100
AcDbSymbolTable
0
ENDTAB
0
TABLE
2
LTYPE
5
5
100
AcDbSymbolTable
70
2
0
LTYPE
5
14
100
AcDbSymbolTableRecord
100
AcDbLinetypeTableRecord
2
BYBLOCK
70
0
0
LTYPE
5
15
100
AcDbSymbolTableRecord
100
AcDbLinetypeTableRecord
2
BYLAYER
70
0
0
ENDTAB
0
TABLE
2
LAYER
5
2
100
AcDbSymbolTable
70
3
0
LAYER
5
50
100
AcDbSymbolTableRecord
100
AcDbLayerTableRecord
2
0
70
0
6
CONTINUOUS
0
LAYER
5
51
100
AcDbSymbolTableRecord
100
AcDbLayerTableRecord
2
CUTOUTS
70
0
62
1
6
CONTINUOUS
0
LAYER
5
52
100
AcDbSymbolTableRecord
100
AcDbLayerTableRecord
2
PERIMETER
70
0
62
5
6
CONTINUOUS
0
ENDTAB
0
TABLE
2
STYLE
5
3
100
AcDbSymbolTable
70
1
0
STYLE
5
11
100
AcDbSymbolTableRecord
100
AcDbTextStyleTableRecord
2
STANDARD
70
0
0
ENDTAB
0
TABLE
2
VIEW
5
6
100
AcDbSymbolTable
0
ENDTAB
0
TABLE
2
UCS
5
7
100
AcDbSymbolTable
0
ENDTAB
0
TABLE
2
APPID
5
9
100
AcDbSymbolTable
70
1
0
APPID
5
12
100
AcDbSymbolTableRecord
100
AcDbRegAppTableRecord
2
ACAD
70
0
0
ENDTAB
0
TABLE
2
DIMSTYLE
5
A
100
AcDbSymbolTable
0
ENDTAB
0
TABLE
2
BLOCK_RECORD
5
1
100
AcDbSymbolTable
70
2
0
BLOCK_RECORD
5
1F
100
AcDbSymbolTableRecord
100
AcDbBlockTableRecord
2
*MODEL_SPACE
0
BLOCK_RECORD
5
1B
100
AcDbSymbolTableRecord
100
AcDbBlockTableRecord
2
*PAPER_SPACE
0
ENDTAB
0
ENDSEC
0
SECTION
2
BLOCKS
0
BLOCK
5
20
100
AcDbEntity
100
AcDbBlockBegin
2
*MODEL_SPACE
0
ENDBLK
5
21
100
AcDbEntity
100
AcDbBlockEnd
0
BLOCK
5
1C
100
AcDbEntity
100
AcDbBlockBegin
2
*PAPER_SPACE
0
ENDBLK
5
1D
100
AcDbEntity
100
AcDbBlockEnd
0
ENDSEC
0
SECTION
2
ENTITIES
0
CIRCLE
5
100
100
AcDbEntity
8
CUTOUTS
100
AcDbCircle
10
3.4448818897637792
20
7.5738188976377891
30
0
40
0.1299212598425197
210
0
220
0
230
1
0
CIRCLE
5
101
100
AcDbEntity
8
CUTOUTS
100
AcDbCircle
10
-6.5944881889763778
20
7.5738188976377883
30
0
40
0.12992125984251901
210
0
220
0
230
1
0
CIRCLE
5
102
100
AcDbEntity
8
CUTOUTS
100
AcDbCircle
10
-7.1062992125984321
20
0.093503937007811344
30
0
40
0.12992125984251901
210
0
220
0
230
1
0
CIRCLE
5
103
100
AcDbEntity
8
CUTOUTS
100
AcDbCircle
10
-6.5944881889763778
20
-7.3868110236220481
30
0
40
0.12992125984251901
210
0
220
0
230
1
0
CIRCLE
5
104
100
AcDbEntity
8
CUTOUTS
100
AcDbCircle
10
3.4448818897637787
20
-7.3868110236220481
30
0
40
0.1299212598425197
210
0
220
0
230
1
0
CIRCLE
5
105
100
AcDbEntity
8
CUTOUTS
100
AcDbCircle
10
6.9881889763779492
20
0.68405511811022801
30
0
40
0.12992125984251901
210
0
220
0
230
1
0
CIRCLE
5
106
100
AcDbEntity
8
CUTOUTS
100
AcDbCircle
10
6.9881889763779519
20
5.2116141732283339
30
0
40
0.12992125984251901
210
0
220
0
230
1
0
CIRCLE
5
107
100
AcDbEntity
8
CUTOUTS
100
AcDbCircle
10
6.9881889763779439
20
-3.843503937007875
30
0
40
0.12992125984251901
210
0
220
0
230
1
0
CIRCLE
5
108
100
AcDbEntity
8
CUTOUTS
100
AcDbCircle
10
-1.574803149606306
20
-7.3868110236220481
30
0
40
0.1299212598425197
210
0
220
0
230
1
0
CIRCLE
5
109
100
AcDbEntity
8
CUTOUTS
100
AcDbCircle
10
-7.1062992125984348
20
-5.812007874015765
30
0
40
0.12992125984251901
210
0
220
0
230
1
0
CIRCLE
5
10A
100
AcDbEntity
8
CUTOUTS
100
AcDbCircle
10
-7.1062992125984259
20
6.1958661417322753
30
0
40
0.12992125984251901
210
0
220
0
230
1
0
CIRCLE
5
10B
100
AcDbEntity
8
CUTOUTS
100
AcDbCircle
10
-1.5748031496062997
20
7.5738188976377936
30
0
40
0.1299212598425197
210
0
220
0
230
1
0
LINE
5
10C
100
AcDbEntity
8
PERIMETER
100
AcDbLine
10
3.9763779527559051
20
6.9954337399360167
30
0
11
3.9763779527559051
21
7.89862204724409
31
0
0
ARC
5
10D
100
AcDbEntity
8
PERIMETER
100
AcDbCircle
10
3.8976377952755903
20
7.89862204724409
30
0
40
0.078740157480314668
210
-0
220
0
230
1
100
AcDbArc
50
0
51
90
0
LINE
5
10E
100
AcDbEntity
8
PERIMETER
100
AcDbLine
10
3.8976377952755903
20
7.9773622047244039
30
0
11
3.0960270589183518
21
7.9773622047244039
31
0
0
ARC
5
10F
100
AcDbEntity
8
PERIMETER
100
AcDbCircle
10
3.0960270589183518
20
7.89862204724409
30
0
40
0.078740157480314668
210
0
220
-0
230
1
100
AcDbArc
50
90
51
135.00000000000091
0
LINE
5
110
100
AcDbEntity
8
PERIMETER
100
AcDbLine
10
3.0403493596123243
20
7.9542997465501157
30
0
11
2.2203325436774373
21
7.1342829306152318
31
0
0
ARC
5
111
100
AcDbEntity
8
PERIMETER
100
AcDbCircle
10
2.1646548443714102
20
7.1899606299212602
30
0
40
0.078740157480314668
210
-0
220
0
230
1
100
AcDbArc
50
270
51
314.99999999999977
0
LINE
5
112
100
AcDbEntity
8
PERIMETER
100
AcDbLine
10
2.1646548443714102
20
7.1112204724409454
30
0
11
-0.29457610421392044
21
7.1112204724409471
31
0
0
ARC
5
113
100
AcDbEntity
8
PERIMETER
100
AcDbCircle
10
-0.29457610421392044
20
7.1899606299212619
30
0
40
0.078740157480314793
210
0
220
0
230
1
100
AcDbArc
50
225.00000000000014
51
269.99999999999994
0
LINE
5
114
100
AcDbEntity
8
PERIMETER
100
AcDbLine
10
-0.35025380351994767
20
7.1342829306152327
30
0
11
-1.1702706194548367
21
7.9542997465501228
31
0
0
ARC
5
115
100
AcDbEntity
8
PERIMETER
100
AcDbCircle
10
-1.2259483187608642
20
7.8986220472440962
30
0
40
0.078740157480315043
210
0
220
-0
230
1
100
AcDbArc
50
45
51
90.000000000000171
0
LINE
5
116
100
AcDbEntity
8
PERIMETER
100
AcDbLine
10
-1.2259483187608644
20
7.977362204724411
30
0
11
-1.9236579804517298
21
7.977362204724411
31
0
0
ARC
5
117
100
AcDbEntity
8
PERIMETER
100
AcDbCircle
10
-1.9236579804517298
20
7.8986220472440962
30
0
40
0.078740157480314668
210
0
220
-0
230
1
100
AcDbArc
50
90
51
135
0
LINE
5
118
100
AcDbEntity
8
PERIMETER
100
AcDbLine
10
-1.9793356797577573
20
7.9542997465501237
30
0
11
-2.7993524956926552
21
7.1342829306152264
31
0
0
ARC
5
119
100
AcDbEntity
8
PERIMETER
100
AcDbCircle
10
-2.8550301949986818
20
7.1899606299212531
30
0
40
0.078740157480314668
210
-0
220
0
230
1
100
AcDbArc
50
270
51
315.00000000000028
0
LINE
5
11A
100
AcDbEntity
8
PERIMETER
100
AcDbLine
10
-2.8550301949986818
20
7.1112204724409382
30
0
11
-5.3142611435840026
21
7.1112204724409382
31
0
0
ARC
5
11B
100
AcDbEntity
8
PERIMETER
100
AcDbCircle
10
-5.3142611435840026
20
7.1899606299212531
30
0
40
0.078740157480315293
210
0
220
0
230
1
100
AcDbArc
50
224.99999999999909
51
270
0
LINE
5
11C
100
AcDbEntity
8
PERIMETER
100
AcDbLine
10
-5.369938842890031
20
7.1342829306152264
30
0
11
-6.1899556588249185
21
7.9542997465501157
31
0
0
ARC
5
11D
100
AcDbEntity
8
PERIMETER
100
AcDbCircle
10
-6.2456333581309451
20
7.8986220472440865
30
0
40
0.078740157480315293
210
0
220
-0
230
1
100
AcDbArc
50
45.000000000001378
51
90
0
LINE
5
11E
100
AcDbEntity
8
PERIMETER
100
AcDbLine
10
-6.2456333581309451
20
7.9773622047244013
30
0
11
-7.0472440944881907
21
7.9773622047244013
31
0
0
ARC
5
11F
100
AcDbEntity
8
PERIMETER
100
AcDbCircle
10
-7.0472440944881907
20
7.8986220472440865
30
0
40
0.078740157480314668
210
0
220
-0
230
1
100
AcDbArc
50
90
51
180
0
LINE
5
120
100
AcDbEntity
8
PERIMETER
100
AcDbLine
10
-7.1259842519685037
20
7.8986220472440865
30
0
11
-7.1259842519685037
21
6.9954337399360131
31
0
0
ARC
5
121
100
AcDbEntity
8
PERIMETER
100
AcDbCircle
10
-7.2047244094488185
20
6.9954337399360131
30
0
40
0.078740157480315334
210
-0
220
0
230
1
100
AcDbArc
50
-63.434948822921761
51
0
0
LINE
5
122
100
AcDbEntity
8
PERIMETER
100
AcDbLine
10
-7.1695107405118135
20
6.9250064020620057
30
0
11
-7.5352136689370033
21
6.7421549378494099
31
0
0
ARC
5
123
100
AcDbEntity
8
PERIMETER
100
AcDbCircle
10
-7.5000000000000009
20
6.6717275999754024
30
0
40
0.078740157480313461
210
0
220
0
230
1
100
AcDbArc
50
116.56505117707771
51
180
0
LINE
5
124
100
AcDbEntity
8
PERIMETER
100
AcDbLine
10
-7.5787401574803139
20
6.6717275999754007
30
0
11
-7.5787401574803139
21
5.8347805954624405
31
0
0
ARC
5
125
100
AcDbEntity
8
PERIMETER
100
AcDbCircle
10
-7.4999999999999982
20
5.8347805954624397
30
0
40
0.078740157480314668
210
0
220
0
230
1
100
AcDbArc
50
180
51
224.99999999999815
0
LINE
5
126
100
AcDbEntity
8
PERIMETER
100
AcDbLine
10
-7.5556776993060284
20
5.7791028961564157
30
0
11
-6.6962908046260976
21
4.9197160014764263
31
0
0
ARC
5
127
100
AcDbEntity
8
PERIMETER
100
AcDbCircle
10
-6.7519685039321251
20
4.8640383021704015
30
0
40
0.078740157480314668
210
0
220
-0
230
1
100
AcDbArc
50
0
51
44.999999999998174
0
LINE
5
128
100
AcDbEntity
8
PERIMETER
100
AcDbLine
10
-6.6732283464518121
20
4.8640383021704015
30
0
11
-6.6732283464518121
21
1.4253317765696303
31
0
0
ARC
5
129
100
AcDbEntity
8
PERIMETER
100
AcDbCircle
10
-6.7519685039321251
20
1.4253317765696303
30
0
40
0.078740157480314793
210
-0
220
0
230
1
100
AcDbArc
50
-44.999999999999751
51
0
0
LINE
5
12A
100
AcDbEntity
8
PERIMETER
100
AcDbLine
10
-6.6962908046260976
20
1.3696540772636032
30
0
11
-7.5556776993060231
21
0.51026718258367354
31
0
0
ARC
5
12B
100
AcDbEntity
8
PERIMETER
100
AcDbCircle
10
-7.4999999999999929
20
0.45458948327764631
30
0
40
0.078740157480317763
210
0
220
0
230
1
100
AcDbArc
50
135.00000000000199
51
180
0
LINE
5
12C
100
AcDbEntity
8
PERIMETER
100
AcDbLine
10
-7.5787401574803086
20
0.45458948327764631
30
0
11
-7.5787401574803086
21
-0.26758160926202362
31
0
0
ARC
5
12D
100
AcDbEntity
8
PERIMETER
100
AcDbCircle
10
-7.4999999999999929
20
-0.26758160926202362
30
0
40
0.07874015748031607
210
0
220
0
230
1
100
AcDbArc
50
180
51
224.99999999999847
0
LINE
5
12E
100
AcDbEntity
8
PERIMETER
100
AcDbLine
10
-7.5556776993060231
20
-0.32325930856805085
30
0
11
-6.6962908046260976
21
-1.182646203247977
31
0
0
ARC
5
12F
100
AcDbEntity
8
PERIMETER
100
AcDbCircle
10
-6.7519685039321251
20
-1.2383239025540043
30
0
40
0.078740157480314668
210
0
220
-0
230
1
100
AcDbArc
50
0
51
45
0
LINE
5
130
100
AcDbEntity
8
PERIMETER
100
AcDbLine
10
-6.6732283464518121
20
-1.2383239025540043
30
0
11
-6.6732283464518121
21
-4.4801800344539551
31
0
0
ARC
5
131
100
AcDbEntity
8
PERIMETER
100
AcDbCircle
10
-6.7519685039321251
20
-4.4801800344539551
30
0
40
0.078740157480314793
210
-0
220
0
230
1
100
AcDbArc
50
-45
51
0
0
LINE
5
132
100
AcDbEntity
8
PERIMETER
100
AcDbLine
10
-6.6962908046260976
20
-4.5358577337599826
30
0
11
-7.5556776993060186
21
-5.3952446284398965
31
0
0
ARC
5
133
100
AcDbEntity
8
PERIMETER
100
AcDbCircle
10
-7.4999999999999982
20
-5.4509223277459204
30
0
40
0.078740157480307882
210
0
220
0
230
1
100
AcDbArc
50
134.99999999999818
51
180
0
LINE
5
134
100
AcDbEntity
8
PERIMETER
100
AcDbLine
10
-7.5787401574803059
20
-5.4509223277459231
30
0
11
-7.5787401574803059
21
-6.2864272650273465
31
0
0
ARC
5
135
100
AcDbEntity
8
PERIMETER
100
AcDbCircle
10
-7.5000000000000053
20
-6.2864272650273527
30
0
40
0.078740157480300693
210
0
220
0
230
1
100
AcDbArc
50
180
51
225.00000000000364
0
LINE
5
136
100
AcDbEntity
8
PERIMETER
100
AcDbLine
10
-7.5556776993060195
20
-6.342104964333374
30
0
11
-7.1490467101428008
21
-6.7487359534965954
31
0
0
ARC
5
137
100
AcDbEntity
8
PERIMETER
100
AcDbCircle
10
-7.2047244094488265
20
-6.8044136528026229
30
0
40
0.078740157480314668
210
0
220
-0
230
1
100
AcDbArc
50
0
51
45.000000000000462
0
LINE
5
138
100
AcDbEntity
8
PERIMETER
100
AcDbLine
10
-7.1259842519685126
20
-6.8044136528026229
30
0
11
-7.1259842519685099
21
-7.8986220472440936
31
0
0
ARC
5
139
100
AcDbEntity
8
PERIMETER
100
AcDbCircle
10
-7.0472440944881933
20
-7.8986220472440962
30
0
40
0.07874015748031607
210
0
220
0
230
1
100
AcDbArc
50
180
51
270
0
LINE
5
13A
100
AcDbEntity
8
PERIMETER
100
AcDbLine
10
-7.0472440944881933
20
-7.9773622047244128
30
0
11
3.8976377952755841
21
-7.9773622047244102
31
0
0
ARC
5
13B
100
AcDbEntity
8
PERIMETER
100
AcDbCircle
10
3.8976377952755832
20
-7.8986220472440962
30
0
40
0.07874015748031328
210
-0
220
0
230
1
100
AcDbArc
50
-90
51
0
0
LINE
5
13C
100
AcDbEntity
8
PERIMETER
100
AcDbLine
10
3.9763779527558967
20
-7.8986220472440936
30
0
11
3.9763779527558989
21
-6.8044136528026176
31
0
0
ARC
5
13D
100
AcDbEntity
8
PERIMETER
100
AcDbCircle
10
4.0551181102362133
20
-6.8044136528026176
30
0
40
0.078740157480314793
210
0
220
0
230
1
100
AcDbArc
50
134.99999999999977
51
180
0
LINE
5
13E
100
AcDbEntity
8
PERIMETER
100
AcDbLine
10
3.9994404109301862
20
-6.7487359534965901
30
0
11
6.3501139062524894
21
-4.3980624581742944
31
0
0
ARC
5
13F
100
AcDbEntity
8
PERIMETER
100
AcDbCircle
10
6.405791605558516
20
-4.4537401574803219
30
0
40
0.078740157480314668
210
0
220
-0
230
1
100
AcDbArc
50
90
51
134.99999999999955
0
LINE
5
140
100
AcDbEntity
8
PERIMETER
100
AcDbLine
10
6.405791605558516
20
-4.3750000000000071
30
0
11
7.4999999999999938
21
-4.3750000000000027
31
0
0
ARC
5
141
100
AcDbEntity
8
PERIMETER
100
AcDbCircle
10
7.4999999999999929
20
-4.2962598425196878
30
0
40
0.078740157480314668
210
-0
220
0
230
1
100
AcDbArc
50
-90
51
0
0
LINE
5
142
100
AcDbEntity
8
PERIMETER
100
AcDbLine
10
7.5787401574803086
20
-4.2962598425196878
30
0
11
7.5787401574803139
21
5.6643700787401441
31
0
0
ARC
5
143
100
AcDbEntity
8
PERIMETER
100
AcDbCircle
10
7.4999999999999982
20
5.6643700787401441
30
0
40
0.07874015748031607
210
0
220
0
230
1
100
AcDbArc
50
0
51
89.999999999998721
0
LINE
5
144
100
AcDbEntity
8
PERIMETER
100
AcDbLine
10
7.4999999999999982
20
5.7431102362204598
30
0
11
6.4022848027066868
21
5.7431102362204598
31
0
0
ARC
5
145
100
AcDbEntity
8
PERIMETER
100
AcDbCircle
10
6.4022848027066876
20
5.8218503937007755
30
0
40
0.07874015748031471
210
0
220
0
230
1
100
AcDbArc
50
243.43494882292202
51
270
0
LINE
5
146
100
AcDbEntity
8
PERIMETER
100
AcDbLine
10
6.3670711337696835
20
5.7514230558267672
30
0
11
4.0199044412992153
21
6.9250064020620066
31
0
0
ARC
5
147
100
AcDbEntity
8
PERIMETER
100
AcDbCircle
10
4.0551181102362195
20
6.9954337399360167
30
0
40
0.078740157480314668
210
0
220
0
230
1
100
AcDbArc
50
180
51
243.43494882292256
0
ENDSEC
0
SECTION
2
OBJECTS
0
DICTIONARY
5
C
100
AcDbDictionary
3
ACAD_GROUP
350
D
3
ACAD_MLINESTYLE
350
17
0
DICTIONARY
5
D
100
AcDbDictionary
0
DICTIONARY
5
1A
330
C
100
AcDbDictionary
0
DICTIONARY
5
17
100
AcDbDictionary
0
ENDSEC
0
EOF
