0
SECTION
2
HEADER
9
$INSUNITS
70
1
9
$ACADVER
1
AC1014
9
$HANDSEED
5
FFFF
0
ENDSEC
0
SECTION
2
TABLES
0
TABLE
2
VPORT
5
8
100
AcDbSymbolTable
0
ENDTAB
0
TABLE
2
LTYPE
5
5
100
AcDbSymbolTable
70
2
0
LTYPE
5
14
100
AcDbSymbolTableRecord
100
AcDbLinetypeTableRecord
2
BYBLOCK
70
0
0
LTYPE
5
15
100
AcDbSymbolTableRecord
100
AcDbLinetypeTableRecord
2
BYLAYER
70
0
0
ENDTAB
0
TABLE
2
LAYER
5
2
100
AcDbSymbolTable
70
3
0
LAYER
5
50
100
AcDbSymbolTableRecord
100
AcDbLayerTableRecord
2
0
70
0
6
CONTINUOUS
0
LAYER
5
51
100
AcDbSymbolTableRecord
100
AcDbLayerTableRecord
2
CUTOUTS
70
0
62
1
6
CONTINUOUS
0
LAYER
5
52
100
AcDbSymbolTableRecord
100
AcDbLayerTableRecord
2
PERIMETER
70
0
62
5
6
CONTINUOUS
0
ENDTAB
0
TABLE
2
STYLE
5
3
100
AcDbSymbolTable
70
1
0
STYLE
5
11
100
AcDbSymbolTableRecord
100
AcDbTextStyleTableRecord
2
STANDARD
70
0
0
ENDTAB
0
TABLE
2
VIEW
5
6
100
AcDbSymbolTable
0
ENDTAB
0
TABLE
2
UCS
5
7
100
AcDbSymbolTable
0
ENDTAB
0
TABLE
2
APPID
5
9
100
AcDbSymbolTable
70
1
0
APPID
5
12
100
AcDbSymbolTableRecord
100
AcDbRegAppTableRecord
2
ACAD
70
0
0
ENDTAB
0
TABLE
2
DIMSTYLE
5
A
100
AcDbSymbolTable
0
ENDTAB
0
TABLE
2
BLOCK_RECORD
5
1
100
AcDbSymbolTable
70
2
0
BLOCK_RECORD
5
1F
100
AcDbSymbolTableRecord
100
AcDbBlockTableRecord
2
*MODEL_SPACE
0
BLOCK_RECORD
5
1B
100
AcDbSymbolTableRecord
100
AcDbBlockTableRecord
2
*PAPER_SPACE
0
ENDTAB
0
ENDSEC
0
SECTION
2
BLOCKS
0
BLOCK
5
20
100
AcDbEntity
100
AcDbBlockBegin
2
*MODEL_SPACE
0
ENDBLK
5
21
100
AcDbEntity
100
AcDbBlockEnd
0
BLOCK
5
1C
100
AcDbEntity
100
AcDbBlockBegin
2
*PAPER_SPACE
0
ENDBLK
5
1D
100
AcDbEntity
100
AcDbBlockEnd
0
ENDSEC
0
SECTION
2
ENTITIES
0
CIRCLE
5
100
100
AcDbEntity
8
CUTOUTS
100
AcDbCircle
10
7.2834645669291289
20
-1.5748031496063033
30
0
40
0.12992125984251901
210
0
220
0
230
1
0
CIRCLE
5
101
100
AcDbEntity
8
CUTOUTS
100
AcDbCircle
10
3.7401574803133393
20
3.9370078740157419
30
0
40
0.1299212598425197
210
0
220
0
230
1
0
CIRCLE
5
102
100
AcDbEntity
8
CUTOUTS
100
AcDbCircle
10
7.2834645669291307
20
0.39370078740156988
30
0
40
0.12992125984251901
210
0
220
0
230
1
0
CIRCLE
5
103
100
AcDbEntity
8
CUTOUTS
100
AcDbCircle
10
3.7401574803149575
20
-3.9370078740157477
30
0
40
0.1299212598425197
210
0
220
0
230
1
0
CIRCLE
5
104
100
AcDbEntity
8
CUTOUTS
100
AcDbCircle
10
-2.7974123455122052e-15
20
-3.9370078740157504
30
0
40
0.12992125984251968
210
0
220
0
230
1
0
CIRCLE
5
105
100
AcDbEntity
8
CUTOUTS
100
AcDbCircle
10
-7.2834645669291342
20
-1.5748031496063033
30
0
40
0.12992125984251901
210
0
220
0
230
1
0
CIRCLE
5
106
100
AcDbEntity
8
CUTOUTS
100
AcDbCircle
10
-2.6254402750913736e-15
20
3.9370078740157464
30
0
40
0.12992125984251968
210
0
220
0
230
1
0
CIRCLE
5
107
100
AcDbEntity
8
CUTOUTS
100
AcDbCircle
10
-3.7401574803133446
20
3.9370078740157419
30
0
40
0.1299212598425197
210
0
220
0
230
1
0
CIRCLE
5
108
100
AcDbEntity
8
CUTOUTS
100
AcDbCircle
10
-7.283464566929136
20
0.39370078740156988
30
0
40
0.12992125984251901
210
0
220
0
230
1
0
CIRCLE
5
109
100
AcDbEntity
8
CUTOUTS
100
AcDbCircle
10
-3.7401574803149633
20
-3.9370078740157477
30
0
40
0.1299212598425197
210
0
220
0
230
1
0
LINE
5
10A
100
AcDbEntity
8
PERIMETER
100
AcDbLine
10
4.2716535433070879
20
-4.4488188976377945
30
0
11
4.2716535433070888
21
-3.3586227163139704
31
0
0
ARC
5
10B
100
AcDbEntity
8
PERIMETER
100
AcDbCircle
10
4.3503937007874036
20
-3.3586227163139704
30
0
40
0.078740157480315334
210
0
220
0
230
1
100
AcDbArc
50
116.5650511770783
51
180
0
LINE
5
10C
100
AcDbEntity
8
PERIMETER
100
AcDbLine
10
4.3151800318503986
20
-3.2881953784399611
30
0
11
6.6623467243208685
21
-2.1146120322047297
31
0
0
ARC
5
10D
100
AcDbEntity
8
PERIMETER
100
AcDbCircle
10
6.6975603932578736
20
-2.1850393700787394
30
0
40
0.078740157480315029
210
0
220
-0
230
1
100
AcDbArc
50
90
51
116.56505117707843
0
LINE
5
10E
100
AcDbEntity
8
PERIMETER
100
AcDbLine
10
6.6975603932578736
20
-2.1062992125984246
30
0
11
7.7952755905511832
21
-2.1062992125984237
31
0
0
ARC
5
10F
100
AcDbEntity
8
PERIMETER
100
AcDbCircle
10
7.7952755905511832
20
-2.0275590551181089
30
0
40
0.078740157480315029
210
-0
220
0
230
1
100
AcDbArc
50
270
51
360
0
LINE
5
110
100
AcDbEntity
8
PERIMETER
100
AcDbLine
10
7.8740157480314981
20
-2.0275590551181093
30
0
11
7.8740157480314954
21
0.84645669291338588
31
0
0
ARC
5
111
100
AcDbEntity
8
PERIMETER
100
AcDbCircle
10
7.7952755905511806
20
0.84645669291338588
30
0
40
0.078740157480314668
210
0
220
-0
230
1
100
AcDbArc
50
0
51
90
0
LINE
5
112
100
AcDbEntity
8
PERIMETER
100
AcDbLine
10
7.7952755905511806
20
0.92519685039370059
30
0
11
6.7010671961097028
21
0.92519685039369992
31
0
0
ARC
5
113
100
AcDbEntity
8
PERIMETER
100
AcDbCircle
10
6.7010671961097028
20
1.0039370078740146
30
0
40
0.078740157480314793
210
0
220
0
230
1
100
AcDbArc
50
225.00000000002004
51
270
0
LINE
5
114
100
AcDbEntity
8
PERIMETER
100
AcDbLine
10
6.6453894968036948
20
0.9482593085679677
30
0
11
4.2947160014797738
21
3.2989328038902777
31
0
0
ARC
5
115
100
AcDbEntity
8
PERIMETER
100
AcDbCircle
10
4.3503937007857809
20
3.3546105031963243
30
0
40
0.078740157480314668
210
0
220
0
230
1
100
AcDbArc
50
180
51
225.00000000002032
0
LINE
5
116
100
AcDbEntity
8
PERIMETER
100
AcDbLine
10
4.2716535433054661
20
3.3546105031963243
30
0
11
4.2716535433054652
21
4.4488188976377936
31
0
0
ARC
5
117
100
AcDbEntity
8
PERIMETER
100
AcDbCircle
10
4.1929133858251513
20
4.4488188976377936
30
0
40
0.078740157480313974
210
0
220
-0
230
1
100
AcDbArc
50
0
51
90.000000000000654
0
LINE
5
118
100
AcDbEntity
8
PERIMETER
100
AcDbLine
10
4.1929133858251504
20
4.5275590551181066
30
0
11
-4.1929133858251548
21
4.527559055118104
31
0
0
ARC
5
119
100
AcDbEntity
8
PERIMETER
100
AcDbCircle
10
-4.1929133858251548
20
4.4488188976377891
30
0
40
0.078740157480314668
210
0
220
-0
230
1
100
AcDbArc
50
90
51
180
0
LINE
5
11A
100
AcDbEntity
8
PERIMETER
100
AcDbLine
10
-4.2716535433054696
20
4.4488188976377909
30
0
11
-4.2716535433054705
21
3.3546105031963216
31
0
0
ARC
5
11B
100
AcDbEntity
8
PERIMETER
100
AcDbCircle
10
-4.3503937007857854
20
3.3546105031963216
30
0
40
0.078740157480314793
210
-0
220
0
230
1
100
AcDbArc
50
-45.000000000020101
51
0
0
LINE
5
11C
100
AcDbEntity
8
PERIMETER
100
AcDbLine
10
-4.2947160014797774
20
3.2989328038902745
30
0
11
-6.6453894968036984
21
0.94825930856796492
31
0
0
ARC
5
11D
100
AcDbEntity
8
PERIMETER
100
AcDbCircle
10
-6.7010671961097046
20
1.0039370078740104
30
0
40
0.078740157480314668
210
-0
220
0
230
1
100
AcDbArc
50
270
51
314.99999999997993
0
LINE
5
11E
100
AcDbEntity
8
PERIMETER
100
AcDbLine
10
-6.7010671961097046
20
0.9251968503936957
30
0
11
-7.7952755905511824
21
0.92519685039369703
31
0
0
ARC
5
11F
100
AcDbEntity
8
PERIMETER
100
AcDbCircle
10
-7.7952755905511824
20
0.8464566929133831
30
0
40
0.078740157480313974
210
0
220
-0
230
1
100
AcDbArc
50
90
51
180
0
LINE
5
120
100
AcDbEntity
8
PERIMETER
100
AcDbLine
10
-7.8740157480314954
20
0.84645669291338244
30
0
11
-7.8740157480314981
21
-2.0275590551181137
31
0
0
ARC
5
121
100
AcDbEntity
8
PERIMETER
100
AcDbCircle
10
-7.7952755905511832
20
-2.0275590551181133
30
0
40
0.078740157480314668
210
0
220
0
230
1
100
AcDbArc
50
180
51
270
0
LINE
5
122
100
AcDbEntity
8
PERIMETER
100
AcDbLine
10
-7.7952755905511832
20
-2.1062992125984281
30
0
11
-6.6975603932578718
21
-2.106299212598429
31
0
0
ARC
5
123
100
AcDbEntity
8
PERIMETER
100
AcDbCircle
10
-6.6975603932578718
20
-2.1850393700787443
30
0
40
0.078740157480315029
210
0
220
-0
230
1
100
AcDbArc
50
63.434948822921733
51
90
0
LINE
5
124
100
AcDbEntity
8
PERIMETER
100
AcDbLine
10
-6.6623467243208667
20
-2.114612032204735
30
0
11
-4.3151800318503986
21
-3.2881953784399651
31
0
0
ARC
5
125
100
AcDbEntity
8
PERIMETER
100
AcDbCircle
10
-4.3503937007874027
20
-3.3586227163139748
30
0
40
0.078740157480314668
210
0
220
-0
230
1
100
AcDbArc
50
0
51
63.434948822922159
0
LINE
5
126
100
AcDbEntity
8
PERIMETER
100
AcDbLine
10
-4.2716535433070879
20
-3.3586227163139748
30
0
11
-4.2716535433070879
21
-4.4488188976377954
31
0
0
ARC
5
127
100
AcDbEntity
8
PERIMETER
100
AcDbCircle
10
-4.192913385826774
20
-4.4488188976377954
30
0
40
0.078740157480314668
210
0
220
0
230
1
100
AcDbArc
50
180
51
270
0
LINE
5
128
100
AcDbEntity
8
PERIMETER
100
AcDbLine
10
-4.192913385826774
20
-4.5275590551181102
30
0
11
4.192913385826774
21
-4.5275590551181102
31
0
0
ARC
5
129
100
AcDbEntity
8
PERIMETER
100
AcDbCircle
10
4.192913385826774
20
-4.4488188976377945
30
0
40
0.078740157480314668
210
-0
220
0
230
1
100
AcDbArc
50
-90
51
0
0
ENDSEC
0
SECTION
2
OBJECTS
0
DICTIONARY
5
C
100
AcDbDictionary
3
ACAD_GROUP
350
D
3
ACAD_MLINESTYLE
350
17
0
DICTIONARY
5
D
100
AcDbDictionary
0
DICTIONARY
5
1A
330
C
100
AcDbDictionary
0
DICTIONARY
5
17
100
AcDbDictionary
0
ENDSEC
0
EOF
