0
SECTION
2
HEADER
9
$INSUNITS
70
1
9
$ACADVER
1
AC1014
9
$HANDSEED
5
FFFF
0
ENDSEC
0
SECTION
2
TABLES
0
TABLE
2
VPORT
5
8
100
AcDbSymbolTable
0
ENDTAB
0
TABLE
2
LTYPE
5
5
100
AcDbSymbolTable
70
2
0
LTYPE
5
14
100
AcDbSymbolTableRecord
100
AcDbLinetypeTableRecord
2
BYBLOCK
70
0
0
LTYPE
5
15
100
AcDbSymbolTableRecord
100
AcDbLinetypeTableRecord
2
BYLAYER
70
0
0
ENDTAB
0
TABLE
2
LAYER
5
2
100
AcDbSymbolTable
70
3
0
LAYER
5
50
100
AcDbSymbolTableRecord
100
AcDbLayerTableRecord
2
0
70
0
6
CONTINUOUS
0
LAYER
5
51
100
AcDbSymbolTableRecord
100
AcDbLayerTableRecord
2
CUTOUTS
70
0
62
1
6
CONTINUOUS
0
LAYER
5
52
100
AcDbSymbolTableRecord
100
AcDbLayerTableRecord
2
PERIMETER
70
0
62
5
6
CONTINUOUS
0
ENDTAB
0
TABLE
2
STYLE
5
3
100
AcDbSymbolTable
70
1
0
STYLE
5
11
100
AcDbSymbolTableRecord
100
AcDbTextStyleTableRecord
2
STANDARD
70
0
0
ENDTAB
0
TABLE
2
VIEW
5
6
100
AcDbSymbolTable
0
ENDTAB
0
TABLE
2
UCS
5
7
100
AcDbSymbolTable
0
ENDTAB
0
TABLE
2
APPID
5
9
100
AcDbSymbolTable
70
1
0
APPID
5
12
100
AcDbSymbolTableRecord
100
AcDbRegAppTableRecord
2
ACAD
70
0
0
ENDTAB
0
TABLE
2
DIMSTYLE
5
A
100
AcDbSymbolTable
0
ENDTAB
0
TABLE
2
BLOCK_RECORD
5
1
100
AcDbSymbolTable
70
2
0
BLOCK_RECORD
5
1F
100
AcDbSymbolTableRecord
100
AcDbBlockTableRecord
2
*MODEL_SPACE
0
BLOCK_RECORD
5
1B
100
AcDbSymbolTableRecord
100
AcDbBlockTableRecord
2
*PAPER_SPACE
0
ENDTAB
0
ENDSEC
0
SECTION
2
BLOCKS
0
BLOCK
5
20
100
AcDbEntity
100
AcDbBlockBegin
2
*MODEL_SPACE
0
ENDBLK
5
21
100
AcDbEntity
100
AcDbBlockEnd
0
BLOCK
5
1C
100
AcDbEntity
100
AcDbBlockBegin
2
*PAPER_SPACE
0
ENDBLK
5
1D
100
AcDbEntity
100
AcDbBlockEnd
0
ENDSEC
0
SECTION
2
ENTITIES
0
CIRCLE
5
100
100
AcDbEntity
8
CUTOUTS
100
AcDbCircle
10
5.0196850393700796
20
3.5433070866141785
30
0
40
0.1299212598425197
210
0
220
0
230
1
0
CIRCLE
5
101
100
AcDbEntity
8
CUTOUTS
100
AcDbCircle
10
-5.0196850393700823
20
3.5433070866141745
30
0
40
0.1299212598425197
210
0
220
0
230
1
0
CIRCLE
5
102
100
AcDbEntity
8
CUTOUTS
100
AcDbCircle
10
-5.5314960629976371
20
-3.937007874015801
30
0
40
0.1299212598425197
210
0
220
0
230
1
0
CIRCLE
5
103
100
AcDbEntity
8
CUTOUTS
100
AcDbCircle
10
-5.0196850393700716
20
-11.41732283464567
30
0
40
0.1299212598425197
210
0
220
0
230
1
0
CIRCLE
5
104
100
AcDbEntity
8
CUTOUTS
100
AcDbCircle
10
5.0196850393700796
20
-11.41732283464567
30
0
40
0.1299212598425197
210
0
220
0
230
1
0
CIRCLE
5
105
100
AcDbEntity
8
CUTOUTS
100
AcDbCircle
10
8.5629921259842554
20
-3.3464566929133812
30
0
40
0.12992125984251901
210
0
220
0
230
1
0
CIRCLE
5
106
100
AcDbEntity
8
CUTOUTS
100
AcDbCircle
10
8.5629921259842519
20
5.9055118110236267
30
0
40
0.12992125984251901
210
0
220
0
230
1
0
CIRCLE
5
107
100
AcDbEntity
8
CUTOUTS
100
AcDbCircle
10
5.0196850393700752
20
11.417322834645669
30
0
40
0.1299212598425197
210
0
220
0
230
1
0
CIRCLE
5
108
100
AcDbEntity
8
CUTOUTS
100
AcDbCircle
10
-5.0196850393700823
20
11.417322834645665
30
0
40
0.1299212598425197
210
0
220
0
230
1
0
CIRCLE
5
109
100
AcDbEntity
8
CUTOUTS
100
AcDbCircle
10
-8.5629921259842554
20
5.9055118110236204
30
0
40
0.12992125984251901
210
0
220
0
230
1
0
CIRCLE
5
10A
100
AcDbEntity
8
CUTOUTS
100
AcDbCircle
10
-8.5629921259842554
20
7.8740157480314927
30
0
40
0.12992125984251901
210
0
220
0
230
1
0
CIRCLE
5
10B
100
AcDbEntity
8
CUTOUTS
100
AcDbCircle
10
-4.2015822142556367e-15
20
11.417322834645667
30
0
40
0.12992125984251968
210
0
220
0
230
1
0
CIRCLE
5
10C
100
AcDbEntity
8
CUTOUTS
100
AcDbCircle
10
8.5629921259842501
20
7.8740157480314981
30
0
40
0.12992125984251901
210
0
220
0
230
1
0
CIRCLE
5
10D
100
AcDbEntity
8
CUTOUTS
100
AcDbCircle
10
8.5629921259842554
20
1.1811023622047299
30
0
40
0.12992125984251901
210
0
220
0
230
1
0
CIRCLE
5
10E
100
AcDbEntity
8
CUTOUTS
100
AcDbCircle
10
8.5629921259842519
20
-7.8740157480314927
30
0
40
0.12992125984251901
210
0
220
0
230
1
0
CIRCLE
5
10F
100
AcDbEntity
8
CUTOUTS
100
AcDbCircle
10
4.1961185182683078e-15
20
-11.417322834645669
30
0
40
0.12992125984251968
210
0
220
0
230
1
0
CIRCLE
5
110
100
AcDbEntity
8
CUTOUTS
100
AcDbCircle
10
-5.5314960630023595
20
-9.8425196850393721
30
0
40
0.1299212598425197
210
0
220
0
230
1
0
CIRCLE
5
111
100
AcDbEntity
8
CUTOUTS
100
AcDbCircle
10
-5.5314960629927583
20
2.1653543307086616
30
0
40
0.1299212598425197
210
0
220
0
230
1
0
CIRCLE
5
112
100
AcDbEntity
8
CUTOUTS
100
AcDbCircle
10
-4.1961185182683078e-15
20
3.54330708661417
30
0
40
0.12992125984251968
210
0
220
0
230
1
0
LINE
5
113
100
AcDbEntity
8
PERIMETER
100
AcDbLine
10
-5.5511811023621975
20
-10.834925463826247
30
0
11
-5.5511811023621975
21
-11.929133858267717
31
0
0
ARC
5
114
100
AcDbEntity
8
PERIMETER
100
AcDbCircle
10
-5.4724409448818818
20
-11.92913385826772
30
0
40
0.078740157480315376
210
0
220
0
230
1
100
AcDbArc
50
180
51
270
0
LINE
5
115
100
AcDbEntity
8
PERIMETER
100
AcDbLine
10
-5.4724409448818818
20
-12.007874015748037
30
0
11
5.4724409448818898
21
-12.007874015748033
31
0
0
ARC
5
116
100
AcDbEntity
8
PERIMETER
100
AcDbCircle
10
5.4724409448818898
20
-11.92913385826772
30
0
40
0.07874015748031328
210
-0
220
0
230
1
100
AcDbArc
50
-90
51
0
0
LINE
5
117
100
AcDbEntity
8
PERIMETER
100
AcDbLine
10
5.5511811023622037
20
-11.929133858267717
30
0
11
5.5511811023622055
21
-10.834925463826242
31
0
0
ARC
5
118
100
AcDbEntity
8
PERIMETER
100
AcDbCircle
10
5.6299212598425195
20
-10.834925463826242
30
0
40
0.078740157480315293
210
0
220
0
230
1
100
AcDbArc
50
135
51
180
0
LINE
5
119
100
AcDbEntity
8
PERIMETER
100
AcDbLine
10
5.5742435605364919
20
-10.779247764520214
30
0
11
7.9249170558587965
21
-8.428574269197906
31
0
0
ARC
5
11A
100
AcDbEntity
8
PERIMETER
100
AcDbCircle
10
7.980594755164824
20
-8.4842519685039335
30
0
40
0.078740157480314668
210
0
220
-0
230
1
100
AcDbArc
50
90
51
135
0
LINE
5
11B
100
AcDbEntity
8
PERIMETER
100
AcDbLine
10
7.980594755164824
20
-8.4055118110236187
30
0
11
9.0748031496063017
21
-8.4055118110236187
31
0
0
ARC
5
11C
100
AcDbEntity
8
PERIMETER
100
AcDbCircle
10
9.0748031496063017
20
-8.3267716535433038
30
0
40
0.078740157480314668
210
-0
220
0
230
1
100
AcDbArc
50
-90
51
0
0
LINE
5
11D
100
AcDbEntity
8
PERIMETER
100
AcDbLine
10
9.1535433070866166
20
-8.3267716535433038
30
0
11
9.1535433070866183
21
1.6338582677165403
31
0
0
ARC
5
11E
100
AcDbEntity
8
PERIMETER
100
AcDbCircle
10
9.0748031496063035
20
1.6338582677165401
30
0
40
0.078740157480314668
210
0
220
-0
230
1
100
AcDbArc
50
0
51
90
0
LINE
5
11F
100
AcDbEntity
8
PERIMETER
100
AcDbLine
10
9.0748031496063035
20
1.7125984251968547
30
0
11
7.9770879523129912
21
1.7125984251968558
31
0
0
ARC
5
120
100
AcDbEntity
8
PERIMETER
100
AcDbCircle
10
7.9770879523129912
20
1.7913385826771708
30
0
40
0.078740157480315029
210
0
220
0
230
1
100
AcDbArc
50
243.43494882292168
51
270
0
LINE
5
121
100
AcDbEntity
8
PERIMETER
100
AcDbLine
10
7.9418742833759861
20
1.7209112448031616
30
0
11
5.5947075909055162
21
2.8944945910383959
31
0
0
ARC
5
122
100
AcDbEntity
8
PERIMETER
100
AcDbCircle
10
5.6299212598425203
20
2.9649219289124056
30
0
40
0.078740157480314668
210
0
220
0
230
1
100
AcDbArc
50
180
51
243.43494882292228
0
LINE
5
123
100
AcDbEntity
8
PERIMETER
100
AcDbLine
10
5.5511811023622055
20
2.9649219289124056
30
0
11
5.5511811023622055
21
4.1216922443159518
31
0
0
ARC
5
124
100
AcDbEntity
8
PERIMETER
100
AcDbCircle
10
5.6299212598425203
20
4.1216922443159518
30
0
40
0.07874015748031471
210
0
220
0
230
1
100
AcDbArc
50
116.56505117707857
51
180
0
LINE
5
125
100
AcDbEntity
8
PERIMETER
100
AcDbLine
10
5.5947075909055153
20
4.1921195821899611
30
0
11
7.9418742833759834
21
5.3657029284251943
31
0
0
ARC
5
126
100
AcDbEntity
8
PERIMETER
100
AcDbCircle
10
7.9770879523129885
20
5.2952755905511841
30
0
40
0.078740157480314668
210
0
220
-0
230
1
100
AcDbArc
50
90
51
116.5650511770783
0
LINE
5
127
100
AcDbEntity
8
PERIMETER
100
AcDbLine
10
7.9770879523129885
20
5.3740157480314998
30
0
11
9.0748031496063
21
5.3740157480315007
31
0
0
ARC
5
128
100
AcDbEntity
8
PERIMETER
100
AcDbCircle
10
9.0748031496063
20
5.4527559055118164
30
0
40
0.078740157480315376
210
-0
220
0
230
1
100
AcDbArc
50
-90
51
0
0
LINE
5
129
100
AcDbEntity
8
PERIMETER
100
AcDbLine
10
9.1535433070866148
20
5.4527559055118164
30
0
11
9.1535433070866112
21
8.3267716535433092
31
0
0
ARC
5
12A
100
AcDbEntity
8
PERIMETER
100
AcDbCircle
10
9.0748031496062982
20
8.3267716535433092
30
0
40
0.078740157480314668
210
0
220
-0
230
1
100
AcDbArc
50
0
51
90
0
LINE
5
12B
100
AcDbEntity
8
PERIMETER
100
AcDbLine
10
9.0748031496062982
20
8.405511811023624
30
0
11
7.9805947551648222
21
8.405511811023624
31
0
0
ARC
5
12C
100
AcDbEntity
8
PERIMETER
100
AcDbCircle
10
7.9805947551648222
20
8.4842519685039388
30
0
40
0.078740157480314793
210
0
220
0
230
1
100
AcDbArc
50
225
51
270
0
LINE
5
12D
100
AcDbEntity
8
PERIMETER
100
AcDbLine
10
7.9249170558587947
20
8.4285742691979113
30
0
11
5.5742435605364893
21
10.779247764520216
31
0
0
ARC
5
12E
100
AcDbEntity
8
PERIMETER
100
AcDbCircle
10
5.6299212598425159
20
10.834925463826242
30
0
40
0.078740157480314668
210
0
220
0
230
1
100
AcDbArc
50
180
51
225
0
LINE
5
12F
100
AcDbEntity
8
PERIMETER
100
AcDbLine
10
5.5511811023622011
20
10.834925463826242
30
0
11
5.5511811023622002
21
11.929133858267717
31
0
0
ARC
5
130
100
AcDbEntity
8
PERIMETER
100
AcDbCircle
10
5.4724409448818854
20
11.929133858267717
30
0
40
0.078740157480314668
210
0
220
-0
230
1
100
AcDbArc
50
0
51
90
0
LINE
5
131
100
AcDbEntity
8
PERIMETER
100
AcDbLine
10
5.4724409448818854
20
12.00787401574803
30
0
11
-5.4724409448818925
21
12.007874015748024
31
0
0
ARC
5
132
100
AcDbEntity
8
PERIMETER
100
AcDbCircle
10
-5.4724409448818934
20
11.92913385826771
30
0
40
0.078740157480314668
210
0
220
-0
230
1
100
AcDbArc
50
89.999999999999346
51
180
0
LINE
5
133
100
AcDbEntity
8
PERIMETER
100
AcDbLine
10
-5.5511811023622082
20
11.92913385826771
30
0
11
-5.5511811023622082
21
10.83492546382624
31
0
0
ARC
5
134
100
AcDbEntity
8
PERIMETER
100
AcDbCircle
10
-5.629921259842523
20
10.83492546382624
30
0
40
0.078740157480314793
210
-0
220
0
230
1
100
AcDbArc
50
-45.000000000001826
51
0
0
LINE
5
135
100
AcDbEntity
8
PERIMETER
100
AcDbLine
10
-5.5742435605364973
20
10.77924776452021
30
0
11
-7.9249170558588009
21
8.428574269197906
31
0
0
ARC
5
136
100
AcDbEntity
8
PERIMETER
100
AcDbCircle
10
-7.9805947551648275
20
8.4842519685039317
30
0
40
0.078740157480314668
210
-0
220
0
230
1
100
AcDbArc
50
270
51
315.00000000000045
0
LINE
5
137
100
AcDbEntity
8
PERIMETER
100
AcDbLine
10
-7.9805947551648275
20
8.4055118110236187
30
0
11
-9.0748031496063017
21
8.4055118110236187
31
0
0
ARC
5
138
100
AcDbEntity
8
PERIMETER
100
AcDbCircle
10
-9.0748031496063017
20
8.3267716535433038
30
0
40
0.078740157480314668
210
0
220
-0
230
1
100
AcDbArc
50
90
51
180
0
LINE
5
139
100
AcDbEntity
8
PERIMETER
100
AcDbLine
10
-9.1535433070866166
20
8.3267716535433038
30
0
11
-9.1535433070866183
21
5.4527559055118093
31
0
0
ARC
5
13A
100
AcDbEntity
8
PERIMETER
100
AcDbCircle
10
-9.0748031496063035
20
5.4527559055118093
30
0
40
0.078740157480314668
210
0
220
0
230
1
100
AcDbArc
50
180
51
270
0
LINE
5
13B
100
AcDbEntity
8
PERIMETER
100
AcDbLine
10
-9.0748031496063035
20
5.3740157480314954
30
0
11
-7.9770879523129912
21
5.3740157480314936
31
0
0
ARC
5
13C
100
AcDbEntity
8
PERIMETER
100
AcDbCircle
10
-7.9770879523129912
20
5.2952755905511788
30
0
40
0.078740157480315334
210
0
220
-0
230
1
100
AcDbArc
50
63.434948822921733
51
90
0
LINE
5
13D
100
AcDbEntity
8
PERIMETER
100
AcDbLine
10
-7.9418742833759861
20
5.365702928425188
30
0
11
-5.5947075909055179
21
4.1921195821899566
31
0
0
ARC
5
13E
100
AcDbEntity
8
PERIMETER
100
AcDbCircle
10
-5.6299212598425221
20
4.1216922443159474
30
0
40
0.078740157480314668
210
0
220
0
230
1
100
AcDbArc
50
0
51
63.43494882292201
0
LINE
5
13F
100
AcDbEntity
8
PERIMETER
100
AcDbLine
10
-5.5511811023622073
20
4.1216922443159474
30
0
11
-5.5511811023622073
21
2.9649219289124011
31
0
0
ARC
5
140
100
AcDbEntity
8
PERIMETER
100
AcDbCircle
10
-5.6299212598425221
20
2.9649219289124011
30
0
40
0.078740157480315029
210
-0
220
0
230
1
100
AcDbArc
50
-63.434948822922308
51
0
0
LINE
5
141
100
AcDbEntity
8
PERIMETER
100
AcDbLine
10
-5.5947075909055179
20
2.8944945910383919
30
0
11
-5.9604105193307078
21
2.7116431268257961
31
0
0
ARC
5
142
100
AcDbEntity
8
PERIMETER
100
AcDbCircle
10
-5.9251968503937036
20
2.6412157889517869
30
0
40
0.078740157480315029
210
0
220
0
230
1
100
AcDbArc
50
116.56505117707771
51
180
0
LINE
5
143
100
AcDbEntity
8
PERIMETER
100
AcDbLine
10
-6.0039370078740184
20
2.6412157889517873
30
0
11
-6.0039370078740184
21
1.8042687844388241
31
0
0
ARC
5
144
100
AcDbEntity
8
PERIMETER
100
AcDbCircle
10
-5.9251968503937009
20
1.8042687844388259
30
0
40
0.078740157480316778
210
0
220
0
230
1
100
AcDbArc
50
180
51
224.99999999999932
0
LINE
5
145
100
AcDbEntity
8
PERIMETER
100
AcDbLine
10
-5.9808745496997302
20
1.7485910851327979
30
0
11
-5.1214876550263773
21
0.88920419045940347
31
0
0
ARC
5
146
100
AcDbEntity
8
PERIMETER
100
AcDbCircle
10
-5.1771653543324057
20
0.83352649115337762
30
0
40
0.078740157480314668
210
-0
220
0
230
1
100
AcDbArc
50
0
51
44.999999999998614
0
LINE
5
147
100
AcDbEntity
8
PERIMETER
100
AcDbLine
10
-5.0984251968520908
20
0.83352649115331467
30
0
11
-5.0984251968548397
21
-2.6051800344633658
31
0
0
ARC
5
148
100
AcDbEntity
8
PERIMETER
100
AcDbCircle
10
-5.1771653543351555
20
-2.6051800344633027
30
0
40
0.078740157480315293
210
-0
220
0
230
1
100
AcDbArc
50
315
51
360
0
LINE
5
149
100
AcDbEntity
8
PERIMETER
100
AcDbLine
10
-5.121487655029128
20
-2.6608577337693302
30
0
11
-5.9808745496997275
21
-3.5202446284399316
31
0
0
ARC
5
14A
100
AcDbEntity
8
PERIMETER
100
AcDbCircle
10
-5.9251968503937
20
-3.5759223277459604
30
0
40
0.078740157480316292
210
0
220
0
230
1
100
AcDbArc
50
134.99999999999932
51
180
0
LINE
5
14B
100
AcDbEntity
8
PERIMETER
100
AcDbLine
10
-6.0039370078740157
20
-3.5759223277459604
30
0
11
-6.003937007874014
21
-4.2980934202856442
31
0
0
ARC
5
14C
100
AcDbEntity
8
PERIMETER
100
AcDbCircle
10
-5.9251968503937018
20
-4.298093420285646
30
0
40
0.078740157480311879
210
0
220
0
230
1
100
AcDbArc
50
180
51
225.00000000000045
0
LINE
5
14D
100
AcDbEntity
8
PERIMETER
100
AcDbLine
10
-5.9808745496997266
20
-4.3537711195916717
30
0
11
-5.1214876550312587
21
-5.2131580142601264
31
0
0
ARC
5
14E
100
AcDbEntity
8
PERIMETER
100
AcDbCircle
10
-5.1771653543372853
20
-5.2688357135661539
30
0
40
0.078740157480314668
210
-0
220
0
230
1
100
AcDbArc
50
0
51
45
0
LINE
5
14F
100
AcDbEntity
8
PERIMETER
100
AcDbLine
10
-5.0984251968569705
20
-5.2688357135662169
30
0
11
-5.0984251968595631
21
-8.5106918454916709
31
0
0
ARC
5
150
100
AcDbEntity
8
PERIMETER
100
AcDbCircle
10
-5.1771653543398779
20
-8.5106918454916087
30
0
40
0.078740157480314793
210
-0
220
0
230
1
100
AcDbArc
50
315.00000000000091
51
360
0
LINE
5
151
100
AcDbEntity
8
PERIMETER
100
AcDbLine
10
-5.1214876550338504
20
-8.5663695447976345
30
0
11
-5.9808745496997231
21
-9.4257564394635054
31
0
0
ARC
5
152
100
AcDbEntity
8
PERIMETER
100
AcDbCircle
10
-5.9251968503937071
20
-9.4814341387695276
30
0
40
0.078740157480302442
210
0
220
0
230
1
100
AcDbArc
50
134.99999999999679
51
180
0
LINE
5
153
100
AcDbEntity
8
PERIMETER
100
AcDbLine
10
-6.0039370078740104
20
-9.4814341387695329
30
0
11
-6.0039370078740095
21
-10.316939076050957
31
0
0
ARC
5
154
100
AcDbEntity
8
PERIMETER
100
AcDbCircle
10
-5.9251968503936974
20
-10.316939076050957
30
0
40
0.078740157480312573
210
0
220
0
230
1
100
AcDbArc
50
180
51
225.00000000000091
0
LINE
5
155
100
AcDbEntity
8
PERIMETER
100
AcDbLine
10
-5.9808745496997213
20
-10.372616775356983
30
0
11
-5.5742435605364848
21
-10.779247764520219
31
0
0
ARC
5
156
100
AcDbEntity
8
PERIMETER
100
AcDbCircle
10
-5.6299212598425115
20
-10.834925463826247
30
0
40
0.078740157480314668
210
0
220
-0
230
1
100
AcDbArc
50
0
51
45.000000000000462
0
ENDSEC
0
SECTION
2
OBJECTS
0
DICTIONARY
5
C
100
AcDbDictionary
3
ACAD_GROUP
350
D
3
ACAD_MLINESTYLE
350
17
0
DICTIONARY
5
D
100
AcDbDictionary
0
DICTIONARY
5
1A
330
C
100
AcDbDictionary
0
DICTIONARY
5
17
100
AcDbDictionary
0
ENDSEC
0
EOF
