0
SECTION
2
HEADER
9
$INSUNITS
70
1
9
$ACADVER
1
AC1014
9
$HANDSEED
5
FFFF
0
ENDSEC
0
SECTION
2
TABLES
0
TABLE
2
VPORT
5
8
100
AcDbSymbolTable
0
ENDTAB
0
TABLE
2
LTYPE
5
5
100
AcDbSymbolTable
70
2
0
LTYPE
5
14
100
AcDbSymbolTableRecord
100
AcDbLinetypeTableRecord
2
BYBLOCK
70
0
0
LTYPE
5
15
100
AcDbSymbolTableRecord
100
AcDbLinetypeTableRecord
2
BYLAYER
70
0
0
ENDTAB
0
TABLE
2
LAYER
5
2
100
AcDbSymbolTable
70
3
0
LAYER
5
50
100
AcDbSymbolTableRecord
100
AcDbLayerTableRecord
2
0
70
0
6
CONTINUOUS
0
LAYER
5
51
100
AcDbSymbolTableRecord
100
AcDbLayerTableRecord
2
CUTOUTS
70
0
62
1
6
CONTINUOUS
0
LAYER
5
52
100
AcDbSymbolTableRecord
100
AcDbLayerTableRecord
2
PERIMETER
70
0
62
5
6
CONTINUOUS
0
ENDTAB
0
TABLE
2
STYLE
5
3
100
AcDbSymbolTable
70
1
0
STYLE
5
11
100
AcDbSymbolTableRecord
100
AcDbTextStyleTableRecord
2
STANDARD
70
0
0
ENDTAB
0
TABLE
2
VIEW
5
6
100
AcDbSymbolTable
0
ENDTAB
0
TABLE
2
UCS
5
7
100
AcDbSymbolTable
0
ENDTAB
0
TABLE
2
APPID
5
9
100
AcDbSymbolTable
70
1
0
APPID
5
12
100
AcDbSymbolTableRecord
100
AcDbRegAppTableRecord
2
ACAD
70
0
0
ENDTAB
0
TABLE
2
DIMSTYLE
5
A
100
AcDbSymbolTable
0
ENDTAB
0
TABLE
2
BLOCK_RECORD
5
1
100
AcDbSymbolTable
70
2
0
BLOCK_RECORD
5
1F
100
AcDbSymbolTableRecord
100
AcDbBlockTableRecord
2
*MODEL_SPACE
0
BLOCK_RECORD
5
1B
100
AcDbSymbolTableRecord
100
AcDbBlockTableRecord
2
*PAPER_SPACE
0
ENDTAB
0
ENDSEC
0
SECTION
2
BLOCKS
0
BLOCK
5
20
100
AcDbEntity
100
AcDbBlockBegin
2
*MODEL_SPACE
0
ENDBLK
5
21
100
AcDbEntity
100
AcDbBlockEnd
0
BLOCK
5
1C
100
AcDbEntity
100
AcDbBlockBegin
2
*PAPER_SPACE
0
ENDBLK
5
1D
100
AcDbEntity
100
AcDbBlockEnd
0
ENDSEC
0
SECTION
2
ENTITIES
0
CIRCLE
5
100
100
AcDbEntity
8
CUTOUTS
100
AcDbCircle
10
-1.6609635801478718e-15
20
-7.047244094488188
30
0
40
0.12992125984251968
210
0
220
0
230
1
0
CIRCLE
5
101
100
AcDbEntity
8
CUTOUTS
100
AcDbCircle
10
7.2834645669291316
20
0.31496062992125773
30
0
40
0.12992125984251901
210
0
220
0
230
1
0
CIRCLE
5
102
100
AcDbEntity
8
CUTOUTS
100
AcDbCircle
10
4.0551181102362159
20
-7.047244094488188
30
0
40
0.1299212598425197
210
0
220
0
230
1
0
CIRCLE
5
103
100
AcDbEntity
8
CUTOUTS
100
AcDbCircle
10
-7.2834645669291342
20
-3.8188976377952777
30
0
40
0.12992125984251901
210
0
220
0
230
1
0
CIRCLE
5
104
100
AcDbEntity
8
CUTOUTS
100
AcDbCircle
10
-7.2834645669291342
20
4.4488188976377936
30
0
40
0.12992125984251901
210
0
220
0
230
1
0
CIRCLE
5
105
100
AcDbEntity
8
CUTOUTS
100
AcDbCircle
10
2.5984251968503909
20
7.0472440944881862
30
0
40
0.1299212598425197
210
0
220
0
230
1
0
CIRCLE
5
106
100
AcDbEntity
8
CUTOUTS
100
AcDbCircle
10
-4.6850393700787389
20
7.047244094488188
30
0
40
0.1299212598425197
210
0
220
0
230
1
0
CIRCLE
5
107
100
AcDbEntity
8
CUTOUTS
100
AcDbCircle
10
-2.0866141732283485
20
7.0472440944881862
30
0
40
0.1299212598425197
210
0
220
0
230
1
0
CIRCLE
5
108
100
AcDbEntity
8
CUTOUTS
100
AcDbCircle
10
4.6850393700787389
20
7.0472440944881862
30
0
40
0.1299212598425197
210
0
220
0
230
1
0
CIRCLE
5
109
100
AcDbEntity
8
CUTOUTS
100
AcDbCircle
10
-7.2834645669291342
20
0.31496062992125867
30
0
40
0.12992125984251901
210
0
220
0
230
1
0
CIRCLE
5
10A
100
AcDbEntity
8
CUTOUTS
100
AcDbCircle
10
-4.0551181102362204
20
-7.047244094488188
30
0
40
0.1299212598425197
210
0
220
0
230
1
0
CIRCLE
5
10B
100
AcDbEntity
8
CUTOUTS
100
AcDbCircle
10
7.2834645669291316
20
-3.818897637795279
30
0
40
0.12992125984251901
210
0
220
0
230
1
0
CIRCLE
5
10C
100
AcDbEntity
8
CUTOUTS
100
AcDbCircle
10
7.2834645669291316
20
4.4488188976377927
30
0
40
0.12992125984251901
210
0
220
0
230
1
0
LINE
5
10D
100
AcDbEntity
8
PERIMETER
100
AcDbLine
10
-4.527559055118112
20
-7.5984251968503891
30
0
11
4.5275590551181066
21
-7.5984251968503917
31
0
0
ARC
5
10E
100
AcDbEntity
8
PERIMETER
100
AcDbCircle
10
4.5275590551181066
20
-7.5196850393700787
30
0
40
0.07874015748031328
210
0
220
0
230
1
100
AcDbArc
50
-90
51
0
0
LINE
5
10F
100
AcDbEntity
8
PERIMETER
100
AcDbLine
10
4.6062992125984206
20
-7.5196850393700787
30
0
11
4.6062992125984215
21
-4.6850393700787372
31
0
0
LINE
5
110
100
AcDbEntity
8
PERIMETER
100
AcDbLine
10
4.6062992125984215
20
-4.6850393700787372
30
0
11
4.9212598425196816
21
-4.370078740157477
31
0
0
LINE
5
111
100
AcDbEntity
8
PERIMETER
100
AcDbLine
10
4.9212598425196816
20
-4.370078740157477
30
0
11
7.7559055118110214
21
-4.370078740157477
31
0
0
ARC
5
112
100
AcDbEntity
8
PERIMETER
100
AcDbCircle
10
7.7559055118110214
20
-4.2913385826771622
30
0
40
0.078740157480314668
210
-0
220
0
230
1
100
AcDbArc
50
-90
51
0
0
LINE
5
113
100
AcDbEntity
8
PERIMETER
100
AcDbLine
10
7.8346456692913362
20
-4.2913385826771622
30
0
11
7.8346456692913371
21
4.9212598425196807
31
0
0
ARC
5
114
100
AcDbEntity
8
PERIMETER
100
AcDbCircle
10
7.7559055118110223
20
4.9212598425196816
30
0
40
0.078740157480314668
210
-0
220
0
230
1
100
AcDbArc
50
0
51
89.999999999998721
0
LINE
5
115
100
AcDbEntity
8
PERIMETER
100
AcDbLine
10
7.7559055118110223
20
4.9999999999999964
30
0
11
6.7716535433070861
21
4.9999999999999973
31
0
0
ARC
5
116
100
AcDbEntity
8
PERIMETER
100
AcDbCircle
10
6.7716535433070861
20
5.0787401574803122
30
0
40
0.078740157480314668
210
0
220
0
230
1
100
AcDbArc
50
180
51
270
0
LINE
5
117
100
AcDbEntity
8
PERIMETER
100
AcDbLine
10
6.6929133858267713
20
5.0787401574803122
30
0
11
6.6929133858267713
21
6.3779527559055094
31
0
0
ARC
5
118
100
AcDbEntity
8
PERIMETER
100
AcDbCircle
10
6.6141732283464574
20
6.3779527559055111
30
0
40
0.07874015748031328
210
-0
220
0
230
1
100
AcDbArc
50
0
51
90.000000000000654
0
LINE
5
119
100
AcDbEntity
8
PERIMETER
100
AcDbLine
10
6.6141732283464565
20
6.4566929133858242
30
0
11
5.3149606299212575
21
6.456692913385826
31
0
0
ARC
5
11A
100
AcDbEntity
8
PERIMETER
100
AcDbCircle
10
5.3149606299212575
20
6.5354330708661408
30
0
40
0.078740157480314668
210
0
220
0
230
1
100
AcDbArc
50
180
51
270
0
LINE
5
11B
100
AcDbEntity
8
PERIMETER
100
AcDbLine
10
5.2362204724409427
20
6.5354330708661408
30
0
11
5.2362204724409436
21
7.5196850393700769
31
0
0
ARC
5
11C
100
AcDbEntity
8
PERIMETER
100
AcDbCircle
10
5.1574803149606288
20
7.5196850393700769
30
0
40
0.078740157480314668
210
0
220
-0
230
1
100
AcDbArc
50
0
51
90
0
LINE
5
11D
100
AcDbEntity
8
PERIMETER
100
AcDbLine
10
5.1574803149606288
20
7.5984251968503917
30
0
11
2.1259842519685006
21
7.5984251968503917
31
0
0
ARC
5
11E
100
AcDbEntity
8
PERIMETER
100
AcDbCircle
10
2.125984251968501
20
7.5196850393700769
30
0
40
0.078740157480314668
210
0
220
0
230
1
100
AcDbArc
50
90.000000000000327
51
180
0
LINE
5
11F
100
AcDbEntity
8
PERIMETER
100
AcDbLine
10
2.0472440944881862
20
7.5196850393700769
30
0
11
2.0472440944881849
21
6.5354330708661372
31
0
0
ARC
5
120
100
AcDbEntity
8
PERIMETER
100
AcDbCircle
10
1.9685039370078701
20
6.5354330708661372
30
0
40
0.078740157480314668
210
-0
220
0
230
1
100
AcDbArc
50
-89.999999999999844
51
0
0
LINE
5
121
100
AcDbEntity
8
PERIMETER
100
AcDbLine
10
1.9685039370078703
20
6.4566929133858233
30
0
11
1.6141732283464532
21
6.4566929133858233
31
0
0
ARC
5
122
100
AcDbEntity
8
PERIMETER
100
AcDbCircle
10
1.6141732283464536
20
6.3779527559055085
30
0
40
0.078740157480314668
210
0
220
0
230
1
100
AcDbArc
50
90.000000000000327
51
180
0
LINE
5
123
100
AcDbEntity
8
PERIMETER
100
AcDbLine
10
1.535433070866139
20
6.3779527559055085
30
0
11
1.535433070866139
21
4.2125984251968491
31
0
0
LINE
5
124
100
AcDbEntity
8
PERIMETER
100
AcDbLine
10
1.535433070866139
20
4.2125984251968491
30
0
11
1.2598425196850367
21
3.9370078740157468
31
0
0
LINE
5
125
100
AcDbEntity
8
PERIMETER
100
AcDbLine
10
1.2598425196850367
20
3.9370078740157468
30
0
11
-1.259842519685042
21
3.9370078740157468
31
0
0
LINE
5
126
100
AcDbEntity
8
PERIMETER
100
AcDbLine
10
-1.259842519685042
20
3.9370078740157468
30
0
11
-1.5354330708661443
21
4.2125984251968491
31
0
0
LINE
5
127
100
AcDbEntity
8
PERIMETER
100
AcDbLine
10
-1.5354330708661443
20
4.2125984251968491
30
0
11
-1.5354330708661448
21
7.519685039370076
31
0
0
ARC
5
128
100
AcDbEntity
8
PERIMETER
100
AcDbCircle
10
-1.6141732283464592
20
7.519685039370076
30
0
40
0.078740157480314502
210
0
220
-0
230
1
100
AcDbArc
50
0
51
90.000000000000327
0
LINE
5
129
100
AcDbEntity
8
PERIMETER
100
AcDbLine
10
-1.6141732283464596
20
7.5984251968503909
30
0
11
-5.1574803149606332
21
7.5984251968503917
31
0
0
ARC
5
12A
100
AcDbEntity
8
PERIMETER
100
AcDbCircle
10
-5.1574803149606323
20
7.5196850393700769
30
0
40
0.078740157480314668
210
0
220
0
230
1
100
AcDbArc
50
90.000000000000654
51
180
0
LINE
5
12B
100
AcDbEntity
8
PERIMETER
100
AcDbLine
10
-5.2362204724409471
20
7.5196850393700787
30
0
11
-5.2362204724409471
21
6.5354330708661417
31
0
0
ARC
5
12C
100
AcDbEntity
8
PERIMETER
100
AcDbCircle
10
-5.3149606299212611
20
6.5354330708661417
30
0
40
0.078740157480314668
210
-0
220
0
230
1
100
AcDbArc
50
-90
51
0
0
LINE
5
12D
100
AcDbEntity
8
PERIMETER
100
AcDbLine
10
-5.3149606299212611
20
6.4566929133858268
30
0
11
-6.6141732283464574
21
6.4566929133858268
31
0
0
ARC
5
12E
100
AcDbEntity
8
PERIMETER
100
AcDbCircle
10
-6.6141732283464574
20
6.377952755905512
30
0
40
0.078740157480314668
210
0
220
-0
230
1
100
AcDbArc
50
90
51
180
0
LINE
5
12F
100
AcDbEntity
8
PERIMETER
100
AcDbLine
10
-6.6929133858267722
20
6.377952755905512
30
0
11
-6.6929133858267722
21
5.078740157480313
31
0
0
ARC
5
130
100
AcDbEntity
8
PERIMETER
100
AcDbCircle
10
-6.771653543307087
20
5.078740157480313
30
0
40
0.078740157480314668
210
-0
220
0
230
1
100
AcDbArc
50
-90
51
0
0
LINE
5
131
100
AcDbEntity
8
PERIMETER
100
AcDbLine
10
-6.771653543307087
20
4.9999999999999982
30
0
11
-7.7559055118110241
21
4.9999999999999982
31
0
0
ARC
5
132
100
AcDbEntity
8
PERIMETER
100
AcDbCircle
10
-7.7559055118110241
20
4.9212598425196843
30
0
40
0.078740157480314668
210
0
220
-0
230
1
100
AcDbArc
50
90
51
180
0
LINE
5
133
100
AcDbEntity
8
PERIMETER
100
AcDbLine
10
-7.8346456692913389
20
4.9212598425196843
30
0
11
-7.8346456692913398
21
-4.2913385826771648
31
0
0
ARC
5
134
100
AcDbEntity
8
PERIMETER
100
AcDbCircle
10
-7.7559055118110258
20
-4.2913385826771657
30
0
40
0.078740157480314668
210
0
220
0
230
1
100
AcDbArc
50
180
51
269.99999999999932
0
LINE
5
135
100
AcDbEntity
8
PERIMETER
100
AcDbLine
10
-7.7559055118110258
20
-4.3700787401574805
30
0
11
-4.921259842519687
21
-4.3700787401574805
31
0
0
LINE
5
136
100
AcDbEntity
8
PERIMETER
100
AcDbLine
10
-4.921259842519687
20
-4.3700787401574805
30
0
11
-4.6062992125984268
21
-4.6850393700787407
31
0
0
LINE
5
137
100
AcDbEntity
8
PERIMETER
100
AcDbLine
10
-4.6062992125984268
20
-4.6850393700787407
30
0
11
-4.6062992125984268
21
-7.519685039370076
31
0
0
ARC
5
138
100
AcDbEntity
8
PERIMETER
100
AcDbCircle
10
-4.5275590551181129
20
-7.519685039370076
30
0
40
0.078740157480313974
210
0
220
0
230
1
100
AcDbArc
50
180
51
270.00000000000068
0
ENDSEC
0
SECTION
2
OBJECTS
0
DICTIONARY
5
C
100
AcDbDictionary
3
ACAD_GROUP
350
D
3
ACAD_MLINESTYLE
350
17
0
DICTIONARY
5
D
100
AcDbDictionary
0
DICTIONARY
5
1A
330
C
100
AcDbDictionary
0
DICTIONARY
5
17
100
AcDbDictionary
0
ENDSEC
0
EOF
