0
SECTION
2
HEADER
9
$INSUNITS
70
1
9
$ACADVER
1
AC1014
9
$HANDSEED
5
FFFF
0
ENDSEC
0
SECTION
2
TABLES
0
TABLE
2
VPORT
5
8
100
AcDbSymbolTable
0
ENDTAB
0
TABLE
2
LTYPE
5
5
100
AcDbSymbolTable
70
2
0
LTYPE
5
14
100
AcDbSymbolTableRecord
100
AcDbLinetypeTableRecord
2
BYBLOCK
70
0
0
LTYPE
5
15
100
AcDbSymbolTableRecord
100
AcDbLinetypeTableRecord
2
BYLAYER
70
0
0
ENDTAB
0
TABLE
2
LAYER
5
2
100
AcDbSymbolTable
70
3
0
LAYER
5
50
100
AcDbSymbolTableRecord
100
AcDbLayerTableRecord
2
0
70
0
6
CONTINUOUS
0
LAYER
5
51
100
AcDbSymbolTableRecord
100
AcDbLayerTableRecord
2
CUTOUTS
70
0
62
1
6
CONTINUOUS
0
LAYER
5
52
100
AcDbSymbolTableRecord
100
AcDbLayerTableRecord
2
PERIMETER
70
0
62
5
6
CONTINUOUS
0
ENDTAB
0
TABLE
2
STYLE
5
3
100
AcDbSymbolTable
70
1
0
STYLE
5
11
100
AcDbSymbolTableRecord
100
AcDbTextStyleTableRecord
2
STANDARD
70
0
0
ENDTAB
0
TABLE
2
VIEW
5
6
100
AcDbSymbolTable
0
ENDTAB
0
TABLE
2
UCS
5
7
100
AcDbSymbolTable
0
ENDTAB
0
TABLE
2
APPID
5
9
100
AcDbSymbolTable
70
1
0
APPID
5
12
100
AcDbSymbolTableRecord
100
AcDbRegAppTableRecord
2
ACAD
70
0
0
ENDTAB
0
TABLE
2
DIMSTYLE
5
A
100
AcDbSymbolTable
0
ENDTAB
0
TABLE
2
BLOCK_RECORD
5
1
100
AcDbSymbolTable
70
2
0
BLOCK_RECORD
5
1F
100
AcDbSymbolTableRecord
100
AcDbBlockTableRecord
2
*MODEL_SPACE
0
BLOCK_RECORD
5
1B
100
AcDbSymbolTableRecord
100
AcDbBlockTableRecord
2
*PAPER_SPACE
0
ENDTAB
0
ENDSEC
0
SECTION
2
BLOCKS
0
BLOCK
5
20
100
AcDbEntity
100
AcDbBlockBegin
2
*MODEL_SPACE
0
ENDBLK
5
21
100
AcDbEntity
100
AcDbBlockEnd
0
BLOCK
5
1C
100
AcDbEntity
100
AcDbBlockBegin
2
*PAPER_SPACE
0
ENDBLK
5
1D
100
AcDbEntity
100
AcDbBlockEnd
0
ENDSEC
0
SECTION
2
ENTITIES
0
CIRCLE
5
100
100
AcDbEntity
8
CUTOUTS
100
AcDbCircle
10
2.5098425196850389
20
-4.0305118110236258
30
0
40
0.1299212598425197
210
0
220
0
230
1
0
CIRCLE
5
101
100
AcDbEntity
8
CUTOUTS
100
AcDbCircle
10
-2.5098425196850331
20
-4.0305118110236267
30
0
40
0.1299212598425197
210
0
220
0
230
1
0
CIRCLE
5
102
100
AcDbEntity
8
CUTOUTS
100
AcDbCircle
10
8.5629921259842519
20
0.30019685039369348
30
0
40
0.12992125984251901
210
0
220
0
230
1
0
CIRCLE
5
103
100
AcDbEntity
8
CUTOUTS
100
AcDbCircle
10
1.398706172756103e-15
20
3.8435039370078736
30
0
40
0.12992125984251968
210
0
220
0
230
1
0
CIRCLE
5
104
100
AcDbEntity
8
CUTOUTS
100
AcDbCircle
10
-8.5629921259842519
20
0.30019685039369981
30
0
40
0.12992125984251901
210
0
220
0
230
1
0
CIRCLE
5
105
100
AcDbEntity
8
CUTOUTS
100
AcDbCircle
10
-8.5629921259842519
20
-1.668307086614186
30
0
40
0.12992125984251901
210
0
220
0
230
1
0
CIRCLE
5
106
100
AcDbEntity
8
CUTOUTS
100
AcDbCircle
10
-5.0196850393700787
20
3.8435039370078736
30
0
40
0.1299212598425197
210
0
220
0
230
1
0
CIRCLE
5
107
100
AcDbEntity
8
CUTOUTS
100
AcDbCircle
10
5.0196850393700814
20
3.8435039370078736
30
0
40
0.1299212598425197
210
0
220
0
230
1
0
CIRCLE
5
108
100
AcDbEntity
8
CUTOUTS
100
AcDbCircle
10
8.5629921259842519
20
-1.6683070866141849
30
0
40
0.12992125984251901
210
0
220
0
230
1
0
ARC
5
109
100
AcDbEntity
8
PERIMETER
100
AcDbCircle
10
-7.9805947551648222
20
0.910433070866141
30
0
40
0.078740157480314668
210
-0
220
0
230
1
100
AcDbArc
50
270
51
315.00000000000011
0
LINE
5
10A
100
AcDbEntity
8
PERIMETER
100
AcDbLine
10
-5.5742435605364919
20
3.2054288668824173
30
0
11
-7.9249170558587947
21
0.85475537156011372
31
0
0
ARC
5
10B
100
AcDbEntity
8
PERIMETER
100
AcDbCircle
10
-5.6299212598425186
20
3.2611065661884444
30
0
40
0.078740157480314793
210
-0
220
0
230
1
100
AcDbArc
50
-45.000000000000199
51
0
0
LINE
5
10C
100
AcDbEntity
8
PERIMETER
100
AcDbLine
10
-5.5511811023622037
20
4.3553149606299169
30
0
11
-5.5511811023622037
21
3.2611065661884444
31
0
0
ARC
5
10D
100
AcDbEntity
8
PERIMETER
100
AcDbCircle
10
-5.4724409448818898
20
4.3553149606299169
30
0
40
0.078740157480314668
210
0
220
-0
230
1
100
AcDbArc
50
89.999999999998721
51
180
0
LINE
5
10E
100
AcDbEntity
8
PERIMETER
100
AcDbLine
10
5.4724409448818925
20
4.4340551181102388
30
0
11
-5.472440944881888
21
4.4340551181102317
31
0
0
ARC
5
10F
100
AcDbEntity
8
PERIMETER
100
AcDbCircle
10
5.4724409448818925
20
4.355314960629924
30
0
40
0.078740157480314668
210
0
220
-0
230
1
100
AcDbArc
50
0
51
90
0
LINE
5
110
100
AcDbEntity
8
PERIMETER
100
AcDbLine
10
5.5511811023622055
20
3.2611065661884431
30
0
11
5.5511811023622073
21
4.355314960629924
31
0
0
ARC
5
111
100
AcDbEntity
8
PERIMETER
100
AcDbCircle
10
5.6299212598425203
20
3.2611065661884431
30
0
40
0.078740157480314668
210
0
220
0
230
1
100
AcDbArc
50
180
51
224.99999999999977
0
LINE
5
112
100
AcDbEntity
8
PERIMETER
100
AcDbLine
10
7.9249170558587965
20
0.85475537156010883
30
0
11
5.5742435605364928
21
3.205428866882416
31
0
0
ARC
5
113
100
AcDbEntity
8
PERIMETER
100
AcDbCircle
10
7.980594755164824
20
0.91043307086613678
30
0
40
0.078740157480315293
210
0
220
0
230
1
100
AcDbArc
50
225.00000000000023
51
270
0
LINE
5
114
100
AcDbEntity
8
PERIMETER
100
AcDbLine
10
9.0748031496062982
20
0.83169291338582141
30
0
11
7.980594755164824
21
0.83169291338582141
31
0
0
ARC
5
115
100
AcDbEntity
8
PERIMETER
100
AcDbCircle
10
9.0748031496062982
20
0.7529527559055067
30
0
40
0.078740157480314668
210
-0
220
0
230
1
100
AcDbArc
50
0
51
90
0
LINE
5
116
100
AcDbEntity
8
PERIMETER
100
AcDbLine
10
9.1535433070866112
20
-2.1210629921259949
30
0
11
9.1535433070866112
21
0.75295275590550603
31
0
0
ARC
5
117
100
AcDbEntity
8
PERIMETER
100
AcDbCircle
10
9.0748031496062982
20
-2.1210629921259954
30
0
40
0.078740157480313974
210
-0
220
0
230
1
100
AcDbArc
50
-90
51
0
0
LINE
5
118
100
AcDbEntity
8
PERIMETER
100
AcDbLine
10
7.9770879523129867
20
-2.1998031496063093
30
0
11
9.0748031496062982
21
-2.1998031496063093
31
0
0
ARC
5
119
100
AcDbEntity
8
PERIMETER
100
AcDbCircle
10
7.9770879523129867
20
-2.2785433070866241
30
0
40
0.078740157480315029
210
0
220
-0
230
1
100
AcDbArc
50
90
51
116.56505117707785
0
LINE
5
11A
100
AcDbEntity
8
PERIMETER
100
AcDbLine
10
5.5947075909055144
20
-3.3816993154478436
30
0
11
7.9418742833759826
21
-2.2081159692126149
31
0
0
ARC
5
11B
100
AcDbEntity
8
PERIMETER
100
AcDbCircle
10
5.6299212598425195
20
-3.4521266533218533
30
0
40
0.078740157480315334
210
0
220
0
230
1
100
AcDbArc
50
116.56505117707813
51
180
0
LINE
5
11C
100
AcDbEntity
8
PERIMETER
100
AcDbLine
10
5.5511811023622046
20
-3.4891732283464609
30
0
11
5.5511811023622046
21
-3.4521266533218533
31
0
0
ARC
5
11D
100
AcDbEntity
8
PERIMETER
100
AcDbCircle
10
5.4724409448818898
20
-3.4891732283464609
30
0
40
0.078740157480314668
210
-0
220
0
230
1
100
AcDbArc
50
-90
51
0
0
LINE
5
11E
100
AcDbEntity
8
PERIMETER
100
AcDbLine
10
4.6463687776758444
20
-3.5679133858267758
30
0
11
5.4724409448818898
21
-3.5679133858267758
31
0
0
ARC
5
11F
100
AcDbEntity
8
PERIMETER
100
AcDbCircle
10
4.6463687776758444
20
-3.6466535433070901
30
0
40
0.078740157480314668
210
0
220
-0
230
1
100
AcDbArc
50
90
51
135.00000000000023
0
LINE
5
120
100
AcDbEntity
8
PERIMETER
100
AcDbLine
10
3.770674262434925
20
-4.4109926599359532
30
0
11
4.5906910783698169
21
-3.5909758440010635
31
0
0
ARC
5
121
100
AcDbEntity
8
PERIMETER
100
AcDbCircle
10
3.7149965631288984
20
-4.3553149606299275
30
0
40
0.07874015748031328
210
-0
220
0
230
1
100
AcDbArc
50
270
51
315.00000000000045
0
LINE
5
122
100
AcDbEntity
8
PERIMETER
100
AcDbLine
10
1.3046884762411921
20
-4.4340551181102414
30
0
11
3.7149965631288984
21
-4.4340551181102406
31
0
0
ARC
5
123
100
AcDbEntity
8
PERIMETER
100
AcDbCircle
10
1.3046884762411919
20
-4.3553149606299266
30
0
40
0.078740157480314793
210
0
220
0
230
1
100
AcDbArc
50
225.00000000000011
51
270.00000000000017
0
LINE
5
124
100
AcDbEntity
8
PERIMETER
100
AcDbLine
10
0.42899396100026771
20
-3.590975844001056
30
0
11
1.2490107769351646
21
-4.4109926599359541
31
0
0
ARC
5
125
100
AcDbEntity
8
PERIMETER
100
AcDbCircle
10
0.37331626169424043
20
-3.646653543307083
30
0
40
0.078740157480314793
210
0
220
-0
230
1
100
AcDbArc
50
44.999999999999893
51
89.999999999999972
0
LINE
5
126
100
AcDbEntity
8
PERIMETER
100
AcDbLine
10
-0.3733162616942346
20
-3.5679133858267686
30
0
11
0.37331626169424043
21
-3.5679133858267686
31
0
0
ARC
5
127
100
AcDbEntity
8
PERIMETER
100
AcDbCircle
10
-0.3733162616942346
20
-3.646653543307083
30
0
40
0.078740157480314668
210
0
220
-0
230
1
100
AcDbArc
50
90
51
135.00000000000006
0
LINE
5
128
100
AcDbEntity
8
PERIMETER
100
AcDbLine
10
-1.2490107769351499
20
-4.4109926599359444
30
0
11
-0.42899396100026183
21
-3.5909758440010551
31
0
0
ARC
5
129
100
AcDbEntity
8
PERIMETER
100
AcDbCircle
10
-1.304688476241177
20
-4.3553149606299177
30
0
40
0.078740157480314668
210
0
220
0
230
1
100
AcDbArc
50
269.99999999999983
51
315.00000000000028
0
LINE
5
12A
100
AcDbEntity
8
PERIMETER
100
AcDbLine
10
-3.7149965631289068
20
-4.4340551181102317
30
0
11
-1.3046884762411772
21
-4.4340551181102326
31
0
0
ARC
5
12B
100
AcDbEntity
8
PERIMETER
100
AcDbCircle
10
-3.7149965631289068
20
-4.3553149606299177
30
0
40
0.078740157480314793
210
0
220
0
230
1
100
AcDbArc
50
224.99999999999977
51
270
0
LINE
5
12C
100
AcDbEntity
8
PERIMETER
100
AcDbLine
10
-4.5906910783698125
20
-3.5909758440010653
30
0
11
-3.7706742624349339
21
-4.4109926599359444
31
0
0
ARC
5
12D
100
AcDbEntity
8
PERIMETER
100
AcDbCircle
10
-4.6463687776758391
20
-3.6466535433070923
30
0
40
0.078740157480315293
210
0
220
-0
230
1
100
AcDbArc
50
45.000000000000682
51
90
0
LINE
5
12E
100
AcDbEntity
8
PERIMETER
100
AcDbLine
10
-5.4724409448818889
20
-3.5679133858267775
30
0
11
-4.6463687776758391
21
-3.5679133858267775
31
0
0
ARC
5
12F
100
AcDbEntity
8
PERIMETER
100
AcDbCircle
10
-5.4724409448818889
20
-3.4891732283464623
30
0
40
0.078740157480315376
210
0
220
0
230
1
100
AcDbArc
50
180
51
270
0
LINE
5
130
100
AcDbEntity
8
PERIMETER
100
AcDbLine
10
-5.5511811023622037
20
-3.4521266533218546
30
0
11
-5.5511811023622037
21
-3.4891732283464623
31
0
0
ARC
5
131
100
AcDbEntity
8
PERIMETER
100
AcDbCircle
10
-5.6299212598425177
20
-3.4521266533218546
30
0
40
0.078740157480314668
210
0
220
-0
230
1
100
AcDbArc
50
0
51
63.434948822922159
0
LINE
5
132
100
AcDbEntity
8
PERIMETER
100
AcDbLine
10
-7.9418742833759826
20
-2.2081159692126167
30
0
11
-5.5947075909055135
21
-3.381699315447845
31
0
0
ARC
5
133
100
AcDbEntity
8
PERIMETER
100
AcDbCircle
10
-7.9770879523129867
20
-2.2785433070866259
30
0
40
0.078740157480315029
210
0
220
-0
230
1
100
AcDbArc
50
63.434948822922301
51
90
0
LINE
5
134
100
AcDbEntity
8
PERIMETER
100
AcDbLine
10
-9.0748031496062982
20
-2.1998031496063106
30
0
11
-7.9770879523129867
21
-2.1998031496063111
31
0
0
ARC
5
135
100
AcDbEntity
8
PERIMETER
100
AcDbCircle
10
-9.0748031496062982
20
-2.1210629921259962
30
0
40
0.078740157480314668
210
0
220
0
230
1
100
AcDbArc
50
180
51
270
0
LINE
5
136
100
AcDbEntity
8
PERIMETER
100
AcDbLine
10
-9.153543307086613
20
0.75295275590551092
30
0
11
-9.153543307086613
21
-2.1210629921259962
31
0
0
ARC
5
137
100
AcDbEntity
8
PERIMETER
100
AcDbCircle
10
-9.0748031496062982
20
0.75295275590551092
30
0
40
0.078740157480314668
210
0
220
-0
230
1
100
AcDbArc
50
90
51
180
0
LINE
5
138
100
AcDbEntity
8
PERIMETER
100
AcDbLine
10
-7.9805947551648222
20
0.83169291338582629
30
0
11
-9.0748031496062982
21
0.83169291338582563
31
0
0
ENDSEC
0
SECTION
2
OBJECTS
0
DICTIONARY
5
C
100
AcDbDictionary
3
ACAD_GROUP
350
D
3
ACAD_MLINESTYLE
350
17
0
DICTIONARY
5
D
100
AcDbDictionary
0
DICTIONARY
5
1A
330
C
100
AcDbDictionary
0
DICTIONARY
5
17
100
AcDbDictionary
0
ENDSEC
0
EOF
