0
SECTION
2
HEADER
9
$INSUNITS
70
1
9
$ACADVER
1
AC1014
9
$HANDSEED
5
FFFF
0
ENDSEC
0
SECTION
2
TABLES
0
TABLE
2
VPORT
5
8
100
AcDbSymbolTable
0
ENDTAB
0
TABLE
2
LTYPE
5
5
100
AcDbSymbolTable
70
2
0
LTYPE
5
14
100
AcDbSymbolTableRecord
100
AcDbLinetypeTableRecord
2
BYBLOCK
70
0
0
LTYPE
5
15
100
AcDbSymbolTableRecord
100
AcDbLinetypeTableRecord
2
BYLAYER
70
0
0
ENDTAB
0
TABLE
2
LAYER
5
2
100
AcDbSymbolTable
70
3
0
LAYER
5
50
100
AcDbSymbolTableRecord
100
AcDbLayerTableRecord
2
0
70
0
6
CONTINUOUS
0
LAYER
5
51
100
AcDbSymbolTableRecord
100
AcDbLayerTableRecord
2
CUTOUTS
70
0
62
1
6
CONTINUOUS
0
LAYER
5
52
100
AcDbSymbolTableRecord
100
AcDbLayerTableRecord
2
PERIMETER
70
0
62
5
6
CONTINUOUS
0
ENDTAB
0
TABLE
2
STYLE
5
3
100
AcDbSymbolTable
70
1
0
STYLE
5
11
100
AcDbSymbolTableRecord
100
AcDbTextStyleTableRecord
2
STANDARD
70
0
0
ENDTAB
0
TABLE
2
VIEW
5
6
100
AcDbSymbolTable
0
ENDTAB
0
TABLE
2
UCS
5
7
100
AcDbSymbolTable
0
ENDTAB
0
TABLE
2
APPID
5
9
100
AcDbSymbolTable
70
1
0
APPID
5
12
100
AcDbSymbolTableRecord
100
AcDbRegAppTableRecord
2
ACAD
70
0
0
ENDTAB
0
TABLE
2
DIMSTYLE
5
A
100
AcDbSymbolTable
0
ENDTAB
0
TABLE
2
BLOCK_RECORD
5
1
100
AcDbSymbolTable
70
2
0
BLOCK_RECORD
5
1F
100
AcDbSymbolTableRecord
100
AcDbBlockTableRecord
2
*MODEL_SPACE
0
BLOCK_RECORD
5
1B
100
AcDbSymbolTableRecord
100
AcDbBlockTableRecord
2
*PAPER_SPACE
0
ENDTAB
0
ENDSEC
0
SECTION
2
BLOCKS
0
BLOCK
5
20
100
AcDbEntity
100
AcDbBlockBegin
2
*MODEL_SPACE
0
ENDBLK
5
21
100
AcDbEntity
100
AcDbBlockEnd
0
BLOCK
5
1C
100
AcDbEntity
100
AcDbBlockBegin
2
*PAPER_SPACE
0
ENDBLK
5
1D
100
AcDbEntity
100
AcDbBlockEnd
0
ENDSEC
0
SECTION
2
ENTITIES
0
CIRCLE
5
100
100
AcDbEntity
8
CUTOUTS
100
AcDbCircle
10
6.3976364811220838
20
2.4114173228346418
30
0
40
0.12992125984251901
210
0
220
0
230
1
0
CIRCLE
5
101
100
AcDbEntity
8
CUTOUTS
100
AcDbCircle
10
6.3976364811220821
20
-7.3523622047235824
30
0
40
0.12992125984251901
210
0
220
0
230
1
0
CIRCLE
5
102
100
AcDbEntity
8
CUTOUTS
100
AcDbCircle
10
6.3976364811220838
20
7.0177165354330659
30
0
40
0.12992125984251901
210
0
220
0
230
1
0
CIRCLE
5
103
100
AcDbEntity
8
CUTOUTS
100
AcDbCircle
10
6.3976364811220838
20
6.4271653543307039
30
0
40
0.12992125984251901
210
0
220
0
230
1
0
CIRCLE
5
104
100
AcDbEntity
8
CUTOUTS
100
AcDbCircle
10
6.3976364811220821
20
-7.9429133858259444
30
0
40
0.12992125984251901
210
0
220
0
230
1
0
CIRCLE
5
105
100
AcDbEntity
8
CUTOUTS
100
AcDbCircle
10
6.3976364811220838
20
-1.0925196850393744
30
0
40
0.12992125984251901
210
0
220
0
230
1
0
CIRCLE
5
106
100
AcDbEntity
8
CUTOUTS
100
AcDbCircle
10
-6.3976364811220865
20
2.4114173228346418
30
0
40
0.1299212598425197
210
0
220
0
230
1
0
CIRCLE
5
107
100
AcDbEntity
8
CUTOUTS
100
AcDbCircle
10
-6.3976364811220856
20
-7.3523622047235824
30
0
40
0.1299212598425197
210
0
220
0
230
1
0
CIRCLE
5
108
100
AcDbEntity
8
CUTOUTS
100
AcDbCircle
10
-6.3976364811220865
20
7.0177165354330659
30
0
40
0.1299212598425197
210
0
220
0
230
1
0
CIRCLE
5
109
100
AcDbEntity
8
CUTOUTS
100
AcDbCircle
10
-6.3976364811220865
20
6.4271653543307039
30
0
40
0.1299212598425197
210
0
220
0
230
1
0
CIRCLE
5
10A
100
AcDbEntity
8
CUTOUTS
100
AcDbCircle
10
-6.3976364811220856
20
-7.9429133858259444
30
0
40
0.1299212598425197
210
0
220
0
230
1
0
CIRCLE
5
10B
100
AcDbEntity
8
CUTOUTS
100
AcDbCircle
10
-6.3976364811220865
20
-1.0925196850393744
30
0
40
0.1299212598425197
210
0
220
0
230
1
0
LINE
5
10C
100
AcDbEntity
8
PERIMETER
100
AcDbLine
10
-4.1929120716724722
20
-11.545275590551181
30
0
11
4.1929120716724837
21
-11.545275590551181
31
0
0
ARC
5
10D
100
AcDbEntity
8
PERIMETER
100
AcDbCircle
10
4.1929120716724801
20
-11.466535433070863
30
0
40
0.078740157480318873
210
-0
220
0
230
1
100
AcDbArc
50
270.00000000000261
51
360
0
LINE
5
10E
100
AcDbEntity
8
PERIMETER
100
AcDbLine
10
4.2716522291527994
20
-11.466535433070865
30
0
11
4.2716522291527976
21
-11.297523889023093
31
0
0
ARC
5
10F
100
AcDbEntity
8
PERIMETER
100
AcDbCircle
10
4.3503923866331116
20
-11.297523889023093
30
0
40
0.078740157480315293
210
0
220
0
230
1
100
AcDbArc
50
135
51
180
0
LINE
5
110
100
AcDbEntity
8
PERIMETER
100
AcDbLine
10
4.2947146873270841
20
-11.241846189717066
30
0
11
6.6453881826501808
21
-8.89117269439393
31
0
0
ARC
5
111
100
AcDbEntity
8
PERIMETER
100
AcDbCircle
10
6.7010658819562066
20
-8.9468503936999557
30
0
40
0.078740157480314668
210
0
220
-0
230
1
100
AcDbArc
50
90
51
135
0
LINE
5
112
100
AcDbEntity
8
PERIMETER
100
AcDbLine
10
6.7010658819562066
20
-8.8681102362196409
30
0
11
7.7952742870942817
21
-8.8681102362196409
31
0
0
ARC
5
113
100
AcDbEntity
8
PERIMETER
100
AcDbCircle
10
7.7952742870942817
20
-8.7893700787393279
30
0
40
0.078740157480314668
210
-0
220
0
230
1
100
AcDbArc
50
270
51
359.99999556366197
0
LINE
5
114
100
AcDbEntity
8
PERIMETER
100
AcDbLine
10
7.8740144445745957
20
-8.7893700848516705
30
0
11
7.874015737334898
21
7.8641732222341165
31
0
0
ARC
5
115
100
AcDbEntity
8
PERIMETER
100
AcDbCircle
10
7.7952755798545841
20
7.8641732283464565
30
0
40
0.078740157480314918
210
-0
220
0
230
1
100
AcDbArc
50
-4.436338022566623e-06
51
90
0
LINE
5
116
100
AcDbEntity
8
PERIMETER
100
AcDbLine
10
7.7952755798545841
20
7.9429133858267731
30
0
11
6.7010671961097046
21
7.9429133858267695
31
0
0
ARC
5
117
100
AcDbEntity
8
PERIMETER
100
AcDbCircle
10
6.7010671961097046
20
8.0216535433070852
30
0
40
0.078740157480314793
210
0
220
0
230
1
100
AcDbArc
50
225.00000000001964
51
270
0
LINE
5
118
100
AcDbEntity
8
PERIMETER
100
AcDbLine
10
6.6453894968036966
20
7.9659758440010391
30
0
11
4.2947160014797747
21
10.31664933932335
31
0
0
ARC
5
119
100
AcDbEntity
8
PERIMETER
100
AcDbCircle
10
4.3503937007857827
20
10.372327038629395
30
0
40
0.078740157480314668
210
0
220
0
230
1
100
AcDbArc
50
180
51
225.00000000001873
0
LINE
5
11A
100
AcDbEntity
8
PERIMETER
100
AcDbLine
10
4.2716535433054679
20
10.372327038629395
30
0
11
4.2716535433054661
21
11.466535433070865
31
0
0
ARC
5
11B
100
AcDbEntity
8
PERIMETER
100
AcDbCircle
10
4.1929133858251522
20
11.466535433070865
30
0
40
0.078740157480313974
210
0
220
-0
230
1
100
AcDbArc
50
0
51
90
0
LINE
5
11C
100
AcDbEntity
8
PERIMETER
100
AcDbLine
10
4.1929133858251522
20
11.545275590551178
30
0
11
-4.192913385825153
21
11.545275590551176
31
0
0
ARC
5
11D
100
AcDbEntity
8
PERIMETER
100
AcDbCircle
10
-4.1929133858251539
20
11.466535433070861
30
0
40
0.078740157480314668
210
0
220
-0
230
1
100
AcDbArc
50
89.999999999999346
51
180
0
LINE
5
11E
100
AcDbEntity
8
PERIMETER
100
AcDbLine
10
-4.2716535433054688
20
11.466535433070863
30
0
11
-4.2716535433054696
21
10.372327038629393
31
0
0
ARC
5
11F
100
AcDbEntity
8
PERIMETER
100
AcDbCircle
10
-4.3503937007857836
20
10.372327038629393
30
0
40
0.078740157480315293
210
-0
220
0
230
1
100
AcDbArc
50
-45.000000000020101
51
0
0
LINE
5
120
100
AcDbEntity
8
PERIMETER
100
AcDbLine
10
-4.2947160014797756
20
10.316649339323346
30
0
11
-6.6453894968036966
21
7.9659758440010364
31
0
0
ARC
5
121
100
AcDbEntity
8
PERIMETER
100
AcDbCircle
10
-6.7010671961097028
20
8.0216535433070817
30
0
40
0.078740157480314668
210
-0
220
0
230
1
100
AcDbArc
50
270
51
314.99999999997988
0
LINE
5
122
100
AcDbEntity
8
PERIMETER
100
AcDbLine
10
-6.7010671961097028
20
7.9429133858267669
30
0
11
-7.7952755798545841
21
7.9429133858267686
31
0
0
ARC
5
123
100
AcDbEntity
8
PERIMETER
100
AcDbCircle
10
-7.7952755798545805
20
7.864173228346452
30
0
40
0.07874015748031607
210
0
220
0
230
1
100
AcDbArc
50
90.000000000002586
51
180.000004436338
0
LINE
5
124
100
AcDbEntity
8
PERIMETER
100
AcDbLine
10
-7.8740157373348971
20
7.864173222234113
30
0
11
-7.8740144445745877
21
-8.7893700848516723
31
0
0
ARC
5
125
100
AcDbEntity
8
PERIMETER
100
AcDbCircle
10
-7.7952742870942728
20
-8.7893700787393314
30
0
40
0.078740157480314918
210
0
220
0
230
1
100
AcDbArc
50
180.000004436338
51
270
0
LINE
5
126
100
AcDbEntity
8
PERIMETER
100
AcDbLine
10
-7.7952742870942728
20
-8.8681102362196462
30
0
11
-6.7010658819562012
21
-8.8681102362196462
31
0
0
ARC
5
127
100
AcDbEntity
8
PERIMETER
100
AcDbCircle
10
-6.7010658819562012
20
-8.946850393699961
30
0
40
0.078740157480314793
210
0
220
-0
230
1
100
AcDbArc
50
45
51
90
0
LINE
5
128
100
AcDbEntity
8
PERIMETER
100
AcDbLine
10
-6.6453881826501737
20
-8.8911726943939335
30
0
11
-4.2947146873270752
21
-11.241846189717066
31
0
0
ARC
5
129
100
AcDbEntity
8
PERIMETER
100
AcDbCircle
10
-4.3503923866331018
20
-11.297523889023093
30
0
40
0.078740157480314668
210
0
220
-0
230
1
100
AcDbArc
50
0
51
45.000000000000462
0
LINE
5
12A
100
AcDbEntity
8
PERIMETER
100
AcDbLine
10
-4.271652229152787
20
-11.297523889023093
30
0
11
-4.271652229152787
21
-11.466535433070865
31
0
0
ARC
5
12B
100
AcDbEntity
8
PERIMETER
100
AcDbCircle
10
-4.1929120716724704
20
-11.466535433070865
30
0
40
0.078740157480316778
210
0
220
0
230
1
100
AcDbArc
50
180
51
269.99999999999869
0
ENDSEC
0
SECTION
2
OBJECTS
0
DICTIONARY
5
C
100
AcDbDictionary
3
ACAD_GROUP
350
D
3
ACAD_MLINESTYLE
350
17
0
DICTIONARY
5
D
100
AcDbDictionary
0
DICTIONARY
5
1A
330
C
100
AcDbDictionary
0
DICTIONARY
5
17
100
AcDbDictionary
0
ENDSEC
0
EOF
