0
SECTION
2
HEADER
9
$INSUNITS
70
1
9
$ACADVER
1
AC1014
9
$HANDSEED
5
FFFF
0
ENDSEC
0
SECTION
2
TABLES
0
TABLE
2
VPORT
5
8
100
AcDbSymbolTable
0
ENDTAB
0
TABLE
2
LTYPE
5
5
100
AcDbSymbolTable
70
2
0
LTYPE
5
14
100
AcDbSymbolTableRecord
100
AcDbLinetypeTableRecord
2
BYBLOCK
70
0
0
LTYPE
5
15
100
AcDbSymbolTableRecord
100
AcDbLinetypeTableRecord
2
BYLAYER
70
0
0
ENDTAB
0
TABLE
2
LAYER
5
2
100
AcDbSymbolTable
70
3
0
LAYER
5
50
100
AcDbSymbolTableRecord
100
AcDbLayerTableRecord
2
0
70
0
6
CONTINUOUS
0
LAYER
5
51
100
AcDbSymbolTableRecord
100
AcDbLayerTableRecord
2
CUTOUTS
70
0
62
1
6
CONTINUOUS
0
LAYER
5
52
100
AcDbSymbolTableRecord
100
AcDbLayerTableRecord
2
PERIMETER
70
0
62
5
6
CONTINUOUS
0
ENDTAB
0
TABLE
2
STYLE
5
3
100
AcDbSymbolTable
70
1
0
STYLE
5
11
100
AcDbSymbolTableRecord
100
AcDbTextStyleTableRecord
2
STANDARD
70
0
0
ENDTAB
0
TABLE
2
VIEW
5
6
100
AcDbSymbolTable
0
ENDTAB
0
TABLE
2
UCS
5
7
100
AcDbSymbolTable
0
ENDTAB
0
TABLE
2
APPID
5
9
100
AcDbSymbolTable
70
1
0
APPID
5
12
100
AcDbSymbolTableRecord
100
AcDbRegAppTableRecord
2
ACAD
70
0
0
ENDTAB
0
TABLE
2
DIMSTYLE
5
A
100
AcDbSymbolTable
0
ENDTAB
0
TABLE
2
BLOCK_RECORD
5
1
100
AcDbSymbolTable
70
2
0
BLOCK_RECORD
5
1F
100
AcDbSymbolTableRecord
100
AcDbBlockTableRecord
2
*MODEL_SPACE
0
BLOCK_RECORD
5
1B
100
AcDbSymbolTableRecord
100
AcDbBlockTableRecord
2
*PAPER_SPACE
0
ENDTAB
0
ENDSEC
0
SECTION
2
BLOCKS
0
BLOCK
5
20
100
AcDbEntity
100
AcDbBlockBegin
2
*MODEL_SPACE
0
ENDBLK
5
21
100
AcDbEntity
100
AcDbBlockEnd
0
BLOCK
5
1C
100
AcDbEntity
100
AcDbBlockBegin
2
*PAPER_SPACE
0
ENDBLK
5
1D
100
AcDbEntity
100
AcDbBlockEnd
0
ENDSEC
0
SECTION
2
ENTITIES
0
CIRCLE
5
100
100
AcDbEntity
8
CUTOUTS
100
AcDbCircle
10
7.2834645669291316
20
0.31496062992125773
30
0
40
0.12992125984251901
210
0
220
0
230
1
0
CIRCLE
5
101
100
AcDbEntity
8
CUTOUTS
100
AcDbCircle
10
4.0551181102362159
20
-7.047244094488188
30
0
40
0.1299212598425197
210
0
220
0
230
1
0
CIRCLE
5
102
100
AcDbEntity
8
CUTOUTS
100
AcDbCircle
10
-1.2795275590551198
20
-7.047244094488188
30
0
40
0.1299212598425197
210
0
220
0
230
1
0
CIRCLE
5
103
100
AcDbEntity
8
CUTOUTS
100
AcDbCircle
10
-7.2834645669291342
20
-3.8188976377952777
30
0
40
0.12992125984251901
210
0
220
0
230
1
0
CIRCLE
5
104
100
AcDbEntity
8
CUTOUTS
100
AcDbCircle
10
-7.2834645669291342
20
4.4488188976377936
30
0
40
0.12992125984251901
210
0
220
0
230
1
0
CIRCLE
5
105
100
AcDbEntity
8
CUTOUTS
100
AcDbCircle
10
2.5984251968503909
20
7.0472440944881862
30
0
40
0.1299212598425197
210
0
220
0
230
1
0
CIRCLE
5
106
100
AcDbEntity
8
CUTOUTS
100
AcDbCircle
10
-4.6850393700787389
20
7.047244094488188
30
0
40
0.1299212598425197
210
0
220
0
230
1
0
CIRCLE
5
107
100
AcDbEntity
8
CUTOUTS
100
AcDbCircle
10
-2.0866141732283485
20
7.0472440944881862
30
0
40
0.1299212598425197
210
0
220
0
230
1
0
CIRCLE
5
108
100
AcDbEntity
8
CUTOUTS
100
AcDbCircle
10
4.6850393700787389
20
7.0472440944881862
30
0
40
0.1299212598425197
210
0
220
0
230
1
0
CIRCLE
5
109
100
AcDbEntity
8
CUTOUTS
100
AcDbCircle
10
-7.2834645669291342
20
0.31496062992125867
30
0
40
0.12992125984251901
210
0
220
0
230
1
0
CIRCLE
5
10A
100
AcDbEntity
8
CUTOUTS
100
AcDbCircle
10
-4.0551181102362204
20
-7.047244094488188
30
0
40
0.1299212598425197
210
0
220
0
230
1
0
CIRCLE
5
10B
100
AcDbEntity
8
CUTOUTS
100
AcDbCircle
10
1.2795275590551165
20
-7.047244094488188
30
0
40
0.1299212598425197
210
0
220
0
230
1
0
CIRCLE
5
10C
100
AcDbEntity
8
CUTOUTS
100
AcDbCircle
10
7.2834645669291316
20
-3.818897637795279
30
0
40
0.12992125984251901
210
0
220
0
230
1
0
CIRCLE
5
10D
100
AcDbEntity
8
CUTOUTS
100
AcDbCircle
10
7.2834645669291316
20
4.4488188976377927
30
0
40
0.12992125984251901
210
0
220
0
230
1
0
LINE
5
10E
100
AcDbEntity
8
PERIMETER
100
AcDbLine
10
-0.64960629979926154
20
-6.5157480309094007
30
0
11
0.64960629979925499
21
-6.5157480309094007
31
0
0
ARC
5
10F
100
AcDbEntity
8
PERIMETER
100
AcDbCircle
10
0.64960629979925499
20
-6.5944881883897155
30
0
40
0.078740157480314932
210
0
220
-0
230
1
100
AcDbArc
50
0
51
90
0
LINE
5
110
100
AcDbEntity
8
PERIMETER
100
AcDbLine
10
0.72834645727956993
20
-6.5944881883897155
30
0
11
0.72834645727956993
21
-7.5196850387834164
31
0
0
ARC
5
111
100
AcDbEntity
8
PERIMETER
100
AcDbCircle
10
0.80708661475988419
20
-7.5196850387834164
30
0
40
0.078740157480314238
210
0
220
0
230
1
100
AcDbArc
50
180
51
270.0000000000004
0
LINE
5
112
100
AcDbEntity
8
PERIMETER
100
AcDbLine
10
0.80708661475988475
20
-7.5984251962637313
30
0
11
4.5275590545314452
21
-7.598425196263733
31
0
0
ARC
5
113
100
AcDbEntity
8
PERIMETER
100
AcDbCircle
10
4.5275590545314444
20
-7.5196850387834182
30
0
40
0.078740157480314668
210
-0
220
0
230
1
100
AcDbArc
50
-89.999999999999332
51
0
0
LINE
5
114
100
AcDbEntity
8
PERIMETER
100
AcDbLine
10
4.6062992120117592
20
-7.5196850387834191
30
0
11
4.6062992120117618
21
-4.7176546106238169
31
0
0
ARC
5
115
100
AcDbEntity
8
PERIMETER
100
AcDbCircle
10
4.6850393694920758
20
-4.7176546106238169
30
0
40
0.078740157480314793
210
0
220
0
230
1
100
AcDbArc
50
135
51
180
0
LINE
5
116
100
AcDbEntity
8
PERIMETER
100
AcDbLine
10
4.6293616701860483
20
-4.6619769113177894
30
0
11
4.8981973837587338
21
-4.3931411977451047
31
0
0
ARC
5
117
100
AcDbEntity
8
PERIMETER
100
AcDbCircle
10
4.9538750830647613
20
-4.4488188970511313
30
0
40
0.078740157480314668
210
0
220
-0
230
1
100
AcDbArc
50
90
51
135.00000000000045
0
LINE
5
118
100
AcDbEntity
8
PERIMETER
100
AcDbLine
10
4.9538750830647613
20
-4.3700787395708174
30
0
11
7.7559055112243618
21
-4.3700787395708174
31
0
0
ARC
5
119
100
AcDbEntity
8
PERIMETER
100
AcDbCircle
10
7.7559055112243618
20
-4.2913385820905026
30
0
40
0.078740157480314668
210
-0
220
0
230
1
100
AcDbArc
50
-90
51
0
0
LINE
5
11A
100
AcDbEntity
8
PERIMETER
100
AcDbLine
10
7.8346456687046766
20
-4.2913385820905026
30
0
11
7.8346456687046784
21
4.9212598419330229
31
0
0
ARC
5
11B
100
AcDbEntity
8
PERIMETER
100
AcDbCircle
10
7.7559055112243636
20
4.9212598419330229
30
0
40
0.078740157480314668
210
-0
220
0
230
1
100
AcDbArc
50
0
51
89.999999999999346
0
LINE
5
11C
100
AcDbEntity
8
PERIMETER
100
AcDbLine
10
7.7559055112243636
20
4.9999999994133377
30
0
11
6.7716535427204265
21
4.9999999994133368
31
0
0
ARC
5
11D
100
AcDbEntity
8
PERIMETER
100
AcDbCircle
10
6.7716535427204265
20
5.0787401568936517
30
0
40
0.078740157480314668
210
0
220
0
230
1
100
AcDbArc
50
180
51
270
0
LINE
5
11E
100
AcDbEntity
8
PERIMETER
100
AcDbLine
10
6.6929133852401117
20
5.0787401568936517
30
0
11
6.6929133852401117
21
6.3779527553188506
31
0
0
ARC
5
11F
100
AcDbEntity
8
PERIMETER
100
AcDbCircle
10
6.6141732277597987
20
6.3779527553188515
30
0
40
0.07874015748031328
210
-0
220
0
230
1
100
AcDbArc
50
0
51
90.000000000001307
0
LINE
5
120
100
AcDbEntity
8
PERIMETER
100
AcDbLine
10
6.6141732277597969
20
6.4566929127991646
30
0
11
5.3149606293345979
21
6.4566929127991664
31
0
0
ARC
5
121
100
AcDbEntity
8
PERIMETER
100
AcDbCircle
10
5.3149606293345979
20
6.5354330702794812
30
0
40
0.078740157480314668
210
0
220
0
230
1
100
AcDbArc
50
180
51
270
0
LINE
5
122
100
AcDbEntity
8
PERIMETER
100
AcDbLine
10
5.2362204718542831
20
6.5354330702794812
30
0
11
5.2362204718542831
21
7.5196850387834182
31
0
0
ARC
5
123
100
AcDbEntity
8
PERIMETER
100
AcDbCircle
10
5.1574803143739683
20
7.5196850387834182
30
0
40
0.078740157480314668
210
0
220
-0
230
1
100
AcDbArc
50
0
51
90
0
LINE
5
124
100
AcDbEntity
8
PERIMETER
100
AcDbLine
10
5.1574803143739683
20
7.598425196263733
30
0
11
2.1259842525551607
21
7.598425196263733
31
0
0
ARC
5
125
100
AcDbEntity
8
PERIMETER
100
AcDbCircle
10
2.1259842525551611
20
7.5196850387834182
30
0
40
0.078740157480314668
210
0
220
0
230
1
100
AcDbArc
50
90.000000000000327
51
180
0
LINE
5
126
100
AcDbEntity
8
PERIMETER
100
AcDbLine
10
2.0472440950748463
20
7.5196850387834182
30
0
11
2.0472440950748449
21
6.5354330702794785
31
0
0
ARC
5
127
100
AcDbEntity
8
PERIMETER
100
AcDbCircle
10
1.9685039375945301
20
6.5354330702794785
30
0
40
0.078740157480314668
210
-0
220
0
230
1
100
AcDbArc
50
-89.999999999999844
51
0
0
LINE
5
128
100
AcDbEntity
8
PERIMETER
100
AcDbLine
10
1.9685039375945304
20
6.4566929127991637
30
0
11
1.6141732289331132
21
6.4566929127991637
31
0
0
ARC
5
129
100
AcDbEntity
8
PERIMETER
100
AcDbCircle
10
1.6141732289331137
20
6.3779527553188489
30
0
40
0.078740157480314668
210
0
220
0
230
1
100
AcDbArc
50
90.000000000000327
51
180
0
LINE
5
12A
100
AcDbEntity
8
PERIMETER
100
AcDbLine
10
1.5354330714527991
20
6.3779527553188489
30
0
11
1.5354330714527986
21
4.2452136657419288
31
0
0
ARC
5
12B
100
AcDbEntity
8
PERIMETER
100
AcDbCircle
10
1.4566929139724836
20
4.2452136657419288
30
0
40
0.078740157480315043
210
-0
220
0
230
1
100
AcDbArc
50
-44.999999999999901
51
0
0
LINE
5
12C
100
AcDbEntity
8
PERIMETER
100
AcDbLine
10
1.5123706132785113
20
4.1895359664359013
30
0
11
1.2829049784459841
21
3.9600703316033745
31
0
0
ARC
5
12D
100
AcDbEntity
8
PERIMETER
100
AcDbCircle
10
1.227227279139957
20
4.0157480309094016
30
0
40
0.078740157480314668
210
-0
220
0
230
1
100
AcDbArc
50
270
51
315
0
LINE
5
12E
100
AcDbEntity
8
PERIMETER
100
AcDbLine
10
1.227227279139957
20
3.9370078734290868
30
0
11
-1.2272272791399628
21
3.9370078734290868
31
0
0
ARC
5
12F
100
AcDbEntity
8
PERIMETER
100
AcDbCircle
10
-1.2272272791399625
20
4.0157480309094016
30
0
40
0.078740157480314932
210
0
220
0
230
1
100
AcDbArc
50
224.99999999999989
51
269.99999999999983
0
LINE
5
130
100
AcDbEntity
8
PERIMETER
100
AcDbLine
10
-1.2829049784459898
20
3.9600703316033745
30
0
11
-1.5123706132785162
21
4.1895359664359013
31
0
0
ARC
5
131
100
AcDbEntity
8
PERIMETER
100
AcDbCircle
10
-1.4566929139724891
20
4.245213665741927
30
0
40
0.078740157480315029
210
0
220
0
230
1
100
AcDbArc
50
180
51
224.99999999999883
0
LINE
5
132
100
AcDbEntity
8
PERIMETER
100
AcDbLine
10
-1.5354330714528042
20
4.245213665741927
30
0
11
-1.5354330714528046
21
7.5196850387834164
31
0
0
ARC
5
133
100
AcDbEntity
8
PERIMETER
100
AcDbCircle
10
-1.6141732289331192
20
7.5196850387834164
30
0
40
0.078740157480314668
210
0
220
-0
230
1
100
AcDbArc
50
0
51
90.000000000000327
0
LINE
5
134
100
AcDbEntity
8
PERIMETER
100
AcDbLine
10
-1.6141732289331197
20
7.5984251962637313
30
0
11
-5.1574803143739718
21
7.598425196263733
31
0
0
ARC
5
135
100
AcDbEntity
8
PERIMETER
100
AcDbCircle
10
-5.1574803143739718
20
7.5196850387834182
30
0
40
0.078740157480314668
210
0
220
-0
230
1
100
AcDbArc
50
90
51
180
0
LINE
5
136
100
AcDbEntity
8
PERIMETER
100
AcDbLine
10
-5.2362204718542866
20
7.5196850387834182
30
0
11
-5.2362204718542866
21
6.5354330702794821
31
0
0
ARC
5
137
100
AcDbEntity
8
PERIMETER
100
AcDbCircle
10
-5.3149606293346014
20
6.5354330702794821
30
0
40
0.078740157480314668
210
-0
220
0
230
1
100
AcDbArc
50
-90
51
0
0
LINE
5
138
100
AcDbEntity
8
PERIMETER
100
AcDbLine
10
-5.3149606293346014
20
6.4566929127991681
30
0
11
-6.6141732277597987
21
6.4566929127991681
31
0
0
ARC
5
139
100
AcDbEntity
8
PERIMETER
100
AcDbCircle
10
-6.6141732277597987
20
6.3779527553188533
30
0
40
0.078740157480314668
210
0
220
-0
230
1
100
AcDbArc
50
90
51
180
0
LINE
5
13A
100
AcDbEntity
8
PERIMETER
100
AcDbLine
10
-6.6929133852401135
20
6.3779527553188533
30
0
11
-6.6929133852401135
21
5.0787401568936534
31
0
0
ARC
5
13B
100
AcDbEntity
8
PERIMETER
100
AcDbCircle
10
-6.7716535427204274
20
5.0787401568936534
30
0
40
0.078740157480314668
210
-0
220
0
230
1
100
AcDbArc
50
-90
51
0
0
LINE
5
13C
100
AcDbEntity
8
PERIMETER
100
AcDbLine
10
-6.7716535427204274
20
4.9999999994133386
30
0
11
-7.7559055112243644
21
4.9999999994133386
31
0
0
ARC
5
13D
100
AcDbEntity
8
PERIMETER
100
AcDbCircle
10
-7.7559055112243644
20
4.9212598419330238
30
0
40
0.078740157480314668
210
0
220
-0
230
1
100
AcDbArc
50
90
51
180
0
LINE
5
13E
100
AcDbEntity
8
PERIMETER
100
AcDbLine
10
-7.8346456687046793
20
4.9212598419330238
30
0
11
-7.834645668704681
21
-4.2913385820905052
31
0
0
ARC
5
13F
100
AcDbEntity
8
PERIMETER
100
AcDbCircle
10
-7.7559055112243662
20
-4.2913385820905061
30
0
40
0.078740157480314668
210
0
220
0
230
1
100
AcDbArc
50
180
51
269.99999999999932
0
LINE
5
140
100
AcDbEntity
8
PERIMETER
100
AcDbLine
10
-7.7559055112243662
20
-4.37007873957082
30
0
11
-4.9538750830647658
21
-4.37007873957082
31
0
0
ARC
5
141
100
AcDbEntity
8
PERIMETER
100
AcDbCircle
10
-4.9538750830647658
20
-4.4488188970511349
30
0
40
0.078740157480314793
210
0
220
-0
230
1
100
AcDbArc
50
44.999999999999538
51
90
0
LINE
5
142
100
AcDbEntity
8
PERIMETER
100
AcDbLine
10
-4.8981973837587383
20
-4.3931411977451083
30
0
11
-4.6293616701860536
21
-4.6619769113177929
31
0
0
ARC
5
143
100
AcDbEntity
8
PERIMETER
100
AcDbCircle
10
-4.6850393694920811
20
-4.7176546106238213
30
0
40
0.078740157480314668
210
0
220
-0
230
1
100
AcDbArc
50
0
51
45
0
LINE
5
144
100
AcDbEntity
8
PERIMETER
100
AcDbLine
10
-4.6062992120117663
20
-4.7176546106238213
30
0
11
-4.6062992120117663
21
-7.5196850387834164
31
0
0
ARC
5
145
100
AcDbEntity
8
PERIMETER
100
AcDbCircle
10
-4.5275590545314524
20
-7.5196850387834164
30
0
40
0.078740157480313974
210
0
220
0
230
1
100
AcDbArc
50
180
51
270
0
LINE
5
146
100
AcDbEntity
8
PERIMETER
100
AcDbLine
10
-4.5275590545314524
20
-7.5984251962637295
30
0
11
-0.80708661475989207
21
-7.598425196263733
31
0
0
ARC
5
147
100
AcDbEntity
8
PERIMETER
100
AcDbCircle
10
-0.80708661475989207
20
-7.5196850387834182
30
0
40
0.078740157480314668
210
-0
220
0
230
1
100
AcDbArc
50
-90
51
0
0
LINE
5
148
100
AcDbEntity
8
PERIMETER
100
AcDbLine
10
-0.72834645727957736
20
-7.5196850387834182
30
0
11
-0.72834645727957648
21
-6.5944881883897155
31
0
0
ARC
5
149
100
AcDbEntity
8
PERIMETER
100
AcDbCircle
10
-0.64960629979926154
20
-6.5944881883897155
30
0
40
0.078740157480314668
210
0
220
0
230
1
100
AcDbArc
50
90
51
180
0
ENDSEC
0
SECTION
2
OBJECTS
0
DICTIONARY
5
C
100
AcDbDictionary
3
ACAD_GROUP
350
D
3
ACAD_MLINESTYLE
350
17
0
DICTIONARY
5
D
100
AcDbDictionary
0
DICTIONARY
5
1A
330
C
100
AcDbDictionary
0
DICTIONARY
5
17
100
AcDbDictionary
0
ENDSEC
0
EOF
