0
SECTION
2
HEADER
9
$INSUNITS
70
4
9
$ACADVER
1
AC1014
9
$HANDSEED
5
FFFF
0
ENDSEC
0
SECTION
2
TABLES
0
TABLE
2
VPORT
5
8
100
AcDbSymbolTable
0
ENDTAB
0
TABLE
2
LTYPE
5
5
100
AcDbSymbolTable
70
2
0
LTYPE
5
14
100
AcDbSymbolTableRecord
100
AcDbLinetypeTableRecord
2
BYBLOCK
70
0
0
LTYPE
5
15
100
AcDbSymbolTableRecord
100
AcDbLinetypeTableRecord
2
BYLAYER
70
0
0
ENDTAB
0
TABLE
2
LAYER
5
2
100
AcDbSymbolTable
70
3
0
LAYER
5
50
100
AcDbSymbolTableRecord
100
AcDbLayerTableRecord
2
0
70
0
6
CONTINUOUS
0
LAYER
5
51
100
AcDbSymbolTableRecord
100
AcDbLayerTableRecord
2
CUTOUTS
70
0
62
1
6
CONTINUOUS
0
LAYER
5
52
100
AcDbSymbolTableRecord
100
AcDbLayerTableRecord
2
PERIMETER
70
0
62
5
6
CONTINUOUS
0
ENDTAB
0
TABLE
2
STYLE
5
3
100
AcDbSymbolTable
70
1
0
STYLE
5
11
100
AcDbSymbolTableRecord
100
AcDbTextStyleTableRecord
2
STANDARD
70
0
0
ENDTAB
0
TABLE
2
VIEW
5
6
100
AcDbSymbolTable
0
ENDTAB
0
TABLE
2
UCS
5
7
100
AcDbSymbolTable
0
ENDTAB
0
TABLE
2
APPID
5
9
100
AcDbSymbolTable
70
1
0
APPID
5
12
100
AcDbSymbolTableRecord
100
AcDbRegAppTableRecord
2
ACAD
70
0
0
ENDTAB
0
TABLE
2
DIMSTYLE
5
A
100
AcDbSymbolTable
0
ENDTAB
0
TABLE
2
BLOCK_RECORD
5
1
100
AcDbSymbolTable
70
2
0
BLOCK_RECORD
5
1F
100
AcDbSymbolTableRecord
100
AcDbBlockTableRecord
2
*MODEL_SPACE
0
BLOCK_RECORD
5
1B
100
AcDbSymbolTableRecord
100
AcDbBlockTableRecord
2
*PAPER_SPACE
0
ENDTAB
0
ENDSEC
0
SECTION
2
BLOCKS
0
BLOCK
5
20
100
AcDbEntity
100
AcDbBlockBegin
2
*MODEL_SPACE
0
ENDBLK
5
21
100
AcDbEntity
100
AcDbBlockEnd
0
BLOCK
5
1C
100
AcDbEntity
100
AcDbBlockBegin
2
*PAPER_SPACE
0
ENDBLK
5
1D
100
AcDbEntity
100
AcDbBlockEnd
0
ENDSEC
0
SECTION
2
ENTITIES
0
CIRCLE
5
100
100
AcDbEntity
8
CUTOUTS
100
AcDbCircle
10
312.50008721609083
20
-4.2500000000000782
30
0
40
3.2999999999999829
210
0
220
0
230
1
0
CIRCLE
5
101
100
AcDbEntity
8
CUTOUTS
100
AcDbCircle
10
312.50008721609083
20
186.24999999999989
30
0
40
3.2999999999999829
210
0
220
0
230
1
0
CIRCLE
5
102
100
AcDbEntity
8
CUTOUTS
100
AcDbCircle
10
312.50008721609095
20
-361.74999999951319
30
0
40
3.2999999999999829
210
0
220
0
230
1
0
CIRCLE
5
103
100
AcDbEntity
8
CUTOUTS
100
AcDbCircle
10
312.50008721609072
20
353.24999999999989
30
0
40
3.2999999999999829
210
0
220
0
230
1
0
CIRCLE
5
104
100
AcDbEntity
8
CUTOUTS
100
AcDbCircle
10
312.50008721609072
20
338.24999999999989
30
0
40
3.2999999999999829
210
0
220
0
230
1
0
CIRCLE
5
105
100
AcDbEntity
8
CUTOUTS
100
AcDbCircle
10
312.50008721609095
20
-376.74999999951319
30
0
40
3.2999999999999829
210
0
220
0
230
1
0
CIRCLE
5
106
100
AcDbEntity
8
CUTOUTS
100
AcDbCircle
10
312.50008721609083
20
97.249999999999915
30
0
40
3.2999999999999829
210
0
220
0
230
1
0
CIRCLE
5
107
100
AcDbEntity
8
CUTOUTS
100
AcDbCircle
10
312.50008721609083
20
-19.250000000000078
30
0
40
3.2999999999999829
210
0
220
0
230
1
0
CIRCLE
5
108
100
AcDbEntity
8
CUTOUTS
100
AcDbCircle
10
-312.50008721609197
20
-4.2500000000000782
30
0
40
3.2999999999999829
210
0
220
0
230
1
0
CIRCLE
5
109
100
AcDbEntity
8
CUTOUTS
100
AcDbCircle
10
-312.50008721609197
20
186.24999999999989
30
0
40
3.2999999999999829
210
0
220
0
230
1
0
CIRCLE
5
10A
100
AcDbEntity
8
CUTOUTS
100
AcDbCircle
10
-312.50008721609208
20
-361.74999999951319
30
0
40
3.2999999999999829
210
0
220
0
230
1
0
CIRCLE
5
10B
100
AcDbEntity
8
CUTOUTS
100
AcDbCircle
10
-312.50008721609186
20
353.24999999999989
30
0
40
3.2999999999999829
210
0
220
0
230
1
0
CIRCLE
5
10C
100
AcDbEntity
8
CUTOUTS
100
AcDbCircle
10
-312.50008721609186
20
338.24999999999989
30
0
40
3.2999999999999829
210
0
220
0
230
1
0
CIRCLE
5
10D
100
AcDbEntity
8
CUTOUTS
100
AcDbCircle
10
-312.50008721609208
20
-376.74999999951319
30
0
40
3.2999999999999829
210
0
220
0
230
1
0
CIRCLE
5
10E
100
AcDbEntity
8
CUTOUTS
100
AcDbCircle
10
-312.50008721609197
20
97.249999999999915
30
0
40
3.2999999999999829
210
0
220
0
230
1
0
CIRCLE
5
10F
100
AcDbEntity
8
CUTOUTS
100
AcDbCircle
10
-312.50008721609197
20
-19.250000000000078
30
0
40
3.2999999999999829
210
0
220
0
230
1
0
LINE
5
110
100
AcDbEntity
8
PERIMETER
100
AcDbLine
10
259.08587365323308
20
-460.54289321881322
30
0
11
318.79298043490553
21
-400.83578643713969
31
0
0
ARC
5
111
100
AcDbEntity
8
PERIMETER
100
AcDbCircle
10
320.20719399727858
20
-402.2499999995128
30
0
40
2.0000000000000284
210
0
220
-0
230
1
100
AcDbArc
50
90
51
135
0
LINE
5
112
100
AcDbEntity
8
PERIMETER
100
AcDbLine
10
320.20719399727858
20
-400.24999999951274
30
0
11
348.00008682473788
21
-400.24999999951257
31
0
0
ARC
5
113
100
AcDbEntity
8
PERIMETER
100
AcDbCircle
10
348.00008682473799
20
-398.2499999995128
30
0
40
1.9999999999997442
210
0
220
0
230
1
100
AcDbArc
50
-90.000000000003254
51
6.3890569402603996e-06
0
LINE
5
114
100
AcDbEntity
8
PERIMETER
100
AcDbLine
10
350.00008682473776
20
-398.24999977588158
30
0
11
350.00000039135381
21
374.75000022363139
31
0
0
ARC
5
115
100
AcDbEntity
8
PERIMETER
100
AcDbCircle
10
348.00000039135392
20
374.75000000000051
30
0
40
1.9999999999998987
210
0
220
-0
230
1
100
AcDbArc
50
6.3890569402603996e-06
51
89.999999999996746
0
LINE
5
116
100
AcDbEntity
8
PERIMETER
100
AcDbLine
10
348.00000039135404
20
376.7500000000004
30
0
11
320.20710678118377
21
376.75000000000034
31
0
0
ARC
5
117
100
AcDbEntity
8
PERIMETER
100
AcDbCircle
10
320.20710678118377
20
378.75000000000028
30
0
40
1.999999999999996
210
0
220
0
230
1
100
AcDbArc
50
225.00000000046288
51
270
0
LINE
5
118
100
AcDbEntity
8
PERIMETER
100
AcDbLine
10
318.79289321882209
20
377.33578643761575
30
0
11
259.08578643666482
21
437.04289321880452
31
0
0
ARC
5
119
100
AcDbEntity
8
PERIMETER
100
AcDbCircle
10
260.4999999990265
20
438.45710678118917
30
0
40
1.9999999999999929
210
0
220
0
230
1
100
AcDbArc
50
180
51
225.00000000046288
0
LINE
5
11A
100
AcDbEntity
8
PERIMETER
100
AcDbLine
10
258.4999999990265
20
438.45710678118917
30
0
11
258.49999999902644
21
466.25000000000028
31
0
0
ARC
5
11B
100
AcDbEntity
8
PERIMETER
100
AcDbCircle
10
256.49999999902644
20
466.25000000000023
30
0
40
1.9999999999999929
210
0
220
-0
230
1
100
AcDbArc
50
0
51
90
0
LINE
5
11C
100
AcDbEntity
8
PERIMETER
100
AcDbLine
10
256.49999999902644
20
468.25000000000017
30
0
11
-256.49999999902764
21
468.2499999999996
31
0
0
ARC
5
11D
100
AcDbEntity
8
PERIMETER
100
AcDbCircle
10
-256.49999999902764
20
466.24999999999972
30
0
40
2.0000000000000284
210
0
220
0
230
1
100
AcDbArc
50
90
51
180
0
LINE
5
11E
100
AcDbEntity
8
PERIMETER
100
AcDbLine
10
-258.49999999902758
20
466.24999999999972
30
0
11
-258.49999999902758
21
438.45710678118894
31
0
0
ARC
5
11F
100
AcDbEntity
8
PERIMETER
100
AcDbCircle
10
-260.49999999902758
20
438.45710678118894
30
0
40
1.999999999999996
210
-0
220
0
230
1
100
AcDbArc
50
-45.000000000464055
51
0
0
LINE
5
120
100
AcDbEntity
8
PERIMETER
100
AcDbLine
10
-259.0857864366659
20
437.04289321880435
30
0
11
-318.79289321882311
21
377.33578643761547
31
0
0
ARC
5
121
100
AcDbEntity
8
PERIMETER
100
AcDbCircle
10
-320.20710678118473
20
378.75
30
0
40
2.0000000000000284
210
-0
220
0
230
1
100
AcDbArc
50
270
51
314.99999999953485
0
LINE
5
122
100
AcDbEntity
8
PERIMETER
100
AcDbLine
10
-320.20710678118473
20
376.75
30
0
11
-348.00000039135477
21
376.75
31
0
0
ARC
5
123
100
AcDbEntity
8
PERIMETER
100
AcDbCircle
10
-348.00000039135483
20
374.75
30
0
40
1.9999999999999574
210
0
220
-0
230
1
100
AcDbArc
50
89.99999999999838
51
179.99999361094308
0
LINE
5
124
100
AcDbEntity
8
PERIMETER
100
AcDbLine
10
-350.00000039135477
20
374.75000022363088
30
0
11
-350.00008682473776
21
-398.2499997758822
31
0
0
ARC
5
125
100
AcDbEntity
8
PERIMETER
100
AcDbCircle
10
-348.00008682473776
20
-398.24999999951319
30
0
40
2.0000000000000409
210
0
220
0
230
1
100
AcDbArc
50
179.99999361094308
51
269.99999999999835
0
LINE
5
126
100
AcDbEntity
8
PERIMETER
100
AcDbLine
10
-348.00008682473782
20
-400.24999999951319
30
0
11
-320.20719399727852
21
-400.24999999951314
31
0
0
ARC
5
127
100
AcDbEntity
8
PERIMETER
100
AcDbCircle
10
-320.20719399727852
20
-402.24999999951319
30
0
40
1.999999999999996
210
0
220
-0
230
1
100
AcDbArc
50
44.999999999998849
51
90
0
LINE
5
128
100
AcDbEntity
8
PERIMETER
100
AcDbLine
10
-318.79298043490542
20
-400.83578643714014
30
0
11
-259.08587365323297
21
-460.5428932188135
31
0
0
ARC
5
129
100
AcDbEntity
8
PERIMETER
100
AcDbCircle
10
-260.50008721560607
20
-461.9571067811865
30
0
40
1.9999999999999929
210
0
220
-0
230
1
100
AcDbArc
50
0
51
44.999999999996547
0
LINE
5
12A
100
AcDbEntity
8
PERIMETER
100
AcDbLine
10
-258.50008721560607
20
-461.9571067811865
30
0
11
-258.50008721560607
21
-466.25000000000023
31
0
0
ARC
5
12B
100
AcDbEntity
8
PERIMETER
100
AcDbCircle
10
-256.50008721560584
20
-466.24999999999994
30
0
40
2.0000000000002416
210
0
220
0
230
1
100
AcDbArc
50
180
51
269.99999999999511
0
LINE
5
12C
100
AcDbEntity
8
PERIMETER
100
AcDbLine
10
-256.50008721560602
20
-468.25000000000011
30
0
11
256.50008721560619
21
-468.25000000000011
31
0
0
ARC
5
12D
100
AcDbEntity
8
PERIMETER
100
AcDbCircle
10
256.50008721560602
20
-466.25000000000006
30
0
40
2.0000000000000284
210
-0
220
0
230
1
100
AcDbArc
50
-89.999999999995111
51
0
0
LINE
5
12E
100
AcDbEntity
8
PERIMETER
100
AcDbLine
10
258.50008721560607
20
-466.25000000000006
30
0
11
258.50008721560607
21
-461.95710678118638
31
0
0
ARC
5
12F
100
AcDbEntity
8
PERIMETER
100
AcDbCircle
10
260.50008721560613
20
-461.95710678118638
30
0
40
1.999999999999996
210
0
220
0
230
1
100
AcDbArc
50
134.99999999999773
51
180
0
ENDSEC
0
SECTION
2
OBJECTS
0
DICTIONARY
5
C
100
AcDbDictionary
3
ACAD_GROUP
350
D
3
ACAD_MLINESTYLE
350
17
0
DICTIONARY
5
D
100
AcDbDictionary
0
DICTIONARY
5
1A
330
C
100
AcDbDictionary
0
DICTIONARY
5
17
100
AcDbDictionary
0
ENDSEC
0
EOF
