0
SECTION
2
HEADER
9
$INSUNITS
70
4
9
$ACADVER
1
AC1014
9
$HANDSEED
5
FFFF
0
ENDSEC
0
SECTION
2
TABLES
0
TABLE
2
VPORT
5
8
100
AcDbSymbolTable
0
ENDTAB
0
TABLE
2
LTYPE
5
5
100
AcDbSymbolTable
70
2
0
LTYPE
5
14
100
AcDbSymbolTableRecord
100
AcDbLinetypeTableRecord
2
BYBLOCK
70
0
0
LTYPE
5
15
100
AcDbSymbolTableRecord
100
AcDbLinetypeTableRecord
2
BYLAYER
70
0
0
ENDTAB
0
TABLE
2
LAYER
5
2
100
AcDbSymbolTable
70
3
0
LAYER
5
50
100
AcDbSymbolTableRecord
100
AcDbLayerTableRecord
2
0
70
0
6
CONTINUOUS
0
LAYER
5
51
100
AcDbSymbolTableRecord
100
AcDbLayerTableRecord
2
CUTOUTS
70
0
62
1
6
CONTINUOUS
0
LAYER
5
52
100
AcDbSymbolTableRecord
100
AcDbLayerTableRecord
2
PERIMETER
70
0
62
5
6
CONTINUOUS
0
ENDTAB
0
TABLE
2
STYLE
5
3
100
AcDbSymbolTable
70
1
0
STYLE
5
11
100
AcDbSymbolTableRecord
100
AcDbTextStyleTableRecord
2
STANDARD
70
0
0
ENDTAB
0
TABLE
2
VIEW
5
6
100
AcDbSymbolTable
0
ENDTAB
0
TABLE
2
UCS
5
7
100
AcDbSymbolTable
0
ENDTAB
0
TABLE
2
APPID
5
9
100
AcDbSymbolTable
70
1
0
APPID
5
12
100
AcDbSymbolTableRecord
100
AcDbRegAppTableRecord
2
ACAD
70
0
0
ENDTAB
0
TABLE
2
DIMSTYLE
5
A
100
AcDbSymbolTable
0
ENDTAB
0
TABLE
2
BLOCK_RECORD
5
1
100
AcDbSymbolTable
70
2
0
BLOCK_RECORD
5
1F
100
AcDbSymbolTableRecord
100
AcDbBlockTableRecord
2
*MODEL_SPACE
0
BLOCK_RECORD
5
1B
100
AcDbSymbolTableRecord
100
AcDbBlockTableRecord
2
*PAPER_SPACE
0
ENDTAB
0
ENDSEC
0
SECTION
2
BLOCKS
0
BLOCK
5
20
100
AcDbEntity
100
AcDbBlockBegin
2
*MODEL_SPACE
0
ENDBLK
5
21
100
AcDbEntity
100
AcDbBlockEnd
0
BLOCK
5
1C
100
AcDbEntity
100
AcDbBlockBegin
2
*PAPER_SPACE
0
ENDBLK
5
1D
100
AcDbEntity
100
AcDbBlockEnd
0
ENDSEC
0
SECTION
2
ENTITIES
0
CIRCLE
5
100
100
AcDbEntity
8
CUTOUTS
100
AcDbCircle
10
42.000000000000085
20
-127.37499999999983
30
0
40
3.3000000000000007
210
0
220
0
230
1
0
CIRCLE
5
101
100
AcDbEntity
8
CUTOUTS
100
AcDbCircle
10
-235.5
20
-127.3750000000002
30
0
40
3.2999999999999829
210
0
220
0
230
1
0
CIRCLE
5
102
100
AcDbEntity
8
CUTOUTS
100
AcDbCircle
10
-41.999999999999915
20
-127.37499999999982
30
0
40
3.3000000000000007
210
0
220
0
230
1
0
CIRCLE
5
103
100
AcDbEntity
8
CUTOUTS
100
AcDbCircle
10
235.49999999999986
20
-127.37500000000028
30
0
40
3.2999999999999829
210
0
220
0
230
1
0
CIRCLE
5
104
100
AcDbEntity
8
CUTOUTS
100
AcDbCircle
10
367.49999999999994
20
32.624999999999886
30
0
40
3.2999999999999829
210
0
220
0
230
1
0
CIRCLE
5
105
100
AcDbEntity
8
CUTOUTS
100
AcDbCircle
10
3.5527136788005009e-14
20
122.62500000000017
30
0
40
3.3000000000000003
210
0
220
0
230
1
0
CIRCLE
5
106
100
AcDbEntity
8
CUTOUTS
100
AcDbCircle
10
-367.5
20
32.625000000000099
30
0
40
3.2999999999999829
210
0
220
0
230
1
0
CIRCLE
5
107
100
AcDbEntity
8
CUTOUTS
100
AcDbCircle
10
-367.5
20
-67.375000000000426
30
0
40
3.2999999999999829
210
0
220
0
230
1
0
CIRCLE
5
108
100
AcDbEntity
8
CUTOUTS
100
AcDbCircle
10
-277.5
20
122.6250000000001
30
0
40
3.2999999999999829
210
0
220
0
230
1
0
CIRCLE
5
109
100
AcDbEntity
8
CUTOUTS
100
AcDbCircle
10
277.50000000000006
20
122.62500000000017
30
0
40
3.2999999999999829
210
0
220
0
230
1
0
CIRCLE
5
10A
100
AcDbEntity
8
CUTOUTS
100
AcDbCircle
10
367.49999999999989
20
-67.375000000000583
30
0
40
3.2999999999999829
210
0
220
0
230
1
0
ARC
5
10B
100
AcDbEntity
8
PERIMETER
100
AcDbCircle
10
-352.70710678118655
20
48.125000000000107
30
0
40
1.9999999999999929
210
-0
220
0
230
1
100
AcDbArc
50
270
51
315.00000000000068
0
LINE
5
10C
100
AcDbEntity
8
PERIMETER
100
AcDbLine
10
-352.70710678118655
20
46.125000000000114
30
0
11
-380.5
21
46.125000000000114
31
0
0
ARC
5
10D
100
AcDbEntity
8
PERIMETER
100
AcDbCircle
10
-380.5
20
44.125000000000085
30
0
40
2.0000000000000284
210
0
220
-0
230
1
100
AcDbArc
50
90
51
180
0
LINE
5
10E
100
AcDbEntity
8
PERIMETER
100
AcDbLine
10
-382.5
20
44.125000000000121
30
0
11
-382.5
21
-78.875000000000426
31
0
0
ARC
5
10F
100
AcDbEntity
8
PERIMETER
100
AcDbCircle
10
-380.5
20
-78.875000000000426
30
0
40
2.0000000000000284
210
0
220
0
230
1
100
AcDbArc
50
180
51
270
0
LINE
5
110
100
AcDbEntity
8
PERIMETER
100
AcDbLine
10
-380.5
20
-80.875000000000455
30
0
11
-352.61803398874986
21
-80.875000000000412
31
0
0
ARC
5
111
100
AcDbEntity
8
PERIMETER
100
AcDbCircle
10
-352.61803398874986
20
-82.875000000000398
30
0
40
2.0000000000000098
210
0
220
-0
230
1
100
AcDbArc
50
63.434948822920013
51
90
0
LINE
5
112
100
AcDbEntity
8
PERIMETER
100
AcDbLine
10
-351.72360679774988
20
-81.086145618000614
30
0
11
-292.10557280900014
21
-110.89516261237527
31
0
0
ARC
5
113
100
AcDbEntity
8
PERIMETER
100
AcDbCircle
10
-293.00000000000006
20
-112.68401699437511
30
0
40
1.9999999999999929
210
0
220
0
230
1
100
AcDbArc
50
0
51
63.434948822921832
0
LINE
5
114
100
AcDbEntity
8
PERIMETER
100
AcDbLine
10
-291.00000000000006
20
-112.68401699437511
30
0
11
-291
21
-113.6250000000002
31
0
0
ARC
5
115
100
AcDbEntity
8
PERIMETER
100
AcDbCircle
10
-289.00000000000006
20
-113.62500000000023
30
0
40
1.9999999999999574
210
0
220
0
230
1
100
AcDbArc
50
180
51
270
0
LINE
5
116
100
AcDbEntity
8
PERIMETER
100
AcDbLine
10
-289.00000000000006
20
-115.62500000000017
30
0
11
-268.01776695296644
21
-115.62500000000023
31
0
0
ARC
5
117
100
AcDbEntity
8
PERIMETER
100
AcDbCircle
10
-268.01776695296644
20
-117.6250000000002
30
0
40
1.999999999999996
210
0
220
-0
230
1
100
AcDbArc
50
44.999999999999424
51
90
0
LINE
5
118
100
AcDbEntity
8
PERIMETER
100
AcDbLine
10
-266.60355339059333
20
-116.21078643762712
30
0
11
-245.77512626584721
21
-137.03921356237331
31
0
0
ARC
5
119
100
AcDbEntity
8
PERIMETER
100
AcDbCircle
10
-244.36091270347413
20
-135.62500000000028
30
0
40
1.9999999999999585
210
0
220
0
230
1
100
AcDbArc
50
224.99999999999943
51
270.00000000000159
0
LINE
5
11A
100
AcDbEntity
8
PERIMETER
100
AcDbLine
10
-244.36091270347407
20
-137.62500000000023
30
0
11
-226.63908729652601
21
-137.6250000000002
31
0
0
ARC
5
11B
100
AcDbEntity
8
PERIMETER
100
AcDbCircle
10
-226.63908729652599
20
-135.62500000000031
30
0
40
1.9999999999999041
210
0
220
0
230
1
100
AcDbArc
50
269.9999999999992
51
315.00000000000227
0
LINE
5
11C
100
AcDbEntity
8
PERIMETER
100
AcDbLine
10
-225.22487373415291
20
-137.03921356237328
30
0
11
-204.39644660940669
21
-116.21078643762712
31
0
0
ARC
5
11D
100
AcDbEntity
8
PERIMETER
100
AcDbCircle
10
-202.98223304703359
20
-117.62500000000023
30
0
40
1.9999999999999929
210
0
220
-0
230
1
100
AcDbArc
50
90
51
135
0
LINE
5
11E
100
AcDbEntity
8
PERIMETER
100
AcDbLine
10
-202.98223304703359
20
-115.62500000000021
30
0
11
-74.517766952966284
21
-115.62499999999979
31
0
0
ARC
5
11F
100
AcDbEntity
8
PERIMETER
100
AcDbCircle
10
-74.517766952966269
20
-117.6249999999998
30
0
40
2.0000000000000022
210
0
220
-0
230
1
100
AcDbArc
50
44.999999999999709
51
90.000000000000398
0
LINE
5
120
100
AcDbEntity
8
PERIMETER
100
AcDbLine
10
-73.103553390593163
20
-116.21078643762672
30
0
11
-52.275126265847007
21
-137.03921356237291
31
0
0
ARC
5
121
100
AcDbEntity
8
PERIMETER
100
AcDbCircle
10
-50.8609127034739
20
-135.62499999999977
30
0
40
2.0000000000000022
210
0
220
0
230
1
100
AcDbArc
50
225
51
269.9999999999996
0
LINE
5
122
100
AcDbEntity
8
PERIMETER
100
AcDbLine
10
-50.860912703473915
20
-137.6249999999998
30
0
11
-33.139087296525915
21
-137.62499999999983
31
0
0
ARC
5
123
100
AcDbEntity
8
PERIMETER
100
AcDbCircle
10
-33.139087296525915
20
-135.62499999999983
30
0
40
1.9999999999999929
210
0
220
0
230
1
100
AcDbArc
50
270
51
315.00000000000045
0
LINE
5
124
100
AcDbEntity
8
PERIMETER
100
AcDbLine
10
-31.724873734152816
20
-137.03921356237291
30
0
11
-10.896446609406665
21
-116.21078643762669
31
0
0
ARC
5
125
100
AcDbEntity
8
PERIMETER
100
AcDbCircle
10
-9.4822330470335601
20
-117.62499999999982
30
0
40
1.9999999999999929
210
0
220
-0
230
1
100
AcDbArc
50
90
51
134.99999999999994
0
LINE
5
126
100
AcDbEntity
8
PERIMETER
100
AcDbLine
10
-9.4822330470335601
20
-115.62499999999983
30
0
11
9.4822330470337075
21
-115.62499999999983
31
0
0
ARC
5
127
100
AcDbEntity
8
PERIMETER
100
AcDbCircle
10
9.4822330470337075
20
-117.62499999999982
30
0
40
2.0000000000000053
210
0
220
-0
230
1
100
AcDbArc
50
45.000000000000355
51
90
0
LINE
5
128
100
AcDbEntity
8
PERIMETER
100
AcDbLine
10
10.896446609406796
20
-116.21078643762672
30
0
11
31.724873734153
21
-137.03921356237291
31
0
0
ARC
5
129
100
AcDbEntity
8
PERIMETER
100
AcDbCircle
10
33.139087296526093
20
-135.62499999999983
30
0
40
1.9999999999999993
210
0
220
0
230
1
100
AcDbArc
50
224.99999999999972
51
270
0
LINE
5
12A
100
AcDbEntity
8
PERIMETER
100
AcDbLine
10
33.139087296526093
20
-137.62499999999983
30
0
11
50.860912703474071
21
-137.62499999999983
31
0
0
ARC
5
12B
100
AcDbEntity
8
PERIMETER
100
AcDbCircle
10
50.860912703474085
20
-135.62499999999983
30
0
40
1.9999999999999751
210
0
220
0
230
1
100
AcDbArc
50
269.9999999999996
51
314.99999999999915
0
LINE
5
12C
100
AcDbEntity
8
PERIMETER
100
AcDbLine
10
52.275126265847149
20
-137.03921356237294
30
0
11
73.103553390593348
21
-116.21078643762674
31
0
0
ARC
5
12D
100
AcDbEntity
8
PERIMETER
100
AcDbCircle
10
74.517766952966454
20
-117.62499999999983
30
0
40
1.9999999999999929
210
0
220
-0
230
1
100
AcDbArc
50
89.999999999999588
51
135.00000000000031
0
LINE
5
12E
100
AcDbEntity
8
PERIMETER
100
AcDbLine
10
74.517766952966468
20
-115.62499999999984
30
0
11
202.98223304703356
21
-115.62500000000023
31
0
0
ARC
5
12F
100
AcDbEntity
8
PERIMETER
100
AcDbCircle
10
202.98223304703356
20
-117.62500000000024
30
0
40
1.999999999999996
210
0
220
-0
230
1
100
AcDbArc
50
44.999999999999709
51
90
0
LINE
5
130
100
AcDbEntity
8
PERIMETER
100
AcDbLine
10
204.39644660940667
20
-116.21078643762715
30
0
11
225.22487373415282
21
-137.03921356237342
31
0
0
ARC
5
131
100
AcDbEntity
8
PERIMETER
100
AcDbCircle
10
226.63908729652587
20
-135.6250000000004
30
0
40
1.9999999999999207
210
0
220
0
230
1
100
AcDbArc
50
224.99999999999943
51
270.0000000000008
0
LINE
5
132
100
AcDbEntity
8
PERIMETER
100
AcDbLine
10
226.6390872965259
20
-137.62500000000031
30
0
11
244.36091270347396
21
-137.62500000000031
31
0
0
ARC
5
133
100
AcDbEntity
8
PERIMETER
100
AcDbCircle
10
244.36091270347401
20
-135.6250000000004
30
0
40
1.9999999999999041
210
0
220
0
230
1
100
AcDbArc
50
269.99999999999835
51
315.00000000000119
0
LINE
5
134
100
AcDbEntity
8
PERIMETER
100
AcDbLine
10
245.77512626584706
20
-137.03921356237342
30
0
11
266.60355339059333
21
-116.21078643762714
31
0
0
ARC
5
135
100
AcDbEntity
8
PERIMETER
100
AcDbCircle
10
268.01776695296644
20
-117.62500000000024
30
0
40
1.9999999999999929
210
0
220
-0
230
1
100
AcDbArc
50
90
51
135
0
LINE
5
136
100
AcDbEntity
8
PERIMETER
100
AcDbLine
10
268.01776695296644
20
-115.62500000000026
30
0
11
288.99999999999989
21
-115.62500000000027
31
0
0
ARC
5
137
100
AcDbEntity
8
PERIMETER
100
AcDbCircle
10
288.99999999999989
20
-113.62500000000026
30
0
40
2.0000000000000107
210
-0
220
0
230
1
100
AcDbArc
50
-90
51
0
0
LINE
5
138
100
AcDbEntity
8
PERIMETER
100
AcDbLine
10
290.99999999999989
20
-113.62500000000026
30
0
11
290.99999999999989
21
-112.68401699437524
31
0
0
ARC
5
139
100
AcDbEntity
8
PERIMETER
100
AcDbCircle
10
292.99999999999989
20
-112.68401699437526
30
0
40
2.0000000000000098
210
0
220
0
230
1
100
AcDbArc
50
116.56505117707799
51
180
0
LINE
5
13A
100
AcDbEntity
8
PERIMETER
100
AcDbLine
10
292.10557280899997
20
-110.89516261237542
30
0
11
351.72360679774982
21
-81.086145618000685
31
0
0
ARC
5
13B
100
AcDbEntity
8
PERIMETER
100
AcDbCircle
10
352.61803398874974
20
-82.875000000000526
30
0
40
2.0000000000000107
210
0
220
-0
230
1
100
AcDbArc
50
90
51
116.56505117707799
0
LINE
5
13C
100
AcDbEntity
8
PERIMETER
100
AcDbLine
10
352.61803398874974
20
-80.875000000000512
30
0
11
380.49999999999983
21
-80.87500000000054
31
0
0
ARC
5
13D
100
AcDbEntity
8
PERIMETER
100
AcDbCircle
10
380.49999999999983
20
-78.87500000000054
30
0
40
2.0000000000000107
210
-0
220
0
230
1
100
AcDbArc
50
270
51
360
0
LINE
5
13E
100
AcDbEntity
8
PERIMETER
100
AcDbLine
10
382.49999999999989
20
-78.875000000000568
30
0
11
382.5
21
44.124999999999943
31
0
0
ARC
5
13F
100
AcDbEntity
8
PERIMETER
100
AcDbCircle
10
380.50000000000006
20
44.124999999999943
30
0
40
1.9999999999999574
210
0
220
-0
230
1
100
AcDbArc
50
0
51
90.000000000001634
0
LINE
5
140
100
AcDbEntity
8
PERIMETER
100
AcDbLine
10
380.5
20
46.124999999999901
30
0
11
352.70710678118644
21
46.124999999999901
31
0
0
ARC
5
141
100
AcDbEntity
8
PERIMETER
100
AcDbCircle
10
352.70710678118644
20
48.124999999999929
30
0
40
1.999999999999996
210
0
220
0
230
1
100
AcDbArc
50
225.00000000000085
51
270
0
LINE
5
142
100
AcDbEntity
8
PERIMETER
100
AcDbLine
10
351.29289321881339
20
46.710786437626837
30
0
11
291.58578643762695
21
106.4178932188134
31
0
0
ARC
5
143
100
AcDbEntity
8
PERIMETER
100
AcDbCircle
10
293
20
107.83210678118647
30
0
40
1.9999999999999929
210
0
220
0
230
1
100
AcDbArc
50
180
51
225
0
LINE
5
144
100
AcDbEntity
8
PERIMETER
100
AcDbLine
10
291
20
107.83210678118647
30
0
11
291
21
135.62500000000028
31
0
0
ARC
5
145
100
AcDbEntity
8
PERIMETER
100
AcDbCircle
10
289
20
135.62500000000028
30
0
40
1.9999999999999929
210
0
220
-0
230
1
100
AcDbArc
50
0
51
90
0
LINE
5
146
100
AcDbEntity
8
PERIMETER
100
AcDbLine
10
289
20
137.62500000000028
30
0
11
-289.00000000000011
21
137.62499999999989
31
0
0
ARC
5
147
100
AcDbEntity
8
PERIMETER
100
AcDbCircle
10
-289.00000000000006
20
135.62499999999989
30
0
40
1.9999999999999929
210
0
220
0
230
1
100
AcDbArc
50
90.000000000001634
51
180
0
LINE
5
148
100
AcDbEntity
8
PERIMETER
100
AcDbLine
10
-291.00000000000006
20
135.62499999999989
30
0
11
-291
21
107.83210678118664
31
0
0
ARC
5
149
100
AcDbEntity
8
PERIMETER
100
AcDbCircle
10
-293
20
107.83210678118664
30
0
40
2.0000000000000213
210
-0
220
0
230
1
100
AcDbArc
50
-45.000000000000561
51
0
0
LINE
5
14A
100
AcDbEntity
8
PERIMETER
100
AcDbLine
10
-291.58578643762689
20
106.4178932188135
30
0
11
-351.29289321881345
21
46.71078643762705
31
0
0
ENDSEC
0
SECTION
2
OBJECTS
0
DICTIONARY
5
C
100
AcDbDictionary
3
ACAD_GROUP
350
D
3
ACAD_MLINESTYLE
350
17
0
DICTIONARY
5
D
100
AcDbDictionary
0
DICTIONARY
5
1A
330
C
100
AcDbDictionary
0
DICTIONARY
5
17
100
AcDbDictionary
0
ENDSEC
0
EOF
