0
SECTION
2
HEADER
9
$INSUNITS
70
4
9
$ACADVER
1
AC1014
9
$HANDSEED
5
FFFF
0
ENDSEC
0
SECTION
2
TABLES
0
TABLE
2
VPORT
5
8
100
AcDbSymbolTable
0
ENDTAB
0
TABLE
2
LTYPE
5
5
100
AcDbSymbolTable
70
2
0
LTYPE
5
14
100
AcDbSymbolTableRecord
100
AcDbLinetypeTableRecord
2
BYBLOCK
70
0
0
LTYPE
5
15
100
AcDbSymbolTableRecord
100
AcDbLinetypeTableRecord
2
BYLAYER
70
0
0
ENDTAB
0
TABLE
2
LAYER
5
2
100
AcDbSymbolTable
70
3
0
LAYER
5
50
100
AcDbSymbolTableRecord
100
AcDbLayerTableRecord
2
0
70
0
6
CONTINUOUS
0
LAYER
5
51
100
AcDbSymbolTableRecord
100
AcDbLayerTableRecord
2
CUTOUTS
70
0
62
1
6
CONTINUOUS
0
LAYER
5
52
100
AcDbSymbolTableRecord
100
AcDbLayerTableRecord
2
PERIMETER
70
0
62
5
6
CONTINUOUS
0
ENDTAB
0
TABLE
2
STYLE
5
3
100
AcDbSymbolTable
70
1
0
STYLE
5
11
100
AcDbSymbolTableRecord
100
AcDbTextStyleTableRecord
2
STANDARD
70
0
0
ENDTAB
0
TABLE
2
VIEW
5
6
100
AcDbSymbolTable
0
ENDTAB
0
TABLE
2
UCS
5
7
100
AcDbSymbolTable
0
ENDTAB
0
TABLE
2
APPID
5
9
100
AcDbSymbolTable
70
1
0
APPID
5
12
100
AcDbSymbolTableRecord
100
AcDbRegAppTableRecord
2
ACAD
70
0
0
ENDTAB
0
TABLE
2
DIMSTYLE
5
A
100
AcDbSymbolTable
0
ENDTAB
0
TABLE
2
BLOCK_RECORD
5
1
100
AcDbSymbolTable
70
2
0
BLOCK_RECORD
5
1F
100
AcDbSymbolTableRecord
100
AcDbBlockTableRecord
2
*MODEL_SPACE
0
BLOCK_RECORD
5
1B
100
AcDbSymbolTableRecord
100
AcDbBlockTableRecord
2
*PAPER_SPACE
0
ENDTAB
0
ENDSEC
0
SECTION
2
BLOCKS
0
BLOCK
5
20
100
AcDbEntity
100
AcDbBlockBegin
2
*MODEL_SPACE
0
ENDBLK
5
21
100
AcDbEntity
100
AcDbBlockEnd
0
BLOCK
5
1C
100
AcDbEntity
100
AcDbBlockBegin
2
*PAPER_SPACE
0
ENDBLK
5
1D
100
AcDbEntity
100
AcDbBlockEnd
0
ENDSEC
0
SECTION
2
ENTITIES
0
CIRCLE
5
100
100
AcDbEntity
8
CUTOUTS
100
AcDbCircle
10
6.5165575636149787e-14
20
-224.99999999999994
30
0
40
3.5000000000000004
210
0
220
0
230
1
0
CIRCLE
5
101
100
AcDbEntity
8
CUTOUTS
100
AcDbCircle
10
6.5165575636149787e-14
20
-274.99999999999994
30
0
40
3.5000000000000004
210
0
220
0
230
1
0
CIRCLE
5
102
100
AcDbEntity
8
CUTOUTS
100
AcDbCircle
10
6.5165575636149787e-14
20
-124.99999999999993
30
0
40
3.5000000000000004
210
0
220
0
230
1
0
CIRCLE
5
103
100
AcDbEntity
8
CUTOUTS
100
AcDbCircle
10
6.5165575636149787e-14
20
-174.99999999999994
30
0
40
3.5000000000000004
210
0
220
0
230
1
0
CIRCLE
5
104
100
AcDbEntity
8
CUTOUTS
100
AcDbCircle
10
6.5165575636149787e-14
20
-24.999999999999929
30
0
40
3.5000000000000004
210
0
220
0
230
1
0
CIRCLE
5
105
100
AcDbEntity
8
CUTOUTS
100
AcDbCircle
10
6.5165575636149787e-14
20
-74.999999999999929
30
0
40
3.5000000000000004
210
0
220
0
230
1
0
CIRCLE
5
106
100
AcDbEntity
8
CUTOUTS
100
AcDbCircle
10
6.5165575636149787e-14
20
75.000000000000071
30
0
40
3.5000000000000004
210
0
220
0
230
1
0
CIRCLE
5
107
100
AcDbEntity
8
CUTOUTS
100
AcDbCircle
10
6.5165575636149787e-14
20
25.000000000000071
30
0
40
3.5000000000000004
210
0
220
0
230
1
0
CIRCLE
5
108
100
AcDbEntity
8
CUTOUTS
100
AcDbCircle
10
6.5165575636149787e-14
20
175.00000000000006
30
0
40
3.5000000000000004
210
0
220
0
230
1
0
CIRCLE
5
109
100
AcDbEntity
8
CUTOUTS
100
AcDbCircle
10
6.5165575636149787e-14
20
125.00000000000007
30
0
40
3.5000000000000004
210
0
220
0
230
1
0
CIRCLE
5
10A
100
AcDbEntity
8
CUTOUTS
100
AcDbCircle
10
6.5165575636149787e-14
20
275.00000000000006
30
0
40
3.5000000000000004
210
0
220
0
230
1
0
CIRCLE
5
10B
100
AcDbEntity
8
CUTOUTS
100
AcDbCircle
10
6.5165575636149787e-14
20
225.00000000000006
30
0
40
3.5000000000000004
210
0
220
0
230
1
0
CIRCLE
5
10C
100
AcDbEntity
8
CUTOUTS
100
AcDbCircle
10
-35.000000000000007
20
-132.49999999999918
30
0
40
7.9999999999999982
210
0
220
0
230
1
0
CIRCLE
5
10D
100
AcDbEntity
8
CUTOUTS
100
AcDbCircle
10
-111.5
20
-83.499999999999872
30
0
40
1.5499999999999936
210
0
220
0
230
1
0
CIRCLE
5
10E
100
AcDbEntity
8
CUTOUTS
100
AcDbCircle
10
-53.499999999999972
20
-132.49999999999986
30
0
40
1.5500000000000025
210
0
220
0
230
1
0
CIRCLE
5
10F
100
AcDbEntity
8
CUTOUTS
100
AcDbCircle
10
-111.49999999999999
20
-132.49999999999989
30
0
40
1.5499999999999936
210
0
220
0
230
1
0
CIRCLE
5
110
100
AcDbEntity
8
CUTOUTS
100
AcDbCircle
10
-53.499999999999979
20
-83.499999999999858
30
0
40
1.5500000000000025
210
0
220
0
230
1
0
CIRCLE
5
111
100
AcDbEntity
8
CUTOUTS
100
AcDbCircle
10
-125
20
-20.999999999999819
30
0
40
1.7999999999999972
210
0
220
0
230
1
0
CIRCLE
5
112
100
AcDbEntity
8
CUTOUTS
100
AcDbCircle
10
-125
20
129.00000000000017
30
0
40
1.7999999999999972
210
0
220
0
230
1
0
CIRCLE
5
113
100
AcDbEntity
8
CUTOUTS
100
AcDbCircle
10
-35
20
129.00000000000017
30
0
40
1.8000000000000016
210
0
220
0
230
1
0
CIRCLE
5
114
100
AcDbEntity
8
CUTOUTS
100
AcDbCircle
10
-35
20
-20.999999999999819
30
0
40
1.8000000000000016
210
0
220
0
230
1
0
CIRCLE
5
115
100
AcDbEntity
8
CUTOUTS
100
AcDbCircle
10
112
20
-137.24999999999989
30
0
40
2.4000000000000021
210
0
220
0
230
1
0
CIRCLE
5
116
100
AcDbEntity
8
CUTOUTS
100
AcDbCircle
10
62.5
20
-48.499999999999872
30
0
40
2.4000000000000021
210
0
220
0
230
1
0
CIRCLE
5
117
100
AcDbEntity
8
CUTOUTS
100
AcDbCircle
10
62.5
20
101.50000000000013
30
0
40
2.4000000000000021
210
0
220
0
230
1
0
CIRCLE
5
118
100
AcDbEntity
8
CUTOUTS
100
AcDbCircle
10
112.5
20
101.50000000000013
30
0
40
2.4000000000000021
210
0
220
0
230
1
0
CIRCLE
5
119
100
AcDbEntity
8
CUTOUTS
100
AcDbCircle
10
112.5
20
-48.499999999999872
30
0
40
2.4000000000000021
210
0
220
0
230
1
0
CIRCLE
5
11A
100
AcDbEntity
8
CUTOUTS
100
AcDbCircle
10
63.999999999999986
20
-137.24999999999983
30
0
40
2.4000000000000021
210
0
220
0
230
1
0
CIRCLE
5
11B
100
AcDbEntity
8
CUTOUTS
100
AcDbCircle
10
334.9999999999992
20
-155.50000000000031
30
0
40
3.5000000000000142
210
0
220
0
230
1
0
CIRCLE
5
11C
100
AcDbEntity
8
CUTOUTS
100
AcDbCircle
10
304.99999999999937
20
-325.00000000000222
30
0
40
3.5000000000000142
210
0
220
0
230
1
0
CIRCLE
5
11D
100
AcDbEntity
8
CUTOUTS
100
AcDbCircle
10
25.999999999999304
20
-325.00000000000205
30
0
40
3.5000000000000009
210
0
220
0
230
1
0
CIRCLE
5
11E
100
AcDbEntity
8
CUTOUTS
100
AcDbCircle
10
-165.49999999999949
20
-325.00000000000205
30
0
40
3.5000000000000142
210
0
220
0
230
1
0
CIRCLE
5
11F
100
AcDbEntity
8
CUTOUTS
100
AcDbCircle
10
-334.99999999999949
20
-295.00000000000023
30
0
40
3.5000000000000142
210
0
220
0
230
1
0
CIRCLE
5
120
100
AcDbEntity
8
CUTOUTS
100
AcDbCircle
10
-335.00000000000199
20
-16.000000000000206
30
0
40
3.5000000000000142
210
0
220
0
230
1
0
CIRCLE
5
121
100
AcDbEntity
8
CUTOUTS
100
AcDbCircle
10
334.99999999999949
20
155.49999999999804
30
0
40
3.5000000000000142
210
0
220
0
230
1
0
CIRCLE
5
122
100
AcDbEntity
8
CUTOUTS
100
AcDbCircle
10
-335.00000000000199
20
15.999999999998186
30
0
40
3.5000000000000142
210
0
220
0
230
1
0
CIRCLE
5
123
100
AcDbEntity
8
CUTOUTS
100
AcDbCircle
10
-334.99999999999949
20
294.99999999999818
30
0
40
3.5000000000000142
210
0
220
0
230
1
0
CIRCLE
5
124
100
AcDbEntity
8
CUTOUTS
100
AcDbCircle
10
25.99999999999973
20
325.00000000000426
30
0
40
3.5000000000000009
210
0
220
0
230
1
0
CIRCLE
5
125
100
AcDbEntity
8
CUTOUTS
100
AcDbCircle
10
-209.99999999999957
20
325.0000000000025
30
0
40
3.5000000000000142
210
0
220
0
230
1
0
CIRCLE
5
126
100
AcDbEntity
8
CUTOUTS
100
AcDbCircle
10
-25.999999999999588
20
325.00000000000426
30
0
40
3.5000000000000009
210
0
220
0
230
1
0
CIRCLE
5
127
100
AcDbEntity
8
CUTOUTS
100
AcDbCircle
10
209.99999999999972
20
325.00000000000233
30
0
40
3.5000000000000142
210
0
220
0
230
1
0
CIRCLE
5
128
100
AcDbEntity
8
CUTOUTS
100
AcDbCircle
10
-334.99999999999937
20
155.49999999999818
30
0
40
3.5000000000000142
210
0
220
0
230
1
0
CIRCLE
5
129
100
AcDbEntity
8
CUTOUTS
100
AcDbCircle
10
334.99999999999966
20
294.99999999999801
30
0
40
3.5000000000000142
210
0
220
0
230
1
0
CIRCLE
5
12A
100
AcDbEntity
8
CUTOUTS
100
AcDbCircle
10
335.00000000000171
20
15.999999999998089
30
0
40
3.5000000000000142
210
0
220
0
230
1
0
CIRCLE
5
12B
100
AcDbEntity
8
CUTOUTS
100
AcDbCircle
10
-334.99999999999937
20
-155.50000000000017
30
0
40
3.5000000000000142
210
0
220
0
230
1
0
CIRCLE
5
12C
100
AcDbEntity
8
CUTOUTS
100
AcDbCircle
10
-304.99999999999949
20
-325.00000000000205
30
0
40
3.5000000000000142
210
0
220
0
230
1
0
CIRCLE
5
12D
100
AcDbEntity
8
CUTOUTS
100
AcDbCircle
10
-25.999999999999464
20
-325.00000000000205
30
0
40
3.5000000000000009
210
0
220
0
230
1
0
CIRCLE
5
12E
100
AcDbEntity
8
CUTOUTS
100
AcDbCircle
10
165.49999999999932
20
-325.00000000000222
30
0
40
3.5000000000000142
210
0
220
0
230
1
0
CIRCLE
5
12F
100
AcDbEntity
8
CUTOUTS
100
AcDbCircle
10
334.99999999999966
20
-294.99999999999994
30
0
40
3.5000000000000142
210
0
220
0
230
1
0
CIRCLE
5
130
100
AcDbEntity
8
CUTOUTS
100
AcDbCircle
10
335.00000000000165
20
-16.000000000000011
30
0
40
3.5000000000000142
210
0
220
0
230
1
0
ARC
5
131
100
AcDbEntity
8
CUTOUTS
100
AcDbCircle
10
-303.34999999999962
20
311.00000000000023
30
0
40
2.0000000000000284
210
-0
220
0
230
1
100
AcDbArc
50
-90
51
0
0
LINE
5
132
100
AcDbEntity
8
CUTOUTS
100
AcDbLine
10
-301.34999999999957
20
322.00000000000017
30
0
11
-301.34999999999957
21
311.00000000000023
31
0
0
ARC
5
133
100
AcDbEntity
8
CUTOUTS
100
AcDbCircle
10
-303.34999999999957
20
322.00000000000017
30
0
40
1.9999999999999929
210
0
220
-0
230
1
100
AcDbArc
50
0
51
90
0
LINE
5
134
100
AcDbEntity
8
CUTOUTS
100
AcDbLine
10
-318.64999999999964
20
324.00000000000023
30
0
11
-303.34999999999957
21
324.00000000000023
31
0
0
ARC
5
135
100
AcDbEntity
8
CUTOUTS
100
AcDbCircle
10
-318.64999999999964
20
322.00000000000017
30
0
40
2.0000000000000284
210
0
220
-0
230
1
100
AcDbArc
50
90
51
180
0
LINE
5
136
100
AcDbEntity
8
CUTOUTS
100
AcDbLine
10
-320.64999999999969
20
311.00000000000017
30
0
11
-320.64999999999969
21
322.00000000000017
31
0
0
ARC
5
137
100
AcDbEntity
8
CUTOUTS
100
AcDbCircle
10
-318.64999999999964
20
311.00000000000017
30
0
40
2.0000000000000284
210
0
220
0
230
1
100
AcDbArc
50
180
51
270
0
LINE
5
138
100
AcDbEntity
8
CUTOUTS
100
AcDbLine
10
-303.34999999999962
20
309.00000000000023
30
0
11
-318.64999999999964
21
309.00000000000017
31
0
0
ARC
5
139
100
AcDbEntity
8
CUTOUTS
100
AcDbCircle
10
318.64999999999981
20
322
30
0
40
2.0000000000000284
210
0
220
-0
230
1
100
AcDbArc
50
0
51
90
0
LINE
5
13A
100
AcDbEntity
8
CUTOUTS
100
AcDbLine
10
303.34999999999974
20
324.00000000000006
30
0
11
318.64999999999981
21
324.00000000000006
31
0
0
ARC
5
13B
100
AcDbEntity
8
CUTOUTS
100
AcDbCircle
10
303.34999999999974
20
322
30
0
40
2.0000000000000284
210
0
220
-0
230
1
100
AcDbArc
50
90
51
180
0
LINE
5
13C
100
AcDbEntity
8
CUTOUTS
100
AcDbLine
10
301.34999999999974
20
311.00000000000006
30
0
11
301.34999999999974
21
322
31
0
0
ARC
5
13D
100
AcDbEntity
8
CUTOUTS
100
AcDbCircle
10
303.34999999999974
20
311.00000000000006
30
0
40
1.9999999999999929
210
0
220
0
230
1
100
AcDbArc
50
180
51
270
0
LINE
5
13E
100
AcDbEntity
8
CUTOUTS
100
AcDbLine
10
318.64999999999975
20
309.00000000000006
30
0
11
303.34999999999974
21
309.00000000000006
31
0
0
ARC
5
13F
100
AcDbEntity
8
CUTOUTS
100
AcDbCircle
10
318.64999999999975
20
311.00000000000011
30
0
40
2.0000000000000284
210
-0
220
0
230
1
100
AcDbArc
50
-90
51
0
0
LINE
5
140
100
AcDbEntity
8
CUTOUTS
100
AcDbLine
10
320.64999999999986
20
322
30
0
11
320.64999999999986
21
311.00000000000011
31
0
0
LINE
5
141
100
AcDbEntity
8
PERIMETER
100
AcDbLine
10
348.99999999999983
20
-307
30
0
11
348.99999999999977
21
337.00000000000017
31
0
0
ARC
5
142
100
AcDbEntity
8
PERIMETER
100
AcDbCircle
10
346.99999999999977
20
337.00000000000017
30
0
40
2.0000000000000284
210
0
220
-0
230
1
100
AcDbArc
50
0
51
90
0
LINE
5
143
100
AcDbEntity
8
PERIMETER
100
AcDbLine
10
346.99999999999977
20
339.00000000000023
30
0
11
-346.9999999999996
21
339.00000000000023
31
0
0
ARC
5
144
100
AcDbEntity
8
PERIMETER
100
AcDbCircle
10
-346.9999999999996
20
337.00000000000017
30
0
40
2.0000000000000284
210
0
220
-0
230
1
100
AcDbArc
50
90
51
180
0
LINE
5
145
100
AcDbEntity
8
PERIMETER
100
AcDbLine
10
-348.99999999999966
20
337.00000000000017
30
0
11
-348.99999999999977
21
-306.99999999999977
31
0
0
ARC
5
146
100
AcDbEntity
8
PERIMETER
100
AcDbCircle
10
-346.99999999999983
20
-306.99999999999977
30
0
40
1.9999999999999574
210
0
220
0
230
1
100
AcDbArc
50
180
51
270.00000000000159
0
LINE
5
147
100
AcDbEntity
8
PERIMETER
100
AcDbLine
10
-346.99999999999977
20
-308.99999999999972
30
0
11
-321.00000000000023
21
-308.99999999999977
31
0
0
ARC
5
148
100
AcDbEntity
8
PERIMETER
100
AcDbCircle
10
-321.00000000000023
20
-310.99999999999977
30
0
40
1.9999999999999929
210
0
220
-0
230
1
100
AcDbArc
50
0
51
90
0
LINE
5
149
100
AcDbEntity
8
PERIMETER
100
AcDbLine
10
-319.00000000000023
20
-310.99999999999977
30
0
11
-319.00000000000023
21
-336.99999999999989
31
0
0
ARC
5
14A
100
AcDbEntity
8
PERIMETER
100
AcDbCircle
10
-317.00000000000017
20
-336.99999999999989
30
0
40
2.0000000000000284
210
0
220
0
230
1
100
AcDbArc
50
180
51
269.99999999999835
0
LINE
5
14B
100
AcDbEntity
8
PERIMETER
100
AcDbLine
10
-317.00000000000023
20
-338.99999999999989
30
0
11
317
21
-338.99999999999966
31
0
0
ARC
5
14C
100
AcDbEntity
8
PERIMETER
100
AcDbCircle
10
316.99999999999994
20
-336.99999999999966
30
0
40
1.9999999999999574
210
-0
220
0
230
1
100
AcDbArc
50
-89.99999999999838
51
0
0
LINE
5
14D
100
AcDbEntity
8
PERIMETER
100
AcDbLine
10
318.99999999999989
20
-336.9999999999996
30
0
11
319
21
-311.00000000000011
31
0
0
ARC
5
14E
100
AcDbEntity
8
PERIMETER
100
AcDbCircle
10
321
20
-311.00000000000011
30
0
40
1.9999999999999929
210
0
220
-0
230
1
100
AcDbArc
50
90
51
180
0
LINE
5
14F
100
AcDbEntity
8
PERIMETER
100
AcDbLine
10
321
20
-309.00000000000011
30
0
11
346.99999999999977
21
-309.00000000000006
31
0
0
ARC
5
150
100
AcDbEntity
8
PERIMETER
100
AcDbCircle
10
346.99999999999983
20
-307
30
0
40
2.0000000000000284
210
0
220
0
230
1
100
AcDbArc
50
-90.000000000001634
51
0
0
ENDSEC
0
SECTION
2
OBJECTS
0
DICTIONARY
5
C
100
AcDbDictionary
3
ACAD_GROUP
350
D
3
ACAD_MLINESTYLE
350
17
0
DICTIONARY
5
D
100
AcDbDictionary
0
DICTIONARY
5
1A
330
C
100
AcDbDictionary
0
DICTIONARY
5
17
100
AcDbDictionary
0
ENDSEC
0
EOF
