0
SECTION
2
HEADER
9
$INSUNITS
70
4
9
$ACADVER
1
AC1014
9
$HANDSEED
5
FFFF
0
ENDSEC
0
SECTION
2
TABLES
0
TABLE
2
VPORT
5
8
100
AcDbSymbolTable
0
ENDTAB
0
TABLE
2
LTYPE
5
5
100
AcDbSymbolTable
70
2
0
LTYPE
5
14
100
AcDbSymbolTableRecord
100
AcDbLinetypeTableRecord
2
BYBLOCK
70
0
0
LTYPE
5
15
100
AcDbSymbolTableRecord
100
AcDbLinetypeTableRecord
2
BYLAYER
70
0
0
ENDTAB
0
TABLE
2
LAYER
5
2
100
AcDbSymbolTable
70
3
0
LAYER
5
50
100
AcDbSymbolTableRecord
100
AcDbLayerTableRecord
2
0
70
0
6
CONTINUOUS
0
LAYER
5
51
100
AcDbSymbolTableRecord
100
AcDbLayerTableRecord
2
CUTOUTS
70
0
62
1
6
CONTINUOUS
0
LAYER
5
52
100
AcDbSymbolTableRecord
100
AcDbLayerTableRecord
2
PERIMETER
70
0
62
5
6
CONTINUOUS
0
ENDTAB
0
TABLE
2
STYLE
5
3
100
AcDbSymbolTable
70
1
0
STYLE
5
11
100
AcDbSymbolTableRecord
100
AcDbTextStyleTableRecord
2
STANDARD
70
0
0
ENDTAB
0
TABLE
2
VIEW
5
6
100
AcDbSymbolTable
0
ENDTAB
0
TABLE
2
UCS
5
7
100
AcDbSymbolTable
0
ENDTAB
0
TABLE
2
APPID
5
9
100
AcDbSymbolTable
70
1
0
APPID
5
12
100
AcDbSymbolTableRecord
100
AcDbRegAppTableRecord
2
ACAD
70
0
0
ENDTAB
0
TABLE
2
DIMSTYLE
5
A
100
AcDbSymbolTable
0
ENDTAB
0
TABLE
2
BLOCK_RECORD
5
1
100
AcDbSymbolTable
70
2
0
BLOCK_RECORD
5
1F
100
AcDbSymbolTableRecord
100
AcDbBlockTableRecord
2
*MODEL_SPACE
0
BLOCK_RECORD
5
1B
100
AcDbSymbolTableRecord
100
AcDbBlockTableRecord
2
*PAPER_SPACE
0
ENDTAB
0
ENDSEC
0
SECTION
2
BLOCKS
0
BLOCK
5
20
100
AcDbEntity
100
AcDbBlockBegin
2
*MODEL_SPACE
0
ENDBLK
5
21
100
AcDbEntity
100
AcDbBlockEnd
0
BLOCK
5
1C
100
AcDbEntity
100
AcDbBlockBegin
2
*PAPER_SPACE
0
ENDBLK
5
1D
100
AcDbEntity
100
AcDbBlockEnd
0
ENDSEC
0
SECTION
2
ENTITIES
0
CIRCLE
5
100
100
AcDbEntity
8
CUTOUTS
100
AcDbCircle
10
334.99999999999977
20
-65.000000000000199
30
0
40
3.2999999999999829
210
0
220
0
230
1
0
CIRCLE
5
101
100
AcDbEntity
8
CUTOUTS
100
AcDbCircle
10
244.99999999951311
20
124.99999999999977
30
0
40
3.2999999999999829
210
0
220
0
230
1
0
CIRCLE
5
102
100
AcDbEntity
8
CUTOUTS
100
AcDbCircle
10
334.99999999999989
20
34.999999999999872
30
0
40
3.2999999999999829
210
0
220
0
230
1
0
CIRCLE
5
103
100
AcDbEntity
8
CUTOUTS
100
AcDbCircle
10
244.99999999999986
20
-125.00000000000001
30
0
40
3.2999999999999829
210
0
220
0
230
1
0
CIRCLE
5
104
100
AcDbEntity
8
CUTOUTS
100
AcDbCircle
10
-1.4210854715202004e-13
20
-125.00000000000016
30
0
40
3.3000000000000003
210
0
220
0
230
1
0
CIRCLE
5
105
100
AcDbEntity
8
CUTOUTS
100
AcDbCircle
10
-335.00000000000006
20
-65.000000000000199
30
0
40
3.2999999999999829
210
0
220
0
230
1
0
CIRCLE
5
106
100
AcDbEntity
8
CUTOUTS
100
AcDbCircle
10
-1.3509661225964119e-13
20
124.99999999997962
30
0
40
3.3000000000000003
210
0
220
0
230
1
0
CIRCLE
5
107
100
AcDbEntity
8
CUTOUTS
100
AcDbCircle
10
-244.99999999951339
20
124.99999999999977
30
0
40
3.2999999999999829
210
0
220
0
230
1
0
CIRCLE
5
108
100
AcDbEntity
8
CUTOUTS
100
AcDbCircle
10
-335.00000000000011
20
34.999999999999872
30
0
40
3.2999999999999829
210
0
220
0
230
1
0
CIRCLE
5
109
100
AcDbEntity
8
CUTOUTS
100
AcDbCircle
10
-245.00000000000014
20
-125.00000000000001
30
0
40
3.2999999999999829
210
0
220
0
230
1
0
LINE
5
10A
100
AcDbEntity
8
PERIMETER
100
AcDbLine
10
-259.085786437146
20
108.79289321880874
30
0
11
-318.79289321881811
21
49.085786437621067
31
0
0
ARC
5
10B
100
AcDbEntity
8
PERIMETER
100
AcDbCircle
10
-320.20710678118547
20
50.499999999999886
30
0
40
1.9999999999999929
210
-0
220
0
230
1
100
AcDbArc
50
270
51
314.99999999976768
0
LINE
5
10C
100
AcDbEntity
8
PERIMETER
100
AcDbLine
10
-320.20710678118547
20
48.499999999999886
30
0
11
-348.00000000000011
21
48.499999999999858
31
0
0
ARC
5
10D
100
AcDbEntity
8
PERIMETER
100
AcDbCircle
10
-348.00000000000011
20
46.499999999999829
30
0
40
2.0000000000000284
210
0
220
-0
230
1
100
AcDbArc
50
90
51
180
0
LINE
5
10E
100
AcDbEntity
8
PERIMETER
100
AcDbLine
10
-350.00000000000011
20
46.499999999999858
30
0
11
-350.00000000000011
21
-76.500000000000185
31
0
0
ARC
5
10F
100
AcDbEntity
8
PERIMETER
100
AcDbCircle
10
-348.00000000000011
20
-76.500000000000171
30
0
40
2.0000000000000284
210
0
220
0
230
1
100
AcDbArc
50
180
51
270
0
LINE
5
110
100
AcDbEntity
8
PERIMETER
100
AcDbLine
10
-348.00000000000011
20
-78.500000000000199
30
0
11
-320.11803398875003
21
-78.500000000000199
31
0
0
ARC
5
111
100
AcDbEntity
8
PERIMETER
100
AcDbCircle
10
-320.11803398875003
20
-80.500000000000185
30
0
40
2.0000000000000018
210
0
220
-0
230
1
100
AcDbArc
50
63.434948822921832
51
90
0
LINE
5
112
100
AcDbEntity
8
PERIMETER
100
AcDbLine
10
-319.22360679775011
20
-78.711145618000359
30
0
11
-259.60557280900025
21
-108.52016261237509
31
0
0
ARC
5
113
100
AcDbEntity
8
PERIMETER
100
AcDbCircle
10
-260.50000000000017
20
-110.30901699437494
30
0
40
1.9999999999999929
210
0
220
-0
230
1
100
AcDbArc
50
0
51
63.434948822921832
0
LINE
5
114
100
AcDbEntity
8
PERIMETER
100
AcDbLine
10
-258.50000000000017
20
-110.30901699437494
30
0
11
-258.50000000000017
21
-138.00000000000003
31
0
0
ARC
5
115
100
AcDbEntity
8
PERIMETER
100
AcDbCircle
10
-256.50000000000017
20
-138.00000000000003
30
0
40
1.9999999999999929
210
0
220
0
230
1
100
AcDbArc
50
180
51
270
0
LINE
5
116
100
AcDbEntity
8
PERIMETER
100
AcDbLine
10
-256.50000000000017
20
-140.00000000000003
30
0
11
256.50000000000023
21
-140.00000000000014
31
0
0
ARC
5
117
100
AcDbEntity
8
PERIMETER
100
AcDbCircle
10
256.50000000000023
20
-138.00000000000017
30
0
40
1.9999999999999751
210
-0
220
0
230
1
100
AcDbArc
50
-90
51
0
0
LINE
5
118
100
AcDbEntity
8
PERIMETER
100
AcDbLine
10
258.50000000000017
20
-138.00000000000014
30
0
11
258.50000000000017
21
-110.30901699437467
31
0
0
ARC
5
119
100
AcDbEntity
8
PERIMETER
100
AcDbCircle
10
260.50000000000017
20
-110.3090169943747
30
0
40
1.9999999999999938
210
0
220
0
230
1
100
AcDbArc
50
116.56505117707799
51
180
0
LINE
5
11A
100
AcDbEntity
8
PERIMETER
100
AcDbLine
10
259.60557280900025
20
-108.52016261237483
30
0
11
319.22360679775011
21
-78.711145618000046
31
0
0
ARC
5
11B
100
AcDbEntity
8
PERIMETER
100
AcDbCircle
10
320.11803398875003
20
-80.499999999999858
30
0
40
2.0000000000000018
210
0
220
-0
230
1
100
AcDbArc
50
90
51
116.56505117707836
0
LINE
5
11C
100
AcDbEntity
8
PERIMETER
100
AcDbLine
10
320.11803398875003
20
-78.499999999999858
30
0
11
348.00000000000011
21
-78.499999999999829
31
0
0
ARC
5
11D
100
AcDbEntity
8
PERIMETER
100
AcDbCircle
10
348.00000000000017
20
-76.499999999999815
30
0
40
2.0000000000000107
210
0
220
0
230
1
100
AcDbArc
50
269.99999999999835
51
360
0
LINE
5
11E
100
AcDbEntity
8
PERIMETER
100
AcDbLine
10
350.00000000000023
20
-76.499999999999829
30
0
11
350
21
46.500000000000256
31
0
0
ARC
5
11F
100
AcDbEntity
8
PERIMETER
100
AcDbCircle
10
348.00000000000006
20
46.500000000000256
30
0
40
1.9999999999999574
210
0
220
-0
230
1
100
AcDbArc
50
0
51
90.000000000001634
0
LINE
5
120
100
AcDbEntity
8
PERIMETER
100
AcDbLine
10
348
20
48.500000000000213
30
0
11
320.2071067811853
21
48.500000000000213
31
0
0
ARC
5
121
100
AcDbEntity
8
PERIMETER
100
AcDbCircle
10
320.2071067811853
20
50.500000000000199
30
0
40
2.0000000000000213
210
0
220
0
230
1
100
AcDbArc
50
225.00000000023257
51
270
0
LINE
5
122
100
AcDbEntity
8
PERIMETER
100
AcDbLine
10
318.79289321881794
20
49.085786437621351
30
0
11
259.08578643714577
21
108.79289321880903
31
0
0
ARC
5
123
100
AcDbEntity
8
PERIMETER
100
AcDbCircle
10
260.49999999951308
20
110.20710678118787
30
0
40
1.9999999999999929
210
0
220
0
230
1
100
AcDbArc
50
180
51
225.00000000023374
0
LINE
5
124
100
AcDbEntity
8
PERIMETER
100
AcDbLine
10
258.49999999951314
20
110.20710678118787
30
0
11
258.49999999951314
21
138.00000000000009
31
0
0
ARC
5
125
100
AcDbEntity
8
PERIMETER
100
AcDbCircle
10
256.49999999951314
20
138.00000000000014
30
0
40
1.9999999999999574
210
-0
220
0
230
1
100
AcDbArc
50
0
51
90
0
LINE
5
126
100
AcDbEntity
8
PERIMETER
100
AcDbLine
10
256.49999999951314
20
140.00000000000009
30
0
11
-256.49999999951342
21
139.99999999999955
31
0
0
ARC
5
127
100
AcDbEntity
8
PERIMETER
100
AcDbCircle
10
-256.49999999951336
20
137.99999999999957
30
0
40
1.9999999999999929
210
0
220
0
230
1
100
AcDbArc
50
90.000000000001634
51
180
0
LINE
5
128
100
AcDbEntity
8
PERIMETER
100
AcDbLine
10
-258.49999999951336
20
137.99999999999957
30
0
11
-258.49999999951342
21
110.20710678118759
31
0
0
ARC
5
129
100
AcDbEntity
8
PERIMETER
100
AcDbCircle
10
-260.49999999951342
20
110.20710678118759
30
0
40
2.0000000000000213
210
-0
220
0
230
1
100
AcDbArc
50
-45.000000000231438
51
0
0
ENDSEC
0
SECTION
2
OBJECTS
0
DICTIONARY
5
C
100
AcDbDictionary
3
ACAD_GROUP
350
D
3
ACAD_MLINESTYLE
350
17
0
DICTIONARY
5
D
100
AcDbDictionary
0
DICTIONARY
5
1A
330
C
100
AcDbDictionary
0
DICTIONARY
5
17
100
AcDbDictionary
0
ENDSEC
0
EOF
