0
SECTION
2
HEADER
9
$INSUNITS
70
4
9
$ACADVER
1
AC1014
9
$HANDSEED
5
FFFF
0
ENDSEC
0
SECTION
2
TABLES
0
TABLE
2
VPORT
5
8
100
AcDbSymbolTable
0
ENDTAB
0
TABLE
2
LTYPE
5
5
100
AcDbSymbolTable
70
2
0
LTYPE
5
14
100
AcDbSymbolTableRecord
100
AcDbLinetypeTableRecord
2
BYBLOCK
70
0
0
LTYPE
5
15
100
AcDbSymbolTableRecord
100
AcDbLinetypeTableRecord
2
BYLAYER
70
0
0
ENDTAB
0
TABLE
2
LAYER
5
2
100
AcDbSymbolTable
70
3
0
LAYER
5
50
100
AcDbSymbolTableRecord
100
AcDbLayerTableRecord
2
0
70
0
6
CONTINUOUS
0
LAYER
5
51
100
AcDbSymbolTableRecord
100
AcDbLayerTableRecord
2
CUTOUTS
70
0
62
1
6
CONTINUOUS
0
LAYER
5
52
100
AcDbSymbolTableRecord
100
AcDbLayerTableRecord
2
PERIMETER
70
0
62
5
6
CONTINUOUS
0
ENDTAB
0
TABLE
2
STYLE
5
3
100
AcDbSymbolTable
70
1
0
STYLE
5
11
100
AcDbSymbolTableRecord
100
AcDbTextStyleTableRecord
2
STANDARD
70
0
0
ENDTAB
0
TABLE
2
VIEW
5
6
100
AcDbSymbolTable
0
ENDTAB
0
TABLE
2
UCS
5
7
100
AcDbSymbolTable
0
ENDTAB
0
TABLE
2
APPID
5
9
100
AcDbSymbolTable
70
1
0
APPID
5
12
100
AcDbSymbolTableRecord
100
AcDbRegAppTableRecord
2
ACAD
70
0
0
ENDTAB
0
TABLE
2
DIMSTYLE
5
A
100
AcDbSymbolTable
0
ENDTAB
0
TABLE
2
BLOCK_RECORD
5
1
100
AcDbSymbolTable
70
2
0
BLOCK_RECORD
5
1F
100
AcDbSymbolTableRecord
100
AcDbBlockTableRecord
2
*MODEL_SPACE
0
BLOCK_RECORD
5
1B
100
AcDbSymbolTableRecord
100
AcDbBlockTableRecord
2
*PAPER_SPACE
0
ENDTAB
0
ENDSEC
0
SECTION
2
BLOCKS
0
BLOCK
5
20
100
AcDbEntity
100
AcDbBlockBegin
2
*MODEL_SPACE
0
ENDBLK
5
21
100
AcDbEntity
100
AcDbBlockEnd
0
BLOCK
5
1C
100
AcDbEntity
100
AcDbBlockBegin
2
*PAPER_SPACE
0
ENDBLK
5
1D
100
AcDbEntity
100
AcDbBlockEnd
0
ENDSEC
0
SECTION
2
ENTITIES
0
CIRCLE
5
100
100
AcDbEntity
8
CUTOUTS
100
AcDbCircle
10
255.99999999999997
20
-329.74999999999994
30
0
40
3.2250000000000156
210
0
220
0
230
1
0
CIRCLE
5
101
100
AcDbEntity
8
CUTOUTS
100
AcDbCircle
10
-32.999999999999929
20
-329.74999999999994
30
0
40
3.2249999999999979
210
0
220
0
230
1
0
CIRCLE
5
102
100
AcDbEntity
8
CUTOUTS
100
AcDbCircle
10
-334.99999999999977
20
-250.74999999999989
30
0
40
3.2249999999999801
210
0
220
0
230
1
0
CIRCLE
5
103
100
AcDbEntity
8
CUTOUTS
100
AcDbCircle
10
335
20
262.25000000000011
30
0
40
3.2249999999999801
210
0
220
0
230
1
0
CIRCLE
5
104
100
AcDbEntity
8
CUTOUTS
100
AcDbCircle
10
-334.99999999999989
20
262.25
30
0
40
3.2249999999999801
210
0
220
0
230
1
0
CIRCLE
5
105
100
AcDbEntity
8
CUTOUTS
100
AcDbCircle
10
66.000000000000384
20
328.24999999999994
30
0
40
3.2249999999999979
210
0
220
0
230
1
0
CIRCLE
5
106
100
AcDbEntity
8
CUTOUTS
100
AcDbCircle
10
-268.99999999999972
20
328.24999999999994
30
0
40
3.2250000000000156
210
0
220
0
230
1
0
CIRCLE
5
107
100
AcDbEntity
8
CUTOUTS
100
AcDbCircle
10
-74.000000000000043
20
328.24999999999994
30
0
40
3.2249999999999979
210
0
220
0
230
1
0
CIRCLE
5
108
100
AcDbEntity
8
CUTOUTS
100
AcDbCircle
10
269
20
328.24999999999994
30
0
40
3.2250000000000156
210
0
220
0
230
1
0
CIRCLE
5
109
100
AcDbEntity
8
CUTOUTS
100
AcDbCircle
10
-334.99999999999989
20
-0.75000000000002187
30
0
40
3.2249999999999801
210
0
220
0
230
1
0
CIRCLE
5
10A
100
AcDbEntity
8
CUTOUTS
100
AcDbCircle
10
335
20
-0.7499999999999114
30
0
40
3.2249999999999801
210
0
220
0
230
1
0
CIRCLE
5
10B
100
AcDbEntity
8
CUTOUTS
100
AcDbCircle
10
-255.99999999999983
20
-329.74999999999994
30
0
40
3.2250000000000156
210
0
220
0
230
1
0
CIRCLE
5
10C
100
AcDbEntity
8
CUTOUTS
100
AcDbCircle
10
33.000000000000071
20
-329.74999999999989
30
0
40
3.2249999999999979
210
0
220
0
230
1
0
CIRCLE
5
10D
100
AcDbEntity
8
CUTOUTS
100
AcDbCircle
10
334.99999999999994
20
-250.74999999999986
30
0
40
3.2249999999999801
210
0
220
0
230
1
0
ARC
5
10E
100
AcDbEntity
8
PERIMETER
100
AcDbCircle
10
334.99999999999994
20
-275.94999999999982
30
0
40
5.1250000000000284
210
0
220
-0
230
1
100
AcDbArc
50
0
51
180
0
LINE
5
10F
100
AcDbEntity
8
PERIMETER
100
AcDbLine
10
329.87500000000011
20
-314.82499999999982
30
0
11
329.875
21
-275.94999999999982
31
0
0
LINE
5
110
100
AcDbEntity
8
PERIMETER
100
AcDbLine
10
322.92500000000018
20
-314.82500000000039
30
0
11
329.87500000000011
21
-314.82499999999982
31
0
0
LINE
5
111
100
AcDbEntity
8
PERIMETER
100
AcDbLine
10
322.92500000000018
20
-270.82499999999987
30
0
11
322.92500000000018
21
-314.82500000000039
31
0
0
LINE
5
112
100
AcDbEntity
8
PERIMETER
100
AcDbLine
10
283.03106601717809
20
-270.82499999999999
30
0
11
322.92500000000018
21
-270.82499999999987
31
0
0
LINE
5
113
100
AcDbEntity
8
PERIMETER
100
AcDbLine
10
276.07500000000016
20
-277.78106601717792
30
0
11
283.03106601717809
21
-270.82499999999999
31
0
0
LINE
5
114
100
AcDbEntity
8
PERIMETER
100
AcDbLine
10
276.07500000000016
20
-317.67499999999995
30
0
11
276.07500000000016
21
-277.78106601717792
31
0
0
LINE
5
115
100
AcDbEntity
8
PERIMETER
100
AcDbLine
10
320.07499999999999
20
-317.67499999999995
30
0
11
276.07500000000016
21
-317.67499999999995
31
0
0
LINE
5
116
100
AcDbEntity
8
PERIMETER
100
AcDbLine
10
320.07500000000022
20
-324.62499999999989
30
0
11
320.07499999999999
21
-317.67499999999995
31
0
0
LINE
5
117
100
AcDbEntity
8
PERIMETER
100
AcDbLine
10
281.20000000000005
20
-324.625
30
0
11
320.07500000000022
21
-324.62499999999989
31
0
0
ARC
5
118
100
AcDbEntity
8
PERIMETER
100
AcDbCircle
10
281.20000000000005
20
-329.75
30
0
40
5.1250000000000284
210
0
220
-0
230
1
100
AcDbArc
50
90
51
270
0
LINE
5
119
100
AcDbEntity
8
PERIMETER
100
AcDbLine
10
320.07500000000022
20
-334.87499999999989
30
0
11
281.2000000000001
21
-334.87500000000011
31
0
0
LINE
5
11A
100
AcDbEntity
8
PERIMETER
100
AcDbLine
10
320.07499999999999
20
-342.32499999999993
30
0
11
320.07500000000022
21
-334.87499999999989
31
0
0
LINE
5
11B
100
AcDbEntity
8
PERIMETER
100
AcDbLine
10
24.968933982822033
20
-342.32499999999993
30
0
11
320.07499999999999
21
-342.32499999999993
31
0
0
LINE
5
11C
100
AcDbEntity
8
PERIMETER
100
AcDbLine
10
17.925000000000068
20
-335.28106601717786
30
0
11
24.968933982822033
21
-342.32499999999993
31
0
0
LINE
5
11D
100
AcDbEntity
8
PERIMETER
100
AcDbLine
10
17.925000000000079
20
-316.32499999999987
30
0
11
17.925000000000068
21
-335.28106601717786
31
0
0
LINE
5
11E
100
AcDbEntity
8
PERIMETER
100
AcDbLine
10
-17.924999999999937
20
-316.32499999999987
30
0
11
17.925000000000079
21
-316.32499999999987
31
0
0
LINE
5
11F
100
AcDbEntity
8
PERIMETER
100
AcDbLine
10
-17.924999999999926
20
-335.28106601717786
30
0
11
-17.924999999999937
21
-316.32499999999987
31
0
0
LINE
5
120
100
AcDbEntity
8
PERIMETER
100
AcDbLine
10
-24.96893398282193
20
-342.32499999999993
30
0
11
-17.924999999999926
21
-335.28106601717786
31
0
0
LINE
5
121
100
AcDbEntity
8
PERIMETER
100
AcDbLine
10
-320.07500000000027
20
-342.32499999999993
30
0
11
-24.96893398282193
21
-342.32499999999993
31
0
0
LINE
5
122
100
AcDbEntity
8
PERIMETER
100
AcDbLine
10
-320.07500000000016
20
-334.87499999999989
30
0
11
-320.07500000000027
21
-342.32499999999993
31
0
0
LINE
5
123
100
AcDbEntity
8
PERIMETER
100
AcDbLine
10
-281.19999999999976
20
-334.87500000000006
30
0
11
-320.07500000000016
21
-334.87499999999989
31
0
0
ARC
5
124
100
AcDbEntity
8
PERIMETER
100
AcDbCircle
10
-281.19999999999976
20
-329.75
30
0
40
5.1250000000000284
210
-0
220
0
230
1
100
AcDbArc
50
-90
51
90
0
LINE
5
125
100
AcDbEntity
8
PERIMETER
100
AcDbLine
10
-320.07500000000005
20
-324.62499999999989
30
0
11
-281.19999999999976
21
-324.625
31
0
0
LINE
5
126
100
AcDbEntity
8
PERIMETER
100
AcDbLine
10
-320.07499999999999
20
-317.67500000000007
30
0
11
-320.07500000000005
21
-324.62499999999989
31
0
0
LINE
5
127
100
AcDbEntity
8
PERIMETER
100
AcDbLine
10
-276.07500000000005
20
-317.67500000000007
30
0
11
-320.07499999999999
21
-317.67500000000007
31
0
0
LINE
5
128
100
AcDbEntity
8
PERIMETER
100
AcDbLine
10
-276.07500000000005
20
-277.78106601717798
30
0
11
-276.07500000000005
21
-317.67500000000007
31
0
0
LINE
5
129
100
AcDbEntity
8
PERIMETER
100
AcDbLine
10
-283.03106601717798
20
-270.82500000000005
30
0
11
-276.07500000000005
21
-277.78106601717798
31
0
0
LINE
5
12A
100
AcDbEntity
8
PERIMETER
100
AcDbLine
10
-322.92500000000007
20
-270.82500000000005
30
0
11
-283.03106601717798
21
-270.82500000000005
31
0
0
LINE
5
12B
100
AcDbEntity
8
PERIMETER
100
AcDbLine
10
-322.92499999999995
20
-314.82499999999976
30
0
11
-322.92500000000007
21
-270.82500000000005
31
0
0
LINE
5
12C
100
AcDbEntity
8
PERIMETER
100
AcDbLine
10
-329.875
20
-314.82500000000005
30
0
11
-322.92499999999995
21
-314.82499999999976
31
0
0
LINE
5
12D
100
AcDbEntity
8
PERIMETER
100
AcDbLine
10
-329.87499999999989
20
-275.94999999999993
30
0
11
-329.875
21
-314.82500000000005
31
0
0
ARC
5
12E
100
AcDbEntity
8
PERIMETER
100
AcDbCircle
10
-334.99999999999989
20
-275.94999999999993
30
0
40
5.1249999999999574
210
0
220
-0
230
1
100
AcDbArc
50
0
51
180
0
LINE
5
12F
100
AcDbEntity
8
PERIMETER
100
AcDbLine
10
-340.125
20
-314.82500000000005
30
0
11
-340.12499999999983
21
-275.94999999999987
31
0
0
LINE
5
130
100
AcDbEntity
8
PERIMETER
100
AcDbLine
10
-349.0749999999997
20
-314.82499999999965
30
0
11
-340.125
21
-314.82500000000005
31
0
0
LINE
5
131
100
AcDbEntity
8
PERIMETER
100
AcDbLine
10
-349.07500000000005
20
277.32499999999993
30
0
11
-349.0749999999997
21
-314.82499999999965
31
0
0
LINE
5
132
100
AcDbEntity
8
PERIMETER
100
AcDbLine
10
-320.07499999999993
20
277.32500000000005
30
0
11
-349.07500000000005
21
277.32499999999993
31
0
0
LINE
5
133
100
AcDbEntity
8
PERIMETER
100
AcDbLine
10
-320.07499999999993
20
313.32499999999993
30
0
11
-320.07499999999993
21
277.32500000000005
31
0
0
LINE
5
134
100
AcDbEntity
8
PERIMETER
100
AcDbLine
10
-284.07499999999987
20
313.32499999999993
30
0
11
-320.07499999999993
21
313.32499999999993
31
0
0
LINE
5
135
100
AcDbEntity
8
PERIMETER
100
AcDbLine
10
-284.07499999999982
20
342.32499999999993
30
0
11
-284.07499999999987
21
313.32499999999993
31
0
0
LINE
5
136
100
AcDbEntity
8
PERIMETER
100
AcDbLine
10
-58.925000000000054
20
342.32499999999993
30
0
11
-284.07499999999982
21
342.32499999999993
31
0
0
LINE
5
137
100
AcDbEntity
8
PERIMETER
100
AcDbLine
10
-58.925000000000018
20
265.78106601717792
30
0
11
-58.925000000000054
21
342.32499999999993
31
0
0
LINE
5
138
100
AcDbEntity
8
PERIMETER
100
AcDbLine
10
-50.968933982821966
20
257.82500000000005
30
0
11
-58.925000000000018
21
265.78106601717792
31
0
0
LINE
5
139
100
AcDbEntity
8
PERIMETER
100
AcDbLine
10
11.468933982822094
20
257.82500000000005
30
0
11
-50.968933982821966
21
257.82500000000005
31
0
0
LINE
5
13A
100
AcDbEntity
8
PERIMETER
100
AcDbLine
10
19.425000000000146
20
265.78106601717809
30
0
11
11.468933982822094
21
257.82500000000005
31
0
0
LINE
5
13B
100
AcDbEntity
8
PERIMETER
100
AcDbLine
10
19.42500000000015
20
313.32499999999999
30
0
11
19.425000000000146
21
265.78106601717809
31
0
0
LINE
5
13C
100
AcDbEntity
8
PERIMETER
100
AcDbLine
10
50.925000000000075
20
313.32499999999999
30
0
11
19.42500000000015
21
313.32499999999999
31
0
0
LINE
5
13D
100
AcDbEntity
8
PERIMETER
100
AcDbLine
10
50.924999999999869
20
342.32499999999993
30
0
11
50.925000000000075
21
313.32499999999999
31
0
0
LINE
5
13E
100
AcDbEntity
8
PERIMETER
100
AcDbLine
10
284.07499999999999
20
342.32499999999993
30
0
11
50.924999999999869
21
342.32499999999993
31
0
0
LINE
5
13F
100
AcDbEntity
8
PERIMETER
100
AcDbLine
10
284.07500000000005
20
313.32499999999993
30
0
11
284.07499999999999
21
342.32499999999993
31
0
0
LINE
5
140
100
AcDbEntity
8
PERIMETER
100
AcDbLine
10
320.07499999999999
20
313.32500000000005
30
0
11
284.07500000000005
21
313.32499999999993
31
0
0
LINE
5
141
100
AcDbEntity
8
PERIMETER
100
AcDbLine
10
320.07499999999999
20
277.32499999999999
30
0
11
320.07499999999999
21
313.32500000000005
31
0
0
LINE
5
142
100
AcDbEntity
8
PERIMETER
100
AcDbLine
10
349.07500000000005
20
277.32500000000005
30
0
11
320.07499999999999
21
277.32499999999999
31
0
0
LINE
5
143
100
AcDbEntity
8
PERIMETER
100
AcDbLine
10
349.07499999999982
20
-314.82500000000039
30
0
11
349.07500000000005
21
277.32500000000005
31
0
0
LINE
5
144
100
AcDbEntity
8
PERIMETER
100
AcDbLine
10
340.12500000000017
20
-314.82499999999982
30
0
11
349.07499999999982
21
-314.82500000000039
31
0
0
LINE
5
145
100
AcDbEntity
8
PERIMETER
100
AcDbLine
10
340.12499999999994
20
-275.94999999999982
30
0
11
340.12500000000017
21
-314.82499999999982
31
0
0
ENDSEC
0
SECTION
2
OBJECTS
0
DICTIONARY
5
C
100
AcDbDictionary
3
ACAD_GROUP
350
D
3
ACAD_MLINESTYLE
350
17
0
DICTIONARY
5
D
100
AcDbDictionary
0
DICTIONARY
5
1A
330
C
100
AcDbDictionary
0
DICTIONARY
5
17
100
AcDbDictionary
0
ENDSEC
0
EOF
