0
SECTION
2
HEADER
9
$INSUNITS
70
4
9
$ACADVER
1
AC1014
9
$HANDSEED
5
FFFF
0
ENDSEC
0
SECTION
2
TABLES
0
TABLE
2
VPORT
5
8
100
AcDbSymbolTable
0
ENDTAB
0
TABLE
2
LTYPE
5
5
100
AcDbSymbolTable
70
2
0
LTYPE
5
14
100
AcDbSymbolTableRecord
100
AcDbLinetypeTableRecord
2
BYBLOCK
70
0
0
LTYPE
5
15
100
AcDbSymbolTableRecord
100
AcDbLinetypeTableRecord
2
BYLAYER
70
0
0
ENDTAB
0
TABLE
2
LAYER
5
2
100
AcDbSymbolTable
70
3
0
LAYER
5
50
100
AcDbSymbolTableRecord
100
AcDbLayerTableRecord
2
0
70
0
6
CONTINUOUS
0
LAYER
5
51
100
AcDbSymbolTableRecord
100
AcDbLayerTableRecord
2
CUTOUTS
70
0
62
1
6
CONTINUOUS
0
LAYER
5
52
100
AcDbSymbolTableRecord
100
AcDbLayerTableRecord
2
PERIMETER
70
0
62
5
6
CONTINUOUS
0
ENDTAB
0
TABLE
2
STYLE
5
3
100
AcDbSymbolTable
70
1
0
STYLE
5
11
100
AcDbSymbolTableRecord
100
AcDbTextStyleTableRecord
2
STANDARD
70
0
0
ENDTAB
0
TABLE
2
VIEW
5
6
100
AcDbSymbolTable
0
ENDTAB
0
TABLE
2
UCS
5
7
100
AcDbSymbolTable
0
ENDTAB
0
TABLE
2
APPID
5
9
100
AcDbSymbolTable
70
1
0
APPID
5
12
100
AcDbSymbolTableRecord
100
AcDbRegAppTableRecord
2
ACAD
70
0
0
ENDTAB
0
TABLE
2
DIMSTYLE
5
A
100
AcDbSymbolTable
0
ENDTAB
0
TABLE
2
BLOCK_RECORD
5
1
100
AcDbSymbolTable
70
2
0
BLOCK_RECORD
5
1F
100
AcDbSymbolTableRecord
100
AcDbBlockTableRecord
2
*MODEL_SPACE
0
BLOCK_RECORD
5
1B
100
AcDbSymbolTableRecord
100
AcDbBlockTableRecord
2
*PAPER_SPACE
0
ENDTAB
0
ENDSEC
0
SECTION
2
BLOCKS
0
BLOCK
5
20
100
AcDbEntity
100
AcDbBlockBegin
2
*MODEL_SPACE
0
ENDBLK
5
21
100
AcDbEntity
100
AcDbBlockEnd
0
BLOCK
5
1C
100
AcDbEntity
100
AcDbBlockBegin
2
*PAPER_SPACE
0
ENDBLK
5
1D
100
AcDbEntity
100
AcDbBlockEnd
0
ENDSEC
0
SECTION
2
ENTITIES
0
CIRCLE
5
100
100
AcDbEntity
8
CUTOUTS
100
AcDbCircle
10
312.49991813498821
20
-187.25000000003115
30
0
40
3.2999999999999829
210
0
220
0
230
1
0
CIRCLE
5
101
100
AcDbEntity
8
CUTOUTS
100
AcDbCircle
10
312.49991813499065
20
124.74999999996888
30
0
40
3.2999999999999829
210
0
220
0
230
1
0
CIRCLE
5
102
100
AcDbEntity
8
CUTOUTS
100
AcDbCircle
10
312.49991813499065
20
87.749999999968864
30
0
40
3.2999999999999829
210
0
220
0
230
1
0
CIRCLE
5
103
100
AcDbEntity
8
CUTOUTS
100
AcDbCircle
10
312.49991813499065
20
72.749999999968864
30
0
40
3.2999999999999829
210
0
220
0
230
1
0
CIRCLE
5
104
100
AcDbEntity
8
CUTOUTS
100
AcDbCircle
10
312.49991813499065
20
35.749999999968864
30
0
40
3.2999999999999829
210
0
220
0
230
1
0
CIRCLE
5
105
100
AcDbEntity
8
CUTOUTS
100
AcDbCircle
10
312.49991813498821
20
-202.25000000003115
30
0
40
3.2999999999999829
210
0
220
0
230
1
0
CIRCLE
5
106
100
AcDbEntity
8
CUTOUTS
100
AcDbCircle
10
-312.49991813498838
20
-187.25000000003115
30
0
40
3.2999999999999829
210
0
220
0
230
1
0
CIRCLE
5
107
100
AcDbEntity
8
CUTOUTS
100
AcDbCircle
10
-312.49991813499082
20
124.74999999996888
30
0
40
3.2999999999999829
210
0
220
0
230
1
0
CIRCLE
5
108
100
AcDbEntity
8
CUTOUTS
100
AcDbCircle
10
-312.49991813499082
20
87.749999999968864
30
0
40
3.2999999999999829
210
0
220
0
230
1
0
CIRCLE
5
109
100
AcDbEntity
8
CUTOUTS
100
AcDbCircle
10
-312.49991813499082
20
72.749999999968864
30
0
40
3.2999999999999829
210
0
220
0
230
1
0
CIRCLE
5
10A
100
AcDbEntity
8
CUTOUTS
100
AcDbCircle
10
-312.49991813499082
20
35.749999999968864
30
0
40
3.2999999999999829
210
0
220
0
230
1
0
CIRCLE
5
10B
100
AcDbEntity
8
CUTOUTS
100
AcDbCircle
10
-312.49991813498838
20
-202.25000000003115
30
0
40
3.2999999999999829
210
0
220
0
230
1
0
LINE
5
10C
100
AcDbEntity
8
PERIMETER
100
AcDbLine
10
349.99996085173024
20
-223.25000020986866
30
0
11
349.99999963265702
21
146.24999979005895
31
0
0
ARC
5
10D
100
AcDbEntity
8
PERIMETER
100
AcDbCircle
10
347.99996085173029
20
-223.24999999995853
30
0
40
1.9999999999999574
210
-0
220
0
230
1
100
AcDbArc
50
270.00000000002444
51
359.99999396290866
0
LINE
5
10E
100
AcDbEntity
8
PERIMETER
100
AcDbLine
10
322.49995906749132
20
-225.24999999996894
30
0
11
347.99996085173115
21
-225.2499999999585
31
0
0
ARC
5
10F
100
AcDbEntity
8
PERIMETER
100
AcDbCircle
10
322.49995906749223
20
-227.24999999996894
30
0
40
1.9999999999999929
210
0
220
0
230
1
100
AcDbArc
50
90.000000000026063
51
180
0
LINE
5
110
100
AcDbEntity
8
PERIMETER
100
AcDbLine
10
320.49995906749234
20
-237.74999999996885
30
0
11
320.49995906749217
21
-227.24999999996894
31
0
0
ARC
5
111
100
AcDbEntity
8
PERIMETER
100
AcDbCircle
10
318.49995906749223
20
-237.74999999996882
30
0
40
2.0000000000000639
210
-0
220
0
230
1
100
AcDbArc
50
270
51
360
0
LINE
5
112
100
AcDbEntity
8
PERIMETER
100
AcDbLine
10
-318.49995906749234
20
-239.74999999996913
30
0
11
318.49995906749223
21
-239.74999999996891
31
0
0
ARC
5
113
100
AcDbEntity
8
PERIMETER
100
AcDbCircle
10
-318.49995906749234
20
-237.74999999996913
30
0
40
1.9999999999999929
210
0
220
0
230
1
100
AcDbArc
50
180
51
270
0
LINE
5
114
100
AcDbEntity
8
PERIMETER
100
AcDbLine
10
-320.49995906749234
20
-227.24999999996899
30
0
11
-320.49995906749234
21
-237.74999999996913
31
0
0
ARC
5
115
100
AcDbEntity
8
PERIMETER
100
AcDbCircle
10
-322.49995906749234
20
-227.24999999996899
30
0
40
2.0000000000000284
210
0
220
-0
230
1
100
AcDbArc
50
0
51
89.999999999975572
0
LINE
5
116
100
AcDbEntity
8
PERIMETER
100
AcDbLine
10
-347.99996085173098
20
-225.24999999995845
30
0
11
-322.49995906749149
21
-225.24999999996902
31
0
0
ARC
5
117
100
AcDbEntity
8
PERIMETER
100
AcDbCircle
10
-347.99996085172984
20
-223.24999999995845
30
0
40
1.9999999999999685
210
0
220
0
230
1
100
AcDbArc
50
180.00000597641554
51
269.99999999996743
0
LINE
5
118
100
AcDbEntity
8
PERIMETER
100
AcDbLine
10
-349.99999963265708
20
146.24999979005852
30
0
11
-349.99996085172984
21
-223.25000020986874
31
0
0
ARC
5
119
100
AcDbEntity
8
PERIMETER
100
AcDbCircle
10
-347.99999963265714
20
146.24999999996891
30
0
40
1.9999999999999574
210
0
220
-0
230
1
100
AcDbArc
50
90
51
180.00000603709134
0
LINE
5
11A
100
AcDbEntity
8
PERIMETER
100
AcDbLine
10
-320.20710678118604
20
148.24999999996894
30
0
11
-347.99999963265714
21
148.24999999996888
31
0
0
ARC
5
11B
100
AcDbEntity
8
PERIMETER
100
AcDbCircle
10
-320.20710678118604
20
150.24999999996894
30
0
40
1.9999999999999929
210
-0
220
0
230
1
100
AcDbArc
50
270
51
314.99999999988307
0
LINE
5
11C
100
AcDbEntity
8
PERIMETER
100
AcDbLine
10
-259.08578643738554
20
208.54289321878002
30
0
11
-318.79289321881583
21
148.83578643759293
31
0
0
ARC
5
11D
100
AcDbEntity
8
PERIMETER
100
AcDbCircle
10
-260.49999999975574
20
209.957106781156
30
0
40
1.999999999999996
210
-0
220
0
230
1
100
AcDbArc
50
-45.000000000116898
51
0
0
LINE
5
11E
100
AcDbEntity
8
PERIMETER
100
AcDbLine
10
-258.49999999975574
20
237.74999999996865
30
0
11
-258.49999999975574
21
209.957106781156
31
0
0
ARC
5
11F
100
AcDbEntity
8
PERIMETER
100
AcDbCircle
10
-256.4999999997558
20
237.74999999996862
30
0
40
1.9999999999999929
210
0
220
0
230
1
100
AcDbArc
50
90
51
180
0
LINE
5
120
100
AcDbEntity
8
PERIMETER
100
AcDbLine
10
256.49999999975557
20
239.74999999996919
30
0
11
-256.4999999997558
21
239.74999999996862
31
0
0
ARC
5
121
100
AcDbEntity
8
PERIMETER
100
AcDbCircle
10
256.49999999975557
20
237.74999999996913
30
0
40
2.0000000000000284
210
0
220
-0
230
1
100
AcDbArc
50
0
51
90
0
LINE
5
122
100
AcDbEntity
8
PERIMETER
100
AcDbLine
10
258.49999999975569
20
209.95710678115628
30
0
11
258.49999999975563
21
237.74999999996913
31
0
0
ARC
5
123
100
AcDbEntity
8
PERIMETER
100
AcDbCircle
10
260.49999999975563
20
209.95710678115628
30
0
40
1.9999999999999929
210
0
220
0
230
1
100
AcDbArc
50
180
51
225.00000000011687
0
LINE
5
124
100
AcDbEntity
8
PERIMETER
100
AcDbLine
10
318.79289321881578
20
148.83578643759324
30
0
11
259.08578643738542
21
208.54289321878031
31
0
0
ARC
5
125
100
AcDbEntity
8
PERIMETER
100
AcDbCircle
10
320.20710678118598
20
150.24999999996925
30
0
40
2.0000000000000213
210
0
220
0
230
1
100
AcDbArc
50
225.00000000011747
51
270
0
LINE
5
126
100
AcDbEntity
8
PERIMETER
100
AcDbLine
10
347.99999963265702
20
148.2499999999693
30
0
11
320.20710678118598
21
148.24999999996925
31
0
0
ARC
5
127
100
AcDbEntity
8
PERIMETER
100
AcDbCircle
10
347.99999963265697
20
146.24999999996925
30
0
40
2.0000000000000395
210
-0
220
0
230
1
100
AcDbArc
50
-5.9764155237611571e-06
51
90
0
ENDSEC
0
SECTION
2
OBJECTS
0
DICTIONARY
5
C
100
AcDbDictionary
3
ACAD_GROUP
350
D
3
ACAD_MLINESTYLE
350
17
0
DICTIONARY
5
D
100
AcDbDictionary
0
DICTIONARY
5
1A
330
C
100
AcDbDictionary
0
DICTIONARY
5
17
100
AcDbDictionary
0
ENDSEC
0
EOF
