0
SECTION
2
HEADER
9
$INSUNITS
70
4
9
$ACADVER
1
AC1014
9
$HANDSEED
5
FFFF
0
ENDSEC
0
SECTION
2
TABLES
0
TABLE
2
VPORT
5
8
100
AcDbSymbolTable
0
ENDTAB
0
TABLE
2
LTYPE
5
5
100
AcDbSymbolTable
70
2
0
LTYPE
5
14
100
AcDbSymbolTableRecord
100
AcDbLinetypeTableRecord
2
BYBLOCK
70
0
0
LTYPE
5
15
100
AcDbSymbolTableRecord
100
AcDbLinetypeTableRecord
2
BYLAYER
70
0
0
ENDTAB
0
TABLE
2
LAYER
5
2
100
AcDbSymbolTable
70
3
0
LAYER
5
50
100
AcDbSymbolTableRecord
100
AcDbLayerTableRecord
2
0
70
0
6
CONTINUOUS
0
LAYER
5
51
100
AcDbSymbolTableRecord
100
AcDbLayerTableRecord
2
CUTOUTS
70
0
62
1
6
CONTINUOUS
0
LAYER
5
52
100
AcDbSymbolTableRecord
100
AcDbLayerTableRecord
2
PERIMETER
70
0
62
5
6
CONTINUOUS
0
ENDTAB
0
TABLE
2
STYLE
5
3
100
AcDbSymbolTable
70
1
0
STYLE
5
11
100
AcDbSymbolTableRecord
100
AcDbTextStyleTableRecord
2
STANDARD
70
0
0
ENDTAB
0
TABLE
2
VIEW
5
6
100
AcDbSymbolTable
0
ENDTAB
0
TABLE
2
UCS
5
7
100
AcDbSymbolTable
0
ENDTAB
0
TABLE
2
APPID
5
9
100
AcDbSymbolTable
70
1
0
APPID
5
12
100
AcDbSymbolTableRecord
100
AcDbRegAppTableRecord
2
ACAD
70
0
0
ENDTAB
0
TABLE
2
DIMSTYLE
5
A
100
AcDbSymbolTable
0
ENDTAB
0
TABLE
2
BLOCK_RECORD
5
1
100
AcDbSymbolTable
70
2
0
BLOCK_RECORD
5
1F
100
AcDbSymbolTableRecord
100
AcDbBlockTableRecord
2
*MODEL_SPACE
0
BLOCK_RECORD
5
1B
100
AcDbSymbolTableRecord
100
AcDbBlockTableRecord
2
*PAPER_SPACE
0
ENDTAB
0
ENDSEC
0
SECTION
2
BLOCKS
0
BLOCK
5
20
100
AcDbEntity
100
AcDbBlockBegin
2
*MODEL_SPACE
0
ENDBLK
5
21
100
AcDbEntity
100
AcDbBlockEnd
0
BLOCK
5
1C
100
AcDbEntity
100
AcDbBlockBegin
2
*PAPER_SPACE
0
ENDBLK
5
1D
100
AcDbEntity
100
AcDbBlockEnd
0
ENDSEC
0
SECTION
2
ENTITIES
0
CIRCLE
5
100
100
AcDbEntity
8
CUTOUTS
100
AcDbCircle
10
-169.74999999999989
20
144.75
30
0
40
3.5000000000000142
210
0
220
0
230
1
0
CIRCLE
5
101
100
AcDbEntity
8
CUTOUTS
100
AcDbCircle
10
165.25000000000077
20
14.249999999997769
30
0
40
3.5000000000000142
210
0
220
0
230
1
0
CIRCLE
5
102
100
AcDbEntity
8
CUTOUTS
100
AcDbCircle
10
135.24999999999946
20
-155.25000000000227
30
0
40
3.4999999999999964
210
0
220
0
230
1
0
CIRCLE
5
103
100
AcDbEntity
8
CUTOUTS
100
AcDbCircle
10
-143.75000000000054
20
-155.2500000000021
30
0
40
3.4999999999999964
210
0
220
0
230
1
0
CIRCLE
5
104
100
AcDbEntity
8
CUTOUTS
100
AcDbCircle
10
-4.25000000000054
20
-155.25000000000227
30
0
40
3.5000000000000004
210
0
220
0
230
1
0
CIRCLE
5
105
100
AcDbEntity
8
CUTOUTS
100
AcDbCircle
10
165.24999999999983
20
-125.25000000000188
30
0
40
3.5000000000000142
210
0
220
0
230
1
0
CIRCLE
5
106
100
AcDbEntity
8
CUTOUTS
100
AcDbCircle
10
165.2500000000021
20
153.74999999999812
30
0
40
3.5000000000000142
210
0
220
0
230
1
0
CIRCLE
5
107
100
AcDbEntity
8
CUTOUTS
100
AcDbCircle
10
-169.74999999999989
20
44.750000000000014
30
0
40
3.5000000000000142
210
0
220
0
230
1
0
CIRCLE
5
108
100
AcDbEntity
8
CUTOUTS
100
AcDbCircle
10
-169.74999999999989
20
-55.249999999999986
30
0
40
3.5000000000000142
210
0
220
0
230
1
0
LINE
5
109
100
AcDbEntity
8
PERIMETER
100
AcDbLine
10
-179.24999999999986
20
-31.749999999999972
30
0
11
-179.24999999999989
21
-78.75
31
0
0
ARC
5
10A
100
AcDbEntity
8
PERIMETER
100
AcDbCircle
10
-178.24999999999989
20
-78.75
30
0
40
1.0000000000000142
210
0
220
0
230
1
100
AcDbArc
50
180
51
270
0
LINE
5
10B
100
AcDbEntity
8
PERIMETER
100
AcDbLine
10
-178.24999999999989
20
-79.750000000000014
30
0
11
-161.24999999999989
21
-79.749999999999972
31
0
0
ARC
5
10C
100
AcDbEntity
8
PERIMETER
100
AcDbCircle
10
-161.24999999999989
20
-81.749999999999972
30
0
40
1.9999999999999929
210
0
220
-0
230
1
100
AcDbArc
50
0
51
90
0
LINE
5
10D
100
AcDbEntity
8
PERIMETER
100
AcDbLine
10
-159.24999999999989
20
-81.749999999999972
30
0
11
-159.24999999999989
21
-128.75
31
0
0
ARC
5
10E
100
AcDbEntity
8
PERIMETER
100
AcDbCircle
10
-161.24999999999989
20
-128.75
30
0
40
1.9999999999999929
210
-0
220
0
230
1
100
AcDbArc
50
-90
51
0
0
LINE
5
10F
100
AcDbEntity
8
PERIMETER
100
AcDbLine
10
-161.24999999999989
20
-130.75
30
0
11
-177.74999999999989
21
-130.74999999999991
31
0
0
ARC
5
110
100
AcDbEntity
8
PERIMETER
100
AcDbCircle
10
-177.74999999999989
20
-132.24999999999991
30
0
40
1.4999999999999858
210
0
220
-0
230
1
100
AcDbArc
50
90
51
180
0
LINE
5
111
100
AcDbEntity
8
PERIMETER
100
AcDbLine
10
-179.24999999999986
20
-132.24999999999991
30
0
11
-179.24999999999986
21
-169.24999999999997
31
0
0
LINE
5
112
100
AcDbEntity
8
PERIMETER
100
AcDbLine
10
-179.24999999999986
20
-169.24999999999997
30
0
11
147.25000000000006
21
-169.25000000000011
31
0
0
ARC
5
113
100
AcDbEntity
8
PERIMETER
100
AcDbCircle
10
147.25
20
-167.25000000000017
30
0
40
1.9999999999999574
210
-0
220
0
230
1
100
AcDbArc
50
-89.99999999999838
51
0
0
LINE
5
114
100
AcDbEntity
8
PERIMETER
100
AcDbLine
10
149.24999999999997
20
-167.25000000000009
30
0
11
149.25000000000006
21
-141.25000000000028
31
0
0
ARC
5
115
100
AcDbEntity
8
PERIMETER
100
AcDbCircle
10
151.25000000000006
20
-141.25000000000028
30
0
40
1.9999999999999929
210
0
220
-0
230
1
100
AcDbArc
50
90
51
180
0
LINE
5
116
100
AcDbEntity
8
PERIMETER
100
AcDbLine
10
151.25000000000006
20
-139.25000000000028
30
0
11
177.2499999999998
21
-139.25000000000026
31
0
0
ARC
5
117
100
AcDbEntity
8
PERIMETER
100
AcDbCircle
10
177.24999999999989
20
-137.25000000000023
30
0
40
2.0000000000000284
210
0
220
0
230
1
100
AcDbArc
50
-90.000000000002444
51
0
0
LINE
5
118
100
AcDbEntity
8
PERIMETER
100
AcDbLine
10
179.24999999999989
20
-137.25000000000023
30
0
11
179.24999999999983
21
169.25000000000011
31
0
0
LINE
5
119
100
AcDbEntity
8
PERIMETER
100
AcDbLine
10
179.24999999999983
20
169.25000000000011
30
0
11
-178.24999999999989
21
169.25
31
0
0
ARC
5
11A
100
AcDbEntity
8
PERIMETER
100
AcDbCircle
10
-178.24999999999989
20
168.25000000000003
30
0
40
0.99999999999997868
210
0
220
-0
230
1
100
AcDbArc
50
90
51
180
0
LINE
5
11B
100
AcDbEntity
8
PERIMETER
100
AcDbLine
10
-179.24999999999986
20
168.25000000000003
30
0
11
-179.24999999999989
21
121.25
31
0
0
ARC
5
11C
100
AcDbEntity
8
PERIMETER
100
AcDbCircle
10
-178.24999999999989
20
121.25
30
0
40
1.0000000000000142
210
0
220
0
230
1
100
AcDbArc
50
180
51
270
0
LINE
5
11D
100
AcDbEntity
8
PERIMETER
100
AcDbLine
10
-178.24999999999989
20
120.25
30
0
11
-161.24999999999989
21
120.25000000000003
31
0
0
ARC
5
11E
100
AcDbEntity
8
PERIMETER
100
AcDbCircle
10
-161.24999999999989
20
118.25000000000003
30
0
40
2.0000000000000107
210
0
220
-0
230
1
100
AcDbArc
50
0
51
90
0
LINE
5
11F
100
AcDbEntity
8
PERIMETER
100
AcDbLine
10
-159.24999999999989
20
118.25000000000003
30
0
11
-159.24999999999989
21
71.25
31
0
0
ARC
5
120
100
AcDbEntity
8
PERIMETER
100
AcDbCircle
10
-161.24999999999989
20
71.25
30
0
40
1.9999999999999929
210
-0
220
0
230
1
100
AcDbArc
50
-90
51
0
0
LINE
5
121
100
AcDbEntity
8
PERIMETER
100
AcDbLine
10
-161.24999999999989
20
69.25
30
0
11
-178.24999999999989
21
69.25
31
0
0
ARC
5
122
100
AcDbEntity
8
PERIMETER
100
AcDbCircle
10
-178.24999999999989
20
68.250000000000028
30
0
40
0.99999999999997868
210
0
220
-0
230
1
100
AcDbArc
50
90
51
180
0
LINE
5
123
100
AcDbEntity
8
PERIMETER
100
AcDbLine
10
-179.24999999999986
20
68.250000000000028
30
0
11
-179.24999999999989
21
21.25
31
0
0
ARC
5
124
100
AcDbEntity
8
PERIMETER
100
AcDbCircle
10
-178.24999999999989
20
21.25
30
0
40
1.0000000000000142
210
0
220
0
230
1
100
AcDbArc
50
180
51
270
0
LINE
5
125
100
AcDbEntity
8
PERIMETER
100
AcDbLine
10
-178.24999999999989
20
20.250000000000004
30
0
11
-161.24999999999989
21
20.250000000000021
31
0
0
ARC
5
126
100
AcDbEntity
8
PERIMETER
100
AcDbCircle
10
-161.24999999999989
20
18.250000000000028
30
0
40
1.9999999999999929
210
0
220
-0
230
1
100
AcDbArc
50
0
51
90
0
LINE
5
127
100
AcDbEntity
8
PERIMETER
100
AcDbLine
10
-159.24999999999989
20
18.250000000000028
30
0
11
-159.24999999999989
21
-28.75
31
0
0
ARC
5
128
100
AcDbEntity
8
PERIMETER
100
AcDbCircle
10
-161.24999999999989
20
-28.75
30
0
40
1.9999999999999929
210
-0
220
0
230
1
100
AcDbArc
50
-90
51
0
0
LINE
5
129
100
AcDbEntity
8
PERIMETER
100
AcDbLine
10
-161.24999999999989
20
-30.749999999999993
30
0
11
-178.24999999999989
21
-30.749999999999993
31
0
0
ARC
5
12A
100
AcDbEntity
8
PERIMETER
100
AcDbCircle
10
-178.24999999999989
20
-31.749999999999972
30
0
40
0.99999999999997868
210
0
220
-0
230
1
100
AcDbArc
50
90
51
180
0
ENDSEC
0
SECTION
2
OBJECTS
0
DICTIONARY
5
C
100
AcDbDictionary
3
ACAD_GROUP
350
D
3
ACAD_MLINESTYLE
350
17
0
DICTIONARY
5
D
100
AcDbDictionary
0
DICTIONARY
5
1A
330
C
100
AcDbDictionary
0
DICTIONARY
5
17
100
AcDbDictionary
0
ENDSEC
0
EOF
