0
SECTION
2
HEADER
9
$INSUNITS
70
4
9
$ACADVER
1
AC1014
9
$HANDSEED
5
FFFF
0
ENDSEC
0
SECTION
2
TABLES
0
TABLE
2
VPORT
5
8
100
AcDbSymbolTable
0
ENDTAB
0
TABLE
2
LTYPE
5
5
100
AcDbSymbolTable
70
2
0
LTYPE
5
14
100
AcDbSymbolTableRecord
100
AcDbLinetypeTableRecord
2
BYBLOCK
70
0
0
LTYPE
5
15
100
AcDbSymbolTableRecord
100
AcDbLinetypeTableRecord
2
BYLAYER
70
0
0
ENDTAB
0
TABLE
2
LAYER
5
2
100
AcDbSymbolTable
70
3
0
LAYER
5
50
100
AcDbSymbolTableRecord
100
AcDbLayerTableRecord
2
0
70
0
6
CONTINUOUS
0
LAYER
5
51
100
AcDbSymbolTableRecord
100
AcDbLayerTableRecord
2
CUTOUTS
70
0
62
1
6
CONTINUOUS
0
LAYER
5
52
100
AcDbSymbolTableRecord
100
AcDbLayerTableRecord
2
PERIMETER
70
0
62
5
6
CONTINUOUS
0
ENDTAB
0
TABLE
2
STYLE
5
3
100
AcDbSymbolTable
70
1
0
STYLE
5
11
100
AcDbSymbolTableRecord
100
AcDbTextStyleTableRecord
2
STANDARD
70
0
0
ENDTAB
0
TABLE
2
VIEW
5
6
100
AcDbSymbolTable
0
ENDTAB
0
TABLE
2
UCS
5
7
100
AcDbSymbolTable
0
ENDTAB
0
TABLE
2
APPID
5
9
100
AcDbSymbolTable
70
1
0
APPID
5
12
100
AcDbSymbolTableRecord
100
AcDbRegAppTableRecord
2
ACAD
70
0
0
ENDTAB
0
TABLE
2
DIMSTYLE
5
A
100
AcDbSymbolTable
0
ENDTAB
0
TABLE
2
BLOCK_RECORD
5
1
100
AcDbSymbolTable
70
2
0
BLOCK_RECORD
5
1F
100
AcDbSymbolTableRecord
100
AcDbBlockTableRecord
2
*MODEL_SPACE
0
BLOCK_RECORD
5
1B
100
AcDbSymbolTableRecord
100
AcDbBlockTableRecord
2
*PAPER_SPACE
0
ENDTAB
0
ENDSEC
0
SECTION
2
BLOCKS
0
BLOCK
5
20
100
AcDbEntity
100
AcDbBlockBegin
2
*MODEL_SPACE
0
ENDBLK
5
21
100
AcDbEntity
100
AcDbBlockEnd
0
BLOCK
5
1C
100
AcDbEntity
100
AcDbBlockBegin
2
*PAPER_SPACE
0
ENDBLK
5
1D
100
AcDbEntity
100
AcDbBlockEnd
0
ENDSEC
0
SECTION
2
ENTITIES
0
CIRCLE
5
100
100
AcDbEntity
8
CUTOUTS
100
AcDbCircle
10
277.49999999999989
20
214.9999999999996
30
0
40
3.2999999999999829
210
0
220
0
230
1
0
CIRCLE
5
101
100
AcDbEntity
8
CUTOUTS
100
AcDbCircle
10
-277.5
20
214.99999999999972
30
0
40
3.2999999999999829
210
0
220
0
230
1
0
CIRCLE
5
102
100
AcDbEntity
8
CUTOUTS
100
AcDbCircle
10
-290.50000000000034
20
-124.9999999999973
30
0
40
3.2999999999999829
210
0
220
0
230
1
0
CIRCLE
5
103
100
AcDbEntity
8
CUTOUTS
100
AcDbCircle
10
-277.50000000000028
20
-465
30
0
40
3.2999999999999829
210
0
220
0
230
1
0
CIRCLE
5
104
100
AcDbEntity
8
CUTOUTS
100
AcDbCircle
10
277.49999999999977
20
-465
30
0
40
3.2999999999999829
210
0
220
0
230
1
0
CIRCLE
5
105
100
AcDbEntity
8
CUTOUTS
100
AcDbCircle
10
367.49999999999977
20
-110.0000000000005
30
0
40
3.2999999999999829
210
0
220
0
230
1
0
CIRCLE
5
106
100
AcDbEntity
8
CUTOUTS
100
AcDbCircle
10
367.49999999999989
20
274.99999999999932
30
0
40
3.2999999999999829
210
0
220
0
230
1
0
CIRCLE
5
107
100
AcDbEntity
8
CUTOUTS
100
AcDbCircle
10
277.50000000000006
20
465.00000000000006
30
0
40
3.2999999999999829
210
0
220
0
230
1
0
CIRCLE
5
108
100
AcDbEntity
8
CUTOUTS
100
AcDbCircle
10
-277.5
20
465
30
0
40
3.2999999999999829
210
0
220
0
230
1
0
CIRCLE
5
109
100
AcDbEntity
8
CUTOUTS
100
AcDbCircle
10
-367.5
20
274.99999999999949
30
0
40
3.2999999999999829
210
0
220
0
230
1
0
CIRCLE
5
10A
100
AcDbEntity
8
CUTOUTS
100
AcDbCircle
10
-367.5
20
375
30
0
40
3.2999999999999829
210
0
220
0
230
1
0
CIRCLE
5
10B
100
AcDbEntity
8
CUTOUTS
100
AcDbCircle
10
3.5527136788005009e-14
20
465.00000000000006
30
0
40
3.3000000000000003
210
0
220
0
230
1
0
CIRCLE
5
10C
100
AcDbEntity
8
CUTOUTS
100
AcDbCircle
10
367.49999999999994
20
374.99999999999977
30
0
40
3.2999999999999829
210
0
220
0
230
1
0
CIRCLE
5
10D
100
AcDbEntity
8
CUTOUTS
100
AcDbCircle
10
367.49999999999989
20
154.99999999999935
30
0
40
3.2999999999999829
210
0
220
0
230
1
0
CIRCLE
5
10E
100
AcDbEntity
8
CUTOUTS
100
AcDbCircle
10
367.49999999999966
20
-375.00000000000028
30
0
40
3.2999999999999829
210
0
220
0
230
1
0
CIRCLE
5
10F
100
AcDbEntity
8
CUTOUTS
100
AcDbCircle
10
-6.0396132539608516e-13
20
-465
30
0
40
3.3000000000000003
210
0
220
0
230
1
0
CIRCLE
5
110
100
AcDbEntity
8
CUTOUTS
100
AcDbCircle
10
-290.50000000000068
20
-425.00000000000114
30
0
40
3.2999999999999829
210
0
220
0
230
1
0
CIRCLE
5
111
100
AcDbEntity
8
CUTOUTS
100
AcDbCircle
10
-290.50000000000006
20
179.99999999999969
30
0
40
3.2999999999999829
210
0
220
0
230
1
0
CIRCLE
5
112
100
AcDbEntity
8
CUTOUTS
100
AcDbCircle
10
0
20
215
30
0
40
3.3000000000000003
210
0
220
0
230
1
0
ARC
5
113
100
AcDbEntity
8
PERIMETER
100
AcDbCircle
10
288.99999999999926
20
-478
30
0
40
2.0000000000000284
210
-0
220
0
230
1
100
AcDbArc
50
-89.999999999995111
51
0
0
LINE
5
114
100
AcDbEntity
8
PERIMETER
100
AcDbLine
10
290.99999999999932
20
-478
30
0
11
290.99999999999943
21
-450.20710678118661
31
0
0
ARC
5
115
100
AcDbEntity
8
PERIMETER
100
AcDbCircle
10
292.99999999999943
20
-450.20710678118661
30
0
40
2.0000000000000213
210
0
220
0
230
1
100
AcDbArc
50
134.99999999999886
51
180
0
LINE
5
116
100
AcDbEntity
8
PERIMETER
100
AcDbLine
10
291.58578643762633
20
-448.79289321881345
30
0
11
351.29289321881299
21
-389.08578643762735
31
0
0
ARC
5
117
100
AcDbEntity
8
PERIMETER
100
AcDbCircle
10
352.7071067811861
20
-390.50000000000045
30
0
40
2.0000000000000284
210
0
220
-0
230
1
100
AcDbArc
50
90
51
135
0
LINE
5
118
100
AcDbEntity
8
PERIMETER
100
AcDbLine
10
352.7071067811861
20
-388.50000000000045
30
0
11
380.49999999999949
21
-388.50000000000028
31
0
0
ARC
5
119
100
AcDbEntity
8
PERIMETER
100
AcDbCircle
10
380.49999999999932
20
-386.50000000000011
30
0
40
2.0000000000001705
210
-0
220
0
230
1
100
AcDbArc
50
270.00000000000489
51
360
0
LINE
5
11A
100
AcDbEntity
8
PERIMETER
100
AcDbLine
10
382.49999999999949
20
-386.50000000000028
30
0
11
382.49999999999989
21
166.49999999999935
31
0
0
ARC
5
11B
100
AcDbEntity
8
PERIMETER
100
AcDbCircle
10
380.49999999999983
20
166.49999999999935
30
0
40
2.0000000000000284
210
0
220
0
230
1
100
AcDbArc
50
0
51
90
0
LINE
5
11C
100
AcDbEntity
8
PERIMETER
100
AcDbLine
10
380.49999999999983
20
168.49999999999937
30
0
11
352.6180339887498
21
168.4999999999994
31
0
0
ARC
5
11D
100
AcDbEntity
8
PERIMETER
100
AcDbCircle
10
352.6180339887498
20
170.4999999999994
30
0
40
2.0000000000000098
210
0
220
0
230
1
100
AcDbArc
50
243.43494882292202
51
270
0
LINE
5
11E
100
AcDbEntity
8
PERIMETER
100
AcDbLine
10
351.72360679774988
20
168.71114561799956
30
0
11
292.10557280899997
21
198.52016261237469
31
0
0
ARC
5
11F
100
AcDbEntity
8
PERIMETER
100
AcDbCircle
10
292.99999999999989
20
200.30901699437453
30
0
40
1.9999999999999929
210
0
220
0
230
1
100
AcDbArc
50
180
51
243.43494882292126
0
LINE
5
120
100
AcDbEntity
8
PERIMETER
100
AcDbLine
10
290.99999999999989
20
200.3090169943745
30
0
11
290.99999999999989
21
229.69098300562464
31
0
0
ARC
5
121
100
AcDbEntity
8
PERIMETER
100
AcDbCircle
10
292.99999999999989
20
229.69098300562464
30
0
40
2.0000000000000098
210
0
220
0
230
1
100
AcDbArc
50
116.56505117707799
51
180
0
LINE
5
122
100
AcDbEntity
8
PERIMETER
100
AcDbLine
10
292.10557280899997
20
231.47983738762449
30
0
11
351.72360679774982
21
261.28885438199922
31
0
0
ARC
5
123
100
AcDbEntity
8
PERIMETER
100
AcDbCircle
10
352.61803398874974
20
259.49999999999937
30
0
40
1.9999999999999929
210
0
220
-0
230
1
100
AcDbArc
50
90
51
116.56505117707799
0
LINE
5
124
100
AcDbEntity
8
PERIMETER
100
AcDbLine
10
352.61803398874974
20
261.49999999999937
30
0
11
380.49999999999983
21
261.49999999999932
31
0
0
ARC
5
125
100
AcDbEntity
8
PERIMETER
100
AcDbCircle
10
380.49999999999983
20
263.49999999999937
30
0
40
1.9999999999999929
210
-0
220
0
230
1
100
AcDbArc
50
270
51
360
0
LINE
5
126
100
AcDbEntity
8
PERIMETER
100
AcDbLine
10
382.49999999999989
20
263.49999999999932
30
0
11
382.5
21
386.49999999999983
31
0
0
ARC
5
127
100
AcDbEntity
8
PERIMETER
100
AcDbCircle
10
380.50000000000006
20
386.49999999999983
30
0
40
1.9999999999999574
210
0
220
-0
230
1
100
AcDbArc
50
0
51
90.000000000001634
0
LINE
5
128
100
AcDbEntity
8
PERIMETER
100
AcDbLine
10
380.5
20
388.49999999999977
30
0
11
352.70710678118644
21
388.49999999999977
31
0
0
ARC
5
129
100
AcDbEntity
8
PERIMETER
100
AcDbCircle
10
352.70710678118644
20
390.49999999999983
30
0
40
1.999999999999996
210
0
220
0
230
1
100
AcDbArc
50
225.00000000000117
51
270
0
LINE
5
12A
100
AcDbEntity
8
PERIMETER
100
AcDbLine
10
351.29289321881339
20
389.08578643762672
30
0
11
291.58578643762695
21
448.79289321881333
31
0
0
ARC
5
12B
100
AcDbEntity
8
PERIMETER
100
AcDbCircle
10
293
20
450.20710678118633
30
0
40
1.9999999999999929
210
0
220
0
230
1
100
AcDbArc
50
180
51
225
0
LINE
5
12C
100
AcDbEntity
8
PERIMETER
100
AcDbLine
10
291
20
450.20710678118633
30
0
11
291
21
478.00000000000011
31
0
0
ARC
5
12D
100
AcDbEntity
8
PERIMETER
100
AcDbCircle
10
289
20
478.00000000000017
30
0
40
1.9999999999999929
210
0
220
-0
230
1
100
AcDbArc
50
0
51
90
0
LINE
5
12E
100
AcDbEntity
8
PERIMETER
100
AcDbLine
10
289
20
480.00000000000011
30
0
11
-289.00000000000011
21
479.99999999999972
31
0
0
ARC
5
12F
100
AcDbEntity
8
PERIMETER
100
AcDbCircle
10
-289.00000000000006
20
477.99999999999983
30
0
40
2.0000000000000284
210
0
220
0
230
1
100
AcDbArc
50
90.000000000001634
51
180
0
LINE
5
130
100
AcDbEntity
8
PERIMETER
100
AcDbLine
10
-291.00000000000006
20
477.99999999999983
30
0
11
-291
21
450.20710678118661
31
0
0
ARC
5
131
100
AcDbEntity
8
PERIMETER
100
AcDbCircle
10
-293
20
450.20710678118655
30
0
40
1.999999999999996
210
-0
220
0
230
1
100
AcDbArc
50
-45
51
0
0
LINE
5
132
100
AcDbEntity
8
PERIMETER
100
AcDbLine
10
-291.58578643762689
20
448.79289321881345
30
0
11
-351.29289321881345
21
389.08578643762695
31
0
0
ARC
5
133
100
AcDbEntity
8
PERIMETER
100
AcDbCircle
10
-352.70710678118655
20
390.5
30
0
40
2.0000000000000284
210
-0
220
0
230
1
100
AcDbArc
50
270
51
315
0
LINE
5
134
100
AcDbEntity
8
PERIMETER
100
AcDbLine
10
-352.70710678118655
20
388.5
30
0
11
-380.5
21
388.5
31
0
0
ARC
5
135
100
AcDbEntity
8
PERIMETER
100
AcDbCircle
10
-380.5
20
386.5
30
0
40
2.0000000000000284
210
0
220
-0
230
1
100
AcDbArc
50
90
51
180
0
LINE
5
136
100
AcDbEntity
8
PERIMETER
100
AcDbLine
10
-382.5
20
386.50000000000006
30
0
11
-382.5
21
263.49999999999955
31
0
0
ARC
5
137
100
AcDbEntity
8
PERIMETER
100
AcDbCircle
10
-380.5
20
263.49999999999949
30
0
40
2.0000000000000284
210
0
220
0
230
1
100
AcDbArc
50
180
51
270
0
LINE
5
138
100
AcDbEntity
8
PERIMETER
100
AcDbLine
10
-380.5
20
261.49999999999943
30
0
11
-352.61803398874986
21
261.49999999999949
31
0
0
ARC
5
139
100
AcDbEntity
8
PERIMETER
100
AcDbCircle
10
-352.61803398874986
20
259.49999999999949
30
0
40
2.0000000000000098
210
0
220
-0
230
1
100
AcDbArc
50
63.434948822919822
51
90
0
LINE
5
13A
100
AcDbEntity
8
PERIMETER
100
AcDbLine
10
-351.72360679774988
20
261.28885438199927
30
0
11
-292.10557280900014
21
231.47983738762463
31
0
0
ARC
5
13B
100
AcDbEntity
8
PERIMETER
100
AcDbCircle
10
-293.00000000000006
20
229.69098300562479
30
0
40
1.9999999999999929
210
0
220
0
230
1
100
AcDbArc
50
0
51
63.43494882292201
0
LINE
5
13C
100
AcDbEntity
8
PERIMETER
100
AcDbLine
10
-291.00000000000006
20
229.69098300562479
30
0
11
-291
21
200.30901699437464
31
0
0
ARC
5
13D
100
AcDbEntity
8
PERIMETER
100
AcDbCircle
10
-293
20
200.30901699437464
30
0
40
1.9999999999999938
210
-0
220
0
230
1
100
AcDbArc
50
-63.434948822923488
51
0
0
LINE
5
13E
100
AcDbEntity
8
PERIMETER
100
AcDbLine
10
-292.10557280900014
20
198.5201626123748
30
0
11
-301.39442719099986
21
193.87573542137491
31
0
0
ARC
5
13F
100
AcDbEntity
8
PERIMETER
100
AcDbCircle
10
-300.49999999999989
20
192.08688103937504
30
0
40
2.0000000000000733
210
0
220
0
230
1
100
AcDbArc
50
116.56505117707908
51
180
0
LINE
5
140
100
AcDbEntity
8
PERIMETER
100
AcDbLine
10
-302.49999999999994
20
192.08688103937507
30
0
11
-302.49999999999994
21
170.82842712474798
31
0
0
ARC
5
141
100
AcDbEntity
8
PERIMETER
100
AcDbCircle
10
-300.49999999999966
20
170.82842712474815
30
0
40
2.0000000000002771
210
0
220
0
230
1
100
AcDbArc
50
180
51
224.9999999999942
0
LINE
5
142
100
AcDbEntity
8
PERIMETER
100
AcDbLine
10
-301.91421356237311
20
169.41421356237498
30
0
11
-280.08578643750292
21
147.58578643750329
31
0
0
ARC
5
143
100
AcDbEntity
8
PERIMETER
100
AcDbCircle
10
-281.49999999987602
20
146.17157287513024
30
0
40
1.9999999999999929
210
0
220
-0
230
1
100
AcDbArc
50
0
51
44.999999999998849
0
LINE
5
144
100
AcDbEntity
8
PERIMETER
100
AcDbLine
10
-279.49999999987602
20
146.17157287513024
30
0
11
-279.49999999987608
21
-91.171572875127254
31
0
0
ARC
5
145
100
AcDbEntity
8
PERIMETER
100
AcDbCircle
10
-281.49999999987608
20
-91.171572875127254
30
0
40
1.999999999999996
210
-0
220
0
230
1
100
AcDbArc
50
-44.999999999999694
51
0
0
LINE
5
146
100
AcDbEntity
8
PERIMETER
100
AcDbLine
10
-280.08578643750297
20
-92.585786437500346
30
0
11
-301.91421356237277
21
-114.41421356237036
31
0
0
ARC
5
147
100
AcDbEntity
8
PERIMETER
100
AcDbCircle
10
-300.49999999999966
20
-115.82842712474346
30
0
40
1.999999999999996
210
0
220
0
230
1
100
AcDbArc
50
135.00000000000031
51
180
0
LINE
5
148
100
AcDbEntity
8
PERIMETER
100
AcDbLine
10
-302.49999999999972
20
-115.82842712474346
30
0
11
-302.49999999999977
21
-134.171572875251
31
0
0
ARC
5
149
100
AcDbEntity
8
PERIMETER
100
AcDbCircle
10
-300.49999999999949
20
-134.17157287525086
30
0
40
2.0000000000002771
210
0
220
0
230
1
100
AcDbArc
50
180
51
224.99999999999827
0
LINE
5
14A
100
AcDbEntity
8
PERIMETER
100
AcDbLine
10
-301.91421356237282
20
-135.58578643762411
30
0
11
-280.08578643750303
21
-157.41421356249433
31
0
0
ARC
5
14B
100
AcDbEntity
8
PERIMETER
100
AcDbCircle
10
-281.49999999987608
20
-158.82842712486735
30
0
40
1.9999999999999929
210
0
220
-0
230
1
100
AcDbArc
50
0
51
44.999999999999424
0
LINE
5
14C
100
AcDbEntity
8
PERIMETER
100
AcDbLine
10
-279.49999999987608
20
-158.82842712486735
30
0
11
-279.49999999987608
21
-391.17157287513174
31
0
0
ARC
5
14D
100
AcDbEntity
8
PERIMETER
100
AcDbCircle
10
-281.49999999987608
20
-391.17157287513174
30
0
40
1.999999999999996
210
-0
220
0
230
1
100
AcDbArc
50
-45
51
0
0
LINE
5
14E
100
AcDbEntity
8
PERIMETER
100
AcDbLine
10
-280.08578643750303
20
-392.58578643750479
30
0
11
-301.91421356237265
21
-414.41421356237413
31
0
0
ARC
5
14F
100
AcDbEntity
8
PERIMETER
100
AcDbCircle
10
-300.49999999999966
20
-415.82842712474712
30
0
40
1.9999999999998455
210
0
220
0
230
1
100
AcDbArc
50
135
51
180
0
LINE
5
150
100
AcDbEntity
8
PERIMETER
100
AcDbLine
10
-302.49999999999955
20
-415.82842712474724
30
0
11
-302.49999999999949
21
-437.05025253169526
31
0
0
ARC
5
151
100
AcDbEntity
8
PERIMETER
100
AcDbCircle
10
-300.49999999999943
20
-437.05025253169526
30
0
40
2.0000000000000995
210
0
220
0
230
1
100
AcDbArc
50
180
51
225
0
LINE
5
152
100
AcDbEntity
8
PERIMETER
100
AcDbLine
10
-301.91421356237254
20
-438.46446609406837
30
0
11
-291.58578643762758
21
-448.79289321881345
31
0
0
ARC
5
153
100
AcDbEntity
8
PERIMETER
100
AcDbCircle
10
-293.00000000000063
20
-450.20710678118661
30
0
40
1.9999999999999929
210
0
220
-0
230
1
100
AcDbArc
50
0
51
45.000000000001151
0
LINE
5
154
100
AcDbEntity
8
PERIMETER
100
AcDbLine
10
-291.00000000000068
20
-450.20710678118661
30
0
11
-291.00000000000057
21
-478.00000000000011
31
0
0
ARC
5
155
100
AcDbEntity
8
PERIMETER
100
AcDbCircle
10
-289.0000000000004
20
-477.99999999999983
30
0
40
2.0000000000001705
210
0
220
0
230
1
100
AcDbArc
50
180
51
269.99999999999346
0
LINE
5
156
100
AcDbEntity
8
PERIMETER
100
AcDbLine
10
-289.00000000000063
20
-480
30
0
11
288.99999999999943
21
-480
31
0
0
ENDSEC
0
SECTION
2
OBJECTS
0
DICTIONARY
5
C
100
AcDbDictionary
3
ACAD_GROUP
350
D
3
ACAD_MLINESTYLE
350
17
0
DICTIONARY
5
D
100
AcDbDictionary
0
DICTIONARY
5
1A
330
C
100
AcDbDictionary
0
DICTIONARY
5
17
100
AcDbDictionary
0
ENDSEC
0
EOF
