0
SECTION
2
HEADER
9
$INSUNITS
70
4
9
$ACADVER
1
AC1014
9
$HANDSEED
5
FFFF
0
ENDSEC
0
SECTION
2
TABLES
0
TABLE
2
VPORT
5
8
100
AcDbSymbolTable
0
ENDTAB
0
TABLE
2
LTYPE
5
5
100
AcDbSymbolTable
70
2
0
LTYPE
5
14
100
AcDbSymbolTableRecord
100
AcDbLinetypeTableRecord
2
BYBLOCK
70
0
0
LTYPE
5
15
100
AcDbSymbolTableRecord
100
AcDbLinetypeTableRecord
2
BYLAYER
70
0
0
ENDTAB
0
TABLE
2
LAYER
5
2
100
AcDbSymbolTable
70
3
0
LAYER
5
50
100
AcDbSymbolTableRecord
100
AcDbLayerTableRecord
2
0
70
0
6
CONTINUOUS
0
LAYER
5
51
100
AcDbSymbolTableRecord
100
AcDbLayerTableRecord
2
CUTOUTS
70
0
62
1
6
CONTINUOUS
0
LAYER
5
52
100
AcDbSymbolTableRecord
100
AcDbLayerTableRecord
2
PERIMETER
70
0
62
5
6
CONTINUOUS
0
ENDTAB
0
TABLE
2
STYLE
5
3
100
AcDbSymbolTable
70
1
0
STYLE
5
11
100
AcDbSymbolTableRecord
100
AcDbTextStyleTableRecord
2
STANDARD
70
0
0
ENDTAB
0
TABLE
2
VIEW
5
6
100
AcDbSymbolTable
0
ENDTAB
0
TABLE
2
UCS
5
7
100
AcDbSymbolTable
0
ENDTAB
0
TABLE
2
APPID
5
9
100
AcDbSymbolTable
70
1
0
APPID
5
12
100
AcDbSymbolTableRecord
100
AcDbRegAppTableRecord
2
ACAD
70
0
0
ENDTAB
0
TABLE
2
DIMSTYLE
5
A
100
AcDbSymbolTable
0
ENDTAB
0
TABLE
2
BLOCK_RECORD
5
1
100
AcDbSymbolTable
70
2
0
BLOCK_RECORD
5
1F
100
AcDbSymbolTableRecord
100
AcDbBlockTableRecord
2
*MODEL_SPACE
0
BLOCK_RECORD
5
1B
100
AcDbSymbolTableRecord
100
AcDbBlockTableRecord
2
*PAPER_SPACE
0
ENDTAB
0
ENDSEC
0
SECTION
2
BLOCKS
0
BLOCK
5
20
100
AcDbEntity
100
AcDbBlockBegin
2
*MODEL_SPACE
0
ENDBLK
5
21
100
AcDbEntity
100
AcDbBlockEnd
0
BLOCK
5
1C
100
AcDbEntity
100
AcDbBlockBegin
2
*PAPER_SPACE
0
ENDBLK
5
1D
100
AcDbEntity
100
AcDbBlockEnd
0
ENDSEC
0
SECTION
2
ENTITIES
0
CIRCLE
5
100
100
AcDbEntity
8
CUTOUTS
100
AcDbCircle
10
237.49999999999994
20
342.3749999999996
30
0
40
3.2999999999999829
210
0
220
0
230
1
0
CIRCLE
5
101
100
AcDbEntity
8
CUTOUTS
100
AcDbCircle
10
-317.49999999999994
20
342.37499999999977
30
0
40
3.2999999999999829
210
0
220
0
230
1
0
CIRCLE
5
102
100
AcDbEntity
8
CUTOUTS
100
AcDbCircle
10
-330.50000000000023
20
2.3749999999969162
30
0
40
3.2999999999999829
210
0
220
0
230
1
0
CIRCLE
5
103
100
AcDbEntity
8
CUTOUTS
100
AcDbCircle
10
-317.50000000000023
20
-337.62499999999994
30
0
40
3.2999999999999829
210
0
220
0
230
1
0
CIRCLE
5
104
100
AcDbEntity
8
CUTOUTS
100
AcDbCircle
10
237.49999999999986
20
-337.62499999999994
30
0
40
3.2999999999999829
210
0
220
0
230
1
0
CIRCLE
5
105
100
AcDbEntity
8
CUTOUTS
100
AcDbCircle
10
327.49999999999989
20
17.374999999999545
30
0
40
3.2999999999999829
210
0
220
0
230
1
0
CIRCLE
5
106
100
AcDbEntity
8
CUTOUTS
100
AcDbCircle
10
327.49999999999994
20
282.37499999999943
30
0
40
3.2999999999999829
210
0
220
0
230
1
0
CIRCLE
5
107
100
AcDbEntity
8
CUTOUTS
100
AcDbCircle
10
327.49999999999972
20
-247.62500000000023
30
0
40
3.2999999999999829
210
0
220
0
230
1
0
CIRCLE
5
108
100
AcDbEntity
8
CUTOUTS
100
AcDbCircle
10
-40.000000000000533
20
-337.62499999999994
30
0
40
3.3000000000000007
210
0
220
0
230
1
0
CIRCLE
5
109
100
AcDbEntity
8
CUTOUTS
100
AcDbCircle
10
-330.50000000000063
20
-297.62500000000108
30
0
40
3.2999999999999829
210
0
220
0
230
1
0
CIRCLE
5
10A
100
AcDbEntity
8
CUTOUTS
100
AcDbCircle
10
-330.5
20
307.37499999999972
30
0
40
3.2999999999999829
210
0
220
0
230
1
0
CIRCLE
5
10B
100
AcDbEntity
8
CUTOUTS
100
AcDbCircle
10
-39.999999999999929
20
342.37500000000006
30
0
40
3.3000000000000007
210
0
220
0
230
1
0
LINE
5
10C
100
AcDbEntity
8
PERIMETER
100
AcDbLine
10
-342.49999999999989
20
319.4618810393751
30
0
11
-342.49999999999989
21
298.20342712474508
31
0
0
ARC
5
10D
100
AcDbEntity
8
PERIMETER
100
AcDbCircle
10
-340.50000000000006
20
298.20342712474508
30
0
40
1.9999999999998153
210
0
220
0
230
1
100
AcDbArc
50
180
51
225
0
LINE
5
10E
100
AcDbEntity
8
PERIMETER
100
AcDbLine
10
-341.91421356237305
20
296.78921356237208
30
0
11
-320.08578643750286
21
274.96078643750036
31
0
0
ARC
5
10F
100
AcDbEntity
8
PERIMETER
100
AcDbCircle
10
-321.49999999987591
20
273.54657287512737
30
0
40
1.9999999999999929
210
0
220
-0
230
1
100
AcDbArc
50
0
51
45
0
LINE
5
110
100
AcDbEntity
8
PERIMETER
100
AcDbLine
10
-319.49999999987591
20
273.54657287512737
30
0
11
-319.49999999987602
21
36.203427124866892
31
0
0
ARC
5
111
100
AcDbEntity
8
PERIMETER
100
AcDbCircle
10
-321.49999999987597
20
36.203427124866892
30
0
40
2.0000000000000466
210
-0
220
0
230
1
100
AcDbArc
50
-44.999999999999694
51
0
0
LINE
5
112
100
AcDbEntity
8
PERIMETER
100
AcDbLine
10
-320.08578643750286
20
34.789213562493799
30
0
11
-341.91421356237277
21
12.960786437623781
31
0
0
ARC
5
113
100
AcDbEntity
8
PERIMETER
100
AcDbCircle
10
-340.49999999999983
20
11.54657287525076
30
0
40
1.9999999999998455
210
0
220
0
230
1
100
AcDbArc
50
134.99999999999827
51
180
0
LINE
5
114
100
AcDbEntity
8
PERIMETER
100
AcDbLine
10
-342.49999999999972
20
11.546572875250689
30
0
11
-342.49999999999972
21
-6.7965728752567856
31
0
0
ARC
5
115
100
AcDbEntity
8
PERIMETER
100
AcDbCircle
10
-340.49999999999943
20
-6.7965728752566434
30
0
40
2.0000000000003126
210
0
220
0
230
1
100
AcDbArc
50
180
51
224.99999999999804
0
LINE
5
116
100
AcDbEntity
8
PERIMETER
100
AcDbLine
10
-341.91421356237271
20
-8.2107864376298778
30
0
11
-320.08578643750292
21
-30.039213562499967
31
0
0
ARC
5
117
100
AcDbEntity
8
PERIMETER
100
AcDbCircle
10
-321.49999999987597
20
-31.453427124873059
30
0
40
1.9999999999999929
210
0
220
-0
230
1
100
AcDbArc
50
0
51
45.000000000001151
0
LINE
5
118
100
AcDbEntity
8
PERIMETER
100
AcDbLine
10
-319.49999999987602
20
-31.453427124873059
30
0
11
-319.49999999987602
21
-263.79657287513157
31
0
0
ARC
5
119
100
AcDbEntity
8
PERIMETER
100
AcDbCircle
10
-321.49999999987597
20
-263.79657287513157
30
0
40
2.0000000000000466
210
-0
220
0
230
1
100
AcDbArc
50
-44.999999999998835
51
0
0
LINE
5
11A
100
AcDbEntity
8
PERIMETER
100
AcDbLine
10
-320.08578643750292
20
-265.21078643750462
30
0
11
-341.91421356237248
21
-287.03921356237407
31
0
0
ARC
5
11B
100
AcDbEntity
8
PERIMETER
100
AcDbCircle
10
-340.49999999999955
20
-288.45342712474712
30
0
40
1.9999999999998455
210
0
220
0
230
1
100
AcDbArc
50
134.99999999999773
51
180
0
LINE
5
11C
100
AcDbEntity
8
PERIMETER
100
AcDbLine
10
-342.49999999999943
20
-288.45342712474718
30
0
11
-342.49999999999943
21
-309.67525253169521
31
0
0
ARC
5
11D
100
AcDbEntity
8
PERIMETER
100
AcDbCircle
10
-340.49999999999932
20
-309.67525253169521
30
0
40
2.0000000000000995
210
0
220
0
230
1
100
AcDbArc
50
180
51
225
0
LINE
5
11E
100
AcDbEntity
8
PERIMETER
100
AcDbLine
10
-341.91421356237248
20
-311.08946609406837
30
0
11
-331.58578643762752
21
-321.41789321881339
31
0
0
ARC
5
11F
100
AcDbEntity
8
PERIMETER
100
AcDbCircle
10
-333.00000000000057
20
-322.83210678118655
30
0
40
2.0000000000000284
210
0
220
-0
230
1
100
AcDbArc
50
0
51
45.000000000001151
0
LINE
5
120
100
AcDbEntity
8
PERIMETER
100
AcDbLine
10
-331.00000000000057
20
-322.83210678118655
30
0
11
-331.00000000000051
21
-350.62500000000006
31
0
0
ARC
5
121
100
AcDbEntity
8
PERIMETER
100
AcDbCircle
10
-329.00000000000034
20
-350.62499999999977
30
0
40
2.0000000000001705
210
0
220
0
230
1
100
AcDbArc
50
180
51
269.99999999999346
0
LINE
5
122
100
AcDbEntity
8
PERIMETER
100
AcDbLine
10
-329.00000000000057
20
-352.62499999999994
30
0
11
248.99999999999949
21
-352.62499999999994
31
0
0
ARC
5
123
100
AcDbEntity
8
PERIMETER
100
AcDbCircle
10
248.99999999999935
20
-350.62499999999994
30
0
40
2.0000000000000284
210
-0
220
0
230
1
100
AcDbArc
50
-89.999999999995936
51
0
0
LINE
5
124
100
AcDbEntity
8
PERIMETER
100
AcDbLine
10
250.99999999999937
20
-350.62499999999994
30
0
11
250.99999999999952
21
-322.83210678118655
31
0
0
ARC
5
125
100
AcDbEntity
8
PERIMETER
100
AcDbCircle
10
252.99999999999949
20
-322.83210678118655
30
0
40
2.0000000000000213
210
0
220
0
230
1
100
AcDbArc
50
134.99999999999827
51
180
0
LINE
5
126
100
AcDbEntity
8
PERIMETER
100
AcDbLine
10
251.58578643762641
20
-321.41789321881339
30
0
11
311.29289321881311
21
-261.71078643762735
31
0
0
ARC
5
127
100
AcDbEntity
8
PERIMETER
100
AcDbCircle
10
312.70710678118621
20
-263.12500000000045
30
0
40
2.0000000000000284
210
0
220
-0
230
1
100
AcDbArc
50
90
51
135
0
LINE
5
128
100
AcDbEntity
8
PERIMETER
100
AcDbLine
10
312.70710678118621
20
-261.1250000000004
30
0
11
340.49999999999955
21
-261.12500000000023
31
0
0
ARC
5
129
100
AcDbEntity
8
PERIMETER
100
AcDbCircle
10
340.49999999999943
20
-259.12500000000011
30
0
40
2.0000000000001705
210
-0
220
0
230
1
100
AcDbArc
50
270.00000000000324
51
360
0
LINE
5
12A
100
AcDbEntity
8
PERIMETER
100
AcDbLine
10
342.49999999999955
20
-259.12500000000023
30
0
11
342.49999999999994
21
293.87499999999937
31
0
0
ARC
5
12B
100
AcDbEntity
8
PERIMETER
100
AcDbCircle
10
340.49999999999989
20
293.87499999999937
30
0
40
2.0000000000000284
210
0
220
0
230
1
100
AcDbArc
50
0
51
90
0
LINE
5
12C
100
AcDbEntity
8
PERIMETER
100
AcDbLine
10
340.49999999999989
20
295.87499999999943
30
0
11
312.61803398874986
21
295.87499999999943
31
0
0
ARC
5
12D
100
AcDbEntity
8
PERIMETER
100
AcDbCircle
10
312.61803398874986
20
297.87499999999943
30
0
40
2.0000000000000098
210
0
220
0
230
1
100
AcDbArc
50
243.4349488229235
51
270
0
LINE
5
12E
100
AcDbEntity
8
PERIMETER
100
AcDbLine
10
311.72360679774999
20
296.08614561799959
30
0
11
252.10557280900005
21
325.89516261237475
31
0
0
ARC
5
12F
100
AcDbEntity
8
PERIMETER
100
AcDbCircle
10
252.99999999999997
20
327.68401699437453
30
0
40
1.9999999999999929
210
0
220
0
230
1
100
AcDbArc
50
180
51
243.43494882292202
0
LINE
5
130
100
AcDbEntity
8
PERIMETER
100
AcDbLine
10
250.99999999999997
20
327.68401699437453
30
0
11
250.99999999999997
21
350.62499999999966
31
0
0
ARC
5
131
100
AcDbEntity
8
PERIMETER
100
AcDbCircle
10
249
20
350.62499999999972
30
0
40
1.9999999999999929
210
-0
220
0
230
1
100
AcDbArc
50
0
51
90
0
LINE
5
132
100
AcDbEntity
8
PERIMETER
100
AcDbLine
10
249
20
352.62499999999966
30
0
11
228.63908729652616
21
352.62499999999966
31
0
0
ARC
5
133
100
AcDbEntity
8
PERIMETER
100
AcDbCircle
10
228.6390872965261
20
350.62499999999972
30
0
40
1.9999999999999574
210
0
220
-0
230
1
100
AcDbArc
50
89.99999999999838
51
135
0
LINE
5
134
100
AcDbEntity
8
PERIMETER
100
AcDbLine
10
227.22487373415305
20
352.03921356237282
30
0
11
206.39644660940667
21
331.21078643762655
31
0
0
ARC
5
135
100
AcDbEntity
8
PERIMETER
100
AcDbCircle
10
204.98223304703359
20
332.6249999999996
30
0
40
2.0000000000000284
210
-0
220
0
230
1
100
AcDbArc
50
270
51
314.99999999999943
0
LINE
5
136
100
AcDbEntity
8
PERIMETER
100
AcDbLine
10
204.98223304703359
20
330.62499999999966
30
0
11
186.01776695296627
21
330.62499999999966
31
0
0
ARC
5
137
100
AcDbEntity
8
PERIMETER
100
AcDbCircle
10
186.01776695296627
20
332.6249999999996
30
0
40
1.999999999999996
210
0
220
0
230
1
100
AcDbArc
50
225.00000000000057
51
270
0
LINE
5
138
100
AcDbEntity
8
PERIMETER
100
AcDbLine
10
184.60355339059319
20
331.2107864376265
30
0
11
163.77512626584723
21
352.03921356237254
31
0
0
ARC
5
139
100
AcDbEntity
8
PERIMETER
100
AcDbCircle
10
162.36091270347418
20
350.62499999999955
30
0
40
1.9999999999999207
210
0
220
-0
230
1
100
AcDbArc
50
45
51
90.00000000000081
0
LINE
5
13A
100
AcDbEntity
8
PERIMETER
100
AcDbLine
10
162.36091270347416
20
352.62499999999943
30
0
11
35.139087296526199
21
352.62500000000011
31
0
0
ARC
5
13B
100
AcDbEntity
8
PERIMETER
100
AcDbCircle
10
35.139087296526185
20
350.62500000000011
30
0
40
2.0000000000000284
210
0
220
-0
230
1
100
AcDbArc
50
89.999999999999588
51
134.99999999999972
0
LINE
5
13C
100
AcDbEntity
8
PERIMETER
100
AcDbLine
10
33.724873734153093
20
352.03921356237322
30
0
11
12.896446609406897
21
331.21078643762701
31
0
0
ARC
5
13D
100
AcDbEntity
8
PERIMETER
100
AcDbCircle
10
11.482233047033787
20
332.62500000000011
30
0
40
2.0000000000000284
210
-0
220
0
230
1
100
AcDbArc
50
270
51
314.99999999999977
0
LINE
5
13E
100
AcDbEntity
8
PERIMETER
100
AcDbLine
10
11.482233047033787
20
330.62500000000011
30
0
11
-7.4822330470334819
21
330.62500000000011
31
0
0
ARC
5
13F
100
AcDbEntity
8
PERIMETER
100
AcDbCircle
10
-7.4822330470334819
20
332.62500000000011
30
0
40
1.999999999999996
210
0
220
0
230
1
100
AcDbArc
50
225.00000000000028
51
270
0
LINE
5
140
100
AcDbEntity
8
PERIMETER
100
AcDbLine
10
-8.8964466094065742
20
331.21078643762701
30
0
11
-29.724873734152784
21
352.03921356237316
31
0
0
ARC
5
141
100
AcDbEntity
8
PERIMETER
100
AcDbCircle
10
-31.139087296525876
20
350.62500000000011
30
0
40
1.999999999999996
210
0
220
-0
230
1
100
AcDbArc
50
45.000000000000291
51
89.999999999999901
0
LINE
5
142
100
AcDbEntity
8
PERIMETER
100
AcDbLine
10
-31.139087296525872
20
352.62500000000011
30
0
11
-48.860912703473851
21
352.62500000000011
31
0
0
ARC
5
143
100
AcDbEntity
8
PERIMETER
100
AcDbCircle
10
-48.860912703473851
20
350.62500000000011
30
0
40
2.0000000000000284
210
0
220
-0
230
1
100
AcDbArc
50
90
51
135
0
LINE
5
144
100
AcDbEntity
8
PERIMETER
100
AcDbLine
10
-50.275126265846957
20
352.03921356237322
30
0
11
-71.10355339059312
21
331.21078643762706
31
0
0
ARC
5
145
100
AcDbEntity
8
PERIMETER
100
AcDbCircle
10
-72.517766952966213
20
332.62500000000011
30
0
40
2.0000000000000284
210
-0
220
0
230
1
100
AcDbArc
50
270
51
314.99999999999972
0
LINE
5
146
100
AcDbEntity
8
PERIMETER
100
AcDbLine
10
-72.517766952966213
20
330.62500000000011
30
0
11
-91.482233047033475
21
330.62500000000011
31
0
0
ARC
5
147
100
AcDbEntity
8
PERIMETER
100
AcDbCircle
10
-91.482233047033475
20
332.62500000000017
30
0
40
2.0000000000000084
210
0
220
0
230
1
100
AcDbArc
50
225
51
270
0
LINE
5
148
100
AcDbEntity
8
PERIMETER
100
AcDbLine
10
-92.896446609406595
20
331.21078643762706
30
0
11
-113.72487373415275
21
352.03921356237322
31
0
0
ARC
5
149
100
AcDbEntity
8
PERIMETER
100
AcDbCircle
10
-115.13908729652584
20
350.62500000000011
30
0
40
2.0000000000000591
210
0
220
-0
230
1
100
AcDbArc
50
45.000000000002302
51
90
0
LINE
5
14A
100
AcDbEntity
8
PERIMETER
100
AcDbLine
10
-115.13908729652584
20
352.62500000000017
30
0
11
-242.3609127034743
21
352.62499999999955
31
0
0
ARC
5
14B
100
AcDbEntity
8
PERIMETER
100
AcDbCircle
10
-242.3609127034743
20
350.62499999999949
30
0
40
1.9999999999999574
210
0
220
-0
230
1
100
AcDbArc
50
90
51
135
0
LINE
5
14C
100
AcDbEntity
8
PERIMETER
100
AcDbLine
10
-243.7751262658474
20
352.03921356237259
30
0
11
-264.60355339059328
21
331.21078643762667
31
0
0
ARC
5
14D
100
AcDbEntity
8
PERIMETER
100
AcDbCircle
10
-266.01776695296633
20
332.62499999999977
30
0
40
2.0000000000000284
210
-0
220
0
230
1
100
AcDbArc
50
270
51
314.99999999999881
0
LINE
5
14E
100
AcDbEntity
8
PERIMETER
100
AcDbLine
10
-266.01776695296633
20
330.62499999999972
30
0
11
-284.98223304703356
21
330.62499999999972
31
0
0
ARC
5
14F
100
AcDbEntity
8
PERIMETER
100
AcDbCircle
10
-284.98223304703356
20
332.62499999999977
30
0
40
1.999999999999996
210
0
220
0
230
1
100
AcDbArc
50
225
51
270
0
LINE
5
150
100
AcDbEntity
8
PERIMETER
100
AcDbLine
10
-286.39644660940667
20
331.21078643762667
30
0
11
-307.22487373415282
21
352.03921356237282
31
0
0
ARC
5
151
100
AcDbEntity
8
PERIMETER
100
AcDbCircle
10
-308.63908729652593
20
350.62499999999972
30
0
40
1.999999999999996
210
0
220
-0
230
1
100
AcDbArc
50
45
51
90
0
LINE
5
152
100
AcDbEntity
8
PERIMETER
100
AcDbLine
10
-308.63908729652593
20
352.62499999999977
30
0
11
-328.99999999999989
21
352.62499999999977
31
0
0
ARC
5
153
100
AcDbEntity
8
PERIMETER
100
AcDbCircle
10
-328.99999999999989
20
350.62499999999972
30
0
40
2.0000000000000284
210
0
220
-0
230
1
100
AcDbArc
50
90
51
180
0
LINE
5
154
100
AcDbEntity
8
PERIMETER
100
AcDbLine
10
-330.99999999999994
20
350.62499999999972
30
0
11
-330.99999999999994
21
327.6840169943747
31
0
0
ARC
5
155
100
AcDbEntity
8
PERIMETER
100
AcDbCircle
10
-333
20
327.6840169943747
30
0
40
2.0000000000000098
210
-0
220
0
230
1
100
AcDbArc
50
-63.434948822920525
51
0
0
LINE
5
156
100
AcDbEntity
8
PERIMETER
100
AcDbLine
10
-332.10557280900002
20
325.89516261237486
30
0
11
-341.39442719099981
21
321.250735421375
31
0
0
ARC
5
157
100
AcDbEntity
8
PERIMETER
100
AcDbCircle
10
-340.49999999999983
20
319.4618810393751
30
0
40
2.0000000000001048
210
0
220
0
230
1
100
AcDbArc
50
116.56505117707873
51
180
0
ENDSEC
0
SECTION
2
OBJECTS
0
DICTIONARY
5
C
100
AcDbDictionary
3
ACAD_GROUP
350
D
3
ACAD_MLINESTYLE
350
17
0
DICTIONARY
5
D
100
AcDbDictionary
0
DICTIONARY
5
1A
330
C
100
AcDbDictionary
0
DICTIONARY
5
17
100
AcDbDictionary
0
ENDSEC
0
EOF
