0
SECTION
2
HEADER
9
$INSUNITS
70
4
9
$ACADVER
1
AC1014
9
$HANDSEED
5
FFFF
0
ENDSEC
0
SECTION
2
TABLES
0
TABLE
2
VPORT
5
8
100
AcDbSymbolTable
0
ENDTAB
0
TABLE
2
LTYPE
5
5
100
AcDbSymbolTable
70
2
0
LTYPE
5
14
100
AcDbSymbolTableRecord
100
AcDbLinetypeTableRecord
2
BYBLOCK
70
0
0
LTYPE
5
15
100
AcDbSymbolTableRecord
100
AcDbLinetypeTableRecord
2
BYLAYER
70
0
0
ENDTAB
0
TABLE
2
LAYER
5
2
100
AcDbSymbolTable
70
3
0
LAYER
5
50
100
AcDbSymbolTableRecord
100
AcDbLayerTableRecord
2
0
70
0
6
CONTINUOUS
0
LAYER
5
51
100
AcDbSymbolTableRecord
100
AcDbLayerTableRecord
2
CUTOUTS
70
0
62
1
6
CONTINUOUS
0
LAYER
5
52
100
AcDbSymbolTableRecord
100
AcDbLayerTableRecord
2
PERIMETER
70
0
62
5
6
CONTINUOUS
0
ENDTAB
0
TABLE
2
STYLE
5
3
100
AcDbSymbolTable
70
1
0
STYLE
5
11
100
AcDbSymbolTableRecord
100
AcDbTextStyleTableRecord
2
STANDARD
70
0
0
ENDTAB
0
TABLE
2
VIEW
5
6
100
AcDbSymbolTable
0
ENDTAB
0
TABLE
2
UCS
5
7
100
AcDbSymbolTable
0
ENDTAB
0
TABLE
2
APPID
5
9
100
AcDbSymbolTable
70
1
0
APPID
5
12
100
AcDbSymbolTableRecord
100
AcDbRegAppTableRecord
2
ACAD
70
0
0
ENDTAB
0
TABLE
2
DIMSTYLE
5
A
100
AcDbSymbolTable
0
ENDTAB
0
TABLE
2
BLOCK_RECORD
5
1
100
AcDbSymbolTable
70
2
0
BLOCK_RECORD
5
1F
100
AcDbSymbolTableRecord
100
AcDbBlockTableRecord
2
*MODEL_SPACE
0
BLOCK_RECORD
5
1B
100
AcDbSymbolTableRecord
100
AcDbBlockTableRecord
2
*PAPER_SPACE
0
ENDTAB
0
ENDSEC
0
SECTION
2
BLOCKS
0
BLOCK
5
20
100
AcDbEntity
100
AcDbBlockBegin
2
*MODEL_SPACE
0
ENDBLK
5
21
100
AcDbEntity
100
AcDbBlockEnd
0
BLOCK
5
1C
100
AcDbEntity
100
AcDbBlockBegin
2
*PAPER_SPACE
0
ENDBLK
5
1D
100
AcDbEntity
100
AcDbBlockEnd
0
ENDSEC
0
SECTION
2
ENTITIES
0
CIRCLE
5
100
100
AcDbEntity
8
CUTOUTS
100
AcDbCircle
10
335
20
7.9999999999997122
30
0
40
3.2999999999999829
210
0
220
0
230
1
0
CIRCLE
5
101
100
AcDbEntity
8
CUTOUTS
100
AcDbCircle
10
252.99999999999989
20
-329.00000000000011
30
0
40
3.2999999999999829
210
0
220
0
230
1
0
CIRCLE
5
102
100
AcDbEntity
8
CUTOUTS
100
AcDbCircle
10
-32.500000000000043
20
-329
30
0
40
3.3000000000000007
210
0
220
0
230
1
0
CIRCLE
5
103
100
AcDbEntity
8
CUTOUTS
100
AcDbCircle
10
-334.99999999999989
20
-247.00000000000003
30
0
40
3.2999999999999829
210
0
220
0
230
1
0
CIRCLE
5
104
100
AcDbEntity
8
CUTOUTS
100
AcDbCircle
10
-334.99999999999989
20
262.99999999999989
30
0
40
3.2999999999999829
210
0
220
0
230
1
0
CIRCLE
5
105
100
AcDbEntity
8
CUTOUTS
100
AcDbCircle
10
66.000000000000142
20
328.99999999999977
30
0
40
3.3000000000000007
210
0
220
0
230
1
0
CIRCLE
5
106
100
AcDbEntity
8
CUTOUTS
100
AcDbCircle
10
-268.99999999999983
20
329.00000000000006
30
0
40
3.2999999999999829
210
0
220
0
230
1
0
CIRCLE
5
107
100
AcDbEntity
8
CUTOUTS
100
AcDbCircle
10
-52.999999999999858
20
329
30
0
40
3.3000000000000007
210
0
220
0
230
1
0
CIRCLE
5
108
100
AcDbEntity
8
CUTOUTS
100
AcDbCircle
10
269.00000000000023
20
328.99999999999977
30
0
40
3.2999999999999829
210
0
220
0
230
1
0
CIRCLE
5
109
100
AcDbEntity
8
CUTOUTS
100
AcDbCircle
10
-334.99999999999989
20
7.9999999999999005
30
0
40
3.2999999999999829
210
0
220
0
230
1
0
CIRCLE
5
10A
100
AcDbEntity
8
CUTOUTS
100
AcDbCircle
10
-252.99999999999997
20
-329
30
0
40
3.2999999999999829
210
0
220
0
230
1
0
CIRCLE
5
10B
100
AcDbEntity
8
CUTOUTS
100
AcDbCircle
10
32.499999999999979
20
-329
30
0
40
3.3000000000000007
210
0
220
0
230
1
0
CIRCLE
5
10C
100
AcDbEntity
8
CUTOUTS
100
AcDbCircle
10
334.99999999999989
20
-247.00000000000023
30
0
40
3.2999999999999829
210
0
220
0
230
1
0
CIRCLE
5
10D
100
AcDbEntity
8
CUTOUTS
100
AcDbCircle
10
335.00000000000011
20
262.99999999999966
30
0
40
3.2999999999999829
210
0
220
0
230
1
0
LINE
5
10E
100
AcDbEntity
8
PERIMETER
100
AcDbLine
10
319.99999998509901
20
278.99999998509844
30
0
11
319.99999998509901
21
311.9999999850985
31
0
0
ARC
5
10F
100
AcDbEntity
8
PERIMETER
100
AcDbCircle
10
317.99999998509901
20
311.9999999850985
30
0
40
1.9999999999999929
210
0
220
-0
230
1
100
AcDbArc
50
0
51
90
0
LINE
5
110
100
AcDbEntity
8
PERIMETER
100
AcDbLine
10
317.99999998509901
20
313.9999999850985
30
0
11
284.99999998509907
21
313.9999999850985
31
0
0
ARC
5
111
100
AcDbEntity
8
PERIMETER
100
AcDbCircle
10
284.99999998509907
20
315.9999999850985
30
0
40
1.9999999999999929
210
0
220
0
230
1
100
AcDbArc
50
180
51
270
0
LINE
5
112
100
AcDbEntity
8
PERIMETER
100
AcDbLine
10
282.99999998509907
20
315.9999999850985
30
0
11
282.99999998509907
21
340.99999998509861
31
0
0
ARC
5
113
100
AcDbEntity
8
PERIMETER
100
AcDbCircle
10
280.99999998509901
20
340.9999999850985
30
0
40
2.0000000000000639
210
0
220
-0
230
1
100
AcDbArc
50
0
51
89.99999999999838
0
LINE
5
114
100
AcDbEntity
8
PERIMETER
100
AcDbLine
10
280.99999998509907
20
342.99999998509855
30
0
11
54.000000014901381
21
342.99999998509873
31
0
0
ARC
5
115
100
AcDbEntity
8
PERIMETER
100
AcDbCircle
10
54.00000001490146
20
340.99999998509867
30
0
40
2.0000000000000995
210
0
220
0
230
1
100
AcDbArc
50
90.000000000002245
51
180
0
LINE
5
116
100
AcDbEntity
8
PERIMETER
100
AcDbLine
10
52.00000001490136
20
340.99999998509873
30
0
11
52.000000014901374
21
315.99999998509873
31
0
0
ARC
5
117
100
AcDbEntity
8
PERIMETER
100
AcDbCircle
10
50.000000014901367
20
315.99999998509873
30
0
40
1.9999999999999929
210
-0
220
0
230
1
100
AcDbArc
50
-90
51
0
0
LINE
5
118
100
AcDbEntity
8
PERIMETER
100
AcDbLine
10
50.000000014901367
20
313.99999998509873
30
0
11
41.000000014901381
21
313.99999998509873
31
0
0
ARC
5
119
100
AcDbEntity
8
PERIMETER
100
AcDbCircle
10
41.000000014901374
20
311.99999998509873
30
0
40
1.9999999999999929
210
0
220
-0
230
1
100
AcDbArc
50
89.999999999999801
51
180
0
LINE
5
11A
100
AcDbEntity
8
PERIMETER
100
AcDbLine
10
39.000000014901381
20
311.99999998509873
30
0
11
39.000000014901367
21
257.82842710984488
31
0
0
ARC
5
11B
100
AcDbEntity
8
PERIMETER
100
AcDbCircle
10
37.00000001490136
20
257.82842710984488
30
0
40
1.999999999999996
210
-0
220
0
230
1
100
AcDbArc
50
-45.000000000000306
51
0
0
LINE
5
11C
100
AcDbEntity
8
PERIMETER
100
AcDbLine
10
38.414213577274452
20
256.41421354747177
30
0
11
32.585786452528261
21
250.58578642272565
31
0
0
ARC
5
11D
100
AcDbEntity
8
PERIMETER
100
AcDbCircle
10
31.171572890155154
20
251.99999998509873
30
0
40
1.9999999999999929
210
-0
220
0
230
1
100
AcDbArc
50
270
51
315.00000000000028
0
LINE
5
11E
100
AcDbEntity
8
PERIMETER
100
AcDbLine
10
31.171572890155154
20
249.99999998509875
30
0
11
-31.171572890154728
21
249.99999998509873
31
0
0
ARC
5
11F
100
AcDbEntity
8
PERIMETER
100
AcDbCircle
10
-31.171572890154732
20
251.9999999850987
30
0
40
1.9999999999999993
210
0
220
0
230
1
100
AcDbArc
50
224.99999999999963
51
270.00000000000011
0
LINE
5
120
100
AcDbEntity
8
PERIMETER
100
AcDbLine
10
-32.585786452527827
20
250.58578642272562
30
0
11
-38.41421357727404
21
256.41421354747183
31
0
0
ARC
5
121
100
AcDbEntity
8
PERIMETER
100
AcDbCircle
10
-37.000000014900948
20
257.82842710984488
30
0
40
2.0000000000000018
210
0
220
0
230
1
100
AcDbArc
50
180
51
224.99999999999912
0
LINE
5
122
100
AcDbEntity
8
PERIMETER
100
AcDbLine
10
-39.000000014900948
20
257.82842710984488
30
0
11
-39.000000014900955
21
340.99999998509873
31
0
0
ARC
5
123
100
AcDbEntity
8
PERIMETER
100
AcDbCircle
10
-41.000000014901019
20
340.99999998509867
30
0
40
2.0000000000000639
210
0
220
-0
230
1
100
AcDbArc
50
0
51
89.999999999997954
0
LINE
5
124
100
AcDbEntity
8
PERIMETER
100
AcDbLine
10
-41.000000014900948
20
342.99999998509867
30
0
11
-280.99999998509861
21
342.99999998509873
31
0
0
ARC
5
125
100
AcDbEntity
8
PERIMETER
100
AcDbCircle
10
-280.9999999850985
20
340.99999998509867
30
0
40
2.0000000000000995
210
0
220
0
230
1
100
AcDbArc
50
90.000000000003254
51
180
0
LINE
5
126
100
AcDbEntity
8
PERIMETER
100
AcDbLine
10
-282.99999998509861
20
340.99999998509873
30
0
11
-282.99999998509861
21
315.99999998509873
31
0
0
ARC
5
127
100
AcDbEntity
8
PERIMETER
100
AcDbCircle
10
-284.99999998509861
20
315.99999998509873
30
0
40
1.9999999999999929
210
-0
220
0
230
1
100
AcDbArc
50
-90
51
0
0
LINE
5
128
100
AcDbEntity
8
PERIMETER
100
AcDbLine
10
-284.99999998509861
20
313.99999998509873
30
0
11
-317.99999998509861
21
313.99999998509873
31
0
0
ARC
5
129
100
AcDbEntity
8
PERIMETER
100
AcDbCircle
10
-317.99999998509867
20
311.99999998509878
30
0
40
1.9999999999999574
210
0
220
-0
230
1
100
AcDbArc
50
89.99999999999838
51
180
0
LINE
5
12A
100
AcDbEntity
8
PERIMETER
100
AcDbLine
10
-319.99999998509861
20
311.99999998509873
30
0
11
-319.99999998509861
21
278.99999998509861
31
0
0
ARC
5
12B
100
AcDbEntity
8
PERIMETER
100
AcDbCircle
10
-321.99999998509867
20
278.99999998509861
30
0
40
1.9999999999999929
210
-0
220
0
230
1
100
AcDbArc
50
-90
51
0
0
LINE
5
12C
100
AcDbEntity
8
PERIMETER
100
AcDbLine
10
-321.99999998509867
20
276.99999998509861
30
0
11
-346.99999998509861
21
276.99999998509861
31
0
0
ARC
5
12D
100
AcDbEntity
8
PERIMETER
100
AcDbCircle
10
-346.99999998509867
20
274.99999998509861
30
0
40
1.9999999999999929
210
0
220
-0
230
1
100
AcDbArc
50
89.99999999999838
51
180
0
LINE
5
12E
100
AcDbEntity
8
PERIMETER
100
AcDbLine
10
-348.99999998509861
20
274.99999998509861
30
0
11
-348.99999998509878
21
-258.99999998509895
31
0
0
ARC
5
12F
100
AcDbEntity
8
PERIMETER
100
AcDbCircle
10
-346.99999998509873
20
-258.9999999850989
30
0
40
2.0000000000000284
210
0
220
0
230
1
100
AcDbArc
50
180
51
270
0
LINE
5
130
100
AcDbEntity
8
PERIMETER
100
AcDbLine
10
-346.99999998509873
20
-260.99999998509895
30
0
11
-275.82842710984488
21
-260.99999998509901
31
0
0
ARC
5
131
100
AcDbEntity
8
PERIMETER
100
AcDbCircle
10
-275.82842710984488
20
-262.99999998509901
30
0
40
1.999999999999996
210
0
220
-0
230
1
100
AcDbArc
50
45.000000000001151
51
90
0
LINE
5
132
100
AcDbEntity
8
PERIMETER
100
AcDbLine
10
-274.41421354747183
20
-261.5857864227259
30
0
11
-267.58578642272568
21
-268.41421354747217
31
0
0
ARC
5
133
100
AcDbEntity
8
PERIMETER
100
AcDbCircle
10
-268.99999998509873
20
-269.82842710984522
30
0
40
1.9999999999999929
210
0
220
-0
230
1
100
AcDbArc
50
0
51
45
0
LINE
5
134
100
AcDbEntity
8
PERIMETER
100
AcDbLine
10
-266.99999998509873
20
-269.82842710984522
30
0
11
-266.99999998509873
21
-340.99999998509884
31
0
0
ARC
5
135
100
AcDbEntity
8
PERIMETER
100
AcDbCircle
10
-264.99999998509861
20
-340.99999998509878
30
0
40
2.0000000000000995
210
0
220
0
230
1
100
AcDbArc
50
180
51
269.99999999999676
0
LINE
5
136
100
AcDbEntity
8
PERIMETER
100
AcDbLine
10
-264.99999998509873
20
-342.9999999850989
30
0
11
-20.500000014901119
21
-342.9999999850989
31
0
0
ARC
5
137
100
AcDbEntity
8
PERIMETER
100
AcDbCircle
10
-20.500000014901193
20
-340.99999998509878
30
0
40
2.0000000000000995
210
-0
220
0
230
1
100
AcDbArc
50
270.0000000000021
51
360
0
LINE
5
138
100
AcDbEntity
8
PERIMETER
100
AcDbLine
10
-18.500000014901094
20
-340.99999998509884
30
0
11
-18.500000014901129
21
-317.49999998509884
31
0
0
ARC
5
139
100
AcDbEntity
8
PERIMETER
100
AcDbCircle
10
-16.500000014901129
20
-317.49999998509884
30
0
40
1.9999999999999929
210
0
220
-0
230
1
100
AcDbArc
50
90
51
180
0
LINE
5
13A
100
AcDbEntity
8
PERIMETER
100
AcDbLine
10
-16.500000014901129
20
-315.49999998509884
30
0
11
16.500000014901197
21
-315.49999998509884
31
0
0
ARC
5
13B
100
AcDbEntity
8
PERIMETER
100
AcDbCircle
10
16.500000014901197
20
-317.49999998509884
30
0
40
1.9999999999999996
210
0
220
-0
230
1
100
AcDbArc
50
0
51
90
0
LINE
5
13C
100
AcDbEntity
8
PERIMETER
100
AcDbLine
10
18.500000014901193
20
-317.49999998509884
30
0
11
18.500000014901197
21
-340.99999998509884
31
0
0
ARC
5
13D
100
AcDbEntity
8
PERIMETER
100
AcDbCircle
10
20.500000014901261
20
-340.99999998509878
30
0
40
2.0000000000000639
210
0
220
0
230
1
100
AcDbArc
50
180
51
269.99999999999795
0
LINE
5
13E
100
AcDbEntity
8
PERIMETER
100
AcDbLine
10
20.50000001490119
20
-342.99999998509884
30
0
11
264.99999998509861
21
-342.9999999850989
31
0
0
ARC
5
13F
100
AcDbEntity
8
PERIMETER
100
AcDbCircle
10
264.99999998509855
20
-340.99999998509878
30
0
40
2.0000000000000995
210
-0
220
0
230
1
100
AcDbArc
50
270.00000000000159
51
360
0
LINE
5
140
100
AcDbEntity
8
PERIMETER
100
AcDbLine
10
266.99999998509867
20
-340.99999998509884
30
0
11
266.99999998509873
21
-269.82842710984522
31
0
0
ARC
5
141
100
AcDbEntity
8
PERIMETER
100
AcDbCircle
10
268.99999998509873
20
-269.82842710984522
30
0
40
1.999999999999996
210
0
220
0
230
1
100
AcDbArc
50
135
51
180
0
LINE
5
142
100
AcDbEntity
8
PERIMETER
100
AcDbLine
10
267.58578642272562
20
-268.41421354747212
30
0
11
274.41421354747183
21
-261.58578642272579
31
0
0
ARC
5
143
100
AcDbEntity
8
PERIMETER
100
AcDbCircle
10
275.82842710984494
20
-262.9999999850989
30
0
40
1.9999999999999929
210
0
220
-0
230
1
100
AcDbArc
50
90
51
135
0
LINE
5
144
100
AcDbEntity
8
PERIMETER
100
AcDbLine
10
275.82842710984494
20
-260.9999999850989
30
0
11
346.99999998509884
21
-260.99999998509895
31
0
0
ARC
5
145
100
AcDbEntity
8
PERIMETER
100
AcDbCircle
10
346.99999998509873
20
-258.99999998509884
30
0
40
2.0000000000000995
210
-0
220
0
230
1
100
AcDbArc
50
270.00000000000324
51
360
0
LINE
5
146
100
AcDbEntity
8
PERIMETER
100
AcDbLine
10
348.99999998509884
20
-258.9999999850989
30
0
11
348.99999998509895
21
274.99999998509844
31
0
0
ARC
5
147
100
AcDbEntity
8
PERIMETER
100
AcDbCircle
10
346.9999999850989
20
274.99999998509838
30
0
40
2.0000000000000995
210
0
220
-0
230
1
100
AcDbArc
50
0
51
89.99999999999838
0
LINE
5
148
100
AcDbEntity
8
PERIMETER
100
AcDbLine
10
346.99999998509895
20
276.99999998509844
30
0
11
321.99999998509901
21
276.99999998509844
31
0
0
ARC
5
149
100
AcDbEntity
8
PERIMETER
100
AcDbCircle
10
321.99999998509901
20
278.99999998509844
30
0
40
1.9999999999999929
210
0
220
0
230
1
100
AcDbArc
50
180
51
270
0
ENDSEC
0
SECTION
2
OBJECTS
0
DICTIONARY
5
C
100
AcDbDictionary
3
ACAD_GROUP
350
D
3
ACAD_MLINESTYLE
350
17
0
DICTIONARY
5
D
100
AcDbDictionary
0
DICTIONARY
5
1A
330
C
100
AcDbDictionary
0
DICTIONARY
5
17
100
AcDbDictionary
0
ENDSEC
0
EOF
