0
SECTION
2
HEADER
9
$INSUNITS
70
4
9
$ACADVER
1
AC1014
9
$HANDSEED
5
FFFF
0
ENDSEC
0
SECTION
2
TABLES
0
TABLE
2
VPORT
5
8
100
AcDbSymbolTable
0
ENDTAB
0
TABLE
2
LTYPE
5
5
100
AcDbSymbolTable
70
2
0
LTYPE
5
14
100
AcDbSymbolTableRecord
100
AcDbLinetypeTableRecord
2
BYBLOCK
70
0
0
LTYPE
5
15
100
AcDbSymbolTableRecord
100
AcDbLinetypeTableRecord
2
BYLAYER
70
0
0
ENDTAB
0
TABLE
2
LAYER
5
2
100
AcDbSymbolTable
70
3
0
LAYER
5
50
100
AcDbSymbolTableRecord
100
AcDbLayerTableRecord
2
0
70
0
6
CONTINUOUS
0
LAYER
5
51
100
AcDbSymbolTableRecord
100
AcDbLayerTableRecord
2
CUTOUTS
70
0
62
1
6
CONTINUOUS
0
LAYER
5
52
100
AcDbSymbolTableRecord
100
AcDbLayerTableRecord
2
PERIMETER
70
0
62
5
6
CONTINUOUS
0
ENDTAB
0
TABLE
2
STYLE
5
3
100
AcDbSymbolTable
70
1
0
STYLE
5
11
100
AcDbSymbolTableRecord
100
AcDbTextStyleTableRecord
2
STANDARD
70
0
0
ENDTAB
0
TABLE
2
VIEW
5
6
100
AcDbSymbolTable
0
ENDTAB
0
TABLE
2
UCS
5
7
100
AcDbSymbolTable
0
ENDTAB
0
TABLE
2
APPID
5
9
100
AcDbSymbolTable
70
1
0
APPID
5
12
100
AcDbSymbolTableRecord
100
AcDbRegAppTableRecord
2
ACAD
70
0
0
ENDTAB
0
TABLE
2
DIMSTYLE
5
A
100
AcDbSymbolTable
0
ENDTAB
0
TABLE
2
BLOCK_RECORD
5
1
100
AcDbSymbolTable
70
2
0
BLOCK_RECORD
5
1F
100
AcDbSymbolTableRecord
100
AcDbBlockTableRecord
2
*MODEL_SPACE
0
BLOCK_RECORD
5
1B
100
AcDbSymbolTableRecord
100
AcDbBlockTableRecord
2
*PAPER_SPACE
0
ENDTAB
0
ENDSEC
0
SECTION
2
BLOCKS
0
BLOCK
5
20
100
AcDbEntity
100
AcDbBlockBegin
2
*MODEL_SPACE
0
ENDBLK
5
21
100
AcDbEntity
100
AcDbBlockEnd
0
BLOCK
5
1C
100
AcDbEntity
100
AcDbBlockBegin
2
*PAPER_SPACE
0
ENDBLK
5
1D
100
AcDbEntity
100
AcDbBlockEnd
0
ENDSEC
0
SECTION
2
ENTITIES
0
CIRCLE
5
100
100
AcDbEntity
8
CUTOUTS
100
AcDbCircle
10
312.49991813498286
20
-122.99999999996906
30
0
40
3.2999999999999829
210
0
220
0
230
1
0
CIRCLE
5
101
100
AcDbEntity
8
CUTOUTS
100
AcDbCircle
10
312.49991813498531
20
189.00000000003092
30
0
40
3.2999999999999829
210
0
220
0
230
1
0
CIRCLE
5
102
100
AcDbEntity
8
CUTOUTS
100
AcDbCircle
10
312.49991813498525
20
152.00000000003092
30
0
40
3.2999999999999829
210
0
220
0
230
1
0
CIRCLE
5
103
100
AcDbEntity
8
CUTOUTS
100
AcDbCircle
10
312.49991813498525
20
137.00000000003092
30
0
40
3.2999999999999829
210
0
220
0
230
1
0
CIRCLE
5
104
100
AcDbEntity
8
CUTOUTS
100
AcDbCircle
10
312.49991813498531
20
100.00000000003091
30
0
40
3.2999999999999829
210
0
220
0
230
1
0
CIRCLE
5
105
100
AcDbEntity
8
CUTOUTS
100
AcDbCircle
10
312.49991813498286
20
-137.99999999996908
30
0
40
3.2999999999999829
210
0
220
0
230
1
0
CIRCLE
5
106
100
AcDbEntity
8
CUTOUTS
100
AcDbCircle
10
-312.49991813498355
20
-122.99999999996906
30
0
40
3.2999999999999829
210
0
220
0
230
1
0
CIRCLE
5
107
100
AcDbEntity
8
CUTOUTS
100
AcDbCircle
10
-312.49991813498599
20
189.00000000003092
30
0
40
3.2999999999999829
210
0
220
0
230
1
0
CIRCLE
5
108
100
AcDbEntity
8
CUTOUTS
100
AcDbCircle
10
-312.49991813498593
20
152.00000000003092
30
0
40
3.2999999999999829
210
0
220
0
230
1
0
CIRCLE
5
109
100
AcDbEntity
8
CUTOUTS
100
AcDbCircle
10
-312.49991813498593
20
137.00000000003092
30
0
40
3.2999999999999829
210
0
220
0
230
1
0
CIRCLE
5
10A
100
AcDbEntity
8
CUTOUTS
100
AcDbCircle
10
-312.49991813498599
20
100.00000000003091
30
0
40
3.2999999999999829
210
0
220
0
230
1
0
CIRCLE
5
10B
100
AcDbEntity
8
CUTOUTS
100
AcDbCircle
10
-312.49991813498355
20
-137.99999999996908
30
0
40
3.2999999999999829
210
0
220
0
230
1
0
LINE
5
10C
100
AcDbEntity
8
PERIMETER
100
AcDbLine
10
-349.99995728325501
20
211.49999979010985
30
0
11
-349.99991850232783
21
-158.00000020981741
31
0
0
ARC
5
10D
100
AcDbEntity
8
PERIMETER
100
AcDbCircle
10
-347.99991850232789
20
-157.99999999990732
30
0
40
1.9999999999999685
210
0
220
0
230
1
100
AcDbArc
50
180.00000603709134
51
270
0
LINE
5
10E
100
AcDbEntity
8
PERIMETER
100
AcDbLine
10
-347.99991850232789
20
-159.99999999990729
30
0
11
-320.20702491617129
21
-159.99999999990712
31
0
0
ARC
5
10F
100
AcDbEntity
8
PERIMETER
100
AcDbCircle
10
-320.20702491617129
20
-161.99999999990717
30
0
40
2.0000000000000213
210
0
220
-0
230
1
100
AcDbArc
50
45
51
90
0
LINE
5
110
100
AcDbEntity
8
PERIMETER
100
AcDbLine
10
-318.79281135379819
20
-160.58578643753407
30
0
11
-259.08570457249039
21
-220.29289321884448
31
0
0
ARC
5
111
100
AcDbEntity
8
PERIMETER
100
AcDbCircle
10
-260.49991813486344
20
-221.7071067812175
30
0
40
1.9999999999999929
210
0
220
-0
230
1
100
AcDbArc
50
0
51
44.999999999998849
0
LINE
5
112
100
AcDbEntity
8
PERIMETER
100
AcDbLine
10
-258.49991813486344
20
-221.7071067812175
30
0
11
-258.49991813486338
21
-226.00000000003121
31
0
0
ARC
5
113
100
AcDbEntity
8
PERIMETER
100
AcDbCircle
10
-256.49991813486315
20
-226.00000000003092
30
0
40
2.0000000000002416
210
0
220
0
230
1
100
AcDbArc
50
180
51
269.99999999999346
0
LINE
5
114
100
AcDbEntity
8
PERIMETER
100
AcDbLine
10
-256.49991813486338
20
-228.00000000003109
30
0
11
256.49991813486395
21
-228.00000000003109
31
0
0
ARC
5
115
100
AcDbEntity
8
PERIMETER
100
AcDbCircle
10
256.49991813486383
20
-226.00000000003106
30
0
40
2.0000000000000284
210
-0
220
0
230
1
100
AcDbArc
50
-89.999999999996746
51
0
0
LINE
5
116
100
AcDbEntity
8
PERIMETER
100
AcDbLine
10
258.49991813486383
20
-226.00000000003106
30
0
11
258.49991813486389
21
-221.70710678121736
31
0
0
ARC
5
117
100
AcDbEntity
8
PERIMETER
100
AcDbCircle
10
260.49991813486389
20
-221.70710678121736
30
0
40
2.0000000000000213
210
0
220
0
230
1
100
AcDbArc
50
134.99999999999773
51
180
0
LINE
5
118
100
AcDbEntity
8
PERIMETER
100
AcDbLine
10
259.08570457249084
20
-220.2928932188442
30
0
11
318.7928113537987
21
-160.58578643753364
31
0
0
ARC
5
119
100
AcDbEntity
8
PERIMETER
100
AcDbCircle
10
320.2070249161718
20
-161.99999999990672
30
0
40
2.0000000000000284
210
0
220
-0
230
1
100
AcDbArc
50
90
51
135.00000000000117
0
LINE
5
11A
100
AcDbEntity
8
PERIMETER
100
AcDbLine
10
320.2070249161718
20
-159.99999999990672
30
0
11
347.99991850232828
21
-159.99999999990678
31
0
0
ARC
5
11B
100
AcDbEntity
8
PERIMETER
100
AcDbCircle
10
347.99991850232834
20
-157.99999999990666
30
0
40
2.0000000000000995
210
0
220
0
230
1
100
AcDbArc
50
269.99999999999835
51
359.99999402358446
0
LINE
5
11C
100
AcDbEntity
8
PERIMETER
100
AcDbLine
10
349.99991850232846
20
-158.0000002098167
30
0
11
349.99995728325501
21
211.49999979011
31
0
0
ARC
5
11D
100
AcDbEntity
8
PERIMETER
100
AcDbCircle
10
347.99995728325507
20
211.50000000002035
30
0
40
1.9999999999999685
210
-0
220
0
230
1
100
AcDbArc
50
-6.0370913470859987e-06
51
89.999999999975572
0
LINE
5
11E
100
AcDbEntity
8
PERIMETER
100
AcDbLine
10
347.99995728325592
20
213.50000000002035
30
0
11
322.49995906749109
21
213.5000000000307
31
0
0
ARC
5
11F
100
AcDbEntity
8
PERIMETER
100
AcDbCircle
10
322.49995906749189
20
215.5000000000307
30
0
40
2.0000000000000284
210
0
220
0
230
1
100
AcDbArc
50
180
51
269.99999999997721
0
LINE
5
120
100
AcDbEntity
8
PERIMETER
100
AcDbLine
10
320.49995906749189
20
215.5000000000307
30
0
11
320.49995906749189
21
226.00000000003121
31
0
0
ARC
5
121
100
AcDbEntity
8
PERIMETER
100
AcDbCircle
10
318.49995906749189
20
226.00000000003121
30
0
40
1.9999999999999929
210
0
220
-0
230
1
100
AcDbArc
50
0
51
90
0
LINE
5
122
100
AcDbEntity
8
PERIMETER
100
AcDbLine
10
318.49995906749189
20
228.00000000003121
30
0
11
-318.49995906749263
21
228.00000000003095
31
0
0
ARC
5
123
100
AcDbEntity
8
PERIMETER
100
AcDbCircle
10
-318.49995906749263
20
226.00000000003089
30
0
40
2.0000000000000639
210
0
220
-0
230
1
100
AcDbArc
50
90
51
180
0
LINE
5
124
100
AcDbEntity
8
PERIMETER
100
AcDbLine
10
-320.49995906749268
20
226.00000000003092
30
0
11
-320.49995906749257
21
215.50000000003064
31
0
0
ARC
5
125
100
AcDbEntity
8
PERIMETER
100
AcDbCircle
10
-322.49995906749263
20
215.50000000003064
30
0
40
1.9999999999999929
210
-0
220
0
230
1
100
AcDbArc
50
-89.999999999975572
51
0
0
LINE
5
126
100
AcDbEntity
8
PERIMETER
100
AcDbLine
10
-322.49995906749177
20
213.50000000003064
30
0
11
-347.99995728325592
21
213.50000000002026
31
0
0
ARC
5
127
100
AcDbEntity
8
PERIMETER
100
AcDbCircle
10
-347.99995728325507
20
211.50000000002026
30
0
40
1.9999999999999929
210
0
220
0
230
1
100
AcDbArc
50
90.000000000024428
51
180.00000603709134
0
ENDSEC
0
SECTION
2
OBJECTS
0
DICTIONARY
5
C
100
AcDbDictionary
3
ACAD_GROUP
350
D
3
ACAD_MLINESTYLE
350
17
0
DICTIONARY
5
D
100
AcDbDictionary
0
DICTIONARY
5
1A
330
C
100
AcDbDictionary
0
DICTIONARY
5
17
100
AcDbDictionary
0
ENDSEC
0
EOF
