0
SECTION
2
HEADER
9
$INSUNITS
70
4
9
$ACADVER
1
AC1014
9
$HANDSEED
5
FFFF
0
ENDSEC
0
SECTION
2
TABLES
0
TABLE
2
VPORT
5
8
100
AcDbSymbolTable
0
ENDTAB
0
TABLE
2
LTYPE
5
5
100
AcDbSymbolTable
70
2
0
LTYPE
5
14
100
AcDbSymbolTableRecord
100
AcDbLinetypeTableRecord
2
BYBLOCK
70
0
0
LTYPE
5
15
100
AcDbSymbolTableRecord
100
AcDbLinetypeTableRecord
2
BYLAYER
70
0
0
ENDTAB
0
TABLE
2
LAYER
5
2
100
AcDbSymbolTable
70
3
0
LAYER
5
50
100
AcDbSymbolTableRecord
100
AcDbLayerTableRecord
2
0
70
0
6
CONTINUOUS
0
LAYER
5
51
100
AcDbSymbolTableRecord
100
AcDbLayerTableRecord
2
CUTOUTS
70
0
62
1
6
CONTINUOUS
0
LAYER
5
52
100
AcDbSymbolTableRecord
100
AcDbLayerTableRecord
2
PERIMETER
70
0
62
5
6
CONTINUOUS
0
ENDTAB
0
TABLE
2
STYLE
5
3
100
AcDbSymbolTable
70
1
0
STYLE
5
11
100
AcDbSymbolTableRecord
100
AcDbTextStyleTableRecord
2
STANDARD
70
0
0
ENDTAB
0
TABLE
2
VIEW
5
6
100
AcDbSymbolTable
0
ENDTAB
0
TABLE
2
UCS
5
7
100
AcDbSymbolTable
0
ENDTAB
0
TABLE
2
APPID
5
9
100
AcDbSymbolTable
70
1
0
APPID
5
12
100
AcDbSymbolTableRecord
100
AcDbRegAppTableRecord
2
ACAD
70
0
0
ENDTAB
0
TABLE
2
DIMSTYLE
5
A
100
AcDbSymbolTable
0
ENDTAB
0
TABLE
2
BLOCK_RECORD
5
1
100
AcDbSymbolTable
70
2
0
BLOCK_RECORD
5
1F
100
AcDbSymbolTableRecord
100
AcDbBlockTableRecord
2
*MODEL_SPACE
0
BLOCK_RECORD
5
1B
100
AcDbSymbolTableRecord
100
AcDbBlockTableRecord
2
*PAPER_SPACE
0
ENDTAB
0
ENDSEC
0
SECTION
2
BLOCKS
0
BLOCK
5
20
100
AcDbEntity
100
AcDbBlockBegin
2
*MODEL_SPACE
0
ENDBLK
5
21
100
AcDbEntity
100
AcDbBlockEnd
0
BLOCK
5
1C
100
AcDbEntity
100
AcDbBlockBegin
2
*PAPER_SPACE
0
ENDBLK
5
1D
100
AcDbEntity
100
AcDbBlockEnd
0
ENDSEC
0
SECTION
2
ENTITIES
0
CIRCLE
5
100
100
AcDbEntity
8
CUTOUTS
100
AcDbCircle
10
337.69999999999948
20
-234.34999999999999
30
0
40
1.7000000000000171
210
0
220
0
230
1
0
CIRCLE
5
101
100
AcDbEntity
8
CUTOUTS
100
AcDbCircle
10
337.69999999999948
20
-165.34999999999994
30
0
40
1.7000000000000171
210
0
220
0
230
1
0
CIRCLE
5
102
100
AcDbEntity
8
CUTOUTS
100
AcDbCircle
10
328.99999999999943
20
-142.69999999999999
30
0
40
1.7000000000000171
210
0
220
0
230
1
0
CIRCLE
5
103
100
AcDbEntity
8
CUTOUTS
100
AcDbCircle
10
320.2999999999995
20
-165.34999999999997
30
0
40
1.7000000000000171
210
0
220
0
230
1
0
CIRCLE
5
104
100
AcDbEntity
8
CUTOUTS
100
AcDbCircle
10
320.2999999999995
20
-234.35000000000002
30
0
40
1.7000000000000171
210
0
220
0
230
1
0
CIRCLE
5
105
100
AcDbEntity
8
CUTOUTS
100
AcDbCircle
10
328.99999999999943
20
-100
30
0
40
1.7000000000000171
210
0
220
0
230
1
0
CIRCLE
5
106
100
AcDbEntity
8
CUTOUTS
100
AcDbCircle
10
290.49999999999994
20
244.9999999999994
30
0
40
3.2999999999999829
210
0
220
0
230
1
0
CIRCLE
5
107
100
AcDbEntity
8
CUTOUTS
100
AcDbCircle
10
-367.5
20
189.49999999999974
30
0
40
3.2999999999999829
210
0
220
0
230
1
0
CIRCLE
5
108
100
AcDbEntity
8
CUTOUTS
100
AcDbCircle
10
-272.49999999999994
20
-340.00000000000011
30
0
40
3.2999999999999829
210
0
220
0
230
1
0
CIRCLE
5
109
100
AcDbEntity
8
CUTOUTS
100
AcDbCircle
10
272.5
20
-339.99999999999994
30
0
40
3.2999999999999829
210
0
220
0
230
1
0
CIRCLE
5
10A
100
AcDbEntity
8
CUTOUTS
100
AcDbCircle
10
367.49999999999977
20
-4.8062472588211606e-13
30
0
40
3.2999999999999829
210
0
220
0
230
1
0
CIRCLE
5
10B
100
AcDbEntity
8
CUTOUTS
100
AcDbCircle
10
367.49999999999994
20
244.9999999999994
30
0
40
3.2999999999999829
210
0
220
0
230
1
0
CIRCLE
5
10C
100
AcDbEntity
8
CUTOUTS
100
AcDbCircle
10
2.5929339229152641e-14
20
339.99999999999972
30
0
40
3.3000000000000003
210
0
220
0
230
1
0
CIRCLE
5
10D
100
AcDbEntity
8
CUTOUTS
100
AcDbCircle
10
-272.49999999999994
20
339.99999999999972
30
0
40
3.2999999999999829
210
0
220
0
230
1
0
CIRCLE
5
10E
100
AcDbEntity
8
CUTOUTS
100
AcDbCircle
10
272.5
20
339.99999999999949
30
0
40
3.2999999999999829
210
0
220
0
230
1
0
CIRCLE
5
10F
100
AcDbEntity
8
CUTOUTS
100
AcDbCircle
10
290.49999999999977
20
-3.9243557134190871e-13
30
0
40
3.2999999999999829
210
0
220
0
230
1
0
CIRCLE
5
110
100
AcDbEntity
8
CUTOUTS
100
AcDbCircle
10
367.49999999999994
20
-244.99999999999997
30
0
40
3.2999999999999829
210
0
220
0
230
1
0
CIRCLE
5
111
100
AcDbEntity
8
CUTOUTS
100
AcDbCircle
10
1.3039031056601141e-14
20
-340.00000000000011
30
0
40
3.3000000000000003
210
0
220
0
230
1
0
CIRCLE
5
112
100
AcDbEntity
8
CUTOUTS
100
AcDbCircle
10
-367.5
20
-2.1035314062260555e-13
30
0
40
3.2999999999999829
210
0
220
0
230
1
0
CIRCLE
5
113
100
AcDbEntity
8
CUTOUTS
100
AcDbCircle
10
-367.49999999999994
20
-189.50000000000017
30
0
40
3.2999999999999829
210
0
220
0
230
1
0
CIRCLE
5
114
100
AcDbEntity
8
CUTOUTS
100
AcDbCircle
10
290.50000000000006
20
-244.99999999999997
30
0
40
3.2999999999999829
210
0
220
0
230
1
0
LINE
5
115
100
AcDbEntity
8
CUTOUTS
100
AcDbLine
10
338.99999999999909
20
-103.85000000000019
30
0
11
338.99999999999909
21
-138.85000000000019
31
0
0
LINE
5
116
100
AcDbEntity
8
CUTOUTS
100
AcDbLine
10
338.99999999999909
20
-138.85000000000019
30
0
11
318.99999999999909
21
-138.85000000000019
31
0
0
LINE
5
117
100
AcDbEntity
8
CUTOUTS
100
AcDbLine
10
318.99999999999909
20
-138.85000000000019
30
0
11
318.99999999999909
21
-103.85000000000019
31
0
0
LINE
5
118
100
AcDbEntity
8
CUTOUTS
100
AcDbLine
10
318.99999999999909
20
-103.85000000000019
30
0
11
338.99999999999909
21
-103.85000000000019
31
0
0
LINE
5
119
100
AcDbEntity
8
CUTOUTS
100
AcDbLine
10
342.74999999999818
20
-222.35000000000019
30
0
11
315.24999999999818
21
-222.35000000000019
31
0
0
LINE
5
11A
100
AcDbEntity
8
CUTOUTS
100
AcDbLine
10
315.24999999999818
20
-222.35000000000019
30
0
11
315.24999999999818
21
-175.35000000000019
31
0
0
LINE
5
11B
100
AcDbEntity
8
CUTOUTS
100
AcDbLine
10
315.24999999999818
20
-175.35000000000019
30
0
11
342.74999999999818
21
-175.35000000000019
31
0
0
LINE
5
11C
100
AcDbEntity
8
CUTOUTS
100
AcDbLine
10
342.74999999999818
20
-175.35000000000019
30
0
11
342.74999999999818
21
-222.35000000000019
31
0
0
LINE
5
11D
100
AcDbEntity
8
PERIMETER
100
AcDbLine
10
-292.00000000000006
20
324.79687245145522
30
0
11
-352.29687245145618
21
264.49999999999949
31
0
0
LINE
5
11E
100
AcDbEntity
8
PERIMETER
100
AcDbLine
10
-352.29687245145618
20
264.49999999999949
30
0
11
-354.50000000000034
21
264.49999999999949
31
0
0
LINE
5
11F
100
AcDbEntity
8
PERIMETER
100
AcDbLine
10
-354.50000000000034
20
264.49999999999949
30
0
11
-354.50000000000017
21
204.49999999999955
31
0
0
LINE
5
120
100
AcDbEntity
8
PERIMETER
100
AcDbLine
10
-354.50000000000017
20
204.49999999999955
30
0
11
-382.50000000000023
21
204.49999999999946
31
0
0
LINE
5
121
100
AcDbEntity
8
PERIMETER
100
AcDbLine
10
-382.50000000000023
20
204.49999999999946
30
0
11
-382.50000000000023
21
-204.50000000000031
31
0
0
LINE
5
122
100
AcDbEntity
8
PERIMETER
100
AcDbLine
10
-382.50000000000023
20
-204.50000000000031
30
0
11
-354.50000000000023
21
-204.5000000000004
31
0
0
LINE
5
123
100
AcDbEntity
8
PERIMETER
100
AcDbLine
10
-354.50000000000023
20
-204.5000000000004
30
0
11
-354.50000000000034
21
-264.50000000000034
31
0
0
LINE
5
124
100
AcDbEntity
8
PERIMETER
100
AcDbLine
10
-354.50000000000034
20
-264.50000000000034
30
0
11
-352.29687245145612
21
-264.50000000000034
31
0
0
LINE
5
125
100
AcDbEntity
8
PERIMETER
100
AcDbLine
10
-352.29687245145612
20
-264.50000000000034
30
0
11
-292.00000000000011
21
-324.79687245145607
31
0
0
LINE
5
126
100
AcDbEntity
8
PERIMETER
100
AcDbLine
10
-292.00000000000011
20
-324.79687245145607
30
0
11
-292.00000000000011
21
-355.00000000000034
31
0
0
LINE
5
127
100
AcDbEntity
8
PERIMETER
100
AcDbLine
10
-292.00000000000011
20
-355.00000000000034
30
0
11
291.99999999999983
21
-354.99999999999994
31
0
0
LINE
5
128
100
AcDbEntity
8
PERIMETER
100
AcDbLine
10
291.99999999999983
20
-354.99999999999994
30
0
11
291.99999999999977
21
-324.79687245145567
31
0
0
LINE
5
129
100
AcDbEntity
8
PERIMETER
100
AcDbLine
10
291.99999999999977
20
-324.79687245145567
30
0
11
352.29687245145578
21
-264.50000000000023
31
0
0
LINE
5
12A
100
AcDbEntity
8
PERIMETER
100
AcDbLine
10
352.29687245145578
20
-264.50000000000023
30
0
11
382.49999999999972
21
-264.50000000000023
31
0
0
LINE
5
12B
100
AcDbEntity
8
PERIMETER
100
AcDbLine
10
382.49999999999972
20
-264.50000000000023
30
0
11
382.49999999999972
21
264.49999999999926
31
0
0
LINE
5
12C
100
AcDbEntity
8
PERIMETER
100
AcDbLine
10
382.49999999999972
20
264.49999999999926
30
0
11
352.29687245145567
21
264.49999999999926
31
0
0
LINE
5
12D
100
AcDbEntity
8
PERIMETER
100
AcDbLine
10
352.29687245145567
20
264.49999999999926
30
0
11
291.99999999999977
21
324.79687245145487
31
0
0
LINE
5
12E
100
AcDbEntity
8
PERIMETER
100
AcDbLine
10
291.99999999999977
20
324.79687245145487
30
0
11
291.99999999999977
21
354.99999999999909
31
0
0
LINE
5
12F
100
AcDbEntity
8
PERIMETER
100
AcDbLine
10
291.99999999999977
20
354.99999999999909
30
0
11
-292
21
354.99999999999949
31
0
0
LINE
5
130
100
AcDbEntity
8
PERIMETER
100
AcDbLine
10
-292
20
354.99999999999949
30
0
11
-292.00000000000006
21
324.79687245145522
31
0
0
ENDSEC
0
SECTION
2
OBJECTS
0
DICTIONARY
5
C
100
AcDbDictionary
3
ACAD_GROUP
350
D
3
ACAD_MLINESTYLE
350
17
0
DICTIONARY
5
D
100
AcDbDictionary
0
DICTIONARY
5
1A
330
C
100
AcDbDictionary
0
DICTIONARY
5
17
100
AcDbDictionary
0
ENDSEC
0
EOF
