0
SECTION
2
HEADER
9
$INSUNITS
70
1
9
$ACADVER
1
AC1014
9
$HANDSEED
5
FFFF
0
ENDSEC
0
SECTION
2
TABLES
0
TABLE
2
VPORT
5
8
100
AcDbSymbolTable
0
ENDTAB
0
TABLE
2
LTYPE
5
5
100
AcDbSymbolTable
70
2
0
LTYPE
5
14
100
AcDbSymbolTableRecord
100
AcDbLinetypeTableRecord
2
BYBLOCK
70
0
0
LTYPE
5
15
100
AcDbSymbolTableRecord
100
AcDbLinetypeTableRecord
2
BYLAYER
70
0
0
ENDTAB
0
TABLE
2
LAYER
5
2
100
AcDbSymbolTable
70
3
0
LAYER
5
50
100
AcDbSymbolTableRecord
100
AcDbLayerTableRecord
2
0
70
0
6
CONTINUOUS
0
LAYER
5
51
100
AcDbSymbolTableRecord
100
AcDbLayerTableRecord
2
CUTOUTS
70
0
62
1
6
CONTINUOUS
0
LAYER
5
52
100
AcDbSymbolTableRecord
100
AcDbLayerTableRecord
2
PERIMETER
70
0
62
5
6
CONTINUOUS
0
ENDTAB
0
TABLE
2
STYLE
5
3
100
AcDbSymbolTable
70
1
0
STYLE
5
11
100
AcDbSymbolTableRecord
100
AcDbTextStyleTableRecord
2
STANDARD
70
0
0
ENDTAB
0
TABLE
2
VIEW
5
6
100
AcDbSymbolTable
0
ENDTAB
0
TABLE
2
UCS
5
7
100
AcDbSymbolTable
0
ENDTAB
0
TABLE
2
APPID
5
9
100
AcDbSymbolTable
70
1
0
APPID
5
12
100
AcDbSymbolTableRecord
100
AcDbRegAppTableRecord
2
ACAD
70
0
0
ENDTAB
0
TABLE
2
DIMSTYLE
5
A
100
AcDbSymbolTable
0
ENDTAB
0
TABLE
2
BLOCK_RECORD
5
1
100
AcDbSymbolTable
70
2
0
BLOCK_RECORD
5
1F
100
AcDbSymbolTableRecord
100
AcDbBlockTableRecord
2
*MODEL_SPACE
0
BLOCK_RECORD
5
1B
100
AcDbSymbolTableRecord
100
AcDbBlockTableRecord
2
*PAPER_SPACE
0
ENDTAB
0
ENDSEC
0
SECTION
2
BLOCKS
0
BLOCK
5
20
100
AcDbEntity
100
AcDbBlockBegin
2
*MODEL_SPACE
0
ENDBLK
5
21
100
AcDbEntity
100
AcDbBlockEnd
0
BLOCK
5
1C
100
AcDbEntity
100
AcDbBlockBegin
2
*PAPER_SPACE
0
ENDBLK
5
1D
100
AcDbEntity
100
AcDbBlockEnd
0
ENDSEC
0
SECTION
2
ENTITIES
0
CIRCLE
5
100
100
AcDbEntity
8
CUTOUTS
100
AcDbCircle
10
13.295275590551158
20
-9.2263779527559038
30
0
40
0.063976377952756458
210
0
220
0
230
1
0
CIRCLE
5
101
100
AcDbEntity
8
CUTOUTS
100
AcDbCircle
10
13.295275590551158
20
-6.5098425196850362
30
0
40
0.063976377952756458
210
0
220
0
230
1
0
CIRCLE
5
102
100
AcDbEntity
8
CUTOUTS
100
AcDbCircle
10
12.952755905511786
20
-5.6181102362204722
30
0
40
0.063976377952756458
210
0
220
0
230
1
0
CIRCLE
5
103
100
AcDbEntity
8
CUTOUTS
100
AcDbCircle
10
12.610236220472421
20
-6.5098425196850371
30
0
40
0.063976377952756458
210
0
220
0
230
1
0
CIRCLE
5
104
100
AcDbEntity
8
CUTOUTS
100
AcDbCircle
10
12.610236220472421
20
-9.2263779527559056
30
0
40
0.063976377952756458
210
0
220
0
230
1
0
CIRCLE
5
105
100
AcDbEntity
8
CUTOUTS
100
AcDbCircle
10
12.952755905511786
20
-3.9370078740157477
30
0
40
0.063976377952756458
210
0
220
0
230
1
0
CIRCLE
5
106
100
AcDbEntity
8
CUTOUTS
100
AcDbCircle
10
11.437007874015745
20
9.6456692913385584
30
0
40
0.12696850393700848
210
0
220
0
230
1
0
CIRCLE
5
107
100
AcDbEntity
8
CUTOUTS
100
AcDbCircle
10
-14.468503937007872
20
7.4606299212598319
30
0
40
0.12696850393700709
210
0
220
0
230
1
0
CIRCLE
5
108
100
AcDbEntity
8
CUTOUTS
100
AcDbCircle
10
-10.728346456692909
20
-13.385826771653548
30
0
40
0.12696850393700848
210
0
220
0
230
1
0
CIRCLE
5
109
100
AcDbEntity
8
CUTOUTS
100
AcDbCircle
10
10.728346456692913
20
-13.385826771653539
30
0
40
0.12696850393700848
210
0
220
0
230
1
0
CIRCLE
5
10A
100
AcDbEntity
8
CUTOUTS
100
AcDbCircle
10
14.468503937007865
20
-1.8922233302445511e-14
30
0
40
0.12696850393700709
210
0
220
0
230
1
0
CIRCLE
5
10B
100
AcDbEntity
8
CUTOUTS
100
AcDbCircle
10
14.468503937007871
20
9.6456692913385584
30
0
40
0.12696850393700709
210
0
220
0
230
1
0
CIRCLE
5
10C
100
AcDbEntity
8
CUTOUTS
100
AcDbCircle
10
1.0208401271319936e-15
20
13.38582677165353
30
0
40
0.12696850393700787
210
0
220
0
230
1
0
CIRCLE
5
10D
100
AcDbEntity
8
CUTOUTS
100
AcDbCircle
10
-10.728346456692909
20
13.38582677165353
30
0
40
0.12696850393700848
210
0
220
0
230
1
0
CIRCLE
5
10E
100
AcDbEntity
8
CUTOUTS
100
AcDbCircle
10
10.728346456692913
20
13.385826771653523
30
0
40
0.12696850393700848
210
0
220
0
230
1
0
CIRCLE
5
10F
100
AcDbEntity
8
CUTOUTS
100
AcDbCircle
10
11.437007874015737
20
-1.5450219344169633e-14
30
0
40
0.12696850393700848
210
0
220
0
230
1
0
CIRCLE
5
110
100
AcDbEntity
8
CUTOUTS
100
AcDbCircle
10
14.468503937007871
20
-9.6456692913385798
30
0
40
0.12696850393700709
210
0
220
0
230
1
0
CIRCLE
5
111
100
AcDbEntity
8
CUTOUTS
100
AcDbCircle
10
5.1334767939374568e-16
20
-13.385826771653548
30
0
40
0.12696850393700787
210
0
220
0
230
1
0
CIRCLE
5
112
100
AcDbEntity
8
CUTOUTS
100
AcDbCircle
10
-14.468503937007872
20
-8.2816197095513992e-15
30
0
40
0.12696850393700709
210
0
220
0
230
1
0
CIRCLE
5
113
100
AcDbEntity
8
CUTOUTS
100
AcDbCircle
10
-14.468503937007871
20
-7.4606299212598488
30
0
40
0.12696850393700709
210
0
220
0
230
1
0
CIRCLE
5
114
100
AcDbEntity
8
CUTOUTS
100
AcDbCircle
10
11.437007874015748
20
-9.6456692913385798
30
0
40
0.12696850393700848
210
0
220
0
230
1
0
LINE
5
115
100
AcDbEntity
8
CUTOUTS
100
AcDbLine
10
13.343503937007835
20
-4.0915354330708738
30
0
11
13.343503937007835
21
-5.4635826771653617
31
0
0
LINE
5
116
100
AcDbEntity
8
CUTOUTS
100
AcDbLine
10
13.343503937007835
20
-5.4635826771653617
30
0
11
12.562007874015711
21
-5.4635826771653617
31
0
0
LINE
5
117
100
AcDbEntity
8
CUTOUTS
100
AcDbLine
10
12.562007874015711
20
-5.4635826771653617
30
0
11
12.562007874015711
21
-4.0915354330708738
31
0
0
LINE
5
118
100
AcDbEntity
8
CUTOUTS
100
AcDbLine
10
12.562007874015711
20
-4.0915354330708738
30
0
11
13.343503937007835
21
-4.0915354330708738
31
0
0
LINE
5
119
100
AcDbEntity
8
CUTOUTS
100
AcDbLine
10
13.491141732283392
20
-6.9064960629921321
30
0
11
13.491141732283392
21
-8.7509842519685108
31
0
0
LINE
5
11A
100
AcDbEntity
8
CUTOUTS
100
AcDbLine
10
13.491141732283392
20
-8.7509842519685108
30
0
11
12.414370078740086
21
-8.7509842519685108
31
0
0
LINE
5
11B
100
AcDbEntity
8
CUTOUTS
100
AcDbLine
10
12.414370078740086
20
-8.7509842519685108
30
0
11
12.414370078740086
21
-6.9064960629921321
31
0
0
LINE
5
11C
100
AcDbEntity
8
CUTOUTS
100
AcDbLine
10
12.414370078740086
20
-6.9064960629921321
30
0
11
13.491141732283392
21
-6.9064960629921321
31
0
0
LINE
5
11D
100
AcDbEntity
8
PERIMETER
100
AcDbLine
10
-13.959645669291344
20
8.0541338582676971
30
0
11
-15.062007874015755
21
8.0541338582676953
31
0
0
LINE
5
11E
100
AcDbEntity
8
PERIMETER
100
AcDbLine
10
-15.062007874015755
20
8.0541338582676953
30
0
11
-15.062007874015755
21
-8.0541338582677291
31
0
0
LINE
5
11F
100
AcDbEntity
8
PERIMETER
100
AcDbLine
10
-15.062007874015755
20
-8.0541338582677291
30
0
11
-13.959645669291348
21
-8.0541338582677309
31
0
0
LINE
5
120
100
AcDbEntity
8
PERIMETER
100
AcDbLine
10
-13.959645669291348
20
-8.0541338582677309
30
0
11
-13.95964566929135
21
-10.416338582677179
31
0
0
LINE
5
121
100
AcDbEntity
8
PERIMETER
100
AcDbLine
10
-13.95964566929135
20
-10.416338582677179
30
0
11
-13.871178679867482
21
-10.416338582677179
31
0
0
LINE
5
122
100
AcDbEntity
8
PERIMETER
100
AcDbLine
10
-13.871178679867482
20
-10.416338582677179
30
0
11
-11.4990157480315
21
-12.788501514513149
31
0
0
LINE
5
123
100
AcDbEntity
8
PERIMETER
100
AcDbLine
10
-11.4990157480315
20
-12.788501514513149
30
0
11
-11.4990157480315
21
-13.979330708661431
31
0
0
LINE
5
124
100
AcDbEntity
8
PERIMETER
100
AcDbLine
10
-11.4990157480315
20
-13.979330708661431
30
0
11
11.499015748031487
21
-13.979330708661413
31
0
0
LINE
5
125
100
AcDbEntity
8
PERIMETER
100
AcDbLine
10
11.499015748031487
20
-13.979330708661413
30
0
11
11.499015748031486
21
-12.788501514513134
31
0
0
LINE
5
126
100
AcDbEntity
8
PERIMETER
100
AcDbLine
10
11.499015748031486
20
-12.788501514513134
30
0
11
13.871178679867469
21
-10.416338582677174
31
0
0
LINE
5
127
100
AcDbEntity
8
PERIMETER
100
AcDbLine
10
13.871178679867469
20
-10.416338582677174
30
0
11
15.062007874015736
21
-10.416338582677174
31
0
0
LINE
5
128
100
AcDbEntity
8
PERIMETER
100
AcDbLine
10
15.062007874015736
20
-10.416338582677174
30
0
11
15.062007874015736
21
10.416338582677135
31
0
0
LINE
5
129
100
AcDbEntity
8
PERIMETER
100
AcDbLine
10
15.062007874015736
20
10.416338582677135
30
0
11
13.871178679867466
21
10.416338582677135
31
0
0
LINE
5
12A
100
AcDbEntity
8
PERIMETER
100
AcDbLine
10
13.871178679867466
20
10.416338582677135
30
0
11
11.499015748031486
21
12.788501514513102
31
0
0
LINE
5
12B
100
AcDbEntity
8
PERIMETER
100
AcDbLine
10
11.499015748031486
20
12.788501514513102
30
0
11
11.499015748031486
21
13.979330708661379
31
0
0
LINE
5
12C
100
AcDbEntity
8
PERIMETER
100
AcDbLine
10
11.499015748031486
20
13.979330708661379
30
0
11
-11.499015748031496
21
13.979330708661397
31
0
0
LINE
5
12D
100
AcDbEntity
8
PERIMETER
100
AcDbLine
10
-11.499015748031496
20
13.979330708661397
30
0
11
-11.499015748031498
21
12.788501514513115
31
0
0
LINE
5
12E
100
AcDbEntity
8
PERIMETER
100
AcDbLine
10
-11.499015748031498
20
12.788501514513115
30
0
11
-13.871178679867485
21
10.416338582677145
31
0
0
LINE
5
12F
100
AcDbEntity
8
PERIMETER
100
AcDbLine
10
-13.871178679867485
20
10.416338582677145
30
0
11
-13.95964566929135
21
10.416338582677145
31
0
0
LINE
5
130
100
AcDbEntity
8
PERIMETER
100
AcDbLine
10
-13.95964566929135
20
10.416338582677145
30
0
11
-13.959645669291344
21
8.0541338582676971
31
0
0
ENDSEC
0
SECTION
2
OBJECTS
0
DICTIONARY
5
C
100
AcDbDictionary
3
ACAD_GROUP
350
D
3
ACAD_MLINESTYLE
350
17
0
DICTIONARY
5
D
100
AcDbDictionary
0
DICTIONARY
5
1A
330
C
100
AcDbDictionary
0
DICTIONARY
5
17
100
AcDbDictionary
0
ENDSEC
0
EOF
