0
SECTION
2
HEADER
9
$INSUNITS
70
1
9
$ACADVER
1
AC1014
9
$HANDSEED
5
FFFF
0
ENDSEC
0
SECTION
2
TABLES
0
TABLE
2
VPORT
5
8
100
AcDbSymbolTable
0
ENDTAB
0
TABLE
2
LTYPE
5
5
100
AcDbSymbolTable
70
2
0
LTYPE
5
14
100
AcDbSymbolTableRecord
100
AcDbLinetypeTableRecord
2
BYBLOCK
70
0
0
LTYPE
5
15
100
AcDbSymbolTableRecord
100
AcDbLinetypeTableRecord
2
BYLAYER
70
0
0
ENDTAB
0
TABLE
2
LAYER
5
2
100
AcDbSymbolTable
70
3
0
LAYER
5
50
100
AcDbSymbolTableRecord
100
AcDbLayerTableRecord
2
0
70
0
6
CONTINUOUS
0
LAYER
5
51
100
AcDbSymbolTableRecord
100
AcDbLayerTableRecord
2
CUTOUTS
70
0
62
1
6
CONTINUOUS
0
LAYER
5
52
100
AcDbSymbolTableRecord
100
AcDbLayerTableRecord
2
PERIMETER
70
0
62
5
6
CONTINUOUS
0
ENDTAB
0
TABLE
2
STYLE
5
3
100
AcDbSymbolTable
70
1
0
STYLE
5
11
100
AcDbSymbolTableRecord
100
AcDbTextStyleTableRecord
2
STANDARD
70
0
0
ENDTAB
0
TABLE
2
VIEW
5
6
100
AcDbSymbolTable
0
ENDTAB
0
TABLE
2
UCS
5
7
100
AcDbSymbolTable
0
ENDTAB
0
TABLE
2
APPID
5
9
100
AcDbSymbolTable
70
1
0
APPID
5
12
100
AcDbSymbolTableRecord
100
AcDbRegAppTableRecord
2
ACAD
70
0
0
ENDTAB
0
TABLE
2
DIMSTYLE
5
A
100
AcDbSymbolTable
0
ENDTAB
0
TABLE
2
BLOCK_RECORD
5
1
100
AcDbSymbolTable
70
2
0
BLOCK_RECORD
5
1F
100
AcDbSymbolTableRecord
100
AcDbBlockTableRecord
2
*MODEL_SPACE
0
BLOCK_RECORD
5
1B
100
AcDbSymbolTableRecord
100
AcDbBlockTableRecord
2
*PAPER_SPACE
0
ENDTAB
0
ENDSEC
0
SECTION
2
BLOCKS
0
BLOCK
5
20
100
AcDbEntity
100
AcDbBlockBegin
2
*MODEL_SPACE
0
ENDBLK
5
21
100
AcDbEntity
100
AcDbBlockEnd
0
BLOCK
5
1C
100
AcDbEntity
100
AcDbBlockBegin
2
*PAPER_SPACE
0
ENDBLK
5
1D
100
AcDbEntity
100
AcDbBlockEnd
0
ENDSEC
0
SECTION
2
ENTITIES
0
CIRCLE
5
100
100
AcDbEntity
8
CUTOUTS
100
AcDbCircle
10
-4.6604330708662092
20
13.877952755906604
30
0
40
0.12696850393700779
210
0
220
0
230
1
0
CIRCLE
5
101
100
AcDbEntity
8
CUTOUTS
100
AcDbCircle
10
-13.188976377952853
20
9.8934697581955372e-13
30
0
40
0.12696850393700709
210
0
220
0
230
1
0
CIRCLE
5
102
100
AcDbEntity
8
CUTOUTS
100
AcDbCircle
10
9.055118110236128
20
-13.877952755904515
30
0
40
0.12696850393700848
210
0
220
0
230
1
0
CIRCLE
5
103
100
AcDbEntity
8
CUTOUTS
100
AcDbCircle
10
-9.055118110236311
20
-13.877952755904523
30
0
40
0.12696850393700848
210
0
220
0
230
1
0
CIRCLE
5
104
100
AcDbEntity
8
CUTOUTS
100
AcDbCircle
10
13.188976377952656
20
9.7440944881899458
30
0
40
0.12696850393700709
210
0
220
0
230
1
0
CIRCLE
5
105
100
AcDbEntity
8
CUTOUTS
100
AcDbCircle
10
-13.188976377952844
20
9.7440944881899636
30
0
40
0.12696850393700709
210
0
220
0
230
1
0
CIRCLE
5
106
100
AcDbEntity
8
CUTOUTS
100
AcDbCircle
10
-13.188976377952848
20
-9.7440944881879883
30
0
40
0.12696850393700709
210
0
220
0
230
1
0
CIRCLE
5
107
100
AcDbEntity
8
CUTOUTS
100
AcDbCircle
10
-9.9131576784311219e-14
20
-13.877952755904525
30
0
40
0.12696850393700787
210
0
220
0
230
1
0
CIRCLE
5
108
100
AcDbEntity
8
CUTOUTS
100
AcDbCircle
10
13.188976377952656
20
-9.7440944881879688
30
0
40
0.12696850393700709
210
0
220
0
230
1
0
CIRCLE
5
109
100
AcDbEntity
8
CUTOUTS
100
AcDbCircle
10
13.188976377952654
20
9.700129957189812e-13
30
0
40
0.12696850393700709
210
0
220
0
230
1
0
CIRCLE
5
10A
100
AcDbEntity
8
CUTOUTS
100
AcDbCircle
10
4.6604330708648201
20
13.877952755906778
30
0
40
0.12696850393700779
210
0
220
0
230
1
0
LINE
5
10B
100
AcDbEntity
8
PERIMETER
100
AcDbLine
10
8.4281496063009058
20
14.471456692914817
30
0
11
0.892716535433003
21
14.471456692914458
31
0
0
LINE
5
10C
100
AcDbEntity
8
PERIMETER
100
AcDbLine
10
0.892716535433003
20
14.471456692914458
30
0
11
0.89271653543300356
21
13.447834645670358
31
0
0
LINE
5
10D
100
AcDbEntity
8
PERIMETER
100
AcDbLine
10
0.89271653543300356
20
13.447834645670358
30
0
11
-0.89271653543313778
21
13.447834645670358
31
0
0
LINE
5
10E
100
AcDbEntity
8
PERIMETER
100
AcDbLine
10
-0.89271653543313778
20
13.447834645670358
30
0
11
-0.89271653543313756
21
14.471456692914458
31
0
0
LINE
5
10F
100
AcDbEntity
8
PERIMETER
100
AcDbLine
10
-0.89271653543313756
20
14.471456692914458
30
0
11
-8.4281496062993018
21
14.47145669291457
31
0
0
LINE
5
110
100
AcDbEntity
8
PERIMETER
100
AcDbLine
10
-8.4281496062993018
20
14.47145669291457
30
0
11
-8.4281496062993018
21
13.447834645670362
31
0
0
LINE
5
111
100
AcDbEntity
8
PERIMETER
100
AcDbLine
10
-8.4281496062993018
20
13.447834645670362
30
0
11
-10.219488188976467
21
13.447834645670275
31
0
0
LINE
5
112
100
AcDbEntity
8
PERIMETER
100
AcDbLine
10
-10.219488188976467
20
13.447834645670275
30
0
11
-10.219488188976467
21
13.280627498766183
31
0
0
LINE
5
113
100
AcDbEntity
8
PERIMETER
100
AcDbLine
10
-10.219488188976467
20
13.280627498766183
30
0
11
-12.591651120812513
21
10.908464566930117
31
0
0
LINE
5
114
100
AcDbEntity
8
PERIMETER
100
AcDbLine
10
-12.591651120812513
20
10.908464566930117
30
0
11
-13.782480314960718
21
10.90846456693011
31
0
0
LINE
5
115
100
AcDbEntity
8
PERIMETER
100
AcDbLine
10
-13.782480314960718
20
10.90846456693011
30
0
11
-13.78248031496341
21
-10.908464566927094
31
0
0
LINE
5
116
100
AcDbEntity
8
PERIMETER
100
AcDbLine
10
-13.78248031496341
20
-10.908464566927094
30
0
11
-12.5916511208152
21
-10.908464566928492
31
0
0
LINE
5
117
100
AcDbEntity
8
PERIMETER
100
AcDbLine
10
-12.5916511208152
20
-10.908464566928492
30
0
11
-10.219488188979598
21
-13.280627498764938
31
0
0
LINE
5
118
100
AcDbEntity
8
PERIMETER
100
AcDbLine
10
-10.219488188979598
20
-13.280627498764938
30
0
11
-10.219488188979875
21
-14.47145669291309
31
0
0
LINE
5
119
100
AcDbEntity
8
PERIMETER
100
AcDbLine
10
-10.219488188979875
20
-14.47145669291309
30
0
11
10.219488188989697
21
-14.471456692914817
31
0
0
LINE
5
11A
100
AcDbEntity
8
PERIMETER
100
AcDbLine
10
10.219488188989697
20
-14.471456692914817
30
0
11
10.219488188984192
21
-13.280627498770622
31
0
0
LINE
5
11B
100
AcDbEntity
8
PERIMETER
100
AcDbLine
10
10.219488188984192
20
-13.280627498770622
30
0
11
12.591651120814319
21
-10.908464566923081
31
0
0
LINE
5
11C
100
AcDbEntity
8
PERIMETER
100
AcDbLine
10
12.591651120814319
20
-10.908464566923081
30
0
11
13.782480314962495
21
-10.908464566922859
31
0
0
LINE
5
11D
100
AcDbEntity
8
PERIMETER
100
AcDbLine
10
13.782480314962495
20
-10.908464566922859
30
0
11
13.782480314963411
21
10.908464566928513
31
0
0
LINE
5
11E
100
AcDbEntity
8
PERIMETER
100
AcDbLine
10
13.782480314963411
20
10.908464566928513
30
0
11
12.591651120815222
21
10.908464566923135
31
0
0
LINE
5
11F
100
AcDbEntity
8
PERIMETER
100
AcDbLine
10
12.591651120815222
20
10.908464566923135
30
0
11
10.219488188983101
21
13.280627498766393
31
0
0
LINE
5
120
100
AcDbEntity
8
PERIMETER
100
AcDbLine
10
10.219488188983101
20
13.280627498766393
30
0
11
10.219488188974942
21
13.447834645669225
31
0
0
LINE
5
121
100
AcDbEntity
8
PERIMETER
100
AcDbLine
10
10.219488188974942
20
13.447834645669225
30
0
11
8.4281496063021795
21
13.44783464567254
31
0
0
LINE
5
122
100
AcDbEntity
8
PERIMETER
100
AcDbLine
10
8.4281496063021795
20
13.44783464567254
30
0
11
8.4281496063009058
21
14.471456692914817
31
0
0
ENDSEC
0
SECTION
2
OBJECTS
0
DICTIONARY
5
C
100
AcDbDictionary
3
ACAD_GROUP
350
D
3
ACAD_MLINESTYLE
350
17
0
DICTIONARY
5
D
100
AcDbDictionary
0
DICTIONARY
5
1A
330
C
100
AcDbDictionary
0
DICTIONARY
5
17
100
AcDbDictionary
0
ENDSEC
0
EOF
