0
SECTION
2
HEADER
9
$INSUNITS
70
1
9
$ACADVER
1
AC1014
9
$HANDSEED
5
FFFF
0
ENDSEC
0
SECTION
2
TABLES
0
TABLE
2
VPORT
5
8
100
AcDbSymbolTable
0
ENDTAB
0
TABLE
2
LTYPE
5
5
100
AcDbSymbolTable
70
2
0
LTYPE
5
14
100
AcDbSymbolTableRecord
100
AcDbLinetypeTableRecord
2
BYBLOCK
70
0
0
LTYPE
5
15
100
AcDbSymbolTableRecord
100
AcDbLinetypeTableRecord
2
BYLAYER
70
0
0
ENDTAB
0
TABLE
2
LAYER
5
2
100
AcDbSymbolTable
70
3
0
LAYER
5
50
100
AcDbSymbolTableRecord
100
AcDbLayerTableRecord
2
0
70
0
6
CONTINUOUS
0
LAYER
5
51
100
AcDbSymbolTableRecord
100
AcDbLayerTableRecord
2
CUTOUTS
70
0
62
1
6
CONTINUOUS
0
LAYER
5
52
100
AcDbSymbolTableRecord
100
AcDbLayerTableRecord
2
PERIMETER
70
0
62
5
6
CONTINUOUS
0
ENDTAB
0
TABLE
2
STYLE
5
3
100
AcDbSymbolTable
70
1
0
STYLE
5
11
100
AcDbSymbolTableRecord
100
AcDbTextStyleTableRecord
2
STANDARD
70
0
0
ENDTAB
0
TABLE
2
VIEW
5
6
100
AcDbSymbolTable
0
ENDTAB
0
TABLE
2
UCS
5
7
100
AcDbSymbolTable
0
ENDTAB
0
TABLE
2
APPID
5
9
100
AcDbSymbolTable
70
1
0
APPID
5
12
100
AcDbSymbolTableRecord
100
AcDbRegAppTableRecord
2
ACAD
70
0
0
ENDTAB
0
TABLE
2
DIMSTYLE
5
A
100
AcDbSymbolTable
0
ENDTAB
0
TABLE
2
BLOCK_RECORD
5
1
100
AcDbSymbolTable
70
2
0
BLOCK_RECORD
5
1F
100
AcDbSymbolTableRecord
100
AcDbBlockTableRecord
2
*MODEL_SPACE
0
BLOCK_RECORD
5
1B
100
AcDbSymbolTableRecord
100
AcDbBlockTableRecord
2
*PAPER_SPACE
0
ENDTAB
0
ENDSEC
0
SECTION
2
BLOCKS
0
BLOCK
5
20
100
AcDbEntity
100
AcDbBlockBegin
2
*MODEL_SPACE
0
ENDBLK
5
21
100
AcDbEntity
100
AcDbBlockEnd
0
BLOCK
5
1C
100
AcDbEntity
100
AcDbBlockBegin
2
*PAPER_SPACE
0
ENDBLK
5
1D
100
AcDbEntity
100
AcDbBlockEnd
0
ENDSEC
0
SECTION
2
ENTITIES
0
CIRCLE
5
100
100
AcDbEntity
8
CUTOUTS
100
AcDbCircle
10
12.007874015748033
20
6.4173228346456748
30
0
40
0.12992125984251901
210
0
220
0
230
1
0
CIRCLE
5
101
100
AcDbEntity
8
CUTOUTS
100
AcDbCircle
10
12.007874015748033
20
-7.8149606299212344
30
0
40
0.12992125984251901
210
0
220
0
230
1
0
CIRCLE
5
102
100
AcDbEntity
8
CUTOUTS
100
AcDbCircle
10
-6.0236220472440918
20
-9.0157480314960665
30
0
40
0.1299212598425197
210
0
220
0
230
1
0
CIRCLE
5
103
100
AcDbEntity
8
CUTOUTS
100
AcDbCircle
10
-12.00787401574803
20
-0.69881889763778349
30
0
40
0.12992125984251901
210
0
220
0
230
1
0
CIRCLE
5
104
100
AcDbEntity
8
CUTOUTS
100
AcDbCircle
10
9.4094488188976388
20
9.015748031496063
30
0
40
0.12992125984251901
210
0
220
0
230
1
0
CIRCLE
5
105
100
AcDbEntity
8
CUTOUTS
100
AcDbCircle
10
-2.0866141732283467
20
9.0157480314960647
30
0
40
0.1299212598425197
210
0
220
0
230
1
0
CIRCLE
5
106
100
AcDbEntity
8
CUTOUTS
100
AcDbCircle
10
-9.4094488188976317
20
9.0157480314960647
30
0
40
0.12992125984251901
210
0
220
0
230
1
0
CIRCLE
5
107
100
AcDbEntity
8
CUTOUTS
100
AcDbCircle
10
2.5984251968503949
20
9.0157480314960665
30
0
40
0.1299212598425197
210
0
220
0
230
1
0
CIRCLE
5
108
100
AcDbEntity
8
CUTOUTS
100
AcDbCircle
10
-12.00787401574803
20
6.4173228346456721
30
0
40
0.12992125984251901
210
0
220
0
230
1
0
CIRCLE
5
109
100
AcDbEntity
8
CUTOUTS
100
AcDbCircle
10
-12.00787401574803
20
-7.8149606299212371
30
0
40
0.12992125984251901
210
0
220
0
230
1
0
CIRCLE
5
10A
100
AcDbEntity
8
CUTOUTS
100
AcDbCircle
10
6.0236220472440953
20
-9.0157480314960665
30
0
40
0.1299212598425197
210
0
220
0
230
1
0
CIRCLE
5
10B
100
AcDbEntity
8
CUTOUTS
100
AcDbCircle
10
12.007874015748033
20
-0.69881889763778204
30
0
40
0.12992125984251901
210
0
220
0
230
1
0
CIRCLE
5
10C
100
AcDbEntity
8
CUTOUTS
100
AcDbCircle
10
1.7407956877546204e-15
20
-9.0157480314960594
30
0
40
0.12992125984251968
210
0
220
0
230
1
0
LINE
5
10D
100
AcDbEntity
8
PERIMETER
100
AcDbLine
10
2.0472440944881929
20
9.4881889763779572
30
0
11
2.0472440944881924
21
8.5039370078740166
31
0
0
ARC
5
10E
100
AcDbEntity
8
PERIMETER
100
AcDbCircle
10
1.9685039370078774
20
8.5039370078740166
30
0
40
0.078740157480314668
210
-0
220
0
230
1
100
AcDbArc
50
-89.999999999999844
51
0
0
LINE
5
10F
100
AcDbEntity
8
PERIMETER
100
AcDbLine
10
1.9685039370078776
20
8.4251968503937018
30
0
11
1.6141732283464585
21
8.4251968503937018
31
0
0
ARC
5
110
100
AcDbEntity
8
PERIMETER
100
AcDbCircle
10
1.6141732283464589
20
8.346456692913387
30
0
40
0.078740157480314668
210
0
220
0
230
1
100
AcDbArc
50
90.000000000000327
51
180
0
LINE
5
111
100
AcDbEntity
8
PERIMETER
100
AcDbLine
10
1.5354330708661441
20
8.346456692913387
30
0
11
1.5354330708661446
21
6.1811023622047303
31
0
0
LINE
5
112
100
AcDbEntity
8
PERIMETER
100
AcDbLine
10
1.5354330708661446
20
6.1811023622047303
30
0
11
1.2598425196850422
21
5.9055118110236275
31
0
0
LINE
5
113
100
AcDbEntity
8
PERIMETER
100
AcDbLine
10
1.2598425196850422
20
5.9055118110236275
30
0
11
-1.2598425196850365
21
5.9055118110236267
31
0
0
LINE
5
114
100
AcDbEntity
8
PERIMETER
100
AcDbLine
10
-1.2598425196850365
20
5.9055118110236267
30
0
11
-1.535433070866139
21
6.1811023622047285
31
0
0
LINE
5
115
100
AcDbEntity
8
PERIMETER
100
AcDbLine
10
-1.535433070866139
20
6.1811023622047285
30
0
11
-1.5354330708661392
21
9.488188976377959
31
0
0
ARC
5
116
100
AcDbEntity
8
PERIMETER
100
AcDbCircle
10
-1.614173228346454
20
9.488188976377959
30
0
40
0.078740157480314668
210
0
220
-0
230
1
100
AcDbArc
50
0
51
90.000000000000171
0
LINE
5
117
100
AcDbEntity
8
PERIMETER
100
AcDbLine
10
-1.6141732283464543
20
9.566929133858272
30
0
11
-9.8818897637795189
21
9.566929133858272
31
0
0
ARC
5
118
100
AcDbEntity
8
PERIMETER
100
AcDbCircle
10
-9.8818897637795207
20
9.488188976377959
30
0
40
0.07874015748031328
210
0
220
-0
230
1
100
AcDbArc
50
89.999999999998721
51
180
0
LINE
5
119
100
AcDbEntity
8
PERIMETER
100
AcDbLine
10
-9.9606299212598337
20
9.488188976377959
30
0
11
-9.9606299212598355
21
8.503937007874022
31
0
0
ARC
5
11A
100
AcDbEntity
8
PERIMETER
100
AcDbCircle
10
-10.03937007874015
20
8.503937007874022
30
0
40
0.078740157480314668
210
-0
220
0
230
1
100
AcDbArc
50
-90
51
0
0
LINE
5
11B
100
AcDbEntity
8
PERIMETER
100
AcDbLine
10
-10.03937007874015
20
8.4251968503937071
30
0
11
-11.338582677165354
21
8.4251968503937071
31
0
0
ARC
5
11C
100
AcDbEntity
8
PERIMETER
100
AcDbCircle
10
-11.338582677165354
20
8.3464566929133941
30
0
40
0.078740157480314668
210
0
220
-0
230
1
100
AcDbArc
50
90
51
180
0
LINE
5
11D
100
AcDbEntity
8
PERIMETER
100
AcDbLine
10
-11.417322834645669
20
8.3464566929133941
30
0
11
-11.417322834645665
21
7.0472440944881933
31
0
0
ARC
5
11E
100
AcDbEntity
8
PERIMETER
100
AcDbCircle
10
-11.49606299212598
20
7.0472440944881933
30
0
40
0.078740157480314668
210
-0
220
0
230
1
100
AcDbArc
50
-90
51
0
0
LINE
5
11F
100
AcDbEntity
8
PERIMETER
100
AcDbLine
10
-11.49606299212598
20
6.9685039370078785
30
0
11
-12.480314960629917
21
6.9685039370078776
31
0
0
ARC
5
120
100
AcDbEntity
8
PERIMETER
100
AcDbCircle
10
-12.480314960629917
20
6.889763779527561
30
0
40
0.07874015748031607
210
0
220
-0
230
1
100
AcDbArc
50
90
51
180
0
LINE
5
121
100
AcDbEntity
8
PERIMETER
100
AcDbLine
10
-12.559055118110233
20
6.889763779527561
30
0
11
-12.559055118110237
21
-8.2874015748031233
31
0
0
ARC
5
122
100
AcDbEntity
8
PERIMETER
100
AcDbCircle
10
-12.480314960629922
20
-8.2874015748031233
30
0
40
0.078740157480314668
210
0
220
0
230
1
100
AcDbArc
50
180
51
270
0
LINE
5
123
100
AcDbEntity
8
PERIMETER
100
AcDbLine
10
-12.480314960629922
20
-8.3661417322834382
30
0
11
-9.9606299212598284
21
-8.3661417322834382
31
0
0
ARC
5
124
100
AcDbEntity
8
PERIMETER
100
AcDbCircle
10
-9.9606299212598284
20
-8.2874015748031233
30
0
40
0.078740157480314668
210
-0
220
0
230
1
100
AcDbArc
50
-90
51
0
0
LINE
5
125
100
AcDbEntity
8
PERIMETER
100
AcDbLine
10
-9.8818897637795136
20
-8.2874015748031233
30
0
11
-9.8818897637795224
21
-6.6535433070866148
31
0
0
LINE
5
126
100
AcDbEntity
8
PERIMETER
100
AcDbLine
10
-9.8818897637795224
20
-6.6535433070866148
30
0
11
-9.5669291338582649
21
-6.3385826771653555
31
0
0
LINE
5
127
100
AcDbEntity
8
PERIMETER
100
AcDbLine
10
-9.5669291338582649
20
-6.3385826771653555
30
0
11
-6.8897637795275539
21
-6.3385826771653555
31
0
0
LINE
5
128
100
AcDbEntity
8
PERIMETER
100
AcDbLine
10
-6.8897637795275539
20
-6.3385826771653555
30
0
11
-6.5748031496062929
21
-6.6535433070866157
31
0
0
LINE
5
129
100
AcDbEntity
8
PERIMETER
100
AcDbLine
10
-6.5748031496062929
20
-6.6535433070866157
30
0
11
-6.5748031496062955
21
-9.4881889763779519
31
0
0
ARC
5
12A
100
AcDbEntity
8
PERIMETER
100
AcDbCircle
10
-6.4960629921259825
20
-9.4881889763779537
30
0
40
0.07874015748031328
210
0
220
0
230
1
100
AcDbArc
50
180
51
270.00000000000125
0
LINE
5
12B
100
AcDbEntity
8
PERIMETER
100
AcDbLine
10
-6.4960629921259807
20
-9.5669291338582667
30
0
11
6.4960629921259869
21
-9.5669291338582685
31
0
0
ARC
5
12C
100
AcDbEntity
8
PERIMETER
100
AcDbCircle
10
6.4960629921259869
20
-9.4881889763779537
30
0
40
0.078740157480314668
210
-0
220
0
230
1
100
AcDbArc
50
-90
51
0
0
LINE
5
12D
100
AcDbEntity
8
PERIMETER
100
AcDbLine
10
6.5748031496063009
20
-9.4881889763779537
30
0
11
6.5748031496063009
21
-6.6535433070866157
31
0
0
LINE
5
12E
100
AcDbEntity
8
PERIMETER
100
AcDbLine
10
6.5748031496063009
20
-6.6535433070866157
30
0
11
6.889763779527561
21
-6.3385826771653573
31
0
0
LINE
5
12F
100
AcDbEntity
8
PERIMETER
100
AcDbLine
10
6.889763779527561
20
-6.3385826771653573
30
0
11
9.566929133858272
21
-6.3385826771653573
31
0
0
LINE
5
130
100
AcDbEntity
8
PERIMETER
100
AcDbLine
10
9.566929133858272
20
-6.3385826771653573
30
0
11
9.8818897637795313
21
-6.6535433070866175
31
0
0
LINE
5
131
100
AcDbEntity
8
PERIMETER
100
AcDbLine
10
9.8818897637795313
20
-6.6535433070866175
30
0
11
9.8818897637795207
21
-8.2874015748031304
31
0
0
ARC
5
132
100
AcDbEntity
8
PERIMETER
100
AcDbCircle
10
9.9606299212598337
20
-8.2874015748031322
30
0
40
0.07874015748031328
210
0
220
0
230
1
100
AcDbArc
50
180
51
270.00000000000125
0
LINE
5
133
100
AcDbEntity
8
PERIMETER
100
AcDbLine
10
9.9606299212598355
20
-8.3661417322834453
30
0
11
12.480314960629928
21
-8.366141732283447
31
0
0
ARC
5
134
100
AcDbEntity
8
PERIMETER
100
AcDbCircle
10
12.480314960629928
20
-8.2874015748031304
30
0
40
0.07874015748031607
210
-0
220
0
230
1
100
AcDbArc
50
-90
51
0
0
LINE
5
135
100
AcDbEntity
8
PERIMETER
100
AcDbLine
10
12.559055118110244
20
-8.2874015748031304
30
0
11
12.559055118110241
21
6.889763779527561
31
0
0
ARC
5
136
100
AcDbEntity
8
PERIMETER
100
AcDbCircle
10
12.480314960629926
20
6.889763779527561
30
0
40
0.078740157480314668
210
0
220
-0
230
1
100
AcDbArc
50
0
51
90
0
LINE
5
137
100
AcDbEntity
8
PERIMETER
100
AcDbLine
10
12.480314960629926
20
6.9685039370078758
30
0
11
11.496062992125992
21
6.968503937007875
31
0
0
ARC
5
138
100
AcDbEntity
8
PERIMETER
100
AcDbCircle
10
11.496062992125992
20
7.0472440944881889
30
0
40
0.078740157480314668
210
0
220
0
230
1
100
AcDbArc
50
180
51
270
0
LINE
5
139
100
AcDbEntity
8
PERIMETER
100
AcDbLine
10
11.417322834645677
20
7.0472440944881889
30
0
11
11.417322834645679
21
8.3464566929133888
31
0
0
ARC
5
13A
100
AcDbEntity
8
PERIMETER
100
AcDbCircle
10
11.338582677165364
20
8.3464566929133888
30
0
40
0.078740157480314668
210
0
220
-0
230
1
100
AcDbArc
50
0
51
90
0
LINE
5
13B
100
AcDbEntity
8
PERIMETER
100
AcDbLine
10
11.338582677165364
20
8.4251968503937036
30
0
11
10.039370078740163
21
8.4251968503937036
31
0
0
ARC
5
13C
100
AcDbEntity
8
PERIMETER
100
AcDbCircle
10
10.039370078740163
20
8.5039370078740184
30
0
40
0.078740157480314668
210
0
220
0
230
1
100
AcDbArc
50
180
51
270
0
LINE
5
13D
100
AcDbEntity
8
PERIMETER
100
AcDbLine
10
9.9606299212598479
20
8.5039370078740184
30
0
11
9.9606299212598461
21
9.4881889763779572
31
0
0
ARC
5
13E
100
AcDbEntity
8
PERIMETER
100
AcDbCircle
10
9.8818897637795313
20
9.4881889763779572
30
0
40
0.078740157480314668
210
0
220
-0
230
1
100
AcDbArc
50
0
51
90
0
LINE
5
13F
100
AcDbEntity
8
PERIMETER
100
AcDbLine
10
9.8818897637795313
20
9.566929133858272
30
0
11
2.1259842519685073
21
9.566929133858272
31
0
0
ARC
5
140
100
AcDbEntity
8
PERIMETER
100
AcDbCircle
10
2.1259842519685077
20
9.4881889763779572
30
0
40
0.078740157480314668
210
0
220
0
230
1
100
AcDbArc
50
90.000000000000327
51
180
0
ENDSEC
0
SECTION
2
OBJECTS
0
DICTIONARY
5
C
100
AcDbDictionary
3
ACAD_GROUP
350
D
3
ACAD_MLINESTYLE
350
17
0
DICTIONARY
5
D
100
AcDbDictionary
0
DICTIONARY
5
1A
330
C
100
AcDbDictionary
0
DICTIONARY
5
17
100
AcDbDictionary
0
ENDSEC
0
EOF
