0
SECTION
2
HEADER
9
$INSUNITS
70
1
9
$ACADVER
1
AC1014
9
$HANDSEED
5
FFFF
0
ENDSEC
0
SECTION
2
TABLES
0
TABLE
2
VPORT
5
8
100
AcDbSymbolTable
0
ENDTAB
0
TABLE
2
LTYPE
5
5
100
AcDbSymbolTable
70
2
0
LTYPE
5
14
100
AcDbSymbolTableRecord
100
AcDbLinetypeTableRecord
2
BYBLOCK
70
0
0
LTYPE
5
15
100
AcDbSymbolTableRecord
100
AcDbLinetypeTableRecord
2
BYLAYER
70
0
0
ENDTAB
0
TABLE
2
LAYER
5
2
100
AcDbSymbolTable
70
3
0
LAYER
5
50
100
AcDbSymbolTableRecord
100
AcDbLayerTableRecord
2
0
70
0
6
CONTINUOUS
0
LAYER
5
51
100
AcDbSymbolTableRecord
100
AcDbLayerTableRecord
2
CUTOUTS
70
0
62
1
6
CONTINUOUS
0
LAYER
5
52
100
AcDbSymbolTableRecord
100
AcDbLayerTableRecord
2
PERIMETER
70
0
62
5
6
CONTINUOUS
0
ENDTAB
0
TABLE
2
STYLE
5
3
100
AcDbSymbolTable
70
1
0
STYLE
5
11
100
AcDbSymbolTableRecord
100
AcDbTextStyleTableRecord
2
STANDARD
70
0
0
ENDTAB
0
TABLE
2
VIEW
5
6
100
AcDbSymbolTable
0
ENDTAB
0
TABLE
2
UCS
5
7
100
AcDbSymbolTable
0
ENDTAB
0
TABLE
2
APPID
5
9
100
AcDbSymbolTable
70
1
0
APPID
5
12
100
AcDbSymbolTableRecord
100
AcDbRegAppTableRecord
2
ACAD
70
0
0
ENDTAB
0
TABLE
2
DIMSTYLE
5
A
100
AcDbSymbolTable
0
ENDTAB
0
TABLE
2
BLOCK_RECORD
5
1
100
AcDbSymbolTable
70
2
0
BLOCK_RECORD
5
1F
100
AcDbSymbolTableRecord
100
AcDbBlockTableRecord
2
*MODEL_SPACE
0
BLOCK_RECORD
5
1B
100
AcDbSymbolTableRecord
100
AcDbBlockTableRecord
2
*PAPER_SPACE
0
ENDTAB
0
ENDSEC
0
SECTION
2
BLOCKS
0
BLOCK
5
20
100
AcDbEntity
100
AcDbBlockBegin
2
*MODEL_SPACE
0
ENDBLK
5
21
100
AcDbEntity
100
AcDbBlockEnd
0
BLOCK
5
1C
100
AcDbEntity
100
AcDbBlockBegin
2
*PAPER_SPACE
0
ENDBLK
5
1D
100
AcDbEntity
100
AcDbBlockEnd
0
ENDSEC
0
SECTION
2
ENTITIES
0
CIRCLE
5
100
100
AcDbEntity
8
CUTOUTS
100
AcDbCircle
10
7.0767716535433038
20
4.7145669291338592
30
0
40
0.13779527559055174
210
0
220
0
230
1
0
CIRCLE
5
101
100
AcDbEntity
8
CUTOUTS
100
AcDbCircle
10
5.6988188976377883
20
0.48228346456696253
30
0
40
0.31496062992126012
210
0
220
0
230
1
0
CIRCLE
5
102
100
AcDbEntity
8
CUTOUTS
100
AcDbCircle
10
6.0531496062992236
20
-5.1279527559110294
30
0
40
0.13779527559055102
210
0
220
0
230
1
0
CIRCLE
5
103
100
AcDbEntity
8
CUTOUTS
100
AcDbCircle
10
-5.7185039370078634
20
-5.1279527559110294
30
0
40
0.13779527559055102
210
0
220
0
230
1
0
CIRCLE
5
104
100
AcDbEntity
8
CUTOUTS
100
AcDbCircle
10
-6.8996062992125848
20
0.5610236220440924
30
0
40
0.13779527559055174
210
0
220
0
230
1
0
CIRCLE
5
105
100
AcDbEntity
8
CUTOUTS
100
AcDbCircle
10
-6.8996062992096725
20
5.0688976377921229
30
0
40
0.13779527559055174
210
0
220
0
230
1
0
CIRCLE
5
106
100
AcDbEntity
8
CUTOUTS
100
AcDbCircle
10
-6.8996062992125875
20
-3.946850393703937
30
0
40
0.13779527559055174
210
0
220
0
230
1
0
CIRCLE
5
107
100
AcDbEntity
8
CUTOUTS
100
AcDbCircle
10
0.16732283464568073
20
-5.1279527559110294
30
0
40
0.13779527559055121
210
0
220
0
230
1
0
CIRCLE
5
108
100
AcDbEntity
8
CUTOUTS
100
AcDbCircle
10
5.6988188976377883
20
4.872047244094496
30
0
40
0.070866141732283353
210
0
220
0
230
1
0
CIRCLE
5
109
100
AcDbEntity
8
CUTOUTS
100
AcDbCircle
10
2.1555118110236156
20
4.872047244094496
30
0
40
0.070866141732283353
210
0
220
0
230
1
0
CIRCLE
5
10A
100
AcDbEntity
8
CUTOUTS
100
AcDbCircle
10
4.9704724409448762
20
2.4114173228346525
30
0
40
0.06102362204724384
210
0
220
0
230
1
0
CIRCLE
5
10B
100
AcDbEntity
8
CUTOUTS
100
AcDbCircle
10
2.6870078740157419
20
0.48228346456693527
30
0
40
0.061023622047244187
210
0
220
0
230
1
0
CIRCLE
5
10C
100
AcDbEntity
8
CUTOUTS
100
AcDbCircle
10
4.9704724409448762
20
0.48228346456693594
30
0
40
0.06102362204724384
210
0
220
0
230
1
0
CIRCLE
5
10D
100
AcDbEntity
8
CUTOUTS
100
AcDbCircle
10
2.687007874015741
20
2.4114173228346516
30
0
40
0.061023622047244187
210
0
220
0
230
1
0
CIRCLE
5
10E
100
AcDbEntity
8
CUTOUTS
100
AcDbCircle
10
7.0767716535433038
20
0.77755905511811141
30
0
40
0.13779527559055174
210
0
220
0
230
1
0
CIRCLE
5
10F
100
AcDbEntity
8
CUTOUTS
100
AcDbCircle
10
7.0767716535433038
20
-3.1594488188976362
30
0
40
0.13779527559055174
210
0
220
0
230
1
0
LINE
5
110
100
AcDbEntity
8
PERIMETER
100
AcDbLine
10
7.4114173228346418
20
-2.194881889763777
30
0
11
6.742125984251965
21
-2.1948818897637783
31
0
0
ARC
5
111
100
AcDbEntity
8
PERIMETER
100
AcDbCircle
10
6.742125984251965
20
-2.1161417322834635
30
0
40
0.078740157480314668
210
0
220
0
230
1
100
AcDbArc
50
180
51
270
0
LINE
5
112
100
AcDbEntity
8
PERIMETER
100
AcDbLine
10
6.6633858267716501
20
-2.1161417322834635
30
0
11
6.6633858267716519
21
-0.26574803149606113
31
0
0
ARC
5
113
100
AcDbEntity
8
PERIMETER
100
AcDbCircle
10
6.742125984251965
20
-0.26574803149606113
30
0
40
0.078740157480314668
210
0
220
-0
230
1
100
AcDbArc
50
90
51
180
0
LINE
5
114
100
AcDbEntity
8
PERIMETER
100
AcDbLine
10
6.742125984251965
20
-0.18700787401574648
30
0
11
7.4114173228346418
21
-0.18700787401574648
31
0
0
ARC
5
115
100
AcDbEntity
8
PERIMETER
100
AcDbCircle
10
7.4114173228346418
20
-0.14763779527558984
30
0
40
0.03937007874015664
210
-0
220
0
230
1
100
AcDbArc
50
-90
51
0
0
LINE
5
116
100
AcDbEntity
8
PERIMETER
100
AcDbLine
10
7.4507874015747984
20
-0.14763779527558984
30
0
11
7.4507874015748001
21
1.7027559055118127
31
0
0
ARC
5
117
100
AcDbEntity
8
PERIMETER
100
AcDbCircle
10
7.4114173228346418
20
1.7027559055118127
30
0
40
0.039370078740158035
210
0
220
-0
230
1
100
AcDbArc
50
0
51
90
0
LINE
5
118
100
AcDbEntity
8
PERIMETER
100
AcDbLine
10
7.4114173228346418
20
1.7421259842519701
30
0
11
6.742125984251965
21
1.7421259842519694
31
0
0
ARC
5
119
100
AcDbEntity
8
PERIMETER
100
AcDbCircle
10
6.742125984251965
20
1.820866141732284
30
0
40
0.078740157480314668
210
0
220
0
230
1
100
AcDbArc
50
180
51
270
0
LINE
5
11A
100
AcDbEntity
8
PERIMETER
100
AcDbLine
10
6.6633858267716501
20
1.820866141732284
30
0
11
6.6633858267716519
21
3.6712598425196865
31
0
0
ARC
5
11B
100
AcDbEntity
8
PERIMETER
100
AcDbCircle
10
6.742125984251965
20
3.6712598425196865
30
0
40
0.078740157480314668
210
0
220
-0
230
1
100
AcDbArc
50
90
51
180
0
LINE
5
11C
100
AcDbEntity
8
PERIMETER
100
AcDbLine
10
6.742125984251965
20
3.7500000000000013
30
0
11
7.4114173228346418
21
3.7500000000000013
31
0
0
ARC
5
11D
100
AcDbEntity
8
PERIMETER
100
AcDbCircle
10
7.4114173228346418
20
3.7893700787401579
30
0
40
0.03937007874015664
210
-0
220
0
230
1
100
AcDbArc
50
-90
51
0
0
LINE
5
11E
100
AcDbEntity
8
PERIMETER
100
AcDbLine
10
7.4507874015747984
20
3.7893700787401579
30
0
11
7.4507874015748001
21
5.6397637795275601
31
0
0
ARC
5
11F
100
AcDbEntity
8
PERIMETER
100
AcDbCircle
10
7.4114173228346418
20
5.6397637795275601
30
0
40
0.039370078740158035
210
0
220
-0
230
1
100
AcDbArc
50
0
51
90
0
LINE
5
120
100
AcDbEntity
8
PERIMETER
100
AcDbLine
10
7.4114173228346418
20
5.6791338582677175
30
0
11
-7.4507874015747975
21
5.6791338582677167
31
0
0
LINE
5
121
100
AcDbEntity
8
PERIMETER
100
AcDbLine
10
-7.4507874015747975
20
5.6791338582677167
30
0
11
-7.4507874015748001
21
-4.4192913385826769
31
0
0
ARC
5
122
100
AcDbEntity
8
PERIMETER
100
AcDbCircle
10
-7.3720472440944871
20
-4.4192913385826769
30
0
40
0.07874015748031328
210
0
220
0
230
1
100
AcDbArc
50
180
51
270.00000000000261
0
LINE
5
123
100
AcDbEntity
8
PERIMETER
100
AcDbLine
10
-7.3720472440944835
20
-4.4980314960629899
30
0
11
-6.3484251968503997
21
-4.4980314960629926
31
0
0
ARC
5
124
100
AcDbEntity
8
PERIMETER
100
AcDbCircle
10
-6.3484251968503997
20
-4.5767716535433074
30
0
40
0.07874015748031607
210
0
220
-0
230
1
100
AcDbArc
50
0
51
90
0
LINE
5
125
100
AcDbEntity
8
PERIMETER
100
AcDbLine
10
-6.269685039370084
20
-4.5767716535433074
30
0
11
-6.269685039370084
21
-5.6003937007874036
31
0
0
ARC
5
126
100
AcDbEntity
8
PERIMETER
100
AcDbCircle
10
-6.1909448818897648
20
-5.600393700787401
30
0
40
0.078740157480318873
210
0
220
0
230
1
100
AcDbArc
50
180
51
269.99999999999744
0
LINE
5
127
100
AcDbEntity
8
PERIMETER
100
AcDbLine
10
-6.1909448818897683
20
-5.6791338582677202
30
0
11
6.6633858267716501
21
-5.6791338582677131
31
0
0
LINE
5
128
100
AcDbEntity
8
PERIMETER
100
AcDbLine
10
6.6633858267716501
20
-5.6791338582677131
30
0
11
6.6633858267716501
21
-4.2224409448818863
31
0
0
ARC
5
129
100
AcDbEntity
8
PERIMETER
100
AcDbCircle
10
6.7618110236220446
20
-4.2224409448818863
30
0
40
0.098425196850393692
210
0
220
-0
230
1
100
AcDbArc
50
90
51
180
0
LINE
5
12A
100
AcDbEntity
8
PERIMETER
100
AcDbLine
10
6.7618110236220446
20
-4.1240157480314927
30
0
11
7.4114173228346418
21
-4.1240157480314945
31
0
0
ARC
5
12B
100
AcDbEntity
8
PERIMETER
100
AcDbCircle
10
7.4114173228346418
20
-4.0846456692913371
30
0
40
0.03937007874015664
210
-0
220
0
230
1
100
AcDbArc
50
-90
51
0
0
LINE
5
12C
100
AcDbEntity
8
PERIMETER
100
AcDbLine
10
7.4507874015747984
20
-4.0846456692913371
30
0
11
7.4507874015748001
21
-2.2342519685039348
31
0
0
ARC
5
12D
100
AcDbEntity
8
PERIMETER
100
AcDbCircle
10
7.4114173228346418
20
-2.2342519685039348
30
0
40
0.039370078740158035
210
0
220
-0
230
1
100
AcDbArc
50
0
51
90
0
ENDSEC
0
SECTION
2
OBJECTS
0
DICTIONARY
5
C
100
AcDbDictionary
3
ACAD_GROUP
350
D
3
ACAD_MLINESTYLE
350
17
0
DICTIONARY
5
D
100
AcDbDictionary
0
DICTIONARY
5
1A
330
C
100
AcDbDictionary
0
DICTIONARY
5
17
100
AcDbDictionary
0
ENDSEC
0
EOF
