0
SECTION
2
HEADER
9
$INSUNITS
70
1
9
$ACADVER
1
AC1014
9
$HANDSEED
5
FFFF
0
ENDSEC
0
SECTION
2
TABLES
0
TABLE
2
VPORT
5
8
100
AcDbSymbolTable
0
ENDTAB
0
TABLE
2
LTYPE
5
5
100
AcDbSymbolTable
70
2
0
LTYPE
5
14
100
AcDbSymbolTableRecord
100
AcDbLinetypeTableRecord
2
BYBLOCK
70
0
0
LTYPE
5
15
100
AcDbSymbolTableRecord
100
AcDbLinetypeTableRecord
2
BYLAYER
70
0
0
ENDTAB
0
TABLE
2
LAYER
5
2
100
AcDbSymbolTable
70
3
0
LAYER
5
50
100
AcDbSymbolTableRecord
100
AcDbLayerTableRecord
2
0
70
0
6
CONTINUOUS
0
LAYER
5
51
100
AcDbSymbolTableRecord
100
AcDbLayerTableRecord
2
CUTOUTS
70
0
62
1
6
CONTINUOUS
0
LAYER
5
52
100
AcDbSymbolTableRecord
100
AcDbLayerTableRecord
2
PERIMETER
70
0
62
5
6
CONTINUOUS
0
ENDTAB
0
TABLE
2
STYLE
5
3
100
AcDbSymbolTable
70
1
0
STYLE
5
11
100
AcDbSymbolTableRecord
100
AcDbTextStyleTableRecord
2
STANDARD
70
0
0
ENDTAB
0
TABLE
2
VIEW
5
6
100
AcDbSymbolTable
0
ENDTAB
0
TABLE
2
UCS
5
7
100
AcDbSymbolTable
0
ENDTAB
0
TABLE
2
APPID
5
9
100
AcDbSymbolTable
70
1
0
APPID
5
12
100
AcDbSymbolTableRecord
100
AcDbRegAppTableRecord
2
ACAD
70
0
0
ENDTAB
0
TABLE
2
DIMSTYLE
5
A
100
AcDbSymbolTable
0
ENDTAB
0
TABLE
2
BLOCK_RECORD
5
1
100
AcDbSymbolTable
70
2
0
BLOCK_RECORD
5
1F
100
AcDbSymbolTableRecord
100
AcDbBlockTableRecord
2
*MODEL_SPACE
0
BLOCK_RECORD
5
1B
100
AcDbSymbolTableRecord
100
AcDbBlockTableRecord
2
*PAPER_SPACE
0
ENDTAB
0
ENDSEC
0
SECTION
2
BLOCKS
0
BLOCK
5
20
100
AcDbEntity
100
AcDbBlockBegin
2
*MODEL_SPACE
0
ENDBLK
5
21
100
AcDbEntity
100
AcDbBlockEnd
0
BLOCK
5
1C
100
AcDbEntity
100
AcDbBlockBegin
2
*PAPER_SPACE
0
ENDBLK
5
1D
100
AcDbEntity
100
AcDbBlockEnd
0
ENDSEC
0
SECTION
2
ENTITIES
0
CIRCLE
5
100
100
AcDbEntity
8
CUTOUTS
100
AcDbCircle
10
15.059057454747972
20
2.5295275590551167
30
0
40
0.12992125984251901
210
0
220
0
230
1
0
CIRCLE
5
101
100
AcDbEntity
8
CUTOUTS
100
AcDbCircle
10
15.059057454747981
20
7.3326771653543288
30
0
40
0.12992125984251901
210
0
220
0
230
1
0
CIRCLE
5
102
100
AcDbEntity
8
CUTOUTS
100
AcDbCircle
10
15.059057454747991
20
-14.242125984251876
30
0
40
0.12992125984251901
210
0
220
0
230
1
0
CIRCLE
5
103
100
AcDbEntity
8
CUTOUTS
100
AcDbCircle
10
15.059057454747975
20
13.90748031496063
30
0
40
0.12992125984251901
210
0
220
0
230
1
0
CIRCLE
5
104
100
AcDbEntity
8
CUTOUTS
100
AcDbCircle
10
15.059057454747975
20
13.316929133858268
30
0
40
0.12992125984251901
210
0
220
0
230
1
0
CIRCLE
5
105
100
AcDbEntity
8
CUTOUTS
100
AcDbCircle
10
15.059057454747991
20
-14.832677165354239
30
0
40
0.12992125984251901
210
0
220
0
230
1
0
CIRCLE
5
106
100
AcDbEntity
8
CUTOUTS
100
AcDbCircle
10
15.059057454747981
20
3.8287401574803139
30
0
40
0.12992125984251901
210
0
220
0
230
1
0
CIRCLE
5
107
100
AcDbEntity
8
CUTOUTS
100
AcDbCircle
10
15.059057454747972
20
1.9389763779527547
30
0
40
0.12992125984251901
210
0
220
0
230
1
0
CIRCLE
5
108
100
AcDbEntity
8
CUTOUTS
100
AcDbCircle
10
-15.059057454748018
20
2.5295275590551167
30
0
40
0.12992125984251901
210
0
220
0
230
1
0
CIRCLE
5
109
100
AcDbEntity
8
CUTOUTS
100
AcDbCircle
10
-15.059057454748025
20
7.3326771653543288
30
0
40
0.12992125984251901
210
0
220
0
230
1
0
CIRCLE
5
10A
100
AcDbEntity
8
CUTOUTS
100
AcDbCircle
10
-15.059057454748038
20
-14.242125984251876
30
0
40
0.12992125984251901
210
0
220
0
230
1
0
CIRCLE
5
10B
100
AcDbEntity
8
CUTOUTS
100
AcDbCircle
10
-15.05905745474802
20
13.90748031496063
30
0
40
0.12992125984251901
210
0
220
0
230
1
0
CIRCLE
5
10C
100
AcDbEntity
8
CUTOUTS
100
AcDbCircle
10
-15.05905745474802
20
13.316929133858268
30
0
40
0.12992125984251901
210
0
220
0
230
1
0
CIRCLE
5
10D
100
AcDbEntity
8
CUTOUTS
100
AcDbCircle
10
-15.059057454748038
20
-14.832677165354239
30
0
40
0.12992125984251901
210
0
220
0
230
1
0
CIRCLE
5
10E
100
AcDbEntity
8
CUTOUTS
100
AcDbCircle
10
-15.059057454748025
20
3.8287401574803139
30
0
40
0.12992125984251901
210
0
220
0
230
1
0
CIRCLE
5
10F
100
AcDbEntity
8
CUTOUTS
100
AcDbCircle
10
-15.059057454748018
20
1.9389763779527547
30
0
40
0.12992125984251901
210
0
220
0
230
1
0
LINE
5
110
100
AcDbEntity
8
PERIMETER
100
AcDbLine
10
15.362486855582146
20
-15.757874015747921
30
0
11
16.45669523953871
21
-15.757874015747927
31
0
0
ARC
5
111
100
AcDbEntity
8
PERIMETER
100
AcDbCircle
10
16.45669523953871
20
-15.679133858267607
30
0
40
0.078740157480318873
210
-0
220
0
230
1
100
AcDbArc
50
-90
51
4.3534084824281419e-06
0
LINE
5
112
100
AcDbEntity
8
PERIMETER
100
AcDbLine
10
16.535435397019029
20
-15.679133852276232
30
0
11
16.535433081351037
21
14.753937013865412
31
0
0
ARC
5
113
100
AcDbEntity
8
PERIMETER
100
AcDbCircle
10
16.456692923870719
20
14.753937007874034
30
0
40
0.078740157480319095
210
0
220
-0
230
1
100
AcDbArc
50
4.3534084824281419e-06
51
89.999999999987068
0
LINE
5
114
100
AcDbEntity
8
PERIMETER
100
AcDbLine
10
16.456692923870733
20
14.832677165354351
30
0
11
15.362484518944337
21
14.832677165354347
31
0
0
ARC
5
115
100
AcDbEntity
8
PERIMETER
100
AcDbCircle
10
15.362484518944337
20
14.911417322834664
30
0
40
0.078740157480314793
210
0
220
0
230
1
100
AcDbArc
50
225
51
270
0
LINE
5
116
100
AcDbEntity
8
PERIMETER
100
AcDbLine
10
15.306806819638309
20
14.855739623528637
30
0
11
12.956133324315957
21
17.206413118850939
31
0
0
ARC
5
117
100
AcDbEntity
8
PERIMETER
100
AcDbCircle
10
13.011811023621981
20
17.262090818156963
30
0
40
0.07874015748031607
210
0
220
0
230
1
100
AcDbArc
50
180
51
225
0
LINE
5
118
100
AcDbEntity
8
PERIMETER
100
AcDbLine
10
12.933070866141664
20
17.262090818156963
30
0
11
12.933070866141664
21
18.356299212598437
31
0
0
ARC
5
119
100
AcDbEntity
8
PERIMETER
100
AcDbCircle
10
12.854330708661346
20
18.356299212598437
30
0
40
0.078740157480318873
210
0
220
0
230
1
100
AcDbArc
50
0
51
89.999999999993548
0
LINE
5
11A
100
AcDbEntity
8
PERIMETER
100
AcDbLine
10
12.854330708661351
20
18.435039370078755
30
0
11
-12.854330708661395
21
18.435039370078727
31
0
0
ARC
5
11B
100
AcDbEntity
8
PERIMETER
100
AcDbCircle
10
-12.854330708661399
20
18.356299212598408
30
0
40
0.07874015748031328
210
0
220
-0
230
1
100
AcDbArc
50
89.999999999997414
51
180
0
LINE
5
11C
100
AcDbEntity
8
PERIMETER
100
AcDbLine
10
-12.933070866141712
20
18.356299212598408
30
0
11
-12.93307086614171
21
17.262090818156945
31
0
0
ARC
5
11D
100
AcDbEntity
8
PERIMETER
100
AcDbCircle
10
-13.011811023622025
20
17.262090818156945
30
0
40
0.078740157480316778
210
-0
220
0
230
1
100
AcDbArc
50
-45
51
0
0
LINE
5
11E
100
AcDbEntity
8
PERIMETER
100
AcDbLine
10
-12.956133324315998
20
17.206413118850922
30
0
11
-15.306806819638346
21
14.855739623528617
31
0
0
ARC
5
11F
100
AcDbEntity
8
PERIMETER
100
AcDbCircle
10
-15.362484518944372
20
14.911417322834644
30
0
40
0.07874015748031607
210
-0
220
0
230
1
100
AcDbArc
50
270
51
314.99999999999909
0
LINE
5
120
100
AcDbEntity
8
PERIMETER
100
AcDbLine
10
-15.362484518944372
20
14.832677165354331
30
0
11
-16.456692923870758
21
14.832677165354331
31
0
0
ARC
5
121
100
AcDbEntity
8
PERIMETER
100
AcDbCircle
10
-16.456692923870758
20
14.753937007874015
30
0
40
0.07874015748031607
210
0
220
-0
230
1
100
AcDbArc
50
90
51
179.99999573113178
0
LINE
5
122
100
AcDbEntity
8
PERIMETER
100
AcDbLine
10
-16.535433081351073
20
14.753937013865395
30
0
11
-16.535435397019025
21
-15.67913385227625
31
0
0
ARC
5
123
100
AcDbEntity
8
PERIMETER
100
AcDbCircle
10
-16.45669523953871
20
-15.679133858267633
30
0
40
0.078740157480316306
210
0
220
0
230
1
100
AcDbArc
50
179.99999573113178
51
270
0
LINE
5
124
100
AcDbEntity
8
PERIMETER
100
AcDbLine
10
-16.45669523953871
20
-15.757874015747948
30
0
11
-15.362486855582144
21
-15.757874015747941
31
0
0
ARC
5
125
100
AcDbEntity
8
PERIMETER
100
AcDbCircle
10
-15.362486855582144
20
-15.836614173228256
30
0
40
0.078740157480316778
210
0
220
-0
230
1
100
AcDbArc
50
44.999999999998174
51
90
0
LINE
5
126
100
AcDbEntity
8
PERIMETER
100
AcDbLine
10
-15.306809156276113
20
-15.780936473922228
30
0
11
-12.956135660953825
21
-18.131609969244622
31
0
0
ARC
5
127
100
AcDbEntity
8
PERIMETER
100
AcDbCircle
10
-13.011813360259852
20
-18.187287668550645
30
0
40
0.07874015748031607
210
0
220
-0
230
1
100
AcDbArc
50
0
51
44.999999999999091
0
LINE
5
128
100
AcDbEntity
8
PERIMETER
100
AcDbLine
10
-12.933073202779536
20
-18.187287668550645
30
0
11
-12.933073202779534
21
-18.356299212598422
31
0
0
ARC
5
129
100
AcDbEntity
8
PERIMETER
100
AcDbCircle
10
-12.854333045299217
20
-18.356299212598422
30
0
40
0.07874015748031607
210
0
220
0
230
1
100
AcDbArc
50
180
51
270
0
LINE
5
12A
100
AcDbEntity
8
PERIMETER
100
AcDbLine
10
-12.854333045299217
20
-18.435039370078741
30
0
11
12.854333045299223
21
-18.435039370078751
31
0
0
ARC
5
12B
100
AcDbEntity
8
PERIMETER
100
AcDbCircle
10
12.854333045299226
20
-18.35629921259844
30
0
40
0.078740157480310477
210
0
220
0
230
1
100
AcDbArc
50
-90.000000000002586
51
0
0
LINE
5
12C
100
AcDbEntity
8
PERIMETER
100
AcDbLine
10
12.933073202779536
20
-18.35629921259844
30
0
11
12.933073202779534
21
-18.187287668550628
31
0
0
ARC
5
12D
100
AcDbEntity
8
PERIMETER
100
AcDbCircle
10
13.01181336025985
20
-18.187287668550628
30
0
40
0.078740157480314793
210
0
220
0
230
1
100
AcDbArc
50
135.00000000000367
51
180
0
LINE
5
12E
100
AcDbEntity
8
PERIMETER
100
AcDbLine
10
12.956135660953819
20
-18.131609969244604
30
0
11
15.30680915627612
21
-15.780936473922209
31
0
0
ARC
5
12F
100
AcDbEntity
8
PERIMETER
100
AcDbCircle
10
15.362486855582146
20
-15.836614173228236
30
0
40
0.07874015748031607
210
0
220
-0
230
1
100
AcDbArc
50
90
51
134.99999999999909
0
ENDSEC
0
SECTION
2
OBJECTS
0
DICTIONARY
5
C
100
AcDbDictionary
3
ACAD_GROUP
350
D
3
ACAD_MLINESTYLE
350
17
0
DICTIONARY
5
D
100
AcDbDictionary
0
DICTIONARY
5
1A
330
C
100
AcDbDictionary
0
DICTIONARY
5
17
100
AcDbDictionary
0
ENDSEC
0
EOF
