0
SECTION
2
HEADER
9
$INSUNITS
70
1
9
$ACADVER
1
AC1014
9
$HANDSEED
5
FFFF
0
ENDSEC
0
SECTION
2
TABLES
0
TABLE
2
VPORT
5
8
100
AcDbSymbolTable
0
ENDTAB
0
TABLE
2
LTYPE
5
5
100
AcDbSymbolTable
70
2
0
LTYPE
5
14
100
AcDbSymbolTableRecord
100
AcDbLinetypeTableRecord
2
BYBLOCK
70
0
0
LTYPE
5
15
100
AcDbSymbolTableRecord
100
AcDbLinetypeTableRecord
2
BYLAYER
70
0
0
ENDTAB
0
TABLE
2
LAYER
5
2
100
AcDbSymbolTable
70
3
0
LAYER
5
50
100
AcDbSymbolTableRecord
100
AcDbLayerTableRecord
2
0
70
0
6
CONTINUOUS
0
LAYER
5
51
100
AcDbSymbolTableRecord
100
AcDbLayerTableRecord
2
CUTOUTS
70
0
62
1
6
CONTINUOUS
0
LAYER
5
52
100
AcDbSymbolTableRecord
100
AcDbLayerTableRecord
2
PERIMETER
70
0
62
5
6
CONTINUOUS
0
ENDTAB
0
TABLE
2
STYLE
5
3
100
AcDbSymbolTable
70
1
0
STYLE
5
11
100
AcDbSymbolTableRecord
100
AcDbTextStyleTableRecord
2
STANDARD
70
0
0
ENDTAB
0
TABLE
2
VIEW
5
6
100
AcDbSymbolTable
0
ENDTAB
0
TABLE
2
UCS
5
7
100
AcDbSymbolTable
0
ENDTAB
0
TABLE
2
APPID
5
9
100
AcDbSymbolTable
70
1
0
APPID
5
12
100
AcDbSymbolTableRecord
100
AcDbRegAppTableRecord
2
ACAD
70
0
0
ENDTAB
0
TABLE
2
DIMSTYLE
5
A
100
AcDbSymbolTable
0
ENDTAB
0
TABLE
2
BLOCK_RECORD
5
1
100
AcDbSymbolTable
70
2
0
BLOCK_RECORD
5
1F
100
AcDbSymbolTableRecord
100
AcDbBlockTableRecord
2
*MODEL_SPACE
0
BLOCK_RECORD
5
1B
100
AcDbSymbolTableRecord
100
AcDbBlockTableRecord
2
*PAPER_SPACE
0
ENDTAB
0
ENDSEC
0
SECTION
2
BLOCKS
0
BLOCK
5
20
100
AcDbEntity
100
AcDbBlockBegin
2
*MODEL_SPACE
0
ENDBLK
5
21
100
AcDbEntity
100
AcDbBlockEnd
0
BLOCK
5
1C
100
AcDbEntity
100
AcDbBlockBegin
2
*PAPER_SPACE
0
ENDBLK
5
1D
100
AcDbEntity
100
AcDbBlockEnd
0
ENDSEC
0
SECTION
2
ENTITIES
0
CIRCLE
5
100
100
AcDbEntity
8
CUTOUTS
100
AcDbCircle
10
-7.0767716535433003
20
-0.77755905511810308
30
0
40
0.13779527559055174
210
0
220
0
230
1
0
CIRCLE
5
101
100
AcDbEntity
8
CUTOUTS
100
AcDbCircle
10
-4.6161417322834621
20
-1.7027559055117987
30
0
40
0.094488188976378035
210
0
220
0
230
1
0
CIRCLE
5
102
100
AcDbEntity
8
CUTOUTS
100
AcDbCircle
10
-2.6476377952755881
20
-1.7027559055117987
30
0
40
0.094488188976378035
210
0
220
0
230
1
0
CIRCLE
5
103
100
AcDbEntity
8
CUTOUTS
100
AcDbCircle
10
6.8996062992125857
20
-0.56102362204961442
30
0
40
0.13779527559055174
210
0
220
0
230
1
0
CIRCLE
5
104
100
AcDbEntity
8
CUTOUTS
100
AcDbCircle
10
-6.0531496062992174
20
5.1279527559056168
30
0
40
0.13779527559055102
210
0
220
0
230
1
0
CIRCLE
5
105
100
AcDbEntity
8
CUTOUTS
100
AcDbCircle
10
-0.18700787401575417
20
5.1279527559056106
30
0
40
0.13779527559055119
210
0
220
0
230
1
0
CIRCLE
5
106
100
AcDbEntity
8
CUTOUTS
100
AcDbCircle
10
6.8996062992125893
20
3.9468503936984152
30
0
40
0.13779527559055174
210
0
220
0
230
1
0
CIRCLE
5
107
100
AcDbEntity
8
CUTOUTS
100
AcDbCircle
10
6.8996062992096627
20
-5.0688976377976402
30
0
40
0.13779527559055174
210
0
220
0
230
1
0
CIRCLE
5
108
100
AcDbEntity
8
CUTOUTS
100
AcDbCircle
10
-7.0767716535433003
20
3.1594488188976446
30
0
40
0.13779527559055174
210
0
220
0
230
1
0
CIRCLE
5
109
100
AcDbEntity
8
CUTOUTS
100
AcDbCircle
10
-7.0767716535433003
20
-4.7145669291338503
30
0
40
0.13779527559055174
210
0
220
0
230
1
0
ARC
5
10A
100
AcDbEntity
8
CUTOUTS
100
AcDbCircle
10
6.2559055118110125
20
5.0098425196850345
30
0
40
0.07874015748031607
210
0
220
-0
230
1
100
AcDbArc
50
0
51
90
0
LINE
5
10B
100
AcDbEntity
8
CUTOUTS
100
AcDbLine
10
5.6535433070866077
20
5.0885826771653511
30
0
11
6.2559055118110125
21
5.0885826771653511
31
0
0
ARC
5
10C
100
AcDbEntity
8
CUTOUTS
100
AcDbCircle
10
5.6535433070866077
20
5.0098425196850362
30
0
40
0.078740157480314668
210
0
220
-0
230
1
100
AcDbArc
50
90
51
180
0
LINE
5
10D
100
AcDbEntity
8
CUTOUTS
100
AcDbLine
10
5.574803149606292
20
4.5767716535433047
30
0
11
5.574803149606292
21
5.0098425196850362
31
0
0
ARC
5
10E
100
AcDbEntity
8
CUTOUTS
100
AcDbCircle
10
5.6535433070866077
20
4.5767716535433047
30
0
40
0.07874015748031607
210
0
220
0
230
1
100
AcDbArc
50
180
51
270
0
LINE
5
10F
100
AcDbEntity
8
CUTOUTS
100
AcDbLine
10
6.2559055118110152
20
4.4980314960629881
30
0
11
5.6535433070866077
21
4.4980314960629881
31
0
0
ARC
5
110
100
AcDbEntity
8
CUTOUTS
100
AcDbCircle
10
6.2559055118110152
20
4.576771653543303
30
0
40
0.078740157480314668
210
-0
220
0
230
1
100
AcDbArc
50
-90
51
0
0
LINE
5
111
100
AcDbEntity
8
CUTOUTS
100
AcDbLine
10
6.3346456692913282
20
5.0098425196850345
30
0
11
6.3346456692913282
21
4.576771653543303
31
0
0
ARC
5
112
100
AcDbEntity
8
PERIMETER
100
AcDbCircle
10
-7.4114173228346392
20
0.14763779527559823
30
0
40
0.03937007874015664
210
0
220
-0
230
1
100
AcDbArc
50
90
51
180
0
LINE
5
113
100
AcDbEntity
8
PERIMETER
100
AcDbLine
10
-7.4507874015747957
20
0.14763779527559823
30
0
11
-7.4507874015747975
21
-1.7027559055118042
31
0
0
ARC
5
114
100
AcDbEntity
8
PERIMETER
100
AcDbCircle
10
-7.4114173228346392
20
-1.7027559055118042
30
0
40
0.039370078740158035
210
0
220
0
230
1
100
AcDbArc
50
180
51
270
0
LINE
5
115
100
AcDbEntity
8
PERIMETER
100
AcDbLine
10
-7.4114173228346392
20
-1.7421259842519616
30
0
11
-6.7421259842519623
21
-1.742125984251961
31
0
0
ARC
5
116
100
AcDbEntity
8
PERIMETER
100
AcDbCircle
10
-6.7421259842519623
20
-1.8208661417322756
30
0
40
0.078740157480314668
210
0
220
-0
230
1
100
AcDbArc
50
0
51
90
0
LINE
5
117
100
AcDbEntity
8
PERIMETER
100
AcDbLine
10
-6.6633858267716475
20
-1.8208661417322756
30
0
11
-6.6633858267716475
21
-3.6712598425196781
31
0
0
ARC
5
118
100
AcDbEntity
8
PERIMETER
100
AcDbCircle
10
-6.7421259842519623
20
-3.6712598425196781
30
0
40
0.078740157480314668
210
-0
220
0
230
1
100
AcDbArc
50
-90
51
0
0
LINE
5
119
100
AcDbEntity
8
PERIMETER
100
AcDbLine
10
-6.7421259842519623
20
-3.7499999999999929
30
0
11
-7.4114173228346392
21
-3.7499999999999929
31
0
0
ARC
5
11A
100
AcDbEntity
8
PERIMETER
100
AcDbCircle
10
-7.4114173228346392
20
-3.7893700787401494
30
0
40
0.03937007874015664
210
0
220
-0
230
1
100
AcDbArc
50
90
51
180
0
LINE
5
11B
100
AcDbEntity
8
PERIMETER
100
AcDbLine
10
-7.4507874015747957
20
-3.7893700787401494
30
0
11
-7.4507874015747975
21
-5.6397637795275521
31
0
0
ARC
5
11C
100
AcDbEntity
8
PERIMETER
100
AcDbCircle
10
-7.4114173228346392
20
-5.6397637795275521
30
0
40
0.039370078740158035
210
0
220
0
230
1
100
AcDbArc
50
180
51
270
0
LINE
5
11D
100
AcDbEntity
8
PERIMETER
100
AcDbLine
10
-7.4114173228346392
20
-5.6791338582677096
30
0
11
7.4507874015748001
21
-5.6791338582676794
31
0
0
LINE
5
11E
100
AcDbEntity
8
PERIMETER
100
AcDbLine
10
7.4507874015747984
20
-5.6791338582676794
30
0
11
7.4507874015747984
21
5.6003937007873956
31
0
0
ARC
5
11F
100
AcDbEntity
8
PERIMETER
100
AcDbCircle
10
7.37204724409448
20
5.600393700787393
30
0
40
0.078740157480318873
210
0
220
-0
230
1
100
AcDbArc
50
0
51
89.999999999998067
0
LINE
5
120
100
AcDbEntity
8
PERIMETER
100
AcDbLine
10
7.3720472440944826
20
5.6791338582677113
30
0
11
-6.6633858267716466
21
5.6791338582677104
31
0
0
LINE
5
121
100
AcDbEntity
8
PERIMETER
100
AcDbLine
10
-6.6633858267716466
20
5.6791338582677104
30
0
11
-6.6633858267716519
21
4.222440944881896
31
0
0
ARC
5
122
100
AcDbEntity
8
PERIMETER
100
AcDbCircle
10
-6.7618110236220446
20
4.2224409448818951
30
0
40
0.098425196850392291
210
-0
220
0
230
1
100
AcDbArc
50
-90
51
0
0
LINE
5
123
100
AcDbEntity
8
PERIMETER
100
AcDbLine
10
-6.7618110236220454
20
4.1240157480315025
30
0
11
-7.4114173228346392
21
4.1240157480315025
31
0
0
ARC
5
124
100
AcDbEntity
8
PERIMETER
100
AcDbCircle
10
-7.4114173228346392
20
4.084645669291346
30
0
40
0.03937007874015664
210
0
220
-0
230
1
100
AcDbArc
50
90
51
180
0
LINE
5
125
100
AcDbEntity
8
PERIMETER
100
AcDbLine
10
-7.4507874015747957
20
4.084645669291346
30
0
11
-7.4507874015747975
21
2.2342519685039433
31
0
0
ARC
5
126
100
AcDbEntity
8
PERIMETER
100
AcDbCircle
10
-7.4114173228346392
20
2.2342519685039433
30
0
40
0.039370078740158035
210
0
220
0
230
1
100
AcDbArc
50
180
51
270
0
LINE
5
127
100
AcDbEntity
8
PERIMETER
100
AcDbLine
10
-7.4114173228346392
20
2.1948818897637854
30
0
11
-6.7421259842519623
21
2.1948818897637867
31
0
0
ARC
5
128
100
AcDbEntity
8
PERIMETER
100
AcDbCircle
10
-6.7421259842519623
20
2.1161417322834719
30
0
40
0.078740157480314668
210
0
220
-0
230
1
100
AcDbArc
50
0
51
90
0
LINE
5
129
100
AcDbEntity
8
PERIMETER
100
AcDbLine
10
-6.6633858267716475
20
2.1161417322834719
30
0
11
-6.6633858267716475
21
0.26574803149606957
31
0
0
ARC
5
12A
100
AcDbEntity
8
PERIMETER
100
AcDbCircle
10
-6.7421259842519623
20
0.26574803149606957
30
0
40
0.078740157480314668
210
-0
220
0
230
1
100
AcDbArc
50
-90
51
0
0
LINE
5
12B
100
AcDbEntity
8
PERIMETER
100
AcDbLine
10
-6.7421259842519623
20
0.18700787401575486
30
0
11
-7.4114173228346392
21
0.18700787401575486
31
0
0
ENDSEC
0
SECTION
2
OBJECTS
0
DICTIONARY
5
C
100
AcDbDictionary
3
ACAD_GROUP
350
D
3
ACAD_MLINESTYLE
350
17
0
DICTIONARY
5
D
100
AcDbDictionary
0
DICTIONARY
5
1A
330
C
100
AcDbDictionary
0
DICTIONARY
5
17
100
AcDbDictionary
0
ENDSEC
0
EOF
