0
SECTION
2
HEADER
9
$INSUNITS
70
1
9
$ACADVER
1
AC1014
9
$HANDSEED
5
FFFF
0
ENDSEC
0
SECTION
2
TABLES
0
TABLE
2
VPORT
5
8
100
AcDbSymbolTable
0
ENDTAB
0
TABLE
2
LTYPE
5
5
100
AcDbSymbolTable
70
2
0
LTYPE
5
14
100
AcDbSymbolTableRecord
100
AcDbLinetypeTableRecord
2
BYBLOCK
70
0
0
LTYPE
5
15
100
AcDbSymbolTableRecord
100
AcDbLinetypeTableRecord
2
BYLAYER
70
0
0
ENDTAB
0
TABLE
2
LAYER
5
2
100
AcDbSymbolTable
70
3
0
LAYER
5
50
100
AcDbSymbolTableRecord
100
AcDbLayerTableRecord
2
0
70
0
6
CONTINUOUS
0
LAYER
5
51
100
AcDbSymbolTableRecord
100
AcDbLayerTableRecord
2
CUTOUTS
70
0
62
1
6
CONTINUOUS
0
LAYER
5
52
100
AcDbSymbolTableRecord
100
AcDbLayerTableRecord
2
PERIMETER
70
0
62
5
6
CONTINUOUS
0
ENDTAB
0
TABLE
2
STYLE
5
3
100
AcDbSymbolTable
70
1
0
STYLE
5
11
100
AcDbSymbolTableRecord
100
AcDbTextStyleTableRecord
2
STANDARD
70
0
0
ENDTAB
0
TABLE
2
VIEW
5
6
100
AcDbSymbolTable
0
ENDTAB
0
TABLE
2
UCS
5
7
100
AcDbSymbolTable
0
ENDTAB
0
TABLE
2
APPID
5
9
100
AcDbSymbolTable
70
1
0
APPID
5
12
100
AcDbSymbolTableRecord
100
AcDbRegAppTableRecord
2
ACAD
70
0
0
ENDTAB
0
TABLE
2
DIMSTYLE
5
A
100
AcDbSymbolTable
0
ENDTAB
0
TABLE
2
BLOCK_RECORD
5
1
100
AcDbSymbolTable
70
2
0
BLOCK_RECORD
5
1F
100
AcDbSymbolTableRecord
100
AcDbBlockTableRecord
2
*MODEL_SPACE
0
BLOCK_RECORD
5
1B
100
AcDbSymbolTableRecord
100
AcDbBlockTableRecord
2
*PAPER_SPACE
0
ENDTAB
0
ENDSEC
0
SECTION
2
BLOCKS
0
BLOCK
5
20
100
AcDbEntity
100
AcDbBlockBegin
2
*MODEL_SPACE
0
ENDBLK
5
21
100
AcDbEntity
100
AcDbBlockEnd
0
BLOCK
5
1C
100
AcDbEntity
100
AcDbBlockBegin
2
*PAPER_SPACE
0
ENDBLK
5
1D
100
AcDbEntity
100
AcDbBlockEnd
0
ENDSEC
0
SECTION
2
ENTITIES
0
CIRCLE
5
100
100
AcDbEntity
8
CUTOUTS
100
AcDbCircle
10
13.976377952755941
20
8.3858267716535337
30
0
40
0.12992125984251901
210
0
220
0
230
1
0
CIRCLE
5
101
100
AcDbEntity
8
CUTOUTS
100
AcDbCircle
10
13.976377952755929
20
-9.7834645669291369
30
0
40
0.12992125984251901
210
0
220
0
230
1
0
CIRCLE
5
102
100
AcDbEntity
8
CUTOUTS
100
AcDbCircle
10
-7.9921259842519552
20
-10.984251968503937
30
0
40
0.12992125984251901
210
0
220
0
230
1
0
CIRCLE
5
103
100
AcDbEntity
8
CUTOUTS
100
AcDbCircle
10
-13.976377952755941
20
-0.69881889763779326
30
0
40
0.12992125984251901
210
0
220
0
230
1
0
CIRCLE
5
104
100
AcDbEntity
8
CUTOUTS
100
AcDbCircle
10
11.377952755905552
20
10.984251968503925
30
0
40
0.12992125984251901
210
0
220
0
230
1
0
CIRCLE
5
105
100
AcDbEntity
8
CUTOUTS
100
AcDbCircle
10
-2.0866141732283481
20
10.984251968503933
30
0
40
0.1299212598425197
210
0
220
0
230
1
0
CIRCLE
5
106
100
AcDbEntity
8
CUTOUTS
100
AcDbCircle
10
-11.37795275590555
20
10.984251968503935
30
0
40
0.12992125984251901
210
0
220
0
230
1
0
CIRCLE
5
107
100
AcDbEntity
8
CUTOUTS
100
AcDbCircle
10
2.5984251968503935
20
10.984251968503926
30
0
40
0.1299212598425197
210
0
220
0
230
1
0
CIRCLE
5
108
100
AcDbEntity
8
CUTOUTS
100
AcDbCircle
10
-13.976377952755941
20
8.3858267716535408
30
0
40
0.12992125984251901
210
0
220
0
230
1
0
CIRCLE
5
109
100
AcDbEntity
8
CUTOUTS
100
AcDbCircle
10
-13.976377952755941
20
-9.783464566929128
30
0
40
0.12992125984251901
210
0
220
0
230
1
0
CIRCLE
5
10A
100
AcDbEntity
8
CUTOUTS
100
AcDbCircle
10
7.9921259842519445
20
-10.984251968503942
30
0
40
0.12992125984251901
210
0
220
0
230
1
0
CIRCLE
5
10B
100
AcDbEntity
8
CUTOUTS
100
AcDbCircle
10
13.976377952755936
20
-0.69881889763780214
30
0
40
0.12992125984251901
210
0
220
0
230
1
0
CIRCLE
5
10C
100
AcDbEntity
8
CUTOUTS
100
AcDbCircle
10
-5.8847873380747664e-15
20
-10.984251968503926
30
0
40
0.12992125984251968
210
0
220
0
230
1
0
ARC
5
10D
100
AcDbEntity
8
PERIMETER
100
AcDbCircle
10
11.929133858267642
20
-10.255905511811049
30
0
40
0.078740157480314668
210
0
220
0
230
1
100
AcDbArc
50
180
51
270
0
LINE
5
10E
100
AcDbEntity
8
PERIMETER
100
AcDbLine
10
11.929133858267642
20
-10.334645669291364
30
0
11
14.448818897637782
21
-10.334645669291364
31
0
0
ARC
5
10F
100
AcDbEntity
8
PERIMETER
100
AcDbCircle
10
14.448818897637784
20
-10.255905511811049
30
0
40
0.078740157480314668
210
0
220
0
230
1
100
AcDbArc
50
-90.000000000001322
51
0
0
LINE
5
110
100
AcDbEntity
8
PERIMETER
100
AcDbLine
10
14.527559055118097
20
-10.255905511811049
30
0
11
14.527559055118141
21
8.8582677165353996
31
0
0
ARC
5
111
100
AcDbEntity
8
PERIMETER
100
AcDbCircle
10
14.448818897637826
20
8.8582677165353996
30
0
40
0.07874015748031607
210
0
220
-0
230
1
100
AcDbArc
50
0
51
90
0
LINE
5
112
100
AcDbEntity
8
PERIMETER
100
AcDbLine
10
14.448818897637826
20
8.9370078740157144
30
0
11
13.464566929133895
21
8.9370078740157197
31
0
0
ARC
5
113
100
AcDbEntity
8
PERIMETER
100
AcDbCircle
10
13.464566929133895
20
9.0157480314960345
30
0
40
0.07874015748031607
210
0
220
0
230
1
100
AcDbArc
50
180
51
270
0
LINE
5
114
100
AcDbEntity
8
PERIMETER
100
AcDbLine
10
13.385826771653578
20
9.0157480314960345
30
0
11
13.385826771653578
21
10.314960629921236
31
0
0
ARC
5
115
100
AcDbEntity
8
PERIMETER
100
AcDbCircle
10
13.307086614173263
20
10.314960629921234
30
0
40
0.07874015748031607
210
0
220
-0
230
1
100
AcDbArc
50
0
51
90
0
LINE
5
116
100
AcDbEntity
8
PERIMETER
100
AcDbLine
10
13.307086614173263
20
10.393700787401551
30
0
11
12.007874015748069
21
10.393700787401542
31
0
0
ARC
5
117
100
AcDbEntity
8
PERIMETER
100
AcDbCircle
10
12.007874015748069
20
10.472440944881857
30
0
40
0.078740157480314668
210
0
220
0
230
1
100
AcDbArc
50
180
51
270
0
LINE
5
118
100
AcDbEntity
8
PERIMETER
100
AcDbLine
10
11.929133858267754
20
10.472440944881857
30
0
11
11.929133858267754
21
11.456692913385798
31
0
0
ARC
5
119
100
AcDbEntity
8
PERIMETER
100
AcDbCircle
10
11.850393700787439
20
11.456692913385798
30
0
40
0.078740157480314668
210
0
220
-0
230
1
100
AcDbArc
50
0
51
90
0
LINE
5
11A
100
AcDbEntity
8
PERIMETER
100
AcDbLine
10
11.850393700787439
20
11.535433070866112
30
0
11
2.1259842519685019
21
11.535433070866119
31
0
0
ARC
5
11B
100
AcDbEntity
8
PERIMETER
100
AcDbCircle
10
2.1259842519685019
20
11.456692913385805
30
0
40
0.078740157480314668
210
0
220
0
230
1
100
AcDbArc
50
90
51
180
0
LINE
5
11C
100
AcDbEntity
8
PERIMETER
100
AcDbLine
10
2.0472440944881876
20
11.456692913385805
30
0
11
2.0472440944881858
21
10.472440944881868
31
0
0
ARC
5
11D
100
AcDbEntity
8
PERIMETER
100
AcDbCircle
10
1.9685039370078707
20
10.472440944881868
30
0
40
0.078740157480314668
210
-0
220
0
230
1
100
AcDbArc
50
-89.999999999999844
51
0
0
LINE
5
11E
100
AcDbEntity
8
PERIMETER
100
AcDbLine
10
1.968503937007871
20
10.393700787401553
30
0
11
1.6141732283464523
21
10.393700787401553
31
0
0
ARC
5
11F
100
AcDbEntity
8
PERIMETER
100
AcDbCircle
10
1.6141732283464518
20
10.314960629921238
30
0
40
0.078740157480314668
210
0
220
-0
230
1
100
AcDbArc
50
89.999999999999673
51
180
0
LINE
5
120
100
AcDbEntity
8
PERIMETER
100
AcDbLine
10
1.5354330708661372
20
10.314960629921238
30
0
11
1.5354330708661372
21
8.1496062992125768
31
0
0
LINE
5
121
100
AcDbEntity
8
PERIMETER
100
AcDbLine
10
1.5354330708661372
20
8.1496062992125768
30
0
11
1.2598425196850347
21
7.8740157480314759
31
0
0
LINE
5
122
100
AcDbEntity
8
PERIMETER
100
AcDbLine
10
1.2598425196850347
20
7.8740157480314759
30
0
11
-1.2598425196850433
21
7.8740157480314732
31
0
0
LINE
5
123
100
AcDbEntity
8
PERIMETER
100
AcDbLine
10
-1.2598425196850433
20
7.8740157480314732
30
0
11
-1.5354330708661457
21
8.1496062992125751
31
0
0
LINE
5
124
100
AcDbEntity
8
PERIMETER
100
AcDbLine
10
-1.5354330708661457
20
8.1496062992125751
30
0
11
-1.5354330708661461
21
11.456692913385805
31
0
0
ARC
5
125
100
AcDbEntity
8
PERIMETER
100
AcDbCircle
10
-1.6141732283464609
20
11.456692913385805
30
0
40
0.078740157480314849
210
0
220
-0
230
1
100
AcDbArc
50
0
51
90.000000000000327
0
LINE
5
126
100
AcDbEntity
8
PERIMETER
100
AcDbLine
10
-1.6141732283464614
20
11.535433070866119
30
0
11
-11.850393700787443
21
11.535433070866119
31
0
0
ARC
5
127
100
AcDbEntity
8
PERIMETER
100
AcDbCircle
10
-11.850393700787443
20
11.456692913385805
30
0
40
0.078740157480314668
210
0
220
-0
230
1
100
AcDbArc
50
90
51
180
0
LINE
5
128
100
AcDbEntity
8
PERIMETER
100
AcDbLine
10
-11.929133858267758
20
11.456692913385805
30
0
11
-11.929133858267759
21
10.472440944881868
31
0
0
ARC
5
129
100
AcDbEntity
8
PERIMETER
100
AcDbCircle
10
-12.007874015748074
20
10.472440944881868
30
0
40
0.078740157480314668
210
-0
220
0
230
1
100
AcDbArc
50
-90
51
0
0
LINE
5
12A
100
AcDbEntity
8
PERIMETER
100
AcDbLine
10
-12.007874015748074
20
10.393700787401553
30
0
11
-13.307086614173269
21
10.393700787401556
31
0
0
ARC
5
12B
100
AcDbEntity
8
PERIMETER
100
AcDbCircle
10
-13.307086614173269
20
10.31496062992124
30
0
40
0.07874015748031607
210
0
220
-0
230
1
100
AcDbArc
50
90
51
180
0
LINE
5
12C
100
AcDbEntity
8
PERIMETER
100
AcDbLine
10
-13.385826771653583
20
10.314960629921242
30
0
11
-13.385826771653582
21
9.0157480314960399
31
0
0
ARC
5
12D
100
AcDbEntity
8
PERIMETER
100
AcDbCircle
10
-13.464566929133898
20
9.0157480314960399
30
0
40
0.078740157480314668
210
-0
220
0
230
1
100
AcDbArc
50
-90
51
0
0
LINE
5
12E
100
AcDbEntity
8
PERIMETER
100
AcDbLine
10
-13.464566929133898
20
8.9370078740157251
30
0
11
-14.448818897637828
21
8.9370078740157233
31
0
0
ARC
5
12F
100
AcDbEntity
8
PERIMETER
100
AcDbCircle
10
-14.448818897637826
20
8.8582677165354049
30
0
40
0.078740157480318873
210
0
220
0
230
1
100
AcDbArc
50
90.000000000001307
51
180
0
LINE
5
130
100
AcDbEntity
8
PERIMETER
100
AcDbLine
10
-14.527559055118145
20
8.8582677165354085
30
0
11
-14.527559055118116
21
-10.255905511811035
31
0
0
ARC
5
131
100
AcDbEntity
8
PERIMETER
100
AcDbCircle
10
-14.448818897637798
20
-10.255905511811033
30
0
40
0.078740157480318873
210
0
220
0
230
1
100
AcDbArc
50
180
51
269.99999999999613
0
LINE
5
132
100
AcDbEntity
8
PERIMETER
100
AcDbLine
10
-14.448818897637803
20
-10.334645669291351
30
0
11
-11.929133858267662
21
-10.334645669291351
31
0
0
ARC
5
133
100
AcDbEntity
8
PERIMETER
100
AcDbCircle
10
-11.929133858267662
20
-10.255905511811038
30
0
40
0.07874015748031328
210
-0
220
0
230
1
100
AcDbArc
50
-90
51
0
0
LINE
5
134
100
AcDbEntity
8
PERIMETER
100
AcDbLine
10
-11.850393700787349
20
-10.255905511811036
30
0
11
-11.850393700787384
21
-8.6220472440945084
31
0
0
LINE
5
135
100
AcDbEntity
8
PERIMETER
100
AcDbLine
10
-11.850393700787384
20
-8.6220472440945084
30
0
11
-11.535433070866132
21
-8.3070866141732456
31
0
0
LINE
5
136
100
AcDbEntity
8
PERIMETER
100
AcDbLine
10
-11.535433070866132
20
-8.3070866141732456
30
0
11
-8.8582677165354209
21
-8.3070866141732473
31
0
0
LINE
5
137
100
AcDbEntity
8
PERIMETER
100
AcDbLine
10
-8.8582677165354209
20
-8.3070866141732473
30
0
11
-8.5433070866141616
21
-8.6220472440945084
31
0
0
LINE
5
138
100
AcDbEntity
8
PERIMETER
100
AcDbLine
10
-8.5433070866141616
20
-8.6220472440945084
30
0
11
-8.5433070866141616
21
-11.456692913385844
31
0
0
ARC
5
139
100
AcDbEntity
8
PERIMETER
100
AcDbCircle
10
-8.4645669291338486
20
-11.456692913385844
30
0
40
0.07874015748031328
210
0
220
0
230
1
100
AcDbArc
50
180
51
270.00000000000125
0
LINE
5
13A
100
AcDbEntity
8
PERIMETER
100
AcDbLine
10
-8.4645669291338468
20
-11.535433070866159
30
0
11
8.4645669291338326
21
-11.535433070866159
31
0
0
ARC
5
13B
100
AcDbEntity
8
PERIMETER
100
AcDbCircle
10
8.4645669291338326
20
-11.456692913385844
30
0
40
0.078740157480314668
210
-0
220
0
230
1
100
AcDbArc
50
-90
51
0
0
LINE
5
13C
100
AcDbEntity
8
PERIMETER
100
AcDbLine
10
8.5433070866141474
20
-11.456692913385844
30
0
11
8.5433070866141474
21
-8.6220472440945155
31
0
0
LINE
5
13D
100
AcDbEntity
8
PERIMETER
100
AcDbLine
10
8.5433070866141474
20
-8.6220472440945155
30
0
11
8.8582677165354067
21
-8.3070866141732527
31
0
0
LINE
5
13E
100
AcDbEntity
8
PERIMETER
100
AcDbLine
10
8.8582677165354067
20
-8.3070866141732527
30
0
11
11.535433070866116
21
-8.307086614173258
31
0
0
LINE
5
13F
100
AcDbEntity
8
PERIMETER
100
AcDbLine
10
11.535433070866116
20
-8.307086614173258
30
0
11
11.850393700787368
21
-8.6220472440945173
31
0
0
LINE
5
140
100
AcDbEntity
8
PERIMETER
100
AcDbLine
10
11.850393700787368
20
-8.6220472440945173
30
0
11
11.850393700787327
21
-10.255905511811049
31
0
0
ENDSEC
0
SECTION
2
OBJECTS
0
DICTIONARY
5
C
100
AcDbDictionary
3
ACAD_GROUP
350
D
3
ACAD_MLINESTYLE
350
17
0
DICTIONARY
5
D
100
AcDbDictionary
0
DICTIONARY
5
1A
330
C
100
AcDbDictionary
0
DICTIONARY
5
17
100
AcDbDictionary
0
ENDSEC
0
EOF
