0
SECTION
2
HEADER
9
$INSUNITS
70
1
9
$ACADVER
1
AC1014
9
$HANDSEED
5
FFFF
0
ENDSEC
0
SECTION
2
TABLES
0
TABLE
2
VPORT
5
8
100
AcDbSymbolTable
0
ENDTAB
0
TABLE
2
LTYPE
5
5
100
AcDbSymbolTable
70
2
0
LTYPE
5
14
100
AcDbSymbolTableRecord
100
AcDbLinetypeTableRecord
2
BYBLOCK
70
0
0
LTYPE
5
15
100
AcDbSymbolTableRecord
100
AcDbLinetypeTableRecord
2
BYLAYER
70
0
0
ENDTAB
0
TABLE
2
LAYER
5
2
100
AcDbSymbolTable
70
3
0
LAYER
5
50
100
AcDbSymbolTableRecord
100
AcDbLayerTableRecord
2
0
70
0
6
CONTINUOUS
0
LAYER
5
51
100
AcDbSymbolTableRecord
100
AcDbLayerTableRecord
2
CUTOUTS
70
0
62
1
6
CONTINUOUS
0
LAYER
5
52
100
AcDbSymbolTableRecord
100
AcDbLayerTableRecord
2
PERIMETER
70
0
62
5
6
CONTINUOUS
0
ENDTAB
0
TABLE
2
STYLE
5
3
100
AcDbSymbolTable
70
1
0
STYLE
5
11
100
AcDbSymbolTableRecord
100
AcDbTextStyleTableRecord
2
STANDARD
70
0
0
ENDTAB
0
TABLE
2
VIEW
5
6
100
AcDbSymbolTable
0
ENDTAB
0
TABLE
2
UCS
5
7
100
AcDbSymbolTable
0
ENDTAB
0
TABLE
2
APPID
5
9
100
AcDbSymbolTable
70
1
0
APPID
5
12
100
AcDbSymbolTableRecord
100
AcDbRegAppTableRecord
2
ACAD
70
0
0
ENDTAB
0
TABLE
2
DIMSTYLE
5
A
100
AcDbSymbolTable
0
ENDTAB
0
TABLE
2
BLOCK_RECORD
5
1
100
AcDbSymbolTable
70
2
0
BLOCK_RECORD
5
1F
100
AcDbSymbolTableRecord
100
AcDbBlockTableRecord
2
*MODEL_SPACE
0
BLOCK_RECORD
5
1B
100
AcDbSymbolTableRecord
100
AcDbBlockTableRecord
2
*PAPER_SPACE
0
ENDTAB
0
ENDSEC
0
SECTION
2
BLOCKS
0
BLOCK
5
20
100
AcDbEntity
100
AcDbBlockBegin
2
*MODEL_SPACE
0
ENDBLK
5
21
100
AcDbEntity
100
AcDbBlockEnd
0
BLOCK
5
1C
100
AcDbEntity
100
AcDbBlockBegin
2
*PAPER_SPACE
0
ENDBLK
5
1D
100
AcDbEntity
100
AcDbBlockEnd
0
ENDSEC
0
SECTION
2
ENTITIES
0
CIRCLE
5
100
100
AcDbEntity
8
CUTOUTS
100
AcDbCircle
10
8.0610236220472409
20
-5.6988188976377971
30
0
40
0.13779527559055174
210
0
220
0
230
1
0
CIRCLE
5
101
100
AcDbEntity
8
CUTOUTS
100
AcDbCircle
10
8.0610236220472409
20
2.1751968503936987
30
0
40
0.13779527559055174
210
0
220
0
230
1
0
CIRCLE
5
102
100
AcDbEntity
8
CUTOUTS
100
AcDbCircle
10
-7.8838582677165192
20
-0.56102362204620715
30
0
40
0.13779527559055174
210
0
220
0
230
1
0
CIRCLE
5
103
100
AcDbEntity
8
CUTOUTS
100
AcDbCircle
10
7.0374015748031571
20
6.1122047244095468
30
0
40
0.13779527559055174
210
0
220
0
230
1
0
CIRCLE
5
104
100
AcDbEntity
8
CUTOUTS
100
AcDbCircle
10
-0.79724409448818001
20
6.1122047244095468
30
0
40
0.13779527559055121
210
0
220
0
230
1
0
CIRCLE
5
105
100
AcDbEntity
8
CUTOUTS
100
AcDbCircle
10
-7.8838582677165245
20
4.9311023622057597
30
0
40
0.13779527559055174
210
0
220
0
230
1
0
CIRCLE
5
106
100
AcDbEntity
8
CUTOUTS
100
AcDbCircle
10
-7.8838582677113545
20
-6.0531496062981747
30
0
40
0.13779527559055174
210
0
220
0
230
1
0
CIRCLE
5
107
100
AcDbEntity
8
CUTOUTS
100
AcDbCircle
10
6.6830708661417306
20
-1.604330708661412
30
0
40
0.070866141732283353
210
0
220
0
230
1
0
CIRCLE
5
108
100
AcDbEntity
8
CUTOUTS
100
AcDbCircle
10
3.1397637795275579
20
-1.604330708661412
30
0
40
0.070866141732283353
210
0
220
0
230
1
0
CIRCLE
5
109
100
AcDbEntity
8
CUTOUTS
100
AcDbCircle
10
8.0610236220472409
20
-1.761811023622049
30
0
40
0.13779527559055174
210
0
220
0
230
1
0
ARC
5
10A
100
AcDbEntity
8
CUTOUTS
100
AcDbCircle
10
-6.6377952755905465
20
5.5610236220472453
30
0
40
0.07874015748031607
210
-0
220
0
230
1
100
AcDbArc
50
-90
51
0
0
LINE
5
10B
100
AcDbEntity
8
CUTOUTS
100
AcDbLine
10
-6.5590551181102326
20
5.9940944881889751
30
0
11
-6.5590551181102299
21
5.5610236220472453
31
0
0
ARC
5
10C
100
AcDbEntity
8
CUTOUTS
100
AcDbCircle
10
-6.6377952755905492
20
5.9940944881889751
30
0
40
0.07874015748031607
210
0
220
-0
230
1
100
AcDbArc
50
0
51
90
0
LINE
5
10D
100
AcDbEntity
8
CUTOUTS
100
AcDbLine
10
-7.2401574803149531
20
6.0728346456692908
30
0
11
-6.6377952755905492
21
6.0728346456692908
31
0
0
ARC
5
10E
100
AcDbEntity
8
CUTOUTS
100
AcDbCircle
10
-7.2401574803149531
20
5.9940944881889751
30
0
40
0.07874015748031607
210
0
220
-0
230
1
100
AcDbArc
50
90
51
180
0
LINE
5
10F
100
AcDbEntity
8
CUTOUTS
100
AcDbLine
10
-7.3188976377952697
20
5.5610236220472435
30
0
11
-7.3188976377952697
21
5.9940944881889751
31
0
0
ARC
5
110
100
AcDbEntity
8
CUTOUTS
100
AcDbCircle
10
-7.2401574803149531
20
5.5610236220472435
30
0
40
0.07874015748031607
210
0
220
0
230
1
100
AcDbArc
50
180
51
270
0
LINE
5
111
100
AcDbEntity
8
CUTOUTS
100
AcDbLine
10
-6.6377952755905465
20
5.4822834645669287
30
0
11
-7.2401574803149531
21
5.4822834645669278
31
0
0
LINE
5
112
100
AcDbEntity
8
PERIMETER
100
AcDbLine
10
7.6476377952755872
20
3.2185039370078714
30
0
11
7.647637795275589
21
5.0688976377952741
31
0
0
ARC
5
113
100
AcDbEntity
8
PERIMETER
100
AcDbCircle
10
7.726377952755902
20
3.2185039370078714
30
0
40
0.078740157480314668
210
0
220
0
230
1
100
AcDbArc
50
180
51
270
0
LINE
5
114
100
AcDbEntity
8
PERIMETER
100
AcDbLine
10
8.3956692913385798
20
3.1397637795275579
30
0
11
7.726377952755902
21
3.1397637795275566
31
0
0
ARC
5
115
100
AcDbEntity
8
PERIMETER
100
AcDbCircle
10
8.3956692913385798
20
3.1003937007874001
30
0
40
0.039370078740158035
210
0
220
-0
230
1
100
AcDbArc
50
0
51
90
0
LINE
5
116
100
AcDbEntity
8
PERIMETER
100
AcDbLine
10
8.4350393700787354
20
1.2499999999999973
30
0
11
8.4350393700787372
21
3.1003937007874001
31
0
0
ARC
5
117
100
AcDbEntity
8
PERIMETER
100
AcDbCircle
10
8.3956692913385798
20
1.2499999999999973
30
0
40
0.03937007874015664
210
-0
220
0
230
1
100
AcDbArc
50
-90
51
0
0
LINE
5
118
100
AcDbEntity
8
PERIMETER
100
AcDbLine
10
7.726377952755902
20
1.2106299212598408
30
0
11
8.3956692913385798
21
1.2106299212598408
31
0
0
ARC
5
119
100
AcDbEntity
8
PERIMETER
100
AcDbCircle
10
7.726377952755902
20
1.131889763779526
30
0
40
0.078740157480314668
210
0
220
-0
230
1
100
AcDbArc
50
90
51
180
0
LINE
5
11A
100
AcDbEntity
8
PERIMETER
100
AcDbLine
10
7.6476377952755872
20
-0.71850393700787651
30
0
11
7.647637795275589
21
1.131889763779526
31
0
0
ARC
5
11B
100
AcDbEntity
8
PERIMETER
100
AcDbCircle
10
7.726377952755902
20
-0.71850393700787651
30
0
40
0.078740157480314668
210
0
220
0
230
1
100
AcDbArc
50
180
51
270
0
LINE
5
11C
100
AcDbEntity
8
PERIMETER
100
AcDbLine
10
8.3956692913385798
20
-0.79724409448819045
30
0
11
7.726377952755902
21
-0.79724409448819111
31
0
0
ARC
5
11D
100
AcDbEntity
8
PERIMETER
100
AcDbCircle
10
8.3956692913385798
20
-0.83661417322834775
30
0
40
0.039370078740158035
210
0
220
-0
230
1
100
AcDbArc
50
0
51
90
0
LINE
5
11E
100
AcDbEntity
8
PERIMETER
100
AcDbLine
10
8.4350393700787354
20
-2.6870078740157504
30
0
11
8.4350393700787372
21
-0.83661417322834775
31
0
0
ARC
5
11F
100
AcDbEntity
8
PERIMETER
100
AcDbCircle
10
8.3956692913385798
20
-2.6870078740157504
30
0
40
0.03937007874015664
210
-0
220
0
230
1
100
AcDbArc
50
-90
51
0
0
LINE
5
120
100
AcDbEntity
8
PERIMETER
100
AcDbLine
10
7.726377952755902
20
-2.7263779527559069
30
0
11
8.3956692913385798
21
-2.7263779527559069
31
0
0
ARC
5
121
100
AcDbEntity
8
PERIMETER
100
AcDbCircle
10
7.726377952755902
20
-2.8051181102362217
30
0
40
0.078740157480314668
210
0
220
-0
230
1
100
AcDbArc
50
90
51
180
0
LINE
5
122
100
AcDbEntity
8
PERIMETER
100
AcDbLine
10
7.6476377952755872
20
-4.655511811023624
30
0
11
7.647637795275589
21
-2.8051181102362217
31
0
0
ARC
5
123
100
AcDbEntity
8
PERIMETER
100
AcDbCircle
10
7.726377952755902
20
-4.655511811023624
30
0
40
0.078740157480314668
210
0
220
0
230
1
100
AcDbArc
50
180
51
270
0
LINE
5
124
100
AcDbEntity
8
PERIMETER
100
AcDbLine
10
8.3956692913385798
20
-4.7342519685039379
30
0
11
7.726377952755902
21
-4.7342519685039388
31
0
0
ARC
5
125
100
AcDbEntity
8
PERIMETER
100
AcDbCircle
10
8.3956692913385798
20
-4.7736220472440953
30
0
40
0.039370078740158035
210
0
220
-0
230
1
100
AcDbArc
50
0
51
90
0
LINE
5
126
100
AcDbEntity
8
PERIMETER
100
AcDbLine
10
8.4350393700787354
20
-6.6240157480314981
30
0
11
8.4350393700787372
21
-4.7736220472440953
31
0
0
ARC
5
127
100
AcDbEntity
8
PERIMETER
100
AcDbCircle
10
8.3956692913385798
20
-6.6240157480314981
30
0
40
0.03937007874015664
210
-0
220
0
230
1
100
AcDbArc
50
-90
51
0
0
LINE
5
128
100
AcDbEntity
8
PERIMETER
100
AcDbLine
10
-8.4350393700787372
20
-6.6633858267716501
30
0
11
8.3956692913385798
21
-6.6633858267716546
31
0
0
LINE
5
129
100
AcDbEntity
8
PERIMETER
100
AcDbLine
10
-8.4350393700787318
20
6.5846456692913371
30
0
11
-8.4350393700787372
21
-6.6633858267716501
31
0
0
ARC
5
12A
100
AcDbEntity
8
PERIMETER
100
AcDbCircle
10
-8.3562992125984152
20
6.5846456692913371
30
0
40
0.07874015748031607
210
0
220
-0
230
1
100
AcDbArc
50
90
51
180
0
LINE
5
12B
100
AcDbEntity
8
PERIMETER
100
AcDbLine
10
8.4350393700787372
20
6.6633858267716475
30
0
11
-8.3562992125984152
21
6.6633858267716537
31
0
0
LINE
5
12C
100
AcDbEntity
8
PERIMETER
100
AcDbLine
10
8.4350393700787389
20
5.2066929133858242
30
0
11
8.4350393700787389
21
6.6633858267716475
31
0
0
ARC
5
12D
100
AcDbEntity
8
PERIMETER
100
AcDbCircle
10
8.3759842519685019
20
5.2066929133858242
30
0
40
0.059055118110235658
210
-0
220
0
230
1
100
AcDbArc
50
-90
51
0
0
LINE
5
12E
100
AcDbEntity
8
PERIMETER
100
AcDbLine
10
7.726377952755902
20
5.1476377952755881
30
0
11
8.3759842519685019
21
5.1476377952755881
31
0
0
ARC
5
12F
100
AcDbEntity
8
PERIMETER
100
AcDbCircle
10
7.726377952755902
20
5.0688976377952741
30
0
40
0.078740157480314668
210
0
220
-0
230
1
100
AcDbArc
50
90
51
180
0
ENDSEC
0
SECTION
2
OBJECTS
0
DICTIONARY
5
C
100
AcDbDictionary
3
ACAD_GROUP
350
D
3
ACAD_MLINESTYLE
350
17
0
DICTIONARY
5
D
100
AcDbDictionary
0
DICTIONARY
5
1A
330
C
100
AcDbDictionary
0
DICTIONARY
5
17
100
AcDbDictionary
0
ENDSEC
0
EOF
