0
SECTION
2
HEADER
9
$INSUNITS
70
1
9
$ACADVER
1
AC1014
9
$HANDSEED
5
FFFF
0
ENDSEC
0
SECTION
2
TABLES
0
TABLE
2
VPORT
5
8
100
AcDbSymbolTable
0
ENDTAB
0
TABLE
2
LTYPE
5
5
100
AcDbSymbolTable
70
2
0
LTYPE
5
14
100
AcDbSymbolTableRecord
100
AcDbLinetypeTableRecord
2
BYBLOCK
70
0
0
LTYPE
5
15
100
AcDbSymbolTableRecord
100
AcDbLinetypeTableRecord
2
BYLAYER
70
0
0
ENDTAB
0
TABLE
2
LAYER
5
2
100
AcDbSymbolTable
70
3
0
LAYER
5
50
100
AcDbSymbolTableRecord
100
AcDbLayerTableRecord
2
0
70
0
6
CONTINUOUS
0
LAYER
5
51
100
AcDbSymbolTableRecord
100
AcDbLayerTableRecord
2
CUTOUTS
70
0
62
1
6
CONTINUOUS
0
LAYER
5
52
100
AcDbSymbolTableRecord
100
AcDbLayerTableRecord
2
PERIMETER
70
0
62
5
6
CONTINUOUS
0
ENDTAB
0
TABLE
2
STYLE
5
3
100
AcDbSymbolTable
70
1
0
STYLE
5
11
100
AcDbSymbolTableRecord
100
AcDbTextStyleTableRecord
2
STANDARD
70
0
0
ENDTAB
0
TABLE
2
VIEW
5
6
100
AcDbSymbolTable
0
ENDTAB
0
TABLE
2
UCS
5
7
100
AcDbSymbolTable
0
ENDTAB
0
TABLE
2
APPID
5
9
100
AcDbSymbolTable
70
1
0
APPID
5
12
100
AcDbSymbolTableRecord
100
AcDbRegAppTableRecord
2
ACAD
70
0
0
ENDTAB
0
TABLE
2
DIMSTYLE
5
A
100
AcDbSymbolTable
0
ENDTAB
0
TABLE
2
BLOCK_RECORD
5
1
100
AcDbSymbolTable
70
2
0
BLOCK_RECORD
5
1F
100
AcDbSymbolTableRecord
100
AcDbBlockTableRecord
2
*MODEL_SPACE
0
BLOCK_RECORD
5
1B
100
AcDbSymbolTableRecord
100
AcDbBlockTableRecord
2
*PAPER_SPACE
0
ENDTAB
0
ENDSEC
0
SECTION
2
BLOCKS
0
BLOCK
5
20
100
AcDbEntity
100
AcDbBlockBegin
2
*MODEL_SPACE
0
ENDBLK
5
21
100
AcDbEntity
100
AcDbBlockEnd
0
BLOCK
5
1C
100
AcDbEntity
100
AcDbBlockBegin
2
*PAPER_SPACE
0
ENDBLK
5
1D
100
AcDbEntity
100
AcDbBlockEnd
0
ENDSEC
0
SECTION
2
ENTITIES
0
CIRCLE
5
100
100
AcDbEntity
8
CUTOUTS
100
AcDbCircle
10
6.8996062992096627
20
5.0492125984220326
30
0
40
0.13779527559055174
210
0
220
0
230
1
0
CIRCLE
5
101
100
AcDbEntity
8
CUTOUTS
100
AcDbCircle
10
6.8996062992125893
20
-3.9665354330740219
30
0
40
0.13779527559055174
210
0
220
0
230
1
0
CIRCLE
5
102
100
AcDbEntity
8
CUTOUTS
100
AcDbCircle
10
-0.16732283464569334
20
-5.1476377952811312
30
0
40
0.13779527559055119
210
0
220
0
230
1
0
CIRCLE
5
103
100
AcDbEntity
8
CUTOUTS
100
AcDbCircle
10
-6.053149606299236
20
-5.147637795281125
30
0
40
0.13779527559055102
210
0
220
0
230
1
0
CIRCLE
5
104
100
AcDbEntity
8
CUTOUTS
100
AcDbCircle
10
5.7185039370078536
20
-5.1476377952811339
30
0
40
0.13779527559055102
210
0
220
0
230
1
0
CIRCLE
5
105
100
AcDbEntity
8
CUTOUTS
100
AcDbCircle
10
6.8996062992125751
20
0.54133858267398671
30
0
40
0.13779527559055174
210
0
220
0
230
1
0
CIRCLE
5
106
100
AcDbEntity
8
CUTOUTS
100
AcDbCircle
10
-4.557086614173226
20
0.27559055118109366
30
0
40
0.094488188976378035
210
0
220
0
230
1
0
CIRCLE
5
107
100
AcDbEntity
8
CUTOUTS
100
AcDbCircle
10
-2.6476377952755881
20
3.7696850393700676
30
0
40
0.094488188976378035
210
0
220
0
230
1
0
CIRCLE
5
108
100
AcDbEntity
8
CUTOUTS
100
AcDbCircle
10
-4.6161417322834621
20
3.7696850393700676
30
0
40
0.094488188976378035
210
0
220
0
230
1
0
CIRCLE
5
109
100
AcDbEntity
8
CUTOUTS
100
AcDbCircle
10
-2.6673228346456672
20
0.27559055118109088
30
0
40
0.094488188976378035
210
0
220
0
230
1
0
CIRCLE
5
10A
100
AcDbEntity
8
CUTOUTS
100
AcDbCircle
10
-7.0767716535433003
20
2.7263779527558896
30
0
40
0.13779527559055174
210
0
220
0
230
1
0
CIRCLE
5
10B
100
AcDbEntity
8
CUTOUTS
100
AcDbCircle
10
-7.0767716535433003
20
-1.2106299212598581
30
0
40
0.13779527559055174
210
0
220
0
230
1
0
ARC
5
10C
100
AcDbEntity
8
PERIMETER
100
AcDbCircle
10
-7.4114173228346392
20
-0.28543307086615693
30
0
40
0.03937007874015664
210
0
220
-0
230
1
100
AcDbArc
50
90
51
180
0
LINE
5
10D
100
AcDbEntity
8
PERIMETER
100
AcDbLine
10
-7.4507874015747957
20
-0.28543307086615693
30
0
11
-7.4507874015747975
21
-2.1358267716535595
31
0
0
ARC
5
10E
100
AcDbEntity
8
PERIMETER
100
AcDbCircle
10
-7.4114173228346392
20
-2.1358267716535595
30
0
40
0.039370078740158035
210
0
220
0
230
1
100
AcDbArc
50
180
51
270
0
LINE
5
10F
100
AcDbEntity
8
PERIMETER
100
AcDbLine
10
-7.4114173228346392
20
-2.1751968503937174
30
0
11
-6.7421259842519623
21
-2.175196850393716
31
0
0
ARC
5
110
100
AcDbEntity
8
PERIMETER
100
AcDbCircle
10
-6.7421259842519623
20
-2.2539370078740308
30
0
40
0.078740157480314668
210
0
220
-0
230
1
100
AcDbArc
50
0
51
90
0
LINE
5
111
100
AcDbEntity
8
PERIMETER
100
AcDbLine
10
-6.6633858267716475
20
-2.2539370078740308
30
0
11
-6.6633858267716475
21
-4.1043307086614336
31
0
0
ARC
5
112
100
AcDbEntity
8
PERIMETER
100
AcDbCircle
10
-6.7421259842519623
20
-4.1043307086614336
30
0
40
0.078740157480314668
210
-0
220
0
230
1
100
AcDbArc
50
-90
51
0
0
LINE
5
113
100
AcDbEntity
8
PERIMETER
100
AcDbLine
10
-6.7421259842519623
20
-4.1830708661417484
30
0
11
-7.3917322834645605
21
-4.1830708661417466
31
0
0
ARC
5
114
100
AcDbEntity
8
PERIMETER
100
AcDbCircle
10
-7.3917322834645605
20
-4.2421259842519818
30
0
40
0.059055118110235658
210
0
220
-0
230
1
100
AcDbArc
50
90
51
180
0
LINE
5
115
100
AcDbEntity
8
PERIMETER
100
AcDbLine
10
-7.4507874015747957
20
-4.2421259842519818
30
0
11
-7.4507874015747957
21
-5.6988188976378087
31
0
0
LINE
5
116
100
AcDbEntity
8
PERIMETER
100
AcDbLine
10
-7.4507874015747957
20
-5.6988188976378087
30
0
11
6.1909448818897586
21
-5.6988188976378034
31
0
0
ARC
5
117
100
AcDbEntity
8
PERIMETER
100
AcDbCircle
10
6.190944881889755
20
-5.6200787401574859
30
0
40
0.078740157480317471
210
-0
220
0
230
1
100
AcDbArc
50
270.00000000000261
51
360
0
LINE
5
118
100
AcDbEntity
8
PERIMETER
100
AcDbLine
10
6.2696850393700716
20
-5.6200787401574885
30
0
11
6.2696850393700769
21
-4.596456692913419
31
0
0
ARC
5
119
100
AcDbEntity
8
PERIMETER
100
AcDbCircle
10
6.34842519685039
20
-4.596456692913419
30
0
40
0.078740157480314668
210
0
220
-0
230
1
100
AcDbArc
50
90
51
180
0
LINE
5
11A
100
AcDbEntity
8
PERIMETER
100
AcDbLine
10
6.34842519685039
20
-4.5177165354331041
30
0
11
7.3720472440944826
21
-4.5177165354331024
31
0
0
ARC
5
11B
100
AcDbEntity
8
PERIMETER
100
AcDbCircle
10
7.37204724409448
20
-4.4389763779527867
30
0
40
0.07874015748031607
210
-0
220
0
230
1
100
AcDbArc
50
270.00000000000193
51
360
0
LINE
5
11C
100
AcDbEntity
8
PERIMETER
100
AcDbLine
10
7.4507874015747957
20
-4.4389763779527893
30
0
11
7.4507874015747984
21
5.6988188976378087
31
0
0
LINE
5
11D
100
AcDbEntity
8
PERIMETER
100
AcDbLine
10
7.4507874015747984
20
5.6988188976378087
30
0
11
-6.6633858267716519
21
5.6988188976377794
31
0
0
LINE
5
11E
100
AcDbEntity
8
PERIMETER
100
AcDbLine
10
-6.6633858267716501
20
5.6988188976377794
30
0
11
-6.6633858267716475
21
3.7696850393700623
31
0
0
ARC
5
11F
100
AcDbEntity
8
PERIMETER
100
AcDbCircle
10
-6.7421259842519623
20
3.7696850393700623
30
0
40
0.078740157480314668
210
-0
220
0
230
1
100
AcDbArc
50
-90
51
0
0
LINE
5
120
100
AcDbEntity
8
PERIMETER
100
AcDbLine
10
-6.7421259842519623
20
3.6909448818897475
30
0
11
-7.4114173228346392
21
3.6909448818897475
31
0
0
ARC
5
121
100
AcDbEntity
8
PERIMETER
100
AcDbCircle
10
-7.4114173228346392
20
3.6515748031495909
30
0
40
0.03937007874015664
210
0
220
-0
230
1
100
AcDbArc
50
90
51
180
0
LINE
5
122
100
AcDbEntity
8
PERIMETER
100
AcDbLine
10
-7.4507874015747957
20
3.6515748031495909
30
0
11
-7.4507874015747975
21
1.8011811023621882
31
0
0
ARC
5
123
100
AcDbEntity
8
PERIMETER
100
AcDbCircle
10
-7.4114173228346392
20
1.8011811023621882
30
0
40
0.039370078740158035
210
0
220
0
230
1
100
AcDbArc
50
180
51
270
0
LINE
5
124
100
AcDbEntity
8
PERIMETER
100
AcDbLine
10
-7.4114173228346392
20
1.7618110236220308
30
0
11
-6.7421259842519623
21
1.7618110236220317
31
0
0
ARC
5
125
100
AcDbEntity
8
PERIMETER
100
AcDbCircle
10
-6.7421259842519623
20
1.6830708661417169
30
0
40
0.078740157480314668
210
0
220
-0
230
1
100
AcDbArc
50
0
51
90
0
LINE
5
126
100
AcDbEntity
8
PERIMETER
100
AcDbLine
10
-6.6633858267716475
20
1.6830708661417169
30
0
11
-6.6633858267716475
21
-0.16732283464568565
31
0
0
ARC
5
127
100
AcDbEntity
8
PERIMETER
100
AcDbCircle
10
-6.7421259842519623
20
-0.16732283464568565
30
0
40
0.078740157480314668
210
-0
220
0
230
1
100
AcDbArc
50
-90
51
0
0
LINE
5
128
100
AcDbEntity
8
PERIMETER
100
AcDbLine
10
-6.7421259842519623
20
-0.24606299212600033
30
0
11
-7.4114173228346392
21
-0.24606299212600033
31
0
0
ENDSEC
0
SECTION
2
OBJECTS
0
DICTIONARY
5
C
100
AcDbDictionary
3
ACAD_GROUP
350
D
3
ACAD_MLINESTYLE
350
17
0
DICTIONARY
5
D
100
AcDbDictionary
0
DICTIONARY
5
1A
330
C
100
AcDbDictionary
0
DICTIONARY
5
17
100
AcDbDictionary
0
ENDSEC
0
EOF
