0
SECTION
2
HEADER
9
$INSUNITS
70
1
9
$ACADVER
1
AC1014
9
$HANDSEED
5
FFFF
0
ENDSEC
0
SECTION
2
TABLES
0
TABLE
2
VPORT
5
8
100
AcDbSymbolTable
0
ENDTAB
0
TABLE
2
LTYPE
5
5
100
AcDbSymbolTable
70
2
0
LTYPE
5
14
100
AcDbSymbolTableRecord
100
AcDbLinetypeTableRecord
2
BYBLOCK
70
0
0
LTYPE
5
15
100
AcDbSymbolTableRecord
100
AcDbLinetypeTableRecord
2
BYLAYER
70
0
0
ENDTAB
0
TABLE
2
LAYER
5
2
100
AcDbSymbolTable
70
3
0
LAYER
5
50
100
AcDbSymbolTableRecord
100
AcDbLayerTableRecord
2
0
70
0
6
CONTINUOUS
0
LAYER
5
51
100
AcDbSymbolTableRecord
100
AcDbLayerTableRecord
2
CUTOUTS
70
0
62
1
6
CONTINUOUS
0
LAYER
5
52
100
AcDbSymbolTableRecord
100
AcDbLayerTableRecord
2
PERIMETER
70
0
62
5
6
CONTINUOUS
0
ENDTAB
0
TABLE
2
STYLE
5
3
100
AcDbSymbolTable
70
1
0
STYLE
5
11
100
AcDbSymbolTableRecord
100
AcDbTextStyleTableRecord
2
STANDARD
70
0
0
ENDTAB
0
TABLE
2
VIEW
5
6
100
AcDbSymbolTable
0
ENDTAB
0
TABLE
2
UCS
5
7
100
AcDbSymbolTable
0
ENDTAB
0
TABLE
2
APPID
5
9
100
AcDbSymbolTable
70
1
0
APPID
5
12
100
AcDbSymbolTableRecord
100
AcDbRegAppTableRecord
2
ACAD
70
0
0
ENDTAB
0
TABLE
2
DIMSTYLE
5
A
100
AcDbSymbolTable
0
ENDTAB
0
TABLE
2
BLOCK_RECORD
5
1
100
AcDbSymbolTable
70
2
0
BLOCK_RECORD
5
1F
100
AcDbSymbolTableRecord
100
AcDbBlockTableRecord
2
*MODEL_SPACE
0
BLOCK_RECORD
5
1B
100
AcDbSymbolTableRecord
100
AcDbBlockTableRecord
2
*PAPER_SPACE
0
ENDTAB
0
ENDSEC
0
SECTION
2
BLOCKS
0
BLOCK
5
20
100
AcDbEntity
100
AcDbBlockBegin
2
*MODEL_SPACE
0
ENDBLK
5
21
100
AcDbEntity
100
AcDbBlockEnd
0
BLOCK
5
1C
100
AcDbEntity
100
AcDbBlockBegin
2
*PAPER_SPACE
0
ENDBLK
5
1D
100
AcDbEntity
100
AcDbBlockEnd
0
ENDSEC
0
SECTION
2
ENTITIES
0
CIRCLE
5
100
100
AcDbEntity
8
CUTOUTS
100
AcDbCircle
10
15.944881889763826
20
10.354330708661395
30
0
40
0.12992125984251901
210
0
220
0
230
1
0
CIRCLE
5
101
100
AcDbEntity
8
CUTOUTS
100
AcDbCircle
10
15.944881889763803
20
-11.751968503937023
30
0
40
0.12992125984251901
210
0
220
0
230
1
0
CIRCLE
5
102
100
AcDbEntity
8
CUTOUTS
100
AcDbCircle
10
-9.9606299212598479
20
-12.952755905511813
30
0
40
0.12992125984251901
210
0
220
0
230
1
0
CIRCLE
5
103
100
AcDbEntity
8
CUTOUTS
100
AcDbCircle
10
-15.944881889763831
20
-0.69881889763779748
30
0
40
0.12992125984251901
210
0
220
0
230
1
0
CIRCLE
5
104
100
AcDbEntity
8
CUTOUTS
100
AcDbCircle
10
13.346456692913437
20
12.952755905511786
30
0
40
0.12992125984251901
210
0
220
0
230
1
0
CIRCLE
5
105
100
AcDbEntity
8
CUTOUTS
100
AcDbCircle
10
-2.0866141732283503
20
12.952755905511804
30
0
40
0.1299212598425197
210
0
220
0
230
1
0
CIRCLE
5
106
100
AcDbEntity
8
CUTOUTS
100
AcDbCircle
10
-13.34645669291344
20
12.952755905511806
30
0
40
0.12992125984251901
210
0
220
0
230
1
0
CIRCLE
5
107
100
AcDbEntity
8
CUTOUTS
100
AcDbCircle
10
2.5984251968503909
20
12.952755905511793
30
0
40
0.1299212598425197
210
0
220
0
230
1
0
CIRCLE
5
108
100
AcDbEntity
8
CUTOUTS
100
AcDbCircle
10
-15.944881889763831
20
10.354330708661413
30
0
40
0.12992125984251901
210
0
220
0
230
1
0
CIRCLE
5
109
100
AcDbEntity
8
CUTOUTS
100
AcDbCircle
10
-15.944881889763831
20
-11.751968503937007
30
0
40
0.12992125984251901
210
0
220
0
230
1
0
CIRCLE
5
10A
100
AcDbEntity
8
CUTOUTS
100
AcDbCircle
10
9.9606299212598195
20
-12.952755905511824
30
0
40
0.12992125984251901
210
0
220
0
230
1
0
CIRCLE
5
10B
100
AcDbEntity
8
CUTOUTS
100
AcDbCircle
10
15.944881889763815
20
-0.69881889763781324
30
0
40
0.12992125984251901
210
0
220
0
230
1
0
CIRCLE
5
10C
100
AcDbEntity
8
CUTOUTS
100
AcDbCircle
10
-1.3563020661650685e-14
20
-12.952755905511799
30
0
40
0.12992125984251968
210
0
220
0
230
1
0
LINE
5
10D
100
AcDbEntity
8
PERIMETER
100
AcDbLine
10
1.5354330708661275
20
12.283464566929103
30
0
11
1.5354330708661272
21
10.118110236220446
31
0
0
LINE
5
10E
100
AcDbEntity
8
PERIMETER
100
AcDbLine
10
1.5354330708661272
20
10.118110236220446
30
0
11
1.2598425196850247
21
9.8425196850393437
31
0
0
LINE
5
10F
100
AcDbEntity
8
PERIMETER
100
AcDbLine
10
1.2598425196850247
20
9.8425196850393437
30
0
11
-1.259842519685054
21
9.8425196850393402
31
0
0
LINE
5
110
100
AcDbEntity
8
PERIMETER
100
AcDbLine
10
-1.259842519685054
20
9.8425196850393402
30
0
11
-1.5354330708661563
21
10.118110236220442
31
0
0
LINE
5
111
100
AcDbEntity
8
PERIMETER
100
AcDbLine
10
-1.5354330708661563
20
10.118110236220442
30
0
11
-1.5354330708661568
21
13.425196850393672
31
0
0
ARC
5
112
100
AcDbEntity
8
PERIMETER
100
AcDbCircle
10
-1.6141732283464718
20
13.425196850393675
30
0
40
0.078740157480315029
210
-0
220
0
230
1
100
AcDbArc
50
0
51
90
0
LINE
5
113
100
AcDbEntity
8
PERIMETER
100
AcDbLine
10
-1.6141732283464718
20
13.503937007873992
30
0
11
-13.818897637795342
21
13.503937007873988
31
0
0
ARC
5
114
100
AcDbEntity
8
PERIMETER
100
AcDbCircle
10
-13.81889763779534
20
13.42519685039367
30
0
40
0.078740157480318873
210
0
220
0
230
1
100
AcDbArc
50
90.000000000001307
51
180
0
LINE
5
115
100
AcDbEntity
8
PERIMETER
100
AcDbLine
10
-13.897637795275658
20
13.425196850393672
30
0
11
-13.897637795275658
21
12.440944881889736
31
0
0
ARC
5
116
100
AcDbEntity
8
PERIMETER
100
AcDbCircle
10
-13.976377952755975
20
12.440944881889736
30
0
40
0.078740157480314668
210
-0
220
0
230
1
100
AcDbArc
50
-90
51
0
0
LINE
5
117
100
AcDbEntity
8
PERIMETER
100
AcDbLine
10
-13.976377952755975
20
12.362204724409422
30
0
11
-15.275590551181164
21
12.362204724409429
31
0
0
ARC
5
118
100
AcDbEntity
8
PERIMETER
100
AcDbCircle
10
-15.275590551181162
20
12.283464566929112
30
0
40
0.078740157480317471
210
0
220
0
230
1
100
AcDbArc
50
90.000000000001307
51
180
0
LINE
5
119
100
AcDbEntity
8
PERIMETER
100
AcDbLine
10
-15.354330708661477
20
12.283464566929114
30
0
11
-15.354330708661481
21
10.984251968503905
31
0
0
ARC
5
11A
100
AcDbEntity
8
PERIMETER
100
AcDbCircle
10
-15.433070866141797
20
10.984251968503905
30
0
40
0.078740157480314668
210
-0
220
0
230
1
100
AcDbArc
50
-90
51
0
0
LINE
5
11B
100
AcDbEntity
8
PERIMETER
100
AcDbLine
10
-15.433070866141797
20
10.90551181102359
30
0
11
-16.417322834645731
21
10.905511811023588
31
0
0
ARC
5
11C
100
AcDbEntity
8
PERIMETER
100
AcDbCircle
10
-16.417322834645731
20
10.826771653543272
30
0
40
0.07874015748031607
210
0
220
-0
230
1
100
AcDbArc
50
90
51
180
0
LINE
5
11D
100
AcDbEntity
8
PERIMETER
100
AcDbLine
10
-16.496062992126046
20
10.826771653543274
30
0
11
-16.496062992126014
21
-12.224409448818921
31
0
0
ARC
5
11E
100
AcDbEntity
8
PERIMETER
100
AcDbCircle
10
-16.417322834645699
20
-12.224409448818921
30
0
40
0.07874015748031328
210
0
220
0
230
1
100
AcDbArc
50
180
51
270
0
LINE
5
11F
100
AcDbEntity
8
PERIMETER
100
AcDbLine
10
-16.417322834645699
20
-12.303149606299234
30
0
11
-13.897637795275562
21
-12.303149606299236
31
0
0
ARC
5
120
100
AcDbEntity
8
PERIMETER
100
AcDbCircle
10
-13.897637795275566
20
-12.224409448818916
30
0
40
0.078740157480320275
210
-0
220
0
230
1
100
AcDbArc
50
270.00000000000261
51
360
0
LINE
5
121
100
AcDbEntity
8
PERIMETER
100
AcDbLine
10
-13.818897637795244
20
-12.224409448818921
30
0
11
-13.818897637795283
21
-10.59055118110239
31
0
0
LINE
5
122
100
AcDbEntity
8
PERIMETER
100
AcDbLine
10
-13.818897637795283
20
-10.59055118110239
30
0
11
-13.503937007874033
21
-10.275590551181127
31
0
0
LINE
5
123
100
AcDbEntity
8
PERIMETER
100
AcDbLine
10
-13.503937007874033
20
-10.275590551181127
30
0
11
-10.826771653543323
21
-10.275590551181129
31
0
0
LINE
5
124
100
AcDbEntity
8
PERIMETER
100
AcDbLine
10
-10.826771653543323
20
-10.275590551181129
30
0
11
-10.511811023622062
21
-10.59055118110239
31
0
0
LINE
5
125
100
AcDbEntity
8
PERIMETER
100
AcDbLine
10
-10.511811023622062
20
-10.59055118110239
30
0
11
-10.511811023622062
21
-13.425196850393723
31
0
0
ARC
5
126
100
AcDbEntity
8
PERIMETER
100
AcDbCircle
10
-10.433070866141748
20
-13.425196850393725
30
0
40
0.078740157480314668
210
0
220
0
230
1
100
AcDbArc
50
180
51
270
0
LINE
5
127
100
AcDbEntity
8
PERIMETER
100
AcDbLine
10
-10.433070866141748
20
-13.503937007874038
30
0
11
10.433070866141698
21
-13.503937007874038
31
0
0
ARC
5
128
100
AcDbEntity
8
PERIMETER
100
AcDbCircle
10
10.433070866141694
20
-13.425196850393723
30
0
40
0.07874015748031607
210
-0
220
0
230
1
100
AcDbArc
50
-89.999999999997399
51
0
0
LINE
5
129
100
AcDbEntity
8
PERIMETER
100
AcDbLine
10
10.511811023622011
20
-13.425196850393723
30
0
11
10.511811023622016
21
-10.590551181102404
31
0
0
LINE
5
12A
100
AcDbEntity
8
PERIMETER
100
AcDbLine
10
10.511811023622016
20
-10.590551181102404
30
0
11
10.826771653543275
21
-10.275590551181145
31
0
0
LINE
5
12B
100
AcDbEntity
8
PERIMETER
100
AcDbLine
10
10.826771653543275
20
-10.275590551181145
30
0
11
13.503937007873988
21
-10.275590551181141
31
0
0
LINE
5
12C
100
AcDbEntity
8
PERIMETER
100
AcDbLine
10
13.503937007873988
20
-10.275590551181141
30
0
11
13.818897637795239
21
-10.590551181102402
31
0
0
LINE
5
12D
100
AcDbEntity
8
PERIMETER
100
AcDbLine
10
13.818897637795239
20
-10.590551181102402
30
0
11
13.8188976377952
21
-12.224409448818935
31
0
0
ARC
5
12E
100
AcDbEntity
8
PERIMETER
100
AcDbCircle
10
13.897637795275516
20
-12.224409448818935
30
0
40
0.07874015748031607
210
0
220
0
230
1
100
AcDbArc
50
180
51
270.00000000000125
0
LINE
5
12F
100
AcDbEntity
8
PERIMETER
100
AcDbLine
10
13.897637795275516
20
-12.303149606299252
30
0
11
16.417322834645642
21
-12.303149606299256
31
0
0
ARC
5
130
100
AcDbEntity
8
PERIMETER
100
AcDbCircle
10
16.417322834645645
20
-12.224409448818941
30
0
40
0.078740157480314668
210
0
220
0
230
1
100
AcDbArc
50
-90.000000000002586
51
0
0
LINE
5
131
100
AcDbEntity
8
PERIMETER
100
AcDbLine
10
16.496062992125957
20
-12.224409448818941
30
0
11
16.496062992126024
21
10.826771653543256
31
0
0
ARC
5
132
100
AcDbEntity
8
PERIMETER
100
AcDbCircle
10
16.417322834645709
20
10.826771653543256
30
0
40
0.07874015748031607
210
0
220
-0
230
1
100
AcDbArc
50
0
51
90
0
LINE
5
133
100
AcDbEntity
8
PERIMETER
100
AcDbLine
10
16.417322834645709
20
10.905511811023572
30
0
11
15.433070866141774
21
10.905511811023578
31
0
0
ARC
5
134
100
AcDbEntity
8
PERIMETER
100
AcDbCircle
10
15.433070866141774
20
10.984251968503893
30
0
40
0.07874015748031607
210
0
220
0
230
1
100
AcDbArc
50
180
51
270
0
LINE
5
135
100
AcDbEntity
8
PERIMETER
100
AcDbLine
10
15.354330708661458
20
10.984251968503893
30
0
11
15.354330708661458
21
12.283464566929098
31
0
0
ARC
5
136
100
AcDbEntity
8
PERIMETER
100
AcDbCircle
10
15.275590551181139
20
12.283464566929094
30
0
40
0.078740157480318873
210
0
220
-0
230
1
100
AcDbArc
50
0
51
89.999999999997414
0
LINE
5
137
100
AcDbEntity
8
PERIMETER
100
AcDbLine
10
15.275590551181143
20
12.362204724409414
30
0
11
13.976377952755946
21
12.3622047244094
31
0
0
ARC
5
138
100
AcDbEntity
8
PERIMETER
100
AcDbCircle
10
13.976377952755946
20
12.440944881889715
30
0
40
0.07874015748031607
210
0
220
0
230
1
100
AcDbArc
50
180
51
270
0
LINE
5
139
100
AcDbEntity
8
PERIMETER
100
AcDbLine
10
13.89763779527563
20
12.440944881889715
30
0
11
13.89763779527563
21
13.425196850393652
31
0
0
ARC
5
13A
100
AcDbEntity
8
PERIMETER
100
AcDbCircle
10
13.818897637795308
20
13.425196850393647
30
0
40
0.078740157480321663
210
0
220
-0
230
1
100
AcDbArc
50
0
51
89.999999999994827
0
LINE
5
13B
100
AcDbEntity
8
PERIMETER
100
AcDbLine
10
13.818897637795315
20
13.503937007873969
30
0
11
2.1259842519684904
21
13.503937007873985
31
0
0
ARC
5
13C
100
AcDbEntity
8
PERIMETER
100
AcDbCircle
10
2.1259842519684939
20
13.425196850393666
30
0
40
0.078740157480318873
210
0
220
0
230
1
100
AcDbArc
50
90.000000000002586
51
180
0
LINE
5
13D
100
AcDbEntity
8
PERIMETER
100
AcDbLine
10
2.0472440944881751
20
13.42519685039367
30
0
11
2.0472440944881747
21
12.440944881889733
31
0
0
ARC
5
13E
100
AcDbEntity
8
PERIMETER
100
AcDbCircle
10
1.9685039370078599
20
12.440944881889733
30
0
40
0.078740157480314668
210
-0
220
0
230
1
100
AcDbArc
50
-89.999999999999702
51
0
0
LINE
5
13F
100
AcDbEntity
8
PERIMETER
100
AcDbLine
10
1.9685039370078603
20
12.362204724409418
30
0
11
1.6141732283464425
21
12.362204724409418
31
0
0
ARC
5
140
100
AcDbEntity
8
PERIMETER
100
AcDbCircle
10
1.6141732283464421
20
12.283464566929103
30
0
40
0.078740157480314668
210
0
220
-0
230
1
100
AcDbArc
50
89.999999999999673
51
180
0
ENDSEC
0
SECTION
2
OBJECTS
0
DICTIONARY
5
C
100
AcDbDictionary
3
ACAD_GROUP
350
D
3
ACAD_MLINESTYLE
350
17
0
DICTIONARY
5
D
100
AcDbDictionary
0
DICTIONARY
5
1A
330
C
100
AcDbDictionary
0
DICTIONARY
5
17
100
AcDbDictionary
0
ENDSEC
0
EOF
