0
SECTION
2
HEADER
9
$INSUNITS
70
1
9
$ACADVER
1
AC1014
9
$HANDSEED
5
FFFF
0
ENDSEC
0
SECTION
2
TABLES
0
TABLE
2
VPORT
5
8
100
AcDbSymbolTable
0
ENDTAB
0
TABLE
2
LTYPE
5
5
100
AcDbSymbolTable
70
2
0
LTYPE
5
14
100
AcDbSymbolTableRecord
100
AcDbLinetypeTableRecord
2
BYBLOCK
70
0
0
LTYPE
5
15
100
AcDbSymbolTableRecord
100
AcDbLinetypeTableRecord
2
BYLAYER
70
0
0
ENDTAB
0
TABLE
2
LAYER
5
2
100
AcDbSymbolTable
70
3
0
LAYER
5
50
100
AcDbSymbolTableRecord
100
AcDbLayerTableRecord
2
0
70
0
6
CONTINUOUS
0
LAYER
5
51
100
AcDbSymbolTableRecord
100
AcDbLayerTableRecord
2
CUTOUTS
70
0
62
1
6
CONTINUOUS
0
LAYER
5
52
100
AcDbSymbolTableRecord
100
AcDbLayerTableRecord
2
PERIMETER
70
0
62
5
6
CONTINUOUS
0
ENDTAB
0
TABLE
2
STYLE
5
3
100
AcDbSymbolTable
70
1
0
STYLE
5
11
100
AcDbSymbolTableRecord
100
AcDbTextStyleTableRecord
2
STANDARD
70
0
0
ENDTAB
0
TABLE
2
VIEW
5
6
100
AcDbSymbolTable
0
ENDTAB
0
TABLE
2
UCS
5
7
100
AcDbSymbolTable
0
ENDTAB
0
TABLE
2
APPID
5
9
100
AcDbSymbolTable
70
1
0
APPID
5
12
100
AcDbSymbolTableRecord
100
AcDbRegAppTableRecord
2
ACAD
70
0
0
ENDTAB
0
TABLE
2
DIMSTYLE
5
A
100
AcDbSymbolTable
0
ENDTAB
0
TABLE
2
BLOCK_RECORD
5
1
100
AcDbSymbolTable
70
2
0
BLOCK_RECORD
5
1F
100
AcDbSymbolTableRecord
100
AcDbBlockTableRecord
2
*MODEL_SPACE
0
BLOCK_RECORD
5
1B
100
AcDbSymbolTableRecord
100
AcDbBlockTableRecord
2
*PAPER_SPACE
0
ENDTAB
0
ENDSEC
0
SECTION
2
BLOCKS
0
BLOCK
5
20
100
AcDbEntity
100
AcDbBlockBegin
2
*MODEL_SPACE
0
ENDBLK
5
21
100
AcDbEntity
100
AcDbBlockEnd
0
BLOCK
5
1C
100
AcDbEntity
100
AcDbBlockBegin
2
*PAPER_SPACE
0
ENDBLK
5
1D
100
AcDbEntity
100
AcDbBlockEnd
0
ENDSEC
0
SECTION
2
ENTITIES
0
CIRCLE
5
100
100
AcDbEntity
8
CUTOUTS
100
AcDbCircle
10
-8.0610236220472391
20
0.22637795275590522
30
0
40
0.13779527559055174
210
0
220
0
230
1
0
CIRCLE
5
101
100
AcDbEntity
8
CUTOUTS
100
AcDbCircle
10
-5.6003937007873947
20
-2.6673228346456641
30
0
40
0.094488188976378035
210
0
220
0
230
1
0
CIRCLE
5
102
100
AcDbEntity
8
CUTOUTS
100
AcDbCircle
10
-3.6318897637795207
20
-2.6673228346456641
30
0
40
0.094488188976378035
210
0
220
0
230
1
0
CIRCLE
5
103
100
AcDbEntity
8
CUTOUTS
100
AcDbCircle
10
7.883858267716513
20
-0.54133858267613377
30
0
40
0.13779527559055174
210
0
220
0
230
1
0
CIRCLE
5
104
100
AcDbEntity
8
CUTOUTS
100
AcDbCircle
10
-7.0374015748031544
20
6.1318897637796272
30
0
40
0.13779527559055174
210
0
220
0
230
1
0
CIRCLE
5
105
100
AcDbEntity
8
CUTOUTS
100
AcDbCircle
10
0.79724409448818279
20
6.1318897637796246
30
0
40
0.13779527559055121
210
0
220
0
230
1
0
CIRCLE
5
106
100
AcDbEntity
8
CUTOUTS
100
AcDbCircle
10
7.8838582677165245
20
4.9507874015758322
30
0
40
0.13779527559055174
210
0
220
0
230
1
0
CIRCLE
5
107
100
AcDbEntity
8
CUTOUTS
100
AcDbCircle
10
7.8838582677113545
20
-6.0334645669280986
30
0
40
0.13779527559055174
210
0
220
0
230
1
0
CIRCLE
5
108
100
AcDbEntity
8
CUTOUTS
100
AcDbCircle
10
-8.0610236220472391
20
4.1633858267716528
30
0
40
0.13779527559055174
210
0
220
0
230
1
0
CIRCLE
5
109
100
AcDbEntity
8
CUTOUTS
100
AcDbCircle
10
-8.0610236220472391
20
-3.7106299212598426
30
0
40
0.13779527559055174
210
0
220
0
230
1
0
ARC
5
10A
100
AcDbEntity
8
CUTOUTS
100
AcDbCircle
10
7.2401574803149531
20
6.0137795275590502
30
0
40
0.07874015748031607
210
0
220
-0
230
1
100
AcDbArc
50
0
51
90
0
LINE
5
10B
100
AcDbEntity
8
CUTOUTS
100
AcDbLine
10
6.6377952755905465
20
6.0925196850393659
30
0
11
7.2401574803149531
21
6.0925196850393659
31
0
0
ARC
5
10C
100
AcDbEntity
8
CUTOUTS
100
AcDbCircle
10
6.6377952755905465
20
6.0137795275590502
30
0
40
0.07874015748031607
210
0
220
-0
230
1
100
AcDbArc
50
90
51
180
0
LINE
5
10D
100
AcDbEntity
8
CUTOUTS
100
AcDbLine
10
6.5590551181102326
20
5.5807086614173187
30
0
11
6.5590551181102299
21
6.0137795275590502
31
0
0
ARC
5
10E
100
AcDbEntity
8
CUTOUTS
100
AcDbCircle
10
6.6377952755905492
20
5.5807086614173187
30
0
40
0.07874015748031607
210
0
220
0
230
1
100
AcDbArc
50
180
51
270
0
LINE
5
10F
100
AcDbEntity
8
CUTOUTS
100
AcDbLine
10
7.2401574803149531
20
5.5019685039370039
30
0
11
6.6377952755905492
21
5.5019685039370021
31
0
0
ARC
5
110
100
AcDbEntity
8
CUTOUTS
100
AcDbCircle
10
7.2401574803149531
20
5.5807086614173196
30
0
40
0.07874015748031607
210
-0
220
0
230
1
100
AcDbArc
50
-90
51
0
0
LINE
5
111
100
AcDbEntity
8
CUTOUTS
100
AcDbLine
10
7.3188976377952697
20
6.0137795275590502
30
0
11
7.3188976377952697
21
5.5807086614173196
31
0
0
LINE
5
112
100
AcDbEntity
8
PERIMETER
100
AcDbLine
10
8.3562992125984188
20
6.683070866141728
30
0
11
-7.6476377952755845
21
6.683070866141728
31
0
0
LINE
5
113
100
AcDbEntity
8
PERIMETER
100
AcDbLine
10
-7.6476377952755845
20
6.683070866141728
30
0
11
-7.6476377952755836
21
5.2263779527559047
31
0
0
ARC
5
114
100
AcDbEntity
8
PERIMETER
100
AcDbCircle
10
-7.7460629921259772
20
5.2263779527559047
30
0
40
0.098425196850393692
210
-0
220
0
230
1
100
AcDbArc
50
-90
51
0
0
LINE
5
115
100
AcDbEntity
8
PERIMETER
100
AcDbLine
10
-7.746062992125978
20
5.1279527559055111
30
0
11
-8.395669291338578
21
5.1279527559055111
31
0
0
ARC
5
116
100
AcDbEntity
8
PERIMETER
100
AcDbCircle
10
-8.395669291338578
20
5.0885826771653546
30
0
40
0.03937007874015664
210
0
220
-0
230
1
100
AcDbArc
50
90
51
180
0
LINE
5
117
100
AcDbEntity
8
PERIMETER
100
AcDbLine
10
-8.4350393700787336
20
5.0885826771653546
30
0
11
-8.4350393700787354
21
3.2381889763779514
31
0
0
ARC
5
118
100
AcDbEntity
8
PERIMETER
100
AcDbCircle
10
-8.395669291338578
20
3.2381889763779514
30
0
40
0.039370078740158035
210
0
220
0
230
1
100
AcDbArc
50
180
51
270
0
LINE
5
119
100
AcDbEntity
8
PERIMETER
100
AcDbLine
10
-8.395669291338578
20
3.1988188976377936
30
0
11
-7.7263779527559002
21
3.1988188976377949
31
0
0
ARC
5
11A
100
AcDbEntity
8
PERIMETER
100
AcDbCircle
10
-7.7263779527559002
20
3.1200787401574805
30
0
40
0.078740157480314668
210
0
220
-0
230
1
100
AcDbArc
50
0
51
90
0
LINE
5
11B
100
AcDbEntity
8
PERIMETER
100
AcDbLine
10
-7.6476377952755863
20
3.1200787401574805
30
0
11
-7.6476377952755863
21
1.2696850393700778
31
0
0
ARC
5
11C
100
AcDbEntity
8
PERIMETER
100
AcDbCircle
10
-7.7263779527559002
20
1.2696850393700778
30
0
40
0.078740157480314668
210
-0
220
0
230
1
100
AcDbArc
50
-90
51
0
0
LINE
5
11D
100
AcDbEntity
8
PERIMETER
100
AcDbLine
10
-7.7263779527559002
20
1.1909448818897632
30
0
11
-8.395669291338578
21
1.1909448818897632
31
0
0
ARC
5
11E
100
AcDbEntity
8
PERIMETER
100
AcDbCircle
10
-8.395669291338578
20
1.1515748031496065
30
0
40
0.03937007874015664
210
0
220
-0
230
1
100
AcDbArc
50
90
51
180
0
LINE
5
11F
100
AcDbEntity
8
PERIMETER
100
AcDbLine
10
-8.4350393700787336
20
1.1515748031496065
30
0
11
-8.4350393700787354
21
-0.69881889763779603
31
0
0
ARC
5
120
100
AcDbEntity
8
PERIMETER
100
AcDbCircle
10
-8.395669291338578
20
-0.69881889763779603
30
0
40
0.039370078740158035
210
0
220
0
230
1
100
AcDbArc
50
180
51
270
0
LINE
5
121
100
AcDbEntity
8
PERIMETER
100
AcDbLine
10
-8.395669291338578
20
-0.73818897637795344
30
0
11
-7.7263779527559002
21
-0.73818897637795267
31
0
0
ARC
5
122
100
AcDbEntity
8
PERIMETER
100
AcDbCircle
10
-7.7263779527559002
20
-0.81692913385826738
30
0
40
0.078740157480314668
210
0
220
-0
230
1
100
AcDbArc
50
0
51
90
0
LINE
5
123
100
AcDbEntity
8
PERIMETER
100
AcDbLine
10
-7.6476377952755863
20
-0.81692913385826738
30
0
11
-7.6476377952755863
21
-2.6673228346456699
31
0
0
ARC
5
124
100
AcDbEntity
8
PERIMETER
100
AcDbCircle
10
-7.7263779527559002
20
-2.6673228346456699
30
0
40
0.078740157480314668
210
-0
220
0
230
1
100
AcDbArc
50
-90
51
0
0
LINE
5
125
100
AcDbEntity
8
PERIMETER
100
AcDbLine
10
-7.7263779527559002
20
-2.7460629921259847
30
0
11
-8.395669291338578
21
-2.7460629921259847
31
0
0
ARC
5
126
100
AcDbEntity
8
PERIMETER
100
AcDbCircle
10
-8.395669291338578
20
-2.7854330708661412
30
0
40
0.03937007874015664
210
0
220
-0
230
1
100
AcDbArc
50
90
51
180
0
LINE
5
127
100
AcDbEntity
8
PERIMETER
100
AcDbLine
10
-8.4350393700787336
20
-2.7854330708661412
30
0
11
-8.4350393700787354
21
-4.6358267716535435
31
0
0
ARC
5
128
100
AcDbEntity
8
PERIMETER
100
AcDbCircle
10
-8.395669291338578
20
-4.6358267716535435
30
0
40
0.039370078740158035
210
0
220
0
230
1
100
AcDbArc
50
180
51
270
0
LINE
5
129
100
AcDbEntity
8
PERIMETER
100
AcDbLine
10
-8.395669291338578
20
-4.6751968503937009
30
0
11
-7.7263779527559002
21
-4.6751968503937
31
0
0
ARC
5
12A
100
AcDbEntity
8
PERIMETER
100
AcDbCircle
10
-7.7263779527559002
20
-4.7539370078740149
30
0
40
0.078740157480314668
210
0
220
0
230
1
100
AcDbArc
50
0
51
90
0
LINE
5
12B
100
AcDbEntity
8
PERIMETER
100
AcDbLine
10
-7.6476377952755863
20
-4.7539370078740149
30
0
11
-7.6476377952755836
21
-6.6830708661417271
31
0
0
LINE
5
12C
100
AcDbEntity
8
PERIMETER
100
AcDbLine
10
-7.6476377952755836
20
-6.6830708661417271
30
0
11
8.4350393700787389
21
-6.6830708661417253
31
0
0
LINE
5
12D
100
AcDbEntity
8
PERIMETER
100
AcDbLine
10
8.4350393700787372
20
-6.6830708661417253
30
0
11
8.4350393700787336
21
6.6043307086614123
31
0
0
ARC
5
12E
100
AcDbEntity
8
PERIMETER
100
AcDbCircle
10
8.3562992125984152
20
6.6043307086614096
30
0
40
0.078740157480318873
210
0
220
-0
230
1
100
AcDbArc
50
0
51
89.999999999997414
0
ENDSEC
0
SECTION
2
OBJECTS
0
DICTIONARY
5
C
100
AcDbDictionary
3
ACAD_GROUP
350
D
3
ACAD_MLINESTYLE
350
17
0
DICTIONARY
5
D
100
AcDbDictionary
0
DICTIONARY
5
1A
330
C
100
AcDbDictionary
0
DICTIONARY
5
17
100
AcDbDictionary
0
ENDSEC
0
EOF
