0
SECTION
2
HEADER
9
$INSUNITS
70
1
9
$ACADVER
1
AC1014
9
$HANDSEED
5
FFFF
0
ENDSEC
0
SECTION
2
TABLES
0
TABLE
2
VPORT
5
8
100
AcDbSymbolTable
0
ENDTAB
0
TABLE
2
LTYPE
5
5
100
AcDbSymbolTable
70
2
0
LTYPE
5
14
100
AcDbSymbolTableRecord
100
AcDbLinetypeTableRecord
2
BYBLOCK
70
0
0
LTYPE
5
15
100
AcDbSymbolTableRecord
100
AcDbLinetypeTableRecord
2
BYLAYER
70
0
0
ENDTAB
0
TABLE
2
LAYER
5
2
100
AcDbSymbolTable
70
3
0
LAYER
5
50
100
AcDbSymbolTableRecord
100
AcDbLayerTableRecord
2
0
70
0
6
CONTINUOUS
0
LAYER
5
51
100
AcDbSymbolTableRecord
100
AcDbLayerTableRecord
2
CUTOUTS
70
0
62
1
6
CONTINUOUS
0
LAYER
5
52
100
AcDbSymbolTableRecord
100
AcDbLayerTableRecord
2
PERIMETER
70
0
62
5
6
CONTINUOUS
0
ENDTAB
0
TABLE
2
STYLE
5
3
100
AcDbSymbolTable
70
1
0
STYLE
5
11
100
AcDbSymbolTableRecord
100
AcDbTextStyleTableRecord
2
STANDARD
70
0
0
ENDTAB
0
TABLE
2
VIEW
5
6
100
AcDbSymbolTable
0
ENDTAB
0
TABLE
2
UCS
5
7
100
AcDbSymbolTable
0
ENDTAB
0
TABLE
2
APPID
5
9
100
AcDbSymbolTable
70
1
0
APPID
5
12
100
AcDbSymbolTableRecord
100
AcDbRegAppTableRecord
2
ACAD
70
0
0
ENDTAB
0
TABLE
2
DIMSTYLE
5
A
100
AcDbSymbolTable
0
ENDTAB
0
TABLE
2
BLOCK_RECORD
5
1
100
AcDbSymbolTable
70
2
0
BLOCK_RECORD
5
1F
100
AcDbSymbolTableRecord
100
AcDbBlockTableRecord
2
*MODEL_SPACE
0
BLOCK_RECORD
5
1B
100
AcDbSymbolTableRecord
100
AcDbBlockTableRecord
2
*PAPER_SPACE
0
ENDTAB
0
ENDSEC
0
SECTION
2
BLOCKS
0
BLOCK
5
20
100
AcDbEntity
100
AcDbBlockBegin
2
*MODEL_SPACE
0
ENDBLK
5
21
100
AcDbEntity
100
AcDbBlockEnd
0
BLOCK
5
1C
100
AcDbEntity
100
AcDbBlockBegin
2
*PAPER_SPACE
0
ENDBLK
5
1D
100
AcDbEntity
100
AcDbBlockEnd
0
ENDSEC
0
SECTION
2
ENTITIES
0
CIRCLE
5
100
100
AcDbEntity
8
CUTOUTS
100
AcDbCircle
10
11.122045669342825
20
-1.4074803149590447
30
0
40
0.12992125984251901
210
0
220
0
230
1
0
CIRCLE
5
101
100
AcDbEntity
8
CUTOUTS
100
AcDbCircle
10
11.122045669342828
20
3.3956692913401669
30
0
40
0.12992125984251901
210
0
220
0
230
1
0
CIRCLE
5
102
100
AcDbEntity
8
CUTOUTS
100
AcDbCircle
10
11.122045669342828
20
-10.30511811023141
30
0
40
0.12992125984251901
210
0
220
0
230
1
0
CIRCLE
5
103
100
AcDbEntity
8
CUTOUTS
100
AcDbCircle
10
11.122045669342826
20
9.9704724409464678
30
0
40
0.12992125984251901
210
0
220
0
230
1
0
CIRCLE
5
104
100
AcDbEntity
8
CUTOUTS
100
AcDbCircle
10
11.122045669342826
20
9.3799212598441049
30
0
40
0.12992125984251901
210
0
220
0
230
1
0
CIRCLE
5
105
100
AcDbEntity
8
CUTOUTS
100
AcDbCircle
10
11.122045669342828
20
-10.895669291333771
30
0
40
0.12992125984251901
210
0
220
0
230
1
0
CIRCLE
5
106
100
AcDbEntity
8
CUTOUTS
100
AcDbCircle
10
11.122045669342828
20
-0.10826771653384777
30
0
40
0.12992125984251901
210
0
220
0
230
1
0
CIRCLE
5
107
100
AcDbEntity
8
CUTOUTS
100
AcDbCircle
10
11.122045669342825
20
-1.998031496061407
30
0
40
0.12992125984251901
210
0
220
0
230
1
0
CIRCLE
5
108
100
AcDbEntity
8
CUTOUTS
100
AcDbCircle
10
-11.122045669342828
20
-1.4074803149590447
30
0
40
0.12992125984251901
210
0
220
0
230
1
0
CIRCLE
5
109
100
AcDbEntity
8
CUTOUTS
100
AcDbCircle
10
-11.12204566934283
20
3.3956692913401669
30
0
40
0.12992125984251901
210
0
220
0
230
1
0
CIRCLE
5
10A
100
AcDbEntity
8
CUTOUTS
100
AcDbCircle
10
-11.12204566934283
20
-10.30511811023141
30
0
40
0.12992125984251901
210
0
220
0
230
1
0
CIRCLE
5
10B
100
AcDbEntity
8
CUTOUTS
100
AcDbCircle
10
-11.12204566934283
20
9.9704724409464678
30
0
40
0.12992125984251901
210
0
220
0
230
1
0
CIRCLE
5
10C
100
AcDbEntity
8
CUTOUTS
100
AcDbCircle
10
-11.12204566934283
20
9.3799212598441049
30
0
40
0.12992125984251901
210
0
220
0
230
1
0
CIRCLE
5
10D
100
AcDbEntity
8
CUTOUTS
100
AcDbCircle
10
-11.12204566934283
20
-10.895669291333771
30
0
40
0.12992125984251901
210
0
220
0
230
1
0
CIRCLE
5
10E
100
AcDbEntity
8
CUTOUTS
100
AcDbCircle
10
-11.12204566934283
20
-0.10826771653384777
30
0
40
0.12992125984251901
210
0
220
0
230
1
0
CIRCLE
5
10F
100
AcDbEntity
8
CUTOUTS
100
AcDbCircle
10
-11.122045669342828
20
-1.998031496061407
30
0
40
0.12992125984251901
210
0
220
0
230
1
0
ARC
5
110
100
AcDbEntity
8
PERIMETER
100
AcDbCircle
10
-12.51968502986727
20
10.816929133858267
30
0
40
0.07874015748031328
210
0
220
-0
230
1
100
AcDbArc
50
89.999999999998721
51
180.00000391248236
0
LINE
5
111
100
AcDbEntity
8
PERIMETER
100
AcDbLine
10
-12.598425187347583
20
10.816929128428086
30
0
11
-12.598423631601547
21
-11.742125989677335
31
0
0
ARC
5
112
100
AcDbEntity
8
PERIMETER
100
AcDbCircle
10
-12.519683474121234
20
-11.742125984247163
30
0
40
0.078740157480313461
210
0
220
0
230
1
100
AcDbArc
50
180.00000391248236
51
270.00000000000125
0
LINE
5
113
100
AcDbEntity
8
PERIMETER
100
AcDbLine
10
-12.519683474121232
20
-11.820866141727477
30
0
11
-11.425475070176946
21
-11.820866141727473
31
0
0
ARC
5
114
100
AcDbEntity
8
PERIMETER
100
AcDbCircle
10
-11.425475070176946
20
-11.89960629920779
30
0
40
0.078740157480314793
210
0
220
-0
230
1
100
AcDbArc
50
45
51
90
0
LINE
5
115
100
AcDbEntity
8
PERIMETER
100
AcDbLine
10
-11.369797370870918
20
-11.843928599901762
30
0
11
-9.0191238755438334
21
-14.194602095228882
31
0
0
ARC
5
116
100
AcDbEntity
8
PERIMETER
100
AcDbCircle
10
-9.0748015748498609
20
-14.25027979453491
30
0
40
0.078740157480314668
210
0
220
-0
230
1
100
AcDbArc
50
0
51
45
0
LINE
5
117
100
AcDbEntity
8
PERIMETER
100
AcDbLine
10
-8.9960614173695461
20
-14.25027979453491
30
0
11
-8.9960614173695461
21
-14.41929133858268
31
0
0
ARC
5
118
100
AcDbEntity
8
PERIMETER
100
AcDbCircle
10
-8.917321259889226
20
-14.419291338582676
30
0
40
0.078740157480318873
210
0
220
0
230
1
100
AcDbArc
50
180
51
269.99999999999613
0
LINE
5
119
100
AcDbEntity
8
PERIMETER
100
AcDbLine
10
-8.9173212598892313
20
-14.498031496062994
30
0
11
8.9173212598892526
21
-14.498031496062994
31
0
0
ARC
5
11A
100
AcDbEntity
8
PERIMETER
100
AcDbCircle
10
8.9173212598892491
20
-14.419291338582676
30
0
40
0.078740157480318873
210
-0
220
0
230
1
100
AcDbArc
50
270.00000000000261
51
360
0
LINE
5
11B
100
AcDbEntity
8
PERIMETER
100
AcDbLine
10
8.9960614173695674
20
-14.419291338582681
30
0
11
8.9960614173695674
21
-14.250279794534897
31
0
0
ARC
5
11C
100
AcDbEntity
8
PERIMETER
100
AcDbCircle
10
9.0748015748498823
20
-14.250279794534897
30
0
40
0.078740157480314793
210
0
220
0
230
1
100
AcDbArc
50
135.00000000000091
51
180
0
LINE
5
11D
100
AcDbEntity
8
PERIMETER
100
AcDbLine
10
9.0191238755438548
20
-14.194602095228872
30
0
11
11.369797370870938
21
-11.843928599901753
31
0
0
ARC
5
11E
100
AcDbEntity
8
PERIMETER
100
AcDbCircle
10
11.425475070176965
20
-11.899606299207781
30
0
40
0.07874015748031607
210
0
220
-0
230
1
100
AcDbArc
50
90
51
135
0
LINE
5
11F
100
AcDbEntity
8
PERIMETER
100
AcDbLine
10
11.425475070176965
20
-11.820866141727464
30
0
11
12.519683474121251
21
-11.820866141727468
31
0
0
ARC
5
120
100
AcDbEntity
8
PERIMETER
100
AcDbCircle
10
12.519683474121253
20
-11.742125984247151
30
0
40
0.07874015748031607
210
0
220
0
230
1
100
AcDbArc
50
269.99999999999869
51
359.99999608751767
0
LINE
5
121
100
AcDbEntity
8
PERIMETER
100
AcDbLine
10
12.59842363160157
20
-11.742125989677332
30
0
11
12.598425187347583
21
10.816929128428098
31
0
0
ARC
5
122
100
AcDbEntity
8
PERIMETER
100
AcDbCircle
10
12.51968502986727
20
10.816929133858276
30
0
40
0.078740157480313461
210
-0
220
0
230
1
100
AcDbArc
50
-3.9124823465346162e-06
51
90
0
LINE
5
123
100
AcDbEntity
8
PERIMETER
100
AcDbLine
10
12.51968502986727
20
10.895669291338589
30
0
11
11.425476644928581
21
10.89566929133859
31
0
0
ARC
5
124
100
AcDbEntity
8
PERIMETER
100
AcDbCircle
10
11.425476644928581
20
10.974409448818905
30
0
40
0.078740157480314793
210
0
220
0
230
1
100
AcDbArc
50
225.00000000011607
51
270
0
LINE
5
125
100
AcDbEntity
8
PERIMETER
100
AcDbLine
10
11.369798945622666
20
10.918731749512764
30
0
11
9.0191254502907832
21
13.269405244835086
31
0
0
ARC
5
126
100
AcDbEntity
8
PERIMETER
100
AcDbCircle
10
9.0748031495966988
20
13.325082944141228
30
0
40
0.078740157480314668
210
0
220
0
230
1
100
AcDbArc
50
180
51
225.00000000011607
0
LINE
5
127
100
AcDbEntity
8
PERIMETER
100
AcDbLine
10
8.9960629921163839
20
13.325082944141228
30
0
11
8.9960629921163822
21
14.41929133858268
31
0
0
ARC
5
128
100
AcDbEntity
8
PERIMETER
100
AcDbCircle
10
8.9173228346360673
20
14.41929133858268
30
0
40
0.078740157480314668
210
0
220
-0
230
1
100
AcDbArc
50
0
51
90
0
LINE
5
129
100
AcDbEntity
8
PERIMETER
100
AcDbLine
10
8.9173228346360673
20
14.498031496062993
30
0
11
-8.9173228346360727
21
14.498031496062975
31
0
0
ARC
5
12A
100
AcDbEntity
8
PERIMETER
100
AcDbCircle
10
-8.9173228346360709
20
14.419291338582665
30
0
40
0.07874015748031607
210
0
220
0
230
1
100
AcDbArc
50
90.000000000001307
51
180
0
LINE
5
12B
100
AcDbEntity
8
PERIMETER
100
AcDbLine
10
-8.9960629921163857
20
14.419291338582665
30
0
11
-8.9960629921163857
21
13.325082944141222
31
0
0
ARC
5
12C
100
AcDbEntity
8
PERIMETER
100
AcDbCircle
10
-9.0748031495967005
20
13.325082944141222
30
0
40
0.078740157480315792
210
-0
220
0
230
1
100
AcDbArc
50
-45.000000000117907
51
0
0
LINE
5
12D
100
AcDbEntity
8
PERIMETER
100
AcDbLine
10
-9.0191254502907867
20
13.269405244835079
30
0
11
-11.369798945622666
21
10.918731749512753
31
0
0
ARC
5
12E
100
AcDbEntity
8
PERIMETER
100
AcDbCircle
10
-11.425476644928581
20
10.974409448818895
30
0
40
0.078740157480314668
210
-0
220
0
230
1
100
AcDbArc
50
270
51
314.99999999988393
0
LINE
5
12F
100
AcDbEntity
8
PERIMETER
100
AcDbLine
10
-11.425476644928581
20
10.89566929133858
30
0
11
-12.519685029867269
21
10.89566929133858
31
0
0
ENDSEC
0
SECTION
2
OBJECTS
0
DICTIONARY
5
C
100
AcDbDictionary
3
ACAD_GROUP
350
D
3
ACAD_MLINESTYLE
350
17
0
DICTIONARY
5
D
100
AcDbDictionary
0
DICTIONARY
5
1A
330
C
100
AcDbDictionary
0
DICTIONARY
5
17
100
AcDbDictionary
0
ENDSEC
0
EOF
