0
SECTION
2
HEADER
9
$INSUNITS
70
1
9
$ACADVER
1
AC1014
9
$HANDSEED
5
FFFF
0
ENDSEC
0
SECTION
2
TABLES
0
TABLE
2
VPORT
5
8
100
AcDbSymbolTable
0
ENDTAB
0
TABLE
2
LTYPE
5
5
100
AcDbSymbolTable
70
2
0
LTYPE
5
14
100
AcDbSymbolTableRecord
100
AcDbLinetypeTableRecord
2
BYBLOCK
70
0
0
LTYPE
5
15
100
AcDbSymbolTableRecord
100
AcDbLinetypeTableRecord
2
BYLAYER
70
0
0
ENDTAB
0
TABLE
2
LAYER
5
2
100
AcDbSymbolTable
70
3
0
LAYER
5
50
100
AcDbSymbolTableRecord
100
AcDbLayerTableRecord
2
0
70
0
6
CONTINUOUS
0
LAYER
5
51
100
AcDbSymbolTableRecord
100
AcDbLayerTableRecord
2
CUTOUTS
70
0
62
1
6
CONTINUOUS
0
LAYER
5
52
100
AcDbSymbolTableRecord
100
AcDbLayerTableRecord
2
PERIMETER
70
0
62
5
6
CONTINUOUS
0
ENDTAB
0
TABLE
2
STYLE
5
3
100
AcDbSymbolTable
70
1
0
STYLE
5
11
100
AcDbSymbolTableRecord
100
AcDbTextStyleTableRecord
2
STANDARD
70
0
0
ENDTAB
0
TABLE
2
VIEW
5
6
100
AcDbSymbolTable
0
ENDTAB
0
TABLE
2
UCS
5
7
100
AcDbSymbolTable
0
ENDTAB
0
TABLE
2
APPID
5
9
100
AcDbSymbolTable
70
1
0
APPID
5
12
100
AcDbSymbolTableRecord
100
AcDbRegAppTableRecord
2
ACAD
70
0
0
ENDTAB
0
TABLE
2
DIMSTYLE
5
A
100
AcDbSymbolTable
0
ENDTAB
0
TABLE
2
BLOCK_RECORD
5
1
100
AcDbSymbolTable
70
2
0
BLOCK_RECORD
5
1F
100
AcDbSymbolTableRecord
100
AcDbBlockTableRecord
2
*MODEL_SPACE
0
BLOCK_RECORD
5
1B
100
AcDbSymbolTableRecord
100
AcDbBlockTableRecord
2
*PAPER_SPACE
0
ENDTAB
0
ENDSEC
0
SECTION
2
BLOCKS
0
BLOCK
5
20
100
AcDbEntity
100
AcDbBlockBegin
2
*MODEL_SPACE
0
ENDBLK
5
21
100
AcDbEntity
100
AcDbBlockEnd
0
BLOCK
5
1C
100
AcDbEntity
100
AcDbBlockBegin
2
*PAPER_SPACE
0
ENDBLK
5
1D
100
AcDbEntity
100
AcDbBlockEnd
0
ENDSEC
0
SECTION
2
ENTITIES
0
CIRCLE
5
100
100
AcDbEntity
8
CUTOUTS
100
AcDbCircle
10
8.0610236220472444
20
3.7106299212598426
30
0
40
0.13779527559055174
210
0
220
0
230
1
0
CIRCLE
5
101
100
AcDbEntity
8
CUTOUTS
100
AcDbCircle
10
3.6712598425196865
20
3.375984251968509
30
0
40
0.06102362204724384
210
0
220
0
230
1
0
CIRCLE
5
102
100
AcDbEntity
8
CUTOUTS
100
AcDbCircle
10
5.9547244094488212
20
1.446850393700793
30
0
40
0.06102362204724384
210
0
220
0
230
1
0
CIRCLE
5
103
100
AcDbEntity
8
CUTOUTS
100
AcDbCircle
10
3.6712598425196874
20
1.4468503937007924
30
0
40
0.06102362204724384
210
0
220
0
230
1
0
CIRCLE
5
104
100
AcDbEntity
8
CUTOUTS
100
AcDbCircle
10
5.9547244094488212
20
3.3759842519685095
30
0
40
0.06102362204724384
210
0
220
0
230
1
0
CIRCLE
5
105
100
AcDbEntity
8
CUTOUTS
100
AcDbCircle
10
3.1397637795275606
20
5.8366141732283534
30
0
40
0.070866141732283353
210
0
220
0
230
1
0
CIRCLE
5
106
100
AcDbEntity
8
CUTOUTS
100
AcDbCircle
10
6.6830708661417333
20
5.8366141732283534
30
0
40
0.070866141732283353
210
0
220
0
230
1
0
CIRCLE
5
107
100
AcDbEntity
8
CUTOUTS
100
AcDbCircle
10
0.16732283464568354
20
-6.1318897637769725
30
0
40
0.13779527559055121
210
0
220
0
230
1
0
CIRCLE
5
108
100
AcDbEntity
8
CUTOUTS
100
AcDbCircle
10
-7.8838582677165219
20
-4.9507874015732867
30
0
40
0.13779527559055174
210
0
220
0
230
1
0
CIRCLE
5
109
100
AcDbEntity
8
CUTOUTS
100
AcDbCircle
10
-7.8838582677113518
20
6.0334645669306495
30
0
40
0.13779527559055174
210
0
220
0
230
1
0
CIRCLE
5
10A
100
AcDbEntity
8
CUTOUTS
100
AcDbCircle
10
-7.8838582677165157
20
0.54133858267868218
30
0
40
0.13779527559055174
210
0
220
0
230
1
0
CIRCLE
5
10B
100
AcDbEntity
8
CUTOUTS
100
AcDbCircle
10
-6.7027559055117969
20
-6.1318897637769725
30
0
40
0.13779527559055174
210
0
220
0
230
1
0
CIRCLE
5
10C
100
AcDbEntity
8
CUTOUTS
100
AcDbCircle
10
7.0374015748031633
20
-6.1318897637769725
30
0
40
0.13779527559055174
210
0
220
0
230
1
0
CIRCLE
5
10D
100
AcDbEntity
8
CUTOUTS
100
AcDbCircle
10
6.6830708661417333
20
1.4468503937008197
30
0
40
0.31496062992126012
210
0
220
0
230
1
0
CIRCLE
5
10E
100
AcDbEntity
8
CUTOUTS
100
AcDbCircle
10
8.0610236220472444
20
-0.22637795275590522
30
0
40
0.13779527559055174
210
0
220
0
230
1
0
CIRCLE
5
10F
100
AcDbEntity
8
CUTOUTS
100
AcDbCircle
10
8.0610236220472444
20
-4.1633858267716528
30
0
40
0.13779527559055174
210
0
220
0
230
1
0
LINE
5
110
100
AcDbEntity
8
PERIMETER
100
AcDbLine
10
-8.3562992125984241
20
-5.5019685039370065
30
0
11
-7.3326771653543368
21
-5.5019685039370065
31
0
0
ARC
5
111
100
AcDbEntity
8
PERIMETER
100
AcDbCircle
10
-7.3326771653543368
20
-5.5807086614173214
30
0
40
0.07874015748031607
210
0
220
-0
230
1
100
AcDbArc
50
0
51
90
0
LINE
5
112
100
AcDbEntity
8
PERIMETER
100
AcDbLine
10
-7.2539370078740211
20
-5.5807086614173214
30
0
11
-7.2539370078740211
21
-6.6043307086614202
31
0
0
ARC
5
113
100
AcDbEntity
8
PERIMETER
100
AcDbCircle
10
-7.1751968503937018
20
-6.6043307086614176
30
0
40
0.078740157480318873
210
0
220
0
230
1
100
AcDbArc
50
180
51
269.99999999999744
0
LINE
5
114
100
AcDbEntity
8
PERIMETER
100
AcDbLine
10
-7.1751968503937054
20
-6.6830708661417368
30
0
11
7.6476377952755898
21
-6.6830708661417306
31
0
0
LINE
5
115
100
AcDbEntity
8
PERIMETER
100
AcDbLine
10
7.6476377952755898
20
-6.6830708661417306
30
0
11
7.6476377952755898
21
-5.2263779527559047
31
0
0
ARC
5
116
100
AcDbEntity
8
PERIMETER
100
AcDbCircle
10
7.7460629921259843
20
-5.2263779527559047
30
0
40
0.098425196850393692
210
0
220
-0
230
1
100
AcDbArc
50
90
51
180
0
LINE
5
117
100
AcDbEntity
8
PERIMETER
100
AcDbLine
10
7.7460629921259843
20
-5.1279527559055111
30
0
11
8.3956692913385815
21
-5.1279527559055111
31
0
0
ARC
5
118
100
AcDbEntity
8
PERIMETER
100
AcDbCircle
10
8.3956692913385815
20
-5.0885826771653546
30
0
40
0.03937007874015664
210
-0
220
0
230
1
100
AcDbArc
50
-90
51
0
0
LINE
5
119
100
AcDbEntity
8
PERIMETER
100
AcDbLine
10
8.4350393700787389
20
-5.0885826771653546
30
0
11
8.4350393700787389
21
-3.2381889763779514
31
0
0
ARC
5
11A
100
AcDbEntity
8
PERIMETER
100
AcDbCircle
10
8.3956692913385815
20
-3.2381889763779514
30
0
40
0.039370078740158035
210
0
220
-0
230
1
100
AcDbArc
50
0
51
90
0
LINE
5
11B
100
AcDbEntity
8
PERIMETER
100
AcDbLine
10
8.3956692913385815
20
-3.1988188976377936
30
0
11
7.7263779527559047
21
-3.1988188976377949
31
0
0
ARC
5
11C
100
AcDbEntity
8
PERIMETER
100
AcDbCircle
10
7.7263779527559047
20
-3.1200787401574805
30
0
40
0.078740157480314668
210
0
220
0
230
1
100
AcDbArc
50
180
51
270
0
LINE
5
11D
100
AcDbEntity
8
PERIMETER
100
AcDbLine
10
7.6476377952755898
20
-3.1200787401574805
30
0
11
7.6476377952755916
21
-1.2696850393700778
31
0
0
ARC
5
11E
100
AcDbEntity
8
PERIMETER
100
AcDbCircle
10
7.7263779527559047
20
-1.2696850393700778
30
0
40
0.078740157480314668
210
0
220
-0
230
1
100
AcDbArc
50
90
51
180
0
LINE
5
11F
100
AcDbEntity
8
PERIMETER
100
AcDbLine
10
7.7263779527559047
20
-1.1909448818897632
30
0
11
8.3956692913385815
21
-1.1909448818897632
31
0
0
ARC
5
120
100
AcDbEntity
8
PERIMETER
100
AcDbCircle
10
8.3956692913385815
20
-1.1515748031496065
30
0
40
0.03937007874015664
210
-0
220
0
230
1
100
AcDbArc
50
-90
51
0
0
LINE
5
121
100
AcDbEntity
8
PERIMETER
100
AcDbLine
10
8.4350393700787389
20
-1.1515748031496065
30
0
11
8.4350393700787389
21
0.69881889763779603
31
0
0
ARC
5
122
100
AcDbEntity
8
PERIMETER
100
AcDbCircle
10
8.3956692913385815
20
0.69881889763779603
30
0
40
0.039370078740158035
210
0
220
-0
230
1
100
AcDbArc
50
0
51
90
0
LINE
5
123
100
AcDbEntity
8
PERIMETER
100
AcDbLine
10
8.3956692913385815
20
0.73818897637795344
30
0
11
7.7263779527559047
21
0.73818897637795267
31
0
0
ARC
5
124
100
AcDbEntity
8
PERIMETER
100
AcDbCircle
10
7.7263779527559047
20
0.81692913385826738
30
0
40
0.078740157480314668
210
0
220
0
230
1
100
AcDbArc
50
180
51
270
0
LINE
5
125
100
AcDbEntity
8
PERIMETER
100
AcDbLine
10
7.6476377952755898
20
0.81692913385826738
30
0
11
7.6476377952755916
21
2.6673228346456699
31
0
0
ARC
5
126
100
AcDbEntity
8
PERIMETER
100
AcDbCircle
10
7.7263779527559047
20
2.6673228346456699
30
0
40
0.078740157480314668
210
0
220
-0
230
1
100
AcDbArc
50
90
51
180
0
LINE
5
127
100
AcDbEntity
8
PERIMETER
100
AcDbLine
10
7.7263779527559047
20
2.7460629921259847
30
0
11
8.3956692913385815
21
2.7460629921259847
31
0
0
ARC
5
128
100
AcDbEntity
8
PERIMETER
100
AcDbCircle
10
8.3956692913385815
20
2.7854330708661412
30
0
40
0.03937007874015664
210
-0
220
0
230
1
100
AcDbArc
50
-90
51
0
0
LINE
5
129
100
AcDbEntity
8
PERIMETER
100
AcDbLine
10
8.4350393700787389
20
2.7854330708661412
30
0
11
8.4350393700787389
21
4.6358267716535435
31
0
0
ARC
5
12A
100
AcDbEntity
8
PERIMETER
100
AcDbCircle
10
8.3956692913385815
20
4.6358267716535435
30
0
40
0.039370078740158035
210
0
220
-0
230
1
100
AcDbArc
50
0
51
90
0
LINE
5
12B
100
AcDbEntity
8
PERIMETER
100
AcDbLine
10
8.3956692913385815
20
4.6751968503937009
30
0
11
7.7263779527559047
21
4.6751968503937
31
0
0
ARC
5
12C
100
AcDbEntity
8
PERIMETER
100
AcDbCircle
10
7.7263779527559047
20
4.7539370078740149
30
0
40
0.078740157480314668
210
0
220
0
230
1
100
AcDbArc
50
180
51
270
0
LINE
5
12D
100
AcDbEntity
8
PERIMETER
100
AcDbLine
10
7.6476377952755898
20
4.7539370078740149
30
0
11
7.6476377952755916
21
6.6830708661417377
31
0
0
LINE
5
12E
100
AcDbEntity
8
PERIMETER
100
AcDbLine
10
7.6476377952755916
20
6.6830708661417377
30
0
11
-8.4350393700787354
21
6.6830708661417368
31
0
0
LINE
5
12F
100
AcDbEntity
8
PERIMETER
100
AcDbLine
10
-8.4350393700787336
20
6.6830708661417368
30
0
11
-8.4350393700787389
21
-5.4232283464566935
31
0
0
ARC
5
130
100
AcDbEntity
8
PERIMETER
100
AcDbCircle
10
-8.3562992125984259
20
-5.4232283464566935
30
0
40
0.07874015748031328
210
0
220
0
230
1
100
AcDbArc
50
180
51
270.00000000000125
0
ENDSEC
0
SECTION
2
OBJECTS
0
DICTIONARY
5
C
100
AcDbDictionary
3
ACAD_GROUP
350
D
3
ACAD_MLINESTYLE
350
17
0
DICTIONARY
5
D
100
AcDbDictionary
0
DICTIONARY
5
1A
330
C
100
AcDbDictionary
0
DICTIONARY
5
17
100
AcDbDictionary
0
ENDSEC
0
EOF
