0
SECTION
2
HEADER
9
$INSUNITS
70
1
9
$ACADVER
1
AC1014
9
$HANDSEED
5
FFFF
0
ENDSEC
0
SECTION
2
TABLES
0
TABLE
2
VPORT
5
8
100
AcDbSymbolTable
0
ENDTAB
0
TABLE
2
LTYPE
5
5
100
AcDbSymbolTable
70
2
0
LTYPE
5
14
100
AcDbSymbolTableRecord
100
AcDbLinetypeTableRecord
2
BYBLOCK
70
0
0
LTYPE
5
15
100
AcDbSymbolTableRecord
100
AcDbLinetypeTableRecord
2
BYLAYER
70
0
0
ENDTAB
0
TABLE
2
LAYER
5
2
100
AcDbSymbolTable
70
3
0
LAYER
5
50
100
AcDbSymbolTableRecord
100
AcDbLayerTableRecord
2
0
70
0
6
CONTINUOUS
0
LAYER
5
51
100
AcDbSymbolTableRecord
100
AcDbLayerTableRecord
2
CUTOUTS
70
0
62
1
6
CONTINUOUS
0
LAYER
5
52
100
AcDbSymbolTableRecord
100
AcDbLayerTableRecord
2
PERIMETER
70
0
62
5
6
CONTINUOUS
0
ENDTAB
0
TABLE
2
STYLE
5
3
100
AcDbSymbolTable
70
1
0
STYLE
5
11
100
AcDbSymbolTableRecord
100
AcDbTextStyleTableRecord
2
STANDARD
70
0
0
ENDTAB
0
TABLE
2
VIEW
5
6
100
AcDbSymbolTable
0
ENDTAB
0
TABLE
2
UCS
5
7
100
AcDbSymbolTable
0
ENDTAB
0
TABLE
2
APPID
5
9
100
AcDbSymbolTable
70
1
0
APPID
5
12
100
AcDbSymbolTableRecord
100
AcDbRegAppTableRecord
2
ACAD
70
0
0
ENDTAB
0
TABLE
2
DIMSTYLE
5
A
100
AcDbSymbolTable
0
ENDTAB
0
TABLE
2
BLOCK_RECORD
5
1
100
AcDbSymbolTable
70
2
0
BLOCK_RECORD
5
1F
100
AcDbSymbolTableRecord
100
AcDbBlockTableRecord
2
*MODEL_SPACE
0
BLOCK_RECORD
5
1B
100
AcDbSymbolTableRecord
100
AcDbBlockTableRecord
2
*PAPER_SPACE
0
ENDTAB
0
ENDSEC
0
SECTION
2
BLOCKS
0
BLOCK
5
20
100
AcDbEntity
100
AcDbBlockBegin
2
*MODEL_SPACE
0
ENDBLK
5
21
100
AcDbEntity
100
AcDbBlockEnd
0
BLOCK
5
1C
100
AcDbEntity
100
AcDbBlockBegin
2
*PAPER_SPACE
0
ENDBLK
5
1D
100
AcDbEntity
100
AcDbBlockEnd
0
ENDSEC
0
SECTION
2
ENTITIES
0
CIRCLE
5
100
100
AcDbEntity
8
CUTOUTS
100
AcDbCircle
10
1.7027559055118113
20
1.4074803149606323
30
0
40
0.061023622047244187
210
0
220
0
230
1
0
CIRCLE
5
101
100
AcDbEntity
8
CUTOUTS
100
AcDbCircle
10
3.9862204724409458
20
-0.52165354330708347
30
0
40
0.06102362204724384
210
0
220
0
230
1
0
CIRCLE
5
102
100
AcDbEntity
8
CUTOUTS
100
AcDbCircle
10
1.702755905511812
20
-0.52165354330708424
30
0
40
0.061023622047244187
210
0
220
0
230
1
0
CIRCLE
5
103
100
AcDbEntity
8
CUTOUTS
100
AcDbCircle
10
3.9862204724409458
20
1.407480314960633
30
0
40
0.06102362204724384
210
0
220
0
230
1
0
CIRCLE
5
104
100
AcDbEntity
8
CUTOUTS
100
AcDbCircle
10
1.1712598425196854
20
3.8681102362204767
30
0
40
0.070866141732283519
210
0
220
0
230
1
0
CIRCLE
5
105
100
AcDbEntity
8
CUTOUTS
100
AcDbCircle
10
4.7145669291338583
20
3.8681102362204767
30
0
40
0.070866141732283353
210
0
220
0
230
1
0
CIRCLE
5
106
100
AcDbEntity
8
CUTOUTS
100
AcDbCircle
10
0.16732283464567796
20
-4.1633858267716457
30
0
40
0.13779527559055121
210
0
220
0
230
1
0
CIRCLE
5
107
100
AcDbEntity
8
CUTOUTS
100
AcDbCircle
10
-5.9153543307086531
20
-2.9822834645669216
30
0
40
0.13779527559055102
210
0
220
0
230
1
0
CIRCLE
5
108
100
AcDbEntity
8
CUTOUTS
100
AcDbCircle
10
-5.9153543307086496
20
4.0649606299212646
30
0
40
0.13779527559055102
210
0
220
0
230
1
0
CIRCLE
5
109
100
AcDbEntity
8
CUTOUTS
100
AcDbCircle
10
-5.9153543307086522
20
0.54133858267717094
30
0
40
0.13779527559055102
210
0
220
0
230
1
0
CIRCLE
5
10A
100
AcDbEntity
8
CUTOUTS
100
AcDbCircle
10
-4.7342519685039273
20
-4.1633858267716457
30
0
40
0.13779527559055102
210
0
220
0
230
1
0
CIRCLE
5
10B
100
AcDbEntity
8
CUTOUTS
100
AcDbCircle
10
5.0688976377952839
20
-4.1633858267716457
30
0
40
0.13779527559055102
210
0
220
0
230
1
0
CIRCLE
5
10C
100
AcDbEntity
8
CUTOUTS
100
AcDbCircle
10
4.7145669291338583
20
-0.52165354330705693
30
0
40
0.31496062992126012
210
0
220
0
230
1
0
CIRCLE
5
10D
100
AcDbEntity
8
CUTOUTS
100
AcDbCircle
10
6.0925196850393695
20
1.7421259842519645
30
0
40
0.13779527559055102
210
0
220
0
230
1
0
CIRCLE
5
10E
100
AcDbEntity
8
CUTOUTS
100
AcDbCircle
10
6.0925196850393695
20
-2.1948818897637832
30
0
40
0.13779527559055102
210
0
220
0
230
1
0
LINE
5
10F
100
AcDbEntity
8
PERIMETER
100
AcDbLine
10
-6.38779527559055
20
-3.5334645669291271
30
0
11
-5.3641732283464565
21
-3.5334645669291271
31
0
0
ARC
5
110
100
AcDbEntity
8
PERIMETER
100
AcDbCircle
10
-5.3641732283464565
20
-3.612204724409442
30
0
40
0.078740157480314668
210
0
220
-0
230
1
100
AcDbArc
50
0
51
90
0
LINE
5
111
100
AcDbEntity
8
PERIMETER
100
AcDbLine
10
-5.2854330708661417
20
-3.612204724409442
30
0
11
-5.2854330708661399
21
-4.6358267716535453
31
0
0
ARC
5
112
100
AcDbEntity
8
PERIMETER
100
AcDbCircle
10
-5.2066929133858251
20
-4.6358267716535453
30
0
40
0.078740157480314668
210
0
220
0
230
1
100
AcDbArc
50
180
51
270
0
LINE
5
113
100
AcDbEntity
8
PERIMETER
100
AcDbLine
10
-5.2066929133858251
20
-4.7145669291338601
30
0
11
5.6791338582677167
21
-4.7145669291338574
31
0
0
LINE
5
114
100
AcDbEntity
8
PERIMETER
100
AcDbLine
10
5.6791338582677167
20
-4.7145669291338574
30
0
11
5.6791338582677158
21
-3.2578740157480293
31
0
0
ARC
5
115
100
AcDbEntity
8
PERIMETER
100
AcDbCircle
10
5.7775590551181093
20
-3.2578740157480293
30
0
40
0.098425196850393692
210
0
220
-0
230
1
100
AcDbArc
50
90
51
180
0
LINE
5
116
100
AcDbEntity
8
PERIMETER
100
AcDbLine
10
5.7775590551181093
20
-3.1594488188976357
30
0
11
6.4271653543307075
21
-3.1594488188976411
31
0
0
ARC
5
117
100
AcDbEntity
8
PERIMETER
100
AcDbCircle
10
6.4271653543307075
20
-3.1200787401574845
30
0
40
0.03937007874015664
210
-0
220
0
230
1
100
AcDbArc
50
-90
51
0
0
LINE
5
118
100
AcDbEntity
8
PERIMETER
100
AcDbLine
10
6.4665354330708649
20
-3.1200787401574845
30
0
11
6.4665354330708658
21
-1.269685039370082
31
0
0
ARC
5
119
100
AcDbEntity
8
PERIMETER
100
AcDbCircle
10
6.4271653543307075
20
-1.269685039370082
30
0
40
0.039370078740158035
210
0
220
-0
230
1
100
AcDbArc
50
0
51
90
0
LINE
5
11A
100
AcDbEntity
8
PERIMETER
100
AcDbLine
10
6.4271653543307075
20
-1.2303149606299246
30
0
11
5.7578740157480306
21
-1.2303149606299253
31
0
0
ARC
5
11B
100
AcDbEntity
8
PERIMETER
100
AcDbCircle
10
5.7578740157480306
20
-1.1515748031496107
30
0
40
0.078740157480314668
210
0
220
0
230
1
100
AcDbArc
50
180
51
270
0
LINE
5
11C
100
AcDbEntity
8
PERIMETER
100
AcDbLine
10
5.6791338582677158
20
-1.1515748031496107
30
0
11
5.6791338582677167
21
0.69881889763779181
31
0
0
ARC
5
11D
100
AcDbEntity
8
PERIMETER
100
AcDbCircle
10
5.7578740157480306
20
0.69881889763779181
30
0
40
0.078740157480314668
210
0
220
-0
230
1
100
AcDbArc
50
90
51
180
0
LINE
5
11E
100
AcDbEntity
8
PERIMETER
100
AcDbLine
10
5.7578740157480306
20
0.77755905511810652
30
0
11
6.4271653543307075
21
0.77755905511810652
31
0
0
ARC
5
11F
100
AcDbEntity
8
PERIMETER
100
AcDbCircle
10
6.4271653543307075
20
0.81692913385826316
30
0
40
0.03937007874015664
210
-0
220
0
230
1
100
AcDbArc
50
-90
51
0
0
LINE
5
120
100
AcDbEntity
8
PERIMETER
100
AcDbLine
10
6.4665354330708649
20
0.81692913385826316
30
0
11
6.4665354330708658
21
2.6673228346456659
31
0
0
ARC
5
121
100
AcDbEntity
8
PERIMETER
100
AcDbCircle
10
6.4271653543307075
20
2.6673228346456659
30
0
40
0.039370078740158035
210
0
220
-0
230
1
100
AcDbArc
50
0
51
90
0
LINE
5
122
100
AcDbEntity
8
PERIMETER
100
AcDbLine
10
6.4271653543307075
20
2.7066929133858229
30
0
11
5.7578740157480306
21
2.7066929133858224
31
0
0
ARC
5
123
100
AcDbEntity
8
PERIMETER
100
AcDbCircle
10
5.7578740157480306
20
2.7854330708661372
30
0
40
0.078740157480315376
210
0
220
0
230
1
100
AcDbArc
50
180
51
270
0
LINE
5
124
100
AcDbEntity
8
PERIMETER
100
AcDbLine
10
5.6791338582677158
20
2.7854330708661372
30
0
11
5.6791338582677167
21
4.714566929133861
31
0
0
LINE
5
125
100
AcDbEntity
8
PERIMETER
100
AcDbLine
10
5.6791338582677167
20
4.714566929133861
30
0
11
-6.4665354330708604
21
4.714566929133861
31
0
0
LINE
5
126
100
AcDbEntity
8
PERIMETER
100
AcDbLine
10
-6.4665354330708604
20
4.714566929133861
30
0
11
-6.4665354330708649
21
-3.4547244094488123
31
0
0
ARC
5
127
100
AcDbEntity
8
PERIMETER
100
AcDbCircle
10
-6.38779527559055
20
-3.4547244094488123
30
0
40
0.078740157480314668
210
0
220
0
230
1
100
AcDbArc
50
180
51
270
0
ENDSEC
0
SECTION
2
OBJECTS
0
DICTIONARY
5
C
100
AcDbDictionary
3
ACAD_GROUP
350
D
3
ACAD_MLINESTYLE
350
17
0
DICTIONARY
5
D
100
AcDbDictionary
0
DICTIONARY
5
1A
330
C
100
AcDbDictionary
0
DICTIONARY
5
17
100
AcDbDictionary
0
ENDSEC
0
EOF
