0
SECTION
2
HEADER
9
$INSUNITS
70
1
9
$ACADVER
1
AC1014
9
$HANDSEED
5
FFFF
0
ENDSEC
0
SECTION
2
TABLES
0
TABLE
2
VPORT
5
8
100
AcDbSymbolTable
0
ENDTAB
0
TABLE
2
LTYPE
5
5
100
AcDbSymbolTable
70
2
0
LTYPE
5
14
100
AcDbSymbolTableRecord
100
AcDbLinetypeTableRecord
2
BYBLOCK
70
0
0
LTYPE
5
15
100
AcDbSymbolTableRecord
100
AcDbLinetypeTableRecord
2
BYLAYER
70
0
0
ENDTAB
0
TABLE
2
LAYER
5
2
100
AcDbSymbolTable
70
3
0
LAYER
5
50
100
AcDbSymbolTableRecord
100
AcDbLayerTableRecord
2
0
70
0
6
CONTINUOUS
0
LAYER
5
51
100
AcDbSymbolTableRecord
100
AcDbLayerTableRecord
2
CUTOUTS
70
0
62
1
6
CONTINUOUS
0
LAYER
5
52
100
AcDbSymbolTableRecord
100
AcDbLayerTableRecord
2
PERIMETER
70
0
62
5
6
CONTINUOUS
0
ENDTAB
0
TABLE
2
STYLE
5
3
100
AcDbSymbolTable
70
1
0
STYLE
5
11
100
AcDbSymbolTableRecord
100
AcDbTextStyleTableRecord
2
STANDARD
70
0
0
ENDTAB
0
TABLE
2
VIEW
5
6
100
AcDbSymbolTable
0
ENDTAB
0
TABLE
2
UCS
5
7
100
AcDbSymbolTable
0
ENDTAB
0
TABLE
2
APPID
5
9
100
AcDbSymbolTable
70
1
0
APPID
5
12
100
AcDbSymbolTableRecord
100
AcDbRegAppTableRecord
2
ACAD
70
0
0
ENDTAB
0
TABLE
2
DIMSTYLE
5
A
100
AcDbSymbolTable
0
ENDTAB
0
TABLE
2
BLOCK_RECORD
5
1
100
AcDbSymbolTable
70
2
0
BLOCK_RECORD
5
1F
100
AcDbSymbolTableRecord
100
AcDbBlockTableRecord
2
*MODEL_SPACE
0
BLOCK_RECORD
5
1B
100
AcDbSymbolTableRecord
100
AcDbBlockTableRecord
2
*PAPER_SPACE
0
ENDTAB
0
ENDSEC
0
SECTION
2
BLOCKS
0
BLOCK
5
20
100
AcDbEntity
100
AcDbBlockBegin
2
*MODEL_SPACE
0
ENDBLK
5
21
100
AcDbEntity
100
AcDbBlockEnd
0
BLOCK
5
1C
100
AcDbEntity
100
AcDbBlockBegin
2
*PAPER_SPACE
0
ENDBLK
5
1D
100
AcDbEntity
100
AcDbBlockEnd
0
ENDSEC
0
SECTION
2
ENTITIES
0
CIRCLE
5
100
100
AcDbEntity
8
CUTOUTS
100
AcDbCircle
10
15.944881889763769
20
-2.5590551181102441
30
0
40
0.12992125984251901
210
0
220
0
230
1
0
CIRCLE
5
101
100
AcDbEntity
8
CUTOUTS
100
AcDbCircle
10
12.401574803149522
20
4.9212598425196754
30
0
40
0.12992125984251901
210
0
220
0
230
1
0
CIRCLE
5
102
100
AcDbEntity
8
CUTOUTS
100
AcDbCircle
10
15.944881889763769
20
1.3779527559055054
30
0
40
0.12992125984251901
210
0
220
0
230
1
0
CIRCLE
5
103
100
AcDbEntity
8
CUTOUTS
100
AcDbCircle
10
12.4015748031496
20
-4.9212598425196834
30
0
40
0.12992125984251901
210
0
220
0
230
1
0
CIRCLE
5
104
100
AcDbEntity
8
CUTOUTS
100
AcDbCircle
10
-5.5948246910244104e-15
20
-4.9212598425196905
30
0
40
0.12992125984251968
210
0
220
0
230
1
0
CIRCLE
5
105
100
AcDbEntity
8
CUTOUTS
100
AcDbCircle
10
-15.944881889763781
20
-2.5590551181102441
30
0
40
0.12992125984251901
210
0
220
0
230
1
0
CIRCLE
5
106
100
AcDbEntity
8
CUTOUTS
100
AcDbCircle
10
-5.318764262190597e-15
20
4.9212598425188823
30
0
40
0.12992125984251968
210
0
220
0
230
1
0
CIRCLE
5
107
100
AcDbEntity
8
CUTOUTS
100
AcDbCircle
10
-12.401574803149533
20
4.9212598425196754
30
0
40
0.12992125984251901
210
0
220
0
230
1
0
CIRCLE
5
108
100
AcDbEntity
8
CUTOUTS
100
AcDbCircle
10
-15.944881889763781
20
1.3779527559055054
30
0
40
0.12992125984251901
210
0
220
0
230
1
0
CIRCLE
5
109
100
AcDbEntity
8
CUTOUTS
100
AcDbCircle
10
-12.401574803149611
20
-4.9212598425196834
30
0
40
0.12992125984251901
210
0
220
0
230
1
0
ARC
5
10A
100
AcDbEntity
8
PERIMETER
100
AcDbCircle
10
16.456692913385826
20
1.8307086614173353
30
0
40
0.07874015748031328
210
0
220
-0
230
1
100
AcDbArc
50
0
51
90
0
LINE
5
10B
100
AcDbEntity
8
PERIMETER
100
AcDbLine
10
16.456692913385826
20
1.9094488188976486
30
0
11
15.362484518944353
21
1.9094488188976486
31
0
0
ARC
5
10C
100
AcDbEntity
8
PERIMETER
100
AcDbCircle
10
15.362484518944353
20
1.9881889763779634
30
0
40
0.078740157480314793
210
0
220
0
230
1
100
AcDbArc
50
225.00000000000318
51
270
0
LINE
5
10D
100
AcDbEntity
8
PERIMETER
100
AcDbLine
10
15.306806819638329
20
1.9325112770719333
30
0
11
12.956133324315939
21
4.2831847723942378
31
0
0
ARC
5
10E
100
AcDbEntity
8
PERIMETER
100
AcDbCircle
10
13.011811023621965
20
4.3388624717002644
30
0
40
0.07874015748031607
210
0
220
0
230
1
100
AcDbArc
50
180
51
225.00000000000091
0
LINE
5
10F
100
AcDbEntity
8
PERIMETER
100
AcDbLine
10
12.933070866141648
20
4.3388624717002644
30
0
11
12.933070866141648
21
5.4330708661417386
31
0
0
ARC
5
110
100
AcDbEntity
8
PERIMETER
100
AcDbCircle
10
12.85433070866133
20
5.433070866141736
30
0
40
0.078740157480318873
210
0
220
-0
230
1
100
AcDbArc
50
0
51
89.999999999998721
0
LINE
5
111
100
AcDbEntity
8
PERIMETER
100
AcDbLine
10
12.854330708661331
20
5.5118110236220543
30
0
11
-12.854330708661349
21
5.5118110236220268
31
0
0
ARC
5
112
100
AcDbEntity
8
PERIMETER
100
AcDbCircle
10
-12.854330708661346
20
5.4330708661417102
30
0
40
0.07874015748031607
210
0
220
0
230
1
100
AcDbArc
50
90.000000000002586
51
180
0
LINE
5
113
100
AcDbEntity
8
PERIMETER
100
AcDbLine
10
-12.933070866141662
20
5.433070866141712
30
0
11
-12.933070866141659
21
4.3388624717002511
31
0
0
ARC
5
114
100
AcDbEntity
8
PERIMETER
100
AcDbCircle
10
-13.011811023621975
20
4.3388624717002511
30
0
40
0.078740157480315792
210
-0
220
0
230
1
100
AcDbArc
50
-45.000000000000917
51
0
0
LINE
5
115
100
AcDbEntity
8
PERIMETER
100
AcDbLine
10
-12.956133324315948
20
4.2831847723942218
30
0
11
-15.306806819638329
21
1.9325112770719208
31
0
0
ARC
5
116
100
AcDbEntity
8
PERIMETER
100
AcDbCircle
10
-15.362484518944356
20
1.9881889763779479
30
0
40
0.078740157480314668
210
-0
220
0
230
1
100
AcDbArc
50
270
51
315.00000000000028
0
LINE
5
117
100
AcDbEntity
8
PERIMETER
100
AcDbLine
10
-15.362484518944356
20
1.9094488188976333
30
0
11
-16.45669291338583
21
1.909448818897632
31
0
0
ARC
5
118
100
AcDbEntity
8
PERIMETER
100
AcDbCircle
10
-16.45669291338583
20
1.8307086614173158
30
0
40
0.07874015748031607
210
0
220
-0
230
1
100
AcDbArc
50
90
51
180
0
LINE
5
119
100
AcDbEntity
8
PERIMETER
100
AcDbLine
10
-16.535433070866144
20
1.8307086614173171
30
0
11
-16.535433070866144
21
-3.0118110236220543
31
0
0
ARC
5
11A
100
AcDbEntity
8
PERIMETER
100
AcDbCircle
10
-16.45669291338583
20
-3.0118110236220534
30
0
40
0.07874015748031607
210
0
220
0
230
1
100
AcDbArc
50
180
51
270
0
LINE
5
11B
100
AcDbEntity
8
PERIMETER
100
AcDbLine
10
-16.45669291338583
20
-3.0905511811023696
30
0
11
-15.35897771609252
21
-3.0905511811023691
31
0
0
ARC
5
11C
100
AcDbEntity
8
PERIMETER
100
AcDbCircle
10
-15.35897771609252
20
-3.169291338582684
30
0
40
0.078740157480315029
210
0
220
-0
230
1
100
AcDbArc
50
63.434948822922159
51
90
0
LINE
5
11D
100
AcDbEntity
8
PERIMETER
100
AcDbLine
10
-15.323764047155516
20
-3.0988640007086756
30
0
11
-12.976597354685049
21
-4.272447346943899
31
0
0
ARC
5
11E
100
AcDbEntity
8
PERIMETER
100
AcDbCircle
10
-13.011811023622053
20
-4.3428746848179083
30
0
40
0.07874015748031607
210
-0
220
0
230
1
100
AcDbArc
50
0
51
63.434948822922593
0
LINE
5
11F
100
AcDbEntity
8
PERIMETER
100
AcDbLine
10
-12.933070866141737
20
-4.3428746848179083
30
0
11
-12.933070866141737
21
-5.4330708661417297
31
0
0
ARC
5
120
100
AcDbEntity
8
PERIMETER
100
AcDbCircle
10
-12.854330708661418
20
-5.4330708661417271
30
0
40
0.078740157480318873
210
0
220
0
230
1
100
AcDbArc
50
180
51
269.99999999999744
0
LINE
5
121
100
AcDbEntity
8
PERIMETER
100
AcDbLine
10
-12.854330708661422
20
-5.5118110236220463
30
0
11
12.854330708661415
21
-5.5118110236220552
31
0
0
ARC
5
122
100
AcDbEntity
8
PERIMETER
100
AcDbCircle
10
12.854330708661422
20
-5.4330708661417404
30
0
40
0.078740157480314668
210
0
220
0
230
1
100
AcDbArc
50
-90.000000000005201
51
0
0
LINE
5
123
100
AcDbEntity
8
PERIMETER
100
AcDbLine
10
12.933070866141737
20
-5.4330708661417404
30
0
11
12.933070866141737
21
-4.3428746848178923
31
0
0
ARC
5
124
100
AcDbEntity
8
PERIMETER
100
AcDbCircle
10
13.011811023622053
20
-4.3428746848178923
30
0
40
0.07874015748031471
210
0
220
0
230
1
100
AcDbArc
50
116.56505117707799
51
180
0
LINE
5
125
100
AcDbEntity
8
PERIMETER
100
AcDbLine
10
12.976597354685049
20
-4.272447346943884
30
0
11
15.323764047155516
21
-3.0988640007086574
31
0
0
ARC
5
126
100
AcDbEntity
8
PERIMETER
100
AcDbCircle
10
15.35897771609252
20
-3.1692913385826675
30
0
40
0.078740157480315029
210
0
220
-0
230
1
100
AcDbArc
50
90
51
116.56505117707771
0
LINE
5
127
100
AcDbEntity
8
PERIMETER
100
AcDbLine
10
15.35897771609252
20
-3.0905511811023518
30
0
11
16.45669291338583
21
-3.0905511811023505
31
0
0
ARC
5
128
100
AcDbEntity
8
PERIMETER
100
AcDbCircle
10
16.456692913385833
20
-3.0118110236220357
30
0
40
0.078740157480315029
210
0
220
0
230
1
100
AcDbArc
50
269.99999999999744
51
360
0
LINE
5
129
100
AcDbEntity
8
PERIMETER
100
AcDbLine
10
16.535433070866148
20
-3.0118110236220361
30
0
11
16.535433070866141
21
1.8307086614173353
31
0
0
ENDSEC
0
SECTION
2
OBJECTS
0
DICTIONARY
5
C
100
AcDbDictionary
3
ACAD_GROUP
350
D
3
ACAD_MLINESTYLE
350
17
0
DICTIONARY
5
D
100
AcDbDictionary
0
DICTIONARY
5
1A
330
C
100
AcDbDictionary
0
DICTIONARY
5
17
100
AcDbDictionary
0
ENDSEC
0
EOF
