0
SECTION
2
HEADER
9
$INSUNITS
70
1
9
$ACADVER
1
AC1014
9
$HANDSEED
5
FFFF
0
ENDSEC
0
SECTION
2
TABLES
0
TABLE
2
VPORT
5
8
100
AcDbSymbolTable
0
ENDTAB
0
TABLE
2
LTYPE
5
5
100
AcDbSymbolTable
70
2
0
LTYPE
5
14
100
AcDbSymbolTableRecord
100
AcDbLinetypeTableRecord
2
BYBLOCK
70
0
0
LTYPE
5
15
100
AcDbSymbolTableRecord
100
AcDbLinetypeTableRecord
2
BYLAYER
70
0
0
ENDTAB
0
TABLE
2
LAYER
5
2
100
AcDbSymbolTable
70
3
0
LAYER
5
50
100
AcDbSymbolTableRecord
100
AcDbLayerTableRecord
2
0
70
0
6
CONTINUOUS
0
LAYER
5
51
100
AcDbSymbolTableRecord
100
AcDbLayerTableRecord
2
CUTOUTS
70
0
62
1
6
CONTINUOUS
0
LAYER
5
52
100
AcDbSymbolTableRecord
100
AcDbLayerTableRecord
2
PERIMETER
70
0
62
5
6
CONTINUOUS
0
ENDTAB
0
TABLE
2
STYLE
5
3
100
AcDbSymbolTable
70
1
0
STYLE
5
11
100
AcDbSymbolTableRecord
100
AcDbTextStyleTableRecord
2
STANDARD
70
0
0
ENDTAB
0
TABLE
2
VIEW
5
6
100
AcDbSymbolTable
0
ENDTAB
0
TABLE
2
UCS
5
7
100
AcDbSymbolTable
0
ENDTAB
0
TABLE
2
APPID
5
9
100
AcDbSymbolTable
70
1
0
APPID
5
12
100
AcDbSymbolTableRecord
100
AcDbRegAppTableRecord
2
ACAD
70
0
0
ENDTAB
0
TABLE
2
DIMSTYLE
5
A
100
AcDbSymbolTable
0
ENDTAB
0
TABLE
2
BLOCK_RECORD
5
1
100
AcDbSymbolTable
70
2
0
BLOCK_RECORD
5
1F
100
AcDbSymbolTableRecord
100
AcDbBlockTableRecord
2
*MODEL_SPACE
0
BLOCK_RECORD
5
1B
100
AcDbSymbolTableRecord
100
AcDbBlockTableRecord
2
*PAPER_SPACE
0
ENDTAB
0
ENDSEC
0
SECTION
2
BLOCKS
0
BLOCK
5
20
100
AcDbEntity
100
AcDbBlockBegin
2
*MODEL_SPACE
0
ENDBLK
5
21
100
AcDbEntity
100
AcDbBlockEnd
0
BLOCK
5
1C
100
AcDbEntity
100
AcDbBlockBegin
2
*PAPER_SPACE
0
ENDBLK
5
1D
100
AcDbEntity
100
AcDbBlockEnd
0
ENDSEC
0
SECTION
2
ENTITIES
0
CIRCLE
5
100
100
AcDbEntity
8
CUTOUTS
100
AcDbCircle
10
13.090551493725792
20
0.56102362204723732
30
0
40
0.12992125984251901
210
0
220
0
230
1
0
CIRCLE
5
101
100
AcDbEntity
8
CUTOUTS
100
AcDbCircle
10
13.090551493725799
20
5.3641732283464503
30
0
40
0.12992125984251901
210
0
220
0
230
1
0
CIRCLE
5
102
100
AcDbEntity
8
CUTOUTS
100
AcDbCircle
10
13.090551493725801
20
-12.27362204724403
30
0
40
0.12992125984251901
210
0
220
0
230
1
0
CIRCLE
5
103
100
AcDbEntity
8
CUTOUTS
100
AcDbCircle
10
13.090551493725796
20
11.938976377952748
30
0
40
0.12992125984251901
210
0
220
0
230
1
0
CIRCLE
5
104
100
AcDbEntity
8
CUTOUTS
100
AcDbCircle
10
13.090551493725796
20
11.348425196850387
30
0
40
0.12992125984251901
210
0
220
0
230
1
0
CIRCLE
5
105
100
AcDbEntity
8
CUTOUTS
100
AcDbCircle
10
13.090551493725801
20
-12.864173228346393
30
0
40
0.12992125984251901
210
0
220
0
230
1
0
CIRCLE
5
106
100
AcDbEntity
8
CUTOUTS
100
AcDbCircle
10
13.090551493725799
20
1.8602362204724343
30
0
40
0.12992125984251901
210
0
220
0
230
1
0
CIRCLE
5
107
100
AcDbEntity
8
CUTOUTS
100
AcDbCircle
10
13.090551493725792
20
-0.029527559055124823
30
0
40
0.12992125984251901
210
0
220
0
230
1
0
CIRCLE
5
108
100
AcDbEntity
8
CUTOUTS
100
AcDbCircle
10
-13.090551493725826
20
0.56102362204723732
30
0
40
0.12992125984251901
210
0
220
0
230
1
0
CIRCLE
5
109
100
AcDbEntity
8
CUTOUTS
100
AcDbCircle
10
-13.090551493725831
20
5.3641732283464503
30
0
40
0.12992125984251901
210
0
220
0
230
1
0
CIRCLE
5
10A
100
AcDbEntity
8
CUTOUTS
100
AcDbCircle
10
-13.090551493725835
20
-12.27362204724403
30
0
40
0.12992125984251901
210
0
220
0
230
1
0
CIRCLE
5
10B
100
AcDbEntity
8
CUTOUTS
100
AcDbCircle
10
-13.09055149372583
20
11.938976377952748
30
0
40
0.12992125984251901
210
0
220
0
230
1
0
CIRCLE
5
10C
100
AcDbEntity
8
CUTOUTS
100
AcDbCircle
10
-13.09055149372583
20
11.348425196850387
30
0
40
0.12992125984251901
210
0
220
0
230
1
0
CIRCLE
5
10D
100
AcDbEntity
8
CUTOUTS
100
AcDbCircle
10
-13.090551493725835
20
-12.864173228346393
30
0
40
0.12992125984251901
210
0
220
0
230
1
0
CIRCLE
5
10E
100
AcDbEntity
8
CUTOUTS
100
AcDbCircle
10
-13.090551493725831
20
1.8602362204724343
30
0
40
0.12992125984251901
210
0
220
0
230
1
0
CIRCLE
5
10F
100
AcDbEntity
8
CUTOUTS
100
AcDbCircle
10
-13.090551493725826
20
-0.029527559055124823
30
0
40
0.12992125984251901
210
0
220
0
230
1
0
ARC
5
110
100
AcDbEntity
8
PERIMETER
100
AcDbCircle
10
13.393980894559949
20
-13.868110236220389
30
0
40
0.07874015748031607
210
0
220
-0
230
1
100
AcDbArc
50
90
51
135.00000000000185
0
LINE
5
111
100
AcDbEntity
8
PERIMETER
100
AcDbLine
10
10.987629699931642
20
-16.16310603223674
30
0
11
13.338303195253918
21
-13.812432536914361
31
0
0
ARC
5
112
100
AcDbEntity
8
PERIMETER
100
AcDbCircle
10
11.043307399237671
20
-16.218783731542768
30
0
40
0.078740157480314793
210
0
220
0
230
1
100
AcDbArc
50
135.00000000000091
51
180
0
LINE
5
113
100
AcDbEntity
8
PERIMETER
100
AcDbLine
10
10.964567241757358
20
-16.387795275590555
30
0
11
10.964567241757358
21
-16.218783731542768
31
0
0
ARC
5
114
100
AcDbEntity
8
PERIMETER
100
AcDbCircle
10
10.885827084277038
20
-16.387795275590548
30
0
40
0.078740157480318873
210
-0
220
0
230
1
100
AcDbArc
50
270.00000000000387
51
360
0
LINE
5
115
100
AcDbEntity
8
PERIMETER
100
AcDbLine
10
-10.885827084277039
20
-16.46653543307087
30
0
11
10.885827084277043
21
-16.46653543307087
31
0
0
ARC
5
116
100
AcDbEntity
8
PERIMETER
100
AcDbCircle
10
-10.885827084277036
20
-16.387795275590548
30
0
40
0.078740157480318873
210
0
220
0
230
1
100
AcDbArc
50
180
51
269.99999999999744
0
LINE
5
117
100
AcDbEntity
8
PERIMETER
100
AcDbLine
10
-10.964567241757356
20
-16.218783731542779
30
0
11
-10.964567241757354
21
-16.387795275590552
31
0
0
ARC
5
118
100
AcDbEntity
8
PERIMETER
100
AcDbCircle
10
-11.043307399237671
20
-16.218783731542779
30
0
40
0.078740157480314668
210
0
220
-0
230
1
100
AcDbArc
50
0
51
44.999999999998174
0
LINE
5
119
100
AcDbEntity
8
PERIMETER
100
AcDbLine
10
-13.338303195253921
20
-13.812432536914383
30
0
11
-10.987629699931642
21
-16.163106032236755
31
0
0
ARC
5
11A
100
AcDbEntity
8
PERIMETER
100
AcDbCircle
10
-13.393980894559951
20
-13.86811023622041
30
0
40
0.078740157480316778
210
0
220
-0
230
1
100
AcDbArc
50
44.999999999999091
51
90
0
LINE
5
11B
100
AcDbEntity
8
PERIMETER
100
AcDbLine
10
-14.488189287392327
20
-13.789370078740101
30
0
11
-13.393980894559951
21
-13.789370078740092
31
0
0
ARC
5
11C
100
AcDbEntity
8
PERIMETER
100
AcDbCircle
10
-14.488189287392325
20
-13.71062992125978
30
0
40
0.078740157480318873
210
0
220
0
230
1
100
AcDbArc
50
180
51
269.99999999999869
0
LINE
5
11D
100
AcDbEntity
8
PERIMETER
100
AcDbLine
10
-14.56692913546738
20
12.785433071785615
30
0
11
-14.566929444872644
21
-13.710629920340304
31
0
0
ARC
5
11E
100
AcDbEntity
8
PERIMETER
100
AcDbCircle
10
-14.488188977987065
20
12.785433070866135
30
0
40
0.07874015748031607
210
0
220
-0
230
1
100
AcDbArc
50
89.999999999997414
51
180
0
LINE
5
11F
100
AcDbEntity
8
PERIMETER
100
AcDbLine
10
-13.393980581936493
20
12.864173228346452
30
0
11
-14.488188977987061
21
12.864173228346452
31
0
0
ARC
5
120
100
AcDbEntity
8
PERIMETER
100
AcDbCircle
10
-13.393980581936493
20
12.942913385826765
30
0
40
0.07874015748031607
210
-0
220
0
230
1
100
AcDbArc
50
270
51
314.99999999999909
0
LINE
5
121
100
AcDbEntity
8
PERIMETER
100
AcDbLine
10
-10.987629387308118
20
15.237909181843044
30
0
11
-13.338302882630467
21
12.887235686520738
31
0
0
ARC
5
122
100
AcDbEntity
8
PERIMETER
100
AcDbCircle
10
-11.043307086614144
20
15.293586881149073
30
0
40
0.078740157480314793
210
-0
220
0
230
1
100
AcDbArc
50
-45.000000000000917
51
0
0
LINE
5
123
100
AcDbEntity
8
PERIMETER
100
AcDbLine
10
-10.964566929133831
20
16.387795275590534
30
0
11
-10.964566929133831
21
15.293586881149071
31
0
0
ARC
5
124
100
AcDbEntity
8
PERIMETER
100
AcDbCircle
10
-10.885826771653516
20
16.387795275590534
30
0
40
0.07874015748031607
210
0
220
0
230
1
100
AcDbArc
50
90.000000000001307
51
180
0
LINE
5
125
100
AcDbEntity
8
PERIMETER
100
AcDbLine
10
10.885826771653482
20
16.46653543307087
30
0
11
-10.885826771653518
21
16.466535433070849
31
0
0
ARC
5
126
100
AcDbEntity
8
PERIMETER
100
AcDbCircle
10
10.885826771653482
20
16.387795275590555
30
0
40
0.078740157480314668
210
0
220
-0
230
1
100
AcDbArc
50
0
51
90
0
LINE
5
127
100
AcDbEntity
8
PERIMETER
100
AcDbLine
10
10.964566929133797
20
15.293586881149082
30
0
11
10.964566929133797
21
16.387795275590555
31
0
0
ARC
5
128
100
AcDbEntity
8
PERIMETER
100
AcDbCircle
10
11.043307086614112
20
15.293586881149082
30
0
40
0.078740157480314668
210
0
220
0
230
1
100
AcDbArc
50
180
51
225.00000000000091
0
LINE
5
129
100
AcDbEntity
8
PERIMETER
100
AcDbLine
10
13.33830288263044
20
12.887235686520752
30
0
11
10.987629387308084
21
15.237909181843055
31
0
0
ARC
5
12A
100
AcDbEntity
8
PERIMETER
100
AcDbCircle
10
13.393980581936468
20
12.942913385826779
30
0
40
0.078740157480314793
210
0
220
0
230
1
100
AcDbArc
50
225
51
270
0
LINE
5
12B
100
AcDbEntity
8
PERIMETER
100
AcDbLine
10
14.488188977987042
20
12.864173228346466
30
0
11
13.393980581936468
21
12.864173228346466
31
0
0
ARC
5
12C
100
AcDbEntity
8
PERIMETER
100
AcDbCircle
10
14.488188977987027
20
12.785433070866144
30
0
40
0.078740157480318873
210
0
220
-0
230
1
100
AcDbArc
50
0
51
89.999999999987068
0
LINE
5
12D
100
AcDbEntity
8
PERIMETER
100
AcDbLine
10
14.566929444872644
20
-13.710629920340279
30
0
11
14.566929135467346
21
12.785433071785627
31
0
0
ARC
5
12E
100
AcDbEntity
8
PERIMETER
100
AcDbCircle
10
14.488189287392322
20
-13.710629921259754
30
0
40
0.078740157480321663
210
-0
220
0
230
1
100
AcDbArc
50
-89.999999999997399
51
0
0
LINE
5
12F
100
AcDbEntity
8
PERIMETER
100
AcDbLine
10
13.393980894559949
20
-13.789370078740072
30
0
11
14.488189287392325
21
-13.789370078740074
31
0
0
ENDSEC
0
SECTION
2
OBJECTS
0
DICTIONARY
5
C
100
AcDbDictionary
3
ACAD_GROUP
350
D
3
ACAD_MLINESTYLE
350
17
0
DICTIONARY
5
D
100
AcDbDictionary
0
DICTIONARY
5
1A
330
C
100
AcDbDictionary
0
DICTIONARY
5
17
100
AcDbDictionary
0
ENDSEC
0
EOF
