0
SECTION
2
HEADER
9
$INSUNITS
70
1
9
$ACADVER
1
AC1014
9
$HANDSEED
5
FFFF
0
ENDSEC
0
SECTION
2
TABLES
0
TABLE
2
VPORT
5
8
100
AcDbSymbolTable
0
ENDTAB
0
TABLE
2
LTYPE
5
5
100
AcDbSymbolTable
70
2
0
LTYPE
5
14
100
AcDbSymbolTableRecord
100
AcDbLinetypeTableRecord
2
BYBLOCK
70
0
0
LTYPE
5
15
100
AcDbSymbolTableRecord
100
AcDbLinetypeTableRecord
2
BYLAYER
70
0
0
ENDTAB
0
TABLE
2
LAYER
5
2
100
AcDbSymbolTable
70
3
0
LAYER
5
50
100
AcDbSymbolTableRecord
100
AcDbLayerTableRecord
2
0
70
0
6
CONTINUOUS
0
LAYER
5
51
100
AcDbSymbolTableRecord
100
AcDbLayerTableRecord
2
CUTOUTS
70
0
62
1
6
CONTINUOUS
0
LAYER
5
52
100
AcDbSymbolTableRecord
100
AcDbLayerTableRecord
2
PERIMETER
70
0
62
5
6
CONTINUOUS
0
ENDTAB
0
TABLE
2
STYLE
5
3
100
AcDbSymbolTable
70
1
0
STYLE
5
11
100
AcDbSymbolTableRecord
100
AcDbTextStyleTableRecord
2
STANDARD
70
0
0
ENDTAB
0
TABLE
2
VIEW
5
6
100
AcDbSymbolTable
0
ENDTAB
0
TABLE
2
UCS
5
7
100
AcDbSymbolTable
0
ENDTAB
0
TABLE
2
APPID
5
9
100
AcDbSymbolTable
70
1
0
APPID
5
12
100
AcDbSymbolTableRecord
100
AcDbRegAppTableRecord
2
ACAD
70
0
0
ENDTAB
0
TABLE
2
DIMSTYLE
5
A
100
AcDbSymbolTable
0
ENDTAB
0
TABLE
2
BLOCK_RECORD
5
1
100
AcDbSymbolTable
70
2
0
BLOCK_RECORD
5
1F
100
AcDbSymbolTableRecord
100
AcDbBlockTableRecord
2
*MODEL_SPACE
0
BLOCK_RECORD
5
1B
100
AcDbSymbolTableRecord
100
AcDbBlockTableRecord
2
*PAPER_SPACE
0
ENDTAB
0
ENDSEC
0
SECTION
2
BLOCKS
0
BLOCK
5
20
100
AcDbEntity
100
AcDbBlockBegin
2
*MODEL_SPACE
0
ENDBLK
5
21
100
AcDbEntity
100
AcDbBlockEnd
0
BLOCK
5
1C
100
AcDbEntity
100
AcDbBlockBegin
2
*PAPER_SPACE
0
ENDBLK
5
1D
100
AcDbEntity
100
AcDbBlockEnd
0
ENDSEC
0
SECTION
2
ENTITIES
0
CIRCLE
5
100
100
AcDbEntity
8
CUTOUTS
100
AcDbCircle
10
12.007874015748023
20
-2.5590551181102423
30
0
40
0.12992125984251901
210
0
220
0
230
1
0
CIRCLE
5
101
100
AcDbEntity
8
CUTOUTS
100
AcDbCircle
10
8.464566929127443
20
4.9212598425196772
30
0
40
0.12992125984251901
210
0
220
0
230
1
0
CIRCLE
5
102
100
AcDbEntity
8
CUTOUTS
100
AcDbCircle
10
12.007874015748024
20
1.3779527559055083
30
0
40
0.12992125984251901
210
0
220
0
230
1
0
CIRCLE
5
103
100
AcDbEntity
8
CUTOUTS
100
AcDbCircle
10
8.4645669291338521
20
-4.9212598425196852
30
0
40
0.12992125984251901
210
0
220
0
230
1
0
CIRCLE
5
104
100
AcDbEntity
8
CUTOUTS
100
AcDbCircle
10
-5.5948246910244104e-15
20
-4.9212598425196896
30
0
40
0.12992125984251968
210
0
220
0
230
1
0
CIRCLE
5
105
100
AcDbEntity
8
CUTOUTS
100
AcDbCircle
10
-12.007874015748033
20
-2.5590551181102423
30
0
40
0.12992125984251901
210
0
220
0
230
1
0
CIRCLE
5
106
100
AcDbEntity
8
CUTOUTS
100
AcDbCircle
10
-5.318764262190597e-15
20
4.921259842518884
30
0
40
0.12992125984251968
210
0
220
0
230
1
0
CIRCLE
5
107
100
AcDbEntity
8
CUTOUTS
100
AcDbCircle
10
-8.4645669291274537
20
4.9212598425196772
30
0
40
0.12992125984251901
210
0
220
0
230
1
0
CIRCLE
5
108
100
AcDbEntity
8
CUTOUTS
100
AcDbCircle
10
-12.007874015748037
20
1.3779527559055083
30
0
40
0.12992125984251901
210
0
220
0
230
1
0
CIRCLE
5
109
100
AcDbEntity
8
CUTOUTS
100
AcDbCircle
10
-8.4645669291338628
20
-4.9212598425196852
30
0
40
0.12992125984251901
210
0
220
0
230
1
0
ARC
5
10A
100
AcDbEntity
8
PERIMETER
100
AcDbCircle
10
-12.519685039370083
20
-3.0118110236220526
30
0
40
0.078740157480314668
210
0
220
0
230
1
100
AcDbArc
50
180
51
270
0
LINE
5
10B
100
AcDbEntity
8
PERIMETER
100
AcDbLine
10
-12.519685039370083
20
-3.0905511811023669
30
0
11
-11.421969842076772
21
-3.0905511811023678
31
0
0
ARC
5
10C
100
AcDbEntity
8
PERIMETER
100
AcDbCircle
10
-11.421969842076772
20
-3.1692913385826826
30
0
40
0.078740157480315029
210
0
220
-0
230
1
100
AcDbArc
50
63.434948822922159
51
90
0
LINE
5
10D
100
AcDbEntity
8
PERIMETER
100
AcDbLine
10
-11.386756173139768
20
-3.0988640007086738
30
0
11
-9.0395894806693011
21
-4.2724473469439017
31
0
0
ARC
5
10E
100
AcDbEntity
8
PERIMETER
100
AcDbCircle
10
-9.0748031496063053
20
-4.3428746848179109
30
0
40
0.078740157480314668
210
0
220
-0
230
1
100
AcDbArc
50
0
51
63.434948822922301
0
LINE
5
10F
100
AcDbEntity
8
PERIMETER
100
AcDbLine
10
-8.9960629921259905
20
-4.3428746848179109
30
0
11
-8.9960629921259887
21
-5.4330708661417324
31
0
0
ARC
5
110
100
AcDbEntity
8
PERIMETER
100
AcDbCircle
10
-8.9173228346456739
20
-5.4330708661417333
30
0
40
0.078740157480314668
210
0
220
0
230
1
100
AcDbArc
50
180
51
270
0
LINE
5
111
100
AcDbEntity
8
PERIMETER
100
AcDbLine
10
-8.9173228346456739
20
-5.5118110236220481
30
0
11
8.9173228346456739
21
-5.5118110236220499
31
0
0
ARC
5
112
100
AcDbEntity
8
PERIMETER
100
AcDbCircle
10
8.9173228346456739
20
-5.433070866141736
30
0
40
0.078740157480314668
210
-0
220
0
230
1
100
AcDbArc
50
-90
51
0
0
LINE
5
113
100
AcDbEntity
8
PERIMETER
100
AcDbLine
10
8.9960629921259887
20
-5.4330708661417351
30
0
11
8.9960629921259869
21
-4.342874684817903
31
0
0
ARC
5
114
100
AcDbEntity
8
PERIMETER
100
AcDbCircle
10
9.0748031496063017
20
-4.342874684817903
30
0
40
0.07874015748031471
210
0
220
0
230
1
100
AcDbArc
50
116.56505117707799
51
180
0
LINE
5
115
100
AcDbEntity
8
PERIMETER
100
AcDbLine
10
9.0395894806692976
20
-4.2724473469438946
30
0
11
11.386756173139762
21
-3.0988640007086636
31
0
0
ARC
5
116
100
AcDbEntity
8
PERIMETER
100
AcDbCircle
10
11.421969842076766
20
-3.1692913385826729
30
0
40
0.078740157480315029
210
0
220
-0
230
1
100
AcDbArc
50
90
51
116.56505117707785
0
LINE
5
117
100
AcDbEntity
8
PERIMETER
100
AcDbLine
10
11.421969842076766
20
-3.0905511811023576
30
0
11
12.519685039370081
21
-3.0905511811023567
31
0
0
ARC
5
118
100
AcDbEntity
8
PERIMETER
100
AcDbCircle
10
12.519685039370081
20
-3.0118110236220397
30
0
40
0.078740157480316778
210
-0
220
0
230
1
100
AcDbArc
50
270
51
360
0
LINE
5
119
100
AcDbEntity
8
PERIMETER
100
AcDbLine
10
12.598425196850398
20
-3.0118110236220414
30
0
11
12.598425196850393
21
1.8307086614173311
31
0
0
ARC
5
11A
100
AcDbEntity
8
PERIMETER
100
AcDbCircle
10
12.519685039370078
20
1.8307086614173311
30
0
40
0.078740157480314668
210
0
220
-0
230
1
100
AcDbArc
50
0
51
90
0
LINE
5
11B
100
AcDbEntity
8
PERIMETER
100
AcDbLine
10
12.519685039370078
20
1.9094488188976459
30
0
11
11.425476644928585
21
1.9094488188976459
31
0
0
ARC
5
11C
100
AcDbEntity
8
PERIMETER
100
AcDbCircle
10
11.425476644928585
20
1.9881889763779605
30
0
40
0.078740157480315792
210
0
220
0
230
1
100
AcDbArc
50
225.00000000007873
51
270
0
LINE
5
11D
100
AcDbEntity
8
PERIMETER
100
AcDbLine
10
11.369798945622634
20
1.9325112770718564
30
0
11
9.0191254502939309
21
4.2831847723941774
31
0
0
ARC
5
11E
100
AcDbEntity
8
PERIMETER
100
AcDbCircle
10
9.074803149599882
20
4.3388624717002786
30
0
40
0.078740157480314668
210
0
220
0
230
1
100
AcDbArc
50
180
51
225.0000000000777
0
LINE
5
11F
100
AcDbEntity
8
PERIMETER
100
AcDbLine
10
8.9960629921195689
20
4.3388624717002786
30
0
11
8.9960629921195689
21
5.4330708661417342
31
0
0
ARC
5
120
100
AcDbEntity
8
PERIMETER
100
AcDbCircle
10
8.9173228346392541
20
5.4330708661417342
30
0
40
0.078740157480314668
210
0
220
-0
230
1
100
AcDbArc
50
0
51
90
0
LINE
5
121
100
AcDbEntity
8
PERIMETER
100
AcDbLine
10
8.9173228346392541
20
5.511811023622049
30
0
11
-8.9173228346392683
21
5.5118110236220339
31
0
0
ARC
5
122
100
AcDbEntity
8
PERIMETER
100
AcDbCircle
10
-8.9173228346392683
20
5.4330708661417191
30
0
40
0.078740157480314668
210
0
220
0
230
1
100
AcDbArc
50
90
51
180
0
LINE
5
123
100
AcDbEntity
8
PERIMETER
100
AcDbLine
10
-8.9960629921195814
20
5.4330708661417191
30
0
11
-8.9960629921195814
21
4.3388624717002688
31
0
0
ARC
5
124
100
AcDbEntity
8
PERIMETER
100
AcDbCircle
10
-9.0748031495998962
20
4.3388624717002688
30
0
40
0.078740157480314793
210
-0
220
0
230
1
100
AcDbArc
50
-45.00000000007725
51
0
0
LINE
5
125
100
AcDbEntity
8
PERIMETER
100
AcDbLine
10
-9.0191254502939433
20
4.2831847723941658
30
0
11
-11.369798945622643
21
1.9325112770718467
31
0
0
ARC
5
126
100
AcDbEntity
8
PERIMETER
100
AcDbCircle
10
-11.425476644928594
20
1.9881889763779494
30
0
40
0.078740157480314668
210
-0
220
0
230
1
100
AcDbArc
50
270
51
314.99999999992161
0
LINE
5
127
100
AcDbEntity
8
PERIMETER
100
AcDbLine
10
-11.425476644928594
20
1.9094488188976346
30
0
11
-12.519685039370081
21
1.9094488188976346
31
0
0
ARC
5
128
100
AcDbEntity
8
PERIMETER
100
AcDbCircle
10
-12.519685039370083
20
1.8307086614173214
30
0
40
0.07874015748031328
210
0
220
-0
230
1
100
AcDbArc
50
89.999999999998721
51
180
0
LINE
5
129
100
AcDbEntity
8
PERIMETER
100
AcDbLine
10
-12.598425196850398
20
1.83070866141732
30
0
11
-12.598425196850398
21
-3.0118110236220526
31
0
0
ENDSEC
0
SECTION
2
OBJECTS
0
DICTIONARY
5
C
100
AcDbDictionary
3
ACAD_GROUP
350
D
3
ACAD_MLINESTYLE
350
17
0
DICTIONARY
5
D
100
AcDbDictionary
0
DICTIONARY
5
1A
330
C
100
AcDbDictionary
0
DICTIONARY
5
17
100
AcDbDictionary
0
ENDSEC
0
EOF
