0
SECTION
2
HEADER
9
$INSUNITS
70
1
9
$ACADVER
1
AC1014
9
$HANDSEED
5
FFFF
0
ENDSEC
0
SECTION
2
TABLES
0
TABLE
2
VPORT
5
8
100
AcDbSymbolTable
0
ENDTAB
0
TABLE
2
LTYPE
5
5
100
AcDbSymbolTable
70
2
0
LTYPE
5
14
100
AcDbSymbolTableRecord
100
AcDbLinetypeTableRecord
2
BYBLOCK
70
0
0
LTYPE
5
15
100
AcDbSymbolTableRecord
100
AcDbLinetypeTableRecord
2
BYLAYER
70
0
0
ENDTAB
0
TABLE
2
LAYER
5
2
100
AcDbSymbolTable
70
3
0
LAYER
5
50
100
AcDbSymbolTableRecord
100
AcDbLayerTableRecord
2
0
70
0
6
CONTINUOUS
0
LAYER
5
51
100
AcDbSymbolTableRecord
100
AcDbLayerTableRecord
2
CUTOUTS
70
0
62
1
6
CONTINUOUS
0
LAYER
5
52
100
AcDbSymbolTableRecord
100
AcDbLayerTableRecord
2
PERIMETER
70
0
62
5
6
CONTINUOUS
0
ENDTAB
0
TABLE
2
STYLE
5
3
100
AcDbSymbolTable
70
1
0
STYLE
5
11
100
AcDbSymbolTableRecord
100
AcDbTextStyleTableRecord
2
STANDARD
70
0
0
ENDTAB
0
TABLE
2
VIEW
5
6
100
AcDbSymbolTable
0
ENDTAB
0
TABLE
2
UCS
5
7
100
AcDbSymbolTable
0
ENDTAB
0
TABLE
2
APPID
5
9
100
AcDbSymbolTable
70
1
0
APPID
5
12
100
AcDbSymbolTableRecord
100
AcDbRegAppTableRecord
2
ACAD
70
0
0
ENDTAB
0
TABLE
2
DIMSTYLE
5
A
100
AcDbSymbolTable
0
ENDTAB
0
TABLE
2
BLOCK_RECORD
5
1
100
AcDbSymbolTable
70
2
0
BLOCK_RECORD
5
1F
100
AcDbSymbolTableRecord
100
AcDbBlockTableRecord
2
*MODEL_SPACE
0
BLOCK_RECORD
5
1B
100
AcDbSymbolTableRecord
100
AcDbBlockTableRecord
2
*PAPER_SPACE
0
ENDTAB
0
ENDSEC
0
SECTION
2
BLOCKS
0
BLOCK
5
20
100
AcDbEntity
100
AcDbBlockBegin
2
*MODEL_SPACE
0
ENDBLK
5
21
100
AcDbEntity
100
AcDbBlockEnd
0
BLOCK
5
1C
100
AcDbEntity
100
AcDbBlockBegin
2
*PAPER_SPACE
0
ENDBLK
5
1D
100
AcDbEntity
100
AcDbBlockEnd
0
ENDSEC
0
SECTION
2
ENTITIES
0
CIRCLE
5
100
100
AcDbEntity
8
CUTOUTS
100
AcDbCircle
10
-6.092519685039365
20
-1.7421259842523673
30
0
40
0.13779527559055102
210
0
220
0
230
1
0
CIRCLE
5
101
100
AcDbEntity
8
CUTOUTS
100
AcDbCircle
10
-3.631889763779522
20
-0.69881889763818772
30
0
40
0.094488188976378035
210
0
220
0
230
1
0
CIRCLE
5
102
100
AcDbEntity
8
CUTOUTS
100
AcDbCircle
10
-1.6633858267716484
20
-0.69881889763818772
30
0
40
0.094488188976378035
210
0
220
0
230
1
0
CIRCLE
5
103
100
AcDbEntity
8
CUTOUTS
100
AcDbCircle
10
5.9153543307086549
20
-0.54133858267756529
30
0
40
0.13779527559055102
210
0
220
0
230
1
0
CIRCLE
5
104
100
AcDbEntity
8
CUTOUTS
100
AcDbCircle
10
-5.0688976377952804
20
4.1633858267713268
30
0
40
0.13779527559055102
210
0
220
0
230
1
0
CIRCLE
5
105
100
AcDbEntity
8
CUTOUTS
100
AcDbCircle
10
-1.1712598425196912
20
4.1633858267713526
30
0
40
0.13779527559055121
210
0
220
0
230
1
0
CIRCLE
5
106
100
AcDbEntity
8
CUTOUTS
100
AcDbCircle
10
5.9153543307086593
20
2.9822834645665299
30
0
40
0.13779527559055102
210
0
220
0
230
1
0
CIRCLE
5
107
100
AcDbEntity
8
CUTOUTS
100
AcDbCircle
10
5.9153543307086522
20
-4.064960629921659
30
0
40
0.13779527559055102
210
0
220
0
230
1
0
CIRCLE
5
108
100
AcDbEntity
8
CUTOUTS
100
AcDbCircle
10
-6.092519685039365
20
2.1948818897633804
30
0
40
0.13779527559055102
210
0
220
0
230
1
0
LINE
5
109
100
AcDbEntity
8
CUTOUTS
100
AcDbLine
10
4.6692913385826724
20
4.1240157480311215
30
0
11
5.2716535433070835
21
4.1240157480311215
31
0
0
ARC
5
10A
100
AcDbEntity
8
CUTOUTS
100
AcDbCircle
10
5.2716535433070835
20
4.0452755905508067
30
0
40
0.078740157480314668
210
0
220
-0
230
1
100
AcDbArc
50
0
51
90
0
LINE
5
10B
100
AcDbEntity
8
CUTOUTS
100
AcDbLine
10
5.3503937007873983
20
4.0452755905508067
30
0
11
5.3503937007873965
21
3.6122047244090725
31
0
0
ARC
5
10C
100
AcDbEntity
8
CUTOUTS
100
AcDbCircle
10
5.2716535433070826
20
3.6122047244090725
30
0
40
0.078740157480314668
210
-0
220
0
230
1
100
AcDbArc
50
-90
51
0
0
LINE
5
10D
100
AcDbEntity
8
CUTOUTS
100
AcDbLine
10
5.2716535433070826
20
3.5334645669287577
30
0
11
4.6692913385826706
21
3.5334645669287577
31
0
0
ARC
5
10E
100
AcDbEntity
8
CUTOUTS
100
AcDbCircle
10
4.6692913385826706
20
3.6122047244090725
30
0
40
0.078740157480314668
210
0
220
0
230
1
100
AcDbArc
50
180
51
270
0
LINE
5
10F
100
AcDbEntity
8
CUTOUTS
100
AcDbLine
10
4.5905511811023567
20
3.6122047244090725
30
0
11
4.5905511811023576
21
4.0452755905508067
31
0
0
ARC
5
110
100
AcDbEntity
8
CUTOUTS
100
AcDbCircle
10
4.6692913385826724
20
4.0452755905508067
30
0
40
0.078740157480314668
210
0
220
-0
230
1
100
AcDbArc
50
90
51
180
0
ARC
5
111
100
AcDbEntity
8
PERIMETER
100
AcDbCircle
10
-5.757874015748027
20
1.1515748031492079
30
0
40
0.078740157480314668
210
0
220
-0
230
1
100
AcDbArc
50
0
51
90
0
LINE
5
112
100
AcDbEntity
8
PERIMETER
100
AcDbLine
10
-6.4271653543307039
20
1.2303149606295218
30
0
11
-5.757874015748027
21
1.2303149606295225
31
0
0
ARC
5
113
100
AcDbEntity
8
PERIMETER
100
AcDbCircle
10
-6.4271653543307039
20
1.2696850393696792
30
0
40
0.039370078740158035
210
0
220
0
230
1
100
AcDbArc
50
180
51
270
0
LINE
5
114
100
AcDbEntity
8
PERIMETER
100
AcDbLine
10
-6.4665354330708604
20
3.1200787401570818
30
0
11
-6.4665354330708613
21
1.2696850393696792
31
0
0
ARC
5
115
100
AcDbEntity
8
PERIMETER
100
AcDbCircle
10
-6.4271653543307039
20
3.1200787401570818
30
0
40
0.03937007874015664
210
0
220
-0
230
1
100
AcDbArc
50
90
51
180
0
LINE
5
116
100
AcDbEntity
8
PERIMETER
100
AcDbLine
10
-5.7775590551181049
20
3.1594488188972383
30
0
11
-6.4271653543307039
21
3.1594488188972383
31
0
0
ARC
5
117
100
AcDbEntity
8
PERIMETER
100
AcDbCircle
10
-5.7775590551181049
20
3.2578740157476322
30
0
40
0.098425196850393692
210
-0
220
0
230
1
100
AcDbArc
50
-90
51
0
0
LINE
5
118
100
AcDbEntity
8
PERIMETER
100
AcDbLine
10
-5.6791338582677122
20
4.71456692913425
30
0
11
-5.6791338582677113
21
3.2578740157476322
31
0
0
LINE
5
119
100
AcDbEntity
8
PERIMETER
100
AcDbLine
10
6.3877952755905474
20
4.71456692913425
30
0
11
-5.6791338582677122
21
4.71456692913425
31
0
0
ARC
5
11A
100
AcDbEntity
8
PERIMETER
100
AcDbCircle
10
6.3877952755905474
20
4.6358267716539352
30
0
40
0.078740157480314668
210
0
220
-0
230
1
100
AcDbArc
50
0
51
90
0
LINE
5
11B
100
AcDbEntity
8
PERIMETER
100
AcDbLine
10
6.4665354330708631
20
-4.71456692913425
30
0
11
6.4665354330708613
21
4.6358267716539352
31
0
0
LINE
5
11C
100
AcDbEntity
8
PERIMETER
100
AcDbLine
10
-5.6791338582677104
20
-4.71456692913425
30
0
11
6.4665354330708631
21
-4.71456692913425
31
0
0
LINE
5
11D
100
AcDbEntity
8
PERIMETER
100
AcDbLine
10
-5.6791338582677122
20
-2.78543307086654
30
0
11
-5.6791338582677104
21
-4.71456692913425
31
0
0
ARC
5
11E
100
AcDbEntity
8
PERIMETER
100
AcDbCircle
10
-5.7578740157480279
20
-2.78543307086654
30
0
40
0.078740157480315376
210
0
220
-0
230
1
100
AcDbArc
50
0
51
90
0
LINE
5
11F
100
AcDbEntity
8
PERIMETER
100
AcDbLine
10
-6.4271653543307039
20
-2.7066929133862261
30
0
11
-5.757874015748027
21
-2.7066929133862252
31
0
0
ARC
5
120
100
AcDbEntity
8
PERIMETER
100
AcDbCircle
10
-6.4271653543307039
20
-2.6673228346460687
30
0
40
0.039370078740158035
210
0
220
0
230
1
100
AcDbArc
50
180
51
270
0
LINE
5
121
100
AcDbEntity
8
PERIMETER
100
AcDbLine
10
-6.4665354330708604
20
-0.81692913385866595
30
0
11
-6.4665354330708613
21
-2.6673228346460687
31
0
0
ARC
5
122
100
AcDbEntity
8
PERIMETER
100
AcDbCircle
10
-6.4271653543307039
20
-0.81692913385866595
30
0
40
0.03937007874015664
210
0
220
-0
230
1
100
AcDbArc
50
90
51
180
0
LINE
5
123
100
AcDbEntity
8
PERIMETER
100
AcDbLine
10
-5.757874015748027
20
-0.77755905511850931
30
0
11
-6.4271653543307039
21
-0.77755905511850931
31
0
0
ARC
5
124
100
AcDbEntity
8
PERIMETER
100
AcDbCircle
10
-5.757874015748027
20
-0.69881889763819471
30
0
40
0.078740157480314668
210
-0
220
0
230
1
100
AcDbArc
50
-90
51
0
0
LINE
5
125
100
AcDbEntity
8
PERIMETER
100
AcDbLine
10
-5.6791338582677122
20
1.1515748031492079
30
0
11
-5.6791338582677122
21
-0.69881889763819471
31
0
0
ENDSEC
0
SECTION
2
OBJECTS
0
DICTIONARY
5
C
100
AcDbDictionary
3
ACAD_GROUP
350
D
3
ACAD_MLINESTYLE
350
17
0
DICTIONARY
5
D
100
AcDbDictionary
0
DICTIONARY
5
1A
330
C
100
AcDbDictionary
0
DICTIONARY
5
17
100
AcDbDictionary
0
ENDSEC
0
EOF
