  0
SECTION
  2
HEADER
  9
$ACADVER
  1
AC1009
  9
$INSBASE
 10
0.0
 20
0.0
 30
0.0
  9
$EXTMIN
 10
0.0
 20
0.0
 30
0.0
  9
$EXTMAX
 10
0.0
 20
0.0
 30
0.0
  0
ENDSEC
  0
SECTION
  2
TABLES
  0
TABLE
  2
VPORT
 70
0
  0
ENDTAB
  0
TABLE
  2
LTYPE
 70
1
  0
LTYPE
  2
CONTINUOUS
 70
0
  3
Solid line
 72
65
 73
0
 40
0.0
  0
ENDTAB
  0
TABLE
  2
LAYER
 70
1
  0
LAYER
  2
0
 70
64
 62
7
  6
continuous
  0
ENDTAB
  0
TABLE
  2
STYLE
 70
1
  0
STYLE
  2
STANDARD
 70
0
 40
0
 41
1.0
 50
0.0
 71
0
 42
1
 3
ARIAL.TTF
 4

  0
ENDTAB
  0
TABLE
  2
VIEW
 70
0
  0
ENDTAB
  0
ENDSEC
  0
SECTION
  2
BLOCKS
  0
ENDSEC
  0
SECTION
  2
ENTITIES
  0
CIRCLE
  8
0
 62
0
 10
221.00000000000023
 20
-37.50000000000001
 30
0.0
 40
1.650000000000034
  0
CIRCLE
  8
0
 62
0
 10
-150.00000000000006
 20
-34.99999999999995
 30
0.0
 40
2.0
  0
LINE
  8
0
 62
0
 10
-350.00000000000006
 20
340.0000000000003
 30
0.0
 11
-350.00000000000006
 21
-310.0
 31
0.0
  0
LINE
  8
0
 62
0
 10
-350.00000000000006
 20
340.0000000000003
 30
0.0
 11
-350.00000000000006
 21
-310.0
 31
0.0
  0
LINE
  8
0
 62
0
 10
320.00000000000006
 20
-340.00000000000006
 30
0.0
 11
-320.00000000000006
 21
-340.00000000000006
 31
0.0
  0
CIRCLE
  8
0
 62
0
 10
221.00000000000023
 20
77.50000000000006
 30
0.0
 40
1.650000000000034
  0
CIRCLE
  8
0
 62
0
 10
129.00000000000017
 20
77.50000000000006
 30
0.0
 40
1.6500000000000057
  0
LINE
  8
0
 62
0
 10
350.0000000000003
 20
-310.0
 30
0.0
 11
320.00000000000006
 21
-310.0
 31
0.0
  0
CIRCLE
  8
0
 62
0
 10
-334.99999999999994
 20
-162.49999999999994
 30
0.0
 40
2.6000000000000227
  0
CIRCLE
  8
0
 62
0
 10
-95.00000000000004
 20
-280.0
 30
0.0
 40
8.000000000000014
  0
LINE
  8
0
 62
0
 10
320.00000000000006
 20
-310.0
 30
0.0
 11
320.00000000000006
 21
-340.00000000000006
 31
0.0
  0
LINE
  8
0
 62
0
 10
350.0000000000003
 20
340.00000000000017
 30
0.0
 11
350.0000000000003
 21
-310.0
 31
0.0
  0
CIRCLE
  8
0
 62
0
 10
-167.49999999999997
 20
-325.00000000000006
 30
0.0
 40
2.5999999999999943
  0
CIRCLE
  8
0
 62
0
 10
165.49999999999997
 20
100.50000000000004
 30
0.0
 40
2.0
  0
CIRCLE
  8
0
 62
0
 10
137.00000000000006
 20
150.50000000000006
 30
0.0
 40
2.0
  0
CIRCLE
  8
0
 62
0
 10
79.00000000000003
 20
150.50000000000006
 30
0.0
 40
1.9999999999999858
  0
CIRCLE
  8
0
 62
0
 10
-100.00000000000004
 20
-34.999999999999936
 30
0.0
 40
2.000000000000014
  0
LINE
  8
0
 62
0
 10
350.0000000000003
 20
340.00000000000017
 30
0.0
 11
-350.00000000000006
 21
340.00000000000017
 31
0.0
  0
CIRCLE
  8
0
 62
0
 10
-100.00000000000004
 20
115.00000000000006
 30
0.0
 40
2.000000000000014
  0
LINE
  8
0
 62
0
 10
-350.00000000000006
 20
-310.0
 30
0.0
 11
-320.00000000000006
 21
-310.0
 31
0.0
  0
LINE
  8
0
 62
0
 10
320.00000000000006
 20
-340.00000000000006
 30
0.0
 11
-320.00000000000006
 21
-340.00000000000006
 31
0.0
  0
LINE
  8
0
 62
0
 10
350.0000000000003
 20
340.00000000000017
 30
0.0
 11
350.0000000000003
 21
-310.0
 31
0.0
  0
CIRCLE
  8
0
 62
0
 10
79.00000000000003
 20
100.50000000000004
 30
0.0
 40
1.9999999999999858
  0
CIRCLE
  8
0
 62
0
 10
-100.00000000000004
 20
-34.999999999999936
 30
0.0
 40
2.000000000000014
  0
CIRCLE
  8
0
 62
0
 10
221.00000000000023
 20
77.50000000000006
 30
0.0
 40
1.650000000000034
  0
CIRCLE
  8
0
 62
0
 10
137.00000000000006
 20
199.50000000000009
 30
0.0
 40
2.0
  0
CIRCLE
  8
0
 62
0
 10
-55.000000000000036
 20
-254.0
 30
0.0
 40
2.250000000000007
  0
CIRCLE
  8
0
 62
0
 10
335.0000000000003
 20
5.570000000000003e-14
 30
0.0
 40
2.6000000000000227
  0
CIRCLE
  8
0
 62
0
 10
-167.49999999999997
 20
325.00000000000017
 30
0.0
 40
2.5999999999999943
  0
CIRCLE
  8
0
 62
0
 10
1.1100000000000004e-13
 20
-325.00000000000006
 30
0.0
 40
2.6000000000000023
  0
CIRCLE
  8
0
 62
0
 10
-167.49999999999997
 20
-325.00000000000006
 30
0.0
 40
2.5999999999999943
  0
CIRCLE
  8
0
 62
0
 10
335.0000000000003
 20
162.50000000000009
 30
0.0
 40
2.6000000000000227
  0
CIRCLE
  8
0
 62
0
 10
-150.00000000000006
 20
115.00000000000016
 30
0.0
 40
2.0
  0
CIRCLE
  8
0
 62
0
 10
335.0000000000003
 20
-162.49999999999994
 30
0.0
 40
2.6000000000000227
  0
CIRCLE
  8
0
 62
0
 10
167.5000000000002
 20
-325.00000000000006
 30
0.0
 40
2.5999999999999943
  0
CIRCLE
  8
0
 62
0
 10
1.1100000000000004e-13
 20
-325.00000000000006
 30
0.0
 40
2.6000000000000023
  0
CIRCLE
  8
0
 62
0
 10
335.0000000000003
 20
5.570000000000003e-14
 30
0.0
 40
2.6000000000000227
  0
CIRCLE
  8
0
 62
0
 10
-334.99999999999994
 20
162.50000000000009
 30
0.0
 40
2.6000000000000227
  0
CIRCLE
  8
0
 62
0
 10
1.1100000000000004e-13
 20
-162.49999999999994
 30
0.0
 40
2.6000000000000023
  0
CIRCLE
  8
0
 62
0
 10
0.0
 20
5.570000000000003e-14
 30
0.0
 40
2.6000000000000023
  0
CIRCLE
  8
0
 62
0
 10
-334.99999999999994
 20
162.50000000000009
 30
0.0
 40
2.6000000000000227
  0
CIRCLE
  8
0
 62
0
 10
1.1100000000000004e-13
 20
162.50000000000009
 30
0.0
 40
2.6000000000000023
  0
CIRCLE
  8
0
 62
0
 10
167.5000000000002
 20
325.00000000000017
 30
0.0
 40
2.5999999999999943
  0
CIRCLE
  8
0
 62
0
 10
-334.99999999999994
 20
5.570000000000003e-14
 30
0.0
 40
2.6000000000000227
  0
CIRCLE
  8
0
 62
0
 10
0.0
 20
5.570000000000003e-14
 30
0.0
 40
2.6000000000000023
  0
CIRCLE
  8
0
 62
0
 10
335.0000000000003
 20
162.50000000000009
 30
0.0
 40
2.6000000000000227
  0
CIRCLE
  8
0
 62
0
 10
221.00000000000023
 20
-37.50000000000001
 30
0.0
 40
1.650000000000034
  0
LINE
  8
0
 62
0
 10
350.0000000000003
 20
-310.0
 30
0.0
 11
320.00000000000006
 21
-310.0
 31
0.0
  0
CIRCLE
  8
0
 62
0
 10
-334.99999999999994
 20
-162.49999999999994
 30
0.0
 40
2.6000000000000227
  0
CIRCLE
  8
0
 62
0
 10
-150.00000000000006
 20
115.00000000000016
 30
0.0
 40
2.0
  0
CIRCLE
  8
0
 62
0
 10
129.00000000000017
 20
-37.50000000000001
 30
0.0
 40
1.6500000000000057
  0
CIRCLE
  8
0
 62
0
 10
-150.00000000000006
 20
-34.99999999999995
 30
0.0
 40
2.0
  0
LINE
  8
0
 62
0
 10
-320.00000000000006
 20
-310.0
 30
0.0
 11
-320.00000000000006
 21
-340.00000000000006
 31
0.0
  0
CIRCLE
  8
0
 62
0
 10
129.00000000000017
 20
77.50000000000006
 30
0.0
 40
1.6500000000000057
  0
CIRCLE
  8
0
 62
0
 10
167.5000000000002
 20
-325.00000000000006
 30
0.0
 40
2.5999999999999943
  0
CIRCLE
  8
0
 62
0
 10
-55.000000000000036
 20
-254.0
 30
0.0
 40
2.250000000000007
  0
CIRCLE
  8
0
 62
0
 10
-55.00000000000002
 20
-205.99999999999997
 30
0.0
 40
2.250000000000007
  0
LINE
  8
0
 62
0
 10
-320.00000000000006
 20
-310.0
 30
0.0
 11
-320.00000000000006
 21
-340.00000000000006
 31
0.0
  0
CIRCLE
  8
0
 62
0
 10
79.00000000000003
 20
199.50000000000009
 30
0.0
 40
1.9999999999999858
  0
CIRCLE
  8
0
 62
0
 10
79.00000000000004
 20
-37.500000000000014
 30
0.0
 40
1.9999999999999858
  0
CIRCLE
  8
0
 62
0
 10
165.50000000000009
 20
-37.500000000000014
 30
0.0
 40
2.0
  0
CIRCLE
  8
0
 62
0
 10
335.0000000000003
 20
-162.49999999999994
 30
0.0
 40
2.6000000000000227
  0
LINE
  8
0
 62
0
 10
350.0000000000003
 20
340.00000000000017
 30
0.0
 11
-350.00000000000006
 21
340.00000000000017
 31
0.0
  0
CIRCLE
  8
0
 62
0
 10
167.5000000000002
 20
325.00000000000017
 30
0.0
 40
2.5999999999999943
  0
CIRCLE
  8
0
 62
0
 10
-100.00000000000004
 20
115.00000000000006
 30
0.0
 40
2.000000000000014
  0
CIRCLE
  8
0
 62
0
 10
-55.00000000000002
 20
-205.99999999999997
 30
0.0
 40
2.250000000000007
  0
LINE
  8
0
 62
0
 10
-350.00000000000006
 20
-310.0
 30
0.0
 11
-320.00000000000006
 21
-310.0
 31
0.0
  0
CIRCLE
  8
0
 62
0
 10
1.1100000000000004e-13
 20
-162.49999999999994
 30
0.0
 40
2.6000000000000023
  0
CIRCLE
  8
0
 62
0
 10
-95.00000000000004
 20
-280.0
 30
0.0
 40
8.000000000000014
  0
CIRCLE
  8
0
 62
0
 10
129.00000000000017
 20
-37.50000000000001
 30
0.0
 40
1.6500000000000057
  0
CIRCLE
  8
0
 62
0
 10
1.1100000000000004e-13
 20
162.50000000000009
 30
0.0
 40
2.6000000000000023
  0
LINE
  8
0
 62
0
 10
320.00000000000006
 20
-310.0
 30
0.0
 11
320.00000000000006
 21
-340.00000000000006
 31
0.0
  0
CIRCLE
  8
0
 62
0
 10
-167.49999999999997
 20
325.00000000000017
 30
0.0
 40
2.5999999999999943
  0
CIRCLE
  8
0
 62
0
 10
-334.99999999999994
 20
5.570000000000003e-14
 30
0.0
 40
2.6000000000000227
  0
ENDSEC
  0
EOF
