0
SECTION
2
HEADER
9
$INSUNITS
70
4
9
$ACADVER
1
AC1014
9
$HANDSEED
5
FFFF
0
ENDSEC
0
SECTION
2
TABLES
0
TABLE
2
VPORT
5
8
100
AcDbSymbolTable
0
ENDTAB
0
TABLE
2
LTYPE
5
5
100
AcDbSymbolTable
70
2
0
LTYPE
5
14
100
AcDbSymbolTableRecord
100
AcDbLinetypeTableRecord
2
BYBLOCK
70
0
0
LTYPE
5
15
100
AcDbSymbolTableRecord
100
AcDbLinetypeTableRecord
2
BYLAYER
70
0
0
ENDTAB
0
TABLE
2
LAYER
5
2
100
AcDbSymbolTable
70
3
0
LAYER
5
50
100
AcDbSymbolTableRecord
100
AcDbLayerTableRecord
2
0
70
0
6
CONTINUOUS
0
LAYER
5
51
100
AcDbSymbolTableRecord
100
AcDbLayerTableRecord
2
CUTOUTS
70
0
62
1
6
CONTINUOUS
0
LAYER
5
52
100
AcDbSymbolTableRecord
100
AcDbLayerTableRecord
2
PERIMETER
70
0
62
5
6
CONTINUOUS
0
ENDTAB
0
TABLE
2
STYLE
5
3
100
AcDbSymbolTable
70
1
0
STYLE
5
11
100
AcDbSymbolTableRecord
100
AcDbTextStyleTableRecord
2
STANDARD
70
0
0
ENDTAB
0
TABLE
2
VIEW
5
6
100
AcDbSymbolTable
0
ENDTAB
0
TABLE
2
UCS
5
7
100
AcDbSymbolTable
0
ENDTAB
0
TABLE
2
APPID
5
9
100
AcDbSymbolTable
70
1
0
APPID
5
12
100
AcDbSymbolTableRecord
100
AcDbRegAppTableRecord
2
ACAD
70
0
0
ENDTAB
0
TABLE
2
DIMSTYLE
5
A
100
AcDbSymbolTable
0
ENDTAB
0
TABLE
2
BLOCK_RECORD
5
1
100
AcDbSymbolTable
70
2
0
BLOCK_RECORD
5
1F
100
AcDbSymbolTableRecord
100
AcDbBlockTableRecord
2
*MODEL_SPACE
0
BLOCK_RECORD
5
1B
100
AcDbSymbolTableRecord
100
AcDbBlockTableRecord
2
*PAPER_SPACE
0
ENDTAB
0
ENDSEC
0
SECTION
2
BLOCKS
0
BLOCK
5
20
100
AcDbEntity
100
AcDbBlockBegin
2
*MODEL_SPACE
0
ENDBLK
5
21
100
AcDbEntity
100
AcDbBlockEnd
0
BLOCK
5
1C
100
AcDbEntity
100
AcDbBlockBegin
2
*PAPER_SPACE
0
ENDBLK
5
1D
100
AcDbEntity
100
AcDbBlockEnd
0
ENDSEC
0
SECTION
2
ENTITIES
0
CIRCLE
5
100
100
AcDbEntity
8
CUTOUTS
100
AcDbCircle
10
63.749999999999993
20
-102.37500000000011
30
0
40
3.3000000000000007
210
0
220
0
230
1
0
CIRCLE
5
101
100
AcDbEntity
8
CUTOUTS
100
AcDbCircle
10
-63.749999999999851
20
-102.37500000000013
30
0
40
3.3000000000000007
210
0
220
0
230
1
0
CIRCLE
5
102
100
AcDbEntity
8
CUTOUTS
100
AcDbCircle
10
217.5
20
7.6249999999998153
30
0
40
3.2999999999999829
210
0
220
0
230
1
0
CIRCLE
5
103
100
AcDbEntity
8
CUTOUTS
100
AcDbCircle
10
3.5527136788005016e-14
20
97.625
30
0
40
3.3000000000000003
210
0
220
0
230
1
0
CIRCLE
5
104
100
AcDbEntity
8
CUTOUTS
100
AcDbCircle
10
-217.5
20
7.6249999999999751
30
0
40
3.2999999999999829
210
0
220
0
230
1
0
CIRCLE
5
105
100
AcDbEntity
8
CUTOUTS
100
AcDbCircle
10
-217.5
20
-42.375000000000327
30
0
40
3.2999999999999829
210
0
220
0
230
1
0
CIRCLE
5
106
100
AcDbEntity
8
CUTOUTS
100
AcDbCircle
10
-127.5
20
97.625
30
0
40
3.3000000000000007
210
0
220
0
230
1
0
CIRCLE
5
107
100
AcDbEntity
8
CUTOUTS
100
AcDbCircle
10
127.50000000000009
20
97.625
30
0
40
3.3000000000000007
210
0
220
0
230
1
0
CIRCLE
5
108
100
AcDbEntity
8
CUTOUTS
100
AcDbCircle
10
217.5
20
-42.375000000000298
30
0
40
3.2999999999999829
210
0
220
0
230
1
0
LINE
5
109
100
AcDbEntity
8
PERIMETER
100
AcDbLine
10
-140.99999999999997
20
-87.684016994375114
30
0
11
-141
21
-88.625000000000142
31
0
0
ARC
5
10A
100
AcDbEntity
8
PERIMETER
100
AcDbCircle
10
-139
20
-88.625000000000142
30
0
40
2.0000000000000107
210
0
220
0
230
1
100
AcDbArc
50
180
51
270
0
LINE
5
10B
100
AcDbEntity
8
PERIMETER
100
AcDbLine
10
-139
20
-90.625000000000156
30
0
11
-118.01776695296633
21
-90.625000000000156
31
0
0
ARC
5
10C
100
AcDbEntity
8
PERIMETER
100
AcDbCircle
10
-118.01776695296633
20
-92.625000000000156
30
0
40
2.0000000000000084
210
0
220
-0
230
1
100
AcDbArc
50
45.000000000000568
51
90
0
LINE
5
10D
100
AcDbEntity
8
PERIMETER
100
AcDbLine
10
-116.60355339059323
20
-91.210786437627064
30
0
11
-95.775126265847334
21
-112.03921356237301
31
0
0
ARC
5
10E
100
AcDbEntity
8
PERIMETER
100
AcDbCircle
10
-94.360912703474241
20
-110.62499999999991
30
0
40
1.999999999999996
210
0
220
0
230
1
100
AcDbArc
50
225
51
270
0
LINE
5
10F
100
AcDbEntity
8
PERIMETER
100
AcDbLine
10
-94.360912703474241
20
-112.6249999999999
30
0
11
-33.139087296525901
21
-112.62499999999991
31
0
0
ARC
5
110
100
AcDbEntity
8
PERIMETER
100
AcDbCircle
10
-33.139087296525901
20
-110.62499999999993
30
0
40
1.9999999999999929
210
0
220
0
230
1
100
AcDbArc
50
270
51
315.00000000000017
0
LINE
5
111
100
AcDbEntity
8
PERIMETER
100
AcDbLine
10
-31.724873734152812
20
-112.03921356237301
30
0
11
-10.896446609406652
21
-91.210786437626808
31
0
0
ARC
5
112
100
AcDbEntity
8
PERIMETER
100
AcDbCircle
10
-9.4822330470335601
20
-92.624999999999915
30
0
40
1.9999999999999929
210
0
220
-0
230
1
100
AcDbArc
50
90
51
135.00000000000023
0
LINE
5
113
100
AcDbEntity
8
PERIMETER
100
AcDbLine
10
-9.4822330470335601
20
-90.624999999999929
30
0
11
9.4822330470337075
21
-90.624999999999929
31
0
0
ARC
5
114
100
AcDbEntity
8
PERIMETER
100
AcDbCircle
10
9.4822330470337075
20
-92.624999999999915
30
0
40
1.999999999999996
210
0
220
-0
230
1
100
AcDbArc
50
44.999999999999709
51
89.999999999999943
0
LINE
5
115
100
AcDbEntity
8
PERIMETER
100
AcDbLine
10
10.8964466094068
20
-91.210786437626837
30
0
11
31.724873734153185
21
-112.03921356237323
31
0
0
ARC
5
116
100
AcDbEntity
8
PERIMETER
100
AcDbCircle
10
33.139087296526277
20
-110.62500000000014
30
0
40
1.999999999999996
210
0
220
0
230
1
100
AcDbArc
50
225
51
270.00000000000023
0
LINE
5
117
100
AcDbEntity
8
PERIMETER
100
AcDbLine
10
33.139087296526284
20
-112.62500000000014
30
0
11
94.360912703474028
21
-112.62500000000011
31
0
0
ARC
5
118
100
AcDbEntity
8
PERIMETER
100
AcDbCircle
10
94.360912703474028
20
-110.62500000000016
30
0
40
1.9999999999999574
210
-0
220
0
230
1
100
AcDbArc
50
270
51
315
0
LINE
5
119
100
AcDbEntity
8
PERIMETER
100
AcDbLine
10
95.775126265847092
20
-112.03921356237322
30
0
11
116.60355339059336
21
-91.210786437627021
31
0
0
ARC
5
11A
100
AcDbEntity
8
PERIMETER
100
AcDbCircle
10
118.01776695296645
20
-92.625000000000099
30
0
40
1.9999999999999929
210
0
220
-0
230
1
100
AcDbArc
50
90
51
135
0
LINE
5
11B
100
AcDbEntity
8
PERIMETER
100
AcDbLine
10
118.01776695296645
20
-90.625000000000114
30
0
11
139.00000000000003
21
-90.625000000000114
31
0
0
ARC
5
11C
100
AcDbEntity
8
PERIMETER
100
AcDbCircle
10
139.00000000000003
20
-88.625000000000114
30
0
40
1.9999999999999929
210
-0
220
0
230
1
100
AcDbArc
50
-90
51
0
0
LINE
5
11D
100
AcDbEntity
8
PERIMETER
100
AcDbLine
10
141
20
-88.625000000000114
30
0
11
141
21
-87.684016994375071
31
0
0
ARC
5
11E
100
AcDbEntity
8
PERIMETER
100
AcDbCircle
10
143
20
-87.684016994375071
30
0
40
2.0000000000000098
210
0
220
0
230
1
100
AcDbArc
50
116.56505117707799
51
180
0
LINE
5
11F
100
AcDbEntity
8
PERIMETER
100
AcDbLine
10
142.10557280900008
20
-85.895162612375231
30
0
11
201.72360679774997
21
-56.086145618000423
31
0
0
ARC
5
120
100
AcDbEntity
8
PERIMETER
100
AcDbCircle
10
202.61803398874989
20
-57.875000000000263
30
0
40
2.0000000000000018
210
0
220
-0
230
1
100
AcDbArc
50
90
51
116.5650511770781
0
LINE
5
121
100
AcDbEntity
8
PERIMETER
100
AcDbLine
10
202.61803398874989
20
-55.875000000000263
30
0
11
230.49999999999997
21
-55.875000000000263
31
0
0
ARC
5
122
100
AcDbEntity
8
PERIMETER
100
AcDbCircle
10
230.49999999999997
20
-53.875000000000284
30
0
40
1.9999999999999751
210
-0
220
0
230
1
100
AcDbArc
50
-90
51
0
0
LINE
5
123
100
AcDbEntity
8
PERIMETER
100
AcDbLine
10
232.49999999999994
20
-53.875000000000277
30
0
11
232.49999999999997
21
19.124999999999854
31
0
0
ARC
5
124
100
AcDbEntity
8
PERIMETER
100
AcDbCircle
10
230.49999999999997
20
19.124999999999872
30
0
40
1.9999999999999929
210
-0
220
0
230
1
100
AcDbArc
50
0
51
90
0
LINE
5
125
100
AcDbEntity
8
PERIMETER
100
AcDbLine
10
230.49999999999997
20
21.124999999999865
30
0
11
202.70710678118655
21
21.124999999999865
31
0
0
ARC
5
126
100
AcDbEntity
8
PERIMETER
100
AcDbCircle
10
202.70710678118655
20
23.124999999999876
30
0
40
2.0000000000000084
210
0
220
0
230
1
100
AcDbArc
50
225.00000000000006
51
270
0
LINE
5
127
100
AcDbEntity
8
PERIMETER
100
AcDbLine
10
201.29289321881345
20
21.710786437626766
30
0
11
141.58578643762692
21
81.417893218813361
31
0
0
ARC
5
128
100
AcDbEntity
8
PERIMETER
100
AcDbCircle
10
143.00000000000003
20
82.832106781186468
30
0
40
1.9999999999999929
210
0
220
0
230
1
100
AcDbArc
50
180
51
225
0
LINE
5
129
100
AcDbEntity
8
PERIMETER
100
AcDbLine
10
141.00000000000003
20
82.832106781186468
30
0
11
141.00000000000006
21
110.62500000000007
31
0
0
ARC
5
12A
100
AcDbEntity
8
PERIMETER
100
AcDbCircle
10
139.00000000000009
20
110.62500000000007
30
0
40
1.9999999999999929
210
0
220
-0
230
1
100
AcDbArc
50
0
51
90
0
LINE
5
12B
100
AcDbEntity
8
PERIMETER
100
AcDbLine
10
139.00000000000009
20
112.62500000000006
30
0
11
-138.99999999999997
21
112.62499999999989
31
0
0
ARC
5
12C
100
AcDbEntity
8
PERIMETER
100
AcDbCircle
10
-139
20
110.62499999999989
30
0
40
1.9999999999999929
210
0
220
-0
230
1
100
AcDbArc
50
89.99999999999919
51
180
0
LINE
5
12D
100
AcDbEntity
8
PERIMETER
100
AcDbLine
10
-141
20
110.62499999999989
30
0
11
-141
21
82.832106781186496
31
0
0
ARC
5
12E
100
AcDbEntity
8
PERIMETER
100
AcDbCircle
10
-143
20
82.832106781186496
30
0
40
1.999999999999996
210
-0
220
0
230
1
100
AcDbArc
50
-44.999999999999694
51
0
0
LINE
5
12F
100
AcDbEntity
8
PERIMETER
100
AcDbLine
10
-141.58578643762689
20
81.417893218813404
30
0
11
-201.29289321881342
21
21.71078643762689
31
0
0
ARC
5
130
100
AcDbEntity
8
PERIMETER
100
AcDbCircle
10
-202.7071067811865
20
23.124999999999982
30
0
40
1.9999999999999929
210
-0
220
0
230
1
100
AcDbArc
50
270
51
314.99999999999972
0
LINE
5
131
100
AcDbEntity
8
PERIMETER
100
AcDbLine
10
-202.7071067811865
20
21.124999999999989
30
0
11
-230.5
21
21.124999999999972
31
0
0
ARC
5
132
100
AcDbEntity
8
PERIMETER
100
AcDbCircle
10
-230.5
20
19.124999999999979
30
0
40
1.9999999999999929
210
0
220
-0
230
1
100
AcDbArc
50
90
51
180
0
LINE
5
133
100
AcDbEntity
8
PERIMETER
100
AcDbLine
10
-232.5
20
19.124999999999979
30
0
11
-232.5
21
-53.875000000000313
31
0
0
ARC
5
134
100
AcDbEntity
8
PERIMETER
100
AcDbCircle
10
-230.5
20
-53.875000000000306
30
0
40
1.9999999999999929
210
0
220
0
230
1
100
AcDbArc
50
180
51
270
0
LINE
5
135
100
AcDbEntity
8
PERIMETER
100
AcDbLine
10
-230.5
20
-55.875000000000298
30
0
11
-202.61803398874989
21
-55.875000000000306
31
0
0
ARC
5
136
100
AcDbEntity
8
PERIMETER
100
AcDbCircle
10
-202.61803398874989
20
-57.875000000000298
30
0
40
2.0000000000000018
210
0
220
-0
230
1
100
AcDbArc
50
63.434948822921918
51
90
0
LINE
5
137
100
AcDbEntity
8
PERIMETER
100
AcDbLine
10
-201.72360679774997
20
-56.086145618000465
30
0
11
-142.10557280900005
21
-85.895162612375273
31
0
0
ARC
5
138
100
AcDbEntity
8
PERIMETER
100
AcDbCircle
10
-142.99999999999997
20
-87.684016994375114
30
0
40
1.9999999999999929
210
0
220
-0
230
1
100
AcDbArc
50
0
51
63.434948822921832
0
ENDSEC
0
SECTION
2
OBJECTS
0
DICTIONARY
5
C
100
AcDbDictionary
3
ACAD_GROUP
350
D
3
ACAD_MLINESTYLE
350
17
0
DICTIONARY
5
D
100
AcDbDictionary
0
DICTIONARY
5
1A
330
C
100
AcDbDictionary
0
DICTIONARY
5
17
100
AcDbDictionary
0
ENDSEC
0
EOF
