0
SECTION
2
HEADER
9
$INSUNITS
70
4
9
$ACADVER
1
AC1014
9
$HANDSEED
5
FFFF
0
ENDSEC
0
SECTION
2
TABLES
0
TABLE
2
VPORT
5
8
100
AcDbSymbolTable
0
ENDTAB
0
TABLE
2
LTYPE
5
5
100
AcDbSymbolTable
70
2
0
LTYPE
5
14
100
AcDbSymbolTableRecord
100
AcDbLinetypeTableRecord
2
BYBLOCK
70
0
0
LTYPE
5
15
100
AcDbSymbolTableRecord
100
AcDbLinetypeTableRecord
2
BYLAYER
70
0
0
ENDTAB
0
TABLE
2
LAYER
5
2
100
AcDbSymbolTable
70
3
0
LAYER
5
50
100
AcDbSymbolTableRecord
100
AcDbLayerTableRecord
2
0
70
0
6
CONTINUOUS
0
LAYER
5
51
100
AcDbSymbolTableRecord
100
AcDbLayerTableRecord
2
CUTOUTS
70
0
62
1
6
CONTINUOUS
0
LAYER
5
52
100
AcDbSymbolTableRecord
100
AcDbLayerTableRecord
2
PERIMETER
70
0
62
5
6
CONTINUOUS
0
ENDTAB
0
TABLE
2
STYLE
5
3
100
AcDbSymbolTable
70
1
0
STYLE
5
11
100
AcDbSymbolTableRecord
100
AcDbTextStyleTableRecord
2
STANDARD
70
0
0
ENDTAB
0
TABLE
2
VIEW
5
6
100
AcDbSymbolTable
0
ENDTAB
0
TABLE
2
UCS
5
7
100
AcDbSymbolTable
0
ENDTAB
0
TABLE
2
APPID
5
9
100
AcDbSymbolTable
70
1
0
APPID
5
12
100
AcDbSymbolTableRecord
100
AcDbRegAppTableRecord
2
ACAD
70
0
0
ENDTAB
0
TABLE
2
DIMSTYLE
5
A
100
AcDbSymbolTable
0
ENDTAB
0
TABLE
2
BLOCK_RECORD
5
1
100
AcDbSymbolTable
70
2
0
BLOCK_RECORD
5
1F
100
AcDbSymbolTableRecord
100
AcDbBlockTableRecord
2
*MODEL_SPACE
0
BLOCK_RECORD
5
1B
100
AcDbSymbolTableRecord
100
AcDbBlockTableRecord
2
*PAPER_SPACE
0
ENDTAB
0
ENDSEC
0
SECTION
2
BLOCKS
0
BLOCK
5
20
100
AcDbEntity
100
AcDbBlockBegin
2
*MODEL_SPACE
0
ENDBLK
5
21
100
AcDbEntity
100
AcDbBlockEnd
0
BLOCK
5
1C
100
AcDbEntity
100
AcDbBlockBegin
2
*PAPER_SPACE
0
ENDBLK
5
1D
100
AcDbEntity
100
AcDbBlockEnd
0
ENDSEC
0
SECTION
2
ENTITIES
0
CIRCLE
5
100
100
AcDbEntity
8
CUTOUTS
100
AcDbCircle
10
184.99999999999989
20
-40.000000000000107
30
0
40
3.2999999999999829
210
0
220
0
230
1
0
CIRCLE
5
101
100
AcDbEntity
8
CUTOUTS
100
AcDbCircle
10
94.999999999958817
20
99.999999999999858
30
0
40
3.3000000000000007
210
0
220
0
230
1
0
CIRCLE
5
102
100
AcDbEntity
8
CUTOUTS
100
AcDbCircle
10
184.99999999999994
20
9.9999999999998757
30
0
40
3.2999999999999829
210
0
220
0
230
1
0
CIRCLE
5
103
100
AcDbEntity
8
CUTOUTS
100
AcDbCircle
10
94.999999999999929
20
-100
30
0
40
3.3000000000000007
210
0
220
0
230
1
0
CIRCLE
5
104
100
AcDbEntity
8
CUTOUTS
100
AcDbCircle
10
-7.1054273576010019e-14
20
-100.00000000000007
30
0
40
3.3000000000000003
210
0
220
0
230
1
0
CIRCLE
5
105
100
AcDbEntity
8
CUTOUTS
100
AcDbCircle
10
-185.00000000000003
20
-40.000000000000107
30
0
40
3.2999999999999829
210
0
220
0
230
1
0
CIRCLE
5
106
100
AcDbEntity
8
CUTOUTS
100
AcDbCircle
10
-6.6686182987320888e-14
20
99.999999999999972
30
0
40
3.3000000000000003
210
0
220
0
230
1
0
CIRCLE
5
107
100
AcDbEntity
8
CUTOUTS
100
AcDbCircle
10
-94.999999999958959
20
99.999999999999858
30
0
40
3.3000000000000007
210
0
220
0
230
1
0
CIRCLE
5
108
100
AcDbEntity
8
CUTOUTS
100
AcDbCircle
10
-185.00000000000006
20
9.9999999999998757
30
0
40
3.2999999999999829
210
0
220
0
230
1
0
CIRCLE
5
109
100
AcDbEntity
8
CUTOUTS
100
AcDbCircle
10
-95.000000000000071
20
-100
30
0
40
3.3000000000000007
210
0
220
0
230
1
0
LINE
5
10A
100
AcDbEntity
8
PERIMETER
100
AcDbLine
10
106.49999999995883
20
114.99999999999993
30
0
11
-106.49999999995893
21
114.99999999999986
31
0
0
ARC
5
10B
100
AcDbEntity
8
PERIMETER
100
AcDbCircle
10
-106.49999999995896
20
112.99999999999986
30
0
40
1.9999999999999929
210
0
220
-0
230
1
100
AcDbArc
50
89.99999999999919
51
180
0
LINE
5
10C
100
AcDbEntity
8
PERIMETER
100
AcDbLine
10
-108.49999999995894
20
112.9999999999999
30
0
11
-108.49999999995896
21
85.207106781186582
31
0
0
ARC
5
10D
100
AcDbEntity
8
PERIMETER
100
AcDbCircle
10
-110.49999999995896
20
85.207106781186582
30
0
40
1.999999999999996
210
-0
220
0
230
1
100
AcDbArc
50
-45.000000000020151
51
0
0
LINE
5
10E
100
AcDbEntity
8
PERIMETER
100
AcDbLine
10
-109.08578643758636
20
83.792893218812992
30
0
11
-168.79289321881396
21
24.085786437626311
31
0
0
ARC
5
10F
100
AcDbEntity
8
PERIMETER
100
AcDbCircle
10
-170.2071067811865
20
25.499999999999865
30
0
40
1.9999999999999929
210
-0
220
0
230
1
100
AcDbArc
50
270
51
314.99999999997988
0
LINE
5
110
100
AcDbEntity
8
PERIMETER
100
AcDbLine
10
-170.2071067811865
20
23.499999999999872
30
0
11
-198.00000000000006
21
23.499999999999908
31
0
0
ARC
5
111
100
AcDbEntity
8
PERIMETER
100
AcDbCircle
10
-198.00000000000006
20
21.499999999999932
30
0
40
1.9999999999999751
210
0
220
-0
230
1
100
AcDbArc
50
90
51
180
0
LINE
5
112
100
AcDbEntity
8
PERIMETER
100
AcDbLine
10
-200
20
21.499999999999915
30
0
11
-200.00000000000006
21
-51.500000000000092
31
0
0
ARC
5
113
100
AcDbEntity
8
PERIMETER
100
AcDbCircle
10
-198.00000000000009
20
-51.500000000000085
30
0
40
1.9999999999999929
210
0
220
0
230
1
100
AcDbArc
50
180
51
270
0
LINE
5
114
100
AcDbEntity
8
PERIMETER
100
AcDbLine
10
-198.00000000000009
20
-53.500000000000078
30
0
11
-170.11803398874997
21
-53.500000000000099
31
0
0
ARC
5
115
100
AcDbEntity
8
PERIMETER
100
AcDbCircle
10
-170.11803398874997
20
-55.500000000000107
30
0
40
2.0000000000000018
210
0
220
-0
230
1
100
AcDbArc
50
63.434948822921918
51
90
0
LINE
5
116
100
AcDbEntity
8
PERIMETER
100
AcDbLine
10
-169.22360679775005
20
-53.711145618000273
30
0
11
-109.60557280900012
21
-83.520162612375117
31
0
0
ARC
5
117
100
AcDbEntity
8
PERIMETER
100
AcDbCircle
10
-110.50000000000004
20
-85.309016994374957
30
0
40
1.9999999999999929
210
0
220
-0
230
1
100
AcDbArc
50
0
51
63.434948822921648
0
LINE
5
118
100
AcDbEntity
8
PERIMETER
100
AcDbLine
10
-108.50000000000006
20
-85.309016994374957
30
0
11
-108.50000000000006
21
-113
31
0
0
ARC
5
119
100
AcDbEntity
8
PERIMETER
100
AcDbCircle
10
-106.50000000000006
20
-113
30
0
40
1.9999999999999929
210
0
220
0
230
1
100
AcDbArc
50
180
51
270
0
LINE
5
11A
100
AcDbEntity
8
PERIMETER
100
AcDbLine
10
-106.50000000000006
20
-115
30
0
11
106.50000000000006
21
-115
31
0
0
ARC
5
11B
100
AcDbEntity
8
PERIMETER
100
AcDbCircle
10
106.50000000000006
20
-112.99999999999999
30
0
40
1.9999999999999929
210
-0
220
0
230
1
100
AcDbArc
50
-90
51
0
0
LINE
5
11C
100
AcDbEntity
8
PERIMETER
100
AcDbLine
10
108.50000000000006
20
-112.99999999999999
30
0
11
108.50000000000007
21
-85.309016994374858
31
0
0
ARC
5
11D
100
AcDbEntity
8
PERIMETER
100
AcDbCircle
10
110.50000000000006
20
-85.309016994374858
30
0
40
2.0000000000000098
210
0
220
0
230
1
100
AcDbArc
50
116.56505117707799
51
180
0
LINE
5
11E
100
AcDbEntity
8
PERIMETER
100
AcDbLine
10
109.60557280900014
20
-83.520162612375017
30
0
11
169.22360679775008
21
-53.711145618000138
31
0
0
ARC
5
11F
100
AcDbEntity
8
PERIMETER
100
AcDbCircle
10
170.11803398875
20
-55.499999999999986
30
0
40
2.0000000000000018
210
0
220
-0
230
1
100
AcDbArc
50
90
51
116.56505117707817
0
LINE
5
120
100
AcDbEntity
8
PERIMETER
100
AcDbLine
10
170.11803398875
20
-53.499999999999986
30
0
11
198.00000000000009
21
-53.499999999999972
31
0
0
ARC
5
121
100
AcDbEntity
8
PERIMETER
100
AcDbCircle
10
198.00000000000009
20
-51.499999999999972
30
0
40
2.0000000000000018
210
-0
220
0
230
1
100
AcDbArc
50
270
51
360
0
LINE
5
122
100
AcDbEntity
8
PERIMETER
100
AcDbLine
10
200.00000000000006
20
-51.499999999999979
30
0
11
200
21
21.500000000000004
31
0
0
ARC
5
123
100
AcDbEntity
8
PERIMETER
100
AcDbCircle
10
198
20
21.500000000000004
30
0
40
1.9999999999999929
210
0
220
-0
230
1
100
AcDbArc
50
0
51
90
0
LINE
5
124
100
AcDbEntity
8
PERIMETER
100
AcDbLine
10
198
20
23.499999999999996
30
0
11
170.20710678118647
21
23.499999999999979
31
0
0
ARC
5
125
100
AcDbEntity
8
PERIMETER
100
AcDbCircle
10
170.20710678118647
20
25.499999999999972
30
0
40
1.999999999999996
210
0
220
0
230
1
100
AcDbArc
50
225.00000000002015
51
270
0
LINE
5
126
100
AcDbEntity
8
PERIMETER
100
AcDbLine
10
168.79289321881387
20
24.085786437626382
30
0
11
109.08578643758625
21
83.792893218813049
31
0
0
ARC
5
127
100
AcDbEntity
8
PERIMETER
100
AcDbCircle
10
110.49999999995885
20
85.207106781186639
30
0
40
1.9999999999999929
210
0
220
0
230
1
100
AcDbArc
50
180
51
225.00000000002015
0
LINE
5
128
100
AcDbEntity
8
PERIMETER
100
AcDbLine
10
108.49999999995886
20
85.207106781186639
30
0
11
108.49999999995882
21
112.99999999999997
31
0
0
ARC
5
129
100
AcDbEntity
8
PERIMETER
100
AcDbCircle
10
106.49999999995885
20
112.99999999999997
30
0
40
1.9999999999999751
210
0
220
-0
230
1
100
AcDbArc
50
0
51
90.000000000000398
0
ENDSEC
0
SECTION
2
OBJECTS
0
DICTIONARY
5
C
100
AcDbDictionary
3
ACAD_GROUP
350
D
3
ACAD_MLINESTYLE
350
17
0
DICTIONARY
5
D
100
AcDbDictionary
0
DICTIONARY
5
1A
330
C
100
AcDbDictionary
0
DICTIONARY
5
17
100
AcDbDictionary
0
ENDSEC
0
EOF
