0
SECTION
2
HEADER
9
$INSUNITS
70
4
9
$ACADVER
1
AC1014
9
$HANDSEED
5
FFFF
0
ENDSEC
0
SECTION
2
TABLES
0
TABLE
2
VPORT
5
8
100
AcDbSymbolTable
0
ENDTAB
0
TABLE
2
LTYPE
5
5
100
AcDbSymbolTable
70
2
0
LTYPE
5
14
100
AcDbSymbolTableRecord
100
AcDbLinetypeTableRecord
2
BYBLOCK
70
0
0
LTYPE
5
15
100
AcDbSymbolTableRecord
100
AcDbLinetypeTableRecord
2
BYLAYER
70
0
0
ENDTAB
0
TABLE
2
LAYER
5
2
100
AcDbSymbolTable
70
3
0
LAYER
5
50
100
AcDbSymbolTableRecord
100
AcDbLayerTableRecord
2
0
70
0
6
CONTINUOUS
0
LAYER
5
51
100
AcDbSymbolTableRecord
100
AcDbLayerTableRecord
2
CUTOUTS
70
0
62
1
6
CONTINUOUS
0
LAYER
5
52
100
AcDbSymbolTableRecord
100
AcDbLayerTableRecord
2
PERIMETER
70
0
62
5
6
CONTINUOUS
0
ENDTAB
0
TABLE
2
STYLE
5
3
100
AcDbSymbolTable
70
1
0
STYLE
5
11
100
AcDbSymbolTableRecord
100
AcDbTextStyleTableRecord
2
STANDARD
70
0
0
ENDTAB
0
TABLE
2
VIEW
5
6
100
AcDbSymbolTable
0
ENDTAB
0
TABLE
2
UCS
5
7
100
AcDbSymbolTable
0
ENDTAB
0
TABLE
2
APPID
5
9
100
AcDbSymbolTable
70
1
0
APPID
5
12
100
AcDbSymbolTableRecord
100
AcDbRegAppTableRecord
2
ACAD
70
0
0
ENDTAB
0
TABLE
2
DIMSTYLE
5
A
100
AcDbSymbolTable
0
ENDTAB
0
TABLE
2
BLOCK_RECORD
5
1
100
AcDbSymbolTable
70
2
0
BLOCK_RECORD
5
1F
100
AcDbSymbolTableRecord
100
AcDbBlockTableRecord
2
*MODEL_SPACE
0
BLOCK_RECORD
5
1B
100
AcDbSymbolTableRecord
100
AcDbBlockTableRecord
2
*PAPER_SPACE
0
ENDTAB
0
ENDSEC
0
SECTION
2
BLOCKS
0
BLOCK
5
20
100
AcDbEntity
100
AcDbBlockBegin
2
*MODEL_SPACE
0
ENDBLK
5
21
100
AcDbEntity
100
AcDbBlockEnd
0
BLOCK
5
1C
100
AcDbEntity
100
AcDbBlockBegin
2
*PAPER_SPACE
0
ENDBLK
5
1D
100
AcDbEntity
100
AcDbBlockEnd
0
ENDSEC
0
SECTION
2
ENTITIES
0
CIRCLE
5
100
100
AcDbEntity
8
CUTOUTS
100
AcDbCircle
10
127.50000000000003
20
90.000000000000142
30
0
40
3.3000000000000007
210
0
220
0
230
1
0
CIRCLE
5
101
100
AcDbEntity
8
CUTOUTS
100
AcDbCircle
10
-127.50000000000011
20
90.000000000000028
30
0
40
3.3000000000000007
210
0
220
0
230
1
0
CIRCLE
5
102
100
AcDbEntity
8
CUTOUTS
100
AcDbCircle
10
-140.50000000013998
20
-100.00000000000135
30
0
40
3.3000000000000007
210
0
220
0
230
1
0
CIRCLE
5
103
100
AcDbEntity
8
CUTOUTS
100
AcDbCircle
10
-127.49999999999983
20
-290.00000000000006
30
0
40
3.3000000000000007
210
0
220
0
230
1
0
CIRCLE
5
104
100
AcDbEntity
8
CUTOUTS
100
AcDbCircle
10
127.50000000000003
20
-290.00000000000006
30
0
40
3.3000000000000007
210
0
220
0
230
1
0
CIRCLE
5
105
100
AcDbEntity
8
CUTOUTS
100
AcDbCircle
10
217.50000000000011
20
-84.999999999999886
30
0
40
3.2999999999999829
210
0
220
0
230
1
0
CIRCLE
5
106
100
AcDbEntity
8
CUTOUTS
100
AcDbCircle
10
217.5
20
150.00000000000011
30
0
40
3.2999999999999829
210
0
220
0
230
1
0
CIRCLE
5
107
100
AcDbEntity
8
CUTOUTS
100
AcDbCircle
10
127.49999999999991
20
290
30
0
40
3.3000000000000007
210
0
220
0
230
1
0
CIRCLE
5
108
100
AcDbEntity
8
CUTOUTS
100
AcDbCircle
10
-127.50000000000011
20
289.99999999999994
30
0
40
3.3000000000000007
210
0
220
0
230
1
0
CIRCLE
5
109
100
AcDbEntity
8
CUTOUTS
100
AcDbCircle
10
-217.50000000000011
20
149.99999999999997
30
0
40
3.2999999999999829
210
0
220
0
230
1
0
CIRCLE
5
10A
100
AcDbEntity
8
CUTOUTS
100
AcDbCircle
10
-217.50000000000011
20
199.99999999999994
30
0
40
3.2999999999999829
210
0
220
0
230
1
0
CIRCLE
5
10B
100
AcDbEntity
8
CUTOUTS
100
AcDbCircle
10
-1.0672018824209317e-13
20
289.99999999999994
30
0
40
3.3000000000000003
210
0
220
0
230
1
0
CIRCLE
5
10C
100
AcDbEntity
8
CUTOUTS
100
AcDbCircle
10
217.49999999999997
20
200.00000000000006
30
0
40
3.2999999999999829
210
0
220
0
230
1
0
CIRCLE
5
10D
100
AcDbEntity
8
CUTOUTS
100
AcDbCircle
10
217.50000000000011
20
30.000000000000142
30
0
40
3.2999999999999829
210
0
220
0
230
1
0
CIRCLE
5
10E
100
AcDbEntity
8
CUTOUTS
100
AcDbCircle
10
217.50000000000003
20
-199.99999999999994
30
0
40
3.2999999999999829
210
0
220
0
230
1
0
CIRCLE
5
10F
100
AcDbEntity
8
CUTOUTS
100
AcDbCircle
10
1.0658141036401503e-13
20
-290
30
0
40
3.3000000000000003
210
0
220
0
230
1
0
CIRCLE
5
110
100
AcDbEntity
8
CUTOUTS
100
AcDbCircle
10
-140.50000000025994
20
-250.00000000000006
30
0
40
3.3000000000000007
210
0
220
0
230
1
0
CIRCLE
5
111
100
AcDbEntity
8
CUTOUTS
100
AcDbCircle
10
-140.50000000001606
20
55.000000000000007
30
0
40
3.3000000000000007
210
0
220
0
230
1
0
CIRCLE
5
112
100
AcDbEntity
8
CUTOUTS
100
AcDbCircle
10
-1.0658141036401503e-13
20
89.999999999999929
30
0
40
3.3000000000000003
210
0
220
0
230
1
0
LINE
5
113
100
AcDbEntity
8
PERIMETER
100
AcDbLine
10
-232.50000000000006
20
211.49999999999991
30
0
11
-232.50000000000011
21
138.49999999999997
31
0
0
ARC
5
114
100
AcDbEntity
8
PERIMETER
100
AcDbCircle
10
-230.50000000000011
20
138.49999999999997
30
0
40
1.9999999999999929
210
0
220
0
230
1
100
AcDbArc
50
180
51
270
0
LINE
5
115
100
AcDbEntity
8
PERIMETER
100
AcDbLine
10
-230.50000000000011
20
136.5
30
0
11
-202.61803398875
21
136.49999999999994
31
0
0
ARC
5
116
100
AcDbEntity
8
PERIMETER
100
AcDbCircle
10
-202.61803398875
20
134.49999999999994
30
0
40
2.0000000000000098
210
0
220
-0
230
1
100
AcDbArc
50
63.43494882292201
51
90
0
LINE
5
117
100
AcDbEntity
8
PERIMETER
100
AcDbLine
10
-201.72360679775008
20
136.28885438199978
30
0
11
-142.10557280900017
21
106.47983738762491
31
0
0
ARC
5
118
100
AcDbEntity
8
PERIMETER
100
AcDbCircle
10
-143.00000000000009
20
104.69098300562507
30
0
40
1.9999999999999929
210
0
220
0
230
1
100
AcDbArc
50
0
51
63.434948822921832
0
LINE
5
119
100
AcDbEntity
8
PERIMETER
100
AcDbLine
10
-141.00000000000009
20
104.69098300562507
30
0
11
-141.00000000000006
21
75.309016994374986
31
0
0
ARC
5
11A
100
AcDbEntity
8
PERIMETER
100
AcDbCircle
10
-143.00000000000009
20
75.309016994374986
30
0
40
2.0000000000000018
210
-0
220
0
230
1
100
AcDbArc
50
-63.434948822921861
51
0
0
LINE
5
11B
100
AcDbEntity
8
PERIMETER
100
AcDbLine
10
-142.10557280900017
20
73.520162612375159
30
0
11
-151.39442719100001
21
68.875735421375225
31
0
0
ARC
5
11C
100
AcDbEntity
8
PERIMETER
100
AcDbCircle
10
-150.50000000000009
20
67.086881039375385
30
0
40
2.0000000000000018
210
0
220
0
230
1
100
AcDbArc
50
116.56505117707799
51
180
0
LINE
5
11D
100
AcDbEntity
8
PERIMETER
100
AcDbLine
10
-152.50000000000009
20
67.086881039375399
30
0
11
-152.50000000000006
21
45.828427124746142
31
0
0
ARC
5
11E
100
AcDbEntity
8
PERIMETER
100
AcDbCircle
10
-150.50000000000003
20
45.828427124746185
30
0
40
2.0000000000000462
210
0
220
0
230
1
100
AcDbArc
50
180
51
224.99999999999957
0
LINE
5
11F
100
AcDbEntity
8
PERIMETER
100
AcDbLine
10
-151.91421356237316
20
44.414213562373071
30
0
11
-130.08578643766998
21
22.585786437668851
31
0
0
ARC
5
120
100
AcDbEntity
8
PERIMETER
100
AcDbCircle
10
-131.50000000004312
20
21.171572875295794
30
0
40
1.9999999999999929
210
-0
220
0
230
1
100
AcDbArc
50
0
51
44.999999999998337
0
LINE
5
121
100
AcDbEntity
8
PERIMETER
100
AcDbLine
10
-129.50000000004312
20
21.171572875294196
30
0
11
-129.50000000011295
21
-66.171572875369492
31
0
0
ARC
5
122
100
AcDbEntity
8
PERIMETER
100
AcDbCircle
10
-131.50000000011295
20
-66.1715728753679
30
0
40
2.0000000000000084
210
-0
220
0
230
1
100
AcDbArc
50
315.00000000000028
51
360
0
LINE
5
123
100
AcDbEntity
8
PERIMETER
100
AcDbLine
10
-130.08578643773984
20
-67.585786437740992
30
0
11
-151.91421356237311
21
-89.414213562374272
31
0
0
ARC
5
124
100
AcDbEntity
8
PERIMETER
100
AcDbCircle
10
-150.5
20
-90.828427124747407
30
0
40
2.0000000000000338
210
0
220
0
230
1
100
AcDbArc
50
134.99999999999943
51
180
0
LINE
5
125
100
AcDbEntity
8
PERIMETER
100
AcDbLine
10
-152.50000000000003
20
-90.828427124747407
30
0
11
-152.49999999999997
21
-109.17157287525538
31
0
0
ARC
5
126
100
AcDbEntity
8
PERIMETER
100
AcDbCircle
10
-150.50000000000006
20
-109.17157287525541
30
0
40
1.9999999999999218
210
0
220
0
230
1
100
AcDbArc
50
180
51
225.00000000000117
0
LINE
5
127
100
AcDbEntity
8
PERIMETER
100
AcDbLine
10
-151.91421356237305
20
-110.58578643762846
30
0
11
-130.08578643779398
21
-132.41421356220724
31
0
0
ARC
5
128
100
AcDbEntity
8
PERIMETER
100
AcDbCircle
10
-131.50000000016706
20
-133.82842712458032
30
0
40
1.9999999999999929
210
-0
220
0
230
1
100
AcDbArc
50
0
51
44.999999999999424
0
LINE
5
129
100
AcDbEntity
8
PERIMETER
100
AcDbLine
10
-129.50000000016706
20
-133.82842712458194
30
0
11
-129.50000000023292
21
-216.17157287548847
31
0
0
ARC
5
12A
100
AcDbEntity
8
PERIMETER
100
AcDbCircle
10
-131.50000000023289
20
-216.17157287548685
30
0
40
1.999999999999996
210
-0
220
0
230
1
100
AcDbArc
50
314.99999999999943
51
360
0
LINE
5
12B
100
AcDbEntity
8
PERIMETER
100
AcDbLine
10
-130.08578643785981
20
-217.58578643785995
30
0
11
-151.91421356237296
21
-239.41421356237305
31
0
0
ARC
5
12C
100
AcDbEntity
8
PERIMETER
100
AcDbCircle
10
-150.50000000000017
20
-240.82842712474601
30
0
40
1.999999999999682
210
0
220
0
230
1
100
AcDbArc
50
134.99999999999653
51
180
0
LINE
5
12D
100
AcDbEntity
8
PERIMETER
100
AcDbLine
10
-152.49999999999989
20
-240.82842712474616
30
0
11
-152.49999999999986
21
-262.0502525316943
31
0
0
ARC
5
12E
100
AcDbEntity
8
PERIMETER
100
AcDbCircle
10
-150.49999999999991
20
-262.0502525316943
30
0
40
1.9999999999999396
210
0
220
0
230
1
100
AcDbArc
50
180
51
225.00000000000173
0
LINE
5
12F
100
AcDbEntity
8
PERIMETER
100
AcDbLine
10
-151.91421356237294
20
-263.4644660940674
30
0
11
-141.58578643762672
21
-273.79289321881356
31
0
0
ARC
5
130
100
AcDbEntity
8
PERIMETER
100
AcDbCircle
10
-142.9999999999998
20
-275.20710678118667
30
0
40
1.9999999999999929
210
0
220
-0
230
1
100
AcDbArc
50
0
51
45.000000000000568
0
LINE
5
131
100
AcDbEntity
8
PERIMETER
100
AcDbLine
10
-140.99999999999983
20
-275.20710678118667
30
0
11
-140.99999999999983
21
-303.00000000000006
31
0
0
ARC
5
132
100
AcDbEntity
8
PERIMETER
100
AcDbCircle
10
-138.9999999999998
20
-303.00000000000011
30
0
40
2.0000000000000107
210
0
220
0
230
1
100
AcDbArc
50
180
51
270
0
LINE
5
133
100
AcDbEntity
8
PERIMETER
100
AcDbLine
10
-138.9999999999998
20
-305.00000000000011
30
0
11
139.00000000000003
21
-305.00000000000006
31
0
0
ARC
5
134
100
AcDbEntity
8
PERIMETER
100
AcDbCircle
10
139.00000000000003
20
-303.00000000000011
30
0
40
1.9999999999999574
210
-0
220
0
230
1
100
AcDbArc
50
-90
51
0
0
LINE
5
135
100
AcDbEntity
8
PERIMETER
100
AcDbLine
10
140.99999999999997
20
-303.00000000000006
30
0
11
141.00000000000003
21
-275.20710678118655
31
0
0
ARC
5
136
100
AcDbEntity
8
PERIMETER
100
AcDbCircle
10
143
20
-275.20710678118655
30
0
40
2.0000000000000084
210
0
220
0
230
1
100
AcDbArc
50
135
51
180
0
LINE
5
137
100
AcDbEntity
8
PERIMETER
100
AcDbLine
10
141.58578643762689
20
-273.79289321881345
30
0
11
201.29289321881345
21
-214.08578643762684
31
0
0
ARC
5
138
100
AcDbEntity
8
PERIMETER
100
AcDbCircle
10
202.70710678118655
20
-215.49999999999994
30
0
40
1.9999999999999929
210
0
220
-0
230
1
100
AcDbArc
50
90
51
135
0
LINE
5
139
100
AcDbEntity
8
PERIMETER
100
AcDbLine
10
202.70710678118655
20
-213.49999999999994
30
0
11
230.50000000000009
21
-213.49999999999994
31
0
0
ARC
5
13A
100
AcDbEntity
8
PERIMETER
100
AcDbCircle
10
230.50000000000009
20
-211.49999999999994
30
0
40
1.9999999999999929
210
-0
220
0
230
1
100
AcDbArc
50
-90
51
0
0
LINE
5
13B
100
AcDbEntity
8
PERIMETER
100
AcDbLine
10
232.50000000000006
20
-211.49999999999994
30
0
11
232.50000000000011
21
41.500000000000128
31
0
0
ARC
5
13C
100
AcDbEntity
8
PERIMETER
100
AcDbCircle
10
230.50000000000011
20
41.500000000000121
30
0
40
1.9999999999999929
210
0
220
-0
230
1
100
AcDbArc
50
0
51
90
0
LINE
5
13D
100
AcDbEntity
8
PERIMETER
100
AcDbLine
10
230.50000000000011
20
43.500000000000114
30
0
11
202.61803398875
21
43.500000000000142
31
0
0
ARC
5
13E
100
AcDbEntity
8
PERIMETER
100
AcDbCircle
10
202.61803398875
20
45.500000000000142
30
0
40
2.0000000000000018
210
0
220
0
230
1
100
AcDbArc
50
243.43494882292191
51
270
0
LINE
5
13F
100
AcDbEntity
8
PERIMETER
100
AcDbLine
10
201.72360679775008
20
43.711145618000309
30
0
11
142.10557280900014
21
73.520162612375259
31
0
0
ARC
5
140
100
AcDbEntity
8
PERIMETER
100
AcDbCircle
10
143.00000000000003
20
75.309016994375099
30
0
40
1.9999999999999929
210
0
220
0
230
1
100
AcDbArc
50
180
51
243.43494882292256
0
LINE
5
141
100
AcDbEntity
8
PERIMETER
100
AcDbLine
10
141.00000000000003
20
75.309016994375099
30
0
11
141.00000000000003
21
104.69098300562518
31
0
0
ARC
5
142
100
AcDbEntity
8
PERIMETER
100
AcDbCircle
10
143.00000000000003
20
104.69098300562518
30
0
40
1.9999999999999938
210
0
220
0
230
1
100
AcDbArc
50
116.56505117707836
51
180
0
LINE
5
143
100
AcDbEntity
8
PERIMETER
100
AcDbLine
10
142.10557280900011
20
106.47983738762503
30
0
11
201.72360679774999
21
136.28885438199995
31
0
0
ARC
5
144
100
AcDbEntity
8
PERIMETER
100
AcDbCircle
10
202.61803398874991
20
134.50000000000011
30
0
40
1.9999999999999929
210
0
220
-0
230
1
100
AcDbArc
50
90
51
116.56505117707836
0
LINE
5
145
100
AcDbEntity
8
PERIMETER
100
AcDbLine
10
202.61803398874991
20
136.50000000000011
30
0
11
230.50000000000006
21
136.50000000000011
31
0
0
ARC
5
146
100
AcDbEntity
8
PERIMETER
100
AcDbCircle
10
230.50000000000006
20
138.50000000000017
30
0
40
2.0000000000000107
210
-0
220
0
230
1
100
AcDbArc
50
270
51
360
0
LINE
5
147
100
AcDbEntity
8
PERIMETER
100
AcDbLine
10
232.50000000000003
20
138.50000000000014
30
0
11
232.49999999999997
21
211.50000000000006
31
0
0
ARC
5
148
100
AcDbEntity
8
PERIMETER
100
AcDbCircle
10
230.49999999999997
20
211.50000000000006
30
0
40
1.9999999999999929
210
0
220
-0
230
1
100
AcDbArc
50
0
51
90
0
LINE
5
149
100
AcDbEntity
8
PERIMETER
100
AcDbLine
10
230.49999999999997
20
213.50000000000009
30
0
11
202.7071067811865
21
213.50000000000009
31
0
0
ARC
5
14A
100
AcDbEntity
8
PERIMETER
100
AcDbCircle
10
202.7071067811865
20
215.50000000000006
30
0
40
1.999999999999996
210
0
220
0
230
1
100
AcDbArc
50
225.00000000000057
51
270
0
LINE
5
14B
100
AcDbEntity
8
PERIMETER
100
AcDbLine
10
201.29289321881342
20
214.08578643762695
30
0
11
141.58578643762684
21
273.7928932188135
31
0
0
ARC
5
14C
100
AcDbEntity
8
PERIMETER
100
AcDbCircle
10
142.99999999999991
20
275.20710678118655
30
0
40
1.9999999999999929
210
0
220
0
230
1
100
AcDbArc
50
180
51
224.99999999999943
0
LINE
5
14D
100
AcDbEntity
8
PERIMETER
100
AcDbLine
10
140.99999999999991
20
275.20710678118655
30
0
11
140.99999999999989
21
303
31
0
0
ARC
5
14E
100
AcDbEntity
8
PERIMETER
100
AcDbCircle
10
138.99999999999989
20
303
30
0
40
1.9999999999999929
210
0
220
-0
230
1
100
AcDbArc
50
0
51
90
0
LINE
5
14F
100
AcDbEntity
8
PERIMETER
100
AcDbLine
10
138.99999999999989
20
305
30
0
11
-139.00000000000009
21
304.99999999999983
31
0
0
ARC
5
150
100
AcDbEntity
8
PERIMETER
100
AcDbCircle
10
-139.00000000000011
20
302.99999999999983
30
0
40
1.9999999999999929
210
0
220
-0
230
1
100
AcDbArc
50
89.99999999999919
51
180
0
LINE
5
151
100
AcDbEntity
8
PERIMETER
100
AcDbLine
10
-141.00000000000011
20
302.99999999999983
30
0
11
-141.00000000000011
21
275.2071067811865
31
0
0
ARC
5
152
100
AcDbEntity
8
PERIMETER
100
AcDbCircle
10
-143.00000000000009
20
275.2071067811865
30
0
40
1.999999999999996
210
-0
220
0
230
1
100
AcDbArc
50
-45.000000000001165
51
0
0
LINE
5
153
100
AcDbEntity
8
PERIMETER
100
AcDbLine
10
-141.58578643762704
20
273.79289321881339
30
0
11
-201.29289321881356
21
214.08578643762681
31
0
0
ARC
5
154
100
AcDbEntity
8
PERIMETER
100
AcDbCircle
10
-202.70710678118664
20
215.49999999999989
30
0
40
1.9999999999999929
210
-0
220
0
230
1
100
AcDbArc
50
270
51
315
0
LINE
5
155
100
AcDbEntity
8
PERIMETER
100
AcDbLine
10
-202.70710678118664
20
213.49999999999994
30
0
11
-230.50000000000009
21
213.49999999999994
31
0
0
ARC
5
156
100
AcDbEntity
8
PERIMETER
100
AcDbCircle
10
-230.50000000000009
20
211.49999999999994
30
0
40
1.9999999999999929
210
0
220
-0
230
1
100
AcDbArc
50
90
51
180
0
ENDSEC
0
SECTION
2
OBJECTS
0
DICTIONARY
5
C
100
AcDbDictionary
3
ACAD_GROUP
350
D
3
ACAD_MLINESTYLE
350
17
0
DICTIONARY
5
D
100
AcDbDictionary
0
DICTIONARY
5
1A
330
C
100
AcDbDictionary
0
DICTIONARY
5
17
100
AcDbDictionary
0
ENDSEC
0
EOF
