0
SECTION
2
HEADER
9
$INSUNITS
70
4
9
$ACADVER
1
AC1014
9
$HANDSEED
5
FFFF
0
ENDSEC
0
SECTION
2
TABLES
0
TABLE
2
VPORT
5
8
100
AcDbSymbolTable
0
ENDTAB
0
TABLE
2
LTYPE
5
5
100
AcDbSymbolTable
70
2
0
LTYPE
5
14
100
AcDbSymbolTableRecord
100
AcDbLinetypeTableRecord
2
BYBLOCK
70
0
0
LTYPE
5
15
100
AcDbSymbolTableRecord
100
AcDbLinetypeTableRecord
2
BYLAYER
70
0
0
ENDTAB
0
TABLE
2
LAYER
5
2
100
AcDbSymbolTable
70
3
0
LAYER
5
50
100
AcDbSymbolTableRecord
100
AcDbLayerTableRecord
2
0
70
0
6
CONTINUOUS
0
LAYER
5
51
100
AcDbSymbolTableRecord
100
AcDbLayerTableRecord
2
CUTOUTS
70
0
62
1
6
CONTINUOUS
0
LAYER
5
52
100
AcDbSymbolTableRecord
100
AcDbLayerTableRecord
2
PERIMETER
70
0
62
5
6
CONTINUOUS
0
ENDTAB
0
TABLE
2
STYLE
5
3
100
AcDbSymbolTable
70
1
0
STYLE
5
11
100
AcDbSymbolTableRecord
100
AcDbTextStyleTableRecord
2
STANDARD
70
0
0
ENDTAB
0
TABLE
2
VIEW
5
6
100
AcDbSymbolTable
0
ENDTAB
0
TABLE
2
UCS
5
7
100
AcDbSymbolTable
0
ENDTAB
0
TABLE
2
APPID
5
9
100
AcDbSymbolTable
70
1
0
APPID
5
12
100
AcDbSymbolTableRecord
100
AcDbRegAppTableRecord
2
ACAD
70
0
0
ENDTAB
0
TABLE
2
DIMSTYLE
5
A
100
AcDbSymbolTable
0
ENDTAB
0
TABLE
2
BLOCK_RECORD
5
1
100
AcDbSymbolTable
70
2
0
BLOCK_RECORD
5
1F
100
AcDbSymbolTableRecord
100
AcDbBlockTableRecord
2
*MODEL_SPACE
0
BLOCK_RECORD
5
1B
100
AcDbSymbolTableRecord
100
AcDbBlockTableRecord
2
*PAPER_SPACE
0
ENDTAB
0
ENDSEC
0
SECTION
2
BLOCKS
0
BLOCK
5
20
100
AcDbEntity
100
AcDbBlockBegin
2
*MODEL_SPACE
0
ENDBLK
5
21
100
AcDbEntity
100
AcDbBlockEnd
0
BLOCK
5
1C
100
AcDbEntity
100
AcDbBlockBegin
2
*PAPER_SPACE
0
ENDBLK
5
1D
100
AcDbEntity
100
AcDbBlockEnd
0
ENDSEC
0
SECTION
2
ENTITIES
0
CIRCLE
5
100
100
AcDbEntity
8
CUTOUTS
100
AcDbCircle
10
162.49996662050094
20
61.249999999999901
30
0
40
3.2999999999999829
210
0
220
0
230
1
0
CIRCLE
5
101
100
AcDbEntity
8
CUTOUTS
100
AcDbCircle
10
162.49996662050091
20
-186.74999999997902
30
0
40
3.2999999999999829
210
0
220
0
230
1
0
CIRCLE
5
102
100
AcDbEntity
8
CUTOUTS
100
AcDbCircle
10
162.49996662050094
20
178.24999999999989
30
0
40
3.2999999999999829
210
0
220
0
230
1
0
CIRCLE
5
103
100
AcDbEntity
8
CUTOUTS
100
AcDbCircle
10
162.49996662050094
20
163.24999999999989
30
0
40
3.2999999999999829
210
0
220
0
230
1
0
CIRCLE
5
104
100
AcDbEntity
8
CUTOUTS
100
AcDbCircle
10
162.49996662050091
20
-201.74999999997902
30
0
40
3.2999999999999829
210
0
220
0
230
1
0
CIRCLE
5
105
100
AcDbEntity
8
CUTOUTS
100
AcDbCircle
10
162.49996662050094
20
-27.75000000000011
30
0
40
3.2999999999999829
210
0
220
0
230
1
0
CIRCLE
5
106
100
AcDbEntity
8
CUTOUTS
100
AcDbCircle
10
-162.49996662050103
20
61.249999999999901
30
0
40
3.3000000000000007
210
0
220
0
230
1
0
CIRCLE
5
107
100
AcDbEntity
8
CUTOUTS
100
AcDbCircle
10
-162.49996662050097
20
-186.74999999997902
30
0
40
3.3000000000000007
210
0
220
0
230
1
0
CIRCLE
5
108
100
AcDbEntity
8
CUTOUTS
100
AcDbCircle
10
-162.49996662050103
20
178.24999999999989
30
0
40
3.3000000000000007
210
0
220
0
230
1
0
CIRCLE
5
109
100
AcDbEntity
8
CUTOUTS
100
AcDbCircle
10
-162.49996662050103
20
163.24999999999989
30
0
40
3.3000000000000007
210
0
220
0
230
1
0
CIRCLE
5
10A
100
AcDbEntity
8
CUTOUTS
100
AcDbCircle
10
-162.49996662050097
20
-201.74999999997902
30
0
40
3.3000000000000007
210
0
220
0
230
1
0
CIRCLE
5
10B
100
AcDbEntity
8
CUTOUTS
100
AcDbCircle
10
-162.49996662050103
20
-27.75000000000011
30
0
40
3.3000000000000007
210
0
220
0
230
1
0
LINE
5
10C
100
AcDbEntity
8
PERIMETER
100
AcDbLine
10
-106.49996662048081
20
-293.25
30
0
11
106.49996662048109
21
-293.25
31
0
0
ARC
5
10D
100
AcDbEntity
8
PERIMETER
100
AcDbCircle
10
106.49996662048102
20
-291.24999999999994
30
0
40
2.0000000000000995
210
-0
220
0
230
1
100
AcDbArc
50
270.00000000000205
51
360
0
LINE
5
10E
100
AcDbEntity
8
PERIMETER
100
AcDbLine
10
108.49996662048112
20
-291.25
30
0
11
108.49996662048106
21
-286.95710678118655
31
0
0
ARC
5
10F
100
AcDbEntity
8
PERIMETER
100
AcDbCircle
10
110.49996662048105
20
-286.95710678118655
30
0
40
2.0000000000000084
210
0
220
0
230
1
100
AcDbArc
50
135.00000000000117
51
180
0
LINE
5
110
100
AcDbEntity
8
PERIMETER
100
AcDbLine
10
109.08575305810794
20
-285.5428932188135
30
0
11
168.79285983931459
21
-225.8357864376058
31
0
0
ARC
5
111
100
AcDbEntity
8
PERIMETER
100
AcDbCircle
10
170.20707340168767
20
-227.24999999997888
30
0
40
1.9999999999999929
210
0
220
-0
230
1
100
AcDbArc
50
90
51
135
0
LINE
5
112
100
AcDbEntity
8
PERIMETER
100
AcDbLine
10
170.20707340168767
20
-225.24999999997888
30
0
11
197.99996689219478
21
-225.24999999997891
31
0
0
ARC
5
113
100
AcDbEntity
8
PERIMETER
100
AcDbCircle
10
197.99996689219478
20
-223.24999999997891
30
0
40
1.9999999999999929
210
-0
220
0
230
1
100
AcDbArc
50
270
51
359.99999564659151
0
LINE
5
114
100
AcDbEntity
8
PERIMETER
100
AcDbLine
10
199.99996689219475
20
-223.25000015523244
30
0
11
199.99999972830642
21
199.74999984474658
31
0
0
ARC
5
115
100
AcDbEntity
8
PERIMETER
100
AcDbCircle
10
197.99999972830645
20
199.75
30
0
40
1.9999999999999991
210
-0
220
0
230
1
100
AcDbArc
50
-4.3534084942465173e-06
51
90
0
LINE
5
116
100
AcDbEntity
8
PERIMETER
100
AcDbLine
10
197.99999972830645
20
201.75000000000006
30
0
11
170.2071067811865
21
201.74999999999997
31
0
0
ARC
5
117
100
AcDbEntity
8
PERIMETER
100
AcDbCircle
10
170.2071067811865
20
203.75
30
0
40
1.999999999999996
210
0
220
0
230
1
100
AcDbArc
50
225.00000000002015
51
270
0
LINE
5
118
100
AcDbEntity
8
PERIMETER
100
AcDbLine
10
168.7928932188139
20
202.33578643762641
30
0
11
109.08578643758629
21
262.04289321881311
31
0
0
ARC
5
119
100
AcDbEntity
8
PERIMETER
100
AcDbCircle
10
110.49999999995889
20
263.45710678118667
30
0
40
1.9999999999999929
210
0
220
0
230
1
100
AcDbArc
50
180
51
225.0000000000193
0
LINE
5
11A
100
AcDbEntity
8
PERIMETER
100
AcDbLine
10
108.49999999995889
20
263.45710678118667
30
0
11
108.49999999995886
21
291.25
31
0
0
ARC
5
11B
100
AcDbEntity
8
PERIMETER
100
AcDbCircle
10
106.49999999995887
20
291.25
30
0
40
1.9999999999999751
210
0
220
-0
230
1
100
AcDbArc
50
0
51
90.000000000000398
0
LINE
5
11C
100
AcDbEntity
8
PERIMETER
100
AcDbLine
10
106.49999999995886
20
293.24999999999994
30
0
11
-106.4999999999589
21
293.24999999999989
31
0
0
ARC
5
11D
100
AcDbEntity
8
PERIMETER
100
AcDbCircle
10
-106.49999999995892
20
291.24999999999989
30
0
40
1.9999999999999929
210
0
220
-0
230
1
100
AcDbArc
50
89.999999999999588
51
180
0
LINE
5
11E
100
AcDbEntity
8
PERIMETER
100
AcDbLine
10
-108.4999999999589
20
291.24999999999994
30
0
11
-108.49999999995893
21
263.45710678118661
31
0
0
ARC
5
11F
100
AcDbEntity
8
PERIMETER
100
AcDbCircle
10
-110.49999999995892
20
263.45710678118661
30
0
40
2.0000000000000084
210
-0
220
0
230
1
100
AcDbArc
50
-45.000000000020457
51
0
0
LINE
5
120
100
AcDbEntity
8
PERIMETER
100
AcDbLine
10
-109.08578643758631
20
262.04289321881299
30
0
11
-168.7928932188139
21
202.33578643762633
31
0
0
ARC
5
121
100
AcDbEntity
8
PERIMETER
100
AcDbCircle
10
-170.20710678118647
20
203.74999999999989
30
0
40
1.9999999999999929
210
-0
220
0
230
1
100
AcDbArc
50
270
51
314.99999999997988
0
LINE
5
122
100
AcDbEntity
8
PERIMETER
100
AcDbLine
10
-170.20710678118647
20
201.74999999999989
30
0
11
-197.99999972830645
21
201.74999999999994
31
0
0
ARC
5
123
100
AcDbEntity
8
PERIMETER
100
AcDbCircle
10
-197.99999972830636
20
199.74999999999991
30
0
40
2.0000000000000284
210
0
220
0
230
1
100
AcDbArc
50
90.000000000002444
51
180.00000435340849
0
LINE
5
124
100
AcDbEntity
8
PERIMETER
100
AcDbLine
10
-199.99999972830639
20
199.7499998447465
30
0
11
-199.99996689219455
21
-223.2500001552325
31
0
0
ARC
5
125
100
AcDbEntity
8
PERIMETER
100
AcDbCircle
10
-197.99996689219455
20
-223.24999999997902
30
0
40
1.9999999999999991
210
0
220
0
230
1
100
AcDbArc
50
180.00000435340849
51
270
0
LINE
5
126
100
AcDbEntity
8
PERIMETER
100
AcDbLine
10
-197.99996689219455
20
-225.24999999997902
30
0
11
-170.20707340168752
21
-225.24999999997902
31
0
0
ARC
5
127
100
AcDbEntity
8
PERIMETER
100
AcDbCircle
10
-170.20707340168752
20
-227.24999999997902
30
0
40
1.999999999999996
210
0
220
-0
230
1
100
AcDbArc
50
45
51
90
0
LINE
5
128
100
AcDbEntity
8
PERIMETER
100
AcDbLine
10
-168.79285983931442
20
-225.83578643760592
30
0
11
-109.08575305810771
21
-285.5428932188135
31
0
0
ARC
5
129
100
AcDbEntity
8
PERIMETER
100
AcDbCircle
10
-110.49996662048079
20
-286.95710678118655
30
0
40
1.9999999999999929
210
0
220
-0
230
1
100
AcDbArc
50
0
51
44.999999999999424
0
LINE
5
12A
100
AcDbEntity
8
PERIMETER
100
AcDbLine
10
-108.49996662048079
20
-286.95710678118655
30
0
11
-108.49996662048079
21
-291.25
31
0
0
ARC
5
12B
100
AcDbEntity
8
PERIMETER
100
AcDbCircle
10
-106.49996662048075
20
-291.25
30
0
40
2.0000000000000462
210
0
220
0
230
1
100
AcDbArc
50
180
51
269.99999999999835
0
ENDSEC
0
SECTION
2
OBJECTS
0
DICTIONARY
5
C
100
AcDbDictionary
3
ACAD_GROUP
350
D
3
ACAD_MLINESTYLE
350
17
0
DICTIONARY
5
D
100
AcDbDictionary
0
DICTIONARY
5
1A
330
C
100
AcDbDictionary
0
DICTIONARY
5
17
100
AcDbDictionary
0
ENDSEC
0
EOF
