0
SECTION
2
HEADER
9
$INSUNITS
70
4
9
$ACADVER
1
AC1014
9
$HANDSEED
5
FFFF
0
ENDSEC
0
SECTION
2
TABLES
0
TABLE
2
VPORT
5
8
100
AcDbSymbolTable
0
ENDTAB
0
TABLE
2
LTYPE
5
5
100
AcDbSymbolTable
70
2
0
LTYPE
5
14
100
AcDbSymbolTableRecord
100
AcDbLinetypeTableRecord
2
BYBLOCK
70
0
0
LTYPE
5
15
100
AcDbSymbolTableRecord
100
AcDbLinetypeTableRecord
2
BYLAYER
70
0
0
ENDTAB
0
TABLE
2
LAYER
5
2
100
AcDbSymbolTable
70
3
0
LAYER
5
50
100
AcDbSymbolTableRecord
100
AcDbLayerTableRecord
2
0
70
0
6
CONTINUOUS
0
LAYER
5
51
100
AcDbSymbolTableRecord
100
AcDbLayerTableRecord
2
CUTOUTS
70
0
62
1
6
CONTINUOUS
0
LAYER
5
52
100
AcDbSymbolTableRecord
100
AcDbLayerTableRecord
2
PERIMETER
70
0
62
5
6
CONTINUOUS
0
ENDTAB
0
TABLE
2
STYLE
5
3
100
AcDbSymbolTable
70
1
0
STYLE
5
11
100
AcDbSymbolTableRecord
100
AcDbTextStyleTableRecord
2
STANDARD
70
0
0
ENDTAB
0
TABLE
2
VIEW
5
6
100
AcDbSymbolTable
0
ENDTAB
0
TABLE
2
UCS
5
7
100
AcDbSymbolTable
0
ENDTAB
0
TABLE
2
APPID
5
9
100
AcDbSymbolTable
70
1
0
APPID
5
12
100
AcDbSymbolTableRecord
100
AcDbRegAppTableRecord
2
ACAD
70
0
0
ENDTAB
0
TABLE
2
DIMSTYLE
5
A
100
AcDbSymbolTable
0
ENDTAB
0
TABLE
2
BLOCK_RECORD
5
1
100
AcDbSymbolTable
70
2
0
BLOCK_RECORD
5
1F
100
AcDbSymbolTableRecord
100
AcDbBlockTableRecord
2
*MODEL_SPACE
0
BLOCK_RECORD
5
1B
100
AcDbSymbolTableRecord
100
AcDbBlockTableRecord
2
*PAPER_SPACE
0
ENDTAB
0
ENDSEC
0
SECTION
2
BLOCKS
0
BLOCK
5
20
100
AcDbEntity
100
AcDbBlockBegin
2
*MODEL_SPACE
0
ENDBLK
5
21
100
AcDbEntity
100
AcDbBlockEnd
0
BLOCK
5
1C
100
AcDbEntity
100
AcDbBlockBegin
2
*PAPER_SPACE
0
ENDBLK
5
1D
100
AcDbEntity
100
AcDbBlockEnd
0
ENDSEC
0
SECTION
2
ENTITIES
0
CIRCLE
5
100
100
AcDbEntity
8
CUTOUTS
100
AcDbCircle
10
-4.2188474935755949e-14
20
-179
30
0
40
3.3000000000000003
210
0
220
0
230
1
0
CIRCLE
5
101
100
AcDbEntity
8
CUTOUTS
100
AcDbCircle
10
184.99999999999997
20
7.9999999999999467
30
0
40
3.2999999999999829
210
0
220
0
230
1
0
CIRCLE
5
102
100
AcDbEntity
8
CUTOUTS
100
AcDbCircle
10
102.9999999999999
20
-179
30
0
40
3.3000000000000007
210
0
220
0
230
1
0
CIRCLE
5
103
100
AcDbEntity
8
CUTOUTS
100
AcDbCircle
10
-185.00000000000003
20
-97.000000000000057
30
0
40
3.2999999999999829
210
0
220
0
230
1
0
CIRCLE
5
104
100
AcDbEntity
8
CUTOUTS
100
AcDbCircle
10
-185.00000000000003
20
112.99999999999997
30
0
40
3.2999999999999829
210
0
220
0
230
1
0
CIRCLE
5
105
100
AcDbEntity
8
CUTOUTS
100
AcDbCircle
10
65.999999999999929
20
178.99999999999994
30
0
40
3.3000000000000007
210
0
220
0
230
1
0
CIRCLE
5
106
100
AcDbEntity
8
CUTOUTS
100
AcDbCircle
10
-118.99999999999999
20
179
30
0
40
3.3000000000000007
210
0
220
0
230
1
0
CIRCLE
5
107
100
AcDbEntity
8
CUTOUTS
100
AcDbCircle
10
-53.00000000000005
20
178.99999999999994
30
0
40
3.3000000000000007
210
0
220
0
230
1
0
CIRCLE
5
108
100
AcDbEntity
8
CUTOUTS
100
AcDbCircle
10
118.99999999999999
20
178.99999999999994
30
0
40
3.3000000000000007
210
0
220
0
230
1
0
CIRCLE
5
109
100
AcDbEntity
8
CUTOUTS
100
AcDbCircle
10
-185.00000000000003
20
7.9999999999999716
30
0
40
3.2999999999999829
210
0
220
0
230
1
0
CIRCLE
5
10A
100
AcDbEntity
8
CUTOUTS
100
AcDbCircle
10
-103
20
-179
30
0
40
3.3000000000000007
210
0
220
0
230
1
0
CIRCLE
5
10B
100
AcDbEntity
8
CUTOUTS
100
AcDbCircle
10
184.99999999999997
20
-97.000000000000099
30
0
40
3.2999999999999829
210
0
220
0
230
1
0
CIRCLE
5
10C
100
AcDbEntity
8
CUTOUTS
100
AcDbCircle
10
184.99999999999997
20
112.99999999999996
30
0
40
3.2999999999999829
210
0
220
0
230
1
0
LINE
5
10D
100
AcDbEntity
8
PERIMETER
100
AcDbLine
10
-199.00000000000003
20
124.99999999999999
30
0
11
-199.00000000000006
21
-109
31
0
0
ARC
5
10E
100
AcDbEntity
8
PERIMETER
100
AcDbCircle
10
-197.00000000000006
20
-109.00000000000003
30
0
40
1.9999999999999929
210
0
220
0
230
1
100
AcDbArc
50
180
51
269.99999999999835
0
LINE
5
10F
100
AcDbEntity
8
PERIMETER
100
AcDbLine
10
-197.00000000000006
20
-111.00000000000001
30
0
11
-125.00000000000006
21
-111.00000000000001
31
0
0
LINE
5
110
100
AcDbEntity
8
PERIMETER
100
AcDbLine
10
-125.00000000000006
20
-111.00000000000001
30
0
11
-117.00000000000004
21
-119.00000000000003
31
0
0
LINE
5
111
100
AcDbEntity
8
PERIMETER
100
AcDbLine
10
-117.00000000000004
20
-119.00000000000003
30
0
11
-117.00000000000004
21
-190.99999999999994
31
0
0
ARC
5
112
100
AcDbEntity
8
PERIMETER
100
AcDbCircle
10
-115.00000000000007
20
-190.99999999999994
30
0
40
1.9999999999999751
210
0
220
0
230
1
100
AcDbArc
50
180
51
270.0000000000004
0
LINE
5
113
100
AcDbEntity
8
PERIMETER
100
AcDbLine
10
-115.00000000000006
20
-192.99999999999989
30
0
11
114.99999999999991
21
-192.99999999999997
31
0
0
ARC
5
114
100
AcDbEntity
8
PERIMETER
100
AcDbCircle
10
114.99999999999993
20
-191
30
0
40
1.9999999999999574
210
0
220
0
230
1
100
AcDbArc
50
-90.000000000000398
51
0
0
LINE
5
115
100
AcDbEntity
8
PERIMETER
100
AcDbLine
10
116.99999999999989
20
-191
30
0
11
116.99999999999991
21
-118.99999999999993
31
0
0
LINE
5
116
100
AcDbEntity
8
PERIMETER
100
AcDbLine
10
116.99999999999991
20
-118.99999999999993
30
0
11
124.99999999999993
21
-110.99999999999993
31
0
0
LINE
5
117
100
AcDbEntity
8
PERIMETER
100
AcDbLine
10
124.99999999999993
20
-110.99999999999993
30
0
11
196.99999999999994
21
-110.99999999999993
31
0
0
ARC
5
118
100
AcDbEntity
8
PERIMETER
100
AcDbCircle
10
196.99999999999994
20
-108.99999999999993
30
0
40
1.9999999999999929
210
-0
220
0
230
1
100
AcDbArc
50
-90
51
0
0
LINE
5
119
100
AcDbEntity
8
PERIMETER
100
AcDbLine
10
198.99999999999994
20
-108.99999999999993
30
0
11
199
21
124.99999999999991
31
0
0
ARC
5
11A
100
AcDbEntity
8
PERIMETER
100
AcDbCircle
10
197
20
124.99999999999993
30
0
40
1.9999999999999929
210
-0
220
0
230
1
100
AcDbArc
50
0
51
89.99999999999919
0
LINE
5
11B
100
AcDbEntity
8
PERIMETER
100
AcDbLine
10
197
20
126.99999999999991
30
0
11
172
21
126.99999999999994
31
0
0
ARC
5
11C
100
AcDbEntity
8
PERIMETER
100
AcDbCircle
10
172
20
128.99999999999994
30
0
40
1.9999999999999929
210
0
220
0
230
1
100
AcDbArc
50
180
51
270
0
LINE
5
11D
100
AcDbEntity
8
PERIMETER
100
AcDbLine
10
170
20
128.99999999999994
30
0
11
170
21
161.99999999999994
31
0
0
ARC
5
11E
100
AcDbEntity
8
PERIMETER
100
AcDbCircle
10
168.00000000000006
20
162
30
0
40
1.9999999999999574
210
-0
220
0
230
1
100
AcDbArc
50
0
51
90.000000000001634
0
LINE
5
11F
100
AcDbEntity
8
PERIMETER
100
AcDbLine
10
168
20
163.99999999999994
30
0
11
134.99999999999994
21
164
31
0
0
ARC
5
120
100
AcDbEntity
8
PERIMETER
100
AcDbCircle
10
134.99999999999994
20
165.99999999999997
30
0
40
1.9999999999999929
210
0
220
0
230
1
100
AcDbArc
50
180
51
270
0
LINE
5
121
100
AcDbEntity
8
PERIMETER
100
AcDbLine
10
132.99999999999994
20
165.99999999999997
30
0
11
132.99999999999997
21
190.99999999999997
31
0
0
ARC
5
122
100
AcDbEntity
8
PERIMETER
100
AcDbCircle
10
130.99999999999997
20
190.99999999999997
30
0
40
1.9999999999999929
210
0
220
-0
230
1
100
AcDbArc
50
0
51
90
0
LINE
5
123
100
AcDbEntity
8
PERIMETER
100
AcDbLine
10
130.99999999999997
20
192.99999999999997
30
0
11
53.999999999999922
21
192.99999999999997
31
0
0
ARC
5
124
100
AcDbEntity
8
PERIMETER
100
AcDbCircle
10
53.999999999999929
20
190.99999999999997
30
0
40
1.9999999999999929
210
0
220
0
230
1
100
AcDbArc
50
90.000000000000199
51
180
0
LINE
5
125
100
AcDbEntity
8
PERIMETER
100
AcDbLine
10
51.999999999999943
20
190.99999999999997
30
0
11
51.999999999999901
21
165.99999999999991
31
0
0
ARC
5
126
100
AcDbEntity
8
PERIMETER
100
AcDbCircle
10
49.999999999999901
20
165.99999999999991
30
0
40
1.9999999999999929
210
-0
220
0
230
1
100
AcDbArc
50
-89.999999999999588
51
0
0
LINE
5
127
100
AcDbEntity
8
PERIMETER
100
AcDbLine
10
49.999999999999915
20
163.99999999999991
30
0
11
40.999999999999915
21
163.99999999999991
31
0
0
ARC
5
128
100
AcDbEntity
8
PERIMETER
100
AcDbCircle
10
40.999999999999929
20
161.99999999999991
30
0
40
1.9999999999999929
210
0
220
0
230
1
100
AcDbArc
50
90.000000000000398
51
180
0
LINE
5
129
100
AcDbEntity
8
PERIMETER
100
AcDbLine
10
38.999999999999929
20
161.99999999999991
30
0
11
38.999999999999929
21
106.99999999999997
31
0
0
LINE
5
12A
100
AcDbEntity
8
PERIMETER
100
AcDbLine
10
38.999999999999929
20
106.99999999999997
30
0
11
31.999999999999936
21
99.999999999999986
31
0
0
LINE
5
12B
100
AcDbEntity
8
PERIMETER
100
AcDbLine
10
31.999999999999936
20
99.999999999999986
30
0
11
-32.000000000000071
21
99.999999999999986
31
0
0
LINE
5
12C
100
AcDbEntity
8
PERIMETER
100
AcDbLine
10
-32.000000000000071
20
99.999999999999986
30
0
11
-39.000000000000071
21
106.99999999999997
31
0
0
LINE
5
12D
100
AcDbEntity
8
PERIMETER
100
AcDbLine
10
-39.000000000000071
20
106.99999999999997
30
0
11
-39.000000000000078
21
190.99999999999994
31
0
0
ARC
5
12E
100
AcDbEntity
8
PERIMETER
100
AcDbCircle
10
-41.000000000000071
20
190.99999999999994
30
0
40
1.9999999999999885
210
0
220
-0
230
1
100
AcDbArc
50
0
51
90.000000000000199
0
LINE
5
12F
100
AcDbEntity
8
PERIMETER
100
AcDbLine
10
-41.000000000000078
20
192.99999999999994
30
0
11
-131.00000000000009
21
192.99999999999997
31
0
0
ARC
5
130
100
AcDbEntity
8
PERIMETER
100
AcDbCircle
10
-131.00000000000006
20
190.99999999999997
30
0
40
1.9999999999999929
210
0
220
0
230
1
100
AcDbArc
50
90.00000000000081
51
180
0
LINE
5
131
100
AcDbEntity
8
PERIMETER
100
AcDbLine
10
-133.00000000000006
20
191
30
0
11
-133.00000000000006
21
166
31
0
0
ARC
5
132
100
AcDbEntity
8
PERIMETER
100
AcDbCircle
10
-135.00000000000006
20
166
30
0
40
1.9999999999999929
210
-0
220
0
230
1
100
AcDbArc
50
-90
51
0
0
LINE
5
133
100
AcDbEntity
8
PERIMETER
100
AcDbLine
10
-135.00000000000006
20
164.00000000000003
30
0
11
-168.00000000000006
21
164.00000000000003
31
0
0
ARC
5
134
100
AcDbEntity
8
PERIMETER
100
AcDbCircle
10
-168.00000000000006
20
162.00000000000003
30
0
40
1.9999999999999929
210
0
220
-0
230
1
100
AcDbArc
50
90
51
180
0
LINE
5
135
100
AcDbEntity
8
PERIMETER
100
AcDbLine
10
-170.00000000000003
20
162.00000000000003
30
0
11
-170.00000000000003
21
128.99999999999997
31
0
0
ARC
5
136
100
AcDbEntity
8
PERIMETER
100
AcDbCircle
10
-172.00000000000003
20
128.99999999999997
30
0
40
1.9999999999999929
210
-0
220
0
230
1
100
AcDbArc
50
-90
51
0
0
LINE
5
137
100
AcDbEntity
8
PERIMETER
100
AcDbLine
10
-172.00000000000003
20
126.99999999999997
30
0
11
-197.00000000000003
21
126.99999999999997
31
0
0
ARC
5
138
100
AcDbEntity
8
PERIMETER
100
AcDbCircle
10
-197.00000000000003
20
124.99999999999999
30
0
40
1.9999999999999929
210
0
220
-0
230
1
100
AcDbArc
50
90
51
180
0
ENDSEC
0
SECTION
2
OBJECTS
0
DICTIONARY
5
C
100
AcDbDictionary
3
ACAD_GROUP
350
D
3
ACAD_MLINESTYLE
350
17
0
DICTIONARY
5
D
100
AcDbDictionary
0
DICTIONARY
5
1A
330
C
100
AcDbDictionary
0
DICTIONARY
5
17
100
AcDbDictionary
0
ENDSEC
0
EOF
