0
SECTION
2
HEADER
9
$INSUNITS
70
4
9
$ACADVER
1
AC1014
9
$HANDSEED
5
FFFF
0
ENDSEC
0
SECTION
2
TABLES
0
TABLE
2
VPORT
5
8
100
AcDbSymbolTable
0
ENDTAB
0
TABLE
2
LTYPE
5
5
100
AcDbSymbolTable
70
2
0
LTYPE
5
14
100
AcDbSymbolTableRecord
100
AcDbLinetypeTableRecord
2
BYBLOCK
70
0
0
LTYPE
5
15
100
AcDbSymbolTableRecord
100
AcDbLinetypeTableRecord
2
BYLAYER
70
0
0
ENDTAB
0
TABLE
2
LAYER
5
2
100
AcDbSymbolTable
70
3
0
LAYER
5
50
100
AcDbSymbolTableRecord
100
AcDbLayerTableRecord
2
0
70
0
6
CONTINUOUS
0
LAYER
5
51
100
AcDbSymbolTableRecord
100
AcDbLayerTableRecord
2
CUTOUTS
70
0
62
1
6
CONTINUOUS
0
LAYER
5
52
100
AcDbSymbolTableRecord
100
AcDbLayerTableRecord
2
PERIMETER
70
0
62
5
6
CONTINUOUS
0
ENDTAB
0
TABLE
2
STYLE
5
3
100
AcDbSymbolTable
70
1
0
STYLE
5
11
100
AcDbSymbolTableRecord
100
AcDbTextStyleTableRecord
2
STANDARD
70
0
0
ENDTAB
0
TABLE
2
VIEW
5
6
100
AcDbSymbolTable
0
ENDTAB
0
TABLE
2
UCS
5
7
100
AcDbSymbolTable
0
ENDTAB
0
TABLE
2
APPID
5
9
100
AcDbSymbolTable
70
1
0
APPID
5
12
100
AcDbSymbolTableRecord
100
AcDbRegAppTableRecord
2
ACAD
70
0
0
ENDTAB
0
TABLE
2
DIMSTYLE
5
A
100
AcDbSymbolTable
0
ENDTAB
0
TABLE
2
BLOCK_RECORD
5
1
100
AcDbSymbolTable
70
2
0
BLOCK_RECORD
5
1F
100
AcDbSymbolTableRecord
100
AcDbBlockTableRecord
2
*MODEL_SPACE
0
BLOCK_RECORD
5
1B
100
AcDbSymbolTableRecord
100
AcDbBlockTableRecord
2
*PAPER_SPACE
0
ENDTAB
0
ENDSEC
0
SECTION
2
BLOCKS
0
BLOCK
5
20
100
AcDbEntity
100
AcDbBlockBegin
2
*MODEL_SPACE
0
ENDBLK
5
21
100
AcDbEntity
100
AcDbBlockEnd
0
BLOCK
5
1C
100
AcDbEntity
100
AcDbBlockBegin
2
*PAPER_SPACE
0
ENDBLK
5
1D
100
AcDbEntity
100
AcDbBlockEnd
0
ENDSEC
0
SECTION
2
ENTITIES
0
CIRCLE
5
100
100
AcDbEntity
8
CUTOUTS
100
AcDbCircle
10
87.5
20
192.37499999999986
30
0
40
3.3000000000000007
210
0
220
0
230
1
0
CIRCLE
5
101
100
AcDbEntity
8
CUTOUTS
100
AcDbCircle
10
-167.5
20
192.37499999999983
30
0
40
3.2999999999999829
210
0
220
0
230
1
0
CIRCLE
5
102
100
AcDbEntity
8
CUTOUTS
100
AcDbCircle
10
-180.50000000000017
20
2.3749999999984084
30
0
40
3.2999999999999829
210
0
220
0
230
1
0
CIRCLE
5
103
100
AcDbEntity
8
CUTOUTS
100
AcDbCircle
10
-167.5
20
-187.62500000000003
30
0
40
3.2999999999999829
210
0
220
0
230
1
0
CIRCLE
5
104
100
AcDbEntity
8
CUTOUTS
100
AcDbCircle
10
87.499999999999986
20
-187.62500000000003
30
0
40
3.3000000000000007
210
0
220
0
230
1
0
CIRCLE
5
105
100
AcDbEntity
8
CUTOUTS
100
AcDbCircle
10
177.49999999999994
20
17.374999999999794
30
0
40
3.2999999999999829
210
0
220
0
230
1
0
CIRCLE
5
106
100
AcDbEntity
8
CUTOUTS
100
AcDbCircle
10
177.5
20
132.37499999999969
30
0
40
3.2999999999999829
210
0
220
0
230
1
0
CIRCLE
5
107
100
AcDbEntity
8
CUTOUTS
100
AcDbCircle
10
177.49999999999977
20
-97.625000000000028
30
0
40
3.2999999999999829
210
0
220
0
230
1
0
CIRCLE
5
108
100
AcDbEntity
8
CUTOUTS
100
AcDbCircle
10
-40.000000000000178
20
-187.62500000000003
30
0
40
3.3000000000000007
210
0
220
0
230
1
0
CIRCLE
5
109
100
AcDbEntity
8
CUTOUTS
100
AcDbCircle
10
-180.50000000000026
20
-147.62500000000045
30
0
40
3.2999999999999829
210
0
220
0
230
1
0
CIRCLE
5
10A
100
AcDbEntity
8
CUTOUTS
100
AcDbCircle
10
-180.50000000000006
20
157.3749999999998
30
0
40
3.2999999999999829
210
0
220
0
230
1
0
CIRCLE
5
10B
100
AcDbEntity
8
CUTOUTS
100
AcDbCircle
10
-40.000000000000014
20
192.37499999999997
30
0
40
3.3000000000000007
210
0
220
0
230
1
0
LINE
5
10C
100
AcDbEntity
8
PERIMETER
100
AcDbLine
10
-170.08578643750292
20
34.789213562495519
30
0
11
-191.91421356237299
21
12.960786437625309
31
0
0
ARC
5
10D
100
AcDbEntity
8
PERIMETER
100
AcDbCircle
10
-190.49999999999983
20
11.546572875252217
30
0
40
2.0000000000000715
210
0
220
0
230
1
100
AcDbArc
50
135.00000000000205
51
180
0
LINE
5
10E
100
AcDbEntity
8
PERIMETER
100
AcDbLine
10
-192.49999999999986
20
11.546572875252217
30
0
11
-192.49999999999986
21
-6.7965728752554
31
0
0
ARC
5
10F
100
AcDbEntity
8
PERIMETER
100
AcDbCircle
10
-190.49999999999983
20
-6.7965728752554
30
0
40
2.0000000000000284
210
0
220
0
230
1
100
AcDbArc
50
180
51
224.99999999999855
0
LINE
5
110
100
AcDbEntity
8
PERIMETER
100
AcDbLine
10
-191.91421356237299
20
-8.2107864376284923
30
0
11
-170.08578643750292
21
-30.039213562498617
31
0
0
ARC
5
111
100
AcDbEntity
8
PERIMETER
100
AcDbCircle
10
-171.499999999876
20
-31.453427124871709
30
0
40
1.9999999999999929
210
0
220
-0
230
1
100
AcDbArc
50
0
51
45.000000000000355
0
LINE
5
112
100
AcDbEntity
8
PERIMETER
100
AcDbLine
10
-169.49999999987602
20
-31.453427124871709
30
0
11
-169.49999999987602
21
-113.79657287513048
31
0
0
ARC
5
113
100
AcDbEntity
8
PERIMETER
100
AcDbCircle
10
-171.499999999876
20
-113.79657287513048
30
0
40
1.999999999999996
210
-0
220
0
230
1
100
AcDbArc
50
-45.000000000000306
51
0
0
LINE
5
114
100
AcDbEntity
8
PERIMETER
100
AcDbLine
10
-170.08578643750292
20
-115.21078643750357
30
0
11
-191.91421356237288
21
-137.03921356237339
31
0
0
ARC
5
115
100
AcDbEntity
8
PERIMETER
100
AcDbCircle
10
-190.49999999999997
20
-138.45342712474638
30
0
40
1.9999999999998201
210
0
220
0
230
1
100
AcDbArc
50
134.99999999999827
51
180
0
LINE
5
116
100
AcDbEntity
8
PERIMETER
100
AcDbLine
10
-192.49999999999977
20
-138.45342712474647
30
0
11
-192.49999999999977
21
-159.67525253169464
31
0
0
ARC
5
117
100
AcDbEntity
8
PERIMETER
100
AcDbCircle
10
-190.50000000000014
20
-159.67525253169475
30
0
40
1.9999999999996376
210
0
220
0
230
1
100
AcDbArc
50
180
51
225.00000000000347
0
LINE
5
118
100
AcDbEntity
8
PERIMETER
100
AcDbLine
10
-191.91421356237294
20
-161.08946609406772
30
0
11
-181.58578643762718
21
-171.41789321881356
31
0
0
ARC
5
119
100
AcDbEntity
8
PERIMETER
100
AcDbCircle
10
-183.00000000000023
20
-172.83210678118664
30
0
40
1.9999999999999929
210
0
220
-0
230
1
100
AcDbArc
50
0
51
44.999999999999424
0
LINE
5
11A
100
AcDbEntity
8
PERIMETER
100
AcDbLine
10
-181.00000000000023
20
-172.83210678118664
30
0
11
-181.00000000000017
21
-200.625
31
0
0
ARC
5
11B
100
AcDbEntity
8
PERIMETER
100
AcDbCircle
10
-179.00000000000011
20
-200.62500000000006
30
0
40
2.0000000000000284
210
0
220
0
230
1
100
AcDbArc
50
180
51
270
0
LINE
5
11C
100
AcDbEntity
8
PERIMETER
100
AcDbLine
10
-179.00000000000011
20
-202.62500000000011
30
0
11
98.999999999999844
21
-202.62500000000003
31
0
0
ARC
5
11D
100
AcDbEntity
8
PERIMETER
100
AcDbCircle
10
98.999999999999829
20
-200.62500000000006
30
0
40
1.9999999999999574
210
-0
220
0
230
1
100
AcDbArc
50
-90
51
0
0
LINE
5
11E
100
AcDbEntity
8
PERIMETER
100
AcDbLine
10
100.99999999999979
20
-200.625
30
0
11
100.99999999999983
21
-172.8321067811865
31
0
0
ARC
5
11F
100
AcDbEntity
8
PERIMETER
100
AcDbCircle
10
102.99999999999983
20
-172.8321067811865
30
0
40
1.999999999999996
210
0
220
0
230
1
100
AcDbArc
50
134.99999999999972
51
180
0
LINE
5
120
100
AcDbEntity
8
PERIMETER
100
AcDbLine
10
101.58578643762674
20
-171.41789321881339
30
0
11
161.29289321881322
21
-111.71078643762709
31
0
0
ARC
5
121
100
AcDbEntity
8
PERIMETER
100
AcDbCircle
10
162.70710678118633
20
-113.12500000000017
30
0
40
1.9999999999999929
210
0
220
-0
230
1
100
AcDbArc
50
90
51
135.0000000000006
0
LINE
5
122
100
AcDbEntity
8
PERIMETER
100
AcDbLine
10
162.70710678118633
20
-111.12500000000018
30
0
11
190.49999999999986
21
-111.12500000000009
31
0
0
ARC
5
123
100
AcDbEntity
8
PERIMETER
100
AcDbCircle
10
190.49999999999983
20
-109.12500000000009
30
0
40
1.9999999999999929
210
-0
220
0
230
1
100
AcDbArc
50
-90
51
0
0
LINE
5
124
100
AcDbEntity
8
PERIMETER
100
AcDbLine
10
192.49999999999986
20
-109.12500000000009
30
0
11
192.5
21
143.87499999999966
31
0
0
ARC
5
125
100
AcDbEntity
8
PERIMETER
100
AcDbCircle
10
190.49999999999997
20
143.87499999999966
30
0
40
2.0000000000000284
210
0
220
0
230
1
100
AcDbArc
50
0
51
89.99999999999919
0
LINE
5
126
100
AcDbEntity
8
PERIMETER
100
AcDbLine
10
190.49999999999997
20
145.87499999999972
30
0
11
162.61803398874986
21
145.87499999999972
31
0
0
ARC
5
127
100
AcDbEntity
8
PERIMETER
100
AcDbCircle
10
162.61803398874989
20
147.87499999999972
30
0
40
1.9999999999999938
210
0
220
0
230
1
100
AcDbArc
50
243.43494882292202
51
270
0
LINE
5
128
100
AcDbEntity
8
PERIMETER
100
AcDbLine
10
161.72360679774997
20
146.08614561799988
30
0
11
102.10557280900008
21
175.89516261237497
31
0
0
ARC
5
129
100
AcDbEntity
8
PERIMETER
100
AcDbCircle
10
102.99999999999999
20
177.68401699437482
30
0
40
1.9999999999999929
210
0
220
0
230
1
100
AcDbArc
50
180
51
243.43494882292202
0
LINE
5
12A
100
AcDbEntity
8
PERIMETER
100
AcDbLine
10
101
20
177.68401699437482
30
0
11
101
21
200.62499999999989
31
0
0
ARC
5
12B
100
AcDbEntity
8
PERIMETER
100
AcDbCircle
10
99
20
200.62499999999989
30
0
40
1.9999999999999929
210
-0
220
0
230
1
100
AcDbArc
50
0
51
90
0
LINE
5
12C
100
AcDbEntity
8
PERIMETER
100
AcDbLine
10
99
20
202.62499999999989
30
0
11
78.639087296526142
21
202.62499999999989
31
0
0
ARC
5
12D
100
AcDbEntity
8
PERIMETER
100
AcDbCircle
10
78.639087296526142
20
200.62499999999989
30
0
40
1.9999999999999929
210
0
220
-0
230
1
100
AcDbArc
50
90
51
135.00000000000085
0
LINE
5
12E
100
AcDbEntity
8
PERIMETER
100
AcDbLine
10
77.22487373415305
20
202.03921356237294
30
0
11
56.396446609406908
21
181.21078643762689
31
0
0
ARC
5
12F
100
AcDbEntity
8
PERIMETER
100
AcDbCircle
10
54.982233047033816
20
182.62500000000003
30
0
40
1.9999999999999929
210
-0
220
0
230
1
100
AcDbArc
50
270
51
315.00000000000028
0
LINE
5
130
100
AcDbEntity
8
PERIMETER
100
AcDbLine
10
54.982233047033816
20
180.62500000000003
30
0
11
-7.4822330470335796
21
180.62500000000006
31
0
0
ARC
5
131
100
AcDbEntity
8
PERIMETER
100
AcDbCircle
10
-7.4822330470335796
20
182.62500000000006
30
0
40
1.999999999999996
210
0
220
0
230
1
100
AcDbArc
50
224.99999999999972
51
270
0
LINE
5
132
100
AcDbEntity
8
PERIMETER
100
AcDbLine
10
-8.8964466094066719
20
181.21078643762695
30
0
11
-29.724873734152855
21
202.03921356237313
31
0
0
ARC
5
133
100
AcDbEntity
8
PERIMETER
100
AcDbCircle
10
-31.139087296525958
20
200.62500000000006
30
0
40
2.0000000000000022
210
0
220
-0
230
1
100
AcDbArc
50
45.000000000000071
51
90.000000000000099
0
LINE
5
134
100
AcDbEntity
8
PERIMETER
100
AcDbLine
10
-31.139087296525961
20
202.62500000000006
30
0
11
-48.860912703473936
21
202.62500000000006
31
0
0
ARC
5
135
100
AcDbEntity
8
PERIMETER
100
AcDbCircle
10
-48.860912703473936
20
200.62500000000006
30
0
40
1.9999999999999929
210
0
220
-0
230
1
100
AcDbArc
50
90
51
134.99999999999986
0
LINE
5
136
100
AcDbEntity
8
PERIMETER
100
AcDbLine
10
-50.275126265847035
20
202.03921356237316
30
0
11
-71.103553390593447
21
181.21078643762675
31
0
0
ARC
5
137
100
AcDbEntity
8
PERIMETER
100
AcDbCircle
10
-72.517766952966525
20
182.62499999999986
30
0
40
1.9999999999999929
210
-0
220
0
230
1
100
AcDbArc
50
270
51
314.99999999999972
0
LINE
5
138
100
AcDbEntity
8
PERIMETER
100
AcDbLine
10
-72.517766952966525
20
180.62499999999986
30
0
11
-134.98223304703367
21
180.62499999999986
31
0
0
ARC
5
139
100
AcDbEntity
8
PERIMETER
100
AcDbCircle
10
-134.98223304703367
20
182.62499999999986
30
0
40
2.0000000000000084
210
0
220
0
230
1
100
AcDbArc
50
225
51
270
0
LINE
5
13A
100
AcDbEntity
8
PERIMETER
100
AcDbLine
10
-136.39644660940678
20
181.21078643762675
30
0
11
-157.22487373415294
21
202.03921356237294
31
0
0
ARC
5
13B
100
AcDbEntity
8
PERIMETER
100
AcDbCircle
10
-158.63908729652601
20
200.62499999999983
30
0
40
2.0000000000000084
210
0
220
-0
230
1
100
AcDbArc
50
45.000000000000568
51
90
0
LINE
5
13C
100
AcDbEntity
8
PERIMETER
100
AcDbLine
10
-158.63908729652601
20
202.62499999999983
30
0
11
-179.00000000000006
21
202.62499999999983
31
0
0
ARC
5
13D
100
AcDbEntity
8
PERIMETER
100
AcDbCircle
10
-179.00000000000006
20
200.62499999999983
30
0
40
1.9999999999999929
210
0
220
-0
230
1
100
AcDbArc
50
90
51
180
0
LINE
5
13E
100
AcDbEntity
8
PERIMETER
100
AcDbLine
10
-181
20
200.62499999999983
30
0
11
-181
21
177.68401699437476
31
0
0
ARC
5
13F
100
AcDbEntity
8
PERIMETER
100
AcDbCircle
10
-183
20
177.68401699437476
30
0
40
2.0000000000000098
210
-0
220
0
230
1
100
AcDbArc
50
-63.43494882292201
51
0
0
LINE
5
140
100
AcDbEntity
8
PERIMETER
100
AcDbLine
10
-182.10557280900008
20
175.89516261237495
30
0
11
-191.39442719099989
21
171.25073542137503
31
0
0
ARC
5
141
100
AcDbEntity
8
PERIMETER
100
AcDbCircle
10
-190.50000000000006
20
169.46188103937521
30
0
40
1.999999999999962
210
0
220
0
230
1
100
AcDbArc
50
116.5650511770769
51
180
0
LINE
5
142
100
AcDbEntity
8
PERIMETER
100
AcDbLine
10
-192.5
20
169.46188103937519
30
0
11
-192.5
21
148.20342712474601
31
0
0
ARC
5
143
100
AcDbEntity
8
PERIMETER
100
AcDbCircle
10
-190.49999999999997
20
148.20342712474599
30
0
40
1.9999999999999929
210
0
220
0
230
1
100
AcDbArc
50
180
51
224.99999999999827
0
LINE
5
144
100
AcDbEntity
8
PERIMETER
100
AcDbLine
10
-191.91421356237313
20
146.78921356237296
30
0
11
-170.08578643750292
21
124.96078643750124
31
0
0
ARC
5
145
100
AcDbEntity
8
PERIMETER
100
AcDbCircle
10
-171.499999999876
20
123.54657287512821
30
0
40
1.9999999999999929
210
0
220
-0
230
1
100
AcDbArc
50
0
51
44.999999999997982
0
LINE
5
146
100
AcDbEntity
8
PERIMETER
100
AcDbLine
10
-169.49999999987602
20
123.54657287512821
30
0
11
-169.49999999987602
21
36.203427124868611
31
0
0
ARC
5
147
100
AcDbEntity
8
PERIMETER
100
AcDbCircle
10
-171.499999999876
20
36.203427124868611
30
0
40
1.999999999999996
210
-0
220
0
230
1
100
AcDbArc
50
-45.000000000000306
51
0
0
ENDSEC
0
SECTION
2
OBJECTS
0
DICTIONARY
5
C
100
AcDbDictionary
3
ACAD_GROUP
350
D
3
ACAD_MLINESTYLE
350
17
0
DICTIONARY
5
D
100
AcDbDictionary
0
DICTIONARY
5
1A
330
C
100
AcDbDictionary
0
DICTIONARY
5
17
100
AcDbDictionary
0
ENDSEC
0
EOF
