0
SECTION
2
HEADER
9
$INSUNITS
70
4
9
$ACADVER
1
AC1014
9
$HANDSEED
5
FFFF
0
ENDSEC
0
SECTION
2
TABLES
0
TABLE
2
VPORT
5
8
100
AcDbSymbolTable
0
ENDTAB
0
TABLE
2
LTYPE
5
5
100
AcDbSymbolTable
70
2
0
LTYPE
5
14
100
AcDbSymbolTableRecord
100
AcDbLinetypeTableRecord
2
BYBLOCK
70
0
0
LTYPE
5
15
100
AcDbSymbolTableRecord
100
AcDbLinetypeTableRecord
2
BYLAYER
70
0
0
ENDTAB
0
TABLE
2
LAYER
5
2
100
AcDbSymbolTable
70
3
0
LAYER
5
50
100
AcDbSymbolTableRecord
100
AcDbLayerTableRecord
2
0
70
0
6
CONTINUOUS
0
LAYER
5
51
100
AcDbSymbolTableRecord
100
AcDbLayerTableRecord
2
CUTOUTS
70
0
62
1
6
CONTINUOUS
0
LAYER
5
52
100
AcDbSymbolTableRecord
100
AcDbLayerTableRecord
2
PERIMETER
70
0
62
5
6
CONTINUOUS
0
ENDTAB
0
TABLE
2
STYLE
5
3
100
AcDbSymbolTable
70
1
0
STYLE
5
11
100
AcDbSymbolTableRecord
100
AcDbTextStyleTableRecord
2
STANDARD
70
0
0
ENDTAB
0
TABLE
2
VIEW
5
6
100
AcDbSymbolTable
0
ENDTAB
0
TABLE
2
UCS
5
7
100
AcDbSymbolTable
0
ENDTAB
0
TABLE
2
APPID
5
9
100
AcDbSymbolTable
70
1
0
APPID
5
12
100
AcDbSymbolTableRecord
100
AcDbRegAppTableRecord
2
ACAD
70
0
0
ENDTAB
0
TABLE
2
DIMSTYLE
5
A
100
AcDbSymbolTable
0
ENDTAB
0
TABLE
2
BLOCK_RECORD
5
1
100
AcDbSymbolTable
70
2
0
BLOCK_RECORD
5
1F
100
AcDbSymbolTableRecord
100
AcDbBlockTableRecord
2
*MODEL_SPACE
0
BLOCK_RECORD
5
1B
100
AcDbSymbolTableRecord
100
AcDbBlockTableRecord
2
*PAPER_SPACE
0
ENDTAB
0
ENDSEC
0
SECTION
2
BLOCKS
0
BLOCK
5
20
100
AcDbEntity
100
AcDbBlockBegin
2
*MODEL_SPACE
0
ENDBLK
5
21
100
AcDbEntity
100
AcDbBlockEnd
0
BLOCK
5
1C
100
AcDbEntity
100
AcDbBlockBegin
2
*PAPER_SPACE
0
ENDBLK
5
1D
100
AcDbEntity
100
AcDbBlockEnd
0
ENDSEC
0
SECTION
2
ENTITIES
0
CIRCLE
5
100
100
AcDbEntity
8
CUTOUTS
100
AcDbCircle
10
184.99999999999997
20
7.9999999999999467
30
0
40
3.2999999999999829
210
0
220
0
230
1
0
CIRCLE
5
101
100
AcDbEntity
8
CUTOUTS
100
AcDbCircle
10
102.9999999999999
20
-179
30
0
40
3.3000000000000007
210
0
220
0
230
1
0
CIRCLE
5
102
100
AcDbEntity
8
CUTOUTS
100
AcDbCircle
10
-32.50000000000005
20
-179
30
0
40
3.3000000000000007
210
0
220
0
230
1
0
CIRCLE
5
103
100
AcDbEntity
8
CUTOUTS
100
AcDbCircle
10
-185.00000000000003
20
-97.000000000000057
30
0
40
3.2999999999999829
210
0
220
0
230
1
0
CIRCLE
5
104
100
AcDbEntity
8
CUTOUTS
100
AcDbCircle
10
-185.00000000000003
20
112.99999999999997
30
0
40
3.2999999999999829
210
0
220
0
230
1
0
CIRCLE
5
105
100
AcDbEntity
8
CUTOUTS
100
AcDbCircle
10
65.999999999999929
20
178.99999999999994
30
0
40
3.3000000000000007
210
0
220
0
230
1
0
CIRCLE
5
106
100
AcDbEntity
8
CUTOUTS
100
AcDbCircle
10
-118.99999999999999
20
179
30
0
40
3.3000000000000007
210
0
220
0
230
1
0
CIRCLE
5
107
100
AcDbEntity
8
CUTOUTS
100
AcDbCircle
10
-53.00000000000005
20
178.99999999999994
30
0
40
3.3000000000000007
210
0
220
0
230
1
0
CIRCLE
5
108
100
AcDbEntity
8
CUTOUTS
100
AcDbCircle
10
118.99999999999999
20
178.99999999999994
30
0
40
3.3000000000000007
210
0
220
0
230
1
0
CIRCLE
5
109
100
AcDbEntity
8
CUTOUTS
100
AcDbCircle
10
-185.00000000000003
20
7.9999999999999716
30
0
40
3.2999999999999829
210
0
220
0
230
1
0
CIRCLE
5
10A
100
AcDbEntity
8
CUTOUTS
100
AcDbCircle
10
-103
20
-179
30
0
40
3.3000000000000007
210
0
220
0
230
1
0
CIRCLE
5
10B
100
AcDbEntity
8
CUTOUTS
100
AcDbCircle
10
32.499999999999957
20
-179
30
0
40
3.3000000000000007
210
0
220
0
230
1
0
CIRCLE
5
10C
100
AcDbEntity
8
CUTOUTS
100
AcDbCircle
10
184.99999999999997
20
-97.000000000000099
30
0
40
3.2999999999999829
210
0
220
0
230
1
0
CIRCLE
5
10D
100
AcDbEntity
8
CUTOUTS
100
AcDbCircle
10
184.99999999999997
20
112.99999999999996
30
0
40
3.2999999999999829
210
0
220
0
230
1
0
LINE
5
10E
100
AcDbEntity
8
PERIMETER
100
AcDbLine
10
-41.000000014901239
20
192.99999998509878
30
0
11
-130.9999999850989
21
192.99999998509884
31
0
0
ARC
5
10F
100
AcDbEntity
8
PERIMETER
100
AcDbCircle
10
-130.9999999850989
20
190.99999998509884
30
0
40
1.9999999999999929
210
0
220
-0
230
1
100
AcDbArc
50
90
51
180
0
LINE
5
110
100
AcDbEntity
8
PERIMETER
100
AcDbLine
10
-132.9999999850989
20
190.99999998509884
30
0
11
-132.9999999850989
21
165.99999998509887
31
0
0
ARC
5
111
100
AcDbEntity
8
PERIMETER
100
AcDbCircle
10
-134.9999999850989
20
165.99999998509887
30
0
40
1.9999999999999929
210
-0
220
0
230
1
100
AcDbArc
50
-90
51
0
0
LINE
5
112
100
AcDbEntity
8
PERIMETER
100
AcDbLine
10
-134.9999999850989
20
163.99999998509887
30
0
11
-167.9999999850989
21
163.99999998509887
31
0
0
ARC
5
113
100
AcDbEntity
8
PERIMETER
100
AcDbCircle
10
-167.9999999850989
20
161.9999999850989
30
0
40
1.9999999999999929
210
0
220
-0
230
1
100
AcDbArc
50
90
51
180
0
LINE
5
114
100
AcDbEntity
8
PERIMETER
100
AcDbLine
10
-169.9999999850989
20
161.9999999850989
30
0
11
-169.9999999850989
21
128.99999998509881
31
0
0
ARC
5
115
100
AcDbEntity
8
PERIMETER
100
AcDbCircle
10
-171.9999999850989
20
128.99999998509881
30
0
40
1.9999999999999929
210
-0
220
0
230
1
100
AcDbArc
50
-90
51
0
0
LINE
5
116
100
AcDbEntity
8
PERIMETER
100
AcDbLine
10
-171.9999999850989
20
126.99999998509881
30
0
11
-196.9999999850989
21
126.99999998509881
31
0
0
ARC
5
117
100
AcDbEntity
8
PERIMETER
100
AcDbCircle
10
-196.9999999850989
20
124.99999998509881
30
0
40
1.9999999999999929
210
0
220
-0
230
1
100
AcDbArc
50
90
51
180
0
LINE
5
118
100
AcDbEntity
8
PERIMETER
100
AcDbLine
10
-198.99999998509887
20
124.99999998509881
30
0
11
-198.9999999850989
21
-108.99999998509884
31
0
0
ARC
5
119
100
AcDbEntity
8
PERIMETER
100
AcDbCircle
10
-196.99999998509892
20
-108.99999998509885
30
0
40
1.9999999999999929
210
0
220
0
230
1
100
AcDbArc
50
180
51
269.9999999999992
0
LINE
5
11A
100
AcDbEntity
8
PERIMETER
100
AcDbLine
10
-196.99999998509892
20
-110.99999998509885
30
0
11
-125.82842710984507
21
-110.99999998509885
31
0
0
ARC
5
11B
100
AcDbEntity
8
PERIMETER
100
AcDbCircle
10
-125.82842710984507
20
-112.99999998509884
30
0
40
1.999999999999996
210
0
220
-0
230
1
100
AcDbArc
50
45
51
90
0
LINE
5
11C
100
AcDbEntity
8
PERIMETER
100
AcDbLine
10
-124.41421354747197
20
-111.58578642272575
30
0
11
-117.58578642272576
21
-118.41421354747196
31
0
0
ARC
5
11D
100
AcDbEntity
8
PERIMETER
100
AcDbCircle
10
-118.99999998509887
20
-119.82842710984507
30
0
40
1.9999999999999929
210
0
220
-0
230
1
100
AcDbArc
50
0
51
45.000000000000291
0
LINE
5
11E
100
AcDbEntity
8
PERIMETER
100
AcDbLine
10
-116.99999998509888
20
-119.82842710984507
30
0
11
-116.99999998509888
21
-190.99999998509878
31
0
0
ARC
5
11F
100
AcDbEntity
8
PERIMETER
100
AcDbCircle
10
-114.99999998509891
20
-190.99999998509878
30
0
40
1.9999999999999751
210
0
220
0
230
1
100
AcDbArc
50
180
51
270.0000000000004
0
LINE
5
120
100
AcDbEntity
8
PERIMETER
100
AcDbLine
10
-114.9999999850989
20
-192.99999998509875
30
0
11
-20.500000014901261
21
-192.99999998509884
31
0
0
ARC
5
121
100
AcDbEntity
8
PERIMETER
100
AcDbCircle
10
-20.500000014901261
20
-190.99999998509884
30
0
40
1.9999999999999929
210
-0
220
0
230
1
100
AcDbArc
50
-90
51
0
0
LINE
5
122
100
AcDbEntity
8
PERIMETER
100
AcDbLine
10
-18.500000014901268
20
-190.99999998509884
30
0
11
-18.500000014901243
21
-167.49999998509878
31
0
0
ARC
5
123
100
AcDbEntity
8
PERIMETER
100
AcDbCircle
10
-16.500000014901243
20
-167.49999998509878
30
0
40
1.9999999999999929
210
0
220
0
230
1
100
AcDbArc
50
90.000000000000099
51
180
0
LINE
5
124
100
AcDbEntity
8
PERIMETER
100
AcDbLine
10
-16.500000014901246
20
-165.49999998509878
30
0
11
16.500000014901076
21
-165.49999998509878
31
0
0
ARC
5
125
100
AcDbEntity
8
PERIMETER
100
AcDbCircle
10
16.500000014901079
20
-167.49999998509878
30
0
40
1.9999999999999996
210
0
220
-0
230
1
100
AcDbArc
50
0
51
90.000000000000099
0
LINE
5
126
100
AcDbEntity
8
PERIMETER
100
AcDbLine
10
18.500000014901079
20
-167.49999998509878
30
0
11
18.500000014901079
21
-190.99999998509878
31
0
0
ARC
5
127
100
AcDbEntity
8
PERIMETER
100
AcDbCircle
10
20.500000014901062
20
-190.99999998509878
30
0
40
1.9999999999999818
210
0
220
0
230
1
100
AcDbArc
50
180
51
270.0000000000004
0
LINE
5
128
100
AcDbEntity
8
PERIMETER
100
AcDbLine
10
20.500000014901076
20
-192.99999998509878
30
0
11
114.99999998509871
21
-192.99999998509884
31
0
0
ARC
5
129
100
AcDbEntity
8
PERIMETER
100
AcDbCircle
10
114.9999999850987
20
-190.99999998509884
30
0
40
1.9999999999999929
210
-0
220
0
230
1
100
AcDbArc
50
-89.999999999999588
51
0
0
LINE
5
12A
100
AcDbEntity
8
PERIMETER
100
AcDbLine
10
116.99999998509868
20
-190.99999998509887
30
0
11
116.99999998509875
21
-119.82842710984497
31
0
0
ARC
5
12B
100
AcDbEntity
8
PERIMETER
100
AcDbCircle
10
118.99999998509873
20
-119.82842710984497
30
0
40
1.999999999999996
210
0
220
0
230
1
100
AcDbArc
50
134.99999999999943
51
180
0
LINE
5
12C
100
AcDbEntity
8
PERIMETER
100
AcDbLine
10
117.58578642272565
20
-118.41421354747186
30
0
11
124.41421354747185
21
-111.58578642272566
31
0
0
ARC
5
12D
100
AcDbEntity
8
PERIMETER
100
AcDbCircle
10
125.82842710984494
20
-112.99999998509875
30
0
40
1.9999999999999929
210
0
220
-0
230
1
100
AcDbArc
50
90
51
135
0
LINE
5
12E
100
AcDbEntity
8
PERIMETER
100
AcDbLine
10
125.82842710984494
20
-110.99999998509875
30
0
11
196.99999998509881
21
-110.99999998509875
31
0
0
ARC
5
12F
100
AcDbEntity
8
PERIMETER
100
AcDbCircle
10
196.99999998509881
20
-108.99999998509877
30
0
40
1.9999999999999929
210
-0
220
0
230
1
100
AcDbArc
50
-90
51
0
0
LINE
5
130
100
AcDbEntity
8
PERIMETER
100
AcDbLine
10
198.99999998509881
20
-108.99999998509877
30
0
11
198.99999998509884
21
124.99999998509878
31
0
0
ARC
5
131
100
AcDbEntity
8
PERIMETER
100
AcDbCircle
10
196.99999998509884
20
124.9999999850988
30
0
40
1.9999999999999929
210
-0
220
0
230
1
100
AcDbArc
50
0
51
89.99999999999838
0
LINE
5
132
100
AcDbEntity
8
PERIMETER
100
AcDbLine
10
196.99999998509884
20
126.9999999850988
30
0
11
171.99999998509884
21
126.99999998509878
31
0
0
ARC
5
133
100
AcDbEntity
8
PERIMETER
100
AcDbCircle
10
171.99999998509884
20
128.99999998509878
30
0
40
1.9999999999999929
210
0
220
0
230
1
100
AcDbArc
50
180
51
270
0
LINE
5
134
100
AcDbEntity
8
PERIMETER
100
AcDbLine
10
169.99999998509884
20
128.99999998509878
30
0
11
169.99999998509884
21
161.99999998509881
31
0
0
ARC
5
135
100
AcDbEntity
8
PERIMETER
100
AcDbCircle
10
167.9999999850989
20
161.99999998509884
30
0
40
1.9999999999999574
210
-0
220
0
230
1
100
AcDbArc
50
0
51
90.00000000000081
0
LINE
5
136
100
AcDbEntity
8
PERIMETER
100
AcDbLine
10
167.99999998509887
20
163.99999998509881
30
0
11
134.99999998509881
21
163.99999998509884
31
0
0
ARC
5
137
100
AcDbEntity
8
PERIMETER
100
AcDbCircle
10
134.99999998509881
20
165.99999998509884
30
0
40
1.9999999999999929
210
0
220
0
230
1
100
AcDbArc
50
180
51
270
0
LINE
5
138
100
AcDbEntity
8
PERIMETER
100
AcDbLine
10
132.99999998509881
20
165.99999998509884
30
0
11
132.99999998509881
21
190.99999998509884
31
0
0
ARC
5
139
100
AcDbEntity
8
PERIMETER
100
AcDbCircle
10
130.99999998509881
20
190.99999998509884
30
0
40
1.9999999999999929
210
0
220
-0
230
1
100
AcDbArc
50
0
51
90
0
LINE
5
13A
100
AcDbEntity
8
PERIMETER
100
AcDbLine
10
130.99999998509881
20
192.99999998509884
30
0
11
54.00000001490109
21
192.99999998509884
31
0
0
ARC
5
13B
100
AcDbEntity
8
PERIMETER
100
AcDbCircle
10
54.000000014901097
20
190.99999998509884
30
0
40
1.9999999999999929
210
0
220
0
230
1
100
AcDbArc
50
90.000000000000199
51
180
0
LINE
5
13C
100
AcDbEntity
8
PERIMETER
100
AcDbLine
10
52.000000014901104
20
190.99999998509884
30
0
11
52.000000014901069
21
165.99999998509875
31
0
0
ARC
5
13D
100
AcDbEntity
8
PERIMETER
100
AcDbCircle
10
50.000000014901069
20
165.99999998509875
30
0
40
1.9999999999999929
210
-0
220
0
230
1
100
AcDbArc
50
-89.999999999999801
51
0
0
LINE
5
13E
100
AcDbEntity
8
PERIMETER
100
AcDbLine
10
50.000000014901076
20
163.99999998509878
30
0
11
41.000000014901083
21
163.99999998509878
31
0
0
ARC
5
13F
100
AcDbEntity
8
PERIMETER
100
AcDbCircle
10
41.00000001490109
20
161.99999998509878
30
0
40
1.9999999999999929
210
0
220
0
230
1
100
AcDbArc
50
90.000000000000199
51
180
0
LINE
5
140
100
AcDbEntity
8
PERIMETER
100
AcDbLine
10
39.000000014901097
20
161.99999998509878
30
0
11
39.00000001490109
21
107.82842710984499
31
0
0
ARC
5
141
100
AcDbEntity
8
PERIMETER
100
AcDbCircle
10
37.00000001490109
20
107.82842710984499
30
0
40
2.0000000000000022
210
-0
220
0
230
1
100
AcDbArc
50
-44.999999999999538
51
0
0
LINE
5
142
100
AcDbEntity
8
PERIMETER
100
AcDbLine
10
38.41421357727419
20
106.41421354747192
30
0
11
32.585786452527998
21
100.58578642272572
31
0
0
ARC
5
143
100
AcDbEntity
8
PERIMETER
100
AcDbCircle
10
31.171572890154913
20
101.99999998509881
30
0
40
1.9999999999999929
210
-0
220
0
230
1
100
AcDbArc
50
270
51
314.99999999999983
0
LINE
5
144
100
AcDbEntity
8
PERIMETER
100
AcDbLine
10
31.171572890154913
20
99.99999998509881
30
0
11
-31.171572890155055
21
99.99999998509881
31
0
0
ARC
5
145
100
AcDbEntity
8
PERIMETER
100
AcDbCircle
10
-31.171572890155051
20
101.99999998509881
30
0
40
1.9999999999999993
210
0
220
0
230
1
100
AcDbArc
50
224.99999999999991
51
269.99999999999989
0
LINE
5
146
100
AcDbEntity
8
PERIMETER
100
AcDbLine
10
-32.585786452528147
20
100.58578642272572
30
0
11
-38.41421357727431
21
106.41421354747192
31
0
0
ARC
5
147
100
AcDbEntity
8
PERIMETER
100
AcDbCircle
10
-37.000000014901232
20
107.82842710984497
30
0
40
2.0000000000000018
210
0
220
0
230
1
100
AcDbArc
50
180
51
224.99999999999943
0
LINE
5
148
100
AcDbEntity
8
PERIMETER
100
AcDbLine
10
-39.000000014901232
20
107.82842710984497
30
0
11
-39.000000014901239
21
190.99999998509878
31
0
0
ARC
5
149
100
AcDbEntity
8
PERIMETER
100
AcDbCircle
10
-41.000000014901232
20
190.99999998509878
30
0
40
1.9999999999999929
210
0
220
-0
230
1
100
AcDbArc
50
0
51
90.000000000000199
0
ENDSEC
0
SECTION
2
OBJECTS
0
DICTIONARY
5
C
100
AcDbDictionary
3
ACAD_GROUP
350
D
3
ACAD_MLINESTYLE
350
17
0
DICTIONARY
5
D
100
AcDbDictionary
0
DICTIONARY
5
1A
330
C
100
AcDbDictionary
0
DICTIONARY
5
17
100
AcDbDictionary
0
ENDSEC
0
EOF
