0
SECTION
2
HEADER
9
$INSUNITS
70
4
9
$ACADVER
1
AC1014
9
$HANDSEED
5
FFFF
0
ENDSEC
0
SECTION
2
TABLES
0
TABLE
2
VPORT
5
8
100
AcDbSymbolTable
0
ENDTAB
0
TABLE
2
LTYPE
5
5
100
AcDbSymbolTable
70
2
0
LTYPE
5
14
100
AcDbSymbolTableRecord
100
AcDbLinetypeTableRecord
2
BYBLOCK
70
0
0
LTYPE
5
15
100
AcDbSymbolTableRecord
100
AcDbLinetypeTableRecord
2
BYLAYER
70
0
0
ENDTAB
0
TABLE
2
LAYER
5
2
100
AcDbSymbolTable
70
3
0
LAYER
5
50
100
AcDbSymbolTableRecord
100
AcDbLayerTableRecord
2
0
70
0
6
CONTINUOUS
0
LAYER
5
51
100
AcDbSymbolTableRecord
100
AcDbLayerTableRecord
2
CUTOUTS
70
0
62
1
6
CONTINUOUS
0
LAYER
5
52
100
AcDbSymbolTableRecord
100
AcDbLayerTableRecord
2
PERIMETER
70
0
62
5
6
CONTINUOUS
0
ENDTAB
0
TABLE
2
STYLE
5
3
100
AcDbSymbolTable
70
1
0
STYLE
5
11
100
AcDbSymbolTableRecord
100
AcDbTextStyleTableRecord
2
STANDARD
70
0
0
ENDTAB
0
TABLE
2
VIEW
5
6
100
AcDbSymbolTable
0
ENDTAB
0
TABLE
2
UCS
5
7
100
AcDbSymbolTable
0
ENDTAB
0
TABLE
2
APPID
5
9
100
AcDbSymbolTable
70
1
0
APPID
5
12
100
AcDbSymbolTableRecord
100
AcDbRegAppTableRecord
2
ACAD
70
0
0
ENDTAB
0
TABLE
2
DIMSTYLE
5
A
100
AcDbSymbolTable
0
ENDTAB
0
TABLE
2
BLOCK_RECORD
5
1
100
AcDbSymbolTable
70
2
0
BLOCK_RECORD
5
1F
100
AcDbSymbolTableRecord
100
AcDbBlockTableRecord
2
*MODEL_SPACE
0
BLOCK_RECORD
5
1B
100
AcDbSymbolTableRecord
100
AcDbBlockTableRecord
2
*PAPER_SPACE
0
ENDTAB
0
ENDSEC
0
SECTION
2
BLOCKS
0
BLOCK
5
20
100
AcDbEntity
100
AcDbBlockBegin
2
*MODEL_SPACE
0
ENDBLK
5
21
100
AcDbEntity
100
AcDbBlockEnd
0
BLOCK
5
1C
100
AcDbEntity
100
AcDbBlockBegin
2
*PAPER_SPACE
0
ENDBLK
5
1D
100
AcDbEntity
100
AcDbBlockEnd
0
ENDSEC
0
SECTION
2
ENTITIES
0
CIRCLE
5
100
100
AcDbEntity
8
CUTOUTS
100
AcDbCircle
10
-204.74999999999991
20
144.74999999999991
30
0
40
3.5000000000000142
210
0
220
0
230
1
0
CIRCLE
5
101
100
AcDbEntity
8
CUTOUTS
100
AcDbCircle
10
-92.749999999999886
20
32.500000000000014
30
0
40
2.4000000000000021
210
0
220
0
230
1
0
CIRCLE
5
102
100
AcDbEntity
8
CUTOUTS
100
AcDbCircle
10
-142.24999999999989
20
121.25000000000003
30
0
40
2.4000000000000021
210
0
220
0
230
1
0
CIRCLE
5
103
100
AcDbEntity
8
CUTOUTS
100
AcDbCircle
10
-92.249999999999872
20
121.25000000000003
30
0
40
2.4000000000000021
210
0
220
0
230
1
0
CIRCLE
5
104
100
AcDbEntity
8
CUTOUTS
100
AcDbCircle
10
-140.74999999999989
20
32.500000000000085
30
0
40
2.4000000000000021
210
0
220
0
230
1
0
CIRCLE
5
105
100
AcDbEntity
8
CUTOUTS
100
AcDbCircle
10
200.24999999999943
20
14.250000000038252
30
0
40
3.5000000000000142
210
0
220
0
230
1
0
CIRCLE
5
106
100
AcDbEntity
8
CUTOUTS
100
AcDbCircle
10
170.24999999999943
20
-155.24999999993537
30
0
40
3.5000000000000142
210
0
220
0
230
1
0
CIRCLE
5
107
100
AcDbEntity
8
CUTOUTS
100
AcDbCircle
10
-178.75000000000054
20
-155.24999999993523
30
0
40
3.5000000000000142
210
0
220
0
230
1
0
CIRCLE
5
108
100
AcDbEntity
8
CUTOUTS
100
AcDbCircle
10
-4.25000000000054
20
-155.24999999993537
30
0
40
3.5000000000000004
210
0
220
0
230
1
0
CIRCLE
5
109
100
AcDbEntity
8
CUTOUTS
100
AcDbCircle
10
200.24999999999972
20
-125.24999999996137
30
0
40
3.5000000000000142
210
0
220
0
230
1
0
CIRCLE
5
10A
100
AcDbEntity
8
CUTOUTS
100
AcDbCircle
10
200.24999999986841
20
153.75000000003851
30
0
40
3.5000000000000142
210
0
220
0
230
1
0
CIRCLE
5
10B
100
AcDbEntity
8
CUTOUTS
100
AcDbCircle
10
-204.74999999999991
20
44.749999999999908
30
0
40
3.5000000000000142
210
0
220
0
230
1
0
CIRCLE
5
10C
100
AcDbEntity
8
CUTOUTS
100
AcDbCircle
10
-204.74999999999991
20
-55.250000000000092
30
0
40
3.5000000000000142
210
0
220
0
230
1
0
LINE
5
10D
100
AcDbEntity
8
PERIMETER
100
AcDbLine
10
-196.24999999999994
20
-30.750000000000099
30
0
11
-213.24999999999991
21
-30.750000000000099
31
0
0
ARC
5
10E
100
AcDbEntity
8
PERIMETER
100
AcDbCircle
10
-196.24999999999994
20
-28.750000000000107
30
0
40
1.9999999999999929
210
-0
220
0
230
1
100
AcDbArc
50
-90
51
0
0
LINE
5
10F
100
AcDbEntity
8
PERIMETER
100
AcDbLine
10
-194.24999999999994
20
18.249999999999922
30
0
11
-194.24999999999994
21
-28.750000000000107
31
0
0
ARC
5
110
100
AcDbEntity
8
PERIMETER
100
AcDbCircle
10
-196.24999999999994
20
18.249999999999922
30
0
40
1.9999999999999929
210
0
220
-0
230
1
100
AcDbArc
50
0
51
90
0
LINE
5
111
100
AcDbEntity
8
PERIMETER
100
AcDbLine
10
-213.24999999999991
20
20.249999999999897
30
0
11
-196.24999999999994
21
20.249999999999915
31
0
0
ARC
5
112
100
AcDbEntity
8
PERIMETER
100
AcDbCircle
10
-213.24999999999991
20
21.249999999999893
30
0
40
1.0000000000000142
210
0
220
0
230
1
100
AcDbArc
50
180
51
270
0
LINE
5
113
100
AcDbEntity
8
PERIMETER
100
AcDbLine
10
-214.24999999999989
20
68.249999999999915
30
0
11
-214.24999999999994
21
21.249999999999893
31
0
0
ARC
5
114
100
AcDbEntity
8
PERIMETER
100
AcDbCircle
10
-213.24999999999991
20
68.249999999999915
30
0
40
0.99999999999997868
210
0
220
-0
230
1
100
AcDbArc
50
90
51
180
0
LINE
5
115
100
AcDbEntity
8
PERIMETER
100
AcDbLine
10
-196.24999999999994
20
69.249999999999901
30
0
11
-213.24999999999991
21
69.249999999999901
31
0
0
ARC
5
116
100
AcDbEntity
8
PERIMETER
100
AcDbCircle
10
-196.24999999999994
20
71.249999999999886
30
0
40
1.9999999999999929
210
-0
220
0
230
1
100
AcDbArc
50
-90
51
0
0
LINE
5
117
100
AcDbEntity
8
PERIMETER
100
AcDbLine
10
-194.24999999999994
20
118.24999999999991
30
0
11
-194.24999999999994
21
71.249999999999886
31
0
0
ARC
5
118
100
AcDbEntity
8
PERIMETER
100
AcDbCircle
10
-196.24999999999994
20
118.24999999999991
30
0
40
1.9999999999999929
210
0
220
0
230
1
100
AcDbArc
50
0
51
90
0
LINE
5
119
100
AcDbEntity
8
PERIMETER
100
AcDbLine
10
-213.24999999999991
20
120.2499999999999
30
0
11
-196.24999999999994
21
120.24999999999991
31
0
0
ARC
5
11A
100
AcDbEntity
8
PERIMETER
100
AcDbCircle
10
-213.24999999999991
20
121.24999999999989
30
0
40
1.0000000000000142
210
0
220
0
230
1
100
AcDbArc
50
180
51
270
0
LINE
5
11B
100
AcDbEntity
8
PERIMETER
100
AcDbLine
10
-214.24999999999989
20
168.24999999999991
30
0
11
-214.24999999999994
21
121.24999999999989
31
0
0
ARC
5
11C
100
AcDbEntity
8
PERIMETER
100
AcDbCircle
10
-213.24999999999991
20
168.24999999999991
30
0
40
0.99999999999997868
210
0
220
-0
230
1
100
AcDbArc
50
89.99999999999838
51
180
0
LINE
5
11D
100
AcDbEntity
8
PERIMETER
100
AcDbLine
10
214.24999999999989
20
169.25000000000009
30
0
11
-213.24999999999989
21
169.24999999999989
31
0
0
LINE
5
11E
100
AcDbEntity
8
PERIMETER
100
AcDbLine
10
214.24999999999989
20
-137.25000000000026
30
0
11
214.24999999999989
21
169.25000000000009
31
0
0
ARC
5
11F
100
AcDbEntity
8
PERIMETER
100
AcDbCircle
10
212.24999999999989
20
-137.2500000000002
30
0
40
2.0000000000000284
210
-0
220
0
230
1
100
AcDbArc
50
270.00000000000159
51
360
0
LINE
5
120
100
AcDbEntity
8
PERIMETER
100
AcDbLine
10
186.25
20
-139.25000000000026
30
0
11
212.24999999999994
21
-139.25000000000023
31
0
0
ARC
5
121
100
AcDbEntity
8
PERIMETER
100
AcDbCircle
10
186.25
20
-141.25000000000026
30
0
40
1.9999999999999929
210
0
220
-0
230
1
100
AcDbArc
50
90
51
180
0
LINE
5
122
100
AcDbEntity
8
PERIMETER
100
AcDbLine
10
184.24999999999997
20
-167.24999999999991
30
0
11
184.24999999999997
21
-141.25000000000026
31
0
0
ARC
5
123
100
AcDbEntity
8
PERIMETER
100
AcDbCircle
10
182.2499999999998
20
-167.24999999999977
30
0
40
2.0000000000001705
210
-0
220
0
230
1
100
AcDbArc
50
270.00000000000409
51
360
0
LINE
5
124
100
AcDbEntity
8
PERIMETER
100
AcDbLine
10
-214.24999999999989
20
-169.25000000000009
30
0
11
182.24999999999994
21
-169.24999999999994
31
0
0
LINE
5
125
100
AcDbEntity
8
PERIMETER
100
AcDbLine
10
-214.24999999999989
20
-132.25000000000009
30
0
11
-214.24999999999989
21
-169.25000000000009
31
0
0
ARC
5
126
100
AcDbEntity
8
PERIMETER
100
AcDbCircle
10
-212.74999999999991
20
-132.25000000000009
30
0
40
1.4999999999999858
210
0
220
-0
230
1
100
AcDbArc
50
90
51
180
0
LINE
5
127
100
AcDbEntity
8
PERIMETER
100
AcDbLine
10
-196.24999999999994
20
-130.75000000000011
30
0
11
-212.74999999999991
21
-130.75000000000011
31
0
0
ARC
5
128
100
AcDbEntity
8
PERIMETER
100
AcDbCircle
10
-196.24999999999994
20
-128.75000000000011
30
0
40
1.9999999999999929
210
-0
220
0
230
1
100
AcDbArc
50
-90
51
0
0
LINE
5
129
100
AcDbEntity
8
PERIMETER
100
AcDbLine
10
-194.24999999999994
20
-81.750000000000085
30
0
11
-194.24999999999994
21
-128.75000000000011
31
0
0
ARC
5
12A
100
AcDbEntity
8
PERIMETER
100
AcDbCircle
10
-196.24999999999994
20
-81.750000000000085
30
0
40
1.9999999999999929
210
0
220
-0
230
1
100
AcDbArc
50
0
51
90
0
LINE
5
12B
100
AcDbEntity
8
PERIMETER
100
AcDbLine
10
-213.24999999999991
20
-79.750000000000114
30
0
11
-196.24999999999994
21
-79.750000000000085
31
0
0
ARC
5
12C
100
AcDbEntity
8
PERIMETER
100
AcDbCircle
10
-213.24999999999991
20
-78.750000000000114
30
0
40
1.0000000000000142
210
0
220
0
230
1
100
AcDbArc
50
180
51
270
0
LINE
5
12D
100
AcDbEntity
8
PERIMETER
100
AcDbLine
10
-214.24999999999989
20
-31.750000000000078
30
0
11
-214.24999999999994
21
-78.750000000000114
31
0
0
ARC
5
12E
100
AcDbEntity
8
PERIMETER
100
AcDbCircle
10
-213.24999999999991
20
-31.750000000000078
30
0
40
0.99999999999997868
210
0
220
-0
230
1
100
AcDbArc
50
90
51
180
0
ENDSEC
0
SECTION
2
OBJECTS
0
DICTIONARY
5
C
100
AcDbDictionary
3
ACAD_GROUP
350
D
3
ACAD_MLINESTYLE
350
17
0
DICTIONARY
5
D
100
AcDbDictionary
0
DICTIONARY
5
1A
330
C
100
AcDbDictionary
0
DICTIONARY
5
17
100
AcDbDictionary
0
ENDSEC
0
EOF
