0
SECTION
2
HEADER
9
$INSUNITS
70
4
9
$ACADVER
1
AC1014
9
$HANDSEED
5
FFFF
0
ENDSEC
0
SECTION
2
TABLES
0
TABLE
2
VPORT
5
8
100
AcDbSymbolTable
0
ENDTAB
0
TABLE
2
LTYPE
5
5
100
AcDbSymbolTable
70
2
0
LTYPE
5
14
100
AcDbSymbolTableRecord
100
AcDbLinetypeTableRecord
2
BYBLOCK
70
0
0
LTYPE
5
15
100
AcDbSymbolTableRecord
100
AcDbLinetypeTableRecord
2
BYLAYER
70
0
0
ENDTAB
0
TABLE
2
LAYER
5
2
100
AcDbSymbolTable
70
3
0
LAYER
5
50
100
AcDbSymbolTableRecord
100
AcDbLayerTableRecord
2
0
70
0
6
CONTINUOUS
0
LAYER
5
51
100
AcDbSymbolTableRecord
100
AcDbLayerTableRecord
2
CUTOUTS
70
0
62
1
6
CONTINUOUS
0
LAYER
5
52
100
AcDbSymbolTableRecord
100
AcDbLayerTableRecord
2
PERIMETER
70
0
62
5
6
CONTINUOUS
0
ENDTAB
0
TABLE
2
STYLE
5
3
100
AcDbSymbolTable
70
1
0
STYLE
5
11
100
AcDbSymbolTableRecord
100
AcDbTextStyleTableRecord
2
STANDARD
70
0
0
ENDTAB
0
TABLE
2
VIEW
5
6
100
AcDbSymbolTable
0
ENDTAB
0
TABLE
2
UCS
5
7
100
AcDbSymbolTable
0
ENDTAB
0
TABLE
2
APPID
5
9
100
AcDbSymbolTable
70
1
0
APPID
5
12
100
AcDbSymbolTableRecord
100
AcDbRegAppTableRecord
2
ACAD
70
0
0
ENDTAB
0
TABLE
2
DIMSTYLE
5
A
100
AcDbSymbolTable
0
ENDTAB
0
TABLE
2
BLOCK_RECORD
5
1
100
AcDbSymbolTable
70
2
0
BLOCK_RECORD
5
1F
100
AcDbSymbolTableRecord
100
AcDbBlockTableRecord
2
*MODEL_SPACE
0
BLOCK_RECORD
5
1B
100
AcDbSymbolTableRecord
100
AcDbBlockTableRecord
2
*PAPER_SPACE
0
ENDTAB
0
ENDSEC
0
SECTION
2
BLOCKS
0
BLOCK
5
20
100
AcDbEntity
100
AcDbBlockBegin
2
*MODEL_SPACE
0
ENDBLK
5
21
100
AcDbEntity
100
AcDbBlockEnd
0
BLOCK
5
1C
100
AcDbEntity
100
AcDbBlockBegin
2
*PAPER_SPACE
0
ENDBLK
5
1D
100
AcDbEntity
100
AcDbBlockEnd
0
ENDSEC
0
SECTION
2
ENTITIES
0
CIRCLE
5
100
100
AcDbEntity
8
CUTOUTS
100
AcDbCircle
10
-154.74999999999989
20
-44.250000000010132
30
0
40
3.4999999999999964
210
0
220
0
230
1
0
CIRCLE
5
101
100
AcDbEntity
8
CUTOUTS
100
AcDbCircle
10
-92.249999999999872
20
-17.750000000009969
30
0
40
2.4000000000000021
210
0
220
0
230
1
0
CIRCLE
5
102
100
AcDbEntity
8
CUTOUTS
100
AcDbCircle
10
-42.249999999999872
20
-17.750000000009969
30
0
40
2.4000000000000021
210
0
220
0
230
1
0
CIRCLE
5
103
100
AcDbEntity
8
CUTOUTS
100
AcDbCircle
10
150.24999999999983
20
-13.750000000010161
30
0
40
3.4999999999999964
210
0
220
0
230
1
0
CIRCLE
5
104
100
AcDbEntity
8
CUTOUTS
100
AcDbCircle
10
-128.75000000000014
20
105.74999999999172
30
0
40
3.4999999999999964
210
0
220
0
230
1
0
CIRCLE
5
105
100
AcDbEntity
8
CUTOUTS
100
AcDbCircle
10
-29.750000000000156
20
105.74999999999235
30
0
40
3.5000000000000009
210
0
220
0
230
1
0
CIRCLE
5
106
100
AcDbEntity
8
CUTOUTS
100
AcDbCircle
10
150.24999999999994
20
75.749999999989868
30
0
40
3.4999999999999964
210
0
220
0
230
1
0
CIRCLE
5
107
100
AcDbEntity
8
CUTOUTS
100
AcDbCircle
10
150.24999999999977
20
-103.25000000001013
30
0
40
3.4999999999999964
210
0
220
0
230
1
0
CIRCLE
5
108
100
AcDbEntity
8
CUTOUTS
100
AcDbCircle
10
-154.74999999999989
20
55.749999999989868
30
0
40
3.4999999999999964
210
0
220
0
230
1
0
LINE
5
109
100
AcDbEntity
8
CUTOUTS
100
AcDbLine
10
133.89999999999989
20
89.74999999999045
30
0
11
118.59999999999985
21
89.74999999999045
31
0
0
ARC
5
10A
100
AcDbEntity
8
CUTOUTS
100
AcDbCircle
10
118.59999999999985
20
91.74999999999045
30
0
40
1.9999999999999929
210
0
220
0
230
1
100
AcDbArc
50
180
51
270
0
LINE
5
10B
100
AcDbEntity
8
CUTOUTS
100
AcDbLine
10
116.59999999999985
20
91.74999999999045
30
0
11
116.59999999999989
21
102.74999999999051
31
0
0
ARC
5
10C
100
AcDbEntity
8
CUTOUTS
100
AcDbCircle
10
118.59999999999988
20
102.74999999999051
30
0
40
1.9999999999999929
210
0
220
-0
230
1
100
AcDbArc
50
90
51
180
0
LINE
5
10D
100
AcDbEntity
8
CUTOUTS
100
AcDbLine
10
118.59999999999988
20
104.74999999999049
30
0
11
133.89999999999992
21
104.74999999999049
31
0
0
ARC
5
10E
100
AcDbEntity
8
CUTOUTS
100
AcDbCircle
10
133.89999999999992
20
102.74999999999051
30
0
40
1.9999999999999929
210
0
220
-0
230
1
100
AcDbArc
50
0
51
90
0
LINE
5
10F
100
AcDbEntity
8
CUTOUTS
100
AcDbLine
10
135.89999999999992
20
102.74999999999051
30
0
11
135.89999999999989
21
91.74999999999045
31
0
0
ARC
5
110
100
AcDbEntity
8
CUTOUTS
100
AcDbCircle
10
133.89999999999989
20
91.74999999999045
30
0
40
1.9999999999999929
210
-0
220
0
230
1
100
AcDbArc
50
-90
51
0
0
ARC
5
111
100
AcDbEntity
8
PERIMETER
100
AcDbCircle
10
-146.24999999999989
20
29.249999999989882
30
0
40
1.9999999999999929
210
0
220
-0
230
1
100
AcDbArc
50
0
51
90
0
LINE
5
112
100
AcDbEntity
8
PERIMETER
100
AcDbLine
10
-144.24999999999989
20
29.249999999989882
30
0
11
-144.24999999999989
21
-17.750000000010147
31
0
0
ARC
5
113
100
AcDbEntity
8
PERIMETER
100
AcDbCircle
10
-146.24999999999989
20
-17.750000000010147
30
0
40
1.9999999999999929
210
-0
220
0
230
1
100
AcDbArc
50
-90
51
0
0
LINE
5
114
100
AcDbEntity
8
PERIMETER
100
AcDbLine
10
-146.24999999999989
20
-19.750000000010139
30
0
11
-163.24999999999989
21
-19.750000000010139
31
0
0
ARC
5
115
100
AcDbEntity
8
PERIMETER
100
AcDbCircle
10
-163.24999999999989
20
-20.750000000010118
30
0
40
0.99999999999997868
210
0
220
-0
230
1
100
AcDbArc
50
90
51
180
0
LINE
5
116
100
AcDbEntity
8
PERIMETER
100
AcDbLine
10
-164.24999999999986
20
-20.750000000010118
30
0
11
-164.24999999999989
21
-67.750000000010147
31
0
0
ARC
5
117
100
AcDbEntity
8
PERIMETER
100
AcDbCircle
10
-163.24999999999989
20
-67.750000000010147
30
0
40
1.0000000000000142
210
0
220
0
230
1
100
AcDbArc
50
180
51
270
0
LINE
5
118
100
AcDbEntity
8
PERIMETER
100
AcDbLine
10
-163.24999999999989
20
-68.750000000010147
30
0
11
-146.24999999999989
21
-68.750000000010118
31
0
0
ARC
5
119
100
AcDbEntity
8
PERIMETER
100
AcDbCircle
10
-146.24999999999991
20
-70.750000000010118
30
0
40
2.0000000000000107
210
0
220
-0
230
1
100
AcDbArc
50
0
51
90
0
LINE
5
11A
100
AcDbEntity
8
PERIMETER
100
AcDbLine
10
-144.24999999999989
20
-70.750000000010118
30
0
11
-144.24999999999986
21
-119.75000000000996
31
0
0
LINE
5
11B
100
AcDbEntity
8
PERIMETER
100
AcDbLine
10
-144.24999999999986
20
-119.75000000000996
30
0
11
164.24999999999994
21
-119.75000000000996
31
0
0
LINE
5
11C
100
AcDbEntity
8
PERIMETER
100
AcDbLine
10
164.24999999999994
20
-119.75000000000996
30
0
11
164.24999999999989
21
117.75000000000998
31
0
0
ARC
5
11D
100
AcDbEntity
8
PERIMETER
100
AcDbCircle
10
162.24999999999991
20
117.75000000000998
30
0
40
1.9999999999999929
210
0
220
-0
230
1
100
AcDbArc
50
0
51
90
0
LINE
5
11E
100
AcDbEntity
8
PERIMETER
100
AcDbLine
10
162.24999999999991
20
119.75000000000996
30
0
11
-144.24999999999989
21
119.75000000000996
31
0
0
LINE
5
11F
100
AcDbEntity
8
PERIMETER
100
AcDbLine
10
-144.24999999999989
20
119.75000000000996
30
0
11
-144.24999999999989
21
82.749999999989853
31
0
0
ARC
5
120
100
AcDbEntity
8
PERIMETER
100
AcDbCircle
10
-146.74999999999989
20
82.749999999989853
30
0
40
2.5
210
-0
220
0
230
1
100
AcDbArc
50
-90
51
0
0
LINE
5
121
100
AcDbEntity
8
PERIMETER
100
AcDbLine
10
-146.74999999999989
20
80.249999999989853
30
0
11
-163.24999999999989
21
80.249999999989853
31
0
0
ARC
5
122
100
AcDbEntity
8
PERIMETER
100
AcDbCircle
10
-163.24999999999989
20
79.249999999989882
30
0
40
0.99999999999997868
210
0
220
-0
230
1
100
AcDbArc
50
90
51
180
0
LINE
5
123
100
AcDbEntity
8
PERIMETER
100
AcDbLine
10
-164.24999999999986
20
79.249999999989882
30
0
11
-164.24999999999989
21
32.249999999989853
31
0
0
ARC
5
124
100
AcDbEntity
8
PERIMETER
100
AcDbCircle
10
-163.24999999999989
20
32.249999999989853
30
0
40
1.0000000000000142
210
0
220
0
230
1
100
AcDbArc
50
180
51
270
0
LINE
5
125
100
AcDbEntity
8
PERIMETER
100
AcDbLine
10
-163.24999999999989
20
31.249999999989857
30
0
11
-146.24999999999989
21
31.249999999989875
31
0
0
ENDSEC
0
SECTION
2
OBJECTS
0
DICTIONARY
5
C
100
AcDbDictionary
3
ACAD_GROUP
350
D
3
ACAD_MLINESTYLE
350
17
0
DICTIONARY
5
D
100
AcDbDictionary
0
DICTIONARY
5
1A
330
C
100
AcDbDictionary
0
DICTIONARY
5
17
100
AcDbDictionary
0
ENDSEC
0
EOF
