0
SECTION
2
HEADER
9
$INSUNITS
70
4
9
$ACADVER
1
AC1014
9
$HANDSEED
5
FFFF
0
ENDSEC
0
SECTION
2
TABLES
0
TABLE
2
VPORT
5
8
100
AcDbSymbolTable
0
ENDTAB
0
TABLE
2
LTYPE
5
5
100
AcDbSymbolTable
70
2
0
LTYPE
5
14
100
AcDbSymbolTableRecord
100
AcDbLinetypeTableRecord
2
BYBLOCK
70
0
0
LTYPE
5
15
100
AcDbSymbolTableRecord
100
AcDbLinetypeTableRecord
2
BYLAYER
70
0
0
ENDTAB
0
TABLE
2
LAYER
5
2
100
AcDbSymbolTable
70
3
0
LAYER
5
50
100
AcDbSymbolTableRecord
100
AcDbLayerTableRecord
2
0
70
0
6
CONTINUOUS
0
LAYER
5
51
100
AcDbSymbolTableRecord
100
AcDbLayerTableRecord
2
CUTOUTS
70
0
62
1
6
CONTINUOUS
0
LAYER
5
52
100
AcDbSymbolTableRecord
100
AcDbLayerTableRecord
2
PERIMETER
70
0
62
5
6
CONTINUOUS
0
ENDTAB
0
TABLE
2
STYLE
5
3
100
AcDbSymbolTable
70
1
0
STYLE
5
11
100
AcDbSymbolTableRecord
100
AcDbTextStyleTableRecord
2
STANDARD
70
0
0
ENDTAB
0
TABLE
2
VIEW
5
6
100
AcDbSymbolTable
0
ENDTAB
0
TABLE
2
UCS
5
7
100
AcDbSymbolTable
0
ENDTAB
0
TABLE
2
APPID
5
9
100
AcDbSymbolTable
70
1
0
APPID
5
12
100
AcDbSymbolTableRecord
100
AcDbRegAppTableRecord
2
ACAD
70
0
0
ENDTAB
0
TABLE
2
DIMSTYLE
5
A
100
AcDbSymbolTable
0
ENDTAB
0
TABLE
2
BLOCK_RECORD
5
1
100
AcDbSymbolTable
70
2
0
BLOCK_RECORD
5
1F
100
AcDbSymbolTableRecord
100
AcDbBlockTableRecord
2
*MODEL_SPACE
0
BLOCK_RECORD
5
1B
100
AcDbSymbolTableRecord
100
AcDbBlockTableRecord
2
*PAPER_SPACE
0
ENDTAB
0
ENDSEC
0
SECTION
2
BLOCKS
0
BLOCK
5
20
100
AcDbEntity
100
AcDbBlockBegin
2
*MODEL_SPACE
0
ENDBLK
5
21
100
AcDbEntity
100
AcDbBlockEnd
0
BLOCK
5
1C
100
AcDbEntity
100
AcDbBlockBegin
2
*PAPER_SPACE
0
ENDBLK
5
1D
100
AcDbEntity
100
AcDbBlockEnd
0
ENDSEC
0
SECTION
2
ENTITIES
0
CIRCLE
5
100
100
AcDbEntity
8
CUTOUTS
100
AcDbCircle
10
332.50000794063516
20
14.249999999999829
30
0
40
3.2999999999999829
210
0
220
0
230
1
0
CIRCLE
5
101
100
AcDbEntity
8
CUTOUTS
100
AcDbCircle
10
332.50000794063533
20
136.24999999999983
30
0
40
3.2999999999999829
210
0
220
0
230
1
0
CIRCLE
5
102
100
AcDbEntity
8
CUTOUTS
100
AcDbCircle
10
332.50000794063538
20
-311.74999999999841
30
0
40
3.2999999999999829
210
0
220
0
230
1
0
CIRCLE
5
103
100
AcDbEntity
8
CUTOUTS
100
AcDbCircle
10
332.50000794063521
20
303.24999999999983
30
0
40
3.2999999999999829
210
0
220
0
230
1
0
CIRCLE
5
104
100
AcDbEntity
8
CUTOUTS
100
AcDbCircle
10
332.50000794063521
20
288.24999999999983
30
0
40
3.2999999999999829
210
0
220
0
230
1
0
CIRCLE
5
105
100
AcDbEntity
8
CUTOUTS
100
AcDbCircle
10
332.50000794063538
20
-326.74999999999841
30
0
40
3.2999999999999829
210
0
220
0
230
1
0
CIRCLE
5
106
100
AcDbEntity
8
CUTOUTS
100
AcDbCircle
10
332.50000794063533
20
47.249999999999837
30
0
40
3.2999999999999829
210
0
220
0
230
1
0
CIRCLE
5
107
100
AcDbEntity
8
CUTOUTS
100
AcDbCircle
10
332.50000794063516
20
-0.75000000000017053
30
0
40
3.2999999999999829
210
0
220
0
230
1
0
CIRCLE
5
108
100
AcDbEntity
8
CUTOUTS
100
AcDbCircle
10
-332.50000794063601
20
14.249999999999829
30
0
40
3.2999999999999829
210
0
220
0
230
1
0
CIRCLE
5
109
100
AcDbEntity
8
CUTOUTS
100
AcDbCircle
10
-332.50000794063618
20
136.24999999999983
30
0
40
3.2999999999999829
210
0
220
0
230
1
0
CIRCLE
5
10A
100
AcDbEntity
8
CUTOUTS
100
AcDbCircle
10
-332.50000794063624
20
-311.74999999999841
30
0
40
3.2999999999999829
210
0
220
0
230
1
0
CIRCLE
5
10B
100
AcDbEntity
8
CUTOUTS
100
AcDbCircle
10
-332.50000794063612
20
303.24999999999983
30
0
40
3.2999999999999829
210
0
220
0
230
1
0
CIRCLE
5
10C
100
AcDbEntity
8
CUTOUTS
100
AcDbCircle
10
-332.50000794063612
20
288.24999999999983
30
0
40
3.2999999999999829
210
0
220
0
230
1
0
CIRCLE
5
10D
100
AcDbEntity
8
CUTOUTS
100
AcDbCircle
10
-332.50000794063624
20
-326.74999999999841
30
0
40
3.2999999999999829
210
0
220
0
230
1
0
CIRCLE
5
10E
100
AcDbEntity
8
CUTOUTS
100
AcDbCircle
10
-332.50000794063618
20
47.249999999999837
30
0
40
3.2999999999999829
210
0
220
0
230
1
0
CIRCLE
5
10F
100
AcDbEntity
8
CUTOUTS
100
AcDbCircle
10
-332.50000794063601
20
-0.75000000000017053
30
0
40
3.2999999999999829
210
0
220
0
230
1
0
ARC
5
110
100
AcDbEntity
8
PERIMETER
100
AcDbCircle
10
-276.49999999999932
20
416.24999999999955
30
0
40
2.0000000000000284
210
0
220
0
230
1
100
AcDbArc
50
90.000000000001634
51
180
0
LINE
5
111
100
AcDbEntity
8
PERIMETER
100
AcDbLine
10
-278.49999999999932
20
416.24999999999955
30
0
11
-278.49999999999932
21
388.45710678118644
31
0
0
ARC
5
112
100
AcDbEntity
8
PERIMETER
100
AcDbCircle
10
-280.49999999999932
20
388.4571067811865
30
0
40
1.999999999999996
210
-0
220
0
230
1
100
AcDbArc
50
-45
51
0
0
LINE
5
113
100
AcDbEntity
8
PERIMETER
100
AcDbLine
10
-279.08578643762621
20
387.04289321881333
30
0
11
-338.7928932188139
21
327.33578643762678
31
0
0
ARC
5
114
100
AcDbEntity
8
PERIMETER
100
AcDbCircle
10
-340.20710678118695
20
328.74999999999989
30
0
40
2.0000000000000284
210
-0
220
0
230
1
100
AcDbArc
50
270
51
314.99999999999881
0
LINE
5
115
100
AcDbEntity
8
PERIMETER
100
AcDbLine
10
-340.20710678118695
20
326.74999999999989
30
0
11
-368.00000004087138
21
326.74999999999989
31
0
0
ARC
5
116
100
AcDbEntity
8
PERIMETER
100
AcDbCircle
10
-368.00000004087144
20
324.74999999999989
30
0
40
2.0000000000000284
210
0
220
-0
230
1
100
AcDbArc
50
89.99999999999838
51
180
0
LINE
5
117
100
AcDbEntity
8
PERIMETER
100
AcDbLine
10
-370.0000000408715
20
324.75000002335463
30
0
11
-370.00000789976519
21
-348.24999997664378
31
0
0
ARC
5
118
100
AcDbEntity
8
PERIMETER
100
AcDbCircle
10
-368.00000789976508
20
-348.24999999999847
30
0
40
2.0000000000000995
210
0
220
0
230
1
100
AcDbArc
50
180
51
269.99999999999835
0
LINE
5
119
100
AcDbEntity
8
PERIMETER
100
AcDbLine
10
-368.00000789976514
20
-350.24999999999858
30
0
11
-340.20711472182279
21
-350.24999999999835
31
0
0
ARC
5
11A
100
AcDbEntity
8
PERIMETER
100
AcDbCircle
10
-340.20711472182279
20
-352.24999999999847
30
0
40
2.0000000000000466
210
0
220
-0
230
1
100
AcDbArc
50
44.999999999998849
51
90
0
LINE
5
11B
100
AcDbEntity
8
PERIMETER
100
AcDbLine
10
-338.79290115944963
20
-350.83578643762536
30
0
11
-279.0857943782637
21
-410.54289321881356
31
0
0
ARC
5
11C
100
AcDbEntity
8
PERIMETER
100
AcDbCircle
10
-280.50000794063686
20
-411.95710678118667
30
0
40
1.9999999999999929
210
0
220
-0
230
1
100
AcDbArc
50
0
51
45
0
LINE
5
11D
100
AcDbEntity
8
PERIMETER
100
AcDbLine
10
-278.50000794063686
20
-411.95710678118667
30
0
11
-278.50000794063681
21
-416.25000000000006
31
0
0
ARC
5
11E
100
AcDbEntity
8
PERIMETER
100
AcDbCircle
10
-276.50000794063669
20
-416.25
30
0
40
2.0000000000000995
210
0
220
0
230
1
100
AcDbArc
50
180
51
269.99999999999676
0
LINE
5
11F
100
AcDbEntity
8
PERIMETER
100
AcDbLine
10
-276.50000794063681
20
-418.25000000000011
30
0
11
276.50000794063692
21
-418.25000000000011
31
0
0
ARC
5
120
100
AcDbEntity
8
PERIMETER
100
AcDbCircle
10
276.50000794063681
20
-416.25
30
0
40
2.0000000000000995
210
-0
220
0
230
1
100
AcDbArc
50
270.00000000000324
51
360
0
LINE
5
121
100
AcDbEntity
8
PERIMETER
100
AcDbLine
10
278.50000794063692
20
-416.25000000000011
30
0
11
278.50000794063692
21
-411.95710678118633
31
0
0
ARC
5
122
100
AcDbEntity
8
PERIMETER
100
AcDbCircle
10
280.50000794063686
20
-411.95710678118633
30
0
40
1.999999999999996
210
0
220
0
230
1
100
AcDbArc
50
135.0000000000023
51
180
0
LINE
5
123
100
AcDbEntity
8
PERIMETER
100
AcDbLine
10
279.0857943782637
20
-410.54289321881328
30
0
11
338.79290115944957
21
-350.83578643762479
31
0
0
ARC
5
124
100
AcDbEntity
8
PERIMETER
100
AcDbCircle
10
340.20711472182268
20
-352.2499999999979
30
0
40
2.0000000000000284
210
0
220
-0
230
1
100
AcDbArc
50
90
51
135
0
LINE
5
125
100
AcDbEntity
8
PERIMETER
100
AcDbLine
10
340.20711472182268
20
-350.24999999999784
30
0
11
368.00000789976508
21
-350.24999999999795
31
0
0
ARC
5
126
100
AcDbEntity
8
PERIMETER
100
AcDbCircle
10
368.00000789976502
20
-348.24999999999773
30
0
40
2.0000000000001705
210
-0
220
0
230
1
100
AcDbArc
50
-89.99999999999838
51
0
0
LINE
5
127
100
AcDbEntity
8
PERIMETER
100
AcDbLine
10
370.00000789976519
20
-348.24999997664315
30
0
11
370.00000004087065
21
324.75000002335497
31
0
0
ARC
5
128
100
AcDbEntity
8
PERIMETER
100
AcDbCircle
10
368.00000004087053
20
324.75000000000011
30
0
40
2.0000000000000995
210
0
220
-0
230
1
100
AcDbArc
50
0
51
89.999999999986969
0
LINE
5
129
100
AcDbEntity
8
PERIMETER
100
AcDbLine
10
368.00000004087087
20
326.75000000000023
30
0
11
340.20710678118633
21
326.75000000000023
31
0
0
ARC
5
12A
100
AcDbEntity
8
PERIMETER
100
AcDbCircle
10
340.20710678118633
20
328.75000000000023
30
0
40
1.999999999999996
210
0
220
0
230
1
100
AcDbArc
50
225
51
270
0
LINE
5
12B
100
AcDbEntity
8
PERIMETER
100
AcDbLine
10
338.79289321881322
20
327.33578643762712
30
0
11
279.08578643762542
21
387.04289321881362
31
0
0
ARC
5
12C
100
AcDbEntity
8
PERIMETER
100
AcDbCircle
10
280.49999999999847
20
388.45710678118672
30
0
40
1.9999999999999929
210
0
220
0
230
1
100
AcDbArc
50
180
51
225.00000000000117
0
LINE
5
12D
100
AcDbEntity
8
PERIMETER
100
AcDbLine
10
278.49999999999847
20
388.45710678118672
30
0
11
278.49999999999847
21
416.25000000000011
31
0
0
ARC
5
12E
100
AcDbEntity
8
PERIMETER
100
AcDbCircle
10
276.49999999999847
20
416.25000000000011
30
0
40
1.9999999999999929
210
0
220
-0
230
1
100
AcDbArc
50
0
51
90
0
LINE
5
12F
100
AcDbEntity
8
PERIMETER
100
AcDbLine
10
276.49999999999847
20
418.25000000000017
30
0
11
-276.49999999999937
21
418.2499999999996
31
0
0
ENDSEC
0
SECTION
2
OBJECTS
0
DICTIONARY
5
C
100
AcDbDictionary
3
ACAD_GROUP
350
D
3
ACAD_MLINESTYLE
350
17
0
DICTIONARY
5
D
100
AcDbDictionary
0
DICTIONARY
5
1A
330
C
100
AcDbDictionary
0
DICTIONARY
5
17
100
AcDbDictionary
0
ENDSEC
0
EOF
