0
SECTION
2
HEADER
9
$INSUNITS
70
4
9
$ACADVER
1
AC1014
9
$HANDSEED
5
FFFF
0
ENDSEC
0
SECTION
2
TABLES
0
TABLE
2
VPORT
5
8
100
AcDbSymbolTable
0
ENDTAB
0
TABLE
2
LTYPE
5
5
100
AcDbSymbolTable
70
2
0
LTYPE
5
14
100
AcDbSymbolTableRecord
100
AcDbLinetypeTableRecord
2
BYBLOCK
70
0
0
LTYPE
5
15
100
AcDbSymbolTableRecord
100
AcDbLinetypeTableRecord
2
BYLAYER
70
0
0
ENDTAB
0
TABLE
2
LAYER
5
2
100
AcDbSymbolTable
70
3
0
LAYER
5
50
100
AcDbSymbolTableRecord
100
AcDbLayerTableRecord
2
0
70
0
6
CONTINUOUS
0
LAYER
5
51
100
AcDbSymbolTableRecord
100
AcDbLayerTableRecord
2
CUTOUTS
70
0
62
1
6
CONTINUOUS
0
LAYER
5
52
100
AcDbSymbolTableRecord
100
AcDbLayerTableRecord
2
PERIMETER
70
0
62
5
6
CONTINUOUS
0
ENDTAB
0
TABLE
2
STYLE
5
3
100
AcDbSymbolTable
70
1
0
STYLE
5
11
100
AcDbSymbolTableRecord
100
AcDbTextStyleTableRecord
2
STANDARD
70
0
0
ENDTAB
0
TABLE
2
VIEW
5
6
100
AcDbSymbolTable
0
ENDTAB
0
TABLE
2
UCS
5
7
100
AcDbSymbolTable
0
ENDTAB
0
TABLE
2
APPID
5
9
100
AcDbSymbolTable
70
1
0
APPID
5
12
100
AcDbSymbolTableRecord
100
AcDbRegAppTableRecord
2
ACAD
70
0
0
ENDTAB
0
TABLE
2
DIMSTYLE
5
A
100
AcDbSymbolTable
0
ENDTAB
0
TABLE
2
BLOCK_RECORD
5
1
100
AcDbSymbolTable
70
2
0
BLOCK_RECORD
5
1F
100
AcDbSymbolTableRecord
100
AcDbBlockTableRecord
2
*MODEL_SPACE
0
BLOCK_RECORD
5
1B
100
AcDbSymbolTableRecord
100
AcDbBlockTableRecord
2
*PAPER_SPACE
0
ENDTAB
0
ENDSEC
0
SECTION
2
BLOCKS
0
BLOCK
5
20
100
AcDbEntity
100
AcDbBlockBegin
2
*MODEL_SPACE
0
ENDBLK
5
21
100
AcDbEntity
100
AcDbBlockEnd
0
BLOCK
5
1C
100
AcDbEntity
100
AcDbBlockBegin
2
*PAPER_SPACE
0
ENDBLK
5
1D
100
AcDbEntity
100
AcDbBlockEnd
0
ENDSEC
0
SECTION
2
ENTITIES
0
CIRCLE
5
100
100
AcDbEntity
8
CUTOUTS
100
AcDbCircle
10
175.24999999992545
20
128.24999999991965
30
0
40
3.5000000000000142
210
0
220
0
230
1
0
CIRCLE
5
101
100
AcDbEntity
8
CUTOUTS
100
AcDbCircle
10
175.24999999999977
20
-100.75000000008016
30
0
40
3.5000000000000142
210
0
220
0
230
1
0
CIRCLE
5
102
100
AcDbEntity
8
CUTOUTS
100
AcDbCircle
10
-4.2500000000006111
20
-130.75000000014074
30
0
40
3.5000000000000004
210
0
220
0
230
1
0
CIRCLE
5
103
100
AcDbEntity
8
CUTOUTS
100
AcDbCircle
10
-153.7500000000006
20
-130.7500000001406
30
0
40
3.4999999999999964
210
0
220
0
230
1
0
CIRCLE
5
104
100
AcDbEntity
8
CUTOUTS
100
AcDbCircle
10
145.24999999999949
20
-130.7500000001408
30
0
40
3.4999999999999964
210
0
220
0
230
1
0
CIRCLE
5
105
100
AcDbEntity
8
CUTOUTS
100
AcDbCircle
10
175.24999999999943
20
13.749999999919265
30
0
40
3.5000000000000142
210
0
220
0
230
1
0
CIRCLE
5
106
100
AcDbEntity
8
CUTOUTS
100
AcDbCircle
10
-115.74999999999996
20
6.9999999999997797
30
0
40
2.4000000000000021
210
0
220
0
230
1
0
CIRCLE
5
107
100
AcDbEntity
8
CUTOUTS
100
AcDbCircle
10
-67.249999999999943
20
95.74999999999973
30
0
40
2.4000000000000021
210
0
220
0
230
1
0
CIRCLE
5
108
100
AcDbEntity
8
CUTOUTS
100
AcDbCircle
10
-117.24999999999994
20
95.74999999999973
30
0
40
2.4000000000000021
210
0
220
0
230
1
0
CIRCLE
5
109
100
AcDbEntity
8
CUTOUTS
100
AcDbCircle
10
-67.749999999999943
20
6.9999999999997087
30
0
40
2.4000000000000021
210
0
220
0
230
1
0
CIRCLE
5
10A
100
AcDbEntity
8
CUTOUTS
100
AcDbCircle
10
-179.74999999999983
20
69.249999999999602
30
0
40
3.5000000000000142
210
0
220
0
230
1
0
CIRCLE
5
10B
100
AcDbEntity
8
CUTOUTS
100
AcDbCircle
10
-179.74999999999983
20
-30.750000000000401
30
0
40
3.5000000000000142
210
0
220
0
230
1
0
LINE
5
10C
100
AcDbEntity
8
PERIMETER
100
AcDbLine
10
-169.24999999999986
20
-57.250000000000384
30
0
11
-169.24999999999986
21
-104.25000000000041
31
0
0
ARC
5
10D
100
AcDbEntity
8
PERIMETER
100
AcDbCircle
10
-171.24999999999986
20
-104.25000000000041
30
0
40
1.9999999999999929
210
-0
220
0
230
1
100
AcDbArc
50
-90
51
0
0
LINE
5
10E
100
AcDbEntity
8
PERIMETER
100
AcDbLine
10
-171.24999999999986
20
-106.25000000000041
30
0
11
-187.74999999999983
21
-106.25000000000037
31
0
0
ARC
5
10F
100
AcDbEntity
8
PERIMETER
100
AcDbCircle
10
-187.74999999999983
20
-107.75000000000036
30
0
40
1.4999999999999858
210
0
220
-0
230
1
100
AcDbArc
50
90
51
180
0
LINE
5
110
100
AcDbEntity
8
PERIMETER
100
AcDbLine
10
-189.24999999999983
20
-107.75000000000036
30
0
11
-189.24999999999983
21
-144.75000000000034
31
0
0
LINE
5
111
100
AcDbEntity
8
PERIMETER
100
AcDbLine
10
-189.24999999999983
20
-144.75000000000034
30
0
11
157.24999999999989
21
-144.7500000000002
31
0
0
ARC
5
112
100
AcDbEntity
8
PERIMETER
100
AcDbCircle
10
157.2499999999998
20
-142.75000000000014
30
0
40
2.0000000000000639
210
-0
220
0
230
1
100
AcDbArc
50
270.00000000000244
51
360
0
LINE
5
113
100
AcDbEntity
8
PERIMETER
100
AcDbLine
10
159.24999999999983
20
-142.75000000000023
30
0
11
159.24999999999997
21
-116.75000000000084
31
0
0
ARC
5
114
100
AcDbEntity
8
PERIMETER
100
AcDbCircle
10
161.24999999999994
20
-116.75000000000084
30
0
40
1.9999999999999929
210
0
220
-0
230
1
100
AcDbArc
50
90
51
180
0
LINE
5
115
100
AcDbEntity
8
PERIMETER
100
AcDbLine
10
161.24999999999994
20
-114.75000000000085
30
0
11
187.24999999999989
21
-114.75000000000081
31
0
0
ARC
5
116
100
AcDbEntity
8
PERIMETER
100
AcDbCircle
10
187.2499999999998
20
-112.75000000000078
30
0
40
2.0000000000000284
210
-0
220
0
230
1
100
AcDbArc
50
270.00000000000244
51
360
0
LINE
5
117
100
AcDbEntity
8
PERIMETER
100
AcDbLine
10
189.24999999999983
20
-112.75000000000085
30
0
11
189.24999999999989
21
144.75000000000034
31
0
0
LINE
5
118
100
AcDbEntity
8
PERIMETER
100
AcDbLine
10
189.24999999999989
20
144.75000000000034
30
0
11
-169.24999999999997
21
144.7499999999996
31
0
0
LINE
5
119
100
AcDbEntity
8
PERIMETER
100
AcDbLine
10
-169.24999999999994
20
144.7499999999996
30
0
11
-169.24999999999986
21
95.749999999999588
31
0
0
ARC
5
11A
100
AcDbEntity
8
PERIMETER
100
AcDbCircle
10
-171.24999999999986
20
95.749999999999588
30
0
40
1.9999999999999929
210
-0
220
0
230
1
100
AcDbArc
50
-90
51
0
0
LINE
5
11B
100
AcDbEntity
8
PERIMETER
100
AcDbLine
10
-171.24999999999986
20
93.749999999999588
30
0
11
-188.24999999999986
21
93.749999999999588
31
0
0
ARC
5
11C
100
AcDbEntity
8
PERIMETER
100
AcDbCircle
10
-188.24999999999986
20
92.749999999999616
30
0
40
0.99999999999997868
210
0
220
-0
230
1
100
AcDbArc
50
90
51
180
0
LINE
5
11D
100
AcDbEntity
8
PERIMETER
100
AcDbLine
10
-189.24999999999983
20
92.749999999999616
30
0
11
-189.24999999999986
21
45.749999999999588
31
0
0
ARC
5
11E
100
AcDbEntity
8
PERIMETER
100
AcDbCircle
10
-188.24999999999986
20
45.749999999999588
30
0
40
1.0000000000000142
210
0
220
0
230
1
100
AcDbArc
50
180
51
270
0
LINE
5
11F
100
AcDbEntity
8
PERIMETER
100
AcDbLine
10
-188.24999999999986
20
44.749999999999588
30
0
11
-171.24999999999986
21
44.749999999999602
31
0
0
ARC
5
120
100
AcDbEntity
8
PERIMETER
100
AcDbCircle
10
-171.24999999999986
20
42.749999999999616
30
0
40
1.9999999999999929
210
0
220
-0
230
1
100
AcDbArc
50
0
51
90
0
LINE
5
121
100
AcDbEntity
8
PERIMETER
100
AcDbLine
10
-169.24999999999986
20
42.749999999999616
30
0
11
-169.24999999999986
21
-4.2500000000004157
31
0
0
ARC
5
122
100
AcDbEntity
8
PERIMETER
100
AcDbCircle
10
-171.24999999999986
20
-4.2500000000004157
30
0
40
1.9999999999999929
210
-0
220
0
230
1
100
AcDbArc
50
-90
51
0
0
LINE
5
123
100
AcDbEntity
8
PERIMETER
100
AcDbLine
10
-171.24999999999986
20
-6.2500000000004086
30
0
11
-188.24999999999986
21
-6.2500000000004086
31
0
0
ARC
5
124
100
AcDbEntity
8
PERIMETER
100
AcDbCircle
10
-188.24999999999986
20
-7.2500000000003872
30
0
40
0.99999999999997868
210
0
220
-0
230
1
100
AcDbArc
50
90
51
180
0
LINE
5
125
100
AcDbEntity
8
PERIMETER
100
AcDbLine
10
-189.24999999999983
20
-7.2500000000003872
30
0
11
-189.24999999999986
21
-54.250000000000412
31
0
0
ARC
5
126
100
AcDbEntity
8
PERIMETER
100
AcDbCircle
10
-188.24999999999986
20
-54.250000000000412
30
0
40
1.0000000000000142
210
0
220
0
230
1
100
AcDbArc
50
180
51
270
0
LINE
5
127
100
AcDbEntity
8
PERIMETER
100
AcDbLine
10
-188.24999999999986
20
-55.250000000000426
30
0
11
-171.24999999999986
21
-55.250000000000398
31
0
0
ARC
5
128
100
AcDbEntity
8
PERIMETER
100
AcDbCircle
10
-171.24999999999986
20
-57.250000000000384
30
0
40
1.9999999999999929
210
0
220
-0
230
1
100
AcDbArc
50
0
51
90
0
ENDSEC
0
SECTION
2
OBJECTS
0
DICTIONARY
5
C
100
AcDbDictionary
3
ACAD_GROUP
350
D
3
ACAD_MLINESTYLE
350
17
0
DICTIONARY
5
D
100
AcDbDictionary
0
DICTIONARY
5
1A
330
C
100
AcDbDictionary
0
DICTIONARY
5
17
100
AcDbDictionary
0
ENDSEC
0
EOF
