0
SECTION
2
HEADER
9
$INSUNITS
70
4
9
$ACADVER
1
AC1014
9
$HANDSEED
5
FFFF
0
ENDSEC
0
SECTION
2
TABLES
0
TABLE
2
VPORT
5
8
100
AcDbSymbolTable
0
ENDTAB
0
TABLE
2
LTYPE
5
5
100
AcDbSymbolTable
70
2
0
LTYPE
5
14
100
AcDbSymbolTableRecord
100
AcDbLinetypeTableRecord
2
BYBLOCK
70
0
0
LTYPE
5
15
100
AcDbSymbolTableRecord
100
AcDbLinetypeTableRecord
2
BYLAYER
70
0
0
ENDTAB
0
TABLE
2
LAYER
5
2
100
AcDbSymbolTable
70
3
0
LAYER
5
50
100
AcDbSymbolTableRecord
100
AcDbLayerTableRecord
2
0
70
0
6
CONTINUOUS
0
LAYER
5
51
100
AcDbSymbolTableRecord
100
AcDbLayerTableRecord
2
CUTOUTS
70
0
62
1
6
CONTINUOUS
0
LAYER
5
52
100
AcDbSymbolTableRecord
100
AcDbLayerTableRecord
2
PERIMETER
70
0
62
5
6
CONTINUOUS
0
ENDTAB
0
TABLE
2
STYLE
5
3
100
AcDbSymbolTable
70
1
0
STYLE
5
11
100
AcDbSymbolTableRecord
100
AcDbTextStyleTableRecord
2
STANDARD
70
0
0
ENDTAB
0
TABLE
2
VIEW
5
6
100
AcDbSymbolTable
0
ENDTAB
0
TABLE
2
UCS
5
7
100
AcDbSymbolTable
0
ENDTAB
0
TABLE
2
APPID
5
9
100
AcDbSymbolTable
70
1
0
APPID
5
12
100
AcDbSymbolTableRecord
100
AcDbRegAppTableRecord
2
ACAD
70
0
0
ENDTAB
0
TABLE
2
DIMSTYLE
5
A
100
AcDbSymbolTable
0
ENDTAB
0
TABLE
2
BLOCK_RECORD
5
1
100
AcDbSymbolTable
70
2
0
BLOCK_RECORD
5
1F
100
AcDbSymbolTableRecord
100
AcDbBlockTableRecord
2
*MODEL_SPACE
0
BLOCK_RECORD
5
1B
100
AcDbSymbolTableRecord
100
AcDbBlockTableRecord
2
*PAPER_SPACE
0
ENDTAB
0
ENDSEC
0
SECTION
2
BLOCKS
0
BLOCK
5
20
100
AcDbEntity
100
AcDbBlockBegin
2
*MODEL_SPACE
0
ENDBLK
5
21
100
AcDbEntity
100
AcDbBlockEnd
0
BLOCK
5
1C
100
AcDbEntity
100
AcDbBlockBegin
2
*PAPER_SPACE
0
ENDBLK
5
1D
100
AcDbEntity
100
AcDbBlockEnd
0
ENDSEC
0
SECTION
2
ENTITIES
0
CIRCLE
5
100
100
AcDbEntity
8
CUTOUTS
100
AcDbCircle
10
382.50005935059852
20
64.249999999999972
30
0
40
3.2999999999999829
210
0
220
0
230
1
0
CIRCLE
5
101
100
AcDbEntity
8
CUTOUTS
100
AcDbCircle
10
382.50005935059875
20
186.24999999999997
30
0
40
3.2999999999999829
210
0
220
0
230
1
0
CIRCLE
5
102
100
AcDbEntity
8
CUTOUTS
100
AcDbCircle
10
382.50005935059903
20
-361.74999999999773
30
0
40
3.2999999999999829
210
0
220
0
230
1
0
CIRCLE
5
103
100
AcDbEntity
8
CUTOUTS
100
AcDbCircle
10
382.50005935059858
20
353.25
30
0
40
3.2999999999999829
210
0
220
0
230
1
0
CIRCLE
5
104
100
AcDbEntity
8
CUTOUTS
100
AcDbCircle
10
382.50005935059858
20
338.25
30
0
40
3.2999999999999829
210
0
220
0
230
1
0
CIRCLE
5
105
100
AcDbEntity
8
CUTOUTS
100
AcDbCircle
10
382.50005935059903
20
-376.74999999999773
30
0
40
3.2999999999999829
210
0
220
0
230
1
0
CIRCLE
5
106
100
AcDbEntity
8
CUTOUTS
100
AcDbCircle
10
382.50005935059875
20
97.249999999999972
30
0
40
3.2999999999999829
210
0
220
0
230
1
0
CIRCLE
5
107
100
AcDbEntity
8
CUTOUTS
100
AcDbCircle
10
382.50005935059852
20
49.249999999999972
30
0
40
3.2999999999999829
210
0
220
0
230
1
0
CIRCLE
5
108
100
AcDbEntity
8
CUTOUTS
100
AcDbCircle
10
-382.50005935059966
20
64.249999999999972
30
0
40
3.2999999999999829
210
0
220
0
230
1
0
CIRCLE
5
109
100
AcDbEntity
8
CUTOUTS
100
AcDbCircle
10
-382.50005935059988
20
186.24999999999997
30
0
40
3.2999999999999829
210
0
220
0
230
1
0
CIRCLE
5
10A
100
AcDbEntity
8
CUTOUTS
100
AcDbCircle
10
-382.50005935060017
20
-361.74999999999773
30
0
40
3.2999999999999829
210
0
220
0
230
1
0
CIRCLE
5
10B
100
AcDbEntity
8
CUTOUTS
100
AcDbCircle
10
-382.50005935059971
20
353.25
30
0
40
3.2999999999999829
210
0
220
0
230
1
0
CIRCLE
5
10C
100
AcDbEntity
8
CUTOUTS
100
AcDbCircle
10
-382.50005935059971
20
338.25
30
0
40
3.2999999999999829
210
0
220
0
230
1
0
CIRCLE
5
10D
100
AcDbEntity
8
CUTOUTS
100
AcDbCircle
10
-382.50005935060017
20
-376.74999999999773
30
0
40
3.2999999999999829
210
0
220
0
230
1
0
CIRCLE
5
10E
100
AcDbEntity
8
CUTOUTS
100
AcDbCircle
10
-382.50005935059988
20
97.249999999999972
30
0
40
3.2999999999999829
210
0
220
0
230
1
0
CIRCLE
5
10F
100
AcDbEntity
8
CUTOUTS
100
AcDbCircle
10
-382.50005935059966
20
49.249999999999972
30
0
40
3.2999999999999829
210
0
220
0
230
1
0
LINE
5
110
100
AcDbEntity
8
PERIMETER
100
AcDbLine
10
-326.50005935060017
20
-468.25
30
0
11
326.50005935060028
21
-468.25000000000034
31
0
0
ARC
5
111
100
AcDbEntity
8
PERIMETER
100
AcDbCircle
10
326.5000593506004
20
-466.25000000000045
30
0
40
1.9999999999998863
210
0
220
0
230
1
100
AcDbArc
50
-90.000000000003254
51
0
0
LINE
5
112
100
AcDbEntity
8
PERIMETER
100
AcDbLine
10
328.50005935060028
20
-466.25000000000045
30
0
11
328.50005935060017
21
-461.95710678118598
31
0
0
ARC
5
113
100
AcDbEntity
8
PERIMETER
100
AcDbCircle
10
330.50005935060022
20
-461.95710678118598
30
0
40
1.999999999999996
210
0
220
0
230
1
100
AcDbArc
50
135.00000000000347
51
180
0
LINE
5
114
100
AcDbEntity
8
PERIMETER
100
AcDbLine
10
329.08584578822706
20
-460.54289321881299
30
0
11
388.7929525694135
21
-400.83578643762417
31
0
0
ARC
5
115
100
AcDbEntity
8
PERIMETER
100
AcDbCircle
10
390.20716613178655
20
-402.24999999999727
30
0
40
2.0000000000000284
210
0
220
-0
230
1
100
AcDbArc
50
90
51
134.99999999999886
0
LINE
5
116
100
AcDbEntity
8
PERIMETER
100
AcDbLine
10
390.20716613178655
20
-400.24999999999721
30
0
11
418.00005908428324
21
-400.24999999999739
31
0
0
ARC
5
117
100
AcDbEntity
8
PERIMETER
100
AcDbCircle
10
418.00005908428324
20
-398.24999999999727
30
0
40
2.0000000000000995
210
-0
220
0
230
1
100
AcDbArc
50
-90
51
4.3534084824281419e-06
0
LINE
5
118
100
AcDbEntity
8
PERIMETER
100
AcDbLine
10
420.00005908428335
20
-398.24999984781635
30
0
11
420.00000026631642
21
374.75000015218149
31
0
0
ARC
5
119
100
AcDbEntity
8
PERIMETER
100
AcDbCircle
10
418.00000026631631
20
374.75000000000051
30
0
40
2.0000000000001048
210
0
220
-0
230
1
100
AcDbArc
50
4.3534084824281419e-06
51
89.999999999988603
0
LINE
5
11A
100
AcDbEntity
8
PERIMETER
100
AcDbLine
10
418.00000026631665
20
376.75000000000057
30
0
11
390.20710678118621
21
376.75000000000045
31
0
0
ARC
5
11B
100
AcDbEntity
8
PERIMETER
100
AcDbCircle
10
390.20710678118621
20
378.75000000000051
30
0
40
1.999999999999996
210
0
220
0
230
1
100
AcDbArc
50
225
51
270
0
LINE
5
11C
100
AcDbEntity
8
PERIMETER
100
AcDbLine
10
388.79289321881311
20
377.33578643762741
30
0
11
329.0857864376253
21
437.0428932188139
31
0
0
ARC
5
11D
100
AcDbEntity
8
PERIMETER
100
AcDbCircle
10
330.49999999999835
20
438.45710678118689
30
0
40
2.0000000000000284
210
0
220
0
230
1
100
AcDbArc
50
180
51
224.99999999999883
0
LINE
5
11E
100
AcDbEntity
8
PERIMETER
100
AcDbLine
10
328.49999999999829
20
438.45710678118689
30
0
11
328.49999999999829
21
466.25000000000034
31
0
0
ARC
5
11F
100
AcDbEntity
8
PERIMETER
100
AcDbCircle
10
326.49999999999818
20
466.25000000000028
30
0
40
2.0000000000000995
210
0
220
0
230
1
100
AcDbArc
50
0
51
89.999999999993491
0
LINE
5
120
100
AcDbEntity
8
PERIMETER
100
AcDbLine
10
326.49999999999835
20
468.25000000000045
30
0
11
-326.49999999999949
21
468.24999999999966
31
0
0
ARC
5
121
100
AcDbEntity
8
PERIMETER
100
AcDbCircle
10
-326.49999999999955
20
466.24999999999966
30
0
40
1.9999999999999574
210
0
220
-0
230
1
100
AcDbArc
50
89.99999999999838
51
180
0
LINE
5
122
100
AcDbEntity
8
PERIMETER
100
AcDbLine
10
-328.49999999999955
20
466.24999999999966
30
0
11
-328.49999999999943
21
438.4571067811865
31
0
0
ARC
5
123
100
AcDbEntity
8
PERIMETER
100
AcDbCircle
10
-330.49999999999949
20
438.4571067811865
30
0
40
2.0000000000000466
210
-0
220
0
230
1
100
AcDbArc
50
-45.000000000001165
51
0
0
LINE
5
124
100
AcDbEntity
8
PERIMETER
100
AcDbLine
10
-329.08578643762638
20
437.04289321881339
30
0
11
-388.79289321881402
21
377.33578643762689
31
0
0
ARC
5
125
100
AcDbEntity
8
PERIMETER
100
AcDbCircle
10
-390.20710678118712
20
378.75
30
0
40
2.0000000000000284
210
-0
220
0
230
1
100
AcDbArc
50
270
51
315
0
LINE
5
126
100
AcDbEntity
8
PERIMETER
100
AcDbLine
10
-390.20710678118712
20
376.75000000000006
30
0
11
-418.00000026631727
21
376.75000000000006
31
0
0
ARC
5
127
100
AcDbEntity
8
PERIMETER
100
AcDbCircle
10
-418.00000026631727
20
374.75
30
0
40
2.0000000000000284
210
0
220
-0
230
1
100
AcDbArc
50
90
51
179.99999564659154
0
LINE
5
128
100
AcDbEntity
8
PERIMETER
100
AcDbLine
10
-420.00000026631733
20
374.75000015218109
30
0
11
-420.00005908428329
21
-398.24999984781675
31
0
0
ARC
5
129
100
AcDbEntity
8
PERIMETER
100
AcDbCircle
10
-418.00005908428324
20
-398.2499999999979
30
0
40
2.0000000000000342
210
0
220
0
230
1
100
AcDbArc
50
179.99999564659154
51
270
0
LINE
5
12A
100
AcDbEntity
8
PERIMETER
100
AcDbLine
10
-418.00005908428324
20
-400.24999999999795
30
0
11
-390.20716613178649
21
-400.24999999999773
31
0
0
ARC
5
12B
100
AcDbEntity
8
PERIMETER
100
AcDbCircle
10
-390.20716613178649
20
-402.24999999999773
30
0
40
2.0000000000000466
210
0
220
-0
230
1
100
AcDbArc
50
44.999999999998849
51
90
0
LINE
5
12C
100
AcDbEntity
8
PERIMETER
100
AcDbLine
10
-388.79295256941333
20
-400.83578643762462
30
0
11
-329.08584578822718
21
-460.54289321881345
31
0
0
ARC
5
12D
100
AcDbEntity
8
PERIMETER
100
AcDbCircle
10
-330.50005935060028
20
-461.95710678118644
30
0
40
2.0000000000000284
210
0
220
-0
230
1
100
AcDbArc
50
0
51
44.999999999998849
0
LINE
5
12E
100
AcDbEntity
8
PERIMETER
100
AcDbLine
10
-328.50005935060028
20
-461.95710678118644
30
0
11
-328.50005935060017
21
-466.25
31
0
0
ARC
5
12F
100
AcDbEntity
8
PERIMETER
100
AcDbCircle
10
-326.50005935060017
20
-466.25
30
0
40
2.0000000000000284
210
0
220
0
230
1
100
AcDbArc
50
180
51
270
0
ENDSEC
0
SECTION
2
OBJECTS
0
DICTIONARY
5
C
100
AcDbDictionary
3
ACAD_GROUP
350
D
3
ACAD_MLINESTYLE
350
17
0
DICTIONARY
5
D
100
AcDbDictionary
0
DICTIONARY
5
1A
330
C
100
AcDbDictionary
0
DICTIONARY
5
17
100
AcDbDictionary
0
ENDSEC
0
EOF
