0
SECTION
2
HEADER
9
$INSUNITS
70
4
9
$ACADVER
1
AC1014
9
$HANDSEED
5
FFFF
0
ENDSEC
0
SECTION
2
TABLES
0
TABLE
2
VPORT
5
8
100
AcDbSymbolTable
0
ENDTAB
0
TABLE
2
LTYPE
5
5
100
AcDbSymbolTable
70
2
0
LTYPE
5
14
100
AcDbSymbolTableRecord
100
AcDbLinetypeTableRecord
2
BYBLOCK
70
0
0
LTYPE
5
15
100
AcDbSymbolTableRecord
100
AcDbLinetypeTableRecord
2
BYLAYER
70
0
0
ENDTAB
0
TABLE
2
LAYER
5
2
100
AcDbSymbolTable
70
3
0
LAYER
5
50
100
AcDbSymbolTableRecord
100
AcDbLayerTableRecord
2
0
70
0
6
CONTINUOUS
0
LAYER
5
51
100
AcDbSymbolTableRecord
100
AcDbLayerTableRecord
2
CUTOUTS
70
0
62
1
6
CONTINUOUS
0
LAYER
5
52
100
AcDbSymbolTableRecord
100
AcDbLayerTableRecord
2
PERIMETER
70
0
62
5
6
CONTINUOUS
0
ENDTAB
0
TABLE
2
STYLE
5
3
100
AcDbSymbolTable
70
1
0
STYLE
5
11
100
AcDbSymbolTableRecord
100
AcDbTextStyleTableRecord
2
STANDARD
70
0
0
ENDTAB
0
TABLE
2
VIEW
5
6
100
AcDbSymbolTable
0
ENDTAB
0
TABLE
2
UCS
5
7
100
AcDbSymbolTable
0
ENDTAB
0
TABLE
2
APPID
5
9
100
AcDbSymbolTable
70
1
0
APPID
5
12
100
AcDbSymbolTableRecord
100
AcDbRegAppTableRecord
2
ACAD
70
0
0
ENDTAB
0
TABLE
2
DIMSTYLE
5
A
100
AcDbSymbolTable
0
ENDTAB
0
TABLE
2
BLOCK_RECORD
5
1
100
AcDbSymbolTable
70
2
0
BLOCK_RECORD
5
1F
100
AcDbSymbolTableRecord
100
AcDbBlockTableRecord
2
*MODEL_SPACE
0
BLOCK_RECORD
5
1B
100
AcDbSymbolTableRecord
100
AcDbBlockTableRecord
2
*PAPER_SPACE
0
ENDTAB
0
ENDSEC
0
SECTION
2
BLOCKS
0
BLOCK
5
20
100
AcDbEntity
100
AcDbBlockBegin
2
*MODEL_SPACE
0
ENDBLK
5
21
100
AcDbEntity
100
AcDbBlockEnd
0
BLOCK
5
1C
100
AcDbEntity
100
AcDbBlockBegin
2
*PAPER_SPACE
0
ENDBLK
5
1D
100
AcDbEntity
100
AcDbBlockEnd
0
ENDSEC
0
SECTION
2
ENTITIES
0
CIRCLE
5
100
100
AcDbEntity
8
CUTOUTS
100
AcDbCircle
10
405.00000000000119
20
262.99999999999949
30
0
40
3.2999999999999829
210
0
220
0
230
1
0
CIRCLE
5
101
100
AcDbEntity
8
CUTOUTS
100
AcDbCircle
10
405.00000000000063
20
-298.50000000000045
30
0
40
3.2999999999999829
210
0
220
0
230
1
0
CIRCLE
5
102
100
AcDbEntity
8
CUTOUTS
100
AcDbCircle
10
-253.00000000000014
20
-329.00000000000006
30
0
40
3.2999999999999829
210
0
220
0
230
1
0
CIRCLE
5
103
100
AcDbEntity
8
CUTOUTS
100
AcDbCircle
10
-405.00000000000136
20
-17.750000000000057
30
0
40
3.2999999999999829
210
0
220
0
230
1
0
CIRCLE
5
104
100
AcDbEntity
8
CUTOUTS
100
AcDbCircle
10
339.00000000000136
20
328.99999999999943
30
0
40
3.2999999999999829
210
0
220
0
230
1
0
CIRCLE
5
105
100
AcDbEntity
8
CUTOUTS
100
AcDbCircle
10
-53.000000000000107
20
328.99999999999983
30
0
40
3.3000000000000007
210
0
220
0
230
1
0
CIRCLE
5
106
100
AcDbEntity
8
CUTOUTS
100
AcDbCircle
10
-339.00000000000142
20
328.99999999999989
30
0
40
3.2999999999999829
210
0
220
0
230
1
0
CIRCLE
5
107
100
AcDbEntity
8
CUTOUTS
100
AcDbCircle
10
65.999999999999929
20
328.99999999999955
30
0
40
3.3000000000000007
210
0
220
0
230
1
0
CIRCLE
5
108
100
AcDbEntity
8
CUTOUTS
100
AcDbCircle
10
-405.00000000000136
20
262.99999999999989
30
0
40
3.2999999999999829
210
0
220
0
230
1
0
CIRCLE
5
109
100
AcDbEntity
8
CUTOUTS
100
AcDbCircle
10
-405.00000000000136
20
-298.5
30
0
40
3.2999999999999829
210
0
220
0
230
1
0
CIRCLE
5
10A
100
AcDbEntity
8
CUTOUTS
100
AcDbCircle
10
252.99999999999943
20
-329.00000000000034
30
0
40
3.2999999999999829
210
0
220
0
230
1
0
CIRCLE
5
10B
100
AcDbEntity
8
CUTOUTS
100
AcDbCircle
10
405.00000000000091
20
-17.750000000000455
30
0
40
3.2999999999999829
210
0
220
0
230
1
0
CIRCLE
5
10C
100
AcDbEntity
8
CUTOUTS
100
AcDbCircle
10
-3.4450072480592745e-13
20
-328.99999999999972
30
0
40
3.3000000000000003
210
0
220
0
230
1
0
LINE
5
10D
100
AcDbEntity
8
PERIMETER
100
AcDbLine
10
51.999999999999659
20
340.9999999999992
30
0
11
51.999999999999645
21
315.9999999999992
31
0
0
ARC
5
10E
100
AcDbEntity
8
PERIMETER
100
AcDbCircle
10
49.999999999999645
20
315.9999999999992
30
0
40
1.9999999999999929
210
-0
220
0
230
1
100
AcDbArc
50
-89.999999999999801
51
0
0
LINE
5
10F
100
AcDbEntity
8
PERIMETER
100
AcDbLine
10
49.999999999999652
20
313.99999999999926
30
0
11
40.999999999999645
21
313.99999999999926
31
0
0
ARC
5
110
100
AcDbEntity
8
PERIMETER
100
AcDbCircle
10
40.999999999999631
20
311.99999999999926
30
0
40
1.9999999999999929
210
0
220
-0
230
1
100
AcDbArc
50
89.999999999999588
51
180
0
LINE
5
111
100
AcDbEntity
8
PERIMETER
100
AcDbLine
10
38.999999999999638
20
311.99999999999926
30
0
11
38.999999999999638
21
256.99999999999932
31
0
0
LINE
5
112
100
AcDbEntity
8
PERIMETER
100
AcDbLine
10
38.999999999999638
20
256.99999999999932
30
0
11
31.999999999999631
21
249.99999999999937
31
0
0
LINE
5
113
100
AcDbEntity
8
PERIMETER
100
AcDbLine
10
31.999999999999631
20
249.99999999999937
30
0
11
-32.000000000000377
21
249.99999999999926
31
0
0
LINE
5
114
100
AcDbEntity
8
PERIMETER
100
AcDbLine
10
-32.000000000000377
20
249.99999999999926
30
0
11
-39.000000000000377
21
256.99999999999926
31
0
0
LINE
5
115
100
AcDbEntity
8
PERIMETER
100
AcDbLine
10
-39.000000000000377
20
256.99999999999926
30
0
11
-39.000000000000384
21
340.99999999999932
31
0
0
ARC
5
116
100
AcDbEntity
8
PERIMETER
100
AcDbCircle
10
-41.000000000000384
20
340.99999999999937
30
0
40
2.0000000000000018
210
-0
220
0
230
1
100
AcDbArc
50
0
51
90
0
LINE
5
117
100
AcDbEntity
8
PERIMETER
100
AcDbLine
10
-41.000000000000384
20
342.99999999999943
30
0
11
-351.00000000000171
21
342.99999999999932
31
0
0
ARC
5
118
100
AcDbEntity
8
PERIMETER
100
AcDbCircle
10
-351.00000000000165
20
340.9999999999992
30
0
40
2.0000000000000995
210
0
220
0
230
1
100
AcDbArc
50
90.000000000001634
51
180
0
LINE
5
119
100
AcDbEntity
8
PERIMETER
100
AcDbLine
10
-353.00000000000176
20
340.99999999999932
30
0
11
-353.00000000000176
21
315.99999999999932
31
0
0
ARC
5
11A
100
AcDbEntity
8
PERIMETER
100
AcDbCircle
10
-355.00000000000176
20
315.99999999999932
30
0
40
1.9999999999999929
210
-0
220
0
230
1
100
AcDbArc
50
-90
51
0
0
LINE
5
11B
100
AcDbEntity
8
PERIMETER
100
AcDbLine
10
-355.00000000000176
20
313.99999999999932
30
0
11
-388.00000000000159
21
313.99999999999955
31
0
0
ARC
5
11C
100
AcDbEntity
8
PERIMETER
100
AcDbCircle
10
-388.00000000000153
20
311.99999999999943
30
0
40
2.0000000000000639
210
0
220
0
230
1
100
AcDbArc
50
90.000000000001634
51
180
0
LINE
5
11D
100
AcDbEntity
8
PERIMETER
100
AcDbLine
10
-390.00000000000159
20
311.99999999999955
30
0
11
-390.00000000000165
21
278.9999999999992
31
0
0
ARC
5
11E
100
AcDbEntity
8
PERIMETER
100
AcDbCircle
10
-392.00000000000165
20
278.9999999999992
30
0
40
1.9999999999999929
210
-0
220
0
230
1
100
AcDbArc
50
-90
51
0
0
LINE
5
11F
100
AcDbEntity
8
PERIMETER
100
AcDbLine
10
-392.00000000000165
20
276.9999999999992
30
0
11
-417.00000000000159
21
276.9999999999992
31
0
0
ARC
5
120
100
AcDbEntity
8
PERIMETER
100
AcDbCircle
10
-417.00000000000159
20
274.99999999999915
30
0
40
2.0000000000000284
210
0
220
-0
230
1
100
AcDbArc
50
90
51
180
0
LINE
5
121
100
AcDbEntity
8
PERIMETER
100
AcDbLine
10
-419.00000000000159
20
274.9999999999992
30
0
11
-419.0000000000008
21
-310.50000000000063
31
0
0
ARC
5
122
100
AcDbEntity
8
PERIMETER
100
AcDbCircle
10
-417.0000000000008
20
-310.50000000000063
30
0
40
1.9999999999999574
210
0
220
0
230
1
100
AcDbArc
50
180
51
270.00000000000159
0
LINE
5
123
100
AcDbEntity
8
PERIMETER
100
AcDbLine
10
-417.00000000000074
20
-312.50000000000057
30
0
11
-352.99999999999932
21
-312.50000000000063
31
0
0
ARC
5
124
100
AcDbEntity
8
PERIMETER
100
AcDbCircle
10
-352.99999999999943
20
-310.50000000000051
30
0
40
2.000000000000135
210
-0
220
0
230
1
100
AcDbArc
50
270.00000000000324
51
360
0
LINE
5
125
100
AcDbEntity
8
PERIMETER
100
AcDbLine
10
-350.9999999999992
20
-310.50000000000063
30
0
11
-351.00000000000023
21
-269.00000000000068
31
0
0
LINE
5
126
100
AcDbEntity
8
PERIMETER
100
AcDbLine
10
-351.00000000000023
20
-269.00000000000068
30
0
11
-343.00000000000045
21
-261.00000000000068
31
0
0
LINE
5
127
100
AcDbEntity
8
PERIMETER
100
AcDbLine
10
-343.00000000000045
20
-261.00000000000068
30
0
11
-275.00000000000045
21
-261.00000000000068
31
0
0
LINE
5
128
100
AcDbEntity
8
PERIMETER
100
AcDbLine
10
-275.00000000000045
20
-261.00000000000068
30
0
11
-267.0000000000004
21
-269.00000000000068
31
0
0
LINE
5
129
100
AcDbEntity
8
PERIMETER
100
AcDbLine
10
-267.0000000000004
20
-269.00000000000068
30
0
11
-267.0000000000004
21
-341.00000000000057
31
0
0
ARC
5
12A
100
AcDbEntity
8
PERIMETER
100
AcDbCircle
10
-265.00000000000045
20
-341.00000000000068
30
0
40
1.9999999999999929
210
0
220
0
230
1
100
AcDbArc
50
180
51
270
0
LINE
5
12B
100
AcDbEntity
8
PERIMETER
100
AcDbLine
10
-265.00000000000045
20
-343.00000000000063
30
0
11
264.99999999999915
21
-343.00000000000063
31
0
0
ARC
5
12C
100
AcDbEntity
8
PERIMETER
100
AcDbCircle
10
264.99999999999909
20
-341.00000000000057
30
0
40
2.0000000000000284
210
-0
220
0
230
1
100
AcDbArc
50
-89.99999999999838
51
0
0
LINE
5
12D
100
AcDbEntity
8
PERIMETER
100
AcDbLine
10
266.99999999999909
20
-341.00000000000057
30
0
11
266.9999999999992
21
-269.00000000000108
31
0
0
LINE
5
12E
100
AcDbEntity
8
PERIMETER
100
AcDbLine
10
266.9999999999992
20
-269.00000000000108
30
0
11
274.9999999999992
21
-261.00000000000108
31
0
0
LINE
5
12F
100
AcDbEntity
8
PERIMETER
100
AcDbLine
10
274.9999999999992
20
-261.00000000000108
30
0
11
342.99999999999932
21
-261.00000000000102
31
0
0
LINE
5
130
100
AcDbEntity
8
PERIMETER
100
AcDbLine
10
342.99999999999932
20
-261.00000000000102
30
0
11
350.99999999999909
21
-269.00000000000102
31
0
0
LINE
5
131
100
AcDbEntity
8
PERIMETER
100
AcDbLine
10
350.99999999999909
20
-269.00000000000102
30
0
11
350.99999999999807
21
-310.50000000000097
31
0
0
ARC
5
132
100
AcDbEntity
8
PERIMETER
100
AcDbCircle
10
352.99999999999812
20
-310.50000000000102
30
0
40
2.0000000000000284
210
0
220
0
230
1
100
AcDbArc
50
180
51
270.00000000000159
0
LINE
5
133
100
AcDbEntity
8
PERIMETER
100
AcDbLine
10
352.99999999999812
20
-312.50000000000102
30
0
11
416.99999999999932
21
-312.50000000000108
31
0
0
ARC
5
134
100
AcDbEntity
8
PERIMETER
100
AcDbCircle
10
416.99999999999937
20
-310.50000000000114
30
0
40
1.9999999999999929
210
0
220
0
230
1
100
AcDbArc
50
-90.000000000001634
51
0
0
LINE
5
135
100
AcDbEntity
8
PERIMETER
100
AcDbLine
10
418.99999999999932
20
-310.50000000000114
30
0
11
419.00000000000102
21
274.99999999999875
31
0
0
ARC
5
136
100
AcDbEntity
8
PERIMETER
100
AcDbCircle
10
417.00000000000102
20
274.99999999999875
30
0
40
2.0000000000000284
210
0
220
-0
230
1
100
AcDbArc
50
0
51
90
0
LINE
5
137
100
AcDbEntity
8
PERIMETER
100
AcDbLine
10
417.00000000000102
20
276.99999999999875
30
0
11
392.00000000000108
21
276.99999999999886
31
0
0
ARC
5
138
100
AcDbEntity
8
PERIMETER
100
AcDbCircle
10
392.00000000000108
20
278.99999999999886
30
0
40
2.0000000000000284
210
0
220
0
230
1
100
AcDbArc
50
180
51
270
0
LINE
5
139
100
AcDbEntity
8
PERIMETER
100
AcDbLine
10
390.00000000000108
20
278.99999999999886
30
0
11
390.00000000000108
21
311.99999999999909
31
0
0
ARC
5
13A
100
AcDbEntity
8
PERIMETER
100
AcDbCircle
10
388.00000000000097
20
311.99999999999903
30
0
40
2.0000000000000995
210
0
220
-0
230
1
100
AcDbArc
50
0
51
89.99999999999838
0
LINE
5
13B
100
AcDbEntity
8
PERIMETER
100
AcDbLine
10
388.00000000000102
20
313.99999999999915
30
0
11
355.00000000000108
21
313.99999999999881
31
0
0
ARC
5
13C
100
AcDbEntity
8
PERIMETER
100
AcDbCircle
10
355.00000000000108
20
315.99999999999881
30
0
40
2.0000000000000284
210
0
220
0
230
1
100
AcDbArc
50
180
51
270
0
LINE
5
13D
100
AcDbEntity
8
PERIMETER
100
AcDbLine
10
353.00000000000102
20
315.99999999999881
30
0
11
353.00000000000102
21
340.99999999999881
31
0
0
ARC
5
13E
100
AcDbEntity
8
PERIMETER
100
AcDbCircle
10
351.00000000000085
20
340.99999999999864
30
0
40
2.0000000000001705
210
0
220
-0
230
1
100
AcDbArc
50
0
51
89.999999999995111
0
LINE
5
13F
100
AcDbEntity
8
PERIMETER
100
AcDbLine
10
351.00000000000102
20
342.99999999999886
30
0
11
53.999999999999666
21
342.99999999999926
31
0
0
ARC
5
140
100
AcDbEntity
8
PERIMETER
100
AcDbCircle
10
53.999999999999758
20
340.99999999999915
30
0
40
2.0000000000000995
210
0
220
0
230
1
100
AcDbArc
50
90.000000000002643
51
180
0
ENDSEC
0
SECTION
2
OBJECTS
0
DICTIONARY
5
C
100
AcDbDictionary
3
ACAD_GROUP
350
D
3
ACAD_MLINESTYLE
350
17
0
DICTIONARY
5
D
100
AcDbDictionary
0
DICTIONARY
5
1A
330
C
100
AcDbDictionary
0
DICTIONARY
5
17
100
AcDbDictionary
0
ENDSEC
0
EOF
