0
SECTION
2
HEADER
9
$INSUNITS
70
4
9
$ACADVER
1
AC1014
9
$HANDSEED
5
FFFF
0
ENDSEC
0
SECTION
2
TABLES
0
TABLE
2
VPORT
5
8
100
AcDbSymbolTable
0
ENDTAB
0
TABLE
2
LTYPE
5
5
100
AcDbSymbolTable
70
2
0
LTYPE
5
14
100
AcDbSymbolTableRecord
100
AcDbLinetypeTableRecord
2
BYBLOCK
70
0
0
LTYPE
5
15
100
AcDbSymbolTableRecord
100
AcDbLinetypeTableRecord
2
BYLAYER
70
0
0
ENDTAB
0
TABLE
2
LAYER
5
2
100
AcDbSymbolTable
70
3
0
LAYER
5
50
100
AcDbSymbolTableRecord
100
AcDbLayerTableRecord
2
0
70
0
6
CONTINUOUS
0
LAYER
5
51
100
AcDbSymbolTableRecord
100
AcDbLayerTableRecord
2
CUTOUTS
70
0
62
1
6
CONTINUOUS
0
LAYER
5
52
100
AcDbSymbolTableRecord
100
AcDbLayerTableRecord
2
PERIMETER
70
0
62
5
6
CONTINUOUS
0
ENDTAB
0
TABLE
2
STYLE
5
3
100
AcDbSymbolTable
70
1
0
STYLE
5
11
100
AcDbSymbolTableRecord
100
AcDbTextStyleTableRecord
2
STANDARD
70
0
0
ENDTAB
0
TABLE
2
VIEW
5
6
100
AcDbSymbolTable
0
ENDTAB
0
TABLE
2
UCS
5
7
100
AcDbSymbolTable
0
ENDTAB
0
TABLE
2
APPID
5
9
100
AcDbSymbolTable
70
1
0
APPID
5
12
100
AcDbSymbolTableRecord
100
AcDbRegAppTableRecord
2
ACAD
70
0
0
ENDTAB
0
TABLE
2
DIMSTYLE
5
A
100
AcDbSymbolTable
0
ENDTAB
0
TABLE
2
BLOCK_RECORD
5
1
100
AcDbSymbolTable
70
2
0
BLOCK_RECORD
5
1F
100
AcDbSymbolTableRecord
100
AcDbBlockTableRecord
2
*MODEL_SPACE
0
BLOCK_RECORD
5
1B
100
AcDbSymbolTableRecord
100
AcDbBlockTableRecord
2
*PAPER_SPACE
0
ENDTAB
0
ENDSEC
0
SECTION
2
BLOCKS
0
BLOCK
5
20
100
AcDbEntity
100
AcDbBlockBegin
2
*MODEL_SPACE
0
ENDBLK
5
21
100
AcDbEntity
100
AcDbBlockEnd
0
BLOCK
5
1C
100
AcDbEntity
100
AcDbBlockBegin
2
*PAPER_SPACE
0
ENDBLK
5
1D
100
AcDbEntity
100
AcDbBlockEnd
0
ENDSEC
0
SECTION
2
ENTITIES
0
CIRCLE
5
100
100
AcDbEntity
8
CUTOUTS
100
AcDbCircle
10
179.74999999999994
20
119.75000000000003
30
0
40
3.5000000000000142
210
0
220
0
230
1
0
CIRCLE
5
101
100
AcDbEntity
8
CUTOUTS
100
AcDbCircle
10
144.74999999999983
20
12.250000000000849
30
0
40
8.0000000000000071
210
0
220
0
230
1
0
CIRCLE
5
102
100
AcDbEntity
8
CUTOUTS
100
AcDbCircle
10
153.75000000000028
20
-130.25000000014015
30
0
40
3.4999999999999964
210
0
220
0
230
1
0
CIRCLE
5
103
100
AcDbEntity
8
CUTOUTS
100
AcDbCircle
10
-145.24999999999974
20
-130.25000000014015
30
0
40
3.4999999999999964
210
0
220
0
230
1
0
CIRCLE
5
104
100
AcDbEntity
8
CUTOUTS
100
AcDbCircle
10
-175.24999999999966
20
14.249999999919947
30
0
40
3.5000000000000142
210
0
220
0
230
1
0
CIRCLE
5
105
100
AcDbEntity
8
CUTOUTS
100
AcDbCircle
10
-175.24999999992571
20
128.74999999991994
30
0
40
3.5000000000000142
210
0
220
0
230
1
0
CIRCLE
5
106
100
AcDbEntity
8
CUTOUTS
100
AcDbCircle
10
-175.24999999999974
20
-100.25000000008001
30
0
40
3.5000000000000142
210
0
220
0
230
1
0
CIRCLE
5
107
100
AcDbEntity
8
CUTOUTS
100
AcDbCircle
10
4.2500000000002913
20
-130.25000000014015
30
0
40
3.5000000000000009
210
0
220
0
230
1
0
CIRCLE
5
108
100
AcDbEntity
8
CUTOUTS
100
AcDbCircle
10
144.74999999999983
20
123.75000000000021
30
0
40
1.7999999999999972
210
0
220
0
230
1
0
CIRCLE
5
109
100
AcDbEntity
8
CUTOUTS
100
AcDbCircle
10
54.749999999999837
20
123.75000000000021
30
0
40
1.7999999999999972
210
0
220
0
230
1
0
CIRCLE
5
10A
100
AcDbEntity
8
CUTOUTS
100
AcDbCircle
10
126.24999999999986
20
61.250000000000178
30
0
40
1.5499999999999936
210
0
220
0
230
1
0
CIRCLE
5
10B
100
AcDbEntity
8
CUTOUTS
100
AcDbCircle
10
68.249999999999858
20
12.250000000000156
30
0
40
1.5500000000000025
210
0
220
0
230
1
0
CIRCLE
5
10C
100
AcDbEntity
8
CUTOUTS
100
AcDbCircle
10
126.24999999999986
20
12.250000000000174
30
0
40
1.5499999999999936
210
0
220
0
230
1
0
CIRCLE
5
10D
100
AcDbEntity
8
CUTOUTS
100
AcDbCircle
10
68.249999999999829
20
61.250000000000156
30
0
40
1.5500000000000025
210
0
220
0
230
1
0
CIRCLE
5
10E
100
AcDbEntity
8
CUTOUTS
100
AcDbCircle
10
179.74999999999994
20
19.750000000000032
30
0
40
3.5000000000000142
210
0
220
0
230
1
0
CIRCLE
5
10F
100
AcDbEntity
8
CUTOUTS
100
AcDbCircle
10
179.74999999999994
20
-80.249999999999972
30
0
40
3.5000000000000142
210
0
220
0
230
1
0
LINE
5
110
100
AcDbEntity
8
PERIMETER
100
AcDbLine
10
169.24999999999994
20
-53.749999999999986
30
0
11
169.24999999999997
21
-6.7499999999999538
31
0
0
ARC
5
111
100
AcDbEntity
8
PERIMETER
100
AcDbCircle
10
171.24999999999994
20
-6.7499999999999538
30
0
40
1.9999999999999929
210
0
220
-0
230
1
100
AcDbArc
50
90
51
180
0
LINE
5
112
100
AcDbEntity
8
PERIMETER
100
AcDbLine
10
171.24999999999994
20
-4.7499999999999609
30
0
11
188.24999999999991
21
-4.7499999999999609
31
0
0
ARC
5
113
100
AcDbEntity
8
PERIMETER
100
AcDbCircle
10
188.24999999999991
20
-3.7499999999999822
30
0
40
0.99999999999997868
210
-0
220
0
230
1
100
AcDbArc
50
-90
51
0
0
LINE
5
114
100
AcDbEntity
8
PERIMETER
100
AcDbLine
10
189.24999999999989
20
-3.7499999999999822
30
0
11
189.24999999999994
21
43.250000000000043
31
0
0
ARC
5
115
100
AcDbEntity
8
PERIMETER
100
AcDbCircle
10
188.24999999999991
20
43.250000000000043
30
0
40
1.0000000000000142
210
0
220
-0
230
1
100
AcDbArc
50
0
51
90
0
LINE
5
116
100
AcDbEntity
8
PERIMETER
100
AcDbLine
10
188.24999999999991
20
44.250000000000043
30
0
11
171.24999999999994
21
44.250000000000028
31
0
0
ARC
5
117
100
AcDbEntity
8
PERIMETER
100
AcDbCircle
10
171.24999999999994
20
46.250000000000014
30
0
40
1.9999999999999929
210
0
220
0
230
1
100
AcDbArc
50
180
51
270
0
LINE
5
118
100
AcDbEntity
8
PERIMETER
100
AcDbLine
10
169.24999999999994
20
46.250000000000014
30
0
11
169.24999999999997
21
93.250000000000043
31
0
0
ARC
5
119
100
AcDbEntity
8
PERIMETER
100
AcDbCircle
10
171.24999999999994
20
93.250000000000043
30
0
40
1.9999999999999929
210
0
220
-0
230
1
100
AcDbArc
50
90
51
180
0
LINE
5
11A
100
AcDbEntity
8
PERIMETER
100
AcDbLine
10
171.24999999999994
20
95.250000000000043
30
0
11
188.24999999999991
21
95.250000000000043
31
0
0
ARC
5
11B
100
AcDbEntity
8
PERIMETER
100
AcDbCircle
10
188.24999999999991
20
96.250000000000014
30
0
40
0.99999999999997868
210
-0
220
0
230
1
100
AcDbArc
50
-90
51
0
0
LINE
5
11C
100
AcDbEntity
8
PERIMETER
100
AcDbLine
10
189.24999999999989
20
96.250000000000014
30
0
11
189.24999999999994
21
143.25000000000006
31
0
0
ARC
5
11D
100
AcDbEntity
8
PERIMETER
100
AcDbCircle
10
188.24999999999991
20
143.25000000000006
30
0
40
1.0000000000000142
210
0
220
-0
230
1
100
AcDbArc
50
0
51
90
0
LINE
5
11E
100
AcDbEntity
8
PERIMETER
100
AcDbLine
10
188.24999999999991
20
144.25000000000006
30
0
11
-189.24999999999986
21
144.25000000000003
31
0
0
LINE
5
11F
100
AcDbEntity
8
PERIMETER
100
AcDbLine
10
-189.24999999999986
20
144.25000000000003
30
0
11
-189.24999999999994
21
-112.25
31
0
0
ARC
5
120
100
AcDbEntity
8
PERIMETER
100
AcDbCircle
10
-187.24999999999997
20
-112.25
30
0
40
1.9999999999999574
210
0
220
0
230
1
100
AcDbArc
50
180
51
270.00000000000159
0
LINE
5
121
100
AcDbEntity
8
PERIMETER
100
AcDbLine
10
-187.24999999999991
20
-114.24999999999996
30
0
11
-161.25000000000017
21
-114.25000000000003
31
0
0
ARC
5
122
100
AcDbEntity
8
PERIMETER
100
AcDbCircle
10
-161.25000000000017
20
-116.25000000000001
30
0
40
2.0000000000000284
210
0
220
-0
230
1
100
AcDbArc
50
0
51
90
0
LINE
5
123
100
AcDbEntity
8
PERIMETER
100
AcDbLine
10
-159.25000000000014
20
-116.25000000000001
30
0
11
-159.25000000000014
21
-142.25000000000006
31
0
0
ARC
5
124
100
AcDbEntity
8
PERIMETER
100
AcDbCircle
10
-157.25000000000006
20
-142.25
30
0
40
2.0000000000000995
210
0
220
0
230
1
100
AcDbArc
50
180
51
269.99999999999835
0
LINE
5
125
100
AcDbEntity
8
PERIMETER
100
AcDbLine
10
-157.25000000000011
20
-144.25000000000009
30
0
11
169.24999999999994
21
-144.24999999999991
31
0
0
LINE
5
126
100
AcDbEntity
8
PERIMETER
100
AcDbLine
10
169.24999999999994
20
-144.24999999999991
30
0
11
169.24999999999994
21
-107.24999999999993
31
0
0
ARC
5
127
100
AcDbEntity
8
PERIMETER
100
AcDbCircle
10
171.74999999999994
20
-107.24999999999993
30
0
40
2.5
210
0
220
-0
230
1
100
AcDbArc
50
90
51
180
0
LINE
5
128
100
AcDbEntity
8
PERIMETER
100
AcDbLine
10
171.74999999999994
20
-104.74999999999993
30
0
11
188.24999999999991
21
-104.74999999999996
31
0
0
ARC
5
129
100
AcDbEntity
8
PERIMETER
100
AcDbCircle
10
188.24999999999991
20
-103.74999999999999
30
0
40
0.99999999999997868
210
-0
220
0
230
1
100
AcDbArc
50
-90
51
0
0
LINE
5
12A
100
AcDbEntity
8
PERIMETER
100
AcDbLine
10
189.24999999999989
20
-103.74999999999999
30
0
11
189.24999999999994
21
-56.749999999999957
31
0
0
ARC
5
12B
100
AcDbEntity
8
PERIMETER
100
AcDbCircle
10
188.24999999999991
20
-56.749999999999957
30
0
40
1.0000000000000142
210
0
220
-0
230
1
100
AcDbArc
50
0
51
90
0
LINE
5
12C
100
AcDbEntity
8
PERIMETER
100
AcDbLine
10
188.24999999999991
20
-55.749999999999943
30
0
11
171.24999999999994
21
-55.749999999999972
31
0
0
ARC
5
12D
100
AcDbEntity
8
PERIMETER
100
AcDbCircle
10
171.24999999999994
20
-53.749999999999986
30
0
40
1.9999999999999929
210
0
220
0
230
1
100
AcDbArc
50
180
51
270
0
ENDSEC
0
SECTION
2
OBJECTS
0
DICTIONARY
5
C
100
AcDbDictionary
3
ACAD_GROUP
350
D
3
ACAD_MLINESTYLE
350
17
0
DICTIONARY
5
D
100
AcDbDictionary
0
DICTIONARY
5
1A
330
C
100
AcDbDictionary
0
DICTIONARY
5
17
100
AcDbDictionary
0
ENDSEC
0
EOF
