0
SECTION
2
HEADER
9
$INSUNITS
70
4
9
$ACADVER
1
AC1014
9
$HANDSEED
5
FFFF
0
ENDSEC
0
SECTION
2
TABLES
0
TABLE
2
VPORT
5
8
100
AcDbSymbolTable
0
ENDTAB
0
TABLE
2
LTYPE
5
5
100
AcDbSymbolTable
70
2
0
LTYPE
5
14
100
AcDbSymbolTableRecord
100
AcDbLinetypeTableRecord
2
BYBLOCK
70
0
0
LTYPE
5
15
100
AcDbSymbolTableRecord
100
AcDbLinetypeTableRecord
2
BYLAYER
70
0
0
ENDTAB
0
TABLE
2
LAYER
5
2
100
AcDbSymbolTable
70
3
0
LAYER
5
50
100
AcDbSymbolTableRecord
100
AcDbLayerTableRecord
2
0
70
0
6
CONTINUOUS
0
LAYER
5
51
100
AcDbSymbolTableRecord
100
AcDbLayerTableRecord
2
CUTOUTS
70
0
62
1
6
CONTINUOUS
0
LAYER
5
52
100
AcDbSymbolTableRecord
100
AcDbLayerTableRecord
2
PERIMETER
70
0
62
5
6
CONTINUOUS
0
ENDTAB
0
TABLE
2
STYLE
5
3
100
AcDbSymbolTable
70
1
0
STYLE
5
11
100
AcDbSymbolTableRecord
100
AcDbTextStyleTableRecord
2
STANDARD
70
0
0
ENDTAB
0
TABLE
2
VIEW
5
6
100
AcDbSymbolTable
0
ENDTAB
0
TABLE
2
UCS
5
7
100
AcDbSymbolTable
0
ENDTAB
0
TABLE
2
APPID
5
9
100
AcDbSymbolTable
70
1
0
APPID
5
12
100
AcDbSymbolTableRecord
100
AcDbRegAppTableRecord
2
ACAD
70
0
0
ENDTAB
0
TABLE
2
DIMSTYLE
5
A
100
AcDbSymbolTable
0
ENDTAB
0
TABLE
2
BLOCK_RECORD
5
1
100
AcDbSymbolTable
70
2
0
BLOCK_RECORD
5
1F
100
AcDbSymbolTableRecord
100
AcDbBlockTableRecord
2
*MODEL_SPACE
0
BLOCK_RECORD
5
1B
100
AcDbSymbolTableRecord
100
AcDbBlockTableRecord
2
*PAPER_SPACE
0
ENDTAB
0
ENDSEC
0
SECTION
2
BLOCKS
0
BLOCK
5
20
100
AcDbEntity
100
AcDbBlockBegin
2
*MODEL_SPACE
0
ENDBLK
5
21
100
AcDbEntity
100
AcDbBlockEnd
0
BLOCK
5
1C
100
AcDbEntity
100
AcDbBlockBegin
2
*PAPER_SPACE
0
ENDBLK
5
1D
100
AcDbEntity
100
AcDbBlockEnd
0
ENDSEC
0
SECTION
2
ENTITIES
0
CIRCLE
5
100
100
AcDbEntity
8
CUTOUTS
100
AcDbCircle
10
282.49996000130778
20
-35.749999999959741
30
0
40
3.2999999999999829
210
0
220
0
230
1
0
CIRCLE
5
101
100
AcDbEntity
8
CUTOUTS
100
AcDbCircle
10
282.49996000130784
20
86.250000000040245
30
0
40
3.2999999999999829
210
0
220
0
230
1
0
CIRCLE
5
102
100
AcDbEntity
8
CUTOUTS
100
AcDbCircle
10
282.49996000130784
20
-261.74999999987784
30
0
40
3.2999999999999829
210
0
220
0
230
1
0
CIRCLE
5
103
100
AcDbEntity
8
CUTOUTS
100
AcDbCircle
10
282.49996000130784
20
253.25000000004027
30
0
40
3.2999999999999829
210
0
220
0
230
1
0
CIRCLE
5
104
100
AcDbEntity
8
CUTOUTS
100
AcDbCircle
10
282.49996000130784
20
238.25000000004027
30
0
40
3.2999999999999829
210
0
220
0
230
1
0
CIRCLE
5
105
100
AcDbEntity
8
CUTOUTS
100
AcDbCircle
10
282.49996000130784
20
-276.74999999987784
30
0
40
3.2999999999999829
210
0
220
0
230
1
0
CIRCLE
5
106
100
AcDbEntity
8
CUTOUTS
100
AcDbCircle
10
282.49996000130784
20
-2.7499999999597335
30
0
40
3.2999999999999829
210
0
220
0
230
1
0
CIRCLE
5
107
100
AcDbEntity
8
CUTOUTS
100
AcDbCircle
10
282.49996000130778
20
-50.749999999959741
30
0
40
3.2999999999999829
210
0
220
0
230
1
0
CIRCLE
5
108
100
AcDbEntity
8
CUTOUTS
100
AcDbCircle
10
-282.49996000130784
20
-35.749999999959741
30
0
40
3.2999999999999829
210
0
220
0
230
1
0
CIRCLE
5
109
100
AcDbEntity
8
CUTOUTS
100
AcDbCircle
10
-282.49996000130795
20
86.250000000040245
30
0
40
3.2999999999999829
210
0
220
0
230
1
0
CIRCLE
5
10A
100
AcDbEntity
8
CUTOUTS
100
AcDbCircle
10
-282.49996000130795
20
-261.74999999987784
30
0
40
3.2999999999999829
210
0
220
0
230
1
0
CIRCLE
5
10B
100
AcDbEntity
8
CUTOUTS
100
AcDbCircle
10
-282.4999600013079
20
253.25000000004027
30
0
40
3.2999999999999829
210
0
220
0
230
1
0
CIRCLE
5
10C
100
AcDbEntity
8
CUTOUTS
100
AcDbCircle
10
-282.4999600013079
20
238.25000000004027
30
0
40
3.2999999999999829
210
0
220
0
230
1
0
CIRCLE
5
10D
100
AcDbEntity
8
CUTOUTS
100
AcDbCircle
10
-282.49996000130795
20
-276.74999999987784
30
0
40
3.2999999999999829
210
0
220
0
230
1
0
CIRCLE
5
10E
100
AcDbEntity
8
CUTOUTS
100
AcDbCircle
10
-282.49996000130795
20
-2.7499999999597335
30
0
40
3.2999999999999829
210
0
220
0
230
1
0
CIRCLE
5
10F
100
AcDbEntity
8
CUTOUTS
100
AcDbCircle
10
-282.49996000130784
20
-50.749999999959741
30
0
40
3.2999999999999829
210
0
220
0
230
1
0
LINE
5
110
100
AcDbEntity
8
PERIMETER
100
AcDbLine
10
-228.49999999975623
20
366.24999999999972
30
0
11
-228.49999999975623
21
338.45710678118706
31
0
0
ARC
5
111
100
AcDbEntity
8
PERIMETER
100
AcDbCircle
10
-230.49999999975623
20
338.45710678118706
30
0
40
2.0000000000000213
210
-0
220
0
230
1
100
AcDbArc
50
-45.000000000116898
51
0
0
LINE
5
112
100
AcDbEntity
8
PERIMETER
100
AcDbLine
10
-229.08578643738599
20
337.04289321881106
30
0
11
-288.79289321881578
21
277.33578643762394
31
0
0
ARC
5
113
100
AcDbEntity
8
PERIMETER
100
AcDbCircle
10
-290.20710678118598
20
278.74999999999994
30
0
40
1.9999999999999929
210
-0
220
0
230
1
100
AcDbArc
50
270
51
314.99999999988256
0
LINE
5
114
100
AcDbEntity
8
PERIMETER
100
AcDbLine
10
-290.20710678118598
20
276.74999999999994
30
0
11
-317.99999975862863
21
276.74999999999994
31
0
0
ARC
5
115
100
AcDbEntity
8
PERIMETER
100
AcDbCircle
10
-317.99999975862869
20
274.75
30
0
40
1.9999999999999574
210
0
220
-0
230
1
100
AcDbArc
50
89.99999999999838
51
180.00000381819183
0
LINE
5
116
100
AcDbEntity
8
PERIMETER
100
AcDbLine
10
-319.99999975862863
20
274.74999986207342
30
0
11
-319.99996024267932
21
-298.25000013780436
31
0
0
ARC
5
117
100
AcDbEntity
8
PERIMETER
100
AcDbCircle
10
-317.99996024267932
20
-298.24999999987796
30
0
40
1.999999999999962
210
0
220
0
230
1
100
AcDbArc
50
180.00000381819183
51
270
0
LINE
5
118
100
AcDbEntity
8
PERIMETER
100
AcDbLine
10
-317.99996024267932
20
-300.2499999998779
30
0
11
-290.20706678249445
21
-300.24999999987784
31
0
0
ARC
5
119
100
AcDbEntity
8
PERIMETER
100
AcDbCircle
10
-290.20706678249445
20
-302.2499999998779
30
0
40
1.999999999999996
210
0
220
-0
230
1
100
AcDbArc
50
45
51
90
0
LINE
5
11A
100
AcDbEntity
8
PERIMETER
100
AcDbLine
10
-288.79285322012134
20
-300.83578643750479
30
0
11
-229.0857464388134
21
-360.54289321881362
31
0
0
ARC
5
11B
100
AcDbEntity
8
PERIMETER
100
AcDbCircle
10
-230.49996000118648
20
-361.95710678118672
30
0
40
1.9999999999999929
210
0
220
-0
230
1
100
AcDbArc
50
0
51
45.000000000000568
0
LINE
5
11C
100
AcDbEntity
8
PERIMETER
100
AcDbLine
10
-228.49996000118648
20
-361.95710678118672
30
0
11
-228.49996000118648
21
-366.25000000000006
31
0
0
ARC
5
11D
100
AcDbEntity
8
PERIMETER
100
AcDbCircle
10
-226.49996000118637
20
-366.25
30
0
40
2.0000000000000995
210
0
220
0
230
1
100
AcDbArc
50
180
51
269.99999999999676
0
LINE
5
11E
100
AcDbEntity
8
PERIMETER
100
AcDbLine
10
-226.49996000118648
20
-368.25000000000011
30
0
11
226.49996000118705
21
-368.25000000000011
31
0
0
ARC
5
11F
100
AcDbEntity
8
PERIMETER
100
AcDbCircle
10
226.49996000118693
20
-366.25
30
0
40
2.0000000000000995
210
-0
220
0
230
1
100
AcDbArc
50
270.00000000000324
51
360
0
LINE
5
120
100
AcDbEntity
8
PERIMETER
100
AcDbLine
10
228.49996000118705
20
-366.25000000000011
30
0
11
228.49996000118705
21
-361.95710678118644
31
0
0
ARC
5
121
100
AcDbEntity
8
PERIMETER
100
AcDbCircle
10
230.49996000118705
20
-361.95710678118644
30
0
40
1.999999999999996
210
0
220
0
230
1
100
AcDbArc
50
135
51
180
0
LINE
5
122
100
AcDbEntity
8
PERIMETER
100
AcDbLine
10
229.08574643881394
20
-360.54289321881333
30
0
11
288.79285322012186
21
-300.83578643750457
31
0
0
ARC
5
123
100
AcDbEntity
8
PERIMETER
100
AcDbCircle
10
290.20706678249491
20
-302.24999999987767
30
0
40
2.0000000000000284
210
0
220
-0
230
1
100
AcDbArc
50
90
51
134.99999999999886
0
LINE
5
124
100
AcDbEntity
8
PERIMETER
100
AcDbLine
10
290.20706678249491
20
-300.24999999987762
30
0
11
317.99996024267978
21
-300.24999999987767
31
0
0
ARC
5
125
100
AcDbEntity
8
PERIMETER
100
AcDbCircle
10
317.99996024267989
20
-298.24999999987767
30
0
40
2.0000000000000284
210
0
220
0
230
1
100
AcDbArc
50
269.99999999999676
51
359.99999618180811
0
LINE
5
126
100
AcDbEntity
8
PERIMETER
100
AcDbLine
10
319.99996024267989
20
-298.25000013780425
30
0
11
319.99999975862869
21
274.74999986207371
31
0
0
ARC
5
127
100
AcDbEntity
8
PERIMETER
100
AcDbCircle
10
317.99999975862869
20
274.75000000000023
30
0
40
1.999999999999962
210
-0
220
0
230
1
100
AcDbArc
50
-3.8181918260034482e-06
51
90
0
LINE
5
128
100
AcDbEntity
8
PERIMETER
100
AcDbLine
10
317.99999975862869
20
276.75000000000017
30
0
11
290.20710678118598
21
276.75000000000023
31
0
0
ARC
5
129
100
AcDbEntity
8
PERIMETER
100
AcDbCircle
10
290.20710678118598
20
278.75000000000023
30
0
40
1.999999999999996
210
0
220
0
230
1
100
AcDbArc
50
225.00000000011747
51
270
0
LINE
5
12A
100
AcDbEntity
8
PERIMETER
100
AcDbLine
10
288.79289321881578
20
277.33578643762422
30
0
11
229.08578643738591
21
337.04289321881117
31
0
0
ARC
5
12B
100
AcDbEntity
8
PERIMETER
100
AcDbCircle
10
230.49999999975614
20
338.45710678118724
30
0
40
1.9999999999999929
210
0
220
0
230
1
100
AcDbArc
50
180
51
225.00000000011627
0
LINE
5
12C
100
AcDbEntity
8
PERIMETER
100
AcDbLine
10
228.49999999975614
20
338.45710678118724
30
0
11
228.49999999975611
21
366.25000000000006
31
0
0
ARC
5
12D
100
AcDbEntity
8
PERIMETER
100
AcDbCircle
10
226.49999999975614
20
366.25000000000006
30
0
40
1.9999999999999929
210
0
220
-0
230
1
100
AcDbArc
50
0
51
90
0
LINE
5
12E
100
AcDbEntity
8
PERIMETER
100
AcDbLine
10
226.49999999975614
20
368.25
30
0
11
-226.49999999975626
21
368.2499999999996
31
0
0
ARC
5
12F
100
AcDbEntity
8
PERIMETER
100
AcDbCircle
10
-226.49999999975623
20
366.24999999999972
30
0
40
2.0000000000000284
210
0
220
0
230
1
100
AcDbArc
50
90.00000000000081
51
180
0
ENDSEC
0
SECTION
2
OBJECTS
0
DICTIONARY
5
C
100
AcDbDictionary
3
ACAD_GROUP
350
D
3
ACAD_MLINESTYLE
350
17
0
DICTIONARY
5
D
100
AcDbDictionary
0
DICTIONARY
5
1A
330
C
100
AcDbDictionary
0
DICTIONARY
5
17
100
AcDbDictionary
0
ENDSEC
0
EOF
