0
SECTION
2
HEADER
9
$INSUNITS
70
4
9
$ACADVER
1
AC1014
9
$HANDSEED
5
FFFF
0
ENDSEC
0
SECTION
2
TABLES
0
TABLE
2
VPORT
5
8
100
AcDbSymbolTable
0
ENDTAB
0
TABLE
2
LTYPE
5
5
100
AcDbSymbolTable
70
2
0
LTYPE
5
14
100
AcDbSymbolTableRecord
100
AcDbLinetypeTableRecord
2
BYBLOCK
70
0
0
LTYPE
5
15
100
AcDbSymbolTableRecord
100
AcDbLinetypeTableRecord
2
BYLAYER
70
0
0
ENDTAB
0
TABLE
2
LAYER
5
2
100
AcDbSymbolTable
70
3
0
LAYER
5
50
100
AcDbSymbolTableRecord
100
AcDbLayerTableRecord
2
0
70
0
6
CONTINUOUS
0
LAYER
5
51
100
AcDbSymbolTableRecord
100
AcDbLayerTableRecord
2
CUTOUTS
70
0
62
1
6
CONTINUOUS
0
LAYER
5
52
100
AcDbSymbolTableRecord
100
AcDbLayerTableRecord
2
PERIMETER
70
0
62
5
6
CONTINUOUS
0
ENDTAB
0
TABLE
2
STYLE
5
3
100
AcDbSymbolTable
70
1
0
STYLE
5
11
100
AcDbSymbolTableRecord
100
AcDbTextStyleTableRecord
2
STANDARD
70
0
0
ENDTAB
0
TABLE
2
VIEW
5
6
100
AcDbSymbolTable
0
ENDTAB
0
TABLE
2
UCS
5
7
100
AcDbSymbolTable
0
ENDTAB
0
TABLE
2
APPID
5
9
100
AcDbSymbolTable
70
1
0
APPID
5
12
100
AcDbSymbolTableRecord
100
AcDbRegAppTableRecord
2
ACAD
70
0
0
ENDTAB
0
TABLE
2
DIMSTYLE
5
A
100
AcDbSymbolTable
0
ENDTAB
0
TABLE
2
BLOCK_RECORD
5
1
100
AcDbSymbolTable
70
2
0
BLOCK_RECORD
5
1F
100
AcDbSymbolTableRecord
100
AcDbBlockTableRecord
2
*MODEL_SPACE
0
BLOCK_RECORD
5
1B
100
AcDbSymbolTableRecord
100
AcDbBlockTableRecord
2
*PAPER_SPACE
0
ENDTAB
0
ENDSEC
0
SECTION
2
BLOCKS
0
BLOCK
5
20
100
AcDbEntity
100
AcDbBlockBegin
2
*MODEL_SPACE
0
ENDBLK
5
21
100
AcDbEntity
100
AcDbBlockEnd
0
BLOCK
5
1C
100
AcDbEntity
100
AcDbBlockBegin
2
*PAPER_SPACE
0
ENDBLK
5
1D
100
AcDbEntity
100
AcDbBlockEnd
0
ENDSEC
0
SECTION
2
ENTITIES
0
CIRCLE
5
100
100
AcDbEntity
8
CUTOUTS
100
AcDbCircle
10
354.99999999999977
20
-65.000000000000199
30
0
40
3.2999999999999829
210
0
220
0
230
1
0
CIRCLE
5
101
100
AcDbEntity
8
CUTOUTS
100
AcDbCircle
10
264.99999999999892
20
124.99999999999977
30
0
40
3.2999999999999829
210
0
220
0
230
1
0
CIRCLE
5
102
100
AcDbEntity
8
CUTOUTS
100
AcDbCircle
10
354.99999999999977
20
34.999999999999822
30
0
40
3.2999999999999829
210
0
220
0
230
1
0
CIRCLE
5
103
100
AcDbEntity
8
CUTOUTS
100
AcDbCircle
10
264.99999999999989
20
-125
30
0
40
3.2999999999999829
210
0
220
0
230
1
0
CIRCLE
5
104
100
AcDbEntity
8
CUTOUTS
100
AcDbCircle
10
-1.4210854715202004e-13
20
-125.00000000000016
30
0
40
3.3000000000000003
210
0
220
0
230
1
0
CIRCLE
5
105
100
AcDbEntity
8
CUTOUTS
100
AcDbCircle
10
-355.00000000000006
20
-65.000000000000199
30
0
40
3.2999999999999829
210
0
220
0
230
1
0
CIRCLE
5
106
100
AcDbEntity
8
CUTOUTS
100
AcDbCircle
10
-1.3509661225964119e-13
20
124.99999999997962
30
0
40
3.3000000000000003
210
0
220
0
230
1
0
CIRCLE
5
107
100
AcDbEntity
8
CUTOUTS
100
AcDbCircle
10
-264.9999999999992
20
124.99999999999977
30
0
40
3.2999999999999829
210
0
220
0
230
1
0
CIRCLE
5
108
100
AcDbEntity
8
CUTOUTS
100
AcDbCircle
10
-355.00000000000006
20
34.999999999999822
30
0
40
3.2999999999999829
210
0
220
0
230
1
0
CIRCLE
5
109
100
AcDbEntity
8
CUTOUTS
100
AcDbCircle
10
-265.00000000000011
20
-125
30
0
40
3.2999999999999829
210
0
220
0
230
1
0
LINE
5
10A
100
AcDbEntity
8
PERIMETER
100
AcDbLine
10
-340.20710678118667
20
48.499999999999858
30
0
11
-368.00000000000011
21
48.499999999999858
31
0
0
ARC
5
10B
100
AcDbEntity
8
PERIMETER
100
AcDbCircle
10
-368.00000000000011
20
46.499999999999829
30
0
40
2.0000000000000284
210
0
220
-0
230
1
100
AcDbArc
50
90
51
180
0
LINE
5
10C
100
AcDbEntity
8
PERIMETER
100
AcDbLine
10
-370.00000000000011
20
46.499999999999858
30
0
11
-370.00000000000011
21
-76.500000000000185
31
0
0
ARC
5
10D
100
AcDbEntity
8
PERIMETER
100
AcDbCircle
10
-368.00000000000011
20
-76.500000000000171
30
0
40
2.0000000000000284
210
0
220
0
230
1
100
AcDbArc
50
180
51
270
0
LINE
5
10E
100
AcDbEntity
8
PERIMETER
100
AcDbLine
10
-368.00000000000011
20
-78.500000000000199
30
0
11
-340.11803398875003
21
-78.500000000000185
31
0
0
ARC
5
10F
100
AcDbEntity
8
PERIMETER
100
AcDbCircle
10
-340.11803398875003
20
-80.500000000000185
30
0
40
2.0000000000000018
210
0
220
-0
230
1
100
AcDbArc
50
63.434948822921832
51
90
0
LINE
5
110
100
AcDbEntity
8
PERIMETER
100
AcDbLine
10
-339.22360679775011
20
-78.711145618000359
30
0
11
-279.60557280900025
21
-108.52016261237507
31
0
0
ARC
5
111
100
AcDbEntity
8
PERIMETER
100
AcDbCircle
10
-280.50000000000017
20
-110.30901699437491
30
0
40
1.9999999999999929
210
0
220
-0
230
1
100
AcDbArc
50
0
51
63.434948822921832
0
LINE
5
112
100
AcDbEntity
8
PERIMETER
100
AcDbLine
10
-278.50000000000017
20
-110.30901699437491
30
0
11
-278.50000000000017
21
-138
31
0
0
ARC
5
113
100
AcDbEntity
8
PERIMETER
100
AcDbCircle
10
-276.50000000000017
20
-138
30
0
40
1.9999999999999929
210
0
220
0
230
1
100
AcDbArc
50
180
51
270
0
LINE
5
114
100
AcDbEntity
8
PERIMETER
100
AcDbLine
10
-276.50000000000017
20
-139.99999999999997
30
0
11
276.50000000000023
21
-140.00000000000017
31
0
0
ARC
5
115
100
AcDbEntity
8
PERIMETER
100
AcDbCircle
10
276.50000000000023
20
-138.0000000000002
30
0
40
1.9999999999999751
210
-0
220
0
230
1
100
AcDbArc
50
-90
51
0
0
LINE
5
116
100
AcDbEntity
8
PERIMETER
100
AcDbLine
10
278.50000000000017
20
-138.00000000000017
30
0
11
278.50000000000017
21
-110.30901699437453
31
0
0
ARC
5
117
100
AcDbEntity
8
PERIMETER
100
AcDbCircle
10
280.50000000000017
20
-110.30901699437453
30
0
40
1.9999999999999938
210
0
220
0
230
1
100
AcDbArc
50
116.56505117707799
51
180
0
LINE
5
118
100
AcDbEntity
8
PERIMETER
100
AcDbLine
10
279.60557280900025
20
-108.52016261237469
30
0
11
339.22360679775011
21
-78.711145618000003
31
0
0
ARC
5
119
100
AcDbEntity
8
PERIMETER
100
AcDbCircle
10
340.11803398875003
20
-80.499999999999801
30
0
40
2.0000000000000018
210
0
220
-0
230
1
100
AcDbArc
50
90
51
116.56505117707817
0
LINE
5
11A
100
AcDbEntity
8
PERIMETER
100
AcDbLine
10
340.11803398875003
20
-78.499999999999787
30
0
11
368.00000000000011
21
-78.499999999999744
31
0
0
ARC
5
11B
100
AcDbEntity
8
PERIMETER
100
AcDbCircle
10
368.00000000000017
20
-76.499999999999744
30
0
40
2.0000000000000018
210
0
220
0
230
1
100
AcDbArc
50
269.99999999999835
51
360
0
LINE
5
11C
100
AcDbEntity
8
PERIMETER
100
AcDbLine
10
370.00000000000023
20
-76.499999999999758
30
0
11
370
21
46.500000000000327
31
0
0
ARC
5
11D
100
AcDbEntity
8
PERIMETER
100
AcDbCircle
10
368.00000000000006
20
46.500000000000327
30
0
40
1.9999999999999574
210
0
220
-0
230
1
100
AcDbArc
50
0
51
90.000000000001634
0
LINE
5
11E
100
AcDbEntity
8
PERIMETER
100
AcDbLine
10
368
20
48.500000000000284
30
0
11
340.20710678118644
21
48.500000000000284
31
0
0
ARC
5
11F
100
AcDbEntity
8
PERIMETER
100
AcDbCircle
10
340.20710678118644
20
50.50000000000027
30
0
40
2.0000000000000213
210
0
220
0
230
1
100
AcDbArc
50
225.00000000000142
51
270
0
LINE
5
120
100
AcDbEntity
8
PERIMETER
100
AcDbLine
10
338.79289321881339
20
49.085786437627149
30
0
11
279.08578643762587
21
108.7928932188136
31
0
0
ARC
5
121
100
AcDbEntity
8
PERIMETER
100
AcDbCircle
10
280.49999999999892
20
110.2071067811867
30
0
40
1.9999999999999929
210
0
220
0
230
1
100
AcDbArc
50
180
51
225.00000000000117
0
LINE
5
122
100
AcDbEntity
8
PERIMETER
100
AcDbLine
10
278.49999999999892
20
110.2071067811867
30
0
11
278.49999999999886
21
138.00000000000017
31
0
0
ARC
5
123
100
AcDbEntity
8
PERIMETER
100
AcDbCircle
10
276.49999999999886
20
138.00000000000017
30
0
40
1.9999999999999929
210
0
220
-0
230
1
100
AcDbArc
50
0
51
90
0
LINE
5
124
100
AcDbEntity
8
PERIMETER
100
AcDbLine
10
276.49999999999886
20
140.00000000000017
30
0
11
-276.49999999999926
21
139.99999999999949
31
0
0
ARC
5
125
100
AcDbEntity
8
PERIMETER
100
AcDbCircle
10
-276.4999999999992
20
137.99999999999949
30
0
40
1.9999999999999929
210
0
220
0
230
1
100
AcDbArc
50
90.000000000001634
51
180
0
LINE
5
126
100
AcDbEntity
8
PERIMETER
100
AcDbLine
10
-278.4999999999992
20
137.99999999999949
30
0
11
-278.49999999999915
21
110.20710678118641
31
0
0
ARC
5
127
100
AcDbEntity
8
PERIMETER
100
AcDbCircle
10
-280.49999999999915
20
110.20710678118641
30
0
40
2.0000000000000213
210
-0
220
0
230
1
100
AcDbArc
50
-45.000000000000306
51
0
0
LINE
5
128
100
AcDbEntity
8
PERIMETER
100
AcDbLine
10
-279.08578643762604
20
108.79289321881329
30
0
11
-338.79289321881356
21
49.085786437626751
31
0
0
ARC
5
129
100
AcDbEntity
8
PERIMETER
100
AcDbCircle
10
-340.20710678118667
20
50.499999999999844
30
0
40
1.9999999999999929
210
-0
220
0
230
1
100
AcDbArc
50
270
51
315.00000000000028
0
ENDSEC
0
SECTION
2
OBJECTS
0
DICTIONARY
5
C
100
AcDbDictionary
3
ACAD_GROUP
350
D
3
ACAD_MLINESTYLE
350
17
0
DICTIONARY
5
D
100
AcDbDictionary
0
DICTIONARY
5
1A
330
C
100
AcDbDictionary
0
DICTIONARY
5
17
100
AcDbDictionary
0
ENDSEC
0
EOF
