0
SECTION
2
HEADER
9
$INSUNITS
70
4
9
$ACADVER
1
AC1014
9
$HANDSEED
5
FFFF
0
ENDSEC
0
SECTION
2
TABLES
0
TABLE
2
VPORT
5
8
100
AcDbSymbolTable
0
ENDTAB
0
TABLE
2
LTYPE
5
5
100
AcDbSymbolTable
70
2
0
LTYPE
5
14
100
AcDbSymbolTableRecord
100
AcDbLinetypeTableRecord
2
BYBLOCK
70
0
0
LTYPE
5
15
100
AcDbSymbolTableRecord
100
AcDbLinetypeTableRecord
2
BYLAYER
70
0
0
ENDTAB
0
TABLE
2
LAYER
5
2
100
AcDbSymbolTable
70
3
0
LAYER
5
50
100
AcDbSymbolTableRecord
100
AcDbLayerTableRecord
2
0
70
0
6
CONTINUOUS
0
LAYER
5
51
100
AcDbSymbolTableRecord
100
AcDbLayerTableRecord
2
CUTOUTS
70
0
62
1
6
CONTINUOUS
0
LAYER
5
52
100
AcDbSymbolTableRecord
100
AcDbLayerTableRecord
2
PERIMETER
70
0
62
5
6
CONTINUOUS
0
ENDTAB
0
TABLE
2
STYLE
5
3
100
AcDbSymbolTable
70
1
0
STYLE
5
11
100
AcDbSymbolTableRecord
100
AcDbTextStyleTableRecord
2
STANDARD
70
0
0
ENDTAB
0
TABLE
2
VIEW
5
6
100
AcDbSymbolTable
0
ENDTAB
0
TABLE
2
UCS
5
7
100
AcDbSymbolTable
0
ENDTAB
0
TABLE
2
APPID
5
9
100
AcDbSymbolTable
70
1
0
APPID
5
12
100
AcDbSymbolTableRecord
100
AcDbRegAppTableRecord
2
ACAD
70
0
0
ENDTAB
0
TABLE
2
DIMSTYLE
5
A
100
AcDbSymbolTable
0
ENDTAB
0
TABLE
2
BLOCK_RECORD
5
1
100
AcDbSymbolTable
70
2
0
BLOCK_RECORD
5
1F
100
AcDbSymbolTableRecord
100
AcDbBlockTableRecord
2
*MODEL_SPACE
0
BLOCK_RECORD
5
1B
100
AcDbSymbolTableRecord
100
AcDbBlockTableRecord
2
*PAPER_SPACE
0
ENDTAB
0
ENDSEC
0
SECTION
2
BLOCKS
0
BLOCK
5
20
100
AcDbEntity
100
AcDbBlockBegin
2
*MODEL_SPACE
0
ENDBLK
5
21
100
AcDbEntity
100
AcDbBlockEnd
0
BLOCK
5
1C
100
AcDbEntity
100
AcDbBlockBegin
2
*PAPER_SPACE
0
ENDBLK
5
1D
100
AcDbEntity
100
AcDbBlockEnd
0
ENDSEC
0
SECTION
2
ENTITIES
0
CIRCLE
5
100
100
AcDbEntity
8
CUTOUTS
100
AcDbCircle
10
355.00000000000091
20
212.99999999999977
30
0
40
3.2999999999999829
210
0
220
0
230
1
0
CIRCLE
5
101
100
AcDbEntity
8
CUTOUTS
100
AcDbCircle
10
355.00000000000063
20
-248.50000000000009
30
0
40
3.2999999999999829
210
0
220
0
230
1
0
CIRCLE
5
102
100
AcDbEntity
8
CUTOUTS
100
AcDbCircle
10
-202.99999999999969
20
-279
30
0
40
3.2999999999999829
210
0
220
0
230
1
0
CIRCLE
5
103
100
AcDbEntity
8
CUTOUTS
100
AcDbCircle
10
-355.00000000000091
20
-17.74999999999995
30
0
40
3.2999999999999829
210
0
220
0
230
1
0
CIRCLE
5
104
100
AcDbEntity
8
CUTOUTS
100
AcDbCircle
10
289.00000000000102
20
278.99999999999972
30
0
40
3.2999999999999829
210
0
220
0
230
1
0
CIRCLE
5
105
100
AcDbEntity
8
CUTOUTS
100
AcDbCircle
10
-53.000000000000043
20
278.99999999999994
30
0
40
3.3000000000000007
210
0
220
0
230
1
0
CIRCLE
5
106
100
AcDbEntity
8
CUTOUTS
100
AcDbCircle
10
-289.00000000000102
20
279
30
0
40
3.2999999999999829
210
0
220
0
230
1
0
CIRCLE
5
107
100
AcDbEntity
8
CUTOUTS
100
AcDbCircle
10
66
20
278.99999999999972
30
0
40
3.3000000000000007
210
0
220
0
230
1
0
CIRCLE
5
108
100
AcDbEntity
8
CUTOUTS
100
AcDbCircle
10
-355.00000000000091
20
212.99999999999997
30
0
40
3.2999999999999829
210
0
220
0
230
1
0
CIRCLE
5
109
100
AcDbEntity
8
CUTOUTS
100
AcDbCircle
10
-355.00000000000091
20
-248.49999999999989
30
0
40
3.2999999999999829
210
0
220
0
230
1
0
CIRCLE
5
10A
100
AcDbEntity
8
CUTOUTS
100
AcDbCircle
10
202.9999999999994
20
-279.00000000000017
30
0
40
3.2999999999999829
210
0
220
0
230
1
0
CIRCLE
5
10B
100
AcDbEntity
8
CUTOUTS
100
AcDbCircle
10
355.0000000000008
20
-17.750000000000178
30
0
40
3.2999999999999829
210
0
220
0
230
1
0
CIRCLE
5
10C
100
AcDbEntity
8
CUTOUTS
100
AcDbCircle
10
-1.4947359838709906e-13
20
-278.99999999999977
30
0
40
3.3000000000000003
210
0
220
0
230
1
0
ARC
5
10D
100
AcDbEntity
8
PERIMETER
100
AcDbCircle
10
-41.000000000000114
20
290.99999999999943
30
0
40
1.9999999999999973
210
0
220
-0
230
1
100
AcDbArc
50
0
51
90.000000000000199
0
LINE
5
10E
100
AcDbEntity
8
PERIMETER
100
AcDbLine
10
-41.000000000000121
20
292.99999999999943
30
0
11
-301.00000000000108
21
292.99999999999949
31
0
0
ARC
5
10F
100
AcDbEntity
8
PERIMETER
100
AcDbCircle
10
-301.00000000000108
20
290.99999999999949
30
0
40
1.9999999999999929
210
0
220
-0
230
1
100
AcDbArc
50
90
51
180
0
LINE
5
110
100
AcDbEntity
8
PERIMETER
100
AcDbLine
10
-303.00000000000108
20
290.99999999999949
30
0
11
-303.00000000000114
21
265.99999999999943
31
0
0
ARC
5
111
100
AcDbEntity
8
PERIMETER
100
AcDbCircle
10
-305.00000000000108
20
265.99999999999943
30
0
40
1.9999999999999929
210
-0
220
0
230
1
100
AcDbArc
50
-90
51
0
0
LINE
5
112
100
AcDbEntity
8
PERIMETER
100
AcDbLine
10
-305.00000000000108
20
263.99999999999943
30
0
11
-338.00000000000102
21
263.99999999999955
31
0
0
ARC
5
113
100
AcDbEntity
8
PERIMETER
100
AcDbCircle
10
-338.00000000000102
20
261.99999999999955
30
0
40
2.0000000000000284
210
0
220
-0
230
1
100
AcDbArc
50
90
51
180
0
LINE
5
114
100
AcDbEntity
8
PERIMETER
100
AcDbLine
10
-340.00000000000108
20
261.99999999999955
30
0
11
-340.00000000000102
21
228.99999999999943
31
0
0
ARC
5
115
100
AcDbEntity
8
PERIMETER
100
AcDbCircle
10
-342.00000000000102
20
228.99999999999943
30
0
40
1.9999999999999929
210
-0
220
0
230
1
100
AcDbArc
50
-90
51
0
0
LINE
5
116
100
AcDbEntity
8
PERIMETER
100
AcDbLine
10
-342.00000000000102
20
226.99999999999943
30
0
11
-367.00000000000091
21
226.99999999999937
31
0
0
ARC
5
117
100
AcDbEntity
8
PERIMETER
100
AcDbCircle
10
-367.0000000000008
20
224.99999999999929
30
0
40
2.0000000000000995
210
0
220
0
230
1
100
AcDbArc
50
90.000000000003254
51
180
0
LINE
5
118
100
AcDbEntity
8
PERIMETER
100
AcDbLine
10
-369.00000000000091
20
224.9999999999994
30
0
11
-369.00000000000023
21
-260.50000000000028
31
0
0
ARC
5
119
100
AcDbEntity
8
PERIMETER
100
AcDbCircle
10
-367.00000000000011
20
-260.50000000000023
30
0
40
2.0000000000000995
210
0
220
0
230
1
100
AcDbArc
50
180
51
269.99999999999676
0
LINE
5
11A
100
AcDbEntity
8
PERIMETER
100
AcDbLine
10
-367.00000000000023
20
-262.50000000000034
30
0
11
-302.99999999999864
21
-262.50000000000034
31
0
0
ARC
5
11B
100
AcDbEntity
8
PERIMETER
100
AcDbCircle
10
-302.99999999999864
20
-260.5000000000004
30
0
40
1.9999999999999574
210
-0
220
0
230
1
100
AcDbArc
50
-90
51
0
0
LINE
5
11C
100
AcDbEntity
8
PERIMETER
100
AcDbLine
10
-300.99999999999864
20
-260.50000000000034
30
0
11
-300.9999999999996
21
-219.00000000000051
31
0
0
LINE
5
11D
100
AcDbEntity
8
PERIMETER
100
AcDbLine
10
-300.9999999999996
20
-219.00000000000051
30
0
11
-292.99999999999977
21
-211.00000000000048
31
0
0
LINE
5
11E
100
AcDbEntity
8
PERIMETER
100
AcDbLine
10
-292.99999999999977
20
-211.00000000000048
30
0
11
-224.99999999999972
21
-211.00000000000051
31
0
0
LINE
5
11F
100
AcDbEntity
8
PERIMETER
100
AcDbLine
10
-224.99999999999972
20
-211.00000000000051
30
0
11
-216.99999999999974
21
-219.00000000000051
31
0
0
LINE
5
120
100
AcDbEntity
8
PERIMETER
100
AcDbLine
10
-216.99999999999974
20
-219.00000000000051
30
0
11
-216.99999999999972
21
-291.00000000000045
31
0
0
ARC
5
121
100
AcDbEntity
8
PERIMETER
100
AcDbCircle
10
-214.99999999999974
20
-291.00000000000045
30
0
40
1.9999999999999574
210
0
220
0
230
1
100
AcDbArc
50
180
51
270.0000000000008
0
LINE
5
122
100
AcDbEntity
8
PERIMETER
100
AcDbLine
10
-214.99999999999972
20
-293.00000000000045
30
0
11
214.99999999999937
21
-293.00000000000045
31
0
0
ARC
5
123
100
AcDbEntity
8
PERIMETER
100
AcDbCircle
10
214.99999999999937
20
-291.00000000000045
30
0
40
1.9999999999999929
210
-0
220
0
230
1
100
AcDbArc
50
-90
51
0
0
LINE
5
124
100
AcDbEntity
8
PERIMETER
100
AcDbLine
10
216.99999999999935
20
-291.00000000000045
30
0
11
216.99999999999935
21
-219.00000000000068
31
0
0
LINE
5
125
100
AcDbEntity
8
PERIMETER
100
AcDbLine
10
216.99999999999935
20
-219.00000000000068
30
0
11
224.99999999999937
21
-211.00000000000065
31
0
0
LINE
5
126
100
AcDbEntity
8
PERIMETER
100
AcDbLine
10
224.99999999999937
20
-211.00000000000065
30
0
11
292.99999999999937
21
-211.00000000000077
31
0
0
LINE
5
127
100
AcDbEntity
8
PERIMETER
100
AcDbLine
10
292.99999999999937
20
-211.00000000000077
30
0
11
300.99999999999915
21
-219.00000000000077
31
0
0
LINE
5
128
100
AcDbEntity
8
PERIMETER
100
AcDbLine
10
300.99999999999915
20
-219.00000000000077
30
0
11
300.99999999999812
21
-260.50000000000063
31
0
0
ARC
5
129
100
AcDbEntity
8
PERIMETER
100
AcDbCircle
10
302.99999999999812
20
-260.50000000000068
30
0
40
1.9999999999999929
210
0
220
0
230
1
100
AcDbArc
50
180
51
270
0
LINE
5
12A
100
AcDbEntity
8
PERIMETER
100
AcDbLine
10
302.99999999999812
20
-262.50000000000068
30
0
11
366.99999999999966
21
-262.50000000000068
31
0
0
ARC
5
12B
100
AcDbEntity
8
PERIMETER
100
AcDbCircle
10
366.99999999999977
20
-260.50000000000068
30
0
40
1.9999999999999929
210
0
220
0
230
1
100
AcDbArc
50
-90.000000000003254
51
0
0
LINE
5
12C
100
AcDbEntity
8
PERIMETER
100
AcDbLine
10
368.99999999999972
20
-260.50000000000068
30
0
11
369.00000000000085
21
224.99999999999915
31
0
0
ARC
5
12D
100
AcDbEntity
8
PERIMETER
100
AcDbCircle
10
367.0000000000008
20
224.99999999999915
30
0
40
2.0000000000000284
210
0
220
-0
230
1
100
AcDbArc
50
0
51
90
0
LINE
5
12E
100
AcDbEntity
8
PERIMETER
100
AcDbLine
10
367.0000000000008
20
226.99999999999918
30
0
11
342.00000000000097
21
226.99999999999932
31
0
0
ARC
5
12F
100
AcDbEntity
8
PERIMETER
100
AcDbCircle
10
342.00000000000097
20
228.99999999999932
30
0
40
2.0000000000000284
210
0
220
0
230
1
100
AcDbArc
50
180
51
270
0
LINE
5
130
100
AcDbEntity
8
PERIMETER
100
AcDbLine
10
340.00000000000091
20
228.99999999999932
30
0
11
340.00000000000091
21
261.99999999999943
31
0
0
ARC
5
131
100
AcDbEntity
8
PERIMETER
100
AcDbCircle
10
338.00000000000091
20
261.99999999999937
30
0
40
2.0000000000000284
210
0
220
-0
230
1
100
AcDbArc
50
0
51
90
0
LINE
5
132
100
AcDbEntity
8
PERIMETER
100
AcDbLine
10
338.00000000000091
20
263.99999999999943
30
0
11
305.00000000000097
21
263.9999999999992
31
0
0
ARC
5
133
100
AcDbEntity
8
PERIMETER
100
AcDbCircle
10
305.00000000000097
20
265.9999999999992
30
0
40
1.9999999999999929
210
0
220
0
230
1
100
AcDbArc
50
180
51
270
0
LINE
5
134
100
AcDbEntity
8
PERIMETER
100
AcDbLine
10
303.00000000000097
20
265.9999999999992
30
0
11
303.00000000000097
21
290.99999999999926
31
0
0
ARC
5
135
100
AcDbEntity
8
PERIMETER
100
AcDbCircle
10
301.00000000000097
20
290.99999999999926
30
0
40
1.9999999999999929
210
0
220
-0
230
1
100
AcDbArc
50
0
51
90
0
LINE
5
136
100
AcDbEntity
8
PERIMETER
100
AcDbLine
10
301.00000000000097
20
292.99999999999926
30
0
11
53.99999999999995
21
292.99999999999949
31
0
0
ARC
5
137
100
AcDbEntity
8
PERIMETER
100
AcDbCircle
10
53.999999999999957
20
290.99999999999949
30
0
40
1.9999999999999929
210
0
220
0
230
1
100
AcDbArc
50
90.000000000000199
51
180
0
LINE
5
138
100
AcDbEntity
8
PERIMETER
100
AcDbLine
10
51.999999999999964
20
290.99999999999949
30
0
11
51.999999999999922
21
265.99999999999943
31
0
0
ARC
5
139
100
AcDbEntity
8
PERIMETER
100
AcDbCircle
10
49.999999999999922
20
265.99999999999943
30
0
40
1.9999999999999929
210
-0
220
0
230
1
100
AcDbArc
50
-89.999999999999801
51
0
0
LINE
5
13A
100
AcDbEntity
8
PERIMETER
100
AcDbLine
10
49.999999999999929
20
263.99999999999943
30
0
11
40.999999999999886
21
263.99999999999943
31
0
0
ARC
5
13B
100
AcDbEntity
8
PERIMETER
100
AcDbCircle
10
40.999999999999879
20
261.99999999999943
30
0
40
1.9999999999999929
210
0
220
-0
230
1
100
AcDbArc
50
89.999999999999801
51
180
0
LINE
5
13C
100
AcDbEntity
8
PERIMETER
100
AcDbLine
10
38.999999999999886
20
261.99999999999943
30
0
11
38.999999999999886
21
206.99999999999946
31
0
0
LINE
5
13D
100
AcDbEntity
8
PERIMETER
100
AcDbLine
10
38.999999999999886
20
206.99999999999946
30
0
11
31.999999999999883
21
199.99999999999949
31
0
0
LINE
5
13E
100
AcDbEntity
8
PERIMETER
100
AcDbLine
10
31.999999999999883
20
199.99999999999949
30
0
11
-32.000000000000107
21
199.99999999999943
31
0
0
LINE
5
13F
100
AcDbEntity
8
PERIMETER
100
AcDbLine
10
-32.000000000000107
20
199.99999999999943
30
0
11
-39.000000000000107
21
206.99999999999943
31
0
0
LINE
5
140
100
AcDbEntity
8
PERIMETER
100
AcDbLine
10
-39.000000000000107
20
206.99999999999943
30
0
11
-39.000000000000114
21
290.99999999999943
31
0
0
ENDSEC
0
SECTION
2
OBJECTS
0
DICTIONARY
5
C
100
AcDbDictionary
3
ACAD_GROUP
350
D
3
ACAD_MLINESTYLE
350
17
0
DICTIONARY
5
D
100
AcDbDictionary
0
DICTIONARY
5
1A
330
C
100
AcDbDictionary
0
DICTIONARY
5
17
100
AcDbDictionary
0
ENDSEC
0
EOF
