0
SECTION
2
HEADER
9
$INSUNITS
70
1
9
$ACADVER
1
AC1014
9
$HANDSEED
5
FFFF
0
ENDSEC
0
SECTION
2
TABLES
0
TABLE
2
VPORT
5
8
100
AcDbSymbolTable
0
ENDTAB
0
TABLE
2
LTYPE
5
5
100
AcDbSymbolTable
70
2
0
LTYPE
5
14
100
AcDbSymbolTableRecord
100
AcDbLinetypeTableRecord
2
BYBLOCK
70
0
0
LTYPE
5
15
100
AcDbSymbolTableRecord
100
AcDbLinetypeTableRecord
2
BYLAYER
70
0
0
ENDTAB
0
TABLE
2
LAYER
5
2
100
AcDbSymbolTable
70
3
0
LAYER
5
50
100
AcDbSymbolTableRecord
100
AcDbLayerTableRecord
2
0
70
0
6
CONTINUOUS
0
LAYER
5
51
100
AcDbSymbolTableRecord
100
AcDbLayerTableRecord
2
CUTOUTS
70
0
62
1
6
CONTINUOUS
0
LAYER
5
52
100
AcDbSymbolTableRecord
100
AcDbLayerTableRecord
2
PERIMETER
70
0
62
5
6
CONTINUOUS
0
ENDTAB
0
TABLE
2
STYLE
5
3
100
AcDbSymbolTable
70
1
0
STYLE
5
11
100
AcDbSymbolTableRecord
100
AcDbTextStyleTableRecord
2
STANDARD
70
0
0
ENDTAB
0
TABLE
2
VIEW
5
6
100
AcDbSymbolTable
0
ENDTAB
0
TABLE
2
UCS
5
7
100
AcDbSymbolTable
0
ENDTAB
0
TABLE
2
APPID
5
9
100
AcDbSymbolTable
70
1
0
APPID
5
12
100
AcDbSymbolTableRecord
100
AcDbRegAppTableRecord
2
ACAD
70
0
0
ENDTAB
0
TABLE
2
DIMSTYLE
5
A
100
AcDbSymbolTable
0
ENDTAB
0
TABLE
2
BLOCK_RECORD
5
1
100
AcDbSymbolTable
70
2
0
BLOCK_RECORD
5
1F
100
AcDbSymbolTableRecord
100
AcDbBlockTableRecord
2
*MODEL_SPACE
0
BLOCK_RECORD
5
1B
100
AcDbSymbolTableRecord
100
AcDbBlockTableRecord
2
*PAPER_SPACE
0
ENDTAB
0
ENDSEC
0
SECTION
2
BLOCKS
0
BLOCK
5
20
100
AcDbEntity
100
AcDbBlockBegin
2
*MODEL_SPACE
0
ENDBLK
5
21
100
AcDbEntity
100
AcDbBlockEnd
0
BLOCK
5
1C
100
AcDbEntity
100
AcDbBlockBegin
2
*PAPER_SPACE
0
ENDBLK
5
1D
100
AcDbEntity
100
AcDbBlockEnd
0
ENDSEC
0
SECTION
2
ENTITIES
0
CIRCLE
5
100
100
AcDbEntity
8
CUTOUTS
100
AcDbCircle
10
8.3661396374243697
20
-1.4074803149606323
30
0
40
0.12992125984251901
210
0
220
0
230
1
0
CIRCLE
5
101
100
AcDbEntity
8
CUTOUTS
100
AcDbCircle
10
8.3661396374243697
20
3.395669291338578
30
0
40
0.12992125984251901
210
0
220
0
230
1
0
CIRCLE
5
102
100
AcDbEntity
8
CUTOUTS
100
AcDbCircle
10
8.3661396374243697
20
-10.305118110232998
30
0
40
0.12992125984251901
210
0
220
0
230
1
0
CIRCLE
5
103
100
AcDbEntity
8
CUTOUTS
100
AcDbCircle
10
8.3661396374243679
20
9.9704724409448779
30
0
40
0.12992125984251901
210
0
220
0
230
1
0
CIRCLE
5
104
100
AcDbEntity
8
CUTOUTS
100
AcDbCircle
10
8.3661396374243679
20
9.379921259842515
30
0
40
0.12992125984251901
210
0
220
0
230
1
0
CIRCLE
5
105
100
AcDbEntity
8
CUTOUTS
100
AcDbCircle
10
8.3661396374243697
20
-10.895669291335361
30
0
40
0.12992125984251901
210
0
220
0
230
1
0
CIRCLE
5
106
100
AcDbEntity
8
CUTOUTS
100
AcDbCircle
10
8.3661396374243697
20
-0.10826771653543669
30
0
40
0.12992125984251901
210
0
220
0
230
1
0
CIRCLE
5
107
100
AcDbEntity
8
CUTOUTS
100
AcDbCircle
10
8.3661396374243697
20
-1.9980314960629946
30
0
40
0.12992125984251901
210
0
220
0
230
1
0
CIRCLE
5
108
100
AcDbEntity
8
CUTOUTS
100
AcDbCircle
10
-8.3661396374243715
20
-1.4074803149606323
30
0
40
0.12992125984251901
210
0
220
0
230
1
0
CIRCLE
5
109
100
AcDbEntity
8
CUTOUTS
100
AcDbCircle
10
-8.3661396374243715
20
3.395669291338578
30
0
40
0.12992125984251901
210
0
220
0
230
1
0
CIRCLE
5
10A
100
AcDbEntity
8
CUTOUTS
100
AcDbCircle
10
-8.3661396374243715
20
-10.305118110232998
30
0
40
0.12992125984251901
210
0
220
0
230
1
0
CIRCLE
5
10B
100
AcDbEntity
8
CUTOUTS
100
AcDbCircle
10
-8.3661396374243697
20
9.9704724409448779
30
0
40
0.12992125984251901
210
0
220
0
230
1
0
CIRCLE
5
10C
100
AcDbEntity
8
CUTOUTS
100
AcDbCircle
10
-8.3661396374243697
20
9.379921259842515
30
0
40
0.12992125984251901
210
0
220
0
230
1
0
CIRCLE
5
10D
100
AcDbEntity
8
CUTOUTS
100
AcDbCircle
10
-8.3661396374243715
20
-10.895669291335361
30
0
40
0.12992125984251901
210
0
220
0
230
1
0
CIRCLE
5
10E
100
AcDbEntity
8
CUTOUTS
100
AcDbCircle
10
-8.3661396374243715
20
-0.10826771653543669
30
0
40
0.12992125984251901
210
0
220
0
230
1
0
CIRCLE
5
10F
100
AcDbEntity
8
CUTOUTS
100
AcDbCircle
10
-8.3661396374243715
20
-1.9980314960629946
30
0
40
0.12992125984251901
210
0
220
0
230
1
0
LINE
5
110
100
AcDbEntity
8
PERIMETER
100
AcDbLine
10
8.6695690382601001
20
-11.820866141727457
30
0
11
9.7637774453429547
21
-11.820866141727459
31
0
0
ARC
5
111
100
AcDbEntity
8
PERIMETER
100
AcDbCircle
10
9.7637774453429564
20
-11.742125984247144
30
0
40
0.07874015748031607
210
0
220
0
230
1
100
AcDbArc
50
269.99999999999869
51
359.9999947369858
0
LINE
5
112
100
AcDbEntity
8
PERIMETER
100
AcDbLine
10
9.8425176028232713
20
-11.74212599147079
30
0
11
9.8425196723979891
21
10.81692912663463
31
0
0
ARC
5
113
100
AcDbEntity
8
PERIMETER
100
AcDbCircle
10
9.763779514917676
20
10.816929133858277
30
0
40
0.078740157480312198
210
-0
220
0
230
1
100
AcDbArc
50
-5.2630142080430209e-06
51
90.000000000001307
0
LINE
5
114
100
AcDbEntity
8
PERIMETER
100
AcDbLine
10
9.7637795149176743
20
10.895669291338589
30
0
11
8.6695711331175538
21
10.895669291338587
31
0
0
ARC
5
115
100
AcDbEntity
8
PERIMETER
100
AcDbCircle
10
8.6695711331175538
20
10.974409448818903
30
0
40
0.078740157480314793
210
0
220
0
230
1
100
AcDbArc
50
225.00000000011607
51
270
0
LINE
5
116
100
AcDbEntity
8
PERIMETER
100
AcDbLine
10
8.61389343381164
20
10.918731749512764
30
0
11
6.263219938479768
21
13.269405244835092
31
0
0
ARC
5
117
100
AcDbEntity
8
PERIMETER
100
AcDbCircle
10
6.3188976377856827
20
13.325082944141228
30
0
40
0.078740157480314668
210
0
220
0
230
1
100
AcDbArc
50
180
51
225.00000000011562
0
LINE
5
118
100
AcDbEntity
8
PERIMETER
100
AcDbLine
10
6.2401574803053688
20
13.325082944141228
30
0
11
6.240157480305367
21
14.419291338582676
31
0
0
ARC
5
119
100
AcDbEntity
8
PERIMETER
100
AcDbCircle
10
6.1614173228250531
20
14.41929133858268
30
0
40
0.078740157480313974
210
0
220
-0
230
1
100
AcDbArc
50
0
51
90.000000000000654
0
LINE
5
11A
100
AcDbEntity
8
PERIMETER
100
AcDbLine
10
6.1614173228250522
20
14.498031496062993
30
0
11
-6.1614173228250548
21
14.498031496062984
31
0
0
ARC
5
11B
100
AcDbEntity
8
PERIMETER
100
AcDbCircle
10
-6.1614173228250566
20
14.419291338582671
30
0
40
0.07874015748031328
210
0
220
-0
230
1
100
AcDbArc
50
89.999999999998721
51
180
0
LINE
5
11C
100
AcDbEntity
8
PERIMETER
100
AcDbLine
10
-6.2401574803053697
20
14.419291338582671
30
0
11
-6.2401574803053697
21
13.325082944141222
31
0
0
ARC
5
11D
100
AcDbEntity
8
PERIMETER
100
AcDbCircle
10
-6.3188976377856845
20
13.325082944141222
30
0
40
0.078740157480313808
210
-0
220
0
230
1
100
AcDbArc
50
-45.000000000116081
51
0
0
LINE
5
11E
100
AcDbEntity
8
PERIMETER
100
AcDbLine
10
-6.2632199384797707
20
13.269405244835083
30
0
11
-8.6138934338116382
21
10.918731749512757
31
0
0
ARC
5
11F
100
AcDbEntity
8
PERIMETER
100
AcDbCircle
10
-8.6695711331175538
20
10.974409448818896
30
0
40
0.078740157480314668
210
-0
220
0
230
1
100
AcDbArc
50
270
51
314.99999999988484
0
LINE
5
120
100
AcDbEntity
8
PERIMETER
100
AcDbLine
10
-8.6695711331175538
20
10.895669291338582
30
0
11
-9.7637795149176743
21
10.89566929133858
31
0
0
ARC
5
121
100
AcDbEntity
8
PERIMETER
100
AcDbCircle
10
-9.763779514917676
20
10.816929133858268
30
0
40
0.078740157480311879
210
0
220
-0
230
1
100
AcDbArc
50
89.999999999998721
51
180.00000526301423
0
LINE
5
122
100
AcDbEntity
8
PERIMETER
100
AcDbLine
10
-9.8425196723979891
20
10.816929126634619
30
0
11
-9.8425176028232499
21
-11.742125991470802
31
0
0
ARC
5
123
100
AcDbEntity
8
PERIMETER
100
AcDbCircle
10
-9.7637774453429351
20
-11.742125984247155
30
0
40
0.078740157480315015
210
0
220
0
230
1
100
AcDbArc
50
180.00000526301423
51
270
0
LINE
5
124
100
AcDbEntity
8
PERIMETER
100
AcDbLine
10
-9.7637774453429351
20
-11.820866141727468
30
0
11
-8.6695690382600787
21
-11.820866141727471
31
0
0
ARC
5
125
100
AcDbEntity
8
PERIMETER
100
AcDbCircle
10
-8.6695690382600787
20
-11.899606299207786
30
0
40
0.078740157480315792
210
0
220
-0
230
1
100
AcDbArc
50
45
51
90
0
LINE
5
126
100
AcDbEntity
8
PERIMETER
100
AcDbLine
10
-8.6138913389540512
20
-11.843928599901759
30
0
11
-6.2632178436269728
21
-14.194602095228877
31
0
0
ARC
5
127
100
AcDbEntity
8
PERIMETER
100
AcDbCircle
10
-6.3188955429329994
20
-14.250279794534904
30
0
40
0.078740157480314668
210
0
220
-0
230
1
100
AcDbArc
50
0
51
45.000000000000462
0
LINE
5
128
100
AcDbEntity
8
PERIMETER
100
AcDbLine
10
-6.2401553854526854
20
-14.250279794534904
30
0
11
-6.2401553854526854
21
-14.419291338582676
31
0
0
ARC
5
129
100
AcDbEntity
8
PERIMETER
100
AcDbCircle
10
-6.161415227972368
20
-14.419291338582672
30
0
40
0.078740157480317471
210
0
220
0
230
1
100
AcDbArc
50
180
51
269.99999999999807
0
LINE
5
12A
100
AcDbEntity
8
PERIMETER
100
AcDbLine
10
-6.1614152279723706
20
-14.498031496062989
30
0
11
6.1614152279723955
21
-14.498031496062993
31
0
0
ARC
5
12B
100
AcDbEntity
8
PERIMETER
100
AcDbCircle
10
6.1614152279723928
20
-14.419291338582672
30
0
40
0.078740157480318873
210
-0
220
0
230
1
100
AcDbArc
50
270.00000000000193
51
360
0
LINE
5
12C
100
AcDbEntity
8
PERIMETER
100
AcDbLine
10
6.2401553854527112
20
-14.419291338582676
30
0
11
6.2401553854527094
21
-14.250279794534897
31
0
0
ARC
5
12D
100
AcDbEntity
8
PERIMETER
100
AcDbCircle
10
6.3188955429330251
20
-14.250279794534897
30
0
40
0.078740157480314793
210
0
220
0
230
1
100
AcDbArc
50
135.00000000000091
51
180
0
LINE
5
12E
100
AcDbEntity
8
PERIMETER
100
AcDbLine
10
6.2632178436269976
20
-14.194602095228872
30
0
11
8.6138913389540708
21
-11.843928599901746
31
0
0
ARC
5
12F
100
AcDbEntity
8
PERIMETER
100
AcDbCircle
10
8.6695690382601001
20
-11.899606299207772
30
0
40
0.07874015748031607
210
0
220
-0
230
1
100
AcDbArc
50
90
51
135.00000000000185
0
ENDSEC
0
SECTION
2
OBJECTS
0
DICTIONARY
5
C
100
AcDbDictionary
3
ACAD_GROUP
350
D
3
ACAD_MLINESTYLE
350
17
0
DICTIONARY
5
D
100
AcDbDictionary
0
DICTIONARY
5
1A
330
C
100
AcDbDictionary
0
DICTIONARY
5
17
100
AcDbDictionary
0
ENDSEC
0
EOF
