0
SECTION
2
HEADER
9
$INSUNITS
70
1
9
$ACADVER
1
AC1014
9
$HANDSEED
5
FFFF
0
ENDSEC
0
SECTION
2
TABLES
0
TABLE
2
VPORT
5
8
100
AcDbSymbolTable
0
ENDTAB
0
TABLE
2
LTYPE
5
5
100
AcDbSymbolTable
70
2
0
LTYPE
5
14
100
AcDbSymbolTableRecord
100
AcDbLinetypeTableRecord
2
BYBLOCK
70
0
0
LTYPE
5
15
100
AcDbSymbolTableRecord
100
AcDbLinetypeTableRecord
2
BYLAYER
70
0
0
ENDTAB
0
TABLE
2
LAYER
5
2
100
AcDbSymbolTable
70
3
0
LAYER
5
50
100
AcDbSymbolTableRecord
100
AcDbLayerTableRecord
2
0
70
0
6
CONTINUOUS
0
LAYER
5
51
100
AcDbSymbolTableRecord
100
AcDbLayerTableRecord
2
CUTOUTS
70
0
62
1
6
CONTINUOUS
0
LAYER
5
52
100
AcDbSymbolTableRecord
100
AcDbLayerTableRecord
2
PERIMETER
70
0
62
5
6
CONTINUOUS
0
ENDTAB
0
TABLE
2
STYLE
5
3
100
AcDbSymbolTable
70
1
0
STYLE
5
11
100
AcDbSymbolTableRecord
100
AcDbTextStyleTableRecord
2
STANDARD
70
0
0
ENDTAB
0
TABLE
2
VIEW
5
6
100
AcDbSymbolTable
0
ENDTAB
0
TABLE
2
UCS
5
7
100
AcDbSymbolTable
0
ENDTAB
0
TABLE
2
APPID
5
9
100
AcDbSymbolTable
70
1
0
APPID
5
12
100
AcDbSymbolTableRecord
100
AcDbRegAppTableRecord
2
ACAD
70
0
0
ENDTAB
0
TABLE
2
DIMSTYLE
5
A
100
AcDbSymbolTable
0
ENDTAB
0
TABLE
2
BLOCK_RECORD
5
1
100
AcDbSymbolTable
70
2
0
BLOCK_RECORD
5
1F
100
AcDbSymbolTableRecord
100
AcDbBlockTableRecord
2
*MODEL_SPACE
0
BLOCK_RECORD
5
1B
100
AcDbSymbolTableRecord
100
AcDbBlockTableRecord
2
*PAPER_SPACE
0
ENDTAB
0
ENDSEC
0
SECTION
2
BLOCKS
0
BLOCK
5
20
100
AcDbEntity
100
AcDbBlockBegin
2
*MODEL_SPACE
0
ENDBLK
5
21
100
AcDbEntity
100
AcDbBlockEnd
0
BLOCK
5
1C
100
AcDbEntity
100
AcDbBlockBegin
2
*PAPER_SPACE
0
ENDBLK
5
1D
100
AcDbEntity
100
AcDbBlockEnd
0
ENDSEC
0
SECTION
2
ENTITIES
0
CIRCLE
5
100
100
AcDbEntity
8
CUTOUTS
100
AcDbCircle
10
9.2519685039370092
20
0.31496062992126012
30
0
40
0.12992125984251901
210
0
220
0
230
1
0
CIRCLE
5
101
100
AcDbEntity
8
CUTOUTS
100
AcDbCircle
10
6.0236220472440944
20
-9.0157480314960612
30
0
40
0.1299212598425197
210
0
220
0
230
1
0
CIRCLE
5
102
100
AcDbEntity
8
CUTOUTS
100
AcDbCircle
10
-1.2795275590551165
20
-9.0157480314960612
30
0
40
0.1299212598425197
210
0
220
0
230
1
0
CIRCLE
5
103
100
AcDbEntity
8
CUTOUTS
100
AcDbCircle
10
-9.2519685039370057
20
-5.7874015748031491
30
0
40
0.12992125984251901
210
0
220
0
230
1
0
CIRCLE
5
104
100
AcDbEntity
8
CUTOUTS
100
AcDbCircle
10
-9.2519685039370057
20
6.4173228346456677
30
0
40
0.12992125984251901
210
0
220
0
230
1
0
CIRCLE
5
105
100
AcDbEntity
8
CUTOUTS
100
AcDbCircle
10
2.5984251968503949
20
9.0157480314960612
30
0
40
0.1299212598425197
210
0
220
0
230
1
0
CIRCLE
5
106
100
AcDbEntity
8
CUTOUTS
100
AcDbCircle
10
-6.6535433070866112
20
9.0157480314960612
30
0
40
0.12992125984251901
210
0
220
0
230
1
0
CIRCLE
5
107
100
AcDbEntity
8
CUTOUTS
100
AcDbCircle
10
-2.0866141732283459
20
9.0157480314960594
30
0
40
0.1299212598425197
210
0
220
0
230
1
0
CIRCLE
5
108
100
AcDbEntity
8
CUTOUTS
100
AcDbCircle
10
6.6535433070866148
20
9.0157480314960612
30
0
40
0.12992125984251901
210
0
220
0
230
1
0
CIRCLE
5
109
100
AcDbEntity
8
CUTOUTS
100
AcDbCircle
10
-9.2519685039370057
20
0.31496062992126012
30
0
40
0.12992125984251901
210
0
220
0
230
1
0
CIRCLE
5
10A
100
AcDbEntity
8
CUTOUTS
100
AcDbCircle
10
-6.0236220472440918
20
-9.0157480314960612
30
0
40
0.1299212598425197
210
0
220
0
230
1
0
CIRCLE
5
10B
100
AcDbEntity
8
CUTOUTS
100
AcDbCircle
10
1.2795275590551194
20
-9.0157480314960612
30
0
40
0.1299212598425197
210
0
220
0
230
1
0
CIRCLE
5
10C
100
AcDbEntity
8
CUTOUTS
100
AcDbCircle
10
9.2519685039370092
20
-5.78740157480315
30
0
40
0.12992125984251901
210
0
220
0
230
1
0
CIRCLE
5
10D
100
AcDbEntity
8
CUTOUTS
100
AcDbCircle
10
9.2519685039370092
20
6.4173228346456677
30
0
40
0.12992125984251901
210
0
220
0
230
1
0
LINE
5
10E
100
AcDbEntity
8
PERIMETER
100
AcDbLine
10
2.0472440950748516
20
9.4881889757912905
30
0
11
2.0472440950748512
21
8.5039370072873517
31
0
0
ARC
5
10F
100
AcDbEntity
8
PERIMETER
100
AcDbCircle
10
1.9685039375945359
20
8.5039370072873517
30
0
40
0.078740157480314668
210
-0
220
0
230
1
100
AcDbArc
50
-89.999999999999702
51
0
0
LINE
5
110
100
AcDbEntity
8
PERIMETER
100
AcDbLine
10
1.9685039375945363
20
8.4251968498070369
30
0
11
1.6141732289331181
21
8.4251968498070369
31
0
0
ARC
5
111
100
AcDbEntity
8
PERIMETER
100
AcDbCircle
10
1.6141732289331179
20
8.346456692326722
30
0
40
0.078740157480314668
210
0
220
-0
230
1
100
AcDbArc
50
89.999999999999844
51
180
0
LINE
5
112
100
AcDbEntity
8
PERIMETER
100
AcDbLine
10
1.5354330714528033
20
8.346456692326722
30
0
11
1.5354330714528042
21
6.2137176027498011
31
0
0
ARC
5
113
100
AcDbEntity
8
PERIMETER
100
AcDbCircle
10
1.4566929139724891
20
6.2137176027498011
30
0
40
0.078740157480315043
210
-0
220
0
230
1
100
AcDbArc
50
-44.999999999999439
51
0
0
LINE
5
114
100
AcDbEntity
8
PERIMETER
100
AcDbLine
10
1.5123706132785169
20
6.1580399034437745
30
0
11
1.2829049784459892
21
5.9285742686112473
31
0
0
ARC
5
115
100
AcDbEntity
8
PERIMETER
100
AcDbCircle
10
1.2272272791399625
20
5.9842519679172739
30
0
40
0.078740157480314668
210
-0
220
0
230
1
100
AcDbArc
50
270.00000000000017
51
315.00000000000011
0
LINE
5
116
100
AcDbEntity
8
PERIMETER
100
AcDbLine
10
1.2272272791399628
20
5.9055118104369591
30
0
11
-1.227227279139957
21
5.9055118104369591
31
0
0
ARC
5
117
100
AcDbEntity
8
PERIMETER
100
AcDbCircle
10
-1.2272272791399572
20
5.9842519679172739
30
0
40
0.078740157480315043
210
0
220
0
230
1
100
AcDbArc
50
225.00000000000031
51
270.00000000000017
0
LINE
5
118
100
AcDbEntity
8
PERIMETER
100
AcDbLine
10
-1.2829049784459841
20
5.9285742686112464
30
0
11
-1.5123706132785109
21
6.1580399034437745
31
0
0
ARC
5
119
100
AcDbEntity
8
PERIMETER
100
AcDbCircle
10
-1.456692913972484
20
6.2137176027498002
30
0
40
0.078740157480315029
210
0
220
0
230
1
100
AcDbArc
50
180
51
224.99999999999952
0
LINE
5
11A
100
AcDbEntity
8
PERIMETER
100
AcDbLine
10
-1.5354330714527991
20
6.2137176027498002
30
0
11
-1.5354330714527993
21
9.4881889757912905
31
0
0
ARC
5
11B
100
AcDbEntity
8
PERIMETER
100
AcDbCircle
10
-1.6141732289331148
20
9.4881889757912905
30
0
40
0.078740157480315376
210
0
220
-0
230
1
100
AcDbArc
50
0
51
89.999999999999673
0
LINE
5
11C
100
AcDbEntity
8
PERIMETER
100
AcDbLine
10
-1.6141732289331143
20
9.5669291332716053
30
0
11
-7.1259842513818388
21
9.5669291332716053
31
0
0
ARC
5
11D
100
AcDbEntity
8
PERIMETER
100
AcDbCircle
10
-7.1259842513818388
20
9.4881889757912905
30
0
40
0.078740157480314668
210
0
220
-0
230
1
100
AcDbArc
50
90
51
180
0
LINE
5
11E
100
AcDbEntity
8
PERIMETER
100
AcDbLine
10
-7.2047244088621536
20
9.4881889757912905
30
0
11
-7.2047244088621554
21
8.5039370072873535
31
0
0
ARC
5
11F
100
AcDbEntity
8
PERIMETER
100
AcDbCircle
10
-7.2834645663424693
20
8.5039370072873535
30
0
40
0.078740157480314668
210
-0
220
0
230
1
100
AcDbArc
50
-90
51
0
0
LINE
5
120
100
AcDbEntity
8
PERIMETER
100
AcDbLine
10
-7.2834645663424693
20
8.4251968498070386
30
0
11
-8.5826771647676665
21
8.4251968498070369
31
0
0
ARC
5
121
100
AcDbEntity
8
PERIMETER
100
AcDbCircle
10
-8.5826771647676665
20
8.346456692326722
30
0
40
0.078740157480314668
210
0
220
-0
230
1
100
AcDbArc
50
90
51
180
0
LINE
5
122
100
AcDbEntity
8
PERIMETER
100
AcDbLine
10
-8.6614173222479813
20
8.346456692326722
30
0
11
-8.6614173222479831
21
7.0472440939015257
31
0
0
ARC
5
123
100
AcDbEntity
8
PERIMETER
100
AcDbCircle
10
-8.7401574797282979
20
7.0472440939015257
30
0
40
0.078740157480314668
210
-0
220
0
230
1
100
AcDbArc
50
-90
51
0
0
LINE
5
124
100
AcDbEntity
8
PERIMETER
100
AcDbLine
10
-8.7401574797282979
20
6.9685039364212109
30
0
11
-9.7244094482322332
21
6.9685039364212109
31
0
0
ARC
5
125
100
AcDbEntity
8
PERIMETER
100
AcDbCircle
10
-9.7244094482322332
20
6.8897637789408961
30
0
40
0.078740157480314668
210
0
220
-0
230
1
100
AcDbArc
50
90
51
180
0
LINE
5
126
100
AcDbEntity
8
PERIMETER
100
AcDbLine
10
-9.803149605712548
20
6.8897637789408961
30
0
11
-9.8031496057125498
21
-6.2598425190983793
31
0
0
ARC
5
127
100
AcDbEntity
8
PERIMETER
100
AcDbCircle
10
-9.724409448232235
20
-6.2598425190983829
30
0
40
0.078740157480314668
210
0
220
0
230
1
100
AcDbArc
50
180
51
270
0
LINE
5
128
100
AcDbEntity
8
PERIMETER
100
AcDbLine
10
-9.724409448232235
20
-6.3385826765786968
30
0
11
-6.9223790200726318
21
-6.338582676578695
31
0
0
ARC
5
129
100
AcDbEntity
8
PERIMETER
100
AcDbCircle
10
-6.9223790200726318
20
-6.4173228340590098
30
0
40
0.078740157480314793
210
0
220
-0
230
1
100
AcDbArc
50
45
51
90
0
LINE
5
12A
100
AcDbEntity
8
PERIMETER
100
AcDbLine
10
-6.8667013207666043
20
-6.3616451347529823
30
0
11
-6.5978656071939223
21
-6.6304808483256679
31
0
0
ARC
5
12B
100
AcDbEntity
8
PERIMETER
100
AcDbCircle
10
-6.6535433064999498
20
-6.6861585476316954
30
0
40
0.078740157480314668
210
0
220
-0
230
1
100
AcDbArc
50
0
51
45
0
LINE
5
12C
100
AcDbEntity
8
PERIMETER
100
AcDbLine
10
-6.574803149019635
20
-6.6861585476316954
30
0
11
-6.574803149019635
21
-9.4881889757912941
31
0
0
ARC
5
12D
100
AcDbEntity
8
PERIMETER
100
AcDbCircle
10
-6.4960629915393202
20
-9.4881889757912941
30
0
40
0.078740157480314668
210
0
220
0
230
1
100
AcDbArc
50
180
51
270
0
LINE
5
12E
100
AcDbEntity
8
PERIMETER
100
AcDbLine
10
-6.4960629915393202
20
-9.5669291332716071
30
0
11
-0.80708661475988508
21
-9.5669291332716071
31
0
0
ARC
5
12F
100
AcDbEntity
8
PERIMETER
100
AcDbCircle
10
-0.8070866147598853
20
-9.4881889757912941
30
0
40
0.078740157480314668
210
-0
220
0
230
1
100
AcDbArc
50
-89.999999999999844
51
0
0
LINE
5
130
100
AcDbEntity
8
PERIMETER
100
AcDbLine
10
-0.72834645727957059
20
-9.4881889757912941
30
0
11
-0.72834645727957026
21
-8.5629921253975922
31
0
0
ARC
5
131
100
AcDbEntity
8
PERIMETER
100
AcDbCircle
10
-0.64960629979925544
20
-8.5629921253975922
30
0
40
0.078740157480314668
210
0
220
-0
230
1
100
AcDbArc
50
90
51
180
0
LINE
5
132
100
AcDbEntity
8
PERIMETER
100
AcDbLine
10
-0.64960629979925544
20
-8.4842519679172774
30
0
11
0.64960629979926099
21
-8.4842519679172774
31
0
0
ARC
5
133
100
AcDbEntity
8
PERIMETER
100
AcDbCircle
10
0.64960629979926099
20
-8.5629921253975922
30
0
40
0.078740157480314932
210
0
220
-0
230
1
100
AcDbArc
50
0
51
90
0
LINE
5
134
100
AcDbEntity
8
PERIMETER
100
AcDbLine
10
0.72834645727957592
20
-8.5629921253975922
30
0
11
0.72834645727957603
21
-9.4881889757912941
31
0
0
ARC
5
135
100
AcDbEntity
8
PERIMETER
100
AcDbCircle
10
0.80708661475989119
20
-9.4881889757912941
30
0
40
0.078740157480315195
210
0
220
0
230
1
100
AcDbArc
50
180
51
269.99999999999989
0
LINE
5
136
100
AcDbEntity
8
PERIMETER
100
AcDbLine
10
0.80708661475989107
20
-9.5669291332716071
30
0
11
6.4960629915393273
21
-9.5669291332716071
31
0
0
ARC
5
137
100
AcDbEntity
8
PERIMETER
100
AcDbCircle
10
6.4960629915393273
20
-9.4881889757912941
30
0
40
0.078740157480314668
210
-0
220
0
230
1
100
AcDbArc
50
-90
51
0
0
LINE
5
138
100
AcDbEntity
8
PERIMETER
100
AcDbLine
10
6.5748031490196421
20
-9.4881889757912941
30
0
11
6.574803149019643
21
-6.6861585476316936
31
0
0
ARC
5
139
100
AcDbEntity
8
PERIMETER
100
AcDbCircle
10
6.6535433064999578
20
-6.6861585476316936
30
0
40
0.078740157480314793
210
0
220
0
230
1
100
AcDbArc
50
135
51
180
0
LINE
5
13A
100
AcDbEntity
8
PERIMETER
100
AcDbLine
10
6.5978656071939303
20
-6.6304808483256661
30
0
11
6.8667013207666159
21
-6.3616451347529823
31
0
0
ARC
5
13B
100
AcDbEntity
8
PERIMETER
100
AcDbCircle
10
6.9223790200726434
20
-6.4173228340590098
30
0
40
0.078740157480314668
210
0
220
-0
230
1
100
AcDbArc
50
90
51
135
0
LINE
5
13C
100
AcDbEntity
8
PERIMETER
100
AcDbLine
10
6.9223790200726434
20
-6.338582676578695
30
0
11
9.7244094482322385
21
-6.338582676578695
31
0
0
ARC
5
13D
100
AcDbEntity
8
PERIMETER
100
AcDbCircle
10
9.724409448232235
20
-6.2598425190983775
30
0
40
0.078740157480317471
210
-0
220
0
230
1
100
AcDbArc
50
270.00000000000261
51
360
0
LINE
5
13E
100
AcDbEntity
8
PERIMETER
100
AcDbLine
10
9.8031496057125533
20
-6.2598425190983793
30
0
11
9.8031496057125551
21
6.8897637789408961
31
0
0
ARC
5
13F
100
AcDbEntity
8
PERIMETER
100
AcDbCircle
10
9.7244094482322403
20
6.8897637789408961
30
0
40
0.078740157480314668
210
-0
220
0
230
1
100
AcDbArc
50
0
51
90
0
LINE
5
140
100
AcDbEntity
8
PERIMETER
100
AcDbLine
10
9.7244094482322403
20
6.9685039364212109
30
0
11
8.740157479728305
21
6.9685039364212109
31
0
0
ARC
5
141
100
AcDbEntity
8
PERIMETER
100
AcDbCircle
10
8.740157479728305
20
7.0472440939015257
30
0
40
0.078740157480314668
210
0
220
0
230
1
100
AcDbArc
50
180
51
270
0
LINE
5
142
100
AcDbEntity
8
PERIMETER
100
AcDbLine
10
8.6614173222479902
20
7.0472440939015257
30
0
11
8.6614173222479884
21
8.346456692326722
31
0
0
ARC
5
143
100
AcDbEntity
8
PERIMETER
100
AcDbCircle
10
8.5826771647676736
20
8.346456692326722
30
0
40
0.078740157480314668
210
0
220
-0
230
1
100
AcDbArc
50
0
51
90
0
LINE
5
144
100
AcDbEntity
8
PERIMETER
100
AcDbLine
10
8.5826771647676736
20
8.4251968498070369
30
0
11
7.2834645663424764
21
8.4251968498070369
31
0
0
ARC
5
145
100
AcDbEntity
8
PERIMETER
100
AcDbCircle
10
7.2834645663424764
20
8.5039370072873517
30
0
40
0.078740157480314668
210
0
220
0
230
1
100
AcDbArc
50
180
51
270
0
LINE
5
146
100
AcDbEntity
8
PERIMETER
100
AcDbLine
10
7.2047244088621625
20
8.5039370072873517
30
0
11
7.2047244088621607
21
9.4881889757912905
31
0
0
ARC
5
147
100
AcDbEntity
8
PERIMETER
100
AcDbCircle
10
7.1259842513818459
20
9.4881889757912905
30
0
40
0.078740157480314668
210
0
220
-0
230
1
100
AcDbArc
50
0
51
90
0
LINE
5
148
100
AcDbEntity
8
PERIMETER
100
AcDbLine
10
7.1259842513818459
20
9.5669291332716053
30
0
11
2.125984252555166
21
9.5669291332716053
31
0
0
ARC
5
149
100
AcDbEntity
8
PERIMETER
100
AcDbCircle
10
2.1259842525551664
20
9.4881889757912905
30
0
40
0.078740157480314668
210
0
220
0
230
1
100
AcDbArc
50
90.000000000000327
51
180
0
ENDSEC
0
SECTION
2
OBJECTS
0
DICTIONARY
5
C
100
AcDbDictionary
3
ACAD_GROUP
350
D
3
ACAD_MLINESTYLE
350
17
0
DICTIONARY
5
D
100
AcDbDictionary
0
DICTIONARY
5
1A
330
C
100
AcDbDictionary
0
DICTIONARY
5
17
100
AcDbDictionary
0
ENDSEC
0
EOF
