0
SECTION
2
HEADER
9
$INSUNITS
70
1
9
$ACADVER
1
AC1014
9
$HANDSEED
5
FFFF
0
ENDSEC
0
SECTION
2
TABLES
0
TABLE
2
VPORT
5
8
100
AcDbSymbolTable
0
ENDTAB
0
TABLE
2
LTYPE
5
5
100
AcDbSymbolTable
70
2
0
LTYPE
5
14
100
AcDbSymbolTableRecord
100
AcDbLinetypeTableRecord
2
BYBLOCK
70
0
0
LTYPE
5
15
100
AcDbSymbolTableRecord
100
AcDbLinetypeTableRecord
2
BYLAYER
70
0
0
ENDTAB
0
TABLE
2
LAYER
5
2
100
AcDbSymbolTable
70
3
0
LAYER
5
50
100
AcDbSymbolTableRecord
100
AcDbLayerTableRecord
2
0
70
0
6
CONTINUOUS
0
LAYER
5
51
100
AcDbSymbolTableRecord
100
AcDbLayerTableRecord
2
CUTOUTS
70
0
62
1
6
CONTINUOUS
0
LAYER
5
52
100
AcDbSymbolTableRecord
100
AcDbLayerTableRecord
2
PERIMETER
70
0
62
5
6
CONTINUOUS
0
ENDTAB
0
TABLE
2
STYLE
5
3
100
AcDbSymbolTable
70
1
0
STYLE
5
11
100
AcDbSymbolTableRecord
100
AcDbTextStyleTableRecord
2
STANDARD
70
0
0
ENDTAB
0
TABLE
2
VIEW
5
6
100
AcDbSymbolTable
0
ENDTAB
0
TABLE
2
UCS
5
7
100
AcDbSymbolTable
0
ENDTAB
0
TABLE
2
APPID
5
9
100
AcDbSymbolTable
70
1
0
APPID
5
12
100
AcDbSymbolTableRecord
100
AcDbRegAppTableRecord
2
ACAD
70
0
0
ENDTAB
0
TABLE
2
DIMSTYLE
5
A
100
AcDbSymbolTable
0
ENDTAB
0
TABLE
2
BLOCK_RECORD
5
1
100
AcDbSymbolTable
70
2
0
BLOCK_RECORD
5
1F
100
AcDbSymbolTableRecord
100
AcDbBlockTableRecord
2
*MODEL_SPACE
0
BLOCK_RECORD
5
1B
100
AcDbSymbolTableRecord
100
AcDbBlockTableRecord
2
*PAPER_SPACE
0
ENDTAB
0
ENDSEC
0
SECTION
2
BLOCKS
0
BLOCK
5
20
100
AcDbEntity
100
AcDbBlockBegin
2
*MODEL_SPACE
0
ENDBLK
5
21
100
AcDbEntity
100
AcDbBlockEnd
0
BLOCK
5
1C
100
AcDbEntity
100
AcDbBlockBegin
2
*PAPER_SPACE
0
ENDBLK
5
1D
100
AcDbEntity
100
AcDbBlockEnd
0
ENDSEC
0
SECTION
2
ENTITIES
0
CIRCLE
5
100
100
AcDbEntity
8
CUTOUTS
100
AcDbCircle
10
1.7407956877546204e-15
20
-9.0157480314960612
30
0
40
0.12992125984251968
210
0
220
0
230
1
0
CIRCLE
5
101
100
AcDbEntity
8
CUTOUTS
100
AcDbCircle
10
9.2519685039370092
20
0.31496062992125984
30
0
40
0.12992125984251901
210
0
220
0
230
1
0
CIRCLE
5
102
100
AcDbEntity
8
CUTOUTS
100
AcDbCircle
10
6.0236220472440989
20
-9.0157480314960612
30
0
40
0.1299212598425197
210
0
220
0
230
1
0
CIRCLE
5
103
100
AcDbEntity
8
CUTOUTS
100
AcDbCircle
10
-9.2519685039370057
20
-5.78740157480315
30
0
40
0.12992125984251901
210
0
220
0
230
1
0
CIRCLE
5
104
100
AcDbEntity
8
CUTOUTS
100
AcDbCircle
10
-9.2519685039370057
20
6.4173228346456677
30
0
40
0.12992125984251901
210
0
220
0
230
1
0
CIRCLE
5
105
100
AcDbEntity
8
CUTOUTS
100
AcDbCircle
10
2.5984251968503949
20
9.015748031496063
30
0
40
0.1299212598425197
210
0
220
0
230
1
0
CIRCLE
5
106
100
AcDbEntity
8
CUTOUTS
100
AcDbCircle
10
-6.6535433070866103
20
9.015748031496063
30
0
40
0.12992125984251901
210
0
220
0
230
1
0
CIRCLE
5
107
100
AcDbEntity
8
CUTOUTS
100
AcDbCircle
10
-2.0866141732283467
20
9.0157480314960612
30
0
40
0.1299212598425197
210
0
220
0
230
1
0
CIRCLE
5
108
100
AcDbEntity
8
CUTOUTS
100
AcDbCircle
10
6.6535433070866103
20
9.015748031496063
30
0
40
0.12992125984251901
210
0
220
0
230
1
0
CIRCLE
5
109
100
AcDbEntity
8
CUTOUTS
100
AcDbCircle
10
-9.2519685039370057
20
0.31496062992125867
30
0
40
0.12992125984251901
210
0
220
0
230
1
0
CIRCLE
5
10A
100
AcDbEntity
8
CUTOUTS
100
AcDbCircle
10
-6.0236220472440944
20
-9.0157480314960612
30
0
40
0.1299212598425197
210
0
220
0
230
1
0
CIRCLE
5
10B
100
AcDbEntity
8
CUTOUTS
100
AcDbCircle
10
9.2519685039370092
20
-5.7874015748031491
30
0
40
0.12992125984251901
210
0
220
0
230
1
0
CIRCLE
5
10C
100
AcDbEntity
8
CUTOUTS
100
AcDbCircle
10
9.2519685039370092
20
6.4173228346456677
30
0
40
0.12992125984251901
210
0
220
0
230
1
0
LINE
5
10D
100
AcDbEntity
8
PERIMETER
100
AcDbLine
10
-6.496062992125978
20
-9.5669291338582649
30
0
11
6.4960629921259869
21
-9.5669291338582649
31
0
0
ARC
5
10E
100
AcDbEntity
8
PERIMETER
100
AcDbCircle
10
-6.4960629921259798
20
-9.4881889763779519
30
0
40
0.078740157480314668
210
0
220
0
230
1
100
AcDbArc
50
180
51
270.00000000000125
0
LINE
5
10F
100
AcDbEntity
8
PERIMETER
100
AcDbLine
10
-6.5748031496062955
20
-6.653543307086613
30
0
11
-6.5748031496062938
21
-9.4881889763779501
31
0
0
LINE
5
110
100
AcDbEntity
8
PERIMETER
100
AcDbLine
10
-6.8897637795275539
20
-6.3385826771653528
30
0
11
-6.5748031496062955
21
-6.653543307086613
31
0
0
LINE
5
111
100
AcDbEntity
8
PERIMETER
100
AcDbLine
10
-9.7244094488188928
20
-6.3385826771653546
30
0
11
-6.8897637795275539
21
-6.3385826771653528
31
0
0
ARC
5
112
100
AcDbEntity
8
PERIMETER
100
AcDbCircle
10
-9.7244094488188928
20
-6.2598425196850407
30
0
40
0.078740157480314668
210
0
220
0
230
1
100
AcDbArc
50
180
51
269.99999999999869
0
LINE
5
113
100
AcDbEntity
8
PERIMETER
100
AcDbLine
10
-9.8031496062992076
20
6.8897637795275557
30
0
11
-9.8031496062992076
21
-6.259842519685038
31
0
0
ARC
5
114
100
AcDbEntity
8
PERIMETER
100
AcDbCircle
10
-9.7244094488188946
20
6.8897637795275575
30
0
40
0.078740157480314668
210
0
220
-0
230
1
100
AcDbArc
50
89.999999999998721
51
180
0
LINE
5
115
100
AcDbEntity
8
PERIMETER
100
AcDbLine
10
-8.740157480314954
20
6.9685039370078732
30
0
11
-9.7244094488188928
21
6.9685039370078714
31
0
0
ARC
5
116
100
AcDbEntity
8
PERIMETER
100
AcDbCircle
10
-8.740157480314954
20
7.047244094488188
30
0
40
0.078740157480314668
210
-0
220
0
230
1
100
AcDbArc
50
-90
51
0
0
LINE
5
117
100
AcDbEntity
8
PERIMETER
100
AcDbLine
10
-8.6614173228346427
20
8.3464566929133817
30
0
11
-8.6614173228346392
21
7.047244094488188
31
0
0
ARC
5
118
100
AcDbEntity
8
PERIMETER
100
AcDbCircle
10
-8.5826771653543297
20
8.3464566929133817
30
0
40
0.078740157480314668
210
0
220
-0
230
1
100
AcDbArc
50
90
51
180
0
LINE
5
119
100
AcDbEntity
8
PERIMETER
100
AcDbLine
10
-7.2834645669291262
20
8.4251968503936965
30
0
11
-8.5826771653543297
21
8.4251968503936965
31
0
0
ARC
5
11A
100
AcDbEntity
8
PERIMETER
100
AcDbCircle
10
-7.2834645669291262
20
8.5039370078740113
30
0
40
0.078740157480314668
210
-0
220
0
230
1
100
AcDbArc
50
-90
51
0
0
LINE
5
11B
100
AcDbEntity
8
PERIMETER
100
AcDbLine
10
-7.2047244094488105
20
9.4881889763779519
30
0
11
-7.2047244094488114
21
8.5039370078740113
31
0
0
ARC
5
11C
100
AcDbEntity
8
PERIMETER
100
AcDbCircle
10
-7.1259842519684957
20
9.4881889763779519
30
0
40
0.078740157480314668
210
0
220
-0
230
1
100
AcDbArc
50
90
51
180
0
LINE
5
11D
100
AcDbEntity
8
PERIMETER
100
AcDbLine
10
-1.6141732283464543
20
9.5669291338582649
30
0
11
-7.1259842519684957
21
9.5669291338582649
31
0
0
ARC
5
11E
100
AcDbEntity
8
PERIMETER
100
AcDbCircle
10
-1.614173228346454
20
9.4881889763779501
30
0
40
0.078740157480314668
210
0
220
-0
230
1
100
AcDbArc
50
0
51
90.000000000000171
0
LINE
5
11F
100
AcDbEntity
8
PERIMETER
100
AcDbLine
10
-1.535433070866139
20
6.1811023622047232
30
0
11
-1.5354330708661392
21
9.4881889763779501
31
0
0
LINE
5
120
100
AcDbEntity
8
PERIMETER
100
AcDbLine
10
-1.2598425196850365
20
5.9055118110236204
30
0
11
-1.535433070866139
21
6.1811023622047232
31
0
0
LINE
5
121
100
AcDbEntity
8
PERIMETER
100
AcDbLine
10
1.2598425196850422
20
5.9055118110236222
30
0
11
-1.2598425196850365
21
5.9055118110236204
31
0
0
LINE
5
122
100
AcDbEntity
8
PERIMETER
100
AcDbLine
10
1.5354330708661446
20
6.1811023622047241
30
0
11
1.2598425196850422
21
5.9055118110236222
31
0
0
LINE
5
123
100
AcDbEntity
8
PERIMETER
100
AcDbLine
10
1.5354330708661441
20
8.3464566929133817
30
0
11
1.5354330708661446
21
6.1811023622047241
31
0
0
ARC
5
124
100
AcDbEntity
8
PERIMETER
100
AcDbCircle
10
1.6141732283464589
20
8.3464566929133817
30
0
40
0.078740157480314668
210
0
220
0
230
1
100
AcDbArc
50
90.000000000000327
51
180
0
LINE
5
125
100
AcDbEntity
8
PERIMETER
100
AcDbLine
10
1.9685039370078776
20
8.4251968503936965
30
0
11
1.6141732283464585
21
8.4251968503936965
31
0
0
ARC
5
126
100
AcDbEntity
8
PERIMETER
100
AcDbCircle
10
1.9685039370078774
20
8.5039370078740113
30
0
40
0.078740157480314668
210
-0
220
0
230
1
100
AcDbArc
50
-89.999999999999844
51
0
0
LINE
5
127
100
AcDbEntity
8
PERIMETER
100
AcDbLine
10
2.0472440944881929
20
9.4881889763779519
30
0
11
2.0472440944881924
21
8.5039370078740113
31
0
0
ARC
5
128
100
AcDbEntity
8
PERIMETER
100
AcDbCircle
10
2.1259842519685077
20
9.4881889763779519
30
0
40
0.078740157480314668
210
0
220
0
230
1
100
AcDbArc
50
90.000000000000327
51
180
0
LINE
5
129
100
AcDbEntity
8
PERIMETER
100
AcDbLine
10
7.1259842519685028
20
9.5669291338582649
30
0
11
2.1259842519685073
21
9.5669291338582649
31
0
0
ARC
5
12A
100
AcDbEntity
8
PERIMETER
100
AcDbCircle
10
7.1259842519685028
20
9.4881889763779519
30
0
40
0.078740157480314668
210
0
220
-0
230
1
100
AcDbArc
50
0
51
90
0
LINE
5
12B
100
AcDbEntity
8
PERIMETER
100
AcDbLine
10
7.2047244094488168
20
8.5039370078740077
30
0
11
7.2047244094488168
21
9.4881889763779519
31
0
0
ARC
5
12C
100
AcDbEntity
8
PERIMETER
100
AcDbCircle
10
7.2834645669291316
20
8.5039370078740077
30
0
40
0.078740157480314668
210
0
220
0
230
1
100
AcDbArc
50
180
51
270
0
LINE
5
12D
100
AcDbEntity
8
PERIMETER
100
AcDbLine
10
8.582677165354335
20
8.4251968503936965
30
0
11
7.2834645669291316
21
8.4251968503936947
31
0
0
ARC
5
12E
100
AcDbEntity
8
PERIMETER
100
AcDbCircle
10
8.582677165354335
20
8.3464566929133817
30
0
40
0.078740157480314668
210
0
220
-0
230
1
100
AcDbArc
50
0
51
90
0
LINE
5
12F
100
AcDbEntity
8
PERIMETER
100
AcDbLine
10
8.661417322834648
20
7.047244094488188
30
0
11
8.6614173228346498
21
8.3464566929133817
31
0
0
ARC
5
130
100
AcDbEntity
8
PERIMETER
100
AcDbCircle
10
8.7401574803149629
20
7.047244094488188
30
0
40
0.078740157480314668
210
0
220
0
230
1
100
AcDbArc
50
180
51
270
0
LINE
5
131
100
AcDbEntity
8
PERIMETER
100
AcDbLine
10
9.7244094488188999
20
6.9685039370078705
30
0
11
8.7401574803149629
21
6.9685039370078732
31
0
0
ARC
5
132
100
AcDbEntity
8
PERIMETER
100
AcDbCircle
10
9.7244094488188999
20
6.8897637795275575
30
0
40
0.07874015748031328
210
0
220
-0
230
1
100
AcDbArc
50
0
51
90
0
LINE
5
133
100
AcDbEntity
8
PERIMETER
100
AcDbLine
10
9.8031496062992112
20
-6.2598425196850389
30
0
11
9.8031496062992147
21
6.8897637795275584
31
0
0
ARC
5
134
100
AcDbEntity
8
PERIMETER
100
AcDbCircle
10
9.7244094488188946
20
-6.259842519685038
30
0
40
0.078740157480315376
210
-0
220
0
230
1
100
AcDbArc
50
270.00000000000261
51
360
0
LINE
5
135
100
AcDbEntity
8
PERIMETER
100
AcDbLine
10
6.889763779527561
20
-6.3385826771653528
30
0
11
9.7244094488188981
21
-6.3385826771653528
31
0
0
LINE
5
136
100
AcDbEntity
8
PERIMETER
100
AcDbLine
10
6.5748031496063009
20
-6.653543307086613
30
0
11
6.889763779527561
21
-6.3385826771653528
31
0
0
LINE
5
137
100
AcDbEntity
8
PERIMETER
100
AcDbLine
10
6.5748031496063009
20
-9.4881889763779519
30
0
11
6.5748031496063009
21
-6.653543307086613
31
0
0
ARC
5
138
100
AcDbEntity
8
PERIMETER
100
AcDbCircle
10
6.4960629921259869
20
-9.4881889763779519
30
0
40
0.078740157480314668
210
-0
220
0
230
1
100
AcDbArc
50
-90
51
0
0
ENDSEC
0
SECTION
2
OBJECTS
0
DICTIONARY
5
C
100
AcDbDictionary
3
ACAD_GROUP
350
D
3
ACAD_MLINESTYLE
350
17
0
DICTIONARY
5
D
100
AcDbDictionary
0
DICTIONARY
5
1A
330
C
100
AcDbDictionary
0
DICTIONARY
5
17
100
AcDbDictionary
0
ENDSEC
0
EOF
