0
SECTION
2
HEADER
9
$INSUNITS
70
1
9
$ACADVER
1
AC1014
9
$HANDSEED
5
FFFF
0
ENDSEC
0
SECTION
2
TABLES
0
TABLE
2
VPORT
5
8
100
AcDbSymbolTable
0
ENDTAB
0
TABLE
2
LTYPE
5
5
100
AcDbSymbolTable
70
2
0
LTYPE
5
14
100
AcDbSymbolTableRecord
100
AcDbLinetypeTableRecord
2
BYBLOCK
70
0
0
LTYPE
5
15
100
AcDbSymbolTableRecord
100
AcDbLinetypeTableRecord
2
BYLAYER
70
0
0
ENDTAB
0
TABLE
2
LAYER
5
2
100
AcDbSymbolTable
70
3
0
LAYER
5
50
100
AcDbSymbolTableRecord
100
AcDbLayerTableRecord
2
0
70
0
6
CONTINUOUS
0
LAYER
5
51
100
AcDbSymbolTableRecord
100
AcDbLayerTableRecord
2
CUTOUTS
70
0
62
1
6
CONTINUOUS
0
LAYER
5
52
100
AcDbSymbolTableRecord
100
AcDbLayerTableRecord
2
PERIMETER
70
0
62
5
6
CONTINUOUS
0
ENDTAB
0
TABLE
2
STYLE
5
3
100
AcDbSymbolTable
70
1
0
STYLE
5
11
100
AcDbSymbolTableRecord
100
AcDbTextStyleTableRecord
2
STANDARD
70
0
0
ENDTAB
0
TABLE
2
VIEW
5
6
100
AcDbSymbolTable
0
ENDTAB
0
TABLE
2
UCS
5
7
100
AcDbSymbolTable
0
ENDTAB
0
TABLE
2
APPID
5
9
100
AcDbSymbolTable
70
1
0
APPID
5
12
100
AcDbSymbolTableRecord
100
AcDbRegAppTableRecord
2
ACAD
70
0
0
ENDTAB
0
TABLE
2
DIMSTYLE
5
A
100
AcDbSymbolTable
0
ENDTAB
0
TABLE
2
BLOCK_RECORD
5
1
100
AcDbSymbolTable
70
2
0
BLOCK_RECORD
5
1F
100
AcDbSymbolTableRecord
100
AcDbBlockTableRecord
2
*MODEL_SPACE
0
BLOCK_RECORD
5
1B
100
AcDbSymbolTableRecord
100
AcDbBlockTableRecord
2
*PAPER_SPACE
0
ENDTAB
0
ENDSEC
0
SECTION
2
BLOCKS
0
BLOCK
5
20
100
AcDbEntity
100
AcDbBlockBegin
2
*MODEL_SPACE
0
ENDBLK
5
21
100
AcDbEntity
100
AcDbBlockEnd
0
BLOCK
5
1C
100
AcDbEntity
100
AcDbBlockBegin
2
*PAPER_SPACE
0
ENDBLK
5
1D
100
AcDbEntity
100
AcDbBlockEnd
0
ENDSEC
0
SECTION
2
ENTITIES
0
CIRCLE
5
100
100
AcDbEntity
8
CUTOUTS
100
AcDbCircle
10
2.1284781649566227e-15
20
-4.9212598425196861
30
0
40
0.13779527559055119
210
0
220
0
230
1
0
CIRCLE
5
101
100
AcDbEntity
8
CUTOUTS
100
AcDbCircle
10
2.1284781649566227e-15
20
-6.8897637795275601
30
0
40
0.13779527559055119
210
0
220
0
230
1
0
CIRCLE
5
102
100
AcDbEntity
8
CUTOUTS
100
AcDbCircle
10
2.1284781649566227e-15
20
-0.98425196850393837
30
0
40
0.13779527559055119
210
0
220
0
230
1
0
CIRCLE
5
103
100
AcDbEntity
8
CUTOUTS
100
AcDbCircle
10
2.1284781649566227e-15
20
-2.952755905511812
30
0
40
0.13779527559055119
210
0
220
0
230
1
0
CIRCLE
5
104
100
AcDbEntity
8
CUTOUTS
100
AcDbCircle
10
2.1284781649566227e-15
20
2.9527559055118093
30
0
40
0.13779527559055119
210
0
220
0
230
1
0
CIRCLE
5
105
100
AcDbEntity
8
CUTOUTS
100
AcDbCircle
10
2.1284781649566227e-15
20
0.98425196850393548
30
0
40
0.13779527559055119
210
0
220
0
230
1
0
CIRCLE
5
106
100
AcDbEntity
8
CUTOUTS
100
AcDbCircle
10
2.1284781649566227e-15
20
6.8897637795275575
30
0
40
0.13779527559055119
210
0
220
0
230
1
0
CIRCLE
5
107
100
AcDbEntity
8
CUTOUTS
100
AcDbCircle
10
2.1284781649566227e-15
20
4.9212598425196834
30
0
40
0.13779527559055119
210
0
220
0
230
1
0
CIRCLE
5
108
100
AcDbEntity
8
CUTOUTS
100
AcDbCircle
10
-1.3779527559055089
20
-1.1023622047244039
30
0
40
0.31496062992125973
210
0
220
0
230
1
0
CIRCLE
5
109
100
AcDbEntity
8
CUTOUTS
100
AcDbCircle
10
9.2519685039369985
20
-4.1535433070865544
30
0
40
0.13779527559055174
210
0
220
0
230
1
0
CIRCLE
5
10A
100
AcDbEntity
8
CUTOUTS
100
AcDbCircle
10
8.0708661417322691
20
-8.8582677165353712
30
0
40
0.13779527559055174
210
0
220
0
230
1
0
CIRCLE
5
10B
100
AcDbEntity
8
CUTOUTS
100
AcDbCircle
10
1.0236220472440791
20
-8.8582677165353676
30
0
40
0.13779527559055121
210
0
220
0
230
1
0
CIRCLE
5
10C
100
AcDbEntity
8
CUTOUTS
100
AcDbCircle
10
-4.5472440944881738
20
-8.8582677165353676
30
0
40
0.13779527559055102
210
0
220
0
230
1
0
CIRCLE
5
10D
100
AcDbEntity
8
CUTOUTS
100
AcDbCircle
10
-9.251968503936995
20
-7.6771653543306435
30
0
40
0.13779527559055174
210
0
220
0
230
1
0
CIRCLE
5
10E
100
AcDbEntity
8
CUTOUTS
100
AcDbCircle
10
-9.2519685039369932
20
-0.62992125984245595
30
0
40
0.13779527559055174
210
0
220
0
230
1
0
CIRCLE
5
10F
100
AcDbEntity
8
CUTOUTS
100
AcDbCircle
10
9.2519685039369985
20
4.1535433070866112
30
0
40
0.13779527559055174
210
0
220
0
230
1
0
CIRCLE
5
110
100
AcDbEntity
8
CUTOUTS
100
AcDbCircle
10
-9.2519685039369932
20
0.6299212598425199
30
0
40
0.13779527559055174
210
0
220
0
230
1
0
CIRCLE
5
111
100
AcDbEntity
8
CUTOUTS
100
AcDbCircle
10
-9.2519685039369968
20
7.6771653543307083
30
0
40
0.13779527559055174
210
0
220
0
230
1
0
CIRCLE
5
112
100
AcDbEntity
8
CUTOUTS
100
AcDbCircle
10
1.0236220472440882
20
8.8582677165355257
30
0
40
0.13779527559055121
210
0
220
0
230
1
0
CIRCLE
5
113
100
AcDbEntity
8
CUTOUTS
100
AcDbCircle
10
-4.3307086614173116
20
8.8582677165355257
30
0
40
0.13779527559055102
210
0
220
0
230
1
0
CIRCLE
5
114
100
AcDbEntity
8
CUTOUTS
100
AcDbCircle
10
-1.0236220472440833
20
8.8582677165355257
30
0
40
0.13779527559055121
210
0
220
0
230
1
0
CIRCLE
5
115
100
AcDbEntity
8
CUTOUTS
100
AcDbCircle
10
4.3307086614173151
20
8.8582677165355257
30
0
40
0.13779527559055102
210
0
220
0
230
1
0
CIRCLE
5
116
100
AcDbEntity
8
CUTOUTS
100
AcDbCircle
10
-9.2519685039369968
20
4.1535433070866139
30
0
40
0.13779527559055174
210
0
220
0
230
1
0
CIRCLE
5
117
100
AcDbEntity
8
CUTOUTS
100
AcDbCircle
10
9.2519685039370021
20
7.6771653543307048
30
0
40
0.13779527559055174
210
0
220
0
230
1
0
CIRCLE
5
118
100
AcDbEntity
8
CUTOUTS
100
AcDbCircle
10
9.2519685039369968
20
0.62992125984251712
30
0
40
0.13779527559055174
210
0
220
0
230
1
0
CIRCLE
5
119
100
AcDbEntity
8
CUTOUTS
100
AcDbCircle
10
-9.2519685039369968
20
-4.1535433070865508
30
0
40
0.13779527559055174
210
0
220
0
230
1
0
CIRCLE
5
11A
100
AcDbEntity
8
CUTOUTS
100
AcDbCircle
10
-8.0708661417322691
20
-8.8582677165353676
30
0
40
0.13779527559055174
210
0
220
0
230
1
0
CIRCLE
5
11B
100
AcDbEntity
8
CUTOUTS
100
AcDbCircle
10
-1.02362204724408
20
-8.8582677165353676
30
0
40
0.13779527559055121
210
0
220
0
230
1
0
CIRCLE
5
11C
100
AcDbEntity
8
CUTOUTS
100
AcDbCircle
10
4.5472440944881729
20
-8.8582677165353676
30
0
40
0.13779527559055102
210
0
220
0
230
1
0
CIRCLE
5
11D
100
AcDbEntity
8
CUTOUTS
100
AcDbCircle
10
9.2519685039370057
20
-7.6771653543306355
30
0
40
0.13779527559055174
210
0
220
0
230
1
0
CIRCLE
5
11E
100
AcDbEntity
8
CUTOUTS
100
AcDbCircle
10
9.2519685039369968
20
-0.62992125984244896
30
0
40
0.13779527559055174
210
0
220
0
230
1
0
LINE
5
11F
100
AcDbEntity
8
CUTOUTS
100
AcDbLine
10
-7.9271653543306977
20
8.7401574803149895
30
0
11
-7.9271653543306959
21
8.3070866141732598
31
0
0
ARC
5
120
100
AcDbEntity
8
CUTOUTS
100
AcDbCircle
10
-8.0059055118110116
20
8.3070866141732598
30
0
40
0.07874015748031607
210
-0
220
0
230
1
100
AcDbArc
50
-90
51
0
0
LINE
5
121
100
AcDbEntity
8
CUTOUTS
100
AcDbLine
10
-8.0059055118110116
20
8.2283464566929432
30
0
11
-8.6082677165354227
21
8.2283464566929432
31
0
0
ARC
5
122
100
AcDbEntity
8
CUTOUTS
100
AcDbCircle
10
-8.6082677165354227
20
8.307086614173258
30
0
40
0.078740157480314668
210
0
220
0
230
1
100
AcDbArc
50
180
51
270
0
LINE
5
123
100
AcDbEntity
8
CUTOUTS
100
AcDbLine
10
-8.6870078740157375
20
8.307086614173258
30
0
11
-8.6870078740157375
21
8.7401574803149895
31
0
0
ARC
5
124
100
AcDbEntity
8
CUTOUTS
100
AcDbCircle
10
-8.6082677165354227
20
8.7401574803149895
30
0
40
0.078740157480314668
210
0
220
-0
230
1
100
AcDbArc
50
90
51
180
0
LINE
5
125
100
AcDbEntity
8
CUTOUTS
100
AcDbLine
10
-8.6082677165354227
20
8.8188976377953043
30
0
11
-8.0059055118110116
21
8.8188976377953043
31
0
0
ARC
5
126
100
AcDbEntity
8
CUTOUTS
100
AcDbCircle
10
-8.0059055118110116
20
8.7401574803149895
30
0
40
0.078740157480314668
210
0
220
-0
230
1
100
AcDbArc
50
0
51
90
0
ARC
5
127
100
AcDbEntity
8
CUTOUTS
100
AcDbCircle
10
8.6082677165354333
20
8.7401574803149877
30
0
40
0.078740157480314668
210
0
220
-0
230
1
100
AcDbArc
50
0
51
90
0
LINE
5
128
100
AcDbEntity
8
CUTOUTS
100
AcDbLine
10
8.0059055118110241
20
8.8188976377953008
30
0
11
8.6082677165354333
21
8.8188976377953026
31
0
0
ARC
5
129
100
AcDbEntity
8
CUTOUTS
100
AcDbCircle
10
8.0059055118110241
20
8.740157480314986
30
0
40
0.078740157480314668
210
0
220
-0
230
1
100
AcDbArc
50
90
51
180
0
LINE
5
12A
100
AcDbEntity
8
CUTOUTS
100
AcDbLine
10
7.9271653543307083
20
8.3070866141732544
30
0
11
7.9271653543307083
21
8.740157480314986
31
0
0
ARC
5
12B
100
AcDbEntity
8
CUTOUTS
100
AcDbCircle
10
8.0059055118110241
20
8.3070866141732544
30
0
40
0.078740157480314668
210
0
220
0
230
1
100
AcDbArc
50
180
51
270
0
LINE
5
12C
100
AcDbEntity
8
CUTOUTS
100
AcDbLine
10
8.6082677165354333
20
8.2283464566929396
30
0
11
8.0059055118110241
21
8.2283464566929396
31
0
0
ARC
5
12D
100
AcDbEntity
8
CUTOUTS
100
AcDbCircle
10
8.6082677165354333
20
8.3070866141732562
30
0
40
0.07874015748031607
210
-0
220
0
230
1
100
AcDbArc
50
-90
51
0
0
LINE
5
12E
100
AcDbEntity
8
CUTOUTS
100
AcDbLine
10
8.6870078740157481
20
8.7401574803149877
30
0
11
8.6870078740157499
21
8.3070866141732562
31
0
0
ARC
5
12F
100
AcDbEntity
8
PERIMETER
100
AcDbCircle
10
-8.7007874015747966
20
-8.3070866141732154
30
0
40
0.078740157480314668
210
0
220
-0
230
1
100
AcDbArc
50
0
51
90
0
LINE
5
130
100
AcDbEntity
8
PERIMETER
100
AcDbLine
10
-8.6220472440944835
20
-8.3070866141732154
30
0
11
-8.6220472440944818
21
-9.3307086614173151
31
0
0
ARC
5
131
100
AcDbEntity
8
PERIMETER
100
AcDbCircle
10
-8.5433070866141669
20
-9.3307086614173151
30
0
40
0.078740157480314668
210
0
220
0
230
1
100
AcDbArc
50
180
51
270
0
LINE
5
132
100
AcDbEntity
8
PERIMETER
100
AcDbLine
10
-8.5433070866141669
20
-9.40944881889763
30
0
11
8.5433070866141687
21
-9.4094488188976246
31
0
0
ARC
5
133
100
AcDbEntity
8
PERIMETER
100
AcDbCircle
10
8.5433070866141705
20
-9.3307086614173098
30
0
40
0.078740157480314668
210
0
220
0
230
1
100
AcDbArc
50
-90.000000000001322
51
0
0
LINE
5
134
100
AcDbEntity
8
PERIMETER
100
AcDbLine
10
8.6220472440944853
20
-9.3307086614173098
30
0
11
8.6220472440944871
21
-8.3070866141732207
31
0
0
ARC
5
135
100
AcDbEntity
8
PERIMETER
100
AcDbCircle
10
8.7007874015748019
20
-8.3070866141732207
30
0
40
0.078740157480314668
210
0
220
-0
230
1
100
AcDbArc
50
90
51
180
0
LINE
5
136
100
AcDbEntity
8
PERIMETER
100
AcDbLine
10
8.7007874015748019
20
-8.2283464566929059
30
0
11
9.7244094488188964
21
-8.2283464566929059
31
0
0
ARC
5
137
100
AcDbEntity
8
PERIMETER
100
AcDbCircle
10
9.7244094488188964
20
-8.1496062992125911
30
0
40
0.078740157480314668
210
-0
220
0
230
1
100
AcDbArc
50
-90
51
0
0
LINE
5
138
100
AcDbEntity
8
PERIMETER
100
AcDbLine
10
9.8031496062992112
20
-8.1496062992125911
30
0
11
9.8031496062992076
21
9.3307086614173258
31
0
0
ARC
5
139
100
AcDbEntity
8
PERIMETER
100
AcDbCircle
10
9.7244094488188946
20
9.3307086614173258
30
0
40
0.078740157480314668
210
0
220
-0
230
1
100
AcDbArc
50
0
51
90
0
LINE
5
13A
100
AcDbEntity
8
PERIMETER
100
AcDbLine
10
9.7244094488188946
20
9.4094488188976406
30
0
11
-9.7244094488188857
21
9.4094488188976424
31
0
0
ARC
5
13B
100
AcDbEntity
8
PERIMETER
100
AcDbCircle
10
-9.7244094488188857
20
9.3307086614173276
30
0
40
0.078740157480314668
210
0
220
-0
230
1
100
AcDbArc
50
90
51
180
0
LINE
5
13C
100
AcDbEntity
8
PERIMETER
100
AcDbLine
10
-9.8031496062992005
20
9.3307086614173258
30
0
11
-9.8031496062992058
21
-8.1496062992125857
31
0
0
ARC
5
13D
100
AcDbEntity
8
PERIMETER
100
AcDbCircle
10
-9.724409448818891
20
-8.1496062992125857
30
0
40
0.078740157480314668
210
0
220
0
230
1
100
AcDbArc
50
180
51
270
0
LINE
5
13E
100
AcDbEntity
8
PERIMETER
100
AcDbLine
10
-9.724409448818891
20
-8.2283464566928988
30
0
11
-8.7007874015747966
21
-8.2283464566929005
31
0
0
ENDSEC
0
SECTION
2
OBJECTS
0
DICTIONARY
5
C
100
AcDbDictionary
3
ACAD_GROUP
350
D
3
ACAD_MLINESTYLE
350
17
0
DICTIONARY
5
D
100
AcDbDictionary
0
DICTIONARY
5
1A
330
C
100
AcDbDictionary
0
DICTIONARY
5
17
100
AcDbDictionary
0
ENDSEC
0
EOF
