0
SECTION
2
HEADER
9
$INSUNITS
70
1
9
$ACADVER
1
AC1014
9
$HANDSEED
5
FFFF
0
ENDSEC
0
SECTION
2
TABLES
0
TABLE
2
VPORT
5
8
100
AcDbSymbolTable
0
ENDTAB
0
TABLE
2
LTYPE
5
5
100
AcDbSymbolTable
70
2
0
LTYPE
5
14
100
AcDbSymbolTableRecord
100
AcDbLinetypeTableRecord
2
BYBLOCK
70
0
0
LTYPE
5
15
100
AcDbSymbolTableRecord
100
AcDbLinetypeTableRecord
2
BYLAYER
70
0
0
ENDTAB
0
TABLE
2
LAYER
5
2
100
AcDbSymbolTable
70
3
0
LAYER
5
50
100
AcDbSymbolTableRecord
100
AcDbLayerTableRecord
2
0
70
0
6
CONTINUOUS
0
LAYER
5
51
100
AcDbSymbolTableRecord
100
AcDbLayerTableRecord
2
CUTOUTS
70
0
62
1
6
CONTINUOUS
0
LAYER
5
52
100
AcDbSymbolTableRecord
100
AcDbLayerTableRecord
2
PERIMETER
70
0
62
5
6
CONTINUOUS
0
ENDTAB
0
TABLE
2
STYLE
5
3
100
AcDbSymbolTable
70
1
0
STYLE
5
11
100
AcDbSymbolTableRecord
100
AcDbTextStyleTableRecord
2
STANDARD
70
0
0
ENDTAB
0
TABLE
2
VIEW
5
6
100
AcDbSymbolTable
0
ENDTAB
0
TABLE
2
UCS
5
7
100
AcDbSymbolTable
0
ENDTAB
0
TABLE
2
APPID
5
9
100
AcDbSymbolTable
70
1
0
APPID
5
12
100
AcDbSymbolTableRecord
100
AcDbRegAppTableRecord
2
ACAD
70
0
0
ENDTAB
0
TABLE
2
DIMSTYLE
5
A
100
AcDbSymbolTable
0
ENDTAB
0
TABLE
2
BLOCK_RECORD
5
1
100
AcDbSymbolTable
70
2
0
BLOCK_RECORD
5
1F
100
AcDbSymbolTableRecord
100
AcDbBlockTableRecord
2
*MODEL_SPACE
0
BLOCK_RECORD
5
1B
100
AcDbSymbolTableRecord
100
AcDbBlockTableRecord
2
*PAPER_SPACE
0
ENDTAB
0
ENDSEC
0
SECTION
2
BLOCKS
0
BLOCK
5
20
100
AcDbEntity
100
AcDbBlockBegin
2
*MODEL_SPACE
0
ENDBLK
5
21
100
AcDbEntity
100
AcDbBlockEnd
0
BLOCK
5
1C
100
AcDbEntity
100
AcDbBlockBegin
2
*PAPER_SPACE
0
ENDBLK
5
1D
100
AcDbEntity
100
AcDbBlockEnd
0
ENDSEC
0
SECTION
2
ENTITIES
0
CIRCLE
5
100
100
AcDbEntity
8
CUTOUTS
100
AcDbCircle
10
1.6535433070866143
20
-5.0147637795275593
30
0
40
0.1299212598425197
210
0
220
0
230
1
0
CIRCLE
5
101
100
AcDbEntity
8
CUTOUTS
100
AcDbCircle
10
-5.3346456692913415
20
-5.0147637795275557
30
0
40
0.1299212598425197
210
0
220
0
230
1
0
CIRCLE
5
102
100
AcDbEntity
8
CUTOUTS
100
AcDbCircle
10
-1.6535433070866135
20
-5.0147637795275593
30
0
40
0.1299212598425197
210
0
220
0
230
1
0
CIRCLE
5
103
100
AcDbEntity
8
CUTOUTS
100
AcDbCircle
10
5.3346456692913415
20
-5.0147637795275557
30
0
40
0.1299212598425197
210
0
220
0
230
1
0
CIRCLE
5
104
100
AcDbEntity
8
CUTOUTS
100
AcDbCircle
10
10.531496062992126
20
1.2844488188976353
30
0
40
0.12992125984251901
210
0
220
0
230
1
0
CIRCLE
5
105
100
AcDbEntity
8
CUTOUTS
100
AcDbCircle
10
-1.3987061727561026e-15
20
4.8277559055118093
30
0
40
0.12992125984251968
210
0
220
0
230
1
0
CIRCLE
5
106
100
AcDbEntity
8
CUTOUTS
100
AcDbCircle
10
-10.531496062992128
20
1.284448818897634
30
0
40
0.12992125984251901
210
0
220
0
230
1
0
CIRCLE
5
107
100
AcDbEntity
8
CUTOUTS
100
AcDbCircle
10
-10.531496062992128
20
-2.6525590551181182
30
0
40
0.12992125984251901
210
0
220
0
230
1
0
CIRCLE
5
108
100
AcDbEntity
8
CUTOUTS
100
AcDbCircle
10
-6.9881889763779546
20
4.8277559055118067
30
0
40
0.12992125984251901
210
0
220
0
230
1
0
CIRCLE
5
109
100
AcDbEntity
8
CUTOUTS
100
AcDbCircle
10
6.9881889763779537
20
4.8277559055118093
30
0
40
0.12992125984251901
210
0
220
0
230
1
0
CIRCLE
5
10A
100
AcDbEntity
8
CUTOUTS
100
AcDbCircle
10
10.531496062992128
20
-2.6525590551181102
30
0
40
0.12992125984251901
210
0
220
0
230
1
0
LINE
5
10B
100
AcDbEntity
8
PERIMETER
100
AcDbLine
10
-11.043307086614176
20
-3.1840551181102423
30
0
11
-9.9455918893208644
21
-3.1840551181102423
31
0
0
ARC
5
10C
100
AcDbEntity
8
PERIMETER
100
AcDbCircle
10
-9.9455918893208644
20
-3.2627952755905585
30
0
40
0.07874015748031471
210
0
220
-0
230
1
100
AcDbArc
50
63.434948822921008
51
90
0
LINE
5
10D
100
AcDbEntity
8
PERIMETER
100
AcDbLine
10
-9.9103782203838584
20
-3.1923679377165497
30
0
11
-7.5632115279133929
21
-4.3659512839517784
31
0
0
ARC
5
10E
100
AcDbEntity
8
PERIMETER
100
AcDbCircle
10
-7.598425196850398
20
-4.4363786218257877
30
0
40
0.078740157480314668
210
-0
220
0
230
1
100
AcDbArc
50
0
51
63.434948822921733
0
LINE
5
10F
100
AcDbEntity
8
PERIMETER
100
AcDbLine
10
-7.5196850393700831
20
-4.4363786218257877
30
0
11
-7.5196850393700814
21
-4.4734251968503846
31
0
0
ARC
5
110
100
AcDbEntity
8
PERIMETER
100
AcDbCircle
10
-7.4409448818897683
20
-4.4734251968503855
30
0
40
0.07874015748031328
210
0
220
0
230
1
100
AcDbArc
50
180
51
270
0
LINE
5
111
100
AcDbEntity
8
PERIMETER
100
AcDbLine
10
-7.4409448818897683
20
-4.5521653543306986
30
0
11
-6.6148727146837141
21
-4.5521653543307066
31
0
0
ARC
5
112
100
AcDbEntity
8
PERIMETER
100
AcDbCircle
10
-6.6148727146837141
20
-4.6309055118110214
30
0
40
0.078740157480315293
210
0
220
-0
230
1
100
AcDbArc
50
45
51
90
0
LINE
5
113
100
AcDbEntity
8
PERIMETER
100
AcDbLine
10
-6.5591950153776866
20
-4.5752278125049939
30
0
11
-5.7391781994428017
21
-5.3952446284398823
31
0
0
ARC
5
114
100
AcDbEntity
8
PERIMETER
100
AcDbCircle
10
-5.6835005001367724
20
-5.339566929133853
30
0
40
0.078740157480317277
210
0
220
0
230
1
100
AcDbArc
50
225
51
269.99999999999869
0
LINE
5
115
100
AcDbEntity
8
PERIMETER
100
AcDbLine
10
-5.6835005001367733
20
-5.4183070866141705
30
0
11
-4.985790838445908
21
-5.4183070866141705
31
0
0
ARC
5
116
100
AcDbEntity
8
PERIMETER
100
AcDbCircle
10
-4.9857908384459071
20
-5.3395669291338557
30
0
40
0.078740157480314668
210
0
220
0
230
1
100
AcDbArc
50
269.99999999999932
51
314.99999999999864
0
LINE
5
117
100
AcDbEntity
8
PERIMETER
100
AcDbLine
10
-4.9301131391398814
20
-5.3952446284398832
30
0
11
-4.1100963232049947
21
-4.5752278125049939
31
0
0
ARC
5
118
100
AcDbEntity
8
PERIMETER
100
AcDbCircle
10
-4.0544186238989672
20
-4.6309055118110214
30
0
40
0.078740157480314668
210
0
220
-0
230
1
100
AcDbArc
50
90
51
135
0
LINE
5
119
100
AcDbEntity
8
PERIMETER
100
AcDbLine
10
-4.0544186238989672
20
-4.5521653543307066
30
0
11
-2.9337703524789909
21
-4.5521653543307075
31
0
0
ARC
5
11A
100
AcDbEntity
8
PERIMETER
100
AcDbCircle
10
-2.9337703524789909
20
-4.6309055118110232
30
0
40
0.078740157480314793
210
0
220
-0
230
1
100
AcDbArc
50
45
51
90
0
LINE
5
11B
100
AcDbEntity
8
PERIMETER
100
AcDbLine
10
-2.8780926531729634
20
-4.5752278125049957
30
0
11
-2.0580758372380741
21
-5.3952446284398849
31
0
0
ARC
5
11C
100
AcDbEntity
8
PERIMETER
100
AcDbCircle
10
-2.0023981379320461
20
-5.3395669291338574
30
0
40
0.078740157480315293
210
0
220
0
230
1
100
AcDbArc
50
224.99999999999977
51
269.99999999999972
0
LINE
5
11D
100
AcDbEntity
8
PERIMETER
100
AcDbLine
10
-2.0023981379320466
20
-5.4183070866141732
30
0
11
-1.3046884762411806
21
-5.418307086614174
31
0
0
ARC
5
11E
100
AcDbEntity
8
PERIMETER
100
AcDbCircle
10
-1.3046884762411803
20
-5.3395669291338574
30
0
40
0.078740157480315376
210
0
220
0
230
1
100
AcDbArc
50
269.99999999999983
51
315
0
LINE
5
11F
100
AcDbEntity
8
PERIMETER
100
AcDbLine
10
-1.2490107769351528
20
-5.3952446284398858
30
0
11
-0.42899396100026443
21
-4.5752278125049957
31
0
0
ARC
5
120
100
AcDbEntity
8
PERIMETER
100
AcDbCircle
10
-0.37331626169423737
20
-4.6309055118110241
30
0
40
0.078740157480314668
210
0
220
-0
230
1
100
AcDbArc
50
90
51
134.99999999999923
0
LINE
5
121
100
AcDbEntity
8
PERIMETER
100
AcDbLine
10
-0.37331626169423737
20
-4.5521653543307092
30
0
11
0.37331626169423765
21
-4.5521653543307092
31
0
0
ARC
5
122
100
AcDbEntity
8
PERIMETER
100
AcDbCircle
10
0.37331626169423765
20
-4.6309055118110241
30
0
40
0.078740157480315168
210
0
220
-0
230
1
100
AcDbArc
50
45.000000000000682
51
90
0
LINE
5
123
100
AcDbEntity
8
PERIMETER
100
AcDbLine
10
0.42899396100026471
20
-4.5752278125049965
30
0
11
1.2490107769351546
21
-5.3952446284398867
31
0
0
ARC
5
124
100
AcDbEntity
8
PERIMETER
100
AcDbCircle
10
1.3046884762411819
20
-5.3395669291338583
30
0
40
0.078740157480315418
210
0
220
0
230
1
100
AcDbArc
50
225.00000000000057
51
269.99999999999983
0
LINE
5
125
100
AcDbEntity
8
PERIMETER
100
AcDbLine
10
1.3046884762411817
20
-5.418307086614174
30
0
11
2.002398137932047
21
-5.4183070866141749
31
0
0
ARC
5
126
100
AcDbEntity
8
PERIMETER
100
AcDbCircle
10
2.002398137932047
20
-5.3395669291338592
30
0
40
0.078740157480314668
210
-0
220
0
230
1
100
AcDbArc
50
270
51
315
0
LINE
5
127
100
AcDbEntity
8
PERIMETER
100
AcDbLine
10
2.0580758372380745
20
-5.3952446284398867
30
0
11
2.8780926531729647
21
-4.5752278125049974
31
0
0
ARC
5
128
100
AcDbEntity
8
PERIMETER
100
AcDbCircle
10
2.9337703524789913
20
-4.6309055118110241
30
0
40
0.078740157480314668
210
0
220
0
230
1
100
AcDbArc
50
90.000000000000327
51
134.99999999999977
0
LINE
5
129
100
AcDbEntity
8
PERIMETER
100
AcDbLine
10
2.9337703524789909
20
-4.5521653543307092
30
0
11
4.0544186238989663
21
-4.5521653543307057
31
0
0
ARC
5
12A
100
AcDbEntity
8
PERIMETER
100
AcDbCircle
10
4.0544186238989663
20
-4.6309055118110214
30
0
40
0.078740157480314793
210
0
220
-0
230
1
100
AcDbArc
50
45
51
90
0
LINE
5
12B
100
AcDbEntity
8
PERIMETER
100
AcDbLine
10
4.1100963232049939
20
-4.5752278125049939
30
0
11
4.9301131391398814
21
-5.3952446284398823
31
0
0
ARC
5
12C
100
AcDbEntity
8
PERIMETER
100
AcDbCircle
10
4.9857908384459098
20
-5.3395669291338557
30
0
40
0.078740157480315293
210
0
220
0
230
1
100
AcDbArc
50
224.99999999999952
51
269.99999999999932
0
LINE
5
12D
100
AcDbEntity
8
PERIMETER
100
AcDbLine
10
4.9857908384459089
20
-5.4183070866141714
30
0
11
5.6835005001367733
21
-5.4183070866141705
31
0
0
ARC
5
12E
100
AcDbEntity
8
PERIMETER
100
AcDbCircle
10
5.6835005001367724
20
-5.3395669291338539
30
0
40
0.078740157480316778
210
-0
220
0
230
1
100
AcDbArc
50
270.00000000000068
51
315.00000000000091
0
LINE
5
12F
100
AcDbEntity
8
PERIMETER
100
AcDbLine
10
5.7391781994428017
20
-5.3952446284398823
30
0
11
6.559195015377691
21
-4.5752278125049939
31
0
0
ARC
5
130
100
AcDbEntity
8
PERIMETER
100
AcDbCircle
10
6.6148727146837185
20
-4.6309055118110214
30
0
40
0.078740157480314668
210
0
220
-0
230
1
100
AcDbArc
50
90
51
135
0
LINE
5
131
100
AcDbEntity
8
PERIMETER
100
AcDbLine
10
6.6148727146837185
20
-4.5521653543307066
30
0
11
7.4409448818897665
21
-4.5521653543307021
31
0
0
ARC
5
132
100
AcDbEntity
8
PERIMETER
100
AcDbCircle
10
7.4409448818897665
20
-4.4734251968503864
30
0
40
0.078740157480314668
210
-0
220
0
230
1
100
AcDbArc
50
-90
51
0
0
LINE
5
133
100
AcDbEntity
8
PERIMETER
100
AcDbLine
10
7.5196850393700814
20
-4.4734251968503864
30
0
11
7.5196850393700814
21
-4.4363786218257832
31
0
0
ARC
5
134
100
AcDbEntity
8
PERIMETER
100
AcDbCircle
10
7.5984251968503962
20
-4.4363786218257832
30
0
40
0.07874015748031471
210
0
220
0
230
1
100
AcDbArc
50
116.56505117707712
51
180
0
LINE
5
135
100
AcDbEntity
8
PERIMETER
100
AcDbLine
10
7.5632115279133929
20
-4.365951283951774
30
0
11
9.9103782203838602
21
-3.1923679377165421
31
0
0
ARC
5
136
100
AcDbEntity
8
PERIMETER
100
AcDbCircle
10
9.9455918893208644
20
-3.2627952755905509
30
0
40
0.078740157480315376
210
0
220
-0
230
1
100
AcDbArc
50
90
51
116.56505117707785
0
LINE
5
137
100
AcDbEntity
8
PERIMETER
100
AcDbLine
10
9.9455918893208644
20
-3.1840551181102352
30
0
11
11.043307086614176
21
-3.1840551181102352
31
0
0
ARC
5
138
100
AcDbEntity
8
PERIMETER
100
AcDbCircle
10
11.043307086614176
20
-3.1053149606299195
30
0
40
0.078740157480315723
210
-0
220
0
230
1
100
AcDbArc
50
270
51
360
0
LINE
5
139
100
AcDbEntity
8
PERIMETER
100
AcDbLine
10
11.122047244094491
20
-3.10531496062992
30
0
11
11.122047244094487
21
1.73720472440945
31
0
0
ARC
5
13A
100
AcDbEntity
8
PERIMETER
100
AcDbCircle
10
11.043307086614172
20
1.73720472440945
30
0
40
0.078740157480314668
210
0
220
-0
230
1
100
AcDbArc
50
0
51
90
0
LINE
5
13B
100
AcDbEntity
8
PERIMETER
100
AcDbLine
10
11.043307086614172
20
1.8159448818897646
30
0
11
9.9490986921726954
21
1.8159448818897646
31
0
0
ARC
5
13C
100
AcDbEntity
8
PERIMETER
100
AcDbCircle
10
9.9490986921726954
20
1.8946850393700794
30
0
40
0.078740157480314793
210
0
220
0
230
1
100
AcDbArc
50
224.99999999999989
51
270
0
LINE
5
13D
100
AcDbEntity
8
PERIMETER
100
AcDbLine
10
9.8934209928666679
20
1.8390073400640521
30
0
11
7.542747497544366
21
4.1896808353863531
31
0
0
ARC
5
13E
100
AcDbEntity
8
PERIMETER
100
AcDbCircle
10
7.5984251968503935
20
4.2453585346923806
30
0
40
0.078740157480314668
210
0
220
0
230
1
100
AcDbArc
50
180
51
225
0
LINE
5
13F
100
AcDbEntity
8
PERIMETER
100
AcDbLine
10
7.5196850393700787
20
4.2453585346923806
30
0
11
7.5196850393700787
21
5.3395669291338583
31
0
0
ARC
5
140
100
AcDbEntity
8
PERIMETER
100
AcDbCircle
10
7.4409448818897639
20
5.3395669291338583
30
0
40
0.078740157480314668
210
0
220
-0
230
1
100
AcDbArc
50
0
51
90
0
LINE
5
141
100
AcDbEntity
8
PERIMETER
100
AcDbLine
10
7.4409448818897639
20
5.4183070866141732
30
0
11
-7.4409448818897665
21
5.4183070866141634
31
0
0
ARC
5
142
100
AcDbEntity
8
PERIMETER
100
AcDbCircle
10
-7.4409448818897683
20
5.3395669291338486
30
0
40
0.078740157480314668
210
0
220
-0
230
1
100
AcDbArc
50
89.999999999998721
51
180
0
LINE
5
143
100
AcDbEntity
8
PERIMETER
100
AcDbLine
10
-7.5196850393700831
20
5.3395669291338486
30
0
11
-7.5196850393700814
21
4.2453585346923761
31
0
0
ARC
5
144
100
AcDbEntity
8
PERIMETER
100
AcDbCircle
10
-7.5984251968503962
20
4.2453585346923761
30
0
40
0.078740157480315792
210
-0
220
0
230
1
100
AcDbArc
50
-44.999999999999091
51
0
0
LINE
5
145
100
AcDbEntity
8
PERIMETER
100
AcDbLine
10
-7.5427474975443678
20
4.1896808353863495
30
0
11
-9.8934209928666732
21
1.8390073400640492
31
0
0
ARC
5
146
100
AcDbEntity
8
PERIMETER
100
AcDbCircle
10
-9.9490986921726989
20
1.8946850393700752
30
0
40
0.078740157480314668
210
-0
220
0
230
1
100
AcDbArc
50
270
51
315.00000000000011
0
LINE
5
147
100
AcDbEntity
8
PERIMETER
100
AcDbLine
10
-9.9490986921726989
20
1.8159448818897603
30
0
11
-11.043307086614174
21
1.8159448818897603
31
0
0
ARC
5
148
100
AcDbEntity
8
PERIMETER
100
AcDbCircle
10
-11.043307086614174
20
1.7372047244094457
30
0
40
0.078740157480314668
210
0
220
-0
230
1
100
AcDbArc
50
90
51
180
0
LINE
5
149
100
AcDbEntity
8
PERIMETER
100
AcDbLine
10
-11.122047244094489
20
1.7372047244094457
30
0
11
-11.122047244094491
21
-3.1053149606299284
31
0
0
ARC
5
14A
100
AcDbEntity
8
PERIMETER
100
AcDbCircle
10
-11.043307086614176
20
-3.105314960629928
30
0
40
0.078740157480314668
210
0
220
0
230
1
100
AcDbArc
50
180
51
270
0
ENDSEC
0
SECTION
2
OBJECTS
0
DICTIONARY
5
C
100
AcDbDictionary
3
ACAD_GROUP
350
D
3
ACAD_MLINESTYLE
350
17
0
DICTIONARY
5
D
100
AcDbDictionary
0
DICTIONARY
5
1A
330
C
100
AcDbDictionary
0
DICTIONARY
5
17
100
AcDbDictionary
0
ENDSEC
0
EOF
