0
SECTION
2
HEADER
9
$INSUNITS
70
1
9
$ACADVER
1
AC1014
9
$HANDSEED
5
FFFF
0
ENDSEC
0
SECTION
2
TABLES
0
TABLE
2
VPORT
5
8
100
AcDbSymbolTable
0
ENDTAB
0
TABLE
2
LTYPE
5
5
100
AcDbSymbolTable
70
2
0
LTYPE
5
14
100
AcDbSymbolTableRecord
100
AcDbLinetypeTableRecord
2
BYBLOCK
70
0
0
LTYPE
5
15
100
AcDbSymbolTableRecord
100
AcDbLinetypeTableRecord
2
BYLAYER
70
0
0
ENDTAB
0
TABLE
2
LAYER
5
2
100
AcDbSymbolTable
70
3
0
LAYER
5
50
100
AcDbSymbolTableRecord
100
AcDbLayerTableRecord
2
0
70
0
6
CONTINUOUS
0
LAYER
5
51
100
AcDbSymbolTableRecord
100
AcDbLayerTableRecord
2
CUTOUTS
70
0
62
1
6
CONTINUOUS
0
LAYER
5
52
100
AcDbSymbolTableRecord
100
AcDbLayerTableRecord
2
PERIMETER
70
0
62
5
6
CONTINUOUS
0
ENDTAB
0
TABLE
2
STYLE
5
3
100
AcDbSymbolTable
70
1
0
STYLE
5
11
100
AcDbSymbolTableRecord
100
AcDbTextStyleTableRecord
2
STANDARD
70
0
0
ENDTAB
0
TABLE
2
VIEW
5
6
100
AcDbSymbolTable
0
ENDTAB
0
TABLE
2
UCS
5
7
100
AcDbSymbolTable
0
ENDTAB
0
TABLE
2
APPID
5
9
100
AcDbSymbolTable
70
1
0
APPID
5
12
100
AcDbSymbolTableRecord
100
AcDbRegAppTableRecord
2
ACAD
70
0
0
ENDTAB
0
TABLE
2
DIMSTYLE
5
A
100
AcDbSymbolTable
0
ENDTAB
0
TABLE
2
BLOCK_RECORD
5
1
100
AcDbSymbolTable
70
2
0
BLOCK_RECORD
5
1F
100
AcDbSymbolTableRecord
100
AcDbBlockTableRecord
2
*MODEL_SPACE
0
BLOCK_RECORD
5
1B
100
AcDbSymbolTableRecord
100
AcDbBlockTableRecord
2
*PAPER_SPACE
0
ENDTAB
0
ENDSEC
0
SECTION
2
BLOCKS
0
BLOCK
5
20
100
AcDbEntity
100
AcDbBlockBegin
2
*MODEL_SPACE
0
ENDBLK
5
21
100
AcDbEntity
100
AcDbBlockEnd
0
BLOCK
5
1C
100
AcDbEntity
100
AcDbBlockBegin
2
*PAPER_SPACE
0
ENDBLK
5
1D
100
AcDbEntity
100
AcDbBlockEnd
0
ENDSEC
0
SECTION
2
ENTITIES
0
CIRCLE
5
100
100
AcDbEntity
8
CUTOUTS
100
AcDbCircle
10
-2.6919291338585714
20
9.9409448818900277
30
0
40
0.12696850393700779
210
0
220
0
230
1
0
CIRCLE
5
101
100
AcDbEntity
8
CUTOUTS
100
AcDbCircle
10
-9.2519685039373236
20
-4.7968626318503036e-14
30
0
40
0.12696850393700848
210
0
220
0
230
1
0
CIRCLE
5
102
100
AcDbEntity
8
CUTOUTS
100
AcDbCircle
10
5.1181102362201649
20
-9.9409448818898039
30
0
40
0.12696850393700779
210
0
220
0
230
1
0
CIRCLE
5
103
100
AcDbEntity
8
CUTOUTS
100
AcDbCircle
10
-5.1181102362207813
20
-9.9409448818898127
30
0
40
0.12696850393700779
210
0
220
0
230
1
0
CIRCLE
5
104
100
AcDbEntity
8
CUTOUTS
100
AcDbCircle
10
9.2519685039366912
20
5.8070866141731621
30
0
40
0.12696850393700848
210
0
220
0
230
1
0
CIRCLE
5
105
100
AcDbEntity
8
CUTOUTS
100
AcDbCircle
10
-9.251968503937313
20
5.8070866141731807
30
0
40
0.12696850393700848
210
0
220
0
230
1
0
CIRCLE
5
106
100
AcDbEntity
8
CUTOUTS
100
AcDbCircle
10
-9.251968503937313
20
-5.8070866141732758
30
0
40
0.12696850393700848
210
0
220
0
230
1
0
CIRCLE
5
107
100
AcDbEntity
8
CUTOUTS
100
AcDbCircle
10
-3.1731828363496474e-13
20
-9.9409448818898127
30
0
40
0.12696850393700787
210
0
220
0
230
1
0
CIRCLE
5
108
100
AcDbEntity
8
CUTOUTS
100
AcDbCircle
10
9.2519685039366895
20
-5.8070866141732598
30
0
40
0.12696850393700848
210
0
220
0
230
1
0
CIRCLE
5
109
100
AcDbEntity
8
CUTOUTS
100
AcDbCircle
10
9.2519685039366912
20
-6.5776941584019704e-14
30
0
40
0.12696850393700848
210
0
220
0
230
1
0
CIRCLE
5
10A
100
AcDbEntity
8
CUTOUTS
100
AcDbCircle
10
2.6919291338604316
20
9.9409448818897008
30
0
40
0.12696850393700779
210
0
220
0
230
1
0
LINE
5
10B
100
AcDbEntity
8
PERIMETER
100
AcDbLine
10
-0.89271653543369467
20
9.5108267716534822
30
0
11
-0.89271653543369467
21
10.534448818897587
31
0
0
LINE
5
10C
100
AcDbEntity
8
PERIMETER
100
AcDbLine
10
-0.89271653543369467
20
10.534448818897587
30
0
11
-4.4911417322840892
21
10.534448818897637
31
0
0
LINE
5
10D
100
AcDbEntity
8
PERIMETER
100
AcDbLine
10
-4.4911417322840892
20
10.534448818897637
30
0
11
-4.4911417322840892
21
9.5108267716534822
31
0
0
LINE
5
10E
100
AcDbEntity
8
PERIMETER
100
AcDbLine
10
-4.4911417322840892
20
9.5108267716534822
30
0
11
-6.282480314961254
21
9.5108267716534467
31
0
0
LINE
5
10F
100
AcDbEntity
8
PERIMETER
100
AcDbLine
10
-6.282480314961254
20
9.5108267716534467
30
0
11
-6.282480314961254
21
9.3436196247493495
31
0
0
LINE
5
110
100
AcDbEntity
8
PERIMETER
100
AcDbLine
10
-6.282480314961254
20
9.3436196247493495
30
0
11
-8.6546432467972796
21
6.9714566929133044
31
0
0
LINE
5
111
100
AcDbEntity
8
PERIMETER
100
AcDbLine
10
-8.6546432467972796
20
6.9714566929133044
30
0
11
-9.8454724409455086
21
6.9714566929132982
31
0
0
LINE
5
112
100
AcDbEntity
8
PERIMETER
100
AcDbLine
10
-9.8454724409455086
20
6.9714566929132982
30
0
11
-9.8454724409417018
21
-6.9714566929159583
31
0
0
LINE
5
113
100
AcDbEntity
8
PERIMETER
100
AcDbLine
10
-9.8454724409417018
20
-6.9714566929159583
30
0
11
-8.6546432467934835
21
-6.9714566929145443
31
0
0
LINE
5
114
100
AcDbEntity
8
PERIMETER
100
AcDbLine
10
-8.6546432467934835
20
-6.9714566929145443
30
0
11
-6.2824803149457793
21
-9.3436196247475412
31
0
0
LINE
5
115
100
AcDbEntity
8
PERIMETER
100
AcDbLine
10
-6.2824803149457793
20
-9.3436196247475412
30
0
11
-6.2824803149474313
21
-10.534448818895692
31
0
0
LINE
5
116
100
AcDbEntity
8
PERIMETER
100
AcDbLine
10
-6.2824803149474313
20
-10.534448818895692
30
0
11
6.2824803149278745
21
-10.53444881888216
31
0
0
LINE
5
117
100
AcDbEntity
8
PERIMETER
100
AcDbLine
10
6.2824803149278745
20
-10.53444881888216
30
0
11
6.2824803149343635
21
-9.34361962474153
31
0
0
LINE
5
118
100
AcDbEntity
8
PERIMETER
100
AcDbLine
10
6.2824803149343635
20
-9.34361962474153
30
0
11
8.6546432467993295
21
-6.9714566928997392
31
0
0
LINE
5
119
100
AcDbEntity
8
PERIMETER
100
AcDbLine
10
8.6546432467993295
20
-6.9714566928997392
30
0
11
9.8454724409448868
21
-6.9714566929165729
31
0
0
LINE
5
11A
100
AcDbEntity
8
PERIMETER
100
AcDbLine
10
9.8454724409448868
20
-6.9714566929165729
30
0
11
9.8454724409421459
21
6.9714566929247583
31
0
0
LINE
5
11B
100
AcDbEntity
8
PERIMETER
100
AcDbLine
10
9.8454724409421459
20
6.9714566929247583
30
0
11
8.654643246796601
21
6.9714566929147068
31
0
0
LINE
5
11C
100
AcDbEntity
8
PERIMETER
100
AcDbLine
10
8.654643246796601
20
6.9714566929147068
30
0
11
6.2824803149567083
21
9.3436196247501666
31
0
0
LINE
5
11D
100
AcDbEntity
8
PERIMETER
100
AcDbLine
10
6.2824803149567083
20
9.3436196247501666
30
0
11
6.2824803149625259
21
9.5108267716561627
31
0
0
LINE
5
11E
100
AcDbEntity
8
PERIMETER
100
AcDbLine
10
6.2824803149625259
20
9.5108267716561627
30
0
11
4.4911417322748051
21
9.5108267716529387
31
0
0
LINE
5
11F
100
AcDbEntity
8
PERIMETER
100
AcDbLine
10
4.4911417322748051
20
9.5108267716529387
30
0
11
4.4911417322864136
21
10.534448818897047
31
0
0
LINE
5
120
100
AcDbEntity
8
PERIMETER
100
AcDbLine
10
4.4911417322864136
20
10.534448818897047
30
0
11
0.89271653543244633
21
10.53444881889758
31
0
0
LINE
5
121
100
AcDbEntity
8
PERIMETER
100
AcDbLine
10
0.89271653543244633
20
10.53444881889758
30
0
11
0.89271653543244667
21
9.5108267716534822
31
0
0
LINE
5
122
100
AcDbEntity
8
PERIMETER
100
AcDbLine
10
0.89271653543244667
20
9.5108267716534822
30
0
11
-0.89271653543369467
21
9.5108267716534822
31
0
0
ENDSEC
0
SECTION
2
OBJECTS
0
DICTIONARY
5
C
100
AcDbDictionary
3
ACAD_GROUP
350
D
3
ACAD_MLINESTYLE
350
17
0
DICTIONARY
5
D
100
AcDbDictionary
0
DICTIONARY
5
1A
330
C
100
AcDbDictionary
0
DICTIONARY
5
17
100
AcDbDictionary
0
ENDSEC
0
EOF
