0
SECTION
2
HEADER
9
$INSUNITS
70
1
9
$ACADVER
1
AC1014
9
$HANDSEED
5
FFFF
0
ENDSEC
0
SECTION
2
TABLES
0
TABLE
2
VPORT
5
8
100
AcDbSymbolTable
0
ENDTAB
0
TABLE
2
LTYPE
5
5
100
AcDbSymbolTable
70
2
0
LTYPE
5
14
100
AcDbSymbolTableRecord
100
AcDbLinetypeTableRecord
2
BYBLOCK
70
0
0
LTYPE
5
15
100
AcDbSymbolTableRecord
100
AcDbLinetypeTableRecord
2
BYLAYER
70
0
0
ENDTAB
0
TABLE
2
LAYER
5
2
100
AcDbSymbolTable
70
3
0
LAYER
5
50
100
AcDbSymbolTableRecord
100
AcDbLayerTableRecord
2
0
70
0
6
CONTINUOUS
0
LAYER
5
51
100
AcDbSymbolTableRecord
100
AcDbLayerTableRecord
2
CUTOUTS
70
0
62
1
6
CONTINUOUS
0
LAYER
5
52
100
AcDbSymbolTableRecord
100
AcDbLayerTableRecord
2
PERIMETER
70
0
62
5
6
CONTINUOUS
0
ENDTAB
0
TABLE
2
STYLE
5
3
100
AcDbSymbolTable
70
1
0
STYLE
5
11
100
AcDbSymbolTableRecord
100
AcDbTextStyleTableRecord
2
STANDARD
70
0
0
ENDTAB
0
TABLE
2
VIEW
5
6
100
AcDbSymbolTable
0
ENDTAB
0
TABLE
2
UCS
5
7
100
AcDbSymbolTable
0
ENDTAB
0
TABLE
2
APPID
5
9
100
AcDbSymbolTable
70
1
0
APPID
5
12
100
AcDbSymbolTableRecord
100
AcDbRegAppTableRecord
2
ACAD
70
0
0
ENDTAB
0
TABLE
2
DIMSTYLE
5
A
100
AcDbSymbolTable
0
ENDTAB
0
TABLE
2
BLOCK_RECORD
5
1
100
AcDbSymbolTable
70
2
0
BLOCK_RECORD
5
1F
100
AcDbSymbolTableRecord
100
AcDbBlockTableRecord
2
*MODEL_SPACE
0
BLOCK_RECORD
5
1B
100
AcDbSymbolTableRecord
100
AcDbBlockTableRecord
2
*PAPER_SPACE
0
ENDTAB
0
ENDSEC
0
SECTION
2
BLOCKS
0
BLOCK
5
20
100
AcDbEntity
100
AcDbBlockBegin
2
*MODEL_SPACE
0
ENDBLK
5
21
100
AcDbEntity
100
AcDbBlockEnd
0
BLOCK
5
1C
100
AcDbEntity
100
AcDbBlockBegin
2
*PAPER_SPACE
0
ENDBLK
5
1D
100
AcDbEntity
100
AcDbBlockEnd
0
ENDSEC
0
SECTION
2
ENTITIES
0
CIRCLE
5
100
100
AcDbEntity
8
CUTOUTS
100
AcDbCircle
10
5.4133858267716555
20
9.5423228346456668
30
0
40
0.1299212598425197
210
0
220
0
230
1
0
CIRCLE
5
101
100
AcDbEntity
8
CUTOUTS
100
AcDbCircle
10
-8.5629921259842536
20
9.5423228346456632
30
0
40
0.12992125984251901
210
0
220
0
230
1
0
CIRCLE
5
102
100
AcDbEntity
8
CUTOUTS
100
AcDbCircle
10
-9.0748031496063
20
0.093503937007872892
30
0
40
0.12992125984251901
210
0
220
0
230
1
0
CIRCLE
5
103
100
AcDbEntity
8
CUTOUTS
100
AcDbCircle
10
-8.5629921259842412
20
-9.3553149606299275
30
0
40
0.12992125984251901
210
0
220
0
230
1
0
CIRCLE
5
104
100
AcDbEntity
8
CUTOUTS
100
AcDbCircle
10
5.4133858267716546
20
-9.3553149606299222
30
0
40
0.1299212598425197
210
0
220
0
230
1
0
CIRCLE
5
105
100
AcDbEntity
8
CUTOUTS
100
AcDbCircle
10
8.9566929133858277
20
0.68405511811023501
30
0
40
0.12992125984251901
210
0
220
0
230
1
0
CIRCLE
5
106
100
AcDbEntity
8
CUTOUTS
100
AcDbCircle
10
8.9566929133858295
20
7.1801181102362177
30
0
40
0.12992125984251901
210
0
220
0
230
1
0
CIRCLE
5
107
100
AcDbEntity
8
CUTOUTS
100
AcDbCircle
10
8.9566929133858242
20
-5.8120078740157455
30
0
40
0.12992125984251901
210
0
220
0
230
1
0
CIRCLE
5
108
100
AcDbEntity
8
CUTOUTS
100
AcDbCircle
10
-1.5748031496063004
20
-9.355314960629924
30
0
40
0.1299212598425197
210
0
220
0
230
1
0
CIRCLE
5
109
100
AcDbEntity
8
CUTOUTS
100
AcDbCircle
10
-9.0748031496063
20
-7.7805118110236364
30
0
40
0.12992125984251901
210
0
220
0
230
1
0
CIRCLE
5
10A
100
AcDbEntity
8
CUTOUTS
100
AcDbCircle
10
-9.0748031496063017
20
8.1643700787401485
30
0
40
0.12992125984251901
210
0
220
0
230
1
0
CIRCLE
5
10B
100
AcDbEntity
8
CUTOUTS
100
AcDbCircle
10
-1.574803149606302
20
9.5423228346456614
30
0
40
0.1299212598425197
210
0
220
0
230
1
0
LINE
5
10C
100
AcDbEntity
8
PERIMETER
100
AcDbLine
10
-1.9793356797577593
20
9.9228036835579925
30
0
11
-2.7993524956926481
21
9.1027868676231023
31
0
0
ARC
5
10D
100
AcDbEntity
8
PERIMETER
100
AcDbCircle
10
-2.8550301949986752
20
9.1584645669291298
30
0
40
0.078740157480314668
210
-0
220
0
230
1
100
AcDbArc
50
270
51
315
0
LINE
5
10E
100
AcDbEntity
8
PERIMETER
100
AcDbLine
10
-2.8550301949986752
20
9.079724409448815
30
0
11
-3.6016627183871499
21
9.079724409448815
31
0
0
ARC
5
10F
100
AcDbEntity
8
PERIMETER
100
AcDbCircle
10
-3.6016627183871499
20
9.1584645669291298
30
0
40
0.078740157480314793
210
0
220
0
230
1
100
AcDbArc
50
225.00000000000023
51
270
0
LINE
5
110
100
AcDbEntity
8
PERIMETER
100
AcDbLine
10
-3.657340417693177
20
9.1027868676231023
30
0
11
-4.4773572336280667
21
9.9228036835579942
31
0
0
ARC
5
111
100
AcDbEntity
8
PERIMETER
100
AcDbCircle
10
-4.5330349329340933
20
9.8671259842519667
30
0
40
0.078740157480314793
210
0
220
-0
230
1
100
AcDbArc
50
45.000000000000462
51
90.000000000000654
0
LINE
5
112
100
AcDbEntity
8
PERIMETER
100
AcDbLine
10
-4.5330349329340933
20
9.9458661417322816
30
0
11
-5.6047603426564621
21
9.9458661417322816
31
0
0
ARC
5
113
100
AcDbEntity
8
PERIMETER
100
AcDbCircle
10
-5.6047603426564621
20
9.8671259842519685
30
0
40
0.07874015748031328
210
0
220
-0
230
1
100
AcDbArc
50
90
51
135.00000000000045
0
LINE
5
114
100
AcDbEntity
8
PERIMETER
100
AcDbLine
10
-5.6604380419624887
20
9.9228036835579942
30
0
11
-6.4804548578973744
21
9.1027868676231058
31
0
0
ARC
5
115
100
AcDbEntity
8
PERIMETER
100
AcDbCircle
10
-6.5361325572034019
20
9.1584645669291334
30
0
40
0.078740157480314668
210
-0
220
0
230
1
100
AcDbArc
50
270
51
315
0
LINE
5
116
100
AcDbEntity
8
PERIMETER
100
AcDbLine
10
-6.5361325572034019
20
9.0797244094488185
30
0
11
-7.2827650805918784
21
9.0797244094488185
31
0
0
ARC
5
117
100
AcDbEntity
8
PERIMETER
100
AcDbCircle
10
-7.2827650805918784
20
9.1584645669291334
30
0
40
0.078740157480314793
210
0
220
0
230
1
100
AcDbArc
50
225
51
270
0
LINE
5
118
100
AcDbEntity
8
PERIMETER
100
AcDbLine
10
-7.3384427798979059
20
9.1027868676231058
30
0
11
-8.1584595958327917
21
9.9228036835579942
31
0
0
ARC
5
119
100
AcDbEntity
8
PERIMETER
100
AcDbCircle
10
-8.2141372951388174
20
9.8671259842519703
30
0
40
0.078740157480311837
210
0
220
-0
230
1
100
AcDbArc
50
44.999999999999091
51
90.000000000001307
0
LINE
5
11A
100
AcDbEntity
8
PERIMETER
100
AcDbLine
10
-8.2141372951388192
20
9.9458661417322816
30
0
11
-9.0157480314960665
21
9.9458661417322887
31
0
0
ARC
5
11B
100
AcDbEntity
8
PERIMETER
100
AcDbCircle
10
-9.0157480314960665
20
9.8671259842519738
30
0
40
0.078740157480314668
210
0
220
-0
230
1
100
AcDbArc
50
90
51
180
0
LINE
5
11C
100
AcDbEntity
8
PERIMETER
100
AcDbLine
10
-9.0944881889763813
20
9.8671259842519738
30
0
11
-9.0944881889763813
21
8.963937676943889
31
0
0
ARC
5
11D
100
AcDbEntity
8
PERIMETER
100
AcDbCircle
10
-9.1732283464566944
20
8.963937676943889
30
0
40
0.078740157480315334
210
-0
220
0
230
1
100
AcDbArc
50
-63.434948822922571
51
0
0
LINE
5
11E
100
AcDbEntity
8
PERIMETER
100
AcDbLine
10
-9.1380146775196902
20
8.8935103390698806
30
0
11
-9.5037176059448818
21
8.710658874857284
31
0
0
ARC
5
11F
100
AcDbEntity
8
PERIMETER
100
AcDbCircle
10
-9.4685039370078741
20
8.6402315369832738
30
0
40
0.078740157480315959
210
0
220
0
230
1
100
AcDbArc
50
116.56505117708031
51
180
0
LINE
5
120
100
AcDbEntity
8
PERIMETER
100
AcDbLine
10
-9.5472440944881907
20
8.6402315369832738
30
0
11
-9.5472440944881907
21
7.803284532470343
31
0
0
ARC
5
121
100
AcDbEntity
8
PERIMETER
100
AcDbCircle
10
-9.4685039370078616
20
7.8032845324703501
30
0
40
0.078740157480330059
210
0
220
0
230
1
100
AcDbArc
50
180
51
224.99999999999449
0
LINE
5
122
100
AcDbEntity
8
PERIMETER
100
AcDbLine
10
-9.5241816363139051
20
7.7476068331643191
30
0
11
-8.6647947416341768
21
6.8882199384845348
31
0
0
ARC
5
123
100
AcDbEntity
8
PERIMETER
100
AcDbCircle
10
-8.7204724409402044
20
6.8325422391785091
30
0
40
0.078740157480314668
210
-0
220
0
230
1
100
AcDbArc
50
0
51
44.999999999999091
0
LINE
5
124
100
AcDbEntity
8
PERIMETER
100
AcDbLine
10
-8.6417322834598895
20
6.8325422391784967
30
0
11
-8.6417322834607155
21
1.425331776568652
31
0
0
ARC
5
125
100
AcDbEntity
8
PERIMETER
100
AcDbCircle
10
-8.7204724409410304
20
1.4253317765686646
30
0
40
0.078740157480315792
210
-0
220
0
230
1
100
AcDbArc
50
315.00000000000102
51
360
0
LINE
5
126
100
AcDbEntity
8
PERIMETER
100
AcDbLine
10
-8.6647947416350011
20
1.3696540772626373
30
0
11
-9.5241816363138998
21
0.51026718258373371
31
0
0
ARC
5
127
100
AcDbEntity
8
PERIMETER
100
AcDbCircle
10
-9.4685039370078687
20
0.45458948327770921
30
0
40
0.078740157480314793
210
0
220
0
230
1
100
AcDbArc
50
135.00000000000338
51
180
0
LINE
5
128
100
AcDbEntity
8
PERIMETER
100
AcDbLine
10
-9.5472440944881836
20
0.45458948327770782
30
0
11
-9.5472440944881853
21
-0.26758160926196067
31
0
0
ARC
5
129
100
AcDbEntity
8
PERIMETER
100
AcDbCircle
10
-9.468503937007867
20
-0.26758160926195784
30
0
40
0.078740157480318873
210
0
220
0
230
1
100
AcDbArc
50
180
51
224.99999999999878
0
LINE
5
12A
100
AcDbEntity
8
PERIMETER
100
AcDbLine
10
-9.524181636313898
20
-0.32325930856798651
30
0
11
-8.6647947416354114
21
-1.1826462032464788
31
0
0
ARC
5
12B
100
AcDbEntity
8
PERIMETER
100
AcDbCircle
10
-8.7204724409414389
20
-1.2383239025525061
30
0
40
0.078740157480314668
210
-0
220
0
230
1
100
AcDbArc
50
0
51
44.999999999999773
0
LINE
5
12C
100
AcDbEntity
8
PERIMETER
100
AcDbLine
10
-8.6417322834611241
20
-1.2383239025525188
30
0
11
-8.6417322834619199
21
-6.4486839714640727
31
0
0
ARC
5
12D
100
AcDbEntity
8
PERIMETER
100
AcDbCircle
10
-8.7204724409422347
20
-6.448683971464062
30
0
40
0.078740157480314793
210
-0
220
0
230
1
100
AcDbArc
50
315.00000000000045
51
360
0
LINE
5
12E
100
AcDbEntity
8
PERIMETER
100
AcDbLine
10
-8.6647947416362072
20
-6.5043616707700886
30
0
11
-9.5241816363138945
21
-7.3637485654477732
31
0
0
ARC
5
12F
100
AcDbEntity
8
PERIMETER
100
AcDbCircle
10
-9.4685039370078723
20
-7.4194262647537972
30
0
40
0.078740157480308867
210
0
220
0
230
1
100
AcDbArc
50
134.99999999999909
51
180
0
LINE
5
130
100
AcDbEntity
8
PERIMETER
100
AcDbLine
10
-9.5472440944881818
20
-7.4194262647537998
30
0
11
-9.54724409448818
21
-8.2549312020352179
31
0
0
ARC
5
131
100
AcDbEntity
8
PERIMETER
100
AcDbCircle
10
-9.468503937007867
20
-8.2549312020352215
30
0
40
0.07874015748031328
210
0
220
0
230
1
100
AcDbArc
50
180
51
224.99999999999909
0
LINE
5
132
100
AcDbEntity
8
PERIMETER
100
AcDbLine
10
-9.5241816363138945
20
-8.3106089013412454
30
0
11
-9.1175506471506669
21
-8.717239890504473
31
0
0
ARC
5
133
100
AcDbEntity
8
PERIMETER
100
AcDbCircle
10
-9.1732283464566926
20
-8.7729175898105005
30
0
40
0.078740157480314668
210
0
220
-0
230
1
100
AcDbArc
50
0
51
45.000000000000917
0
LINE
5
134
100
AcDbEntity
8
PERIMETER
100
AcDbLine
10
-9.0944881889763778
20
-8.7729175898105005
30
0
11
-9.0944881889763742
21
-9.8671259842519738
31
0
0
ARC
5
135
100
AcDbEntity
8
PERIMETER
100
AcDbCircle
10
-9.0157480314960612
20
-9.8671259842519756
30
0
40
0.078740157480311879
210
0
220
0
230
1
100
AcDbArc
50
180
51
270
0
LINE
5
136
100
AcDbEntity
8
PERIMETER
100
AcDbLine
10
-9.0157480314960612
20
-9.9458661417322887
30
0
11
5.8661417322834604
21
-9.9458661417322887
31
0
0
ARC
5
137
100
AcDbEntity
8
PERIMETER
100
AcDbCircle
10
5.8661417322834604
20
-9.8671259842519756
30
0
40
0.07874015748031328
210
-0
220
0
230
1
100
AcDbArc
50
-90
51
0
0
LINE
5
138
100
AcDbEntity
8
PERIMETER
100
AcDbLine
10
5.9448818897637743
20
-9.8671259842519738
30
0
11
5.9448818897637752
21
-8.7729175898104916
31
0
0
ARC
5
139
100
AcDbEntity
8
PERIMETER
100
AcDbCircle
10
6.02362204724409
20
-8.7729175898104916
30
0
40
0.078740157480314793
210
0
220
0
230
1
100
AcDbArc
50
135
51
180
0
LINE
5
13A
100
AcDbEntity
8
PERIMETER
100
AcDbLine
10
5.9679443479380625
20
-8.7172398905044641
30
0
11
8.3186178432603679
21
-6.3665663951821641
31
0
0
ARC
5
13B
100
AcDbEntity
8
PERIMETER
100
AcDbCircle
10
8.3742955425663936
20
-6.4222440944881916
30
0
40
0.07874015748031607
210
0
220
-0
230
1
100
AcDbArc
50
90
51
134.99999999999818
0
LINE
5
13C
100
AcDbEntity
8
PERIMETER
100
AcDbLine
10
8.3742955425663936
20
-6.343503937007875
30
0
11
9.4685039370078741
21
-6.3435039370078723
31
0
0
ARC
5
13D
100
AcDbEntity
8
PERIMETER
100
AcDbCircle
10
9.4685039370078723
20
-6.2647637795275566
30
0
40
0.07874015748031607
210
-0
220
0
230
1
100
AcDbArc
50
-89.999999999998735
51
0
0
LINE
5
13E
100
AcDbEntity
8
PERIMETER
100
AcDbLine
10
9.5472440944881889
20
-6.2647637795275566
30
0
11
9.5472440944881907
21
7.6328740157480288
31
0
0
ARC
5
13F
100
AcDbEntity
8
PERIMETER
100
AcDbCircle
10
9.4685039370078758
20
7.6328740157480279
30
0
40
0.078740157480314668
210
0
220
-0
230
1
100
AcDbArc
50
0
51
90
0
LINE
5
140
100
AcDbEntity
8
PERIMETER
100
AcDbLine
10
9.4685039370078758
20
7.7116141732283428
30
0
11
8.3707887397145644
21
7.7116141732283428
31
0
0
ARC
5
141
100
AcDbEntity
8
PERIMETER
100
AcDbCircle
10
8.3707887397145644
20
7.7903543307086585
30
0
40
0.078740157480315334
210
0
220
0
230
1
100
AcDbArc
50
243.43494882292228
51
270
0
LINE
5
142
100
AcDbEntity
8
PERIMETER
100
AcDbLine
10
8.3355750707775602
20
7.7199269928346492
30
0
11
5.9884083783070938
21
8.8935103390698842
31
0
0
ARC
5
143
100
AcDbEntity
8
PERIMETER
100
AcDbCircle
10
6.0236220472440989
20
8.9639376769438925
30
0
40
0.078740157480314668
210
0
220
0
230
1
100
AcDbArc
50
180
51
243.43494882292143
0
LINE
5
144
100
AcDbEntity
8
PERIMETER
100
AcDbLine
10
5.9448818897637841
20
8.9639376769438925
30
0
11
5.9448818897637841
21
9.8671259842519721
31
0
0
ARC
5
145
100
AcDbEntity
8
PERIMETER
100
AcDbCircle
10
5.8661417322834692
20
9.8671259842519721
30
0
40
0.078740157480314668
210
-0
220
0
230
1
100
AcDbArc
50
0
51
90
0
LINE
5
146
100
AcDbEntity
8
PERIMETER
100
AcDbLine
10
5.8661417322834692
20
9.9458661417322869
30
0
11
5.0645309959262246
21
9.9458661417322816
31
0
0
ARC
5
147
100
AcDbEntity
8
PERIMETER
100
AcDbCircle
10
5.0645309959262246
20
9.8671259842519667
30
0
40
0.07874015748031607
210
0
220
-0
230
1
100
AcDbArc
50
90
51
135.00000000000091
0
LINE
5
148
100
AcDbEntity
8
PERIMETER
100
AcDbLine
10
5.0088532966201953
20
9.9228036835579942
30
0
11
4.1888364806853069
21
9.1027868676231041
31
0
0
ARC
5
149
100
AcDbEntity
8
PERIMETER
100
AcDbCircle
10
4.1331587813792794
20
9.1584645669291334
30
0
40
0.078740157480314668
210
-0
220
0
230
1
100
AcDbArc
50
270
51
315
0
LINE
5
14A
100
AcDbEntity
8
PERIMETER
100
AcDbLine
10
4.1331587813792794
20
9.0797244094488185
30
0
11
3.3865262579908038
21
9.0797244094488185
31
0
0
ARC
5
14B
100
AcDbEntity
8
PERIMETER
100
AcDbCircle
10
3.3865262579908038
20
9.1584645669291334
30
0
40
0.078740157480314793
210
0
220
0
230
1
100
AcDbArc
50
225.00000000000023
51
270
0
LINE
5
14C
100
AcDbEntity
8
PERIMETER
100
AcDbLine
10
3.3308485586847767
20
9.1027868676231058
30
0
11
2.5108317427498901
21
9.9228036835579942
31
0
0
ARC
5
14D
100
AcDbEntity
8
PERIMETER
100
AcDbCircle
10
2.455154043443863
20
9.8671259842519667
30
0
40
0.078740157480314793
210
0
220
-0
230
1
100
AcDbArc
50
45.000000000000227
51
90
0
LINE
5
14E
100
AcDbEntity
8
PERIMETER
100
AcDbLine
10
2.455154043443863
20
9.9458661417322816
30
0
11
1.3834286337214967
21
9.945866141732278
31
0
0
ARC
5
14F
100
AcDbEntity
8
PERIMETER
100
AcDbCircle
10
1.3834286337214972
20
9.8671259842519632
30
0
40
0.078740157480314668
210
0
220
0
230
1
100
AcDbArc
50
90.000000000000327
51
135.00000000000011
0
LINE
5
150
100
AcDbEntity
8
PERIMETER
100
AcDbLine
10
1.3277509344154692
20
9.9228036835579907
30
0
11
0.50773411848058014
21
9.1027868676231005
31
0
0
ARC
5
151
100
AcDbEntity
8
PERIMETER
100
AcDbCircle
10
0.45205641917455291
20
9.158464566929128
30
0
40
0.078740157480314668
210
-0
220
0
230
1
100
AcDbArc
50
270
51
314.99999999999983
0
LINE
5
152
100
AcDbEntity
8
PERIMETER
100
AcDbLine
10
0.45205641917455291
20
9.0797244094488132
30
0
11
-0.29457610421392216
21
9.0797244094488132
31
0
0
ARC
5
153
100
AcDbEntity
8
PERIMETER
100
AcDbCircle
10
-0.29457610421392216
20
9.1584645669291298
30
0
40
0.078740157480314932
210
0
220
0
230
1
100
AcDbArc
50
225.00000000000003
51
269.99999999999994
0
LINE
5
154
100
AcDbEntity
8
PERIMETER
100
AcDbLine
10
-0.35025380351994961
20
9.1027868676231005
30
0
11
-1.1702706194548387
21
9.9228036835579907
31
0
0
ARC
5
155
100
AcDbEntity
8
PERIMETER
100
AcDbCircle
10
-1.2259483187608666
20
9.8671259842519632
30
0
40
0.078740157480315293
210
0
220
-0
230
1
100
AcDbArc
50
44.999999999999773
51
89.999999999999844
0
LINE
5
156
100
AcDbEntity
8
PERIMETER
100
AcDbLine
10
-1.2259483187608666
20
9.9458661417322798
30
0
11
-1.9236579804517318
21
9.9458661417322798
31
0
0
ARC
5
157
100
AcDbEntity
8
PERIMETER
100
AcDbCircle
10
-1.9236579804517318
20
9.867125984251965
30
0
40
0.078740157480314668
210
0
220
-0
230
1
100
AcDbArc
50
90
51
135
0
ENDSEC
0
SECTION
2
OBJECTS
0
DICTIONARY
5
C
100
AcDbDictionary
3
ACAD_GROUP
350
D
3
ACAD_MLINESTYLE
350
17
0
DICTIONARY
5
D
100
AcDbDictionary
0
DICTIONARY
5
1A
330
C
100
AcDbDictionary
0
DICTIONARY
5
17
100
AcDbDictionary
0
ENDSEC
0
EOF
