0
SECTION
2
HEADER
9
$INSUNITS
70
1
9
$ACADVER
1
AC1014
9
$HANDSEED
5
FFFF
0
ENDSEC
0
SECTION
2
TABLES
0
TABLE
2
VPORT
5
8
100
AcDbSymbolTable
0
ENDTAB
0
TABLE
2
LTYPE
5
5
100
AcDbSymbolTable
70
2
0
LTYPE
5
14
100
AcDbSymbolTableRecord
100
AcDbLinetypeTableRecord
2
BYBLOCK
70
0
0
LTYPE
5
15
100
AcDbSymbolTableRecord
100
AcDbLinetypeTableRecord
2
BYLAYER
70
0
0
ENDTAB
0
TABLE
2
LAYER
5
2
100
AcDbSymbolTable
70
3
0
LAYER
5
50
100
AcDbSymbolTableRecord
100
AcDbLayerTableRecord
2
0
70
0
6
CONTINUOUS
0
LAYER
5
51
100
AcDbSymbolTableRecord
100
AcDbLayerTableRecord
2
CUTOUTS
70
0
62
1
6
CONTINUOUS
0
LAYER
5
52
100
AcDbSymbolTableRecord
100
AcDbLayerTableRecord
2
PERIMETER
70
0
62
5
6
CONTINUOUS
0
ENDTAB
0
TABLE
2
STYLE
5
3
100
AcDbSymbolTable
70
1
0
STYLE
5
11
100
AcDbSymbolTableRecord
100
AcDbTextStyleTableRecord
2
STANDARD
70
0
0
ENDTAB
0
TABLE
2
VIEW
5
6
100
AcDbSymbolTable
0
ENDTAB
0
TABLE
2
UCS
5
7
100
AcDbSymbolTable
0
ENDTAB
0
TABLE
2
APPID
5
9
100
AcDbSymbolTable
70
1
0
APPID
5
12
100
AcDbSymbolTableRecord
100
AcDbRegAppTableRecord
2
ACAD
70
0
0
ENDTAB
0
TABLE
2
DIMSTYLE
5
A
100
AcDbSymbolTable
0
ENDTAB
0
TABLE
2
BLOCK_RECORD
5
1
100
AcDbSymbolTable
70
2
0
BLOCK_RECORD
5
1F
100
AcDbSymbolTableRecord
100
AcDbBlockTableRecord
2
*MODEL_SPACE
0
BLOCK_RECORD
5
1B
100
AcDbSymbolTableRecord
100
AcDbBlockTableRecord
2
*PAPER_SPACE
0
ENDTAB
0
ENDSEC
0
SECTION
2
BLOCKS
0
BLOCK
5
20
100
AcDbEntity
100
AcDbBlockBegin
2
*MODEL_SPACE
0
ENDBLK
5
21
100
AcDbEntity
100
AcDbBlockEnd
0
BLOCK
5
1C
100
AcDbEntity
100
AcDbBlockBegin
2
*PAPER_SPACE
0
ENDBLK
5
1D
100
AcDbEntity
100
AcDbBlockEnd
0
ENDSEC
0
SECTION
2
ENTITIES
0
CIRCLE
5
100
100
AcDbEntity
8
CUTOUTS
100
AcDbCircle
10
-4.7145669291338539
20
-1.7421259842519714
30
0
40
0.13779527559055102
210
0
220
0
230
1
0
CIRCLE
5
101
100
AcDbEntity
8
CUTOUTS
100
AcDbCircle
10
4.537401574803142
20
-0.5413385826771695
30
0
40
0.13779527559055102
210
0
220
0
230
1
0
CIRCLE
5
102
100
AcDbEntity
8
CUTOUTS
100
AcDbCircle
10
-3.6909448818897679
20
4.1633858267717452
30
0
40
0.13779527559055102
210
0
220
0
230
1
0
CIRCLE
5
103
100
AcDbEntity
8
CUTOUTS
100
AcDbCircle
10
-0.38385826771654086
20
4.1633858267717452
30
0
40
0.13779527559055121
210
0
220
0
230
1
0
CIRCLE
5
104
100
AcDbEntity
8
CUTOUTS
100
AcDbCircle
10
4.5374015748031464
20
2.9822834645669243
30
0
40
0.13779527559055102
210
0
220
0
230
1
0
CIRCLE
5
105
100
AcDbEntity
8
CUTOUTS
100
AcDbCircle
10
4.5374015748031393
20
-4.0649606299212637
30
0
40
0.13779527559055102
210
0
220
0
230
1
0
CIRCLE
5
106
100
AcDbEntity
8
CUTOUTS
100
AcDbCircle
10
-4.7145669291338539
20
2.1948818897637761
30
0
40
0.13779527559055102
210
0
220
0
230
1
0
LINE
5
107
100
AcDbEntity
8
CUTOUTS
100
AcDbLine
10
3.9724409448818885
20
4.045275590551201
30
0
11
3.9724409448818903
21
3.6122047244094699
31
0
0
ARC
5
108
100
AcDbEntity
8
CUTOUTS
100
AcDbCircle
10
3.8937007874015741
20
3.6122047244094699
30
0
40
0.07874015748031607
210
-0
220
0
230
1
100
AcDbArc
50
-90
51
0
0
LINE
5
109
100
AcDbEntity
8
CUTOUTS
100
AcDbLine
10
3.8937007874015741
20
3.5334645669291538
30
0
11
3.2913385826771639
21
3.5334645669291538
31
0
0
ARC
5
10A
100
AcDbEntity
8
CUTOUTS
100
AcDbCircle
10
3.2913385826771639
20
3.6122047244094682
30
0
40
0.078740157480314668
210
0
220
0
230
1
100
AcDbArc
50
180
51
270
0
LINE
5
10B
100
AcDbEntity
8
CUTOUTS
100
AcDbLine
10
3.2125984251968496
20
3.6122047244094682
30
0
11
3.2125984251968496
21
4.0452755905512001
31
0
0
ARC
5
10C
100
AcDbEntity
8
CUTOUTS
100
AcDbCircle
10
3.2913385826771639
20
4.0452755905512001
30
0
40
0.078740157480314668
210
0
220
-0
230
1
100
AcDbArc
50
90
51
180
0
LINE
5
10D
100
AcDbEntity
8
CUTOUTS
100
AcDbLine
10
3.2913385826771639
20
4.1240157480315141
30
0
11
3.8937007874015741
21
4.1240157480315158
31
0
0
ARC
5
10E
100
AcDbEntity
8
CUTOUTS
100
AcDbCircle
10
3.8937007874015741
20
4.045275590551201
30
0
40
0.078740157480314668
210
0
220
-0
230
1
100
AcDbArc
50
0
51
90
0
ARC
5
10F
100
AcDbEntity
8
PERIMETER
100
AcDbCircle
10
-4.3799212598425168
20
-2.7854330708661439
30
0
40
0.078740157480315376
210
0
220
-0
230
1
100
AcDbArc
50
0
51
90
0
LINE
5
110
100
AcDbEntity
8
PERIMETER
100
AcDbLine
10
-4.3011811023622011
20
-2.7854330708661439
30
0
11
-4.3011811023621993
21
-4.7145669291338539
31
0
0
LINE
5
111
100
AcDbEntity
8
PERIMETER
100
AcDbLine
10
-4.3011811023621993
20
-4.7145669291338539
30
0
11
5.0885826771653511
21
-4.7145669291338539
31
0
0
LINE
5
112
100
AcDbEntity
8
PERIMETER
100
AcDbLine
10
5.0885826771653511
20
-4.7145669291338539
30
0
11
5.0885826771653493
21
4.63582677165354
31
0
0
ARC
5
113
100
AcDbEntity
8
PERIMETER
100
AcDbCircle
10
5.0098425196850345
20
4.63582677165354
30
0
40
0.078740157480314668
210
0
220
-0
230
1
100
AcDbArc
50
0
51
90
0
LINE
5
114
100
AcDbEntity
8
PERIMETER
100
AcDbLine
10
5.0098425196850345
20
4.7145669291338539
30
0
11
-4.3011811023622011
21
4.7145669291338539
31
0
0
LINE
5
115
100
AcDbEntity
8
PERIMETER
100
AcDbLine
10
-4.3011811023622011
20
4.7145669291338539
30
0
11
-4.3011811023622002
21
3.2578740157480279
31
0
0
ARC
5
116
100
AcDbEntity
8
PERIMETER
100
AcDbCircle
10
-4.3996062992125937
20
3.2578740157480279
30
0
40
0.098425196850393692
210
-0
220
0
230
1
100
AcDbArc
50
-90
51
0
0
LINE
5
117
100
AcDbEntity
8
PERIMETER
100
AcDbLine
10
-4.3996062992125937
20
3.159448818897634
30
0
11
-5.0492125984251928
21
3.159448818897634
31
0
0
ARC
5
118
100
AcDbEntity
8
PERIMETER
100
AcDbCircle
10
-5.0492125984251928
20
3.1200787401574774
30
0
40
0.03937007874015664
210
0
220
-0
230
1
100
AcDbArc
50
90
51
180
0
LINE
5
119
100
AcDbEntity
8
PERIMETER
100
AcDbLine
10
-5.0885826771653493
20
3.1200787401574774
30
0
11
-5.0885826771653511
21
1.2696850393700749
31
0
0
ARC
5
11A
100
AcDbEntity
8
PERIMETER
100
AcDbCircle
10
-5.0492125984251937
20
1.2696850393700749
30
0
40
0.039370078740157334
210
0
220
0
230
1
100
AcDbArc
50
180
51
270
0
LINE
5
11B
100
AcDbEntity
8
PERIMETER
100
AcDbLine
10
-5.0492125984251937
20
1.2303149606299177
30
0
11
-4.3799212598425168
21
1.2303149606299184
31
0
0
ARC
5
11C
100
AcDbEntity
8
PERIMETER
100
AcDbCircle
10
-4.3799212598425159
20
1.1515748031496036
30
0
40
0.078740157480314668
210
0
220
-0
230
1
100
AcDbArc
50
0
51
90
0
LINE
5
11D
100
AcDbEntity
8
PERIMETER
100
AcDbLine
10
-4.3011811023622011
20
1.1515748031496036
30
0
11
-4.301181102362202
21
-0.69881889763779881
31
0
0
ARC
5
11E
100
AcDbEntity
8
PERIMETER
100
AcDbCircle
10
-4.3799212598425159
20
-0.69881889763779881
30
0
40
0.078740157480314668
210
-0
220
0
230
1
100
AcDbArc
50
-90
51
0
0
LINE
5
11F
100
AcDbEntity
8
PERIMETER
100
AcDbLine
10
-4.3799212598425159
20
-0.77755905511811352
30
0
11
-5.0492125984251919
21
-0.77755905511811352
31
0
0
ARC
5
120
100
AcDbEntity
8
PERIMETER
100
AcDbCircle
10
-5.0492125984251928
20
-0.81692913385827015
30
0
40
0.03937007874015664
210
0
220
-0
230
1
100
AcDbArc
50
90
51
180
0
LINE
5
121
100
AcDbEntity
8
PERIMETER
100
AcDbLine
10
-5.0885826771653493
20
-0.81692913385827015
30
0
11
-5.0885826771653511
21
-2.6673228346456725
31
0
0
ARC
5
122
100
AcDbEntity
8
PERIMETER
100
AcDbCircle
10
-5.0492125984251937
20
-2.6673228346456725
30
0
40
0.039370078740157334
210
0
220
0
230
1
100
AcDbArc
50
180
51
270
0
LINE
5
123
100
AcDbEntity
8
PERIMETER
100
AcDbLine
10
-5.0492125984251937
20
-2.70669291338583
30
0
11
-4.3799212598425168
21
-2.7066929133858295
31
0
0
ENDSEC
0
SECTION
2
OBJECTS
0
DICTIONARY
5
C
100
AcDbDictionary
3
ACAD_GROUP
350
D
3
ACAD_MLINESTYLE
350
17
0
DICTIONARY
5
D
100
AcDbDictionary
0
DICTIONARY
5
1A
330
C
100
AcDbDictionary
0
DICTIONARY
5
17
100
AcDbDictionary
0
ENDSEC
0
EOF
