0
SECTION
2
HEADER
9
$INSUNITS
70
1
9
$ACADVER
1
AC1014
9
$HANDSEED
5
FFFF
0
ENDSEC
0
SECTION
2
TABLES
0
TABLE
2
VPORT
5
8
100
AcDbSymbolTable
0
ENDTAB
0
TABLE
2
LTYPE
5
5
100
AcDbSymbolTable
70
2
0
LTYPE
5
14
100
AcDbSymbolTableRecord
100
AcDbLinetypeTableRecord
2
BYBLOCK
70
0
0
LTYPE
5
15
100
AcDbSymbolTableRecord
100
AcDbLinetypeTableRecord
2
BYLAYER
70
0
0
ENDTAB
0
TABLE
2
LAYER
5
2
100
AcDbSymbolTable
70
3
0
LAYER
5
50
100
AcDbSymbolTableRecord
100
AcDbLayerTableRecord
2
0
70
0
6
CONTINUOUS
0
LAYER
5
51
100
AcDbSymbolTableRecord
100
AcDbLayerTableRecord
2
CUTOUTS
70
0
62
1
6
CONTINUOUS
0
LAYER
5
52
100
AcDbSymbolTableRecord
100
AcDbLayerTableRecord
2
PERIMETER
70
0
62
5
6
CONTINUOUS
0
ENDTAB
0
TABLE
2
STYLE
5
3
100
AcDbSymbolTable
70
1
0
STYLE
5
11
100
AcDbSymbolTableRecord
100
AcDbTextStyleTableRecord
2
STANDARD
70
0
0
ENDTAB
0
TABLE
2
VIEW
5
6
100
AcDbSymbolTable
0
ENDTAB
0
TABLE
2
UCS
5
7
100
AcDbSymbolTable
0
ENDTAB
0
TABLE
2
APPID
5
9
100
AcDbSymbolTable
70
1
0
APPID
5
12
100
AcDbSymbolTableRecord
100
AcDbRegAppTableRecord
2
ACAD
70
0
0
ENDTAB
0
TABLE
2
DIMSTYLE
5
A
100
AcDbSymbolTable
0
ENDTAB
0
TABLE
2
BLOCK_RECORD
5
1
100
AcDbSymbolTable
70
2
0
BLOCK_RECORD
5
1F
100
AcDbSymbolTableRecord
100
AcDbBlockTableRecord
2
*MODEL_SPACE
0
BLOCK_RECORD
5
1B
100
AcDbSymbolTableRecord
100
AcDbBlockTableRecord
2
*PAPER_SPACE
0
ENDTAB
0
ENDSEC
0
SECTION
2
BLOCKS
0
BLOCK
5
20
100
AcDbEntity
100
AcDbBlockBegin
2
*MODEL_SPACE
0
ENDBLK
5
21
100
AcDbEntity
100
AcDbBlockEnd
0
BLOCK
5
1C
100
AcDbEntity
100
AcDbBlockBegin
2
*PAPER_SPACE
0
ENDBLK
5
1D
100
AcDbEntity
100
AcDbBlockEnd
0
ENDSEC
0
SECTION
2
ENTITIES
0
CIRCLE
5
100
100
AcDbEntity
8
CUTOUTS
100
AcDbCircle
10
6.1417322834645658
20
-9.0452755905511797
30
0
40
0.12696850393700779
210
0
220
0
230
1
0
CIRCLE
5
101
100
AcDbEntity
8
CUTOUTS
100
AcDbCircle
10
-1.2992125984251968
20
-9.0452755905511797
30
0
40
0.12696850393700779
210
0
220
0
230
1
0
CIRCLE
5
102
100
AcDbEntity
8
CUTOUTS
100
AcDbCircle
10
-9.2519685039370074
20
-5.9350393700787389
30
0
40
0.12696850393700848
210
0
220
0
230
1
0
CIRCLE
5
103
100
AcDbEntity
8
CUTOUTS
100
AcDbCircle
10
9.2519685039370074
20
6.3877952755905527
30
0
40
0.12696850393700848
210
0
220
0
230
1
0
CIRCLE
5
104
100
AcDbEntity
8
CUTOUTS
100
AcDbCircle
10
-9.2519685039370074
20
6.3877952755905527
30
0
40
0.12696850393700848
210
0
220
0
230
1
0
CIRCLE
5
105
100
AcDbEntity
8
CUTOUTS
100
AcDbCircle
10
2.5984251968503962
20
8.9862204724409462
30
0
40
0.12696850393700779
210
0
220
0
230
1
0
CIRCLE
5
106
100
AcDbEntity
8
CUTOUTS
100
AcDbCircle
10
-6.653543307086613
20
8.9862204724409462
30
0
40
0.12696850393700848
210
0
220
0
230
1
0
CIRCLE
5
107
100
AcDbEntity
8
CUTOUTS
100
AcDbCircle
10
-2.9133858267716506
20
8.9862204724409445
30
0
40
0.12696850393700779
210
0
220
0
230
1
0
CIRCLE
5
108
100
AcDbEntity
8
CUTOUTS
100
AcDbCircle
10
6.653543307086613
20
8.9862204724409462
30
0
40
0.12696850393700848
210
0
220
0
230
1
0
CIRCLE
5
109
100
AcDbEntity
8
CUTOUTS
100
AcDbCircle
10
-9.2519685039370074
20
-0.029527559055116431
30
0
40
0.12696850393700848
210
0
220
0
230
1
0
CIRCLE
5
10A
100
AcDbEntity
8
CUTOUTS
100
AcDbCircle
10
9.2519685039370074
20
-0.029527559055116431
30
0
40
0.12696850393700848
210
0
220
0
230
1
0
CIRCLE
5
10B
100
AcDbEntity
8
CUTOUTS
100
AcDbCircle
10
-6.1417322834645658
20
-9.0452755905511797
30
0
40
0.12696850393700779
210
0
220
0
230
1
0
CIRCLE
5
10C
100
AcDbEntity
8
CUTOUTS
100
AcDbCircle
10
1.2992125984251968
20
-9.0452755905511797
30
0
40
0.12696850393700779
210
0
220
0
230
1
0
CIRCLE
5
10D
100
AcDbEntity
8
CUTOUTS
100
AcDbCircle
10
9.2519685039370074
20
-5.9350393700787389
30
0
40
0.12696850393700848
210
0
220
0
230
1
0
LINE
5
10E
100
AcDbEntity
8
PERIMETER
100
AcDbLine
10
-2.3198818897637765
20
6.5268136227235409
30
0
11
-2.3198818897637765
21
9.5403543307086629
31
0
0
LINE
5
10F
100
AcDbEntity
8
PERIMETER
100
AcDbLine
10
-2.3198818897637765
20
9.5403543307086629
30
0
11
-7.2470472440944871
21
9.5403543307086629
31
0
0
LINE
5
110
100
AcDbEntity
8
PERIMETER
100
AcDbLine
10
-7.2470472440944871
20
9.5403543307086629
30
0
11
-7.2470472440944871
21
8.3986220472440962
31
0
0
LINE
5
111
100
AcDbEntity
8
PERIMETER
100
AcDbLine
10
-7.2470472440944871
20
8.3986220472440962
30
0
11
-8.6643700787401574
21
8.3986220472440962
31
0
0
LINE
5
112
100
AcDbEntity
8
PERIMETER
100
AcDbLine
10
-8.6643700787401574
20
8.3986220472440962
30
0
11
-8.6643700787401574
21
6.9812992125984268
31
0
0
LINE
5
113
100
AcDbEntity
8
PERIMETER
100
AcDbLine
10
-8.6643700787401574
20
6.9812992125984268
30
0
11
-9.8061023622047223
21
6.9812992125984268
31
0
0
LINE
5
114
100
AcDbEntity
8
PERIMETER
100
AcDbLine
10
-9.8061023622047223
20
6.9812992125984268
30
0
11
-9.8061023622047223
21
-8.4576771653543297
31
0
0
LINE
5
115
100
AcDbEntity
8
PERIMETER
100
AcDbLine
10
-9.8061023622047223
20
-8.4576771653543297
30
0
11
-9.4537401574803201
21
-8.4576771653543297
31
0
0
LINE
5
116
100
AcDbEntity
8
PERIMETER
100
AcDbLine
10
-9.4537401574803201
20
-8.4576771653543297
30
0
11
-9.453740157480313
21
-6.9271653543307075
31
0
0
ARC
5
117
100
AcDbEntity
8
PERIMETER
100
AcDbCircle
10
-9.2519685039370092
20
-6.9271653543307075
30
0
40
0.2017716535433054
210
0
220
-0
230
1
100
AcDbArc
50
0
51
180
0
LINE
5
118
100
AcDbEntity
8
PERIMETER
100
AcDbLine
10
-9.0501968503937036
20
-6.9271653543307075
30
0
11
-9.0501968503937054
21
-8.4576771653543297
31
0
0
LINE
5
119
100
AcDbEntity
8
PERIMETER
100
AcDbLine
10
-9.0501968503937054
20
-8.4576771653543297
30
0
11
-8.7765748031496056
21
-8.4576771653543297
31
0
0
LINE
5
11A
100
AcDbEntity
8
PERIMETER
100
AcDbLine
10
-8.7765748031496056
20
-8.4576771653543297
30
0
11
-8.7765748031496056
21
-6.725393700787401
31
0
0
LINE
5
11B
100
AcDbEntity
8
PERIMETER
100
AcDbLine
10
-8.7765748031496056
20
-6.725393700787401
30
0
11
-7.2059474809912594
21
-6.725393700787401
31
0
0
LINE
5
11C
100
AcDbEntity
8
PERIMETER
100
AcDbLine
10
-7.2059474809912594
20
-6.725393700787401
30
0
11
-6.9320866141732287
21
-6.9992545676054307
31
0
0
LINE
5
11D
100
AcDbEntity
8
PERIMETER
100
AcDbLine
10
-6.9320866141732287
20
-6.9992545676054307
30
0
11
-6.9320866141732287
21
-8.5698818897637778
31
0
0
LINE
5
11E
100
AcDbEntity
8
PERIMETER
100
AcDbLine
10
-6.9320866141732287
20
-8.5698818897637778
30
0
11
-8.6643700787401574
21
-8.5698818897637778
31
0
0
LINE
5
11F
100
AcDbEntity
8
PERIMETER
100
AcDbLine
10
-8.6643700787401574
20
-8.5698818897637778
30
0
11
-8.6643700787401574
21
-8.8435039370078723
31
0
0
LINE
5
120
100
AcDbEntity
8
PERIMETER
100
AcDbLine
10
-8.6643700787401574
20
-8.8435039370078723
30
0
11
-7.1338582677165325
21
-8.8435039370078723
31
0
0
ARC
5
121
100
AcDbEntity
8
PERIMETER
100
AcDbCircle
10
-7.1338582677165325
20
-9.0452755905511779
30
0
40
0.2017716535433054
210
-0
220
0
230
1
100
AcDbArc
50
-90
51
90
0
LINE
5
122
100
AcDbEntity
8
PERIMETER
100
AcDbLine
10
-7.1338582677165325
20
-9.2470472440944835
30
0
11
-8.6643700787401574
21
-9.2470472440944871
31
0
0
LINE
5
123
100
AcDbEntity
8
PERIMETER
100
AcDbLine
10
-8.6643700787401574
20
-9.2470472440944871
30
0
11
-8.6643700787401574
21
-9.5403543307086593
31
0
0
LINE
5
124
100
AcDbEntity
8
PERIMETER
100
AcDbLine
10
-8.6643700787401574
20
-9.5403543307086593
30
0
11
-0.98302889696149742
21
-9.5403543307086593
31
0
0
LINE
5
125
100
AcDbEntity
8
PERIMETER
100
AcDbLine
10
-0.98302889696149742
20
-9.5403543307086593
30
0
11
-0.7057086614173228
21
-9.2630340951644854
31
0
0
LINE
5
126
100
AcDbEntity
8
PERIMETER
100
AcDbLine
10
-0.7057086614173228
20
-9.2630340951644854
30
0
11
-0.7057086614173228
21
-8.5167322834645649
31
0
0
LINE
5
127
100
AcDbEntity
8
PERIMETER
100
AcDbLine
10
-0.7057086614173228
20
-8.5167322834645649
30
0
11
0.7057086614173228
21
-8.5167322834645649
31
0
0
LINE
5
128
100
AcDbEntity
8
PERIMETER
100
AcDbLine
10
0.7057086614173228
20
-8.5167322834645649
30
0
11
0.70570866141732247
21
-9.2630340951644854
31
0
0
LINE
5
129
100
AcDbEntity
8
PERIMETER
100
AcDbLine
10
0.70570866141732247
20
-9.2630340951644854
30
0
11
0.98302889696149709
21
-9.5403543307086593
31
0
0
LINE
5
12A
100
AcDbEntity
8
PERIMETER
100
AcDbLine
10
0.98302889696149709
20
-9.5403543307086593
30
0
11
8.6643700787401574
21
-9.5403543307086593
31
0
0
LINE
5
12B
100
AcDbEntity
8
PERIMETER
100
AcDbLine
10
8.6643700787401574
20
-9.5403543307086593
30
0
11
8.6643700787401574
21
-9.2470472440944871
31
0
0
LINE
5
12C
100
AcDbEntity
8
PERIMETER
100
AcDbLine
10
8.6643700787401574
20
-9.2470472440944871
30
0
11
7.1338582677165334
21
-9.2470472440944871
31
0
0
ARC
5
12D
100
AcDbEntity
8
PERIMETER
100
AcDbCircle
10
7.1338582677165334
20
-9.0452755905511815
30
0
40
0.2017716535433082
210
0
220
-0
230
1
100
AcDbArc
50
90
51
270
0
LINE
5
12E
100
AcDbEntity
8
PERIMETER
100
AcDbLine
10
7.1338582677165334
20
-8.8435039370078723
30
0
11
8.6643700787401574
21
-8.8435039370078723
31
0
0
LINE
5
12F
100
AcDbEntity
8
PERIMETER
100
AcDbLine
10
8.6643700787401574
20
-8.8435039370078723
30
0
11
8.6643700787401574
21
-8.5698818897637778
31
0
0
LINE
5
130
100
AcDbEntity
8
PERIMETER
100
AcDbLine
10
8.6643700787401574
20
-8.5698818897637778
30
0
11
6.9320866141732287
21
-8.5698818897637778
31
0
0
LINE
5
131
100
AcDbEntity
8
PERIMETER
100
AcDbLine
10
6.9320866141732287
20
-8.5698818897637778
30
0
11
6.9320866141732287
21
-6.9992545676054307
31
0
0
LINE
5
132
100
AcDbEntity
8
PERIMETER
100
AcDbLine
10
6.9320866141732287
20
-6.9992545676054307
30
0
11
7.2059474809912585
21
-6.725393700787401
31
0
0
LINE
5
133
100
AcDbEntity
8
PERIMETER
100
AcDbLine
10
7.2059474809912585
20
-6.725393700787401
30
0
11
8.7765748031496056
21
-6.725393700787401
31
0
0
LINE
5
134
100
AcDbEntity
8
PERIMETER
100
AcDbLine
10
8.7765748031496056
20
-6.725393700787401
30
0
11
8.7765748031496056
21
-8.4576771653543297
31
0
0
LINE
5
135
100
AcDbEntity
8
PERIMETER
100
AcDbLine
10
8.7765748031496056
20
-8.4576771653543297
30
0
11
9.0501968503937054
21
-8.4576771653543297
31
0
0
LINE
5
136
100
AcDbEntity
8
PERIMETER
100
AcDbLine
10
9.0501968503937054
20
-8.4576771653543297
30
0
11
9.0501968503937
21
-6.9271653543307092
31
0
0
ARC
5
137
100
AcDbEntity
8
PERIMETER
100
AcDbCircle
10
9.2519685039370074
20
-6.9271653543307075
30
0
40
0.20177165354330678
210
0
220
-0
230
1
100
AcDbArc
50
0
51
180
0
LINE
5
138
100
AcDbEntity
8
PERIMETER
100
AcDbLine
10
9.453740157480313
20
-6.9271653543307066
30
0
11
9.4537401574803201
21
-8.4576771653543297
31
0
0
LINE
5
139
100
AcDbEntity
8
PERIMETER
100
AcDbLine
10
9.4537401574803201
20
-8.4576771653543297
30
0
11
9.8061023622047223
21
-8.4576771653543297
31
0
0
LINE
5
13A
100
AcDbEntity
8
PERIMETER
100
AcDbLine
10
9.8061023622047223
20
-8.4576771653543297
30
0
11
9.8061023622047223
21
6.9812992125984268
31
0
0
LINE
5
13B
100
AcDbEntity
8
PERIMETER
100
AcDbLine
10
9.8061023622047223
20
6.9812992125984268
30
0
11
8.6643700787401574
21
6.9812992125984268
31
0
0
LINE
5
13C
100
AcDbEntity
8
PERIMETER
100
AcDbLine
10
8.6643700787401574
20
6.9812992125984268
30
0
11
8.6643700787401574
21
8.3986220472440962
31
0
0
LINE
5
13D
100
AcDbEntity
8
PERIMETER
100
AcDbLine
10
8.6643700787401574
20
8.3986220472440962
30
0
11
7.2470472440944871
21
8.3986220472440962
31
0
0
LINE
5
13E
100
AcDbEntity
8
PERIMETER
100
AcDbLine
10
7.2470472440944871
20
8.3986220472440962
30
0
11
7.2470472440944871
21
9.5403543307086629
31
0
0
LINE
5
13F
100
AcDbEntity
8
PERIMETER
100
AcDbLine
10
7.2470472440944871
20
9.5403543307086629
30
0
11
2.0049212598425226
21
9.5403543307086629
31
0
0
LINE
5
140
100
AcDbEntity
8
PERIMETER
100
AcDbLine
10
2.0049212598425226
20
9.5403543307086629
30
0
11
2.0049212598425221
21
8.3986220472440962
31
0
0
LINE
5
141
100
AcDbEntity
8
PERIMETER
100
AcDbLine
10
2.0049212598425221
20
8.3986220472440962
30
0
11
0.76476377952756425
21
8.3986220472440962
31
0
0
LINE
5
142
100
AcDbEntity
8
PERIMETER
100
AcDbLine
10
0.76476377952756425
20
8.3986220472440962
30
0
11
0.76476377952756436
21
6.5268136227235436
31
0
0
LINE
5
143
100
AcDbEntity
8
PERIMETER
100
AcDbLine
10
0.76476377952756436
20
6.5268136227235436
30
0
11
0.45153283396937371
21
6.2135826771653537
31
0
0
LINE
5
144
100
AcDbEntity
8
PERIMETER
100
AcDbLine
10
0.45153283396937371
20
6.2135826771653537
30
0
11
-2.0066509442055889
21
6.2135826771653537
31
0
0
LINE
5
145
100
AcDbEntity
8
PERIMETER
100
AcDbLine
10
-2.0066509442055889
20
6.2135826771653537
30
0
11
-2.3198818897637765
21
6.5268136227235409
31
0
0
ENDSEC
0
SECTION
2
OBJECTS
0
DICTIONARY
5
C
100
AcDbDictionary
3
ACAD_GROUP
350
D
3
ACAD_MLINESTYLE
350
17
0
DICTIONARY
5
D
100
AcDbDictionary
0
DICTIONARY
5
1A
330
C
100
AcDbDictionary
0
DICTIONARY
5
17
100
AcDbDictionary
0
ENDSEC
0
EOF
