0
SECTION
2
HEADER
9
$INSUNITS
70
1
9
$ACADVER
1
AC1014
9
$HANDSEED
5
FFFF
0
ENDSEC
0
SECTION
2
TABLES
0
TABLE
2
VPORT
5
8
100
AcDbSymbolTable
0
ENDTAB
0
TABLE
2
LTYPE
5
5
100
AcDbSymbolTable
70
2
0
LTYPE
5
14
100
AcDbSymbolTableRecord
100
AcDbLinetypeTableRecord
2
BYBLOCK
70
0
0
LTYPE
5
15
100
AcDbSymbolTableRecord
100
AcDbLinetypeTableRecord
2
BYLAYER
70
0
0
ENDTAB
0
TABLE
2
LAYER
5
2
100
AcDbSymbolTable
70
3
0
LAYER
5
50
100
AcDbSymbolTableRecord
100
AcDbLayerTableRecord
2
0
70
0
6
CONTINUOUS
0
LAYER
5
51
100
AcDbSymbolTableRecord
100
AcDbLayerTableRecord
2
CUTOUTS
70
0
62
1
6
CONTINUOUS
0
LAYER
5
52
100
AcDbSymbolTableRecord
100
AcDbLayerTableRecord
2
PERIMETER
70
0
62
5
6
CONTINUOUS
0
ENDTAB
0
TABLE
2
STYLE
5
3
100
AcDbSymbolTable
70
1
0
STYLE
5
11
100
AcDbSymbolTableRecord
100
AcDbTextStyleTableRecord
2
STANDARD
70
0
0
ENDTAB
0
TABLE
2
VIEW
5
6
100
AcDbSymbolTable
0
ENDTAB
0
TABLE
2
UCS
5
7
100
AcDbSymbolTable
0
ENDTAB
0
TABLE
2
APPID
5
9
100
AcDbSymbolTable
70
1
0
APPID
5
12
100
AcDbSymbolTableRecord
100
AcDbRegAppTableRecord
2
ACAD
70
0
0
ENDTAB
0
TABLE
2
DIMSTYLE
5
A
100
AcDbSymbolTable
0
ENDTAB
0
TABLE
2
BLOCK_RECORD
5
1
100
AcDbSymbolTable
70
2
0
BLOCK_RECORD
5
1F
100
AcDbSymbolTableRecord
100
AcDbBlockTableRecord
2
*MODEL_SPACE
0
BLOCK_RECORD
5
1B
100
AcDbSymbolTableRecord
100
AcDbBlockTableRecord
2
*PAPER_SPACE
0
ENDTAB
0
ENDSEC
0
SECTION
2
BLOCKS
0
BLOCK
5
20
100
AcDbEntity
100
AcDbBlockBegin
2
*MODEL_SPACE
0
ENDBLK
5
21
100
AcDbEntity
100
AcDbBlockEnd
0
BLOCK
5
1C
100
AcDbEntity
100
AcDbBlockBegin
2
*PAPER_SPACE
0
ENDBLK
5
1D
100
AcDbEntity
100
AcDbBlockEnd
0
ENDSEC
0
SECTION
2
ENTITIES
0
CIRCLE
5
100
100
AcDbEntity
8
CUTOUTS
100
AcDbCircle
10
9.2519685039370021
20
-2.5590551181102419
30
0
40
0.12992125984251901
210
0
220
0
230
1
0
CIRCLE
5
101
100
AcDbEntity
8
CUTOUTS
100
AcDbCircle
10
5.7086614173180257
20
4.9212598425188805
30
0
40
0.1299212598425197
210
0
220
0
230
1
0
CIRCLE
5
102
100
AcDbEntity
8
CUTOUTS
100
AcDbCircle
10
9.2519685039370039
20
1.3779527559055076
30
0
40
0.12992125984251901
210
0
220
0
230
1
0
CIRCLE
5
103
100
AcDbEntity
8
CUTOUTS
100
AcDbCircle
10
5.7086614173228316
20
-4.9212598425196861
30
0
40
0.1299212598425197
210
0
220
0
230
1
0
CIRCLE
5
104
100
AcDbEntity
8
CUTOUTS
100
AcDbCircle
10
-2.7974123455122052e-15
20
-4.9212598425196887
30
0
40
0.12992125984251968
210
0
220
0
230
1
0
CIRCLE
5
105
100
AcDbEntity
8
CUTOUTS
100
AcDbCircle
10
-9.2519685039370074
20
-2.5590551181102419
30
0
40
0.12992125984251901
210
0
220
0
230
1
0
CIRCLE
5
106
100
AcDbEntity
8
CUTOUTS
100
AcDbCircle
10
-2.5213519166783922e-15
20
4.9212598425188849
30
0
40
0.12992125984251968
210
0
220
0
230
1
0
CIRCLE
5
107
100
AcDbEntity
8
CUTOUTS
100
AcDbCircle
10
-5.7086614173180319
20
4.9212598425188805
30
0
40
0.1299212598425197
210
0
220
0
230
1
0
CIRCLE
5
108
100
AcDbEntity
8
CUTOUTS
100
AcDbCircle
10
-9.2519685039370092
20
1.3779527559055076
30
0
40
0.12992125984251901
210
0
220
0
230
1
0
CIRCLE
5
109
100
AcDbEntity
8
CUTOUTS
100
AcDbCircle
10
-5.7086614173228369
20
-4.9212598425196861
30
0
40
0.1299212598425197
210
0
220
0
230
1
0
ARC
5
10A
100
AcDbEntity
8
PERIMETER
100
AcDbCircle
10
-6.1614173228346472
20
-5.4330708661417333
30
0
40
0.078740157480314668
210
0
220
0
230
1
100
AcDbArc
50
180
51
270
0
LINE
5
10B
100
AcDbEntity
8
PERIMETER
100
AcDbLine
10
-6.1614173228346472
20
-5.5118110236220481
30
0
11
6.1614173228346472
21
-5.5118110236220481
31
0
0
ARC
5
10C
100
AcDbEntity
8
PERIMETER
100
AcDbCircle
10
6.1614173228346472
20
-5.4330708661417324
30
0
40
0.078740157480315376
210
-0
220
0
230
1
100
AcDbArc
50
-90
51
0
0
LINE
5
10D
100
AcDbEntity
8
PERIMETER
100
AcDbLine
10
6.2401574803149629
20
-5.4330708661417324
30
0
11
6.2401574803149629
21
-4.3428746848179092
31
0
0
ARC
5
10E
100
AcDbEntity
8
PERIMETER
100
AcDbCircle
10
6.3188976377952786
20
-4.3428746848179092
30
0
40
0.07874015748031471
210
0
220
0
230
1
100
AcDbArc
50
116.56505117707857
51
180
0
LINE
5
10F
100
AcDbEntity
8
PERIMETER
100
AcDbLine
10
6.2836839688582735
20
-4.2724473469438999
30
0
11
8.6308506613287417
21
-3.0988640007086685
31
0
0
ARC
5
110
100
AcDbEntity
8
PERIMETER
100
AcDbCircle
10
8.6660643302657476
20
-3.1692913385826773
30
0
40
0.078740157480315029
210
0
220
-0
230
1
100
AcDbArc
50
90
51
116.56505117707886
0
LINE
5
111
100
AcDbEntity
8
PERIMETER
100
AcDbLine
10
8.6660643302657476
20
-3.090551181102362
30
0
11
9.7637795275590573
21
-3.0905511811023616
31
0
0
ARC
5
112
100
AcDbEntity
8
PERIMETER
100
AcDbCircle
10
9.7637795275590573
20
-3.0118110236220459
30
0
40
0.078740157480315376
210
-0
220
0
230
1
100
AcDbArc
50
270
51
360
0
LINE
5
113
100
AcDbEntity
8
PERIMETER
100
AcDbLine
10
9.8425196850393721
20
-3.0118110236220463
30
0
11
9.8425196850393686
21
1.8307086614173291
31
0
0
ARC
5
114
100
AcDbEntity
8
PERIMETER
100
AcDbCircle
10
9.7637795275590538
20
1.8307086614173291
30
0
40
0.078740157480314668
210
0
220
-0
230
1
100
AcDbArc
50
0
51
90
0
LINE
5
115
100
AcDbEntity
8
PERIMETER
100
AcDbLine
10
9.7637795275590538
20
1.9094488188976437
30
0
11
8.6695711331175644
21
1.9094488188976424
31
0
0
ARC
5
116
100
AcDbEntity
8
PERIMETER
100
AcDbCircle
10
8.6695711331175644
20
1.988188976377957
30
0
40
0.078740157480315792
210
0
220
0
230
1
100
AcDbArc
50
225.00000000007711
51
270
0
LINE
5
117
100
AcDbEntity
8
PERIMETER
100
AcDbLine
10
8.6138934338116115
20
1.9325112770718542
30
0
11
6.2632199384845144
21
4.2831847723925796
31
0
0
ARC
5
118
100
AcDbEntity
8
PERIMETER
100
AcDbCircle
10
6.3188976377904655
20
4.3388624716986808
30
0
40
0.078740157480314668
210
0
220
0
230
1
100
AcDbArc
50
180
51
225.00000000007722
0
LINE
5
119
100
AcDbEntity
8
PERIMETER
100
AcDbLine
10
6.2401574803101507
20
4.3388624716986808
30
0
11
6.2401574803101498
21
5.4330708661417324
31
0
0
ARC
5
11A
100
AcDbEntity
8
PERIMETER
100
AcDbCircle
10
6.1614173228298359
20
5.4330708661417324
30
0
40
0.078740157480313974
210
0
220
-0
230
1
100
AcDbArc
50
0
51
90.000000000000654
0
LINE
5
11B
100
AcDbEntity
8
PERIMETER
100
AcDbLine
10
6.161417322829835
20
5.5118110236220454
30
0
11
-6.1614173228298421
21
5.5118110236220366
31
0
0
ARC
5
11C
100
AcDbEntity
8
PERIMETER
100
AcDbCircle
10
-6.1614173228298412
20
5.4330708661417226
30
0
40
0.078740157480314668
210
0
220
0
230
1
100
AcDbArc
50
90.000000000000654
51
180
0
LINE
5
11D
100
AcDbEntity
8
PERIMETER
100
AcDbLine
10
-6.240157480310156
20
5.4330708661417235
30
0
11
-6.2401574803101569
21
4.3388624716986737
31
0
0
ARC
5
11E
100
AcDbEntity
8
PERIMETER
100
AcDbCircle
10
-6.3188976377904718
20
4.3388624716986737
30
0
40
0.078740157480315293
210
-0
220
0
230
1
100
AcDbArc
50
-45.000000000077705
51
0
0
LINE
5
11F
100
AcDbEntity
8
PERIMETER
100
AcDbLine
10
-6.2632199384845197
20
4.2831847723925707
30
0
11
-8.6138934338116151
21
1.932511277071846
31
0
0
ARC
5
120
100
AcDbEntity
8
PERIMETER
100
AcDbCircle
10
-8.6695711331175662
20
1.9881889763779488
30
0
40
0.078740157480314668
210
-0
220
0
230
1
100
AcDbArc
50
270
51
314.99999999992201
0
LINE
5
121
100
AcDbEntity
8
PERIMETER
100
AcDbLine
10
-8.6695711331175662
20
1.909448818897634
30
0
11
-9.7637795275590555
21
1.909448818897634
31
0
0
ARC
5
122
100
AcDbEntity
8
PERIMETER
100
AcDbCircle
10
-9.7637795275590555
20
1.8307086614173194
30
0
40
0.078740157480314668
210
0
220
-0
230
1
100
AcDbArc
50
90
51
180
0
LINE
5
123
100
AcDbEntity
8
PERIMETER
100
AcDbLine
10
-9.8425196850393704
20
1.8307086614173194
30
0
11
-9.8425196850393721
21
-3.0118110236220521
31
0
0
ARC
5
124
100
AcDbEntity
8
PERIMETER
100
AcDbCircle
10
-9.7637795275590573
20
-3.0118110236220517
30
0
40
0.078740157480314668
210
0
220
0
230
1
100
AcDbArc
50
180
51
270
0
LINE
5
125
100
AcDbEntity
8
PERIMETER
100
AcDbLine
10
-9.7637795275590573
20
-3.0905511811023665
30
0
11
-8.6660643302657459
21
-3.0905511811023678
31
0
0
ARC
5
126
100
AcDbEntity
8
PERIMETER
100
AcDbCircle
10
-8.6660643302657459
20
-3.1692913385826826
30
0
40
0.078740157480315029
210
0
220
-0
230
1
100
AcDbArc
50
63.434948822922159
51
90
0
LINE
5
127
100
AcDbEntity
8
PERIMETER
100
AcDbLine
10
-8.6308506613287417
20
-3.0988640007086734
30
0
11
-6.2836839688582744
21
-4.2724473469439017
31
0
0
ARC
5
128
100
AcDbEntity
8
PERIMETER
100
AcDbCircle
10
-6.3188976377952795
20
-4.3428746848179118
30
0
40
0.078740157480314668
210
0
220
-0
230
1
100
AcDbArc
50
0
51
63.434948822921733
0
LINE
5
129
100
AcDbEntity
8
PERIMETER
100
AcDbLine
10
-6.2401574803149646
20
-4.3428746848179118
30
0
11
-6.240157480314962
21
-5.4330708661417333
31
0
0
ENDSEC
0
SECTION
2
OBJECTS
0
DICTIONARY
5
C
100
AcDbDictionary
3
ACAD_GROUP
350
D
3
ACAD_MLINESTYLE
350
17
0
DICTIONARY
5
D
100
AcDbDictionary
0
DICTIONARY
5
1A
330
C
100
AcDbDictionary
0
DICTIONARY
5
17
100
AcDbDictionary
0
ENDSEC
0
EOF
