0
SECTION
2
HEADER
9
$INSUNITS
70
1
9
$ACADVER
1
AC1014
9
$HANDSEED
5
FFFF
0
ENDSEC
0
SECTION
2
TABLES
0
TABLE
2
VPORT
5
8
100
AcDbSymbolTable
0
ENDTAB
0
TABLE
2
LTYPE
5
5
100
AcDbSymbolTable
70
2
0
LTYPE
5
14
100
AcDbSymbolTableRecord
100
AcDbLinetypeTableRecord
2
BYBLOCK
70
0
0
LTYPE
5
15
100
AcDbSymbolTableRecord
100
AcDbLinetypeTableRecord
2
BYLAYER
70
0
0
ENDTAB
0
TABLE
2
LAYER
5
2
100
AcDbSymbolTable
70
3
0
LAYER
5
50
100
AcDbSymbolTableRecord
100
AcDbLayerTableRecord
2
0
70
0
6
CONTINUOUS
0
LAYER
5
51
100
AcDbSymbolTableRecord
100
AcDbLayerTableRecord
2
CUTOUTS
70
0
62
1
6
CONTINUOUS
0
LAYER
5
52
100
AcDbSymbolTableRecord
100
AcDbLayerTableRecord
2
PERIMETER
70
0
62
5
6
CONTINUOUS
0
ENDTAB
0
TABLE
2
STYLE
5
3
100
AcDbSymbolTable
70
1
0
STYLE
5
11
100
AcDbSymbolTableRecord
100
AcDbTextStyleTableRecord
2
STANDARD
70
0
0
ENDTAB
0
TABLE
2
VIEW
5
6
100
AcDbSymbolTable
0
ENDTAB
0
TABLE
2
UCS
5
7
100
AcDbSymbolTable
0
ENDTAB
0
TABLE
2
APPID
5
9
100
AcDbSymbolTable
70
1
0
APPID
5
12
100
AcDbSymbolTableRecord
100
AcDbRegAppTableRecord
2
ACAD
70
0
0
ENDTAB
0
TABLE
2
DIMSTYLE
5
A
100
AcDbSymbolTable
0
ENDTAB
0
TABLE
2
BLOCK_RECORD
5
1
100
AcDbSymbolTable
70
2
0
BLOCK_RECORD
5
1F
100
AcDbSymbolTableRecord
100
AcDbBlockTableRecord
2
*MODEL_SPACE
0
BLOCK_RECORD
5
1B
100
AcDbSymbolTableRecord
100
AcDbBlockTableRecord
2
*PAPER_SPACE
0
ENDTAB
0
ENDSEC
0
SECTION
2
BLOCKS
0
BLOCK
5
20
100
AcDbEntity
100
AcDbBlockBegin
2
*MODEL_SPACE
0
ENDBLK
5
21
100
AcDbEntity
100
AcDbBlockEnd
0
BLOCK
5
1C
100
AcDbEntity
100
AcDbBlockBegin
2
*PAPER_SPACE
0
ENDBLK
5
1D
100
AcDbEntity
100
AcDbBlockEnd
0
ENDSEC
0
SECTION
2
ENTITIES
0
CIRCLE
5
100
100
AcDbEntity
8
CUTOUTS
100
AcDbCircle
10
6.9881889763779546
20
4.5275590551181129
30
0
40
0.12992125984251901
210
0
220
0
230
1
0
CIRCLE
5
101
100
AcDbEntity
8
CUTOUTS
100
AcDbCircle
10
-6.9881889763779546
20
4.5275590551181075
30
0
40
0.12992125984251901
210
0
220
0
230
1
0
CIRCLE
5
102
100
AcDbEntity
8
CUTOUTS
100
AcDbCircle
10
-7.5000000000000009
20
-4.9212598425196816
30
0
40
0.12992125984251901
210
0
220
0
230
1
0
CIRCLE
5
103
100
AcDbEntity
8
CUTOUTS
100
AcDbCircle
10
-6.9881889763779421
20
-14.370078740157481
30
0
40
0.12992125984251901
210
0
220
0
230
1
0
CIRCLE
5
104
100
AcDbEntity
8
CUTOUTS
100
AcDbCircle
10
6.9881889763779537
20
-14.370078740157476
30
0
40
0.12992125984251901
210
0
220
0
230
1
0
CIRCLE
5
105
100
AcDbEntity
8
CUTOUTS
100
AcDbCircle
10
10.531496062992126
20
-4.3307086614173196
30
0
40
0.12992125984251901
210
0
220
0
230
1
0
CIRCLE
5
106
100
AcDbEntity
8
CUTOUTS
100
AcDbCircle
10
10.531496062992128
20
6.8897637795275584
30
0
40
0.12992125984251901
210
0
220
0
230
1
0
CIRCLE
5
107
100
AcDbEntity
8
CUTOUTS
100
AcDbCircle
10
6.9881889763779537
20
14.37007874015748
30
0
40
0.12992125984251901
210
0
220
0
230
1
0
CIRCLE
5
108
100
AcDbEntity
8
CUTOUTS
100
AcDbCircle
10
-6.9881889763779546
20
14.370078740157476
30
0
40
0.12992125984251901
210
0
220
0
230
1
0
CIRCLE
5
109
100
AcDbEntity
8
CUTOUTS
100
AcDbCircle
10
-10.531496062992128
20
6.8897637795275513
30
0
40
0.12992125984251901
210
0
220
0
230
1
0
CIRCLE
5
10A
100
AcDbEntity
8
CUTOUTS
100
AcDbCircle
10
-10.531496062992128
20
10.826771653543304
30
0
40
0.12992125984251901
210
0
220
0
230
1
0
CIRCLE
5
10B
100
AcDbEntity
8
CUTOUTS
100
AcDbCircle
10
-1.3987061727561026e-15
20
14.37007874015748
30
0
40
0.12992125984251968
210
0
220
0
230
1
0
CIRCLE
5
10C
100
AcDbEntity
8
CUTOUTS
100
AcDbCircle
10
10.531496062992126
20
10.826771653543306
30
0
40
0.12992125984251901
210
0
220
0
230
1
0
CIRCLE
5
10D
100
AcDbEntity
8
CUTOUTS
100
AcDbCircle
10
10.531496062992128
20
2.1653543307086625
30
0
40
0.12992125984251901
210
0
220
0
230
1
0
CIRCLE
5
10E
100
AcDbEntity
8
CUTOUTS
100
AcDbCircle
10
10.531496062992124
20
-10.8267716535433
30
0
40
0.12992125984251901
210
0
220
0
230
1
0
CIRCLE
5
10F
100
AcDbEntity
8
CUTOUTS
100
AcDbCircle
10
-1.3987061727561026e-15
20
-14.37007874015748
30
0
40
0.12992125984251968
210
0
220
0
230
1
0
CIRCLE
5
110
100
AcDbEntity
8
CUTOUTS
100
AcDbCircle
10
-7.5000000000000009
20
-12.79527559055119
30
0
40
0.12992125984251901
210
0
220
0
230
1
0
CIRCLE
5
111
100
AcDbEntity
8
CUTOUTS
100
AcDbCircle
10
-7.5000000000000027
20
3.1496062992125946
30
0
40
0.12992125984251901
210
0
220
0
230
1
0
CIRCLE
5
112
100
AcDbEntity
8
CUTOUTS
100
AcDbCircle
10
-2.7974123455122052e-15
20
4.5275590551181066
30
0
40
0.12992125984251968
210
0
220
0
230
1
0
LINE
5
113
100
AcDbEntity
8
PERIMETER
100
AcDbLine
10
11.122047244094487
20
-11.279527559055111
30
0
11
11.122047244094491
21
2.6181102362204745
31
0
0
ARC
5
114
100
AcDbEntity
8
PERIMETER
100
AcDbCircle
10
11.043307086614176
20
2.6181102362204731
30
0
40
0.078740157480314668
210
0
220
-0
230
1
100
AcDbArc
50
0
51
90
0
LINE
5
115
100
AcDbEntity
8
PERIMETER
100
AcDbLine
10
11.043307086614176
20
2.6968503937007879
30
0
11
9.9455918893208644
21
2.6968503937007879
31
0
0
ARC
5
116
100
AcDbEntity
8
PERIMETER
100
AcDbCircle
10
9.9455918893208644
20
2.7755905511811032
30
0
40
0.07874015748031471
210
0
220
0
230
1
100
AcDbArc
50
243.434948822921
51
270
0
LINE
5
117
100
AcDbEntity
8
PERIMETER
100
AcDbLine
10
9.9103782203838584
20
2.7051632133070944
30
0
11
7.5632115279133929
21
3.8787465595423303
31
0
0
ARC
5
118
100
AcDbEntity
8
PERIMETER
100
AcDbCircle
10
7.598425196850398
20
3.9491738974163382
30
0
40
0.078740157480314668
210
0
220
0
230
1
100
AcDbArc
50
180
51
243.43494882292154
0
LINE
5
119
100
AcDbEntity
8
PERIMETER
100
AcDbLine
10
7.5196850393700831
20
3.9491738974163382
30
0
11
7.5196850393700814
21
5.1059442128198862
31
0
0
ARC
5
11A
100
AcDbEntity
8
PERIMETER
100
AcDbCircle
10
7.5984251968503962
20
5.1059442128198862
30
0
40
0.07874015748031471
210
0
220
0
230
1
100
AcDbArc
50
116.56505117707712
51
180
0
LINE
5
11B
100
AcDbEntity
8
PERIMETER
100
AcDbLine
10
7.5632115279133929
20
5.1763715506938954
30
0
11
9.9103782203838602
21
6.3499548969291268
31
0
0
ARC
5
11C
100
AcDbEntity
8
PERIMETER
100
AcDbCircle
10
9.9455918893208644
20
6.2795275590551185
30
0
40
0.078740157480314668
210
0
220
-0
230
1
100
AcDbArc
50
90
51
116.56505117707771
0
LINE
5
11D
100
AcDbEntity
8
PERIMETER
100
AcDbLine
10
9.9455918893208644
20
6.3582677165354333
30
0
11
11.043307086614176
21
6.3582677165354333
31
0
0
ARC
5
11E
100
AcDbEntity
8
PERIMETER
100
AcDbCircle
10
11.043307086614176
20
6.437007874015749
30
0
40
0.07874015748031607
210
-0
220
0
230
1
100
AcDbArc
50
-90
51
0
0
LINE
5
11F
100
AcDbEntity
8
PERIMETER
100
AcDbLine
10
11.122047244094491
20
6.437007874015749
30
0
11
11.122047244094487
21
11.27952755905512
31
0
0
ARC
5
120
100
AcDbEntity
8
PERIMETER
100
AcDbCircle
10
11.043307086614172
20
11.27952755905512
30
0
40
0.078740157480314668
210
0
220
-0
230
1
100
AcDbArc
50
0
51
90
0
LINE
5
121
100
AcDbEntity
8
PERIMETER
100
AcDbLine
10
11.043307086614172
20
11.358267716535433
30
0
11
9.9490986921726954
21
11.358267716535433
31
0
0
ARC
5
122
100
AcDbEntity
8
PERIMETER
100
AcDbCircle
10
9.9490986921726954
20
11.437007874015748
30
0
40
0.078740157480314793
210
0
220
0
230
1
100
AcDbArc
50
225
51
270
0
LINE
5
123
100
AcDbEntity
8
PERIMETER
100
AcDbLine
10
9.8934209928666679
20
11.381330174709721
30
0
11
7.542747497544366
21
13.732003670032025
31
0
0
ARC
5
124
100
AcDbEntity
8
PERIMETER
100
AcDbCircle
10
7.5984251968503935
20
13.787681369338049
30
0
40
0.078740157480314668
210
0
220
0
230
1
100
AcDbArc
50
180
51
225
0
LINE
5
125
100
AcDbEntity
8
PERIMETER
100
AcDbLine
10
7.5196850393700787
20
13.787681369338049
30
0
11
7.5196850393700787
21
14.881889763779526
31
0
0
ARC
5
126
100
AcDbEntity
8
PERIMETER
100
AcDbCircle
10
7.4409448818897639
20
14.881889763779528
30
0
40
0.078740157480314668
210
0
220
-0
230
1
100
AcDbArc
50
0
51
90
0
LINE
5
127
100
AcDbEntity
8
PERIMETER
100
AcDbLine
10
7.4409448818897639
20
14.960629921259841
30
0
11
-7.4409448818897665
21
14.96062992125983
31
0
0
ARC
5
128
100
AcDbEntity
8
PERIMETER
100
AcDbCircle
10
-7.4409448818897683
20
14.881889763779519
30
0
40
0.07874015748031607
210
0
220
-0
230
1
100
AcDbArc
50
89.999999999998721
51
180
0
LINE
5
129
100
AcDbEntity
8
PERIMETER
100
AcDbLine
10
-7.5196850393700831
20
14.881889763779519
30
0
11
-7.5196850393700814
21
13.787681369338049
31
0
0
ARC
5
12A
100
AcDbEntity
8
PERIMETER
100
AcDbCircle
10
-7.5984251968503962
20
13.787681369338046
30
0
40
0.078740157480315792
210
-0
220
0
230
1
100
AcDbArc
50
-44.999999999999538
51
0
0
LINE
5
12B
100
AcDbEntity
8
PERIMETER
100
AcDbLine
10
-7.5427474975443678
20
13.732003670032018
30
0
11
-9.8934209928666732
21
11.381330174709719
31
0
0
ARC
5
12C
100
AcDbEntity
8
PERIMETER
100
AcDbCircle
10
-9.9490986921726989
20
11.437007874015745
30
0
40
0.078740157480314668
210
-0
220
0
230
1
100
AcDbArc
50
270
51
315
0
LINE
5
12D
100
AcDbEntity
8
PERIMETER
100
AcDbLine
10
-9.9490986921726989
20
11.35826771653543
30
0
11
-11.043307086614174
21
11.35826771653543
31
0
0
ARC
5
12E
100
AcDbEntity
8
PERIMETER
100
AcDbCircle
10
-11.043307086614174
20
11.279527559055115
30
0
40
0.078740157480314668
210
0
220
-0
230
1
100
AcDbArc
50
90
51
180
0
LINE
5
12F
100
AcDbEntity
8
PERIMETER
100
AcDbLine
10
-11.122047244094489
20
11.279527559055115
30
0
11
-11.122047244094491
21
6.437007874015741
31
0
0
ARC
5
130
100
AcDbEntity
8
PERIMETER
100
AcDbCircle
10
-11.043307086614176
20
6.437007874015741
30
0
40
0.078740157480314668
210
0
220
0
230
1
100
AcDbArc
50
180
51
270
0
LINE
5
131
100
AcDbEntity
8
PERIMETER
100
AcDbLine
10
-11.043307086614176
20
6.3582677165354262
30
0
11
-9.9455918893208644
21
6.3582677165354262
31
0
0
ARC
5
132
100
AcDbEntity
8
PERIMETER
100
AcDbCircle
10
-9.9455918893208644
20
6.2795275590551114
30
0
40
0.07874015748031471
210
0
220
-0
230
1
100
AcDbArc
50
63.434948822920859
51
90
0
LINE
5
133
100
AcDbEntity
8
PERIMETER
100
AcDbLine
10
-9.9103782203838584
20
6.3499548969291197
30
0
11
-7.5632115279133929
21
5.176371550693891
31
0
0
ARC
5
134
100
AcDbEntity
8
PERIMETER
100
AcDbCircle
10
-7.598425196850398
20
5.1059442128198818
30
0
40
0.078740157480314668
210
-0
220
0
230
1
100
AcDbArc
50
0
51
63.434948822921733
0
LINE
5
135
100
AcDbEntity
8
PERIMETER
100
AcDbLine
10
-7.5196850393700831
20
5.1059442128198818
30
0
11
-7.5196850393700814
21
3.9491738974163342
31
0
0
ARC
5
136
100
AcDbEntity
8
PERIMETER
100
AcDbCircle
10
-7.5984251968503962
20
3.9491738974163342
30
0
40
0.078740157480315334
210
-0
220
0
230
1
100
AcDbArc
50
-63.434948822921861
51
0
0
LINE
5
137
100
AcDbEntity
8
PERIMETER
100
AcDbLine
10
-7.5632115279133911
20
3.8787465595423254
30
0
11
-7.9289144563385818
21
3.6958950953297287
31
0
0
ARC
5
138
100
AcDbEntity
8
PERIMETER
100
AcDbCircle
10
-7.8937007874015759
20
3.625467757455719
30
0
40
0.078740157480315959
210
0
220
0
230
1
100
AcDbArc
50
116.5650511770787
51
180
0
LINE
5
139
100
AcDbEntity
8
PERIMETER
100
AcDbLine
10
-7.9724409448818916
20
3.6254677574557199
30
0
11
-7.9724409448818916
21
2.7885207529427882
31
0
0
ARC
5
13A
100
AcDbEntity
8
PERIMETER
100
AcDbCircle
10
-7.8937007874015617
20
2.7885207529427953
30
0
40
0.078740157480330059
210
0
220
0
230
1
100
AcDbArc
50
180
51
224.99999999999361
0
LINE
5
13B
100
AcDbEntity
8
PERIMETER
100
AcDbLine
10
-7.9493784867076061
20
2.7328430536367634
30
0
11
-7.0899915920278769
21
1.8734561589569803
31
0
0
ARC
5
13C
100
AcDbEntity
8
PERIMETER
100
AcDbCircle
10
-7.1456692913339053
20
1.8177784596509543
30
0
40
0.078740157480314668
210
-0
220
0
230
1
100
AcDbArc
50
0
51
44.999999999998742
0
LINE
5
13D
100
AcDbEntity
8
PERIMETER
100
AcDbLine
10
-7.0669291338535913
20
1.8177784596509425
30
0
11
-7.0669291338544165
21
-3.5894320029589029
31
0
0
ARC
5
13E
100
AcDbEntity
8
PERIMETER
100
AcDbCircle
10
-7.1456692913347313
20
-3.58943200295889
30
0
40
0.078740157480315792
210
-0
220
0
230
1
100
AcDbArc
50
315.00000000000091
51
360
0
LINE
5
13F
100
AcDbEntity
8
PERIMETER
100
AcDbLine
10
-7.089991592028702
20
-3.6451097022649175
30
0
11
-7.9493784867075998
21
-4.5044965969438211
31
0
0
ARC
5
140
100
AcDbEntity
8
PERIMETER
100
AcDbCircle
10
-7.8937007874015706
20
-4.560174296249845
30
0
40
0.078740157480314793
210
0
220
0
230
1
100
AcDbArc
50
135.00000000000276
51
180
0
LINE
5
141
100
AcDbEntity
8
PERIMETER
100
AcDbLine
10
-7.9724409448818845
20
-4.5601742962498468
30
0
11
-7.9724409448818863
21
-5.2823453887895155
31
0
0
ARC
5
142
100
AcDbEntity
8
PERIMETER
100
AcDbCircle
10
-7.893700787401567
20
-5.2823453887895129
30
0
40
0.078740157480318873
210
0
220
0
230
1
100
AcDbArc
50
180
51
224.99999999999815
0
LINE
5
143
100
AcDbEntity
8
PERIMETER
100
AcDbLine
10
-7.9493784867075989
20
-5.3380230880955413
30
0
11
-7.0899915920291123
21
-6.1974099827740332
31
0
0
ARC
5
144
100
AcDbEntity
8
PERIMETER
100
AcDbCircle
10
-7.145669291335139
20
-6.2530876820800607
30
0
40
0.078740157480314668
210
-0
220
0
230
1
100
AcDbArc
50
0
51
45.000000000000462
0
LINE
5
145
100
AcDbEntity
8
PERIMETER
100
AcDbLine
10
-7.066929133854825
20
-6.2530876820800732
30
0
11
-7.0669291338556208
21
-11.463447750991628
31
0
0
ARC
5
146
100
AcDbEntity
8
PERIMETER
100
AcDbCircle
10
-7.1456692913359348
20
-11.463447750991616
30
0
40
0.078740157480314793
210
-0
220
0
230
1
100
AcDbArc
50
314.99999999999955
51
360
0
LINE
5
147
100
AcDbEntity
8
PERIMETER
100
AcDbLine
10
-7.0899915920299081
20
-11.519125450297643
30
0
11
-7.9493784867075945
21
-12.378512344975327
31
0
0
ARC
5
148
100
AcDbEntity
8
PERIMETER
100
AcDbCircle
10
-7.8937007874015732
20
-12.434190044281353
30
0
40
0.078740157480308867
210
0
220
0
230
1
100
AcDbArc
50
134.99999999999773
51
180
0
LINE
5
149
100
AcDbEntity
8
PERIMETER
100
AcDbLine
10
-7.9724409448818818
20
-12.434190044281355
30
0
11
-7.9724409448818809
21
-13.269694981562772
31
0
0
ARC
5
14A
100
AcDbEntity
8
PERIMETER
100
AcDbCircle
10
-7.893700787401567
20
-13.269694981562775
30
0
40
0.07874015748031328
210
0
220
0
230
1
100
AcDbArc
50
180
51
224.99999999999815
0
LINE
5
14B
100
AcDbEntity
8
PERIMETER
100
AcDbLine
10
-7.9493784867075945
20
-13.325372680868799
30
0
11
-7.5427474975443678
21
-13.732003670032027
31
0
0
ARC
5
14C
100
AcDbEntity
8
PERIMETER
100
AcDbCircle
10
-7.5984251968503935
20
-13.787681369338054
30
0
40
0.078740157480314668
210
0
220
-0
230
1
100
AcDbArc
50
0
51
45.000000000000917
0
LINE
5
14D
100
AcDbEntity
8
PERIMETER
100
AcDbLine
10
-7.5196850393700787
20
-13.787681369338054
30
0
11
-7.5196850393700743
21
-14.881889763779528
31
0
0
ARC
5
14E
100
AcDbEntity
8
PERIMETER
100
AcDbCircle
10
-7.440944881889763
20
-14.881889763779531
30
0
40
0.078740157480311879
210
0
220
0
230
1
100
AcDbArc
50
180
51
270
0
LINE
5
14F
100
AcDbEntity
8
PERIMETER
100
AcDbLine
10
-7.440944881889763
20
-14.960629921259844
30
0
11
7.4409448818897594
21
-14.960629921259844
31
0
0
ARC
5
150
100
AcDbEntity
8
PERIMETER
100
AcDbCircle
10
7.4409448818897594
20
-14.881889763779531
30
0
40
0.07874015748031328
210
-0
220
0
230
1
100
AcDbArc
50
-90
51
0
0
LINE
5
151
100
AcDbEntity
8
PERIMETER
100
AcDbLine
10
7.5196850393700734
20
-14.881889763779528
30
0
11
7.5196850393700743
21
-13.787681369338046
31
0
0
ARC
5
152
100
AcDbEntity
8
PERIMETER
100
AcDbCircle
10
7.5984251968503891
20
-13.787681369338046
30
0
40
0.078740157480314793
210
0
220
0
230
1
100
AcDbArc
50
135
51
180
0
LINE
5
153
100
AcDbEntity
8
PERIMETER
100
AcDbLine
10
7.5427474975443616
20
-13.732003670032018
30
0
11
9.8934209928666679
21
-11.381330174709719
31
0
0
ARC
5
154
100
AcDbEntity
8
PERIMETER
100
AcDbCircle
10
9.9490986921726936
20
-11.437007874015746
30
0
40
0.07874015748031607
210
0
220
-0
230
1
100
AcDbArc
50
90
51
134.99999999999909
0
LINE
5
155
100
AcDbEntity
8
PERIMETER
100
AcDbLine
10
9.9490986921726936
20
-11.35826771653543
30
0
11
11.043307086614172
21
-11.358267716535426
31
0
0
ARC
5
156
100
AcDbEntity
8
PERIMETER
100
AcDbCircle
10
11.04330708661417
20
-11.279527559055111
30
0
40
0.07874015748031607
210
-0
220
0
230
1
100
AcDbArc
50
-89.999999999998735
51
0
0
ENDSEC
0
SECTION
2
OBJECTS
0
DICTIONARY
5
C
100
AcDbDictionary
3
ACAD_GROUP
350
D
3
ACAD_MLINESTYLE
350
17
0
DICTIONARY
5
D
100
AcDbDictionary
0
DICTIONARY
5
1A
330
C
100
AcDbDictionary
0
DICTIONARY
5
17
100
AcDbDictionary
0
ENDSEC
0
EOF
