0
SECTION
2
HEADER
9
$INSUNITS
70
1
9
$ACADVER
1
AC1014
9
$HANDSEED
5
FFFF
0
ENDSEC
0
SECTION
2
TABLES
0
TABLE
2
VPORT
5
8
100
AcDbSymbolTable
0
ENDTAB
0
TABLE
2
LTYPE
5
5
100
AcDbSymbolTable
70
2
0
LTYPE
5
14
100
AcDbSymbolTableRecord
100
AcDbLinetypeTableRecord
2
BYBLOCK
70
0
0
LTYPE
5
15
100
AcDbSymbolTableRecord
100
AcDbLinetypeTableRecord
2
BYLAYER
70
0
0
ENDTAB
0
TABLE
2
LAYER
5
2
100
AcDbSymbolTable
70
3
0
LAYER
5
50
100
AcDbSymbolTableRecord
100
AcDbLayerTableRecord
2
0
70
0
6
CONTINUOUS
0
LAYER
5
51
100
AcDbSymbolTableRecord
100
AcDbLayerTableRecord
2
CUTOUTS
70
0
62
1
6
CONTINUOUS
0
LAYER
5
52
100
AcDbSymbolTableRecord
100
AcDbLayerTableRecord
2
PERIMETER
70
0
62
5
6
CONTINUOUS
0
ENDTAB
0
TABLE
2
STYLE
5
3
100
AcDbSymbolTable
70
1
0
STYLE
5
11
100
AcDbSymbolTableRecord
100
AcDbTextStyleTableRecord
2
STANDARD
70
0
0
ENDTAB
0
TABLE
2
VIEW
5
6
100
AcDbSymbolTable
0
ENDTAB
0
TABLE
2
UCS
5
7
100
AcDbSymbolTable
0
ENDTAB
0
TABLE
2
APPID
5
9
100
AcDbSymbolTable
70
1
0
APPID
5
12
100
AcDbSymbolTableRecord
100
AcDbRegAppTableRecord
2
ACAD
70
0
0
ENDTAB
0
TABLE
2
DIMSTYLE
5
A
100
AcDbSymbolTable
0
ENDTAB
0
TABLE
2
BLOCK_RECORD
5
1
100
AcDbSymbolTable
70
2
0
BLOCK_RECORD
5
1F
100
AcDbSymbolTableRecord
100
AcDbBlockTableRecord
2
*MODEL_SPACE
0
BLOCK_RECORD
5
1B
100
AcDbSymbolTableRecord
100
AcDbBlockTableRecord
2
*PAPER_SPACE
0
ENDTAB
0
ENDSEC
0
SECTION
2
BLOCKS
0
BLOCK
5
20
100
AcDbEntity
100
AcDbBlockBegin
2
*MODEL_SPACE
0
ENDBLK
5
21
100
AcDbEntity
100
AcDbBlockEnd
0
BLOCK
5
1C
100
AcDbEntity
100
AcDbBlockBegin
2
*PAPER_SPACE
0
ENDBLK
5
1D
100
AcDbEntity
100
AcDbBlockEnd
0
ENDSEC
0
SECTION
2
ENTITIES
0
CIRCLE
5
100
100
AcDbEntity
8
CUTOUTS
100
AcDbCircle
10
4.7145669291338557
20
0.20669291338582618
30
0
40
0.13779527559055102
210
0
220
0
230
1
0
CIRCLE
5
101
100
AcDbEntity
8
CUTOUTS
100
AcDbCircle
10
-4.537401574803142
20
-0.56102362204724288
30
0
40
0.13779527559055102
210
0
220
0
230
1
0
CIRCLE
5
102
100
AcDbEntity
8
CUTOUTS
100
AcDbCircle
10
3.6909448818897705
20
4.1437007874016691
30
0
40
0.13779527559055102
210
0
220
0
230
1
0
CIRCLE
5
103
100
AcDbEntity
8
CUTOUTS
100
AcDbCircle
10
0.38385826771654225
20
4.1437007874016691
30
0
40
0.13779527559055121
210
0
220
0
230
1
0
CIRCLE
5
104
100
AcDbEntity
8
CUTOUTS
100
AcDbCircle
10
-4.5374015748031438
20
2.9625984251968509
30
0
40
0.13779527559055102
210
0
220
0
230
1
0
CIRCLE
5
105
100
AcDbEntity
8
CUTOUTS
100
AcDbCircle
10
-4.5374015748031393
20
-4.0846456692913371
30
0
40
0.13779527559055102
210
0
220
0
230
1
0
CIRCLE
5
106
100
AcDbEntity
8
CUTOUTS
100
AcDbCircle
10
3.3366141732283445
20
0.36417322834646465
30
0
40
0.070866141732283353
210
0
220
0
230
1
0
CIRCLE
5
107
100
AcDbEntity
8
CUTOUTS
100
AcDbCircle
10
-0.20669291338582829
20
0.36417322834646465
30
0
40
0.070866141732283477
210
0
220
0
230
1
0
CIRCLE
5
108
100
AcDbEntity
8
CUTOUTS
100
AcDbCircle
10
4.7145669291338557
20
-3.7303149606299213
30
0
40
0.13779527559055102
210
0
220
0
230
1
0
ARC
5
109
100
AcDbEntity
8
CUTOUTS
100
AcDbCircle
10
-3.2913385826771613
20
4.0255905511811276
30
0
40
0.078740157480314668
210
0
220
-0
230
1
100
AcDbArc
50
0
51
90
0
LINE
5
10A
100
AcDbEntity
8
CUTOUTS
100
AcDbLine
10
-3.893700787401571
20
4.1043307086614407
30
0
11
-3.2913385826771613
21
4.1043307086614425
31
0
0
ARC
5
10B
100
AcDbEntity
8
CUTOUTS
100
AcDbCircle
10
-3.893700787401571
20
4.0255905511811267
30
0
40
0.078740157480314668
210
0
220
-0
230
1
100
AcDbArc
50
90
51
180
0
LINE
5
10C
100
AcDbEntity
8
CUTOUTS
100
AcDbLine
10
-3.9724409448818858
20
3.5925196850393948
30
0
11
-3.9724409448818858
21
4.0255905511811267
31
0
0
ARC
5
10D
100
AcDbEntity
8
CUTOUTS
100
AcDbCircle
10
-3.893700787401571
20
3.5925196850393948
30
0
40
0.078740157480314668
210
0
220
0
230
1
100
AcDbArc
50
180
51
270
0
LINE
5
10E
100
AcDbEntity
8
CUTOUTS
100
AcDbLine
10
-3.2913385826771613
20
3.5137795275590804
30
0
11
-3.893700787401571
21
3.5137795275590804
31
0
0
ARC
5
10F
100
AcDbEntity
8
CUTOUTS
100
AcDbCircle
10
-3.2913385826771613
20
3.5925196850393966
30
0
40
0.07874015748031607
210
-0
220
0
230
1
100
AcDbArc
50
-90
51
0
0
LINE
5
110
100
AcDbEntity
8
CUTOUTS
100
AcDbLine
10
-3.2125984251968465
20
4.0255905511811276
30
0
11
-3.2125984251968451
21
3.5925196850393966
31
0
0
LINE
5
111
100
AcDbEntity
8
PERIMETER
100
AcDbLine
10
5.0492125984251937
20
1.1712598425196847
30
0
11
4.3799212598425168
21
1.1712598425196841
31
0
0
ARC
5
112
100
AcDbEntity
8
PERIMETER
100
AcDbCircle
10
4.3799212598425168
20
1.2499999999999987
30
0
40
0.078740157480314668
210
0
220
0
230
1
100
AcDbArc
50
180
51
270
0
LINE
5
113
100
AcDbEntity
8
PERIMETER
100
AcDbLine
10
4.301181102362202
20
1.2499999999999987
30
0
11
4.3011811023622029
21
3.1003937007874014
31
0
0
ARC
5
114
100
AcDbEntity
8
PERIMETER
100
AcDbCircle
10
4.3799212598425168
20
3.1003937007874014
30
0
40
0.078740157480314668
210
0
220
-0
230
1
100
AcDbArc
50
90
51
180
0
LINE
5
115
100
AcDbEntity
8
PERIMETER
100
AcDbLine
10
4.3799212598425168
20
3.1791338582677158
30
0
11
5.0295275590551158
21
3.1791338582677158
31
0
0
ARC
5
116
100
AcDbEntity
8
PERIMETER
100
AcDbCircle
10
5.0295275590551158
20
3.2381889763779514
30
0
40
0.059055118110235658
210
-0
220
0
230
1
100
AcDbArc
50
-90
51
0
0
LINE
5
117
100
AcDbEntity
8
PERIMETER
100
AcDbLine
10
5.0885826771653511
20
3.2381889763779514
30
0
11
5.088582677165352
21
4.6948818897637778
31
0
0
LINE
5
118
100
AcDbEntity
8
PERIMETER
100
AcDbLine
10
5.088582677165352
20
4.6948818897637778
30
0
11
-5.0098425196850336
21
4.6948818897637796
31
0
0
ARC
5
119
100
AcDbEntity
8
PERIMETER
100
AcDbCircle
10
-5.0098425196850345
20
4.6161417322834648
30
0
40
0.078740157480314668
210
0
220
-0
230
1
100
AcDbArc
50
89.999999999999346
51
180
0
LINE
5
11A
100
AcDbEntity
8
PERIMETER
100
AcDbLine
10
-5.0885826771653493
20
4.616141732283463
30
0
11
-5.0885826771653511
21
-4.6948818897637725
31
0
0
LINE
5
11B
100
AcDbEntity
8
PERIMETER
100
AcDbLine
10
-5.0885826771653511
20
-4.6948818897637725
30
0
11
5.0492125984251937
21
-4.6948818897637796
31
0
0
ARC
5
11C
100
AcDbEntity
8
PERIMETER
100
AcDbCircle
10
5.0492125984251937
20
-4.6555118110236231
30
0
40
0.03937007874015664
210
-0
220
0
230
1
100
AcDbArc
50
-90
51
0
0
LINE
5
11D
100
AcDbEntity
8
PERIMETER
100
AcDbLine
10
5.0885826771653511
20
-4.6555118110236231
30
0
11
5.0885826771653511
21
-2.8051181102362204
31
0
0
ARC
5
11E
100
AcDbEntity
8
PERIMETER
100
AcDbCircle
10
5.0492125984251937
20
-2.8051181102362204
30
0
40
0.039370078740157334
210
0
220
-0
230
1
100
AcDbArc
50
0
51
90
0
LINE
5
11F
100
AcDbEntity
8
PERIMETER
100
AcDbLine
10
5.0492125984251937
20
-2.765748031496063
30
0
11
4.3799212598425168
21
-2.7657480314960634
31
0
0
ARC
5
120
100
AcDbEntity
8
PERIMETER
100
AcDbCircle
10
4.3799212598425168
20
-2.687007874015749
30
0
40
0.078740157480315376
210
0
220
0
230
1
100
AcDbArc
50
180
51
270
0
LINE
5
121
100
AcDbEntity
8
PERIMETER
100
AcDbLine
10
4.301181102362202
20
-2.687007874015749
30
0
11
4.3011811023622029
21
-0.83661417322834641
31
0
0
ARC
5
122
100
AcDbEntity
8
PERIMETER
100
AcDbCircle
10
4.3799212598425168
20
-0.83661417322834641
30
0
40
0.078740157480314668
210
0
220
-0
230
1
100
AcDbArc
50
90
51
180
0
LINE
5
123
100
AcDbEntity
8
PERIMETER
100
AcDbLine
10
4.3799212598425168
20
-0.7578740157480317
30
0
11
5.0492125984251937
21
-0.7578740157480317
31
0
0
ARC
5
124
100
AcDbEntity
8
PERIMETER
100
AcDbCircle
10
5.0492125984251937
20
-0.71850393700787507
30
0
40
0.03937007874015664
210
-0
220
0
230
1
100
AcDbArc
50
-90
51
0
0
LINE
5
125
100
AcDbEntity
8
PERIMETER
100
AcDbLine
10
5.0885826771653511
20
-0.71850393700787507
30
0
11
5.0885826771653511
21
1.1318897637795275
31
0
0
ARC
5
126
100
AcDbEntity
8
PERIMETER
100
AcDbCircle
10
5.0492125984251937
20
1.1318897637795275
30
0
40
0.039370078740157334
210
0
220
-0
230
1
100
AcDbArc
50
0
51
90
0
ENDSEC
0
SECTION
2
OBJECTS
0
DICTIONARY
5
C
100
AcDbDictionary
3
ACAD_GROUP
350
D
3
ACAD_MLINESTYLE
350
17
0
DICTIONARY
5
D
100
AcDbDictionary
0
DICTIONARY
5
1A
330
C
100
AcDbDictionary
0
DICTIONARY
5
17
100
AcDbDictionary
0
ENDSEC
0
EOF
