0
SECTION
2
HEADER
9
$INSUNITS
70
1
9
$ACADVER
1
AC1014
9
$HANDSEED
5
FFFF
0
ENDSEC
0
SECTION
2
TABLES
0
TABLE
2
VPORT
5
8
100
AcDbSymbolTable
0
ENDTAB
0
TABLE
2
LTYPE
5
5
100
AcDbSymbolTable
70
2
0
LTYPE
5
14
100
AcDbSymbolTableRecord
100
AcDbLinetypeTableRecord
2
BYBLOCK
70
0
0
LTYPE
5
15
100
AcDbSymbolTableRecord
100
AcDbLinetypeTableRecord
2
BYLAYER
70
0
0
ENDTAB
0
TABLE
2
LAYER
5
2
100
AcDbSymbolTable
70
3
0
LAYER
5
50
100
AcDbSymbolTableRecord
100
AcDbLayerTableRecord
2
0
70
0
6
CONTINUOUS
0
LAYER
5
51
100
AcDbSymbolTableRecord
100
AcDbLayerTableRecord
2
CUTOUTS
70
0
62
1
6
CONTINUOUS
0
LAYER
5
52
100
AcDbSymbolTableRecord
100
AcDbLayerTableRecord
2
PERIMETER
70
0
62
5
6
CONTINUOUS
0
ENDTAB
0
TABLE
2
STYLE
5
3
100
AcDbSymbolTable
70
1
0
STYLE
5
11
100
AcDbSymbolTableRecord
100
AcDbTextStyleTableRecord
2
STANDARD
70
0
0
ENDTAB
0
TABLE
2
VIEW
5
6
100
AcDbSymbolTable
0
ENDTAB
0
TABLE
2
UCS
5
7
100
AcDbSymbolTable
0
ENDTAB
0
TABLE
2
APPID
5
9
100
AcDbSymbolTable
70
1
0
APPID
5
12
100
AcDbSymbolTableRecord
100
AcDbRegAppTableRecord
2
ACAD
70
0
0
ENDTAB
0
TABLE
2
DIMSTYLE
5
A
100
AcDbSymbolTable
0
ENDTAB
0
TABLE
2
BLOCK_RECORD
5
1
100
AcDbSymbolTable
70
2
0
BLOCK_RECORD
5
1F
100
AcDbSymbolTableRecord
100
AcDbBlockTableRecord
2
*MODEL_SPACE
0
BLOCK_RECORD
5
1B
100
AcDbSymbolTableRecord
100
AcDbBlockTableRecord
2
*PAPER_SPACE
0
ENDTAB
0
ENDSEC
0
SECTION
2
BLOCKS
0
BLOCK
5
20
100
AcDbEntity
100
AcDbBlockBegin
2
*MODEL_SPACE
0
ENDBLK
5
21
100
AcDbEntity
100
AcDbBlockEnd
0
BLOCK
5
1C
100
AcDbEntity
100
AcDbBlockBegin
2
*PAPER_SPACE
0
ENDBLK
5
1D
100
AcDbEntity
100
AcDbBlockEnd
0
ENDSEC
0
SECTION
2
ENTITIES
0
CIRCLE
5
100
100
AcDbEntity
8
CUTOUTS
100
AcDbCircle
10
11.220472440944876
20
-2.5590551181102428
30
0
40
0.12992125984251901
210
0
220
0
230
1
0
CIRCLE
5
101
100
AcDbEntity
8
CUTOUTS
100
AcDbCircle
10
7.6771653543179266
20
4.9212598425196772
30
0
40
0.12992125984251901
210
0
220
0
230
1
0
CIRCLE
5
102
100
AcDbEntity
8
CUTOUTS
100
AcDbCircle
10
11.220472440944878
20
1.3779527559055083
30
0
40
0.12992125984251901
210
0
220
0
230
1
0
CIRCLE
5
103
100
AcDbEntity
8
CUTOUTS
100
AcDbCircle
10
7.6771653543307048
20
-4.9212598425196852
30
0
40
0.12992125984251901
210
0
220
0
230
1
0
CIRCLE
5
104
100
AcDbEntity
8
CUTOUTS
100
AcDbCircle
10
-2.7974123455122052e-15
20
-4.9212598425196896
30
0
40
0.12992125984251968
210
0
220
0
230
1
0
CIRCLE
5
105
100
AcDbEntity
8
CUTOUTS
100
AcDbCircle
10
-11.220472440944881
20
-2.5590551181102428
30
0
40
0.12992125984251901
210
0
220
0
230
1
0
CIRCLE
5
106
100
AcDbEntity
8
CUTOUTS
100
AcDbCircle
10
-2.5213519166783922e-15
20
4.921259842518884
30
0
40
0.12992125984251968
210
0
220
0
230
1
0
CIRCLE
5
107
100
AcDbEntity
8
CUTOUTS
100
AcDbCircle
10
-7.6771653543179319
20
4.9212598425196772
30
0
40
0.12992125984251901
210
0
220
0
230
1
0
CIRCLE
5
108
100
AcDbEntity
8
CUTOUTS
100
AcDbCircle
10
-11.220472440944883
20
1.3779527559055083
30
0
40
0.12992125984251901
210
0
220
0
230
1
0
CIRCLE
5
109
100
AcDbEntity
8
CUTOUTS
100
AcDbCircle
10
-7.677165354330711
20
-4.9212598425196852
30
0
40
0.12992125984251901
210
0
220
0
230
1
0
LINE
5
10A
100
AcDbEntity
8
PERIMETER
100
AcDbLine
10
8.1299212598297377
20
5.511811023622049
30
0
11
-8.1299212598297466
21
5.5118110236220339
31
0
0
ARC
5
10B
100
AcDbEntity
8
PERIMETER
100
AcDbCircle
10
-8.1299212598297448
20
5.4330708661417191
30
0
40
0.078740157480314668
210
0
220
0
230
1
100
AcDbArc
50
90.000000000001307
51
180
0
LINE
5
10C
100
AcDbEntity
8
PERIMETER
100
AcDbLine
10
-8.2086614173100596
20
5.4330708661417191
30
0
11
-8.2086614173100596
21
4.3388624717002813
31
0
0
ARC
5
10D
100
AcDbEntity
8
PERIMETER
100
AcDbCircle
10
-8.2874015747903726
20
4.3388624717002813
30
0
40
0.078740157480315792
210
-0
220
0
230
1
100
AcDbArc
50
-45.000000000154905
51
0
0
LINE
5
10E
100
AcDbEntity
8
PERIMETER
100
AcDbLine
10
-8.2317238754844961
20
4.2831847723941037
30
0
11
-10.58239737081955
21
1.9325112770717712
31
0
0
ARC
5
10F
100
AcDbEntity
8
PERIMETER
100
AcDbCircle
10
-10.638075070125426
20
1.9881889763779494
30
0
40
0.078740157480314668
210
-0
220
0
230
1
100
AcDbArc
50
270
51
314.99999999984476
0
LINE
5
110
100
AcDbEntity
8
PERIMETER
100
AcDbLine
10
-10.638075070125426
20
1.9094488188976346
30
0
11
-11.73228346456693
21
1.9094488188976346
31
0
0
ARC
5
111
100
AcDbEntity
8
PERIMETER
100
AcDbCircle
10
-11.732283464566931
20
1.8307086614173214
30
0
40
0.07874015748031328
210
0
220
-0
230
1
100
AcDbArc
50
89.999999999998721
51
180
0
LINE
5
112
100
AcDbEntity
8
PERIMETER
100
AcDbLine
10
-11.811023622047244
20
1.83070866141732
30
0
11
-11.811023622047246
21
-3.0118110236220526
31
0
0
ARC
5
113
100
AcDbEntity
8
PERIMETER
100
AcDbCircle
10
-11.732283464566931
20
-3.0118110236220526
30
0
40
0.078740157480314668
210
0
220
0
230
1
100
AcDbArc
50
180
51
270
0
LINE
5
114
100
AcDbEntity
8
PERIMETER
100
AcDbLine
10
-11.732283464566931
20
-3.0905511811023669
30
0
11
-10.63456826727362
21
-3.0905511811023678
31
0
0
ARC
5
115
100
AcDbEntity
8
PERIMETER
100
AcDbCircle
10
-10.63456826727362
20
-3.1692913385826826
30
0
40
0.078740157480315029
210
0
220
-0
230
1
100
AcDbArc
50
63.434948822921008
51
90
0
LINE
5
116
100
AcDbEntity
8
PERIMETER
100
AcDbLine
10
-10.599354598336614
20
-3.0988640007086738
30
0
11
-8.2521879058661494
21
-4.2724473469439017
31
0
0
ARC
5
117
100
AcDbEntity
8
PERIMETER
100
AcDbCircle
10
-8.2874015748031535
20
-4.3428746848179109
30
0
40
0.078740157480314668
210
-0
220
0
230
1
100
AcDbArc
50
0
51
63.434948822922301
0
LINE
5
118
100
AcDbEntity
8
PERIMETER
100
AcDbLine
10
-8.2086614173228387
20
-4.3428746848179109
30
0
11
-8.2086614173228369
21
-5.4330708661417324
31
0
0
ARC
5
119
100
AcDbEntity
8
PERIMETER
100
AcDbCircle
10
-8.1299212598425221
20
-5.4330708661417324
30
0
40
0.078740157480314668
210
0
220
0
230
1
100
AcDbArc
50
180
51
270
0
LINE
5
11A
100
AcDbEntity
8
PERIMETER
100
AcDbLine
10
-8.1299212598425221
20
-5.5118110236220463
30
0
11
8.1299212598425257
21
-5.5118110236220499
31
0
0
ARC
5
11B
100
AcDbEntity
8
PERIMETER
100
AcDbCircle
10
8.1299212598425274
20
-5.433070866141736
30
0
40
0.078740157480313974
210
0
220
0
230
1
100
AcDbArc
50
-90.000000000001322
51
0
0
LINE
5
11C
100
AcDbEntity
8
PERIMETER
100
AcDbLine
10
8.2086614173228423
20
-5.4330708661417351
30
0
11
8.2086614173228405
21
-4.342874684817903
31
0
0
ARC
5
11D
100
AcDbEntity
8
PERIMETER
100
AcDbCircle
10
8.2874015748031553
20
-4.3428746848179038
30
0
40
0.07874015748031471
210
0
220
0
230
1
100
AcDbArc
50
116.56505117707917
51
180
0
LINE
5
11E
100
AcDbEntity
8
PERIMETER
100
AcDbLine
10
8.2521879058661494
20
-4.2724473469438946
30
0
11
10.599354598336616
21
-3.0988640007086627
31
0
0
ARC
5
11F
100
AcDbEntity
8
PERIMETER
100
AcDbCircle
10
10.634568267273622
20
-3.1692913385826729
30
0
40
0.078740157480315029
210
0
220
-0
230
1
100
AcDbArc
50
90
51
116.56505117707886
0
LINE
5
120
100
AcDbEntity
8
PERIMETER
100
AcDbLine
10
10.634568267273622
20
-3.0905511811023585
30
0
11
11.732283464566931
21
-3.0905511811023567
31
0
0
ARC
5
121
100
AcDbEntity
8
PERIMETER
100
AcDbCircle
10
11.732283464566931
20
-3.011811023622041
30
0
40
0.078740157480315376
210
-0
220
0
230
1
100
AcDbArc
50
270
51
360
0
LINE
5
122
100
AcDbEntity
8
PERIMETER
100
AcDbLine
10
11.811023622047246
20
-3.0118110236220414
30
0
11
11.811023622047243
21
1.8307086614173311
31
0
0
ARC
5
123
100
AcDbEntity
8
PERIMETER
100
AcDbCircle
10
11.732283464566928
20
1.8307086614173311
30
0
40
0.078740157480314668
210
0
220
-0
230
1
100
AcDbArc
50
0
51
90
0
LINE
5
124
100
AcDbEntity
8
PERIMETER
100
AcDbLine
10
11.732283464566928
20
1.9094488188976459
30
0
11
10.638075070125423
21
1.9094488188976459
31
0
0
ARC
5
125
100
AcDbEntity
8
PERIMETER
100
AcDbCircle
10
10.638075070125423
20
1.9881889763779605
30
0
40
0.078740157480314793
210
0
220
0
230
1
100
AcDbArc
50
225.00000000015527
51
270
0
LINE
5
126
100
AcDbEntity
8
PERIMETER
100
AcDbLine
10
10.582397370819546
20
1.9325112770717823
30
0
11
8.2317238754844926
21
4.2831847723941099
31
0
0
ARC
5
127
100
AcDbEntity
8
PERIMETER
100
AcDbCircle
10
8.2874015747903691
20
4.3388624717002884
30
0
40
0.078740157480314668
210
0
220
0
230
1
100
AcDbArc
50
180
51
225.00000000015535
0
LINE
5
128
100
AcDbEntity
8
PERIMETER
100
AcDbLine
10
8.2086614173100543
20
4.3388624717002884
30
0
11
8.2086614173100525
21
5.4330708661417342
31
0
0
ARC
5
129
100
AcDbEntity
8
PERIMETER
100
AcDbCircle
10
8.1299212598297377
20
5.4330708661417342
30
0
40
0.078740157480314668
210
0
220
-0
230
1
100
AcDbArc
50
0
51
90
0
ENDSEC
0
SECTION
2
OBJECTS
0
DICTIONARY
5
C
100
AcDbDictionary
3
ACAD_GROUP
350
D
3
ACAD_MLINESTYLE
350
17
0
DICTIONARY
5
D
100
AcDbDictionary
0
DICTIONARY
5
1A
330
C
100
AcDbDictionary
0
DICTIONARY
5
17
100
AcDbDictionary
0
ENDSEC
0
EOF
