0
SECTION
2
HEADER
9
$INSUNITS
70
1
9
$ACADVER
1
AC1014
9
$HANDSEED
5
FFFF
0
ENDSEC
0
SECTION
2
TABLES
0
TABLE
2
VPORT
5
8
100
AcDbSymbolTable
0
ENDTAB
0
TABLE
2
LTYPE
5
5
100
AcDbSymbolTable
70
2
0
LTYPE
5
14
100
AcDbSymbolTableRecord
100
AcDbLinetypeTableRecord
2
BYBLOCK
70
0
0
LTYPE
5
15
100
AcDbSymbolTableRecord
100
AcDbLinetypeTableRecord
2
BYLAYER
70
0
0
ENDTAB
0
TABLE
2
LAYER
5
2
100
AcDbSymbolTable
70
3
0
LAYER
5
50
100
AcDbSymbolTableRecord
100
AcDbLayerTableRecord
2
0
70
0
6
CONTINUOUS
0
LAYER
5
51
100
AcDbSymbolTableRecord
100
AcDbLayerTableRecord
2
CUTOUTS
70
0
62
1
6
CONTINUOUS
0
LAYER
5
52
100
AcDbSymbolTableRecord
100
AcDbLayerTableRecord
2
PERIMETER
70
0
62
5
6
CONTINUOUS
0
ENDTAB
0
TABLE
2
STYLE
5
3
100
AcDbSymbolTable
70
1
0
STYLE
5
11
100
AcDbSymbolTableRecord
100
AcDbTextStyleTableRecord
2
STANDARD
70
0
0
ENDTAB
0
TABLE
2
VIEW
5
6
100
AcDbSymbolTable
0
ENDTAB
0
TABLE
2
UCS
5
7
100
AcDbSymbolTable
0
ENDTAB
0
TABLE
2
APPID
5
9
100
AcDbSymbolTable
70
1
0
APPID
5
12
100
AcDbSymbolTableRecord
100
AcDbRegAppTableRecord
2
ACAD
70
0
0
ENDTAB
0
TABLE
2
DIMSTYLE
5
A
100
AcDbSymbolTable
0
ENDTAB
0
TABLE
2
BLOCK_RECORD
5
1
100
AcDbSymbolTable
70
2
0
BLOCK_RECORD
5
1F
100
AcDbSymbolTableRecord
100
AcDbBlockTableRecord
2
*MODEL_SPACE
0
BLOCK_RECORD
5
1B
100
AcDbSymbolTableRecord
100
AcDbBlockTableRecord
2
*PAPER_SPACE
0
ENDTAB
0
ENDSEC
0
SECTION
2
BLOCKS
0
BLOCK
5
20
100
AcDbEntity
100
AcDbBlockBegin
2
*MODEL_SPACE
0
ENDBLK
5
21
100
AcDbEntity
100
AcDbBlockEnd
0
BLOCK
5
1C
100
AcDbEntity
100
AcDbBlockBegin
2
*PAPER_SPACE
0
ENDBLK
5
1D
100
AcDbEntity
100
AcDbBlockEnd
0
ENDSEC
0
SECTION
2
ENTITIES
0
CIRCLE
5
100
100
AcDbEntity
8
CUTOUTS
100
AcDbCircle
10
8.956692913385826
20
6.4960629921259754
30
0
40
0.12992125984251901
210
0
220
0
230
1
0
CIRCLE
5
101
100
AcDbEntity
8
CUTOUTS
100
AcDbCircle
10
-8.956692913385826
20
6.4960629921259727
30
0
40
0.12992125984251901
210
0
220
0
230
1
0
CIRCLE
5
102
100
AcDbEntity
8
CUTOUTS
100
AcDbCircle
10
-9.4685039370078812
20
-4.9212598425196354
30
0
40
0.12992125984251901
210
0
220
0
230
1
0
CIRCLE
5
103
100
AcDbEntity
8
CUTOUTS
100
AcDbCircle
10
-8.9566929133858242
20
-16.338582677165359
30
0
40
0.12992125984251901
210
0
220
0
230
1
0
CIRCLE
5
104
100
AcDbEntity
8
CUTOUTS
100
AcDbCircle
10
8.9566929133858295
20
-16.338582677165359
30
0
40
0.12992125984251901
210
0
220
0
230
1
0
CIRCLE
5
105
100
AcDbEntity
8
CUTOUTS
100
AcDbCircle
10
12.499999999999995
20
-4.3307086614173338
30
0
40
0.1299212598425204
210
0
220
0
230
1
0
CIRCLE
5
106
100
AcDbEntity
8
CUTOUTS
100
AcDbCircle
10
12.5
20
8.8582677165354173
30
0
40
0.1299212598425204
210
0
220
0
230
1
0
CIRCLE
5
107
100
AcDbEntity
8
CUTOUTS
100
AcDbCircle
10
8.9566929133858277
20
16.338582677165348
30
0
40
0.12992125984251901
210
0
220
0
230
1
0
CIRCLE
5
108
100
AcDbEntity
8
CUTOUTS
100
AcDbCircle
10
-8.956692913385826
20
16.338582677165348
30
0
40
0.12992125984251901
210
0
220
0
230
1
0
CIRCLE
5
109
100
AcDbEntity
8
CUTOUTS
100
AcDbCircle
10
-12.499999999999998
20
8.8582677165354138
30
0
40
0.12992125984251901
210
0
220
0
230
1
0
CIRCLE
5
10A
100
AcDbEntity
8
CUTOUTS
100
AcDbCircle
10
-12.499999999999998
20
12.795275590551174
30
0
40
0.12992125984251901
210
0
220
0
230
1
0
CIRCLE
5
10B
100
AcDbEntity
8
CUTOUTS
100
AcDbCircle
10
1.3987061727561026e-15
20
16.338582677165348
30
0
40
0.12992125984251968
210
0
220
0
230
1
0
CIRCLE
5
10C
100
AcDbEntity
8
CUTOUTS
100
AcDbCircle
10
12.5
20
12.795275590551174
30
0
40
0.1299212598425204
210
0
220
0
230
1
0
CIRCLE
5
10D
100
AcDbEntity
8
CUTOUTS
100
AcDbCircle
10
12.499999999999998
20
4.133858267716521
30
0
40
0.1299212598425204
210
0
220
0
230
1
0
CIRCLE
5
10E
100
AcDbEntity
8
CUTOUTS
100
AcDbCircle
10
12.499999999999991
20
-12.795275590551185
30
0
40
0.12992125984251901
210
0
220
0
230
1
0
CIRCLE
5
10F
100
AcDbEntity
8
CUTOUTS
100
AcDbCircle
10
-9.7909432092927175e-15
20
-16.338582677165359
30
0
40
0.12992125984251968
210
0
220
0
230
1
0
CIRCLE
5
110
100
AcDbEntity
8
CUTOUTS
100
AcDbCircle
10
-9.4685039370078883
20
-14.763779527559084
30
0
40
0.12992125984251901
210
0
220
0
230
1
0
CIRCLE
5
111
100
AcDbEntity
8
CUTOUTS
100
AcDbCircle
10
-9.4685039370078741
20
5.1181102362204598
30
0
40
0.12992125984251901
210
0
220
0
230
1
0
CIRCLE
5
112
100
AcDbEntity
8
CUTOUTS
100
AcDbCircle
10
0
20
6.496062992125978
30
0
40
0.12992125984251968
210
0
220
0
230
1
0
LINE
5
113
100
AcDbEntity
8
PERIMETER
100
AcDbLine
10
-13.090551181102361
20
13.248031496062987
30
0
11
-13.090551181102361
21
8.4055118110236045
31
0
0
ARC
5
114
100
AcDbEntity
8
PERIMETER
100
AcDbCircle
10
-13.011811023622045
20
8.4055118110236045
30
0
40
0.07874015748031607
210
0
220
0
230
1
100
AcDbArc
50
180
51
270
0
LINE
5
115
100
AcDbEntity
8
PERIMETER
100
AcDbLine
10
-13.011811023622045
20
8.3267716535432879
30
0
11
-11.914095826328735
21
8.3267716535432896
31
0
0
ARC
5
116
100
AcDbEntity
8
PERIMETER
100
AcDbCircle
10
-11.914095826328735
20
8.248031496062973
30
0
40
0.078740157480315334
210
0
220
-0
230
1
100
AcDbArc
50
63.434948822922593
51
90
0
LINE
5
117
100
AcDbEntity
8
PERIMETER
100
AcDbLine
10
-11.878882157391731
20
8.3184588339369832
30
0
11
-9.5317154649212643
21
7.1448754877017562
31
0
0
ARC
5
118
100
AcDbEntity
8
PERIMETER
100
AcDbCircle
10
-9.5669291338582685
20
7.0744481498277469
30
0
40
0.078740157480314668
210
0
220
-0
230
1
100
AcDbArc
50
0
51
63.434948822922301
0
LINE
5
119
100
AcDbEntity
8
PERIMETER
100
AcDbLine
10
-9.4881889763779537
20
7.0744481498277469
30
0
11
-9.4881889763779519
21
5.9176778344241985
31
0
0
ARC
5
11A
100
AcDbEntity
8
PERIMETER
100
AcDbCircle
10
-9.5669291338582667
20
5.9176778344241985
30
0
40
0.07874015748031471
210
-0
220
0
230
1
100
AcDbArc
50
-63.43494882292201
51
0
0
LINE
5
11B
100
AcDbEntity
8
PERIMETER
100
AcDbLine
10
-9.5317154649212625
20
5.8472504965501901
30
0
11
-9.8974183933464541
21
5.6643990323375926
31
0
0
ARC
5
11C
100
AcDbEntity
8
PERIMETER
100
AcDbCircle
10
-9.8622047244094464
20
5.5939716944635816
30
0
40
0.078740157480317832
210
0
220
0
230
1
100
AcDbArc
50
116.56505117707972
51
180
0
LINE
5
11D
100
AcDbEntity
8
PERIMETER
100
AcDbLine
10
-9.9409448818897648
20
5.5939716944635824
30
0
11
-9.9409448818897648
21
4.7570246899506801
31
0
0
ARC
5
11E
100
AcDbEntity
8
PERIMETER
100
AcDbCircle
10
-9.8622047244094517
20
4.7570246899506792
30
0
40
0.07874015748031328
210
0
220
0
230
1
100
AcDbArc
50
180
51
224.99999999999815
0
LINE
5
11F
100
AcDbEntity
8
PERIMETER
100
AcDbLine
10
-9.9178824237154792
20
4.7013469906446561
30
0
11
-9.0584955290355449
21
3.8419600959646663
31
0
0
ARC
5
120
100
AcDbEntity
8
PERIMETER
100
AcDbCircle
10
-9.1141732283415742
20
3.786282396658641
30
0
40
0.078740157480314668
210
0
220
-0
230
1
100
AcDbArc
50
0
51
44.999999999997947
0
LINE
5
121
100
AcDbEntity
8
PERIMETER
100
AcDbLine
10
-9.0354330708612594
20
3.786282396658641
30
0
11
-9.0354330708612611
21
-3.5894320029578188
31
0
0
ARC
5
122
100
AcDbEntity
8
PERIMETER
100
AcDbCircle
10
-9.1141732283415759
20
-3.5894320029578188
30
0
40
0.078740157480315792
210
-0
220
0
230
1
100
AcDbArc
50
-44.999999999998835
51
0
0
LINE
5
123
100
AcDbEntity
8
PERIMETER
100
AcDbLine
10
-9.0584955290355467
20
-3.6451097022638459
30
0
11
-9.9178824237154686
21
-4.5044965969437731
31
0
0
ARC
5
124
100
AcDbEntity
8
PERIMETER
100
AcDbCircle
10
-9.8622047244094322
20
-4.5601742962498033
30
0
40
0.078740157480322703
210
0
220
0
230
1
100
AcDbArc
50
135.00000000000318
51
180
0
LINE
5
125
100
AcDbEntity
8
PERIMETER
100
AcDbLine
10
-9.9409448818897559
20
-4.5601742962498006
30
0
11
-9.9409448818897577
21
-5.2823453887894702
31
0
0
ARC
5
126
100
AcDbEntity
8
PERIMETER
100
AcDbCircle
10
-9.8622047244094393
20
-5.2823453887894676
30
0
40
0.078740157480317471
210
0
220
0
230
1
100
AcDbArc
50
180
51
224.99999999999724
0
LINE
5
127
100
AcDbEntity
8
PERIMETER
100
AcDbLine
10
-9.9178824237154721
20
-5.3380230880954951
30
0
11
-9.0584955290355502
21
-6.197409982775425
31
0
0
ARC
5
128
100
AcDbEntity
8
PERIMETER
100
AcDbCircle
10
-9.1141732283415759
20
-6.2530876820814498
30
0
40
0.078740157480314668
210
0
220
-0
230
1
100
AcDbArc
50
0
51
44.999999999999538
0
LINE
5
129
100
AcDbEntity
8
PERIMETER
100
AcDbLine
10
-9.0354330708612611
20
-6.2530876820814498
30
0
11
-9.0354330708612611
21
-13.43195168799728
31
0
0
ARC
5
12A
100
AcDbEntity
8
PERIMETER
100
AcDbCircle
10
-9.1141732283415759
20
-13.43195168799728
30
0
40
0.078740157480314793
210
-0
220
0
230
1
100
AcDbArc
50
-45
51
0
0
LINE
5
12B
100
AcDbEntity
8
PERIMETER
100
AcDbLine
10
-9.0584955290355484
20
-13.487629387303308
30
0
11
-9.9178824237154615
21
-14.347016281983215
31
0
0
ARC
5
12C
100
AcDbEntity
8
PERIMETER
100
AcDbCircle
10
-9.8622047244094411
20
-14.402693981289239
30
0
40
0.078740157480307882
210
0
220
0
230
1
100
AcDbArc
50
134.99999999999818
51
180
0
LINE
5
12D
100
AcDbEntity
8
PERIMETER
100
AcDbLine
10
-9.9409448818897488
20
-14.402693981289243
30
0
11
-9.9409448818897506
21
-15.238198918570665
31
0
0
ARC
5
12E
100
AcDbEntity
8
PERIMETER
100
AcDbCircle
10
-9.8622047244094286
20
-15.23819891857066
30
0
40
0.078740157480321663
210
0
220
0
230
1
100
AcDbArc
50
180
51
224.99999999999815
0
LINE
5
12F
100
AcDbEntity
8
PERIMETER
100
AcDbLine
10
-9.9178824237154632
20
-15.293876617876691
30
0
11
-9.5112514345522516
21
-15.700507607039905
31
0
0
ARC
5
130
100
AcDbEntity
8
PERIMETER
100
AcDbCircle
10
-9.5669291338582791
20
-15.75618530634593
30
0
40
0.078740157480314668
210
0
220
-0
230
1
100
AcDbArc
50
0
51
44.999999999999091
0
LINE
5
131
100
AcDbEntity
8
PERIMETER
100
AcDbLine
10
-9.4881889763779643
20
-15.75618530634593
30
0
11
-9.4881889763779625
21
-16.850393700787404
31
0
0
ARC
5
132
100
AcDbEntity
8
PERIMETER
100
AcDbCircle
10
-9.4094488188976477
20
-16.850393700787407
30
0
40
0.078740157480314668
210
0
220
0
230
1
100
AcDbArc
50
180
51
270
0
LINE
5
133
100
AcDbEntity
8
PERIMETER
100
AcDbLine
10
-9.4094488188976477
20
-16.929133858267722
30
0
11
9.4094488188976282
21
-16.929133858267722
31
0
0
ARC
5
134
100
AcDbEntity
8
PERIMETER
100
AcDbCircle
10
9.4094488188976282
20
-16.850393700787407
30
0
40
0.07874015748031328
210
-0
220
0
230
1
100
AcDbArc
50
-90
51
0
0
LINE
5
135
100
AcDbEntity
8
PERIMETER
100
AcDbLine
10
9.4881889763779412
20
-16.850393700787404
30
0
11
9.488188976377943
21
-15.756185306345934
31
0
0
ARC
5
136
100
AcDbEntity
8
PERIMETER
100
AcDbCircle
10
9.5669291338582578
20
-15.756185306345934
30
0
40
0.078740157480314793
210
0
220
0
230
1
100
AcDbArc
50
134.99999999999818
51
180
0
LINE
5
137
100
AcDbEntity
8
PERIMETER
100
AcDbLine
10
9.5112514345522321
20
-15.700507607039905
30
0
11
11.861924929874535
21
-13.349834111717607
31
0
0
ARC
5
138
100
AcDbEntity
8
PERIMETER
100
AcDbCircle
10
11.917602629180562
20
-13.405511811023635
30
0
40
0.07874015748031607
210
0
220
-0
230
1
100
AcDbArc
50
90
51
135.00000000000091
0
LINE
5
139
100
AcDbEntity
8
PERIMETER
100
AcDbLine
10
11.917602629180562
20
-13.326771653543318
30
0
11
13.011811023622039
21
-13.326771653543313
31
0
0
ARC
5
13A
100
AcDbEntity
8
PERIMETER
100
AcDbCircle
10
13.011811023622037
20
-13.248031496062993
30
0
40
0.078740157480318873
210
-0
220
0
230
1
100
AcDbArc
50
270.00000000000125
51
360
0
LINE
5
13B
100
AcDbEntity
8
PERIMETER
100
AcDbLine
10
13.090551181102356
20
-13.248031496062996
30
0
11
13.090551181102361
21
4.5866141732283312
31
0
0
ARC
5
13C
100
AcDbEntity
8
PERIMETER
100
AcDbCircle
10
13.011811023622045
20
4.5866141732283312
30
0
40
0.07874015748031607
210
0
220
-0
230
1
100
AcDbArc
50
0
51
90
0
LINE
5
13D
100
AcDbEntity
8
PERIMETER
100
AcDbLine
10
13.011811023622045
20
4.6653543307086469
30
0
11
11.914095826328735
21
4.6653543307086478
31
0
0
ARC
5
13E
100
AcDbEntity
8
PERIMETER
100
AcDbCircle
10
11.914095826328735
20
4.7440944881889626
30
0
40
0.078740157480315334
210
0
220
0
230
1
100
AcDbArc
50
243.43494882292256
51
270
0
LINE
5
13F
100
AcDbEntity
8
PERIMETER
100
AcDbLine
10
11.878882157391731
20
4.6736671503149525
30
0
11
9.5317154649212643
21
5.847250496550191
31
0
0
ARC
5
140
100
AcDbEntity
8
PERIMETER
100
AcDbCircle
10
9.5669291338582685
20
5.9176778344242011
30
0
40
0.078740157480314668
210
0
220
0
230
1
100
AcDbArc
50
180
51
243.43494882292228
0
LINE
5
141
100
AcDbEntity
8
PERIMETER
100
AcDbLine
10
9.4881889763779537
20
5.9176778344242011
30
0
11
9.4881889763779519
21
7.0744481498277487
31
0
0
ARC
5
142
100
AcDbEntity
8
PERIMETER
100
AcDbCircle
10
9.5669291338582667
20
7.0744481498277487
30
0
40
0.078740157480315334
210
0
220
0
230
1
100
AcDbArc
50
116.56505117707771
51
180
0
LINE
5
143
100
AcDbEntity
8
PERIMETER
100
AcDbLine
10
9.5317154649212625
20
7.144875487701758
30
0
11
11.878882157391729
21
8.3184588339369867
31
0
0
ARC
5
144
100
AcDbEntity
8
PERIMETER
100
AcDbCircle
10
11.914095826328735
20
8.2480314960629766
30
0
40
0.078740157480314668
210
0
220
-0
230
1
100
AcDbArc
50
90
51
116.56505117707917
0
LINE
5
145
100
AcDbEntity
8
PERIMETER
100
AcDbLine
10
11.914095826328735
20
8.3267716535432914
30
0
11
13.011811023622048
21
8.3267716535432914
31
0
0
ARC
5
146
100
AcDbEntity
8
PERIMETER
100
AcDbCircle
10
13.011811023622045
20
8.4055118110236116
30
0
40
0.078740157480318873
210
-0
220
0
230
1
100
AcDbArc
50
270.00000000000261
51
360
0
LINE
5
147
100
AcDbEntity
8
PERIMETER
100
AcDbLine
10
13.090551181102365
20
8.405511811023608
30
0
11
13.090551181102361
21
13.248031496062987
31
0
0
ARC
5
148
100
AcDbEntity
8
PERIMETER
100
AcDbCircle
10
13.011811023622048
20
13.248031496062987
30
0
40
0.07874015748031328
210
0
220
-0
230
1
100
AcDbArc
50
0
51
90.000000000002586
0
LINE
5
149
100
AcDbEntity
8
PERIMETER
100
AcDbLine
10
13.011811023622045
20
13.3267716535433
30
0
11
11.917602629180573
21
13.3267716535433
31
0
0
ARC
5
14A
100
AcDbEntity
8
PERIMETER
100
AcDbCircle
10
11.917602629180573
20
13.405511811023613
30
0
40
0.078740157480314793
210
0
220
0
230
1
100
AcDbArc
50
224.99999999999909
51
270
0
LINE
5
14B
100
AcDbEntity
8
PERIMETER
100
AcDbLine
10
11.861924929874545
20
13.349834111717589
30
0
11
9.511251434552241
21
15.700507607039892
31
0
0
ARC
5
14C
100
AcDbEntity
8
PERIMETER
100
AcDbCircle
10
9.5669291338582667
20
15.756185306345918
30
0
40
0.078740157480314668
210
0
220
0
230
1
100
AcDbArc
50
180
51
225
0
LINE
5
14D
100
AcDbEntity
8
PERIMETER
100
AcDbLine
10
9.4881889763779519
20
15.75618530634592
30
0
11
9.4881889763779519
21
16.8503937007874
31
0
0
ARC
5
14E
100
AcDbEntity
8
PERIMETER
100
AcDbCircle
10
9.4094488188976371
20
16.8503937007874
30
0
40
0.078740157480314668
210
0
220
-0
230
1
100
AcDbArc
50
0
51
90
0
LINE
5
14F
100
AcDbEntity
8
PERIMETER
100
AcDbLine
10
9.4094488188976371
20
16.929133858267715
30
0
11
-9.4094488188976406
21
16.929133858267704
31
0
0
ARC
5
150
100
AcDbEntity
8
PERIMETER
100
AcDbCircle
10
-9.4094488188976406
20
16.850393700787389
30
0
40
0.07874015748031328
210
0
220
-0
230
1
100
AcDbArc
50
90
51
180
0
LINE
5
151
100
AcDbEntity
8
PERIMETER
100
AcDbLine
10
-9.4881889763779537
20
16.850393700787389
30
0
11
-9.4881889763779519
21
15.756185306345918
31
0
0
ARC
5
152
100
AcDbEntity
8
PERIMETER
100
AcDbCircle
10
-9.5669291338582667
20
15.756185306345918
30
0
40
0.078740157480316778
210
-0
220
0
230
1
100
AcDbArc
50
-45.000000000001826
51
0
0
LINE
5
153
100
AcDbEntity
8
PERIMETER
100
AcDbLine
10
-9.5112514345522392
20
15.700507607039887
30
0
11
-11.861924929874542
21
13.349834111717588
31
0
0
ARC
5
154
100
AcDbEntity
8
PERIMETER
100
AcDbCircle
10
-11.917602629180569
20
13.405511811023613
30
0
40
0.07874015748031607
210
-0
220
0
230
1
100
AcDbArc
50
270
51
315.00000000000091
0
LINE
5
155
100
AcDbEntity
8
PERIMETER
100
AcDbLine
10
-11.917602629180569
20
13.3267716535433
30
0
11
-13.011811023622045
21
13.3267716535433
31
0
0
ARC
5
156
100
AcDbEntity
8
PERIMETER
100
AcDbCircle
10
-13.011811023622045
20
13.248031496062985
30
0
40
0.07874015748031607
210
0
220
-0
230
1
100
AcDbArc
50
90
51
180
0
ENDSEC
0
SECTION
2
OBJECTS
0
DICTIONARY
5
C
100
AcDbDictionary
3
ACAD_GROUP
350
D
3
ACAD_MLINESTYLE
350
17
0
DICTIONARY
5
D
100
AcDbDictionary
0
DICTIONARY
5
1A
330
C
100
AcDbDictionary
0
DICTIONARY
5
17
100
AcDbDictionary
0
ENDSEC
0
EOF
