0
SECTION
2
HEADER
9
$INSUNITS
70
1
9
$ACADVER
1
AC1014
9
$HANDSEED
5
FFFF
0
ENDSEC
0
SECTION
2
TABLES
0
TABLE
2
VPORT
5
8
100
AcDbSymbolTable
0
ENDTAB
0
TABLE
2
LTYPE
5
5
100
AcDbSymbolTable
70
2
0
LTYPE
5
14
100
AcDbSymbolTableRecord
100
AcDbLinetypeTableRecord
2
BYBLOCK
70
0
0
LTYPE
5
15
100
AcDbSymbolTableRecord
100
AcDbLinetypeTableRecord
2
BYLAYER
70
0
0
ENDTAB
0
TABLE
2
LAYER
5
2
100
AcDbSymbolTable
70
3
0
LAYER
5
50
100
AcDbSymbolTableRecord
100
AcDbLayerTableRecord
2
0
70
0
6
CONTINUOUS
0
LAYER
5
51
100
AcDbSymbolTableRecord
100
AcDbLayerTableRecord
2
CUTOUTS
70
0
62
1
6
CONTINUOUS
0
LAYER
5
52
100
AcDbSymbolTableRecord
100
AcDbLayerTableRecord
2
PERIMETER
70
0
62
5
6
CONTINUOUS
0
ENDTAB
0
TABLE
2
STYLE
5
3
100
AcDbSymbolTable
70
1
0
STYLE
5
11
100
AcDbSymbolTableRecord
100
AcDbTextStyleTableRecord
2
STANDARD
70
0
0
ENDTAB
0
TABLE
2
VIEW
5
6
100
AcDbSymbolTable
0
ENDTAB
0
TABLE
2
UCS
5
7
100
AcDbSymbolTable
0
ENDTAB
0
TABLE
2
APPID
5
9
100
AcDbSymbolTable
70
1
0
APPID
5
12
100
AcDbSymbolTableRecord
100
AcDbRegAppTableRecord
2
ACAD
70
0
0
ENDTAB
0
TABLE
2
DIMSTYLE
5
A
100
AcDbSymbolTable
0
ENDTAB
0
TABLE
2
BLOCK_RECORD
5
1
100
AcDbSymbolTable
70
2
0
BLOCK_RECORD
5
1F
100
AcDbSymbolTableRecord
100
AcDbBlockTableRecord
2
*MODEL_SPACE
0
BLOCK_RECORD
5
1B
100
AcDbSymbolTableRecord
100
AcDbBlockTableRecord
2
*PAPER_SPACE
0
ENDTAB
0
ENDSEC
0
SECTION
2
BLOCKS
0
BLOCK
5
20
100
AcDbEntity
100
AcDbBlockBegin
2
*MODEL_SPACE
0
ENDBLK
5
21
100
AcDbEntity
100
AcDbBlockEnd
0
BLOCK
5
1C
100
AcDbEntity
100
AcDbBlockBegin
2
*PAPER_SPACE
0
ENDBLK
5
1D
100
AcDbEntity
100
AcDbBlockEnd
0
ENDSEC
0
SECTION
2
ENTITIES
0
CIRCLE
5
100
100
AcDbEntity
8
CUTOUTS
100
AcDbCircle
10
-5.69881889763779
20
-0.77755905511810797
30
0
40
0.13779527559055102
210
0
220
0
230
1
0
CIRCLE
5
101
100
AcDbEntity
8
CUTOUTS
100
AcDbCircle
10
-3.2381889763779474
20
-1.7027559055118036
30
0
40
0.094488188976378035
210
0
220
0
230
1
0
CIRCLE
5
102
100
AcDbEntity
8
CUTOUTS
100
AcDbCircle
10
-1.2696850393700736
20
-1.7027559055118036
30
0
40
0.094488188976378035
210
0
220
0
230
1
0
CIRCLE
5
103
100
AcDbEntity
8
CUTOUTS
100
AcDbCircle
10
5.5216535433070755
20
-0.56102362204725276
30
0
40
0.13779527559055102
210
0
220
0
230
1
0
CIRCLE
5
104
100
AcDbEntity
8
CUTOUTS
100
AcDbCircle
10
-4.6751968503937062
20
5.1279527559056142
30
0
40
0.13779527559055102
210
0
220
0
230
1
0
CIRCLE
5
105
100
AcDbEntity
8
CUTOUTS
100
AcDbCircle
10
0.60039370078739607
20
5.1279527559056088
30
0
40
0.13779527559055121
210
0
220
0
230
1
0
CIRCLE
5
106
100
AcDbEntity
8
CUTOUTS
100
AcDbCircle
10
5.5216535433070817
20
3.9468503937007782
30
0
40
0.13779527559055102
210
0
220
0
230
1
0
CIRCLE
5
107
100
AcDbEntity
8
CUTOUTS
100
AcDbCircle
10
5.5216535433070746
20
-5.0688976377952839
30
0
40
0.13779527559055102
210
0
220
0
230
1
0
CIRCLE
5
108
100
AcDbEntity
8
CUTOUTS
100
AcDbCircle
10
-5.69881889763779
20
3.1594488188976397
30
0
40
0.13779527559055102
210
0
220
0
230
1
0
CIRCLE
5
109
100
AcDbEntity
8
CUTOUTS
100
AcDbCircle
10
-5.69881889763779
20
-4.7145669291338557
30
0
40
0.13779527559055102
210
0
220
0
230
1
0
LINE
5
10A
100
AcDbEntity
8
CUTOUTS
100
AcDbLine
10
4.8779527559055058
20
4.4980314960629917
30
0
11
4.2755905511810965
21
4.4980314960629917
31
0
0
ARC
5
10B
100
AcDbEntity
8
CUTOUTS
100
AcDbCircle
10
4.2755905511810965
20
4.5767716535433065
30
0
40
0.078740157480314668
210
0
220
0
230
1
100
AcDbArc
50
180
51
270
0
LINE
5
10C
100
AcDbEntity
8
CUTOUTS
100
AcDbLine
10
4.1968503937007817
20
4.5767716535433065
30
0
11
4.1968503937007817
21
5.0098425196850398
31
0
0
ARC
5
10D
100
AcDbEntity
8
CUTOUTS
100
AcDbCircle
10
4.2755905511810965
20
5.0098425196850398
30
0
40
0.078740157480314668
210
0
220
-0
230
1
100
AcDbArc
50
90
51
180
0
LINE
5
10E
100
AcDbEntity
8
CUTOUTS
100
AcDbLine
10
4.2755905511810965
20
5.0885826771653546
30
0
11
4.8779527559055058
21
5.0885826771653546
31
0
0
ARC
5
10F
100
AcDbEntity
8
CUTOUTS
100
AcDbCircle
10
4.8779527559055058
20
5.0098425196850398
30
0
40
0.078740157480314668
210
0
220
-0
230
1
100
AcDbArc
50
0
51
90
0
LINE
5
110
100
AcDbEntity
8
CUTOUTS
100
AcDbLine
10
4.9566929133858206
20
5.0098425196850398
30
0
11
4.9566929133858206
21
4.5767716535433065
31
0
0
ARC
5
111
100
AcDbEntity
8
CUTOUTS
100
AcDbCircle
10
4.8779527559055058
20
4.5767716535433065
30
0
40
0.078740157480314668
210
-0
220
0
230
1
100
AcDbArc
50
-90
51
0
0
ARC
5
112
100
AcDbEntity
8
PERIMETER
100
AcDbCircle
10
-5.3641732283464512
20
2.116141732283467
30
0
40
0.078740157480314668
210
0
220
-0
230
1
100
AcDbArc
50
0
51
90.000000000000654
0
LINE
5
113
100
AcDbEntity
8
PERIMETER
100
AcDbLine
10
-5.2854330708661363
20
2.116141732283467
30
0
11
-5.2854330708661363
21
0.26574803149606463
31
0
0
ARC
5
114
100
AcDbEntity
8
PERIMETER
100
AcDbCircle
10
-5.3641732283464512
20
0.26574803149606463
30
0
40
0.078740157480314668
210
-0
220
0
230
1
100
AcDbArc
50
-90
51
0
0
LINE
5
115
100
AcDbEntity
8
PERIMETER
100
AcDbLine
10
-5.364173228346452
20
0.18700787401574998
30
0
11
-6.0334645669291289
21
0.18700787401574998
31
0
0
ARC
5
116
100
AcDbEntity
8
PERIMETER
100
AcDbCircle
10
-6.033464566929128
20
0.14763779527559334
30
0
40
0.03937007874015664
210
0
220
-0
230
1
100
AcDbArc
50
90
51
180
0
LINE
5
117
100
AcDbEntity
8
PERIMETER
100
AcDbLine
10
-6.0728346456692845
20
0.14763779527559334
30
0
11
-6.0728346456692863
21
-1.7027559055118091
31
0
0
ARC
5
118
100
AcDbEntity
8
PERIMETER
100
AcDbCircle
10
-6.0334645669291289
20
-1.7027559055118091
30
0
40
0.039370078740157334
210
0
220
0
230
1
100
AcDbArc
50
180
51
270
0
LINE
5
119
100
AcDbEntity
8
PERIMETER
100
AcDbLine
10
-6.0334645669291289
20
-1.7421259842519665
30
0
11
-5.364173228346452
21
-1.7421259842519659
31
0
0
ARC
5
11A
100
AcDbEntity
8
PERIMETER
100
AcDbCircle
10
-5.3641732283464512
20
-1.8208661417322805
30
0
40
0.078740157480314668
210
0
220
-0
230
1
100
AcDbArc
50
0
51
90
0
LINE
5
11B
100
AcDbEntity
8
PERIMETER
100
AcDbLine
10
-5.2854330708661363
20
-1.8208661417322805
30
0
11
-5.2854330708661363
21
-3.671259842519683
31
0
0
ARC
5
11C
100
AcDbEntity
8
PERIMETER
100
AcDbCircle
10
-5.3641732283464512
20
-3.671259842519683
30
0
40
0.078740157480314668
210
-0
220
0
230
1
100
AcDbArc
50
-90
51
0
0
LINE
5
11D
100
AcDbEntity
8
PERIMETER
100
AcDbLine
10
-5.364173228346452
20
-3.7499999999999978
30
0
11
-6.0334645669291289
21
-3.7499999999999978
31
0
0
ARC
5
11E
100
AcDbEntity
8
PERIMETER
100
AcDbCircle
10
-6.033464566929128
20
-3.7893700787401543
30
0
40
0.03937007874015664
210
0
220
-0
230
1
100
AcDbArc
50
90
51
180
0
LINE
5
11F
100
AcDbEntity
8
PERIMETER
100
AcDbLine
10
-6.0728346456692845
20
-3.7893700787401543
30
0
11
-6.0728346456692863
21
-5.6397637795275566
31
0
0
ARC
5
120
100
AcDbEntity
8
PERIMETER
100
AcDbCircle
10
-6.0334645669291289
20
-5.6397637795275566
30
0
40
0.039370078740157334
210
0
220
0
230
1
100
AcDbArc
50
180
51
270
0
LINE
5
121
100
AcDbEntity
8
PERIMETER
100
AcDbLine
10
-6.0334645669291289
20
-5.679133858267714
30
0
11
6.0728346456692854
21
-5.6791338582677078
31
0
0
LINE
5
122
100
AcDbEntity
8
PERIMETER
100
AcDbLine
10
6.0728346456692854
20
-5.6791338582677078
30
0
11
6.0728346456692845
21
5.6003937007873992
31
0
0
ARC
5
123
100
AcDbEntity
8
PERIMETER
100
AcDbCircle
10
5.9940944881889706
20
5.6003937007873992
30
0
40
0.07874015748031328
210
0
220
-0
230
1
100
AcDbArc
50
0
51
90.000000000001933
0
LINE
5
124
100
AcDbEntity
8
PERIMETER
100
AcDbLine
10
5.994094488188968
20
5.6791338582677122
30
0
11
-5.2854330708661363
21
5.6791338582675035
31
0
0
LINE
5
125
100
AcDbEntity
8
PERIMETER
100
AcDbLine
10
-5.2854330708661363
20
5.6791338582675035
30
0
11
-5.2854330708661381
21
4.2224409448818916
31
0
0
ARC
5
126
100
AcDbEntity
8
PERIMETER
100
AcDbCircle
10
-5.3838582677165308
20
4.2224409448818898
30
0
40
0.098425196850392291
210
0
220
0
230
1
100
AcDbArc
50
-90
51
0
0
LINE
5
127
100
AcDbEntity
8
PERIMETER
100
AcDbLine
10
-5.3838582677165308
20
4.1240157480314981
30
0
11
-6.033464566929128
21
4.1240157480314981
31
0
0
ARC
5
128
100
AcDbEntity
8
PERIMETER
100
AcDbCircle
10
-6.033464566929128
20
4.0846456692913407
30
0
40
0.03937007874015664
210
0
220
-0
230
1
100
AcDbArc
50
90
51
180
0
LINE
5
129
100
AcDbEntity
8
PERIMETER
100
AcDbLine
10
-6.0728346456692845
20
4.0846456692913407
30
0
11
-6.0728346456692863
21
2.2342519685039384
31
0
0
ARC
5
12A
100
AcDbEntity
8
PERIMETER
100
AcDbCircle
10
-6.0334645669291289
20
2.2342519685039384
30
0
40
0.039370078740157334
210
0
220
0
230
1
100
AcDbArc
50
180
51
270
0
LINE
5
12B
100
AcDbEntity
8
PERIMETER
100
AcDbLine
10
-6.0334645669291289
20
2.1948818897637805
30
0
11
-5.364173228346452
21
2.1948818897637818
31
0
0
ENDSEC
0
SECTION
2
OBJECTS
0
DICTIONARY
5
C
100
AcDbDictionary
3
ACAD_GROUP
350
D
3
ACAD_MLINESTYLE
350
17
0
DICTIONARY
5
D
100
AcDbDictionary
0
DICTIONARY
5
1A
330
C
100
AcDbDictionary
0
DICTIONARY
5
17
100
AcDbDictionary
0
ENDSEC
0
EOF
