0
SECTION
2
HEADER
9
$INSUNITS
70
1
9
$ACADVER
1
AC1014
9
$HANDSEED
5
FFFF
0
ENDSEC
0
SECTION
2
TABLES
0
TABLE
2
VPORT
5
8
100
AcDbSymbolTable
0
ENDTAB
0
TABLE
2
LTYPE
5
5
100
AcDbSymbolTable
70
2
0
LTYPE
5
14
100
AcDbSymbolTableRecord
100
AcDbLinetypeTableRecord
2
BYBLOCK
70
0
0
LTYPE
5
15
100
AcDbSymbolTableRecord
100
AcDbLinetypeTableRecord
2
BYLAYER
70
0
0
ENDTAB
0
TABLE
2
LAYER
5
2
100
AcDbSymbolTable
70
3
0
LAYER
5
50
100
AcDbSymbolTableRecord
100
AcDbLayerTableRecord
2
0
70
0
6
CONTINUOUS
0
LAYER
5
51
100
AcDbSymbolTableRecord
100
AcDbLayerTableRecord
2
CUTOUTS
70
0
62
1
6
CONTINUOUS
0
LAYER
5
52
100
AcDbSymbolTableRecord
100
AcDbLayerTableRecord
2
PERIMETER
70
0
62
5
6
CONTINUOUS
0
ENDTAB
0
TABLE
2
STYLE
5
3
100
AcDbSymbolTable
70
1
0
STYLE
5
11
100
AcDbSymbolTableRecord
100
AcDbTextStyleTableRecord
2
STANDARD
70
0
0
ENDTAB
0
TABLE
2
VIEW
5
6
100
AcDbSymbolTable
0
ENDTAB
0
TABLE
2
UCS
5
7
100
AcDbSymbolTable
0
ENDTAB
0
TABLE
2
APPID
5
9
100
AcDbSymbolTable
70
1
0
APPID
5
12
100
AcDbSymbolTableRecord
100
AcDbRegAppTableRecord
2
ACAD
70
0
0
ENDTAB
0
TABLE
2
DIMSTYLE
5
A
100
AcDbSymbolTable
0
ENDTAB
0
TABLE
2
BLOCK_RECORD
5
1
100
AcDbSymbolTable
70
2
0
BLOCK_RECORD
5
1F
100
AcDbSymbolTableRecord
100
AcDbBlockTableRecord
2
*MODEL_SPACE
0
BLOCK_RECORD
5
1B
100
AcDbSymbolTableRecord
100
AcDbBlockTableRecord
2
*PAPER_SPACE
0
ENDTAB
0
ENDSEC
0
SECTION
2
BLOCKS
0
BLOCK
5
20
100
AcDbEntity
100
AcDbBlockBegin
2
*MODEL_SPACE
0
ENDBLK
5
21
100
AcDbEntity
100
AcDbBlockEnd
0
BLOCK
5
1C
100
AcDbEntity
100
AcDbBlockBegin
2
*PAPER_SPACE
0
ENDBLK
5
1D
100
AcDbEntity
100
AcDbBlockEnd
0
ENDSEC
0
SECTION
2
ENTITIES
0
CIRCLE
5
100
100
AcDbEntity
8
CUTOUTS
100
AcDbCircle
10
11.22047244094488
20
0.31496062992125617
30
0
40
0.12992125984251901
210
0
220
0
230
1
0
CIRCLE
5
101
100
AcDbEntity
8
CUTOUTS
100
AcDbCircle
10
7.9921259842519623
20
-10.984251968503937
30
0
40
0.12992125984251901
210
0
220
0
230
1
0
CIRCLE
5
102
100
AcDbEntity
8
CUTOUTS
100
AcDbCircle
10
-1.2795275590551205
20
-10.984251968503935
30
0
40
0.1299212598425197
210
0
220
0
230
1
0
CIRCLE
5
103
100
AcDbEntity
8
CUTOUTS
100
AcDbCircle
10
-11.220472440944881
20
-7.7559055118110223
30
0
40
0.12992125984251901
210
0
220
0
230
1
0
CIRCLE
5
104
100
AcDbEntity
8
CUTOUTS
100
AcDbCircle
10
-11.220472440944881
20
8.3858267716535408
30
0
40
0.12992125984251901
210
0
220
0
230
1
0
CIRCLE
5
105
100
AcDbEntity
8
CUTOUTS
100
AcDbCircle
10
2.5984251968503935
20
10.984251968503933
30
0
40
0.1299212598425197
210
0
220
0
230
1
0
CIRCLE
5
106
100
AcDbEntity
8
CUTOUTS
100
AcDbCircle
10
-8.6220472440944889
20
10.984251968503937
30
0
40
0.12992125984251901
210
0
220
0
230
1
0
CIRCLE
5
107
100
AcDbEntity
8
CUTOUTS
100
AcDbCircle
10
-2.0866141732283472
20
10.984251968503935
30
0
40
0.1299212598425197
210
0
220
0
230
1
0
CIRCLE
5
108
100
AcDbEntity
8
CUTOUTS
100
AcDbCircle
10
8.6220472440944889
20
10.984251968503933
30
0
40
0.12992125984251901
210
0
220
0
230
1
0
CIRCLE
5
109
100
AcDbEntity
8
CUTOUTS
100
AcDbCircle
10
-11.220472440944881
20
0.31496062992125867
30
0
40
0.12992125984251901
210
0
220
0
230
1
0
CIRCLE
5
10A
100
AcDbEntity
8
CUTOUTS
100
AcDbCircle
10
-7.9921259842519685
20
-10.984251968503935
30
0
40
0.12992125984251901
210
0
220
0
230
1
0
CIRCLE
5
10B
100
AcDbEntity
8
CUTOUTS
100
AcDbCircle
10
1.2795275590551156
20
-10.984251968503935
30
0
40
0.1299212598425197
210
0
220
0
230
1
0
CIRCLE
5
10C
100
AcDbEntity
8
CUTOUTS
100
AcDbCircle
10
11.220472440944876
20
-7.7559055118110258
30
0
40
0.12992125984251901
210
0
220
0
230
1
0
CIRCLE
5
10D
100
AcDbEntity
8
CUTOUTS
100
AcDbCircle
10
11.220472440944881
20
8.3858267716535373
30
0
40
0.12992125984251901
210
0
220
0
230
1
0
LINE
5
10E
100
AcDbEntity
8
PERIMETER
100
AcDbLine
10
-0.64960629979926221
20
-10.452755904925148
30
0
11
0.64960629979925433
21
-10.452755904925148
31
0
0
ARC
5
10F
100
AcDbEntity
8
PERIMETER
100
AcDbCircle
10
0.64960629979925433
20
-10.531496062405463
30
0
40
0.078740157480314932
210
0
220
-0
230
1
100
AcDbArc
50
0
51
90
0
LINE
5
110
100
AcDbEntity
8
PERIMETER
100
AcDbLine
10
0.72834645727956926
20
-10.531496062405463
30
0
11
0.72834645727956926
21
-11.456692912799165
31
0
0
ARC
5
111
100
AcDbEntity
8
PERIMETER
100
AcDbCircle
10
0.80708661475988452
20
-11.456692912799165
30
0
40
0.078740157480315293
210
0
220
0
230
1
100
AcDbArc
50
180
51
269.99999999999989
0
LINE
5
112
100
AcDbEntity
8
PERIMETER
100
AcDbLine
10
0.80708661475988441
20
-11.535433070279479
30
0
11
8.4645669285471925
21
-11.535433070279479
31
0
0
ARC
5
113
100
AcDbEntity
8
PERIMETER
100
AcDbCircle
10
8.4645669285471925
20
-11.456692912799165
30
0
40
0.078740157480314668
210
-0
220
0
230
1
100
AcDbArc
50
-89.999999999998735
51
0
0
LINE
5
114
100
AcDbEntity
8
PERIMETER
100
AcDbLine
10
8.5433070860275073
20
-11.456692912799165
30
0
11
8.5433070860275091
21
-8.6546624846395641
31
0
0
ARC
5
115
100
AcDbEntity
8
PERIMETER
100
AcDbCircle
10
8.6220472435078239
20
-8.6546624846395641
30
0
40
0.078740157480314793
210
0
220
0
230
1
100
AcDbArc
50
135
51
180
0
LINE
5
116
100
AcDbEntity
8
PERIMETER
100
AcDbLine
10
8.5663695442017964
20
-8.5989847853335366
30
0
11
8.8352052577744811
21
-8.3301490717608537
31
0
0
ARC
5
117
100
AcDbEntity
8
PERIMETER
100
AcDbCircle
10
8.8908829570805086
20
-8.3858267710668812
30
0
40
0.078740157480314668
210
0
220
-0
230
1
100
AcDbArc
50
90
51
135
0
LINE
5
118
100
AcDbEntity
8
PERIMETER
100
AcDbLine
10
8.8908829570805086
20
-8.3070866135865664
30
0
11
11.692913385240109
21
-8.3070866135865664
31
0
0
ARC
5
119
100
AcDbEntity
8
PERIMETER
100
AcDbCircle
10
11.692913385240109
20
-8.2283464561062534
30
0
40
0.07874015748031328
210
-0
220
0
230
1
100
AcDbArc
50
-90
51
0
0
LINE
5
11A
100
AcDbEntity
8
PERIMETER
100
AcDbLine
10
11.771653542720422
20
-8.2283464561062534
30
0
11
11.771653542720426
21
8.8582677159487666
31
0
0
ARC
5
11B
100
AcDbEntity
8
PERIMETER
100
AcDbCircle
10
11.692913385240111
20
8.8582677159487666
30
0
40
0.078740157480314668
210
0
220
-0
230
1
100
AcDbArc
50
0
51
90
0
LINE
5
11C
100
AcDbEntity
8
PERIMETER
100
AcDbLine
10
11.692913385240111
20
8.9370078734290814
30
0
11
10.708661416736176
21
8.9370078734290814
31
0
0
ARC
5
11D
100
AcDbEntity
8
PERIMETER
100
AcDbCircle
10
10.708661416736176
20
9.0157480309093962
30
0
40
0.078740157480314668
210
0
220
0
230
1
100
AcDbArc
50
180
51
270
0
LINE
5
11E
100
AcDbEntity
8
PERIMETER
100
AcDbLine
10
10.629921259255861
20
9.0157480309093962
30
0
11
10.629921259255859
21
10.314960629334601
31
0
0
ARC
5
11F
100
AcDbEntity
8
PERIMETER
100
AcDbCircle
10
10.551181101775544
20
10.314960629334601
30
0
40
0.078740157480314668
210
0
220
-0
230
1
100
AcDbArc
50
0
51
90
0
LINE
5
120
100
AcDbEntity
8
PERIMETER
100
AcDbLine
10
10.551181101775544
20
10.393700786814916
30
0
11
9.2519685033503478
21
10.393700786814916
31
0
0
ARC
5
121
100
AcDbEntity
8
PERIMETER
100
AcDbCircle
10
9.2519685033503478
20
10.472440944295229
30
0
40
0.078740157480314668
210
0
220
0
230
1
100
AcDbArc
50
180
51
270
0
LINE
5
122
100
AcDbEntity
8
PERIMETER
100
AcDbLine
10
9.173228345870033
20
10.472440944295229
30
0
11
9.173228345870033
21
11.456692912799166
31
0
0
ARC
5
123
100
AcDbEntity
8
PERIMETER
100
AcDbCircle
10
9.0944881883897182
20
11.456692912799166
30
0
40
0.078740157480314668
210
0
220
-0
230
1
100
AcDbArc
50
0
51
90
0
LINE
5
124
100
AcDbEntity
8
PERIMETER
100
AcDbLine
10
9.0944881883897182
20
11.535433070279481
30
0
11
2.1259842525551624
21
11.535433070279483
31
0
0
ARC
5
125
100
AcDbEntity
8
PERIMETER
100
AcDbCircle
10
2.125984252555162
20
11.456692912799168
30
0
40
0.078740157480314668
210
0
220
-0
230
1
100
AcDbArc
50
89.999999999999673
51
180
0
LINE
5
126
100
AcDbEntity
8
PERIMETER
100
AcDbLine
10
2.0472440950748476
20
11.456692912799168
30
0
11
2.0472440950748467
21
10.472440944295233
31
0
0
ARC
5
127
100
AcDbEntity
8
PERIMETER
100
AcDbCircle
10
1.9685039375945317
20
10.472440944295233
30
0
40
0.078740157480314668
210
-0
220
0
230
1
100
AcDbArc
50
-90
51
0
0
LINE
5
128
100
AcDbEntity
8
PERIMETER
100
AcDbLine
10
1.9685039375945317
20
10.393700786814918
30
0
11
1.6141732289331148
21
10.393700786814916
31
0
0
ARC
5
129
100
AcDbEntity
8
PERIMETER
100
AcDbCircle
10
1.6141732289331143
20
10.314960629334601
30
0
40
0.078740157480314668
210
0
220
-0
230
1
100
AcDbArc
50
89.999999999999673
51
180
0
LINE
5
12A
100
AcDbEntity
8
PERIMETER
100
AcDbLine
10
1.5354330714527997
20
10.314960629334601
30
0
11
1.5354330714527999
21
8.182221539757677
31
0
0
ARC
5
12B
100
AcDbEntity
8
PERIMETER
100
AcDbCircle
10
1.4566929139724849
20
8.182221539757677
30
0
40
0.078740157480314793
210
-0
220
0
230
1
100
AcDbArc
50
-45.000000000000256
51
0
0
LINE
5
12C
100
AcDbEntity
8
PERIMETER
100
AcDbLine
10
1.512370613278512
20
8.1265438404516495
30
0
11
1.2829049784459854
21
7.8970782056191249
31
0
0
ARC
5
12D
100
AcDbEntity
8
PERIMETER
100
AcDbCircle
10
1.2272272791399568
20
7.9527559049251524
30
0
40
0.078740157480314668
210
-0
220
0
230
1
100
AcDbArc
50
270.00000000000017
51
315.00000000000028
0
LINE
5
12E
100
AcDbEntity
8
PERIMETER
100
AcDbLine
10
1.227227279139957
20
7.8740157474448376
30
0
11
-1.2272272791399601
21
7.8740157474448358
31
0
0
ARC
5
12F
100
AcDbEntity
8
PERIMETER
100
AcDbCircle
10
-1.2272272791399601
20
7.9527559049251506
30
0
40
0.078740157480314932
210
0
220
0
230
1
100
AcDbArc
50
225.00000000000011
51
270
0
LINE
5
130
100
AcDbEntity
8
PERIMETER
100
AcDbLine
10
-1.2829049784459874
20
7.8970782056191231
30
0
11
-1.5123706132785153
21
8.1265438404516512
31
0
0
ARC
5
131
100
AcDbEntity
8
PERIMETER
100
AcDbCircle
10
-1.4566929139724882
20
8.1822215397576787
30
0
40
0.078740157480315029
210
0
220
0
230
1
100
AcDbArc
50
180
51
225.00000000000011
0
LINE
5
132
100
AcDbEntity
8
PERIMETER
100
AcDbLine
10
-1.5354330714528033
20
8.1822215397576787
30
0
11
-1.5354330714528037
21
11.456692912799166
31
0
0
ARC
5
133
100
AcDbEntity
8
PERIMETER
100
AcDbCircle
10
-1.614173228933119
20
11.456692912799166
30
0
40
0.078740157480315195
210
0
220
-0
230
1
100
AcDbArc
50
0
51
89.999999999999673
0
LINE
5
134
100
AcDbEntity
8
PERIMETER
100
AcDbLine
10
-1.6141732289331185
20
11.535433070279481
30
0
11
-9.0944881883897217
21
11.535433070279483
31
0
0
ARC
5
135
100
AcDbEntity
8
PERIMETER
100
AcDbCircle
10
-9.0944881883897217
20
11.456692912799168
30
0
40
0.078740157480314668
210
0
220
-0
230
1
100
AcDbArc
50
89.999999999998721
51
180
0
LINE
5
136
100
AcDbEntity
8
PERIMETER
100
AcDbLine
10
-9.1732283458700365
20
11.456692912799168
30
0
11
-9.1732283458700365
21
10.472440944295233
31
0
0
ARC
5
137
100
AcDbEntity
8
PERIMETER
100
AcDbCircle
10
-9.2519685033503514
20
10.472440944295233
30
0
40
0.078740157480314668
210
-0
220
0
230
1
100
AcDbArc
50
-90
51
0
0
LINE
5
138
100
AcDbEntity
8
PERIMETER
100
AcDbLine
10
-9.2519685033503514
20
10.393700786814918
30
0
11
-10.551181101775546
21
10.393700786814918
31
0
0
ARC
5
139
100
AcDbEntity
8
PERIMETER
100
AcDbCircle
10
-10.551181101775546
20
10.314960629334603
30
0
40
0.078740157480314668
210
0
220
-0
230
1
100
AcDbArc
50
90
51
180
0
LINE
5
13A
100
AcDbEntity
8
PERIMETER
100
AcDbLine
10
-10.629921259255861
20
10.314960629334603
30
0
11
-10.629921259255863
21
9.0157480309094016
31
0
0
ARC
5
13B
100
AcDbEntity
8
PERIMETER
100
AcDbCircle
10
-10.708661416736177
20
9.0157480309094016
30
0
40
0.078740157480314668
210
-0
220
0
230
1
100
AcDbArc
50
-90
51
0
0
LINE
5
13C
100
AcDbEntity
8
PERIMETER
100
AcDbLine
10
-10.708661416736177
20
8.9370078734290868
30
0
11
-11.692913385240113
21
8.937007873429085
31
0
0
ARC
5
13D
100
AcDbEntity
8
PERIMETER
100
AcDbCircle
10
-11.692913385240113
20
8.8582677159487702
30
0
40
0.078740157480314668
210
0
220
-0
230
1
100
AcDbArc
50
90
51
180
0
LINE
5
13E
100
AcDbEntity
8
PERIMETER
100
AcDbLine
10
-11.771653542720427
20
8.8582677159487702
30
0
11
-11.771653542720429
21
-8.2283464561062498
31
0
0
ARC
5
13F
100
AcDbEntity
8
PERIMETER
100
AcDbCircle
10
-11.692913385240114
20
-8.2283464561062498
30
0
40
0.078740157480314668
210
0
220
0
230
1
100
AcDbArc
50
180
51
270
0
LINE
5
140
100
AcDbEntity
8
PERIMETER
100
AcDbLine
10
-11.692913385240114
20
-8.3070866135865646
30
0
11
-8.8908829570805139
21
-8.3070866135865646
31
0
0
ARC
5
141
100
AcDbEntity
8
PERIMETER
100
AcDbCircle
10
-8.8908829570805139
20
-8.3858267710668795
30
0
40
0.078740157480314793
210
0
220
-0
230
1
100
AcDbArc
50
45
51
90
0
LINE
5
142
100
AcDbEntity
8
PERIMETER
100
AcDbLine
10
-8.8352052577744864
20
-8.330149071760852
30
0
11
-8.5663695442018017
21
-8.5989847853335384
31
0
0
ARC
5
143
100
AcDbEntity
8
PERIMETER
100
AcDbCircle
10
-8.6220472435078293
20
-8.6546624846395659
30
0
40
0.078740157480314668
210
0
220
-0
230
1
100
AcDbArc
50
0
51
45
0
LINE
5
144
100
AcDbEntity
8
PERIMETER
100
AcDbLine
10
-8.5433070860275144
20
-8.6546624846395659
30
0
11
-8.5433070860275127
21
-11.456692912799165
31
0
0
ARC
5
145
100
AcDbEntity
8
PERIMETER
100
AcDbCircle
10
-8.4645669285471978
20
-11.456692912799165
30
0
40
0.078740157480314668
210
0
220
0
230
1
100
AcDbArc
50
180
51
270
0
LINE
5
146
100
AcDbEntity
8
PERIMETER
100
AcDbLine
10
-8.4645669285471978
20
-11.535433070279479
30
0
11
-0.80708661475989207
21
-11.535433070279479
31
0
0
ARC
5
147
100
AcDbEntity
8
PERIMETER
100
AcDbCircle
10
-0.80708661475989241
20
-11.456692912799165
30
0
40
0.078740157480314668
210
-0
220
0
230
1
100
AcDbArc
50
-89.999999999999744
51
0
0
LINE
5
148
100
AcDbEntity
8
PERIMETER
100
AcDbLine
10
-0.72834645727957781
20
-11.456692912799165
30
0
11
-0.72834645727957703
21
-10.531496062405463
31
0
0
ARC
5
149
100
AcDbEntity
8
PERIMETER
100
AcDbCircle
10
-0.64960629979926221
20
-10.531496062405463
30
0
40
0.078740157480314668
210
0
220
-0
230
1
100
AcDbArc
50
90
51
180
0
ENDSEC
0
SECTION
2
OBJECTS
0
DICTIONARY
5
C
100
AcDbDictionary
3
ACAD_GROUP
350
D
3
ACAD_MLINESTYLE
350
17
0
DICTIONARY
5
D
100
AcDbDictionary
0
DICTIONARY
5
1A
330
C
100
AcDbDictionary
0
DICTIONARY
5
17
100
AcDbDictionary
0
ENDSEC
0
EOF
