0
SECTION
2
HEADER
9
$INSUNITS
70
1
9
$ACADVER
1
AC1014
9
$HANDSEED
5
FFFF
0
ENDSEC
0
SECTION
2
TABLES
0
TABLE
2
VPORT
5
8
100
AcDbSymbolTable
0
ENDTAB
0
TABLE
2
LTYPE
5
5
100
AcDbSymbolTable
70
2
0
LTYPE
5
14
100
AcDbSymbolTableRecord
100
AcDbLinetypeTableRecord
2
BYBLOCK
70
0
0
LTYPE
5
15
100
AcDbSymbolTableRecord
100
AcDbLinetypeTableRecord
2
BYLAYER
70
0
0
ENDTAB
0
TABLE
2
LAYER
5
2
100
AcDbSymbolTable
70
3
0
LAYER
5
50
100
AcDbSymbolTableRecord
100
AcDbLayerTableRecord
2
0
70
0
6
CONTINUOUS
0
LAYER
5
51
100
AcDbSymbolTableRecord
100
AcDbLayerTableRecord
2
CUTOUTS
70
0
62
1
6
CONTINUOUS
0
LAYER
5
52
100
AcDbSymbolTableRecord
100
AcDbLayerTableRecord
2
PERIMETER
70
0
62
5
6
CONTINUOUS
0
ENDTAB
0
TABLE
2
STYLE
5
3
100
AcDbSymbolTable
70
1
0
STYLE
5
11
100
AcDbSymbolTableRecord
100
AcDbTextStyleTableRecord
2
STANDARD
70
0
0
ENDTAB
0
TABLE
2
VIEW
5
6
100
AcDbSymbolTable
0
ENDTAB
0
TABLE
2
UCS
5
7
100
AcDbSymbolTable
0
ENDTAB
0
TABLE
2
APPID
5
9
100
AcDbSymbolTable
70
1
0
APPID
5
12
100
AcDbSymbolTableRecord
100
AcDbRegAppTableRecord
2
ACAD
70
0
0
ENDTAB
0
TABLE
2
DIMSTYLE
5
A
100
AcDbSymbolTable
0
ENDTAB
0
TABLE
2
BLOCK_RECORD
5
1
100
AcDbSymbolTable
70
2
0
BLOCK_RECORD
5
1F
100
AcDbSymbolTableRecord
100
AcDbBlockTableRecord
2
*MODEL_SPACE
0
BLOCK_RECORD
5
1B
100
AcDbSymbolTableRecord
100
AcDbBlockTableRecord
2
*PAPER_SPACE
0
ENDTAB
0
ENDSEC
0
SECTION
2
BLOCKS
0
BLOCK
5
20
100
AcDbEntity
100
AcDbBlockBegin
2
*MODEL_SPACE
0
ENDBLK
5
21
100
AcDbEntity
100
AcDbBlockEnd
0
BLOCK
5
1C
100
AcDbEntity
100
AcDbBlockBegin
2
*PAPER_SPACE
0
ENDBLK
5
1D
100
AcDbEntity
100
AcDbBlockEnd
0
ENDSEC
0
SECTION
2
ENTITIES
0
CIRCLE
5
100
100
AcDbEntity
8
CUTOUTS
100
AcDbCircle
10
8.1102362204724372
20
-11.013779527559052
30
0
40
0.12992125984251901
210
0
220
0
230
1
0
CIRCLE
5
101
100
AcDbEntity
8
CUTOUTS
100
AcDbCircle
10
-1.2992125984251968
20
-11.013779527559054
30
0
40
0.1299212598425197
210
0
220
0
230
1
0
CIRCLE
5
102
100
AcDbEntity
8
CUTOUTS
100
AcDbCircle
10
-11.22047244094488
20
-7.9035433070866077
30
0
40
0.12992125984251901
210
0
220
0
230
1
0
CIRCLE
5
103
100
AcDbEntity
8
CUTOUTS
100
AcDbCircle
10
11.220472440944881
20
8.3562992125984259
30
0
40
0.12992125984251901
210
0
220
0
230
1
0
CIRCLE
5
104
100
AcDbEntity
8
CUTOUTS
100
AcDbCircle
10
-11.220472440944881
20
8.3562992125984259
30
0
40
0.12992125984251901
210
0
220
0
230
1
0
CIRCLE
5
105
100
AcDbEntity
8
CUTOUTS
100
AcDbCircle
10
2.5984251968503935
20
10.954724409448819
30
0
40
0.1299212598425197
210
0
220
0
230
1
0
CIRCLE
5
106
100
AcDbEntity
8
CUTOUTS
100
AcDbCircle
10
-8.6220472440944853
20
10.954724409448819
30
0
40
0.12992125984251901
210
0
220
0
230
1
0
CIRCLE
5
107
100
AcDbEntity
8
CUTOUTS
100
AcDbCircle
10
-2.9133858267716533
20
10.954724409448819
30
0
40
0.1299212598425197
210
0
220
0
230
1
0
CIRCLE
5
108
100
AcDbEntity
8
CUTOUTS
100
AcDbCircle
10
8.6220472440944871
20
10.954724409448819
30
0
40
0.12992125984251901
210
0
220
0
230
1
0
CIRCLE
5
109
100
AcDbEntity
8
CUTOUTS
100
AcDbCircle
10
-11.22047244094488
20
-0.029527559055117079
30
0
40
0.12992125984251901
210
0
220
0
230
1
0
CIRCLE
5
10A
100
AcDbEntity
8
CUTOUTS
100
AcDbCircle
10
11.22047244094488
20
-0.029527559055114401
30
0
40
0.12992125984251901
210
0
220
0
230
1
0
CIRCLE
5
10B
100
AcDbEntity
8
CUTOUTS
100
AcDbCircle
10
-8.1102362204724372
20
-11.013779527559052
30
0
40
0.12992125984251901
210
0
220
0
230
1
0
CIRCLE
5
10C
100
AcDbEntity
8
CUTOUTS
100
AcDbCircle
10
1.2992125984251968
20
-11.01377952755905
30
0
40
0.1299212598425197
210
0
220
0
230
1
0
CIRCLE
5
10D
100
AcDbEntity
8
CUTOUTS
100
AcDbCircle
10
11.22047244094488
20
-7.9035433070866059
30
0
40
0.12992125984251901
210
0
220
0
230
1
0
LINE
5
10E
100
AcDbEntity
8
PERIMETER
100
AcDbLine
10
-2.3228346456692903
20
8.4940944881889759
30
0
11
-2.3228346456692908
21
11.505905511811022
31
0
0
LINE
5
10F
100
AcDbEntity
8
PERIMETER
100
AcDbLine
10
-2.3228346456692908
20
11.505905511811022
30
0
11
-9.2125984251968482
21
11.505905511811022
31
0
0
LINE
5
110
100
AcDbEntity
8
PERIMETER
100
AcDbLine
10
-9.2125984251968482
20
11.505905511811022
30
0
11
-9.2125984251968482
21
10.364173228346457
31
0
0
LINE
5
111
100
AcDbEntity
8
PERIMETER
100
AcDbLine
10
-9.2125984251968482
20
10.364173228346457
30
0
11
-10.629921259842517
21
10.364173228346457
31
0
0
LINE
5
112
100
AcDbEntity
8
PERIMETER
100
AcDbLine
10
-10.629921259842517
20
10.364173228346457
30
0
11
-10.629921259842517
21
8.9468503937007871
31
0
0
LINE
5
113
100
AcDbEntity
8
PERIMETER
100
AcDbLine
10
-10.629921259842517
20
8.9468503937007871
30
0
11
-11.771653543307085
21
8.9468503937007871
31
0
0
LINE
5
114
100
AcDbEntity
8
PERIMETER
100
AcDbLine
10
-11.771653543307085
20
8.9468503937007871
30
0
11
-11.771653543307083
21
-10.423228346456687
31
0
0
LINE
5
115
100
AcDbEntity
8
PERIMETER
100
AcDbLine
10
-11.771653543307083
20
-10.423228346456687
30
0
11
-11.425196850393704
21
-10.423228346456689
31
0
0
LINE
5
116
100
AcDbEntity
8
PERIMETER
100
AcDbLine
10
-11.425196850393704
20
-10.423228346456689
30
0
11
-11.425196850393698
21
-8.8956692913385762
31
0
0
ARC
5
117
100
AcDbEntity
8
PERIMETER
100
AcDbCircle
10
-11.22047244094488
20
-8.895669291338578
30
0
40
0.2047244094488187
210
0
220
-0
230
1
100
AcDbArc
50
0
51
180
0
LINE
5
118
100
AcDbEntity
8
PERIMETER
100
AcDbLine
10
-11.015748031496061
20
-8.895669291338578
30
0
11
-11.015748031496063
21
-10.423228346456689
31
0
0
LINE
5
119
100
AcDbEntity
8
PERIMETER
100
AcDbLine
10
-11.015748031496063
20
-10.423228346456689
30
0
11
-10.748031496062991
21
-10.423228346456689
31
0
0
LINE
5
11A
100
AcDbEntity
8
PERIMETER
100
AcDbLine
10
-10.748031496062991
20
-10.423228346456689
30
0
11
-10.748031496062993
21
-8.6909448818897594
31
0
0
LINE
5
11B
100
AcDbEntity
8
PERIMETER
100
AcDbLine
10
-10.748031496062993
20
-8.6909448818897594
30
0
11
-9.1732283464566944
21
-8.6909448818897594
31
0
0
LINE
5
11C
100
AcDbEntity
8
PERIMETER
100
AcDbLine
10
-9.1732283464566944
20
-8.6909448818897594
30
0
11
-8.8976377952755907
21
-8.9665354330708613
31
0
0
LINE
5
11D
100
AcDbEntity
8
PERIMETER
100
AcDbLine
10
-8.8976377952755907
20
-8.9665354330708613
30
0
11
-8.8976377952755907
21
-10.541338582677161
31
0
0
LINE
5
11E
100
AcDbEntity
8
PERIMETER
100
AcDbLine
10
-8.8976377952755907
20
-10.541338582677161
30
0
11
-10.629921259842519
21
-10.541338582677161
31
0
0
LINE
5
11F
100
AcDbEntity
8
PERIMETER
100
AcDbLine
10
-10.629921259842519
20
-10.541338582677161
30
0
11
-10.629921259842519
21
-10.809055118110233
31
0
0
LINE
5
120
100
AcDbEntity
8
PERIMETER
100
AcDbLine
10
-10.629921259842519
20
-10.809055118110233
30
0
11
-9.1023622047244057
21
-10.809055118110232
31
0
0
ARC
5
121
100
AcDbEntity
8
PERIMETER
100
AcDbCircle
10
-9.1023622047244057
20
-11.01377952755905
30
0
40
0.2047244094488187
210
-0
220
0
230
1
100
AcDbArc
50
-90
51
90
0
LINE
5
122
100
AcDbEntity
8
PERIMETER
100
AcDbLine
10
-9.1023622047244057
20
-11.218503937007869
30
0
11
-10.629921259842519
21
-11.218503937007869
31
0
0
LINE
5
123
100
AcDbEntity
8
PERIMETER
100
AcDbLine
10
-10.629921259842519
20
-11.218503937007869
30
0
11
-10.62992125984252
21
-11.505905511811022
31
0
0
LINE
5
124
100
AcDbEntity
8
PERIMETER
100
AcDbLine
10
-10.62992125984252
20
-11.505905511811022
30
0
11
-0.98425196850393692
21
-11.505905511811022
31
0
0
LINE
5
125
100
AcDbEntity
8
PERIMETER
100
AcDbLine
10
-0.98425196850393692
20
-11.505905511811022
30
0
11
-0.7086614173228345
21
-11.23031496062992
31
0
0
LINE
5
126
100
AcDbEntity
8
PERIMETER
100
AcDbLine
10
-0.7086614173228345
20
-11.23031496062992
30
0
11
-0.70866141732283461
21
-10.482283464566926
31
0
0
LINE
5
127
100
AcDbEntity
8
PERIMETER
100
AcDbLine
10
-0.70866141732283461
20
-10.482283464566926
30
0
11
0.70866141732283461
21
-10.482283464566926
31
0
0
LINE
5
128
100
AcDbEntity
8
PERIMETER
100
AcDbLine
10
0.70866141732283461
20
-10.482283464566926
30
0
11
0.7086614173228345
21
-11.230314960629919
31
0
0
LINE
5
129
100
AcDbEntity
8
PERIMETER
100
AcDbLine
10
0.7086614173228345
20
-11.230314960629919
30
0
11
0.98425196850393837
21
-11.505905511811022
31
0
0
LINE
5
12A
100
AcDbEntity
8
PERIMETER
100
AcDbLine
10
0.98425196850393837
20
-11.505905511811022
30
0
11
10.629921259842515
21
-11.505905511811022
31
0
0
LINE
5
12B
100
AcDbEntity
8
PERIMETER
100
AcDbLine
10
10.629921259842515
20
-11.505905511811022
30
0
11
10.629921259842519
21
-11.218503937007874
31
0
0
LINE
5
12C
100
AcDbEntity
8
PERIMETER
100
AcDbLine
10
10.629921259842519
20
-11.218503937007874
30
0
11
9.1023622047244075
21
-11.218503937007874
31
0
0
ARC
5
12D
100
AcDbEntity
8
PERIMETER
100
AcDbCircle
10
9.1023622047244075
20
-11.013779527559054
30
0
40
0.2047244094488215
210
0
220
-0
230
1
100
AcDbArc
50
90
51
270
0
LINE
5
12E
100
AcDbEntity
8
PERIMETER
100
AcDbLine
10
9.1023622047244075
20
-10.809055118110232
30
0
11
10.629921259842519
21
-10.809055118110233
31
0
0
LINE
5
12F
100
AcDbEntity
8
PERIMETER
100
AcDbLine
10
10.629921259842519
20
-10.809055118110233
30
0
11
10.629921259842517
21
-10.54133858267716
31
0
0
LINE
5
130
100
AcDbEntity
8
PERIMETER
100
AcDbLine
10
10.629921259842517
20
-10.54133858267716
30
0
11
8.8976377952755907
21
-10.54133858267716
31
0
0
LINE
5
131
100
AcDbEntity
8
PERIMETER
100
AcDbLine
10
8.8976377952755907
20
-10.54133858267716
30
0
11
8.8976377952755907
21
-8.9665354330708613
31
0
0
LINE
5
132
100
AcDbEntity
8
PERIMETER
100
AcDbLine
10
8.8976377952755907
20
-8.9665354330708613
30
0
11
9.1732283464566926
21
-8.6909448818897612
31
0
0
LINE
5
133
100
AcDbEntity
8
PERIMETER
100
AcDbLine
10
9.1732283464566926
20
-8.6909448818897612
30
0
11
10.748031496062993
21
-8.6909448818897577
31
0
0
LINE
5
134
100
AcDbEntity
8
PERIMETER
100
AcDbLine
10
10.748031496062993
20
-8.6909448818897577
30
0
11
10.748031496062993
21
-10.423228346456689
31
0
0
LINE
5
135
100
AcDbEntity
8
PERIMETER
100
AcDbLine
10
10.748031496062993
20
-10.423228346456689
30
0
11
11.015748031496063
21
-10.423228346456686
31
0
0
LINE
5
136
100
AcDbEntity
8
PERIMETER
100
AcDbLine
10
11.015748031496063
20
-10.423228346456686
30
0
11
11.015748031496058
21
-8.8956692913385726
31
0
0
ARC
5
137
100
AcDbEntity
8
PERIMETER
100
AcDbCircle
10
11.220472440944878
20
-8.8956692913385726
30
0
40
0.2047244094488187
210
0
220
-0
230
1
100
AcDbArc
50
0
51
180
0
LINE
5
138
100
AcDbEntity
8
PERIMETER
100
AcDbLine
10
11.425196850393696
20
-8.8956692913385709
30
0
11
11.425196850393704
21
-10.423228346456686
31
0
0
LINE
5
139
100
AcDbEntity
8
PERIMETER
100
AcDbLine
10
11.425196850393704
20
-10.423228346456686
30
0
11
11.771653543307083
21
-10.423228346456694
31
0
0
LINE
5
13A
100
AcDbEntity
8
PERIMETER
100
AcDbLine
10
11.771653543307083
20
-10.423228346456694
30
0
11
11.771653543307085
21
8.9468503937007888
31
0
0
LINE
5
13B
100
AcDbEntity
8
PERIMETER
100
AcDbLine
10
11.771653543307085
20
8.9468503937007888
30
0
11
10.629921259842517
21
8.9468503937007853
31
0
0
LINE
5
13C
100
AcDbEntity
8
PERIMETER
100
AcDbLine
10
10.629921259842517
20
8.9468503937007853
30
0
11
10.629921259842517
21
10.364173228346456
31
0
0
LINE
5
13D
100
AcDbEntity
8
PERIMETER
100
AcDbLine
10
10.629921259842517
20
10.364173228346456
30
0
11
9.2125984251968482
21
10.364173228346457
31
0
0
LINE
5
13E
100
AcDbEntity
8
PERIMETER
100
AcDbLine
10
9.2125984251968482
20
10.364173228346457
30
0
11
9.2125984251968482
21
11.505905511811022
31
0
0
LINE
5
13F
100
AcDbEntity
8
PERIMETER
100
AcDbLine
10
9.2125984251968482
20
11.505905511811022
30
0
11
2.0078740157480235
21
11.505905511811022
31
0
0
LINE
5
140
100
AcDbEntity
8
PERIMETER
100
AcDbLine
10
2.0078740157480235
20
11.505905511811022
30
0
11
2.007874015748031
21
10.364173228346456
31
0
0
LINE
5
141
100
AcDbEntity
8
PERIMETER
100
AcDbLine
10
2.007874015748031
20
10.364173228346456
30
0
11
0.76771653543307372
21
10.364173228346456
31
0
0
LINE
5
142
100
AcDbEntity
8
PERIMETER
100
AcDbLine
10
0.76771653543307372
20
10.364173228346456
30
0
11
0.76771653543307372
21
8.4940944881889759
31
0
0
LINE
5
143
100
AcDbEntity
8
PERIMETER
100
AcDbLine
10
0.76771653543307372
20
8.4940944881889759
30
0
11
0.45275590551181105
21
8.1791338582677167
31
0
0
LINE
5
144
100
AcDbEntity
8
PERIMETER
100
AcDbLine
10
0.45275590551181105
20
8.1791338582677167
30
0
11
-2.0078740157480319
21
8.1791338582677167
31
0
0
LINE
5
145
100
AcDbEntity
8
PERIMETER
100
AcDbLine
10
-2.0078740157480319
20
8.1791338582677167
30
0
11
-2.3228346456692903
21
8.4940944881889759
31
0
0
ENDSEC
0
SECTION
2
OBJECTS
0
DICTIONARY
5
C
100
AcDbDictionary
3
ACAD_GROUP
350
D
3
ACAD_MLINESTYLE
350
17
0
DICTIONARY
5
D
100
AcDbDictionary
0
DICTIONARY
5
1A
330
C
100
AcDbDictionary
0
DICTIONARY
5
17
100
AcDbDictionary
0
ENDSEC
0
EOF
