0
SECTION
2
HEADER
9
$INSUNITS
70
1
9
$ACADVER
1
AC1014
9
$HANDSEED
5
FFFF
0
ENDSEC
0
SECTION
2
TABLES
0
TABLE
2
VPORT
5
8
100
AcDbSymbolTable
0
ENDTAB
0
TABLE
2
LTYPE
5
5
100
AcDbSymbolTable
70
2
0
LTYPE
5
14
100
AcDbSymbolTableRecord
100
AcDbLinetypeTableRecord
2
BYBLOCK
70
0
0
LTYPE
5
15
100
AcDbSymbolTableRecord
100
AcDbLinetypeTableRecord
2
BYLAYER
70
0
0
ENDTAB
0
TABLE
2
LAYER
5
2
100
AcDbSymbolTable
70
3
0
LAYER
5
50
100
AcDbSymbolTableRecord
100
AcDbLayerTableRecord
2
0
70
0
6
CONTINUOUS
0
LAYER
5
51
100
AcDbSymbolTableRecord
100
AcDbLayerTableRecord
2
CUTOUTS
70
0
62
1
6
CONTINUOUS
0
LAYER
5
52
100
AcDbSymbolTableRecord
100
AcDbLayerTableRecord
2
PERIMETER
70
0
62
5
6
CONTINUOUS
0
ENDTAB
0
TABLE
2
STYLE
5
3
100
AcDbSymbolTable
70
1
0
STYLE
5
11
100
AcDbSymbolTableRecord
100
AcDbTextStyleTableRecord
2
STANDARD
70
0
0
ENDTAB
0
TABLE
2
VIEW
5
6
100
AcDbSymbolTable
0
ENDTAB
0
TABLE
2
UCS
5
7
100
AcDbSymbolTable
0
ENDTAB
0
TABLE
2
APPID
5
9
100
AcDbSymbolTable
70
1
0
APPID
5
12
100
AcDbSymbolTableRecord
100
AcDbRegAppTableRecord
2
ACAD
70
0
0
ENDTAB
0
TABLE
2
DIMSTYLE
5
A
100
AcDbSymbolTable
0
ENDTAB
0
TABLE
2
BLOCK_RECORD
5
1
100
AcDbSymbolTable
70
2
0
BLOCK_RECORD
5
1F
100
AcDbSymbolTableRecord
100
AcDbBlockTableRecord
2
*MODEL_SPACE
0
BLOCK_RECORD
5
1B
100
AcDbSymbolTableRecord
100
AcDbBlockTableRecord
2
*PAPER_SPACE
0
ENDTAB
0
ENDSEC
0
SECTION
2
BLOCKS
0
BLOCK
5
20
100
AcDbEntity
100
AcDbBlockBegin
2
*MODEL_SPACE
0
ENDBLK
5
21
100
AcDbEntity
100
AcDbBlockEnd
0
BLOCK
5
1C
100
AcDbEntity
100
AcDbBlockBegin
2
*PAPER_SPACE
0
ENDBLK
5
1D
100
AcDbEntity
100
AcDbBlockEnd
0
ENDSEC
0
SECTION
2
ENTITIES
0
CIRCLE
5
100
100
AcDbEntity
8
CUTOUTS
100
AcDbCircle
10
11.326771653543288
20
-7.2578740157480244
30
0
40
0.063976377952756458
210
0
220
0
230
1
0
CIRCLE
5
101
100
AcDbEntity
8
CUTOUTS
100
AcDbCircle
10
11.326771653543286
20
-4.5413385826771586
30
0
40
0.063976377952756458
210
0
220
0
230
1
0
CIRCLE
5
102
100
AcDbEntity
8
CUTOUTS
100
AcDbCircle
10
10.984251968503916
20
-3.6496062992125915
30
0
40
0.063976377952756458
210
0
220
0
230
1
0
CIRCLE
5
103
100
AcDbEntity
8
CUTOUTS
100
AcDbCircle
10
10.641732283464547
20
-4.5413385826771586
30
0
40
0.063976377952756458
210
0
220
0
230
1
0
CIRCLE
5
104
100
AcDbEntity
8
CUTOUTS
100
AcDbCircle
10
10.641732283464549
20
-7.2578740157480262
30
0
40
0.063976377952756458
210
0
220
0
230
1
0
CIRCLE
5
105
100
AcDbEntity
8
CUTOUTS
100
AcDbCircle
10
10.984251968503914
20
-1.9685039370078676
30
0
40
0.063976377952756458
210
0
220
0
230
1
0
CIRCLE
5
106
100
AcDbEntity
8
CUTOUTS
100
AcDbCircle
10
9.4685039370078723
20
7.6771653543306941
30
0
40
0.12696850393700848
210
0
220
0
230
1
0
CIRCLE
5
107
100
AcDbEntity
8
CUTOUTS
100
AcDbCircle
10
-12.499999999999998
20
5.4921259842519667
30
0
40
0.12696850393700848
210
0
220
0
230
1
0
CIRCLE
5
108
100
AcDbEntity
8
CUTOUTS
100
AcDbCircle
10
-8.7598425196850371
20
-11.41732283464567
30
0
40
0.12696850393700848
210
0
220
0
230
1
0
CIRCLE
5
109
100
AcDbEntity
8
CUTOUTS
100
AcDbCircle
10
8.7598425196850407
20
-11.417322834645661
30
0
40
0.12696850393700848
210
0
220
0
230
1
0
CIRCLE
5
10A
100
AcDbEntity
8
CUTOUTS
100
AcDbCircle
10
12.499999999999995
20
-1.2479548786457204e-14
30
0
40
0.12696850393700848
210
0
220
0
230
1
0
CIRCLE
5
10B
100
AcDbEntity
8
CUTOUTS
100
AcDbCircle
10
12.499999999999998
20
7.6771653543306941
30
0
40
0.12696850393700848
210
0
220
0
230
1
0
CIRCLE
5
10C
100
AcDbEntity
8
CUTOUTS
100
AcDbCircle
10
1.6566539530915641e-15
20
11.417322834645663
30
0
40
0.12696850393700787
210
0
220
0
230
1
0
CIRCLE
5
10D
100
AcDbEntity
8
CUTOUTS
100
AcDbCircle
10
-8.7598425196850354
20
11.417322834645663
30
0
40
0.12696850393700848
210
0
220
0
230
1
0
CIRCLE
5
10E
100
AcDbEntity
8
CUTOUTS
100
AcDbCircle
10
8.7598425196850389
20
11.417322834645653
30
0
40
0.12696850393700848
210
0
220
0
230
1
0
CIRCLE
5
10F
100
AcDbEntity
8
CUTOUTS
100
AcDbCircle
10
9.4685039370078687
20
-9.646301639975574e-15
30
0
40
0.12696850393700848
210
0
220
0
230
1
0
CIRCLE
5
110
100
AcDbEntity
8
CUTOUTS
100
AcDbCircle
10
12.499999999999998
20
-7.6771653543307021
30
0
40
0.12696850393700848
210
0
220
0
230
1
0
CIRCLE
5
111
100
AcDbEntity
8
CUTOUTS
100
AcDbCircle
10
2.3355477583108641e-15
20
-11.41732283464567
30
0
40
0.12696850393700787
210
0
220
0
230
1
0
CIRCLE
5
112
100
AcDbEntity
8
CUTOUTS
100
AcDbCircle
10
-12.499999999999998
20
-4.2146006299605871e-15
30
0
40
0.12696850393700848
210
0
220
0
230
1
0
CIRCLE
5
113
100
AcDbEntity
8
CUTOUTS
100
AcDbCircle
10
-12.499999999999998
20
-5.4921259842519747
30
0
40
0.12696850393700848
210
0
220
0
230
1
0
CIRCLE
5
114
100
AcDbEntity
8
CUTOUTS
100
AcDbCircle
10
9.4685039370078723
20
-7.6771653543307021
30
0
40
0.12696850393700848
210
0
220
0
230
1
0
LINE
5
115
100
AcDbEntity
8
CUTOUTS
100
AcDbLine
10
11.374999999999968
20
-2.1230314960629899
30
0
11
11.374999999999968
21
-3.4950787401574779
31
0
0
LINE
5
116
100
AcDbEntity
8
CUTOUTS
100
AcDbLine
10
11.374999999999968
20
-3.4950787401574779
30
0
11
10.593503937007842
21
-3.4950787401574779
31
0
0
LINE
5
117
100
AcDbEntity
8
CUTOUTS
100
AcDbLine
10
10.593503937007842
20
-3.4950787401574779
30
0
11
10.593503937007842
21
-2.1230314960629899
31
0
0
LINE
5
118
100
AcDbEntity
8
CUTOUTS
100
AcDbLine
10
10.593503937007842
20
-2.1230314960629899
30
0
11
11.374999999999968
21
-2.1230314960629899
31
0
0
LINE
5
119
100
AcDbEntity
8
CUTOUTS
100
AcDbLine
10
11.522637795275527
20
-6.7824803149606279
30
0
11
10.445866141732221
21
-6.7824803149606279
31
0
0
LINE
5
11A
100
AcDbEntity
8
CUTOUTS
100
AcDbLine
10
10.445866141732221
20
-6.7824803149606279
30
0
11
10.445866141732221
21
-4.9379921259842492
31
0
0
LINE
5
11B
100
AcDbEntity
8
CUTOUTS
100
AcDbLine
10
10.445866141732221
20
-4.9379921259842492
30
0
11
11.522637795275527
21
-4.9379921259842492
31
0
0
LINE
5
11C
100
AcDbEntity
8
CUTOUTS
100
AcDbLine
10
11.522637795275527
20
-4.9379921259842492
30
0
11
11.522637795275527
21
-6.7824803149606279
31
0
0
LINE
5
11D
100
AcDbEntity
8
PERIMETER
100
AcDbLine
10
-11.902674742859611
20
8.4478346456692819
30
0
11
-11.991141732283475
21
8.4478346456692854
31
0
0
LINE
5
11E
100
AcDbEntity
8
PERIMETER
100
AcDbLine
10
-11.991141732283475
20
8.4478346456692854
30
0
11
-11.991141732283472
21
6.0856299212598346
31
0
0
LINE
5
11F
100
AcDbEntity
8
PERIMETER
100
AcDbLine
10
-11.991141732283472
20
6.0856299212598346
30
0
11
-13.093503937007881
21
6.0856299212598337
31
0
0
LINE
5
120
100
AcDbEntity
8
PERIMETER
100
AcDbLine
10
-13.093503937007881
20
6.0856299212598337
30
0
11
-13.093503937007881
21
-6.0856299212598506
31
0
0
LINE
5
121
100
AcDbEntity
8
PERIMETER
100
AcDbLine
10
-13.093503937007881
20
-6.0856299212598506
30
0
11
-11.991141732283472
21
-6.0856299212598515
31
0
0
LINE
5
122
100
AcDbEntity
8
PERIMETER
100
AcDbLine
10
-11.991141732283472
20
-6.0856299212598515
30
0
11
-11.991141732283475
21
-8.4478346456693014
31
0
0
LINE
5
123
100
AcDbEntity
8
PERIMETER
100
AcDbLine
10
-11.991141732283475
20
-8.4478346456693014
30
0
11
-11.90267474285961
21
-8.4478346456692996
31
0
0
LINE
5
124
100
AcDbEntity
8
PERIMETER
100
AcDbLine
10
-11.90267474285961
20
-8.4478346456692996
30
0
11
-9.5305118110236275
21
-10.819997577505276
31
0
0
LINE
5
125
100
AcDbEntity
8
PERIMETER
100
AcDbLine
10
-9.5305118110236275
20
-10.819997577505276
30
0
11
-9.5305118110236293
21
-12.01082677165355
31
0
0
LINE
5
126
100
AcDbEntity
8
PERIMETER
100
AcDbLine
10
-9.5305118110236293
20
-12.01082677165355
30
0
11
9.5305118110236098
21
-12.010826771653543
31
0
0
LINE
5
127
100
AcDbEntity
8
PERIMETER
100
AcDbLine
10
9.5305118110236098
20
-12.010826771653543
30
0
11
9.5305118110236151
21
-10.819997577505269
31
0
0
LINE
5
128
100
AcDbEntity
8
PERIMETER
100
AcDbLine
10
9.5305118110236151
20
-10.819997577505269
30
0
11
11.902674742859595
21
-8.4478346456692925
31
0
0
LINE
5
129
100
AcDbEntity
8
PERIMETER
100
AcDbLine
10
11.902674742859595
20
-8.4478346456692925
30
0
11
13.093503937007867
21
-8.4478346456692872
31
0
0
LINE
5
12A
100
AcDbEntity
8
PERIMETER
100
AcDbLine
10
13.093503937007867
20
-8.4478346456692872
30
0
11
13.093503937007865
21
8.4478346456692712
31
0
0
LINE
5
12B
100
AcDbEntity
8
PERIMETER
100
AcDbLine
10
13.093503937007865
20
8.4478346456692712
30
0
11
11.902674742859595
21
8.4478346456692748
31
0
0
LINE
5
12C
100
AcDbEntity
8
PERIMETER
100
AcDbLine
10
11.902674742859595
20
8.4478346456692748
30
0
11
9.5305118110236169
21
10.819997577505253
31
0
0
LINE
5
12D
100
AcDbEntity
8
PERIMETER
100
AcDbLine
10
9.5305118110236169
20
10.819997577505253
30
0
11
9.5305118110236133
21
12.010826771653525
31
0
0
LINE
5
12E
100
AcDbEntity
8
PERIMETER
100
AcDbLine
10
9.5305118110236133
20
12.010826771653525
30
0
11
-9.5305118110236275
21
12.010826771653532
31
0
0
LINE
5
12F
100
AcDbEntity
8
PERIMETER
100
AcDbLine
10
-9.5305118110236275
20
12.010826771653532
30
0
11
-9.5305118110236275
21
10.81999757750526
31
0
0
LINE
5
130
100
AcDbEntity
8
PERIMETER
100
AcDbLine
10
-9.5305118110236275
20
10.81999757750526
30
0
11
-11.902674742859611
21
8.4478346456692819
31
0
0
ENDSEC
0
SECTION
2
OBJECTS
0
DICTIONARY
5
C
100
AcDbDictionary
3
ACAD_GROUP
350
D
3
ACAD_MLINESTYLE
350
17
0
DICTIONARY
5
D
100
AcDbDictionary
0
DICTIONARY
5
1A
330
C
100
AcDbDictionary
0
DICTIONARY
5
17
100
AcDbDictionary
0
ENDSEC
0
EOF
