0
SECTION
2
HEADER
9
$INSUNITS
70
1
9
$ACADVER
1
AC1014
9
$HANDSEED
5
FFFF
0
ENDSEC
0
SECTION
2
TABLES
0
TABLE
2
VPORT
5
8
100
AcDbSymbolTable
0
ENDTAB
0
TABLE
2
LTYPE
5
5
100
AcDbSymbolTable
70
2
0
LTYPE
5
14
100
AcDbSymbolTableRecord
100
AcDbLinetypeTableRecord
2
BYBLOCK
70
0
0
LTYPE
5
15
100
AcDbSymbolTableRecord
100
AcDbLinetypeTableRecord
2
BYLAYER
70
0
0
ENDTAB
0
TABLE
2
LAYER
5
2
100
AcDbSymbolTable
70
3
0
LAYER
5
50
100
AcDbSymbolTableRecord
100
AcDbLayerTableRecord
2
0
70
0
6
CONTINUOUS
0
LAYER
5
51
100
AcDbSymbolTableRecord
100
AcDbLayerTableRecord
2
CUTOUTS
70
0
62
1
6
CONTINUOUS
0
LAYER
5
52
100
AcDbSymbolTableRecord
100
AcDbLayerTableRecord
2
PERIMETER
70
0
62
5
6
CONTINUOUS
0
ENDTAB
0
TABLE
2
STYLE
5
3
100
AcDbSymbolTable
70
1
0
STYLE
5
11
100
AcDbSymbolTableRecord
100
AcDbTextStyleTableRecord
2
STANDARD
70
0
0
ENDTAB
0
TABLE
2
VIEW
5
6
100
AcDbSymbolTable
0
ENDTAB
0
TABLE
2
UCS
5
7
100
AcDbSymbolTable
0
ENDTAB
0
TABLE
2
APPID
5
9
100
AcDbSymbolTable
70
1
0
APPID
5
12
100
AcDbSymbolTableRecord
100
AcDbRegAppTableRecord
2
ACAD
70
0
0
ENDTAB
0
TABLE
2
DIMSTYLE
5
A
100
AcDbSymbolTable
0
ENDTAB
0
TABLE
2
BLOCK_RECORD
5
1
100
AcDbSymbolTable
70
2
0
BLOCK_RECORD
5
1F
100
AcDbSymbolTableRecord
100
AcDbBlockTableRecord
2
*MODEL_SPACE
0
BLOCK_RECORD
5
1B
100
AcDbSymbolTableRecord
100
AcDbBlockTableRecord
2
*PAPER_SPACE
0
ENDTAB
0
ENDSEC
0
SECTION
2
BLOCKS
0
BLOCK
5
20
100
AcDbEntity
100
AcDbBlockBegin
2
*MODEL_SPACE
0
ENDBLK
5
21
100
AcDbEntity
100
AcDbBlockEnd
0
BLOCK
5
1C
100
AcDbEntity
100
AcDbBlockBegin
2
*PAPER_SPACE
0
ENDBLK
5
1D
100
AcDbEntity
100
AcDbBlockEnd
0
ENDSEC
0
SECTION
2
ENTITIES
0
CIRCLE
5
100
100
AcDbEntity
8
CUTOUTS
100
AcDbCircle
10
-5.69881889763779
20
-1.2106299212598408
30
0
40
0.13779527559055102
210
0
220
0
230
1
0
CIRCLE
5
101
100
AcDbEntity
8
CUTOUTS
100
AcDbCircle
10
-5.69881889763779
20
2.7263779527559069
30
0
40
0.13779527559055102
210
0
220
0
230
1
0
CIRCLE
5
102
100
AcDbEntity
8
CUTOUTS
100
AcDbCircle
10
-1.2893700787401525
20
0.27559055118110837
30
0
40
0.094488188976378035
210
0
220
0
230
1
0
CIRCLE
5
103
100
AcDbEntity
8
CUTOUTS
100
AcDbCircle
10
-3.2381889763779474
20
3.7696850393700849
30
0
40
0.094488188976378035
210
0
220
0
230
1
0
CIRCLE
5
104
100
AcDbEntity
8
CUTOUTS
100
AcDbCircle
10
-1.2696850393700736
20
3.7696850393700849
30
0
40
0.094488188976378035
210
0
220
0
230
1
0
CIRCLE
5
105
100
AcDbEntity
8
CUTOUTS
100
AcDbCircle
10
-3.1791338582677118
20
0.27559055118111114
30
0
40
0.094488188976378035
210
0
220
0
230
1
0
CIRCLE
5
106
100
AcDbEntity
8
CUTOUTS
100
AcDbCircle
10
5.5216535433070755
20
0.54133858267717228
30
0
40
0.13779527559055102
210
0
220
0
230
1
0
CIRCLE
5
107
100
AcDbEntity
8
CUTOUTS
100
AcDbCircle
10
4.3405511811023505
20
-5.1476377952755925
30
0
40
0.13779527559055102
210
0
220
0
230
1
0
CIRCLE
5
108
100
AcDbEntity
8
CUTOUTS
100
AcDbCircle
10
-4.6751968503937107
20
-5.1476377952755898
30
0
40
0.13779527559055102
210
0
220
0
230
1
0
CIRCLE
5
109
100
AcDbEntity
8
CUTOUTS
100
AcDbCircle
10
-0.16732283464567935
20
-5.1476377952755898
30
0
40
0.13779527559055119
210
0
220
0
230
1
0
CIRCLE
5
10A
100
AcDbEntity
8
CUTOUTS
100
AcDbCircle
10
5.5216535433070817
20
-3.9665354330708529
30
0
40
0.13779527559055102
210
0
220
0
230
1
0
CIRCLE
5
10B
100
AcDbEntity
8
CUTOUTS
100
AcDbCircle
10
5.5216535433070719
20
5.0492125984252088
30
0
40
0.13779527559055102
210
0
220
0
230
1
0
ARC
5
10C
100
AcDbEntity
8
PERIMETER
100
AcDbCircle
10
-5.3641732283464512
20
-0.16732283464566816
30
0
40
0.078740157480314668
210
-0
220
0
230
1
100
AcDbArc
50
-90
51
0
0
LINE
5
10D
100
AcDbEntity
8
PERIMETER
100
AcDbLine
10
-5.364173228346452
20
-0.24606299212598284
30
0
11
-6.0334645669291289
21
-0.24606299212598284
31
0
0
ARC
5
10E
100
AcDbEntity
8
PERIMETER
100
AcDbCircle
10
-6.033464566929128
20
-0.28543307086613945
30
0
40
0.03937007874015664
210
0
220
-0
230
1
100
AcDbArc
50
90
51
180
0
LINE
5
10F
100
AcDbEntity
8
PERIMETER
100
AcDbLine
10
-6.0728346456692845
20
-0.28543307086613945
30
0
11
-6.0728346456692863
21
-2.1358267716535422
31
0
0
ARC
5
110
100
AcDbEntity
8
PERIMETER
100
AcDbCircle
10
-6.0334645669291289
20
-2.1358267716535422
30
0
40
0.039370078740157334
210
0
220
0
230
1
100
AcDbArc
50
180
51
270
0
LINE
5
111
100
AcDbEntity
8
PERIMETER
100
AcDbLine
10
-6.0334645669291289
20
-2.1751968503937
30
0
11
-5.364173228346452
21
-2.1751968503936987
31
0
0
ARC
5
112
100
AcDbEntity
8
PERIMETER
100
AcDbCircle
10
-5.3641732283464512
20
-2.2539370078740135
30
0
40
0.078740157480314668
210
0
220
-0
230
1
100
AcDbArc
50
0
51
90.000000000000654
0
LINE
5
113
100
AcDbEntity
8
PERIMETER
100
AcDbLine
10
-5.2854330708661363
20
-2.2539370078740135
30
0
11
-5.2854330708661363
21
-4.1043307086614158
31
0
0
ARC
5
114
100
AcDbEntity
8
PERIMETER
100
AcDbCircle
10
-5.3641732283464512
20
-4.1043307086614158
30
0
40
0.078740157480314668
210
0
220
0
230
1
100
AcDbArc
50
-90.000000000000654
51
0
0
LINE
5
115
100
AcDbEntity
8
PERIMETER
100
AcDbLine
10
-5.364173228346452
20
-4.1830708661417306
30
0
11
-6.0137795275590502
21
-4.1830708661417315
31
0
0
ARC
5
116
100
AcDbEntity
8
PERIMETER
100
AcDbCircle
10
-6.0137795275590502
20
-4.2421259842519676
30
0
40
0.059055118110235658
210
0
220
-0
230
1
100
AcDbArc
50
90
51
180
0
LINE
5
117
100
AcDbEntity
8
PERIMETER
100
AcDbLine
10
-6.0728346456692854
20
-4.2421259842519676
30
0
11
-6.0728346456692854
21
-5.6988188976377936
31
0
0
LINE
5
118
100
AcDbEntity
8
PERIMETER
100
AcDbLine
10
-6.0728346456692854
20
-5.6988188976377936
30
0
11
4.8129921259842519
21
-5.6988188976378025
31
0
0
ARC
5
119
100
AcDbEntity
8
PERIMETER
100
AcDbCircle
10
4.8129921259842536
20
-5.6200787401574894
30
0
40
0.07874015748031328
210
0
220
0
230
1
100
AcDbArc
50
-90.000000000001322
51
0
0
LINE
5
11A
100
AcDbEntity
8
PERIMETER
100
AcDbLine
10
4.8917322834645667
20
-5.6200787401574877
30
0
11
4.8917322834645685
21
-4.596456692913387
31
0
0
ARC
5
11B
100
AcDbEntity
8
PERIMETER
100
AcDbCircle
10
4.9704724409448833
20
-4.596456692913387
30
0
40
0.078740157480314668
210
0
220
-0
230
1
100
AcDbArc
50
90
51
180
0
LINE
5
11C
100
AcDbEntity
8
PERIMETER
100
AcDbLine
10
4.9704724409448833
20
-4.5177165354330722
30
0
11
5.9940944881889724
21
-4.5177165354330713
31
0
0
ARC
5
11D
100
AcDbEntity
8
PERIMETER
100
AcDbCircle
10
5.9940944881889724
20
-4.4389763779527547
30
0
40
0.07874015748031607
210
-0
220
0
230
1
100
AcDbArc
50
-90
51
0
0
LINE
5
11E
100
AcDbEntity
8
PERIMETER
100
AcDbLine
10
6.0728346456692872
20
-4.4389763779527547
30
0
11
6.0728346456692854
21
5.6988188976378025
31
0
0
LINE
5
11F
100
AcDbEntity
8
PERIMETER
100
AcDbLine
10
6.0728346456692854
20
5.6988188976378025
30
0
11
-5.2854330708661363
21
5.6988188976378025
31
0
0
LINE
5
120
100
AcDbEntity
8
PERIMETER
100
AcDbLine
10
-5.2854330708661363
20
5.6988188976378025
30
0
11
-5.2854330708661363
21
3.7696850393700796
31
0
0
ARC
5
121
100
AcDbEntity
8
PERIMETER
100
AcDbCircle
10
-5.3641732283464512
20
3.7696850393700796
30
0
40
0.078740157480314668
210
-0
220
0
230
1
100
AcDbArc
50
-90
51
0
0
LINE
5
122
100
AcDbEntity
8
PERIMETER
100
AcDbLine
10
-5.364173228346452
20
3.6909448818897648
30
0
11
-6.0334645669291289
21
3.6909448818897648
31
0
0
ARC
5
123
100
AcDbEntity
8
PERIMETER
100
AcDbCircle
10
-6.033464566929128
20
3.6515748031496083
30
0
40
0.03937007874015664
210
0
220
-0
230
1
100
AcDbArc
50
90
51
180
0
LINE
5
124
100
AcDbEntity
8
PERIMETER
100
AcDbLine
10
-6.0728346456692845
20
3.6515748031496083
30
0
11
-6.0728346456692863
21
1.8011811023622057
31
0
0
ARC
5
125
100
AcDbEntity
8
PERIMETER
100
AcDbCircle
10
-6.0334645669291289
20
1.8011811023622057
30
0
40
0.039370078740157334
210
0
220
0
230
1
100
AcDbArc
50
180
51
270
0
LINE
5
126
100
AcDbEntity
8
PERIMETER
100
AcDbLine
10
-6.0334645669291289
20
1.7618110236220483
30
0
11
-5.364173228346452
21
1.761811023622049
31
0
0
ARC
5
127
100
AcDbEntity
8
PERIMETER
100
AcDbCircle
10
-5.3641732283464512
20
1.6830708661417344
30
0
40
0.078740157480314668
210
0
220
-0
230
1
100
AcDbArc
50
0
51
90
0
LINE
5
128
100
AcDbEntity
8
PERIMETER
100
AcDbLine
10
-5.2854330708661363
20
1.6830708661417344
30
0
11
-5.2854330708661363
21
-0.16732283464566816
31
0
0
ENDSEC
0
SECTION
2
OBJECTS
0
DICTIONARY
5
C
100
AcDbDictionary
3
ACAD_GROUP
350
D
3
ACAD_MLINESTYLE
350
17
0
DICTIONARY
5
D
100
AcDbDictionary
0
DICTIONARY
5
1A
330
C
100
AcDbDictionary
0
DICTIONARY
5
17
100
AcDbDictionary
0
ENDSEC
0
EOF
