0
SECTION
2
HEADER
9
$INSUNITS
70
1
9
$ACADVER
1
AC1014
9
$HANDSEED
5
FFFF
0
ENDSEC
0
SECTION
2
TABLES
0
TABLE
2
VPORT
5
8
100
AcDbSymbolTable
0
ENDTAB
0
TABLE
2
LTYPE
5
5
100
AcDbSymbolTable
70
2
0
LTYPE
5
14
100
AcDbSymbolTableRecord
100
AcDbLinetypeTableRecord
2
BYBLOCK
70
0
0
LTYPE
5
15
100
AcDbSymbolTableRecord
100
AcDbLinetypeTableRecord
2
BYLAYER
70
0
0
ENDTAB
0
TABLE
2
LAYER
5
2
100
AcDbSymbolTable
70
3
0
LAYER
5
50
100
AcDbSymbolTableRecord
100
AcDbLayerTableRecord
2
0
70
0
6
CONTINUOUS
0
LAYER
5
51
100
AcDbSymbolTableRecord
100
AcDbLayerTableRecord
2
CUTOUTS
70
0
62
1
6
CONTINUOUS
0
LAYER
5
52
100
AcDbSymbolTableRecord
100
AcDbLayerTableRecord
2
PERIMETER
70
0
62
5
6
CONTINUOUS
0
ENDTAB
0
TABLE
2
STYLE
5
3
100
AcDbSymbolTable
70
1
0
STYLE
5
11
100
AcDbSymbolTableRecord
100
AcDbTextStyleTableRecord
2
STANDARD
70
0
0
ENDTAB
0
TABLE
2
VIEW
5
6
100
AcDbSymbolTable
0
ENDTAB
0
TABLE
2
UCS
5
7
100
AcDbSymbolTable
0
ENDTAB
0
TABLE
2
APPID
5
9
100
AcDbSymbolTable
70
1
0
APPID
5
12
100
AcDbSymbolTableRecord
100
AcDbRegAppTableRecord
2
ACAD
70
0
0
ENDTAB
0
TABLE
2
DIMSTYLE
5
A
100
AcDbSymbolTable
0
ENDTAB
0
TABLE
2
BLOCK_RECORD
5
1
100
AcDbSymbolTable
70
2
0
BLOCK_RECORD
5
1F
100
AcDbSymbolTableRecord
100
AcDbBlockTableRecord
2
*MODEL_SPACE
0
BLOCK_RECORD
5
1B
100
AcDbSymbolTableRecord
100
AcDbBlockTableRecord
2
*PAPER_SPACE
0
ENDTAB
0
ENDSEC
0
SECTION
2
BLOCKS
0
BLOCK
5
20
100
AcDbEntity
100
AcDbBlockBegin
2
*MODEL_SPACE
0
ENDBLK
5
21
100
AcDbEntity
100
AcDbBlockEnd
0
BLOCK
5
1C
100
AcDbEntity
100
AcDbBlockBegin
2
*PAPER_SPACE
0
ENDBLK
5
1D
100
AcDbEntity
100
AcDbBlockEnd
0
ENDSEC
0
SECTION
2
ENTITIES
0
CIRCLE
5
100
100
AcDbEntity
8
CUTOUTS
100
AcDbCircle
10
10.334648446245343
20
-6.3877952755917597
30
0
40
0.12992125984251901
210
0
220
0
230
1
0
CIRCLE
5
101
100
AcDbEntity
8
CUTOUTS
100
AcDbCircle
10
10.334648446245421
20
3.9271653543295004
30
0
40
0.12992125984251901
210
0
220
0
230
1
0
CIRCLE
5
102
100
AcDbEntity
8
CUTOUTS
100
AcDbCircle
10
10.334648446245421
20
2.4704724409436727
30
0
40
0.12992125984251901
210
0
220
0
230
1
0
CIRCLE
5
103
100
AcDbEntity
8
CUTOUTS
100
AcDbCircle
10
10.334648446245421
20
1.8799212598413104
30
0
40
0.12992125984251901
210
0
220
0
230
1
0
CIRCLE
5
104
100
AcDbEntity
8
CUTOUTS
100
AcDbCircle
10
10.334648446245421
20
0.42322834645548341
30
0
40
0.12992125984251901
210
0
220
0
230
1
0
CIRCLE
5
105
100
AcDbEntity
8
CUTOUTS
100
AcDbCircle
10
10.334648446245343
20
-6.9783464566941218
30
0
40
0.12992125984251901
210
0
220
0
230
1
0
CIRCLE
5
106
100
AcDbEntity
8
CUTOUTS
100
AcDbCircle
10
-10.334648446245358
20
-6.3877952755917597
30
0
40
0.12992125984251901
210
0
220
0
230
1
0
CIRCLE
5
107
100
AcDbEntity
8
CUTOUTS
100
AcDbCircle
10
-10.334648446245437
20
3.9271653543295004
30
0
40
0.12992125984251901
210
0
220
0
230
1
0
CIRCLE
5
108
100
AcDbEntity
8
CUTOUTS
100
AcDbCircle
10
-10.334648446245437
20
2.4704724409436727
30
0
40
0.12992125984251901
210
0
220
0
230
1
0
CIRCLE
5
109
100
AcDbEntity
8
CUTOUTS
100
AcDbCircle
10
-10.334648446245437
20
1.8799212598413104
30
0
40
0.12992125984251901
210
0
220
0
230
1
0
CIRCLE
5
10A
100
AcDbEntity
8
CUTOUTS
100
AcDbCircle
10
-10.334648446245437
20
0.42322834645548341
30
0
40
0.12992125984251901
210
0
220
0
230
1
0
CIRCLE
5
10B
100
AcDbEntity
8
CUTOUTS
100
AcDbCircle
10
-10.334648446245358
20
-6.9783464566941218
30
0
40
0.12992125984251901
210
0
220
0
230
1
0
LINE
5
10C
100
AcDbEntity
8
PERIMETER
100
AcDbLine
10
11.732283478860067
20
4.8523622047232147
30
0
11
10.638075070125423
21
4.8523622047232147
31
0
0
ARC
5
10D
100
AcDbEntity
8
PERIMETER
100
AcDbCircle
10
10.638075070125423
20
4.9311023622035277
30
0
40
0.078740157480314793
210
0
220
0
230
1
100
AcDbArc
50
225.00000000011653
51
270
0
LINE
5
10E
100
AcDbEntity
8
PERIMETER
100
AcDbLine
10
10.582397370819509
20
4.8754246628973874
30
0
11
8.2317238754876296
21
7.2260981582197106
31
0
0
ARC
5
10F
100
AcDbEntity
8
PERIMETER
100
AcDbCircle
10
8.2874015747935434
20
7.2817758575258518
30
0
40
0.078740157480314668
210
0
220
0
230
1
100
AcDbArc
50
180
51
225.00000000011698
0
LINE
5
110
100
AcDbEntity
8
PERIMETER
100
AcDbLine
10
8.2086614173132286
20
7.2817758575258518
30
0
11
8.2086614173132286
21
8.3759842519673011
31
0
0
ARC
5
111
100
AcDbEntity
8
PERIMETER
100
AcDbCircle
10
8.1299212598329138
20
8.3759842519673011
30
0
40
0.078740157480314668
210
0
220
-0
230
1
100
AcDbArc
50
0
51
90
0
LINE
5
112
100
AcDbEntity
8
PERIMETER
100
AcDbLine
10
8.1299212598329138
20
8.4547244094476159
30
0
11
-8.1299212598329333
21
8.4547244094476
31
0
0
ARC
5
113
100
AcDbEntity
8
PERIMETER
100
AcDbCircle
10
-8.1299212598329316
20
8.3759842519672851
30
0
40
0.078740157480314668
210
0
220
0
230
1
100
AcDbArc
50
90.000000000001307
51
180
0
LINE
5
114
100
AcDbEntity
8
PERIMETER
100
AcDbLine
10
-8.2086614173132464
20
8.3759842519672851
30
0
11
-8.2086614173132446
21
7.2817758575258447
31
0
0
ARC
5
115
100
AcDbEntity
8
PERIMETER
100
AcDbCircle
10
-8.2874015747935594
20
7.2817758575258447
30
0
40
0.078740157480315792
210
-0
220
0
230
1
100
AcDbArc
50
-45.000000000116081
51
0
0
LINE
5
116
100
AcDbEntity
8
PERIMETER
100
AcDbLine
10
-8.2317238754876438
20
7.2260981582197035
30
0
11
-10.582397370819525
21
4.8754246628973776
31
0
0
ARC
5
117
100
AcDbEntity
8
PERIMETER
100
AcDbCircle
10
-10.638075070125439
20
4.9311023622035162
30
0
40
0.078740157480314668
210
-0
220
0
230
1
100
AcDbArc
50
270
51
314.99999999988347
0
LINE
5
118
100
AcDbEntity
8
PERIMETER
100
AcDbLine
10
-10.638075070125439
20
4.8523622047232013
30
0
11
-11.732283478860079
21
4.8523622047232076
31
0
0
ARC
5
119
100
AcDbEntity
8
PERIMETER
100
AcDbCircle
10
-11.732283478860078
20
4.7736220472428883
30
0
40
0.078740157480318873
210
0
220
0
230
1
100
AcDbArc
50
90.000000000001307
51
179.99999408488267
0
LINE
5
11A
100
AcDbEntity
8
PERIMETER
100
AcDbLine
10
-11.811023636340396
20
4.7736220554104021
30
0
11
-11.811024941100337
21
-7.8051181020672704
31
0
0
ARC
5
11B
100
AcDbEntity
8
PERIMETER
100
AcDbCircle
10
-11.732284783620026
20
-7.8051181102347806
30
0
40
0.078740157480312309
210
0
220
0
230
1
100
AcDbArc
50
179.99999414682276
51
269.99999999999869
0
LINE
5
11C
100
AcDbEntity
8
PERIMETER
100
AcDbLine
10
-11.732284783620027
20
-7.883858267715091
30
0
11
-10.72834784517006
21
-7.883858267715155
31
0
0
ARC
5
11D
100
AcDbEntity
8
PERIMETER
100
AcDbCircle
10
-10.728347845170067
20
-7.9625984251954716
30
0
40
0.078740157480314668
210
0
220
-0
230
1
100
AcDbArc
50
0
51
89.999999999994827
0
LINE
5
11E
100
AcDbEntity
8
PERIMETER
100
AcDbLine
10
-10.649607687689752
20
-7.9625984251954716
30
0
11
-10.649607687689752
21
-8.3759842519673029
31
0
0
ARC
5
11F
100
AcDbEntity
8
PERIMETER
100
AcDbCircle
10
-10.570867530209437
20
-8.3759842519673029
30
0
40
0.078740157480314668
210
0
220
0
230
1
100
AcDbArc
50
180
51
270
0
LINE
5
120
100
AcDbEntity
8
PERIMETER
100
AcDbLine
10
-10.570867530209437
20
-8.4547244094476177
30
0
11
10.570867530209421
21
-8.4547244094476088
31
0
0
ARC
5
121
100
AcDbEntity
8
PERIMETER
100
AcDbCircle
10
10.570867530209421
20
-8.375984251967294
30
0
40
0.078740157480314668
210
-0
220
0
230
1
100
AcDbArc
50
-90
51
0
0
LINE
5
122
100
AcDbEntity
8
PERIMETER
100
AcDbLine
10
10.649607687689736
20
-8.375984251967294
30
0
11
10.649607687689736
21
-7.9625984251951589
31
0
0
ARC
5
123
100
AcDbEntity
8
PERIMETER
100
AcDbCircle
10
10.728347845170051
20
-7.9625984251951589
30
0
40
0.078740157480314668
210
0
220
-0
230
1
100
AcDbArc
50
89.999999999998721
51
180
0
LINE
5
124
100
AcDbEntity
8
PERIMETER
100
AcDbLine
10
10.728347845170052
20
-7.883858267714845
30
0
11
11.73228478362002
21
-7.8838582677148601
31
0
0
ARC
5
125
100
AcDbEntity
8
PERIMETER
100
AcDbCircle
10
11.732284783620024
20
-7.805118110234547
30
0
40
0.07874015748031328
210
0
220
0
230
1
100
AcDbArc
50
-90.000000000002586
51
5.9151173338843952e-06
0
LINE
5
126
100
AcDbEntity
8
PERIMETER
100
AcDbLine
10
11.811024941100337
20
-7.8051181020670386
30
0
11
11.811023636340382
21
4.7736220554104092
31
0
0
ARC
5
127
100
AcDbEntity
8
PERIMETER
100
AcDbCircle
10
11.732283478860069
20
4.7736220472428998
30
0
40
0.078740157480313697
210
0
220
-0
230
1
100
AcDbArc
50
5.9151173338843952e-06
51
90.000000000001307
0
ENDSEC
0
SECTION
2
OBJECTS
0
DICTIONARY
5
C
100
AcDbDictionary
3
ACAD_GROUP
350
D
3
ACAD_MLINESTYLE
350
17
0
DICTIONARY
5
D
100
AcDbDictionary
0
DICTIONARY
5
1A
330
C
100
AcDbDictionary
0
DICTIONARY
5
17
100
AcDbDictionary
0
ENDSEC
0
EOF
