0
SECTION
2
HEADER
9
$INSUNITS
70
1
9
$ACADVER
1
AC1014
9
$HANDSEED
5
FFFF
0
ENDSEC
0
SECTION
2
TABLES
0
TABLE
2
VPORT
5
8
100
AcDbSymbolTable
0
ENDTAB
0
TABLE
2
LTYPE
5
5
100
AcDbSymbolTable
70
2
0
LTYPE
5
14
100
AcDbSymbolTableRecord
100
AcDbLinetypeTableRecord
2
BYBLOCK
70
0
0
LTYPE
5
15
100
AcDbSymbolTableRecord
100
AcDbLinetypeTableRecord
2
BYLAYER
70
0
0
ENDTAB
0
TABLE
2
LAYER
5
2
100
AcDbSymbolTable
70
3
0
LAYER
5
50
100
AcDbSymbolTableRecord
100
AcDbLayerTableRecord
2
0
70
0
6
CONTINUOUS
0
LAYER
5
51
100
AcDbSymbolTableRecord
100
AcDbLayerTableRecord
2
CUTOUTS
70
0
62
1
6
CONTINUOUS
0
LAYER
5
52
100
AcDbSymbolTableRecord
100
AcDbLayerTableRecord
2
PERIMETER
70
0
62
5
6
CONTINUOUS
0
ENDTAB
0
TABLE
2
STYLE
5
3
100
AcDbSymbolTable
70
1
0
STYLE
5
11
100
AcDbSymbolTableRecord
100
AcDbTextStyleTableRecord
2
STANDARD
70
0
0
ENDTAB
0
TABLE
2
VIEW
5
6
100
AcDbSymbolTable
0
ENDTAB
0
TABLE
2
UCS
5
7
100
AcDbSymbolTable
0
ENDTAB
0
TABLE
2
APPID
5
9
100
AcDbSymbolTable
70
1
0
APPID
5
12
100
AcDbSymbolTableRecord
100
AcDbRegAppTableRecord
2
ACAD
70
0
0
ENDTAB
0
TABLE
2
DIMSTYLE
5
A
100
AcDbSymbolTable
0
ENDTAB
0
TABLE
2
BLOCK_RECORD
5
1
100
AcDbSymbolTable
70
2
0
BLOCK_RECORD
5
1F
100
AcDbSymbolTableRecord
100
AcDbBlockTableRecord
2
*MODEL_SPACE
0
BLOCK_RECORD
5
1B
100
AcDbSymbolTableRecord
100
AcDbBlockTableRecord
2
*PAPER_SPACE
0
ENDTAB
0
ENDSEC
0
SECTION
2
BLOCKS
0
BLOCK
5
20
100
AcDbEntity
100
AcDbBlockBegin
2
*MODEL_SPACE
0
ENDBLK
5
21
100
AcDbEntity
100
AcDbBlockEnd
0
BLOCK
5
1C
100
AcDbEntity
100
AcDbBlockBegin
2
*PAPER_SPACE
0
ENDBLK
5
1D
100
AcDbEntity
100
AcDbBlockEnd
0
ENDSEC
0
SECTION
2
ENTITIES
0
CIRCLE
5
100
100
AcDbEntity
8
CUTOUTS
100
AcDbCircle
10
1.6535433070866172
20
-5.0147637795275575
30
0
40
0.1299212598425197
210
0
220
0
230
1
0
CIRCLE
5
101
100
AcDbEntity
8
CUTOUTS
100
AcDbCircle
10
-7.3031496062992121
20
-5.0147637795275655
30
0
40
0.12992125984251901
210
0
220
0
230
1
0
CIRCLE
5
102
100
AcDbEntity
8
CUTOUTS
100
AcDbCircle
10
-1.6535433070866106
20
-5.0147637795275566
30
0
40
0.1299212598425197
210
0
220
0
230
1
0
CIRCLE
5
103
100
AcDbEntity
8
CUTOUTS
100
AcDbCircle
10
7.3031496062992121
20
-5.0147637795275637
30
0
40
0.12992125984251901
210
0
220
0
230
1
0
CIRCLE
5
104
100
AcDbEntity
8
CUTOUTS
100
AcDbCircle
10
12.5
20
1.2844488188976353
30
0
40
0.1299212598425204
210
0
220
0
230
1
0
CIRCLE
5
105
100
AcDbEntity
8
CUTOUTS
100
AcDbCircle
10
1.3987061727561026e-15
20
4.827755905511812
30
0
40
0.12992125984251968
210
0
220
0
230
1
0
CIRCLE
5
106
100
AcDbEntity
8
CUTOUTS
100
AcDbCircle
10
-12.499999999999998
20
1.284448818897636
30
0
40
0.12992125984251901
210
0
220
0
230
1
0
CIRCLE
5
107
100
AcDbEntity
8
CUTOUTS
100
AcDbCircle
10
-12.499999999999998
20
-2.6525590551181244
30
0
40
0.12992125984251901
210
0
220
0
230
1
0
CIRCLE
5
108
100
AcDbEntity
8
CUTOUTS
100
AcDbCircle
10
-8.956692913385826
20
4.8277559055118093
30
0
40
0.12992125984251901
210
0
220
0
230
1
0
CIRCLE
5
109
100
AcDbEntity
8
CUTOUTS
100
AcDbCircle
10
8.9566929133858277
20
4.827755905511812
30
0
40
0.12992125984251901
210
0
220
0
230
1
0
CIRCLE
5
10A
100
AcDbEntity
8
CUTOUTS
100
AcDbCircle
10
12.5
20
-2.6525590551181213
30
0
40
0.1299212598425204
210
0
220
0
230
1
0
LINE
5
10B
100
AcDbEntity
8
PERIMETER
100
AcDbLine
10
-11.878882157391731
20
-3.1923679377165559
30
0
11
-9.5317154649212643
21
-4.365951283951782
31
0
0
ARC
5
10C
100
AcDbEntity
8
PERIMETER
100
AcDbCircle
10
-9.5669291338582685
20
-4.4363786218257912
30
0
40
0.078740157480314668
210
0
220
-0
230
1
100
AcDbArc
50
0
51
63.43494882292201
0
LINE
5
10D
100
AcDbEntity
8
PERIMETER
100
AcDbLine
10
-9.4881889763779537
20
-4.4363786218257912
30
0
11
-9.4881889763779519
21
-4.4734251968504006
31
0
0
ARC
5
10E
100
AcDbEntity
8
PERIMETER
100
AcDbCircle
10
-9.4094488188976388
20
-4.4734251968504015
30
0
40
0.07874015748031328
210
0
220
0
230
1
100
AcDbArc
50
180
51
270
0
LINE
5
10F
100
AcDbEntity
8
PERIMETER
100
AcDbLine
10
-9.4094488188976388
20
-4.5521653543307146
30
0
11
-8.5833766516915855
21
-4.5521653543307155
31
0
0
ARC
5
110
100
AcDbEntity
8
PERIMETER
100
AcDbCircle
10
-8.5833766516915855
20
-4.6309055118110303
30
0
40
0.078740157480314793
210
0
220
-0
230
1
100
AcDbArc
50
45.000000000000917
51
90
0
LINE
5
111
100
AcDbEntity
8
PERIMETER
100
AcDbLine
10
-8.5276989523855597
20
-4.5752278125050028
30
0
11
-7.7076821364506696
21
-5.3952446284398921
31
0
0
ARC
5
112
100
AcDbEntity
8
PERIMETER
100
AcDbCircle
10
-7.6520044371446394
20
-5.3395669291338583
30
0
40
0.078740157480321218
210
0
220
0
230
1
100
AcDbArc
50
225.00000000000185
51
269.99999999999807
0
LINE
5
113
100
AcDbEntity
8
PERIMETER
100
AcDbLine
10
-7.6520044371446421
20
-5.4183070866141803
30
0
11
-6.9542947754537794
21
-5.4183070866141794
31
0
0
ARC
5
114
100
AcDbEntity
8
PERIMETER
100
AcDbCircle
10
-6.9542947754537821
20
-5.3395669291338583
30
0
40
0.078740157480320969
210
-0
220
0
230
1
100
AcDbArc
50
270.00000000000193
51
314.99999999999682
0
LINE
5
115
100
AcDbEntity
8
PERIMETER
100
AcDbLine
10
-6.8986170761477537
20
-5.3952446284398929
30
0
11
-6.0786002602128626
21
-4.5752278125050019
31
0
0
ARC
5
116
100
AcDbEntity
8
PERIMETER
100
AcDbCircle
10
-6.0229225609068351
20
-4.6309055118110303
30
0
40
0.078740157480314668
210
0
220
-0
230
1
100
AcDbArc
50
90
51
135
0
LINE
5
117
100
AcDbEntity
8
PERIMETER
100
AcDbLine
10
-6.0229225609068351
20
-4.5521653543307146
30
0
11
-2.9337703524789878
21
-4.5521653543307066
31
0
0
ARC
5
118
100
AcDbEntity
8
PERIMETER
100
AcDbCircle
10
-2.9337703524789873
20
-4.6309055118110214
30
0
40
0.078740157480315043
210
0
220
-0
230
1
100
AcDbArc
50
45
51
90.000000000000327
0
LINE
5
119
100
AcDbEntity
8
PERIMETER
100
AcDbLine
10
-2.8780926531729598
20
-4.5752278125049939
30
0
11
-2.0580758372380705
21
-5.3952446284398832
31
0
0
ARC
5
11A
100
AcDbEntity
8
PERIMETER
100
AcDbCircle
10
-2.0023981379320439
20
-5.3395669291338574
30
0
40
0.078740157480313322
210
0
220
0
230
1
100
AcDbArc
50
224.99999999999952
51
270.00000000000034
0
LINE
5
11B
100
AcDbEntity
8
PERIMETER
100
AcDbLine
10
-2.0023981379320435
20
-5.4183070866141705
30
0
11
-1.3046884762411777
21
-5.4183070866141714
31
0
0
ARC
5
11C
100
AcDbEntity
8
PERIMETER
100
AcDbCircle
10
-1.3046884762411777
20
-5.3395669291338566
30
0
40
0.078740157480314668
210
0
220
0
230
1
100
AcDbArc
50
270
51
315.00000000000057
0
LINE
5
11D
100
AcDbEntity
8
PERIMETER
100
AcDbLine
10
-1.2490107769351499
20
-5.3952446284398841
30
0
11
-0.42899396100026199
21
-4.5752278125049939
31
0
0
ARC
5
11E
100
AcDbEntity
8
PERIMETER
100
AcDbCircle
10
-0.3733162616942346
20
-4.6309055118110214
30
0
40
0.078740157480314668
210
0
220
-0
230
1
100
AcDbArc
50
90
51
134.99999999999986
0
LINE
5
11F
100
AcDbEntity
8
PERIMETER
100
AcDbLine
10
-0.3733162616942346
20
-4.5521653543307066
30
0
11
0.37331626169424043
21
-4.5521653543307066
31
0
0
ARC
5
120
100
AcDbEntity
8
PERIMETER
100
AcDbCircle
10
0.37331626169424043
20
-4.6309055118110214
30
0
40
0.078740157480315168
210
0
220
-0
230
1
100
AcDbArc
50
45.000000000000227
51
90
0
LINE
5
121
100
AcDbEntity
8
PERIMETER
100
AcDbLine
10
0.42899396100026749
20
-4.5752278125049939
30
0
11
1.2490107769351573
21
-5.3952446284398841
31
0
0
ARC
5
122
100
AcDbEntity
8
PERIMETER
100
AcDbCircle
10
1.3046884762411848
20
-5.3395669291338566
30
0
40
0.078740157480314932
210
0
220
0
230
1
100
AcDbArc
50
225
51
269.99999999999972
0
LINE
5
123
100
AcDbEntity
8
PERIMETER
100
AcDbLine
10
1.3046884762411846
20
-5.4183070866141714
30
0
11
2.0023981379320501
21
-5.4183070866141714
31
0
0
ARC
5
124
100
AcDbEntity
8
PERIMETER
100
AcDbCircle
10
2.0023981379320501
20
-5.3395669291338574
30
0
40
0.078740157480313974
210
0
220
0
230
1
100
AcDbArc
50
270
51
315
0
LINE
5
125
100
AcDbEntity
8
PERIMETER
100
AcDbLine
10
2.0580758372380767
20
-5.3952446284398841
30
0
11
2.8780926531729669
21
-4.5752278125049939
31
0
0
ARC
5
126
100
AcDbEntity
8
PERIMETER
100
AcDbCircle
10
2.933770352478994
20
-4.6309055118110223
30
0
40
0.078740157480314668
210
0
220
-0
230
1
100
AcDbArc
50
90
51
134.99999999999977
0
LINE
5
127
100
AcDbEntity
8
PERIMETER
100
AcDbLine
10
2.933770352478994
20
-4.5521653543307075
30
0
11
6.0229225609068395
21
-4.5521653543307137
31
0
0
ARC
5
128
100
AcDbEntity
8
PERIMETER
100
AcDbCircle
10
6.0229225609068395
20
-4.6309055118110285
30
0
40
0.078740157480314793
210
0
220
-0
230
1
100
AcDbArc
50
45
51
90
0
LINE
5
129
100
AcDbEntity
8
PERIMETER
100
AcDbLine
10
6.078600260212867
20
-4.575227812505001
30
0
11
6.8986170761477519
21
-5.3952446284398903
31
0
0
ARC
5
12A
100
AcDbEntity
8
PERIMETER
100
AcDbCircle
10
6.9542947754537821
20
-5.3395669291338574
30
0
40
0.078740157480321218
210
0
220
0
230
1
100
AcDbArc
50
225.00000000000136
51
269.99999999999807
0
LINE
5
12B
100
AcDbEntity
8
PERIMETER
100
AcDbLine
10
6.9542947754537794
20
-5.4183070866141785
30
0
11
7.6520044371446465
21
-5.4183070866141776
31
0
0
ARC
5
12C
100
AcDbEntity
8
PERIMETER
100
AcDbCircle
10
7.6520044371446465
20
-5.3395669291338628
30
0
40
0.078740157480314668
210
-0
220
0
230
1
100
AcDbArc
50
270
51
315
0
LINE
5
12D
100
AcDbEntity
8
PERIMETER
100
AcDbLine
10
7.707682136450674
20
-5.3952446284398903
30
0
11
8.5276989523855651
21
-4.575227812505001
31
0
0
ARC
5
12E
100
AcDbEntity
8
PERIMETER
100
AcDbCircle
10
8.5833766516915926
20
-4.6309055118110276
30
0
40
0.078740157480314668
210
0
220
-0
230
1
100
AcDbArc
50
90
51
135.00000000000045
0
LINE
5
12F
100
AcDbEntity
8
PERIMETER
100
AcDbLine
10
8.5833766516915926
20
-4.5521653543307128
30
0
11
9.4094488188976371
21
-4.5521653543307128
31
0
0
ARC
5
130
100
AcDbEntity
8
PERIMETER
100
AcDbCircle
10
9.4094488188976371
20
-4.4734251968503989
30
0
40
0.078740157480314668
210
-0
220
0
230
1
100
AcDbArc
50
-90
51
0
0
LINE
5
131
100
AcDbEntity
8
PERIMETER
100
AcDbLine
10
9.4881889763779519
20
-4.473425196850398
30
0
11
9.4881889763779519
21
-4.4363786218257903
31
0
0
ARC
5
132
100
AcDbEntity
8
PERIMETER
100
AcDbCircle
10
9.5669291338582667
20
-4.4363786218257903
30
0
40
0.078740157480315334
210
0
220
0
230
1
100
AcDbArc
50
116.56505117707741
51
180
0
LINE
5
133
100
AcDbEntity
8
PERIMETER
100
AcDbLine
10
9.5317154649212625
20
-4.3659512839517811
30
0
11
11.878882157391729
21
-3.1923679377165524
31
0
0
ARC
5
134
100
AcDbEntity
8
PERIMETER
100
AcDbCircle
10
11.914095826328735
20
-3.2627952755905612
30
0
40
0.078740157480314668
210
0
220
-0
230
1
100
AcDbArc
50
90
51
116.56505117707901
0
LINE
5
135
100
AcDbEntity
8
PERIMETER
100
AcDbLine
10
11.914095826328735
20
-3.1840551181102468
30
0
11
13.011811023622048
21
-3.1840551181102468
31
0
0
ARC
5
136
100
AcDbEntity
8
PERIMETER
100
AcDbCircle
10
13.011811023622045
20
-3.1053149606299275
30
0
40
0.078740157480318873
210
-0
220
0
230
1
100
AcDbArc
50
270.00000000000261
51
360
0
LINE
5
137
100
AcDbEntity
8
PERIMETER
100
AcDbLine
10
13.090551181102365
20
-3.1053149606299311
30
0
11
13.090551181102361
21
1.7372047244094493
31
0
0
ARC
5
138
100
AcDbEntity
8
PERIMETER
100
AcDbCircle
10
13.011811023622048
20
1.7372047244094493
30
0
40
0.07874015748031328
210
0
220
-0
230
1
100
AcDbArc
50
0
51
90.000000000002586
0
LINE
5
139
100
AcDbEntity
8
PERIMETER
100
AcDbLine
10
13.011811023622045
20
1.8159448818897626
30
0
11
11.917602629180573
21
1.8159448818897626
31
0
0
ARC
5
13A
100
AcDbEntity
8
PERIMETER
100
AcDbCircle
10
11.917602629180573
20
1.8946850393700772
30
0
40
0.078740157480314793
210
0
220
0
230
1
100
AcDbArc
50
224.99999999999989
51
270
0
LINE
5
13B
100
AcDbEntity
8
PERIMETER
100
AcDbLine
10
11.861924929874545
20
1.8390073400640499
30
0
11
9.511251434552241
21
4.1896808353863539
31
0
0
ARC
5
13C
100
AcDbEntity
8
PERIMETER
100
AcDbCircle
10
9.5669291338582667
20
4.2453585346923797
30
0
40
0.078740157480314668
210
0
220
0
230
1
100
AcDbArc
50
180
51
224.99999999999952
0
LINE
5
13D
100
AcDbEntity
8
PERIMETER
100
AcDbLine
10
9.4881889763779519
20
4.2453585346923814
30
0
11
9.4881889763779519
21
5.3395669291338637
31
0
0
ARC
5
13E
100
AcDbEntity
8
PERIMETER
100
AcDbCircle
10
9.4094488188976371
20
5.339566929133861
30
0
40
0.078740157480314668
210
0
220
-0
230
1
100
AcDbArc
50
0
51
90
0
LINE
5
13F
100
AcDbEntity
8
PERIMETER
100
AcDbLine
10
9.4094488188976371
20
5.4183070866141749
30
0
11
-9.4094488188976406
21
5.4183070866141643
31
0
0
ARC
5
140
100
AcDbEntity
8
PERIMETER
100
AcDbCircle
10
-9.4094488188976406
20
5.3395669291338512
30
0
40
0.07874015748031328
210
0
220
-0
230
1
100
AcDbArc
50
90
51
180
0
LINE
5
141
100
AcDbEntity
8
PERIMETER
100
AcDbLine
10
-9.4881889763779537
20
5.3395669291338494
30
0
11
-9.4881889763779519
21
4.2453585346923788
31
0
0
ARC
5
142
100
AcDbEntity
8
PERIMETER
100
AcDbCircle
10
-9.5669291338582667
20
4.2453585346923788
30
0
40
0.078740157480315792
210
-0
220
0
230
1
100
AcDbArc
50
-45.000000000000917
51
0
0
LINE
5
143
100
AcDbEntity
8
PERIMETER
100
AcDbLine
10
-9.5112514345522392
20
4.1896808353863495
30
0
11
-11.861924929874542
21
1.8390073400640499
31
0
0
ARC
5
144
100
AcDbEntity
8
PERIMETER
100
AcDbCircle
10
-11.917602629180569
20
1.8946850393700772
30
0
40
0.078740157480314668
210
-0
220
0
230
1
100
AcDbArc
50
270
51
315.00000000000011
0
LINE
5
145
100
AcDbEntity
8
PERIMETER
100
AcDbLine
10
-11.917602629180569
20
1.8159448818897626
30
0
11
-13.011811023622045
21
1.8159448818897626
31
0
0
ARC
5
146
100
AcDbEntity
8
PERIMETER
100
AcDbCircle
10
-13.011811023622045
20
1.7372047244094464
30
0
40
0.07874015748031607
210
0
220
-0
230
1
100
AcDbArc
50
90
51
180
0
LINE
5
147
100
AcDbEntity
8
PERIMETER
100
AcDbLine
10
-13.090551181102361
20
1.7372047244094477
30
0
11
-13.090551181102361
21
-3.1053149606299346
31
0
0
ARC
5
148
100
AcDbEntity
8
PERIMETER
100
AcDbCircle
10
-13.011811023622045
20
-3.1053149606299346
30
0
40
0.07874015748031607
210
0
220
0
230
1
100
AcDbArc
50
180
51
270
0
LINE
5
149
100
AcDbEntity
8
PERIMETER
100
AcDbLine
10
-13.011811023622045
20
-3.1840551181102508
30
0
11
-11.914095826328735
21
-3.1840551181102494
31
0
0
ARC
5
14A
100
AcDbEntity
8
PERIMETER
100
AcDbCircle
10
-11.914095826328735
20
-3.2627952755905647
30
0
40
0.07874015748031471
210
0
220
-0
230
1
100
AcDbArc
50
63.434948822922159
51
90
0
ENDSEC
0
SECTION
2
OBJECTS
0
DICTIONARY
5
C
100
AcDbDictionary
3
ACAD_GROUP
350
D
3
ACAD_MLINESTYLE
350
17
0
DICTIONARY
5
D
100
AcDbDictionary
0
DICTIONARY
5
1A
330
C
100
AcDbDictionary
0
DICTIONARY
5
17
100
AcDbDictionary
0
ENDSEC
0
EOF
