0
SECTION
2
HEADER
9
$INSUNITS
70
1
9
$ACADVER
1
AC1014
9
$HANDSEED
5
FFFF
0
ENDSEC
0
SECTION
2
TABLES
0
TABLE
2
VPORT
5
8
100
AcDbSymbolTable
0
ENDTAB
0
TABLE
2
LTYPE
5
5
100
AcDbSymbolTable
70
2
0
LTYPE
5
14
100
AcDbSymbolTableRecord
100
AcDbLinetypeTableRecord
2
BYBLOCK
70
0
0
LTYPE
5
15
100
AcDbSymbolTableRecord
100
AcDbLinetypeTableRecord
2
BYLAYER
70
0
0
ENDTAB
0
TABLE
2
LAYER
5
2
100
AcDbSymbolTable
70
3
0
LAYER
5
50
100
AcDbSymbolTableRecord
100
AcDbLayerTableRecord
2
0
70
0
6
CONTINUOUS
0
LAYER
5
51
100
AcDbSymbolTableRecord
100
AcDbLayerTableRecord
2
CUTOUTS
70
0
62
1
6
CONTINUOUS
0
LAYER
5
52
100
AcDbSymbolTableRecord
100
AcDbLayerTableRecord
2
PERIMETER
70
0
62
5
6
CONTINUOUS
0
ENDTAB
0
TABLE
2
STYLE
5
3
100
AcDbSymbolTable
70
1
0
STYLE
5
11
100
AcDbSymbolTableRecord
100
AcDbTextStyleTableRecord
2
STANDARD
70
0
0
ENDTAB
0
TABLE
2
VIEW
5
6
100
AcDbSymbolTable
0
ENDTAB
0
TABLE
2
UCS
5
7
100
AcDbSymbolTable
0
ENDTAB
0
TABLE
2
APPID
5
9
100
AcDbSymbolTable
70
1
0
APPID
5
12
100
AcDbSymbolTableRecord
100
AcDbRegAppTableRecord
2
ACAD
70
0
0
ENDTAB
0
TABLE
2
DIMSTYLE
5
A
100
AcDbSymbolTable
0
ENDTAB
0
TABLE
2
BLOCK_RECORD
5
1
100
AcDbSymbolTable
70
2
0
BLOCK_RECORD
5
1F
100
AcDbSymbolTableRecord
100
AcDbBlockTableRecord
2
*MODEL_SPACE
0
BLOCK_RECORD
5
1B
100
AcDbSymbolTableRecord
100
AcDbBlockTableRecord
2
*PAPER_SPACE
0
ENDTAB
0
ENDSEC
0
SECTION
2
BLOCKS
0
BLOCK
5
20
100
AcDbEntity
100
AcDbBlockBegin
2
*MODEL_SPACE
0
ENDBLK
5
21
100
AcDbEntity
100
AcDbBlockEnd
0
BLOCK
5
1C
100
AcDbEntity
100
AcDbBlockBegin
2
*PAPER_SPACE
0
ENDBLK
5
1D
100
AcDbEntity
100
AcDbBlockEnd
0
ENDSEC
0
SECTION
2
ENTITIES
0
CIRCLE
5
100
100
AcDbEntity
8
CUTOUTS
100
AcDbCircle
10
7.3818897637795287
20
11.510826771653539
30
0
40
0.12992125984251901
210
0
220
0
230
1
0
CIRCLE
5
101
100
AcDbEntity
8
CUTOUTS
100
AcDbCircle
10
-10.531496062992124
20
11.510826771653536
30
0
40
0.12992125984251901
210
0
220
0
230
1
0
CIRCLE
5
102
100
AcDbEntity
8
CUTOUTS
100
AcDbCircle
10
-11.043307086614178
20
0.093503937007812746
30
0
40
0.12992125984251901
210
0
220
0
230
1
0
CIRCLE
5
103
100
AcDbEntity
8
CUTOUTS
100
AcDbCircle
10
-10.531496062992122
20
-11.323818897637796
30
0
40
0.12992125984251901
210
0
220
0
230
1
0
CIRCLE
5
104
100
AcDbEntity
8
CUTOUTS
100
AcDbCircle
10
7.3818897637795313
20
-11.323818897637796
30
0
40
0.12992125984251901
210
0
220
0
230
1
0
CIRCLE
5
105
100
AcDbEntity
8
CUTOUTS
100
AcDbCircle
10
10.925196850393696
20
0.68405511811022945
30
0
40
0.12992125984251901
210
0
220
0
230
1
0
CIRCLE
5
106
100
AcDbEntity
8
CUTOUTS
100
AcDbCircle
10
10.9251968503937
20
9.1486220472440838
30
0
40
0.12992125984251901
210
0
220
0
230
1
0
CIRCLE
5
107
100
AcDbEntity
8
CUTOUTS
100
AcDbCircle
10
10.925196850393693
20
-7.7805118110236222
30
0
40
0.12992125984251901
210
0
220
0
230
1
0
CIRCLE
5
108
100
AcDbEntity
8
CUTOUTS
100
AcDbCircle
10
-1.5748031496063075
20
-11.323818897637796
30
0
40
0.1299212598425197
210
0
220
0
230
1
0
CIRCLE
5
109
100
AcDbEntity
8
CUTOUTS
100
AcDbCircle
10
-11.043307086614185
20
-9.7490157480315212
30
0
40
0.12992125984251901
210
0
220
0
230
1
0
CIRCLE
5
10A
100
AcDbEntity
8
CUTOUTS
100
AcDbCircle
10
-11.04330708661417
20
10.132874015748023
30
0
40
0.12992125984251901
210
0
220
0
230
1
0
CIRCLE
5
10B
100
AcDbEntity
8
CUTOUTS
100
AcDbCircle
10
-1.5748031496062977
20
11.510826771653541
30
0
40
0.1299212598425197
210
0
220
0
230
1
0
ARC
5
10C
100
AcDbEntity
8
PERIMETER
100
AcDbCircle
10
-11.437007874015745
20
10.608735473991144
30
0
40
0.078740157480317832
210
0
220
0
230
1
100
AcDbArc
50
116.56505117707972
51
180
0
LINE
5
10D
100
AcDbEntity
8
PERIMETER
100
AcDbLine
10
-11.106518614527561
20
10.862014276077753
30
0
11
-11.472221542952752
21
10.679162811865154
31
0
0
ARC
5
10E
100
AcDbEntity
8
PERIMETER
100
AcDbCircle
10
-11.141732283464565
20
10.932441613951763
30
0
40
0.078740157480315334
210
-0
220
0
230
1
100
AcDbArc
50
-63.434948822922571
51
0
0
LINE
5
10F
100
AcDbEntity
8
PERIMETER
100
AcDbLine
10
-11.06299212598425
20
11.835629921259834
30
0
11
-11.06299212598425
21
10.932441613951761
31
0
0
ARC
5
110
100
AcDbEntity
8
PERIMETER
100
AcDbCircle
10
-10.984251968503935
20
11.835629921259834
30
0
40
0.078740157480314668
210
0
220
-0
230
1
100
AcDbArc
50
90
51
180
0
LINE
5
111
100
AcDbEntity
8
PERIMETER
100
AcDbLine
10
-10.182641232146691
20
11.914370078740149
30
0
11
-10.984251968503935
21
11.914370078740149
31
0
0
ARC
5
112
100
AcDbEntity
8
PERIMETER
100
AcDbCircle
10
-10.18264123214669
20
11.835629921259837
30
0
40
0.078740157480311837
210
0
220
-0
230
1
100
AcDbArc
50
44.999999999999091
51
90.000000000001307
0
LINE
5
113
100
AcDbEntity
8
PERIMETER
100
AcDbLine
10
-9.3069467169057738
20
11.071290804630973
30
0
11
-10.126963532840664
21
11.891307620565861
31
0
0
ARC
5
114
100
AcDbEntity
8
PERIMETER
100
AcDbCircle
10
-9.2512690175997463
20
11.126968503937
30
0
40
0.078740157480314793
210
0
220
0
230
1
100
AcDbArc
50
224.99999999999909
51
270
0
LINE
5
115
100
AcDbEntity
8
PERIMETER
100
AcDbLine
10
-8.5046364942112724
20
11.048228346456686
30
0
11
-9.2512690175997463
21
11.048228346456686
31
0
0
ARC
5
116
100
AcDbEntity
8
PERIMETER
100
AcDbCircle
10
-8.5046364942112724
20
11.126968503937
30
0
40
0.078740157480314668
210
-0
220
0
230
1
100
AcDbArc
50
270
51
315.00000000000091
0
LINE
5
117
100
AcDbEntity
8
PERIMETER
100
AcDbLine
10
-7.6289419789703565
20
11.891307620565863
30
0
11
-8.4489587949052449
21
11.071290804630975
31
0
0
ARC
5
118
100
AcDbEntity
8
PERIMETER
100
AcDbCircle
10
-7.5732642796643308
20
11.835629921259835
30
0
40
0.078740157480314668
210
0
220
-0
230
1
100
AcDbArc
50
90
51
135.00000000000091
0
LINE
5
119
100
AcDbEntity
8
PERIMETER
100
AcDbLine
10
-4.5330349329340898
20
11.914370078740159
30
0
11
-7.573264279664329
21
11.914370078740149
31
0
0
ARC
5
11A
100
AcDbEntity
8
PERIMETER
100
AcDbCircle
10
-4.5330349329340898
20
11.835629921259844
30
0
40
0.078740157480316292
210
0
220
-0
230
1
100
AcDbArc
50
45.000000000000462
51
90
0
LINE
5
11B
100
AcDbEntity
8
PERIMETER
100
AcDbLine
10
-3.6573404176931734
20
11.071290804630982
30
0
11
-4.4773572336280614
21
11.891307620565872
31
0
0
ARC
5
11C
100
AcDbEntity
8
PERIMETER
100
AcDbCircle
10
-3.6016627183871455
20
11.126968503937009
30
0
40
0.078740157480315293
210
0
220
0
230
1
100
AcDbArc
50
224.99999999999977
51
270
0
LINE
5
11D
100
AcDbEntity
8
PERIMETER
100
AcDbLine
10
-2.8550301949986712
20
11.048228346456694
30
0
11
-3.6016627183871455
21
11.048228346456694
31
0
0
ARC
5
11E
100
AcDbEntity
8
PERIMETER
100
AcDbCircle
10
-2.8550301949986712
20
11.126968503937009
30
0
40
0.078740157480314668
210
-0
220
0
230
1
100
AcDbArc
50
270
51
315
0
LINE
5
11F
100
AcDbEntity
8
PERIMETER
100
AcDbLine
10
-1.9793356797577553
20
11.891307620565872
30
0
11
-2.7993524956926437
21
11.071290804630982
31
0
0
ARC
5
120
100
AcDbEntity
8
PERIMETER
100
AcDbCircle
10
-1.9236579804517275
20
11.835629921259844
30
0
40
0.078740157480314668
210
0
220
-0
230
1
100
AcDbArc
50
89.999999999999844
51
135.00000000000011
0
LINE
5
121
100
AcDbEntity
8
PERIMETER
100
AcDbLine
10
-1.2259483187608624
20
11.914370078740159
30
0
11
-1.9236579804517275
21
11.914370078740159
31
0
0
ARC
5
122
100
AcDbEntity
8
PERIMETER
100
AcDbCircle
10
-1.2259483187608622
20
11.835629921259844
30
0
40
0.078740157480315168
210
0
220
-0
230
1
100
AcDbArc
50
44.999999999999893
51
90.000000000000171
0
LINE
5
123
100
AcDbEntity
8
PERIMETER
100
AcDbLine
10
-0.35025380351994506
20
11.07129080463098
30
0
11
-1.1702706194548347
21
11.89130762056587
31
0
0
ARC
5
124
100
AcDbEntity
8
PERIMETER
100
AcDbCircle
10
-0.294576104213918
20
11.126968503937009
30
0
40
0.078740157480314668
210
0
220
0
230
1
100
AcDbArc
50
225.00000000000023
51
269.99999999999994
0
LINE
5
125
100
AcDbEntity
8
PERIMETER
100
AcDbLine
10
0.45205641917455713
20
11.048228346456693
30
0
11
-0.294576104213918
21
11.048228346456693
31
0
0
ARC
5
126
100
AcDbEntity
8
PERIMETER
100
AcDbCircle
10
0.45205641917455713
20
11.126968503937007
30
0
40
0.078740157480314668
210
-0
220
0
230
1
100
AcDbArc
50
270
51
314.99999999999977
0
LINE
5
127
100
AcDbEntity
8
PERIMETER
100
AcDbLine
10
1.3277509344154745
20
11.89130762056587
30
0
11
0.50773411848058436
21
11.07129080463098
31
0
0
ARC
5
128
100
AcDbEntity
8
PERIMETER
100
AcDbCircle
10
1.3834286337215027
20
11.835629921259841
30
0
40
0.07874015748031607
210
0
220
0
230
1
100
AcDbArc
50
90.000000000000171
51
135.00000000000037
0
LINE
5
129
100
AcDbEntity
8
PERIMETER
100
AcDbLine
10
4.4236579804517335
20
11.914370078740154
30
0
11
1.3834286337215025
21
11.914370078740157
31
0
0
ARC
5
12A
100
AcDbEntity
8
PERIMETER
100
AcDbCircle
10
4.4236579804517335
20
11.835629921259839
30
0
40
0.078740157480315293
210
0
220
-0
230
1
100
AcDbArc
50
45
51
90
0
LINE
5
12B
100
AcDbEntity
8
PERIMETER
100
AcDbLine
10
5.2993524956926477
20
11.071290804630975
30
0
11
4.479335679757761
21
11.891307620565867
31
0
0
ARC
5
12C
100
AcDbEntity
8
PERIMETER
100
AcDbCircle
10
5.3550301949986752
20
11.126968503937002
30
0
40
0.078740157480314793
210
0
220
0
230
1
100
AcDbArc
50
225
51
270
0
LINE
5
12D
100
AcDbEntity
8
PERIMETER
100
AcDbLine
10
6.1016627183871517
20
11.048228346456687
30
0
11
5.3550301949986752
21
11.048228346456687
31
0
0
ARC
5
12E
100
AcDbEntity
8
PERIMETER
100
AcDbCircle
10
6.1016627183871517
20
11.126968503937002
30
0
40
0.078740157480314668
210
-0
220
0
230
1
100
AcDbArc
50
270
51
314.99999999999955
0
LINE
5
12F
100
AcDbEntity
8
PERIMETER
100
AcDbLine
10
6.9773572336280738
20
11.891307620565865
30
0
11
6.1573404176931783
21
11.071290804630975
31
0
0
ARC
5
130
100
AcDbEntity
8
PERIMETER
100
AcDbCircle
10
7.0330349329341022
20
11.835629921259832
30
0
40
0.078740157480320275
210
0
220
0
230
1
100
AcDbArc
50
90.000000000001933
51
134.99999999999773
0
LINE
5
131
100
AcDbEntity
8
PERIMETER
100
AcDbLine
10
7.8346456692913415
20
11.914370078740152
30
0
11
7.0330349329340995
21
11.914370078740152
31
0
0
ARC
5
132
100
AcDbEntity
8
PERIMETER
100
AcDbCircle
10
7.8346456692913415
20
11.835629921259837
30
0
40
0.078740157480314668
210
-0
220
0
230
1
100
AcDbArc
50
0
51
90
0
LINE
5
133
100
AcDbEntity
8
PERIMETER
100
AcDbLine
10
7.9133858267716564
20
10.932441613951765
30
0
11
7.9133858267716564
21
11.835629921259837
31
0
0
ARC
5
134
100
AcDbEntity
8
PERIMETER
100
AcDbCircle
10
7.9921259842519712
20
10.932441613951765
30
0
40
0.078740157480314668
210
0
220
0
230
1
100
AcDbArc
50
180
51
243.43494882292202
0
LINE
5
135
100
AcDbEntity
8
PERIMETER
100
AcDbLine
10
10.304079007785433
20
9.6884309298425162
30
0
11
7.9569123153149661
21
10.862014276077755
31
0
0
ARC
5
136
100
AcDbEntity
8
PERIMETER
100
AcDbCircle
10
10.339292676722437
20
9.7588582677165245
30
0
40
0.078740157480315334
210
0
220
0
230
1
100
AcDbArc
50
243.43494882292202
51
270
0
LINE
5
137
100
AcDbEntity
8
PERIMETER
100
AcDbLine
10
11.437007874015748
20
9.6801181102362115
30
0
11
10.339292676722437
21
9.6801181102362115
31
0
0
ARC
5
138
100
AcDbEntity
8
PERIMETER
100
AcDbCircle
10
11.437007874015748
20
9.6013779527558949
30
0
40
0.07874015748031607
210
0
220
0
230
1
100
AcDbArc
50
0
51
90
0
LINE
5
139
100
AcDbEntity
8
PERIMETER
100
AcDbLine
10
11.515748031496058
20
-8.2332677165354333
30
0
11
11.515748031496063
21
9.6013779527558949
31
0
0
ARC
5
13A
100
AcDbEntity
8
PERIMETER
100
AcDbCircle
10
11.437007874015739
20
-8.2332677165354298
30
0
40
0.078740157480318873
210
-0
220
0
230
1
100
AcDbArc
50
270.00000000000125
51
360
0
LINE
5
13B
100
AcDbEntity
8
PERIMETER
100
AcDbLine
10
10.342799479574264
20
-8.3120078740157552
30
0
11
11.437007874015741
21
-8.3120078740157481
31
0
0
ARC
5
13C
100
AcDbEntity
8
PERIMETER
100
AcDbCircle
10
10.342799479574264
20
-8.3907480314960701
30
0
40
0.07874015748031607
210
0
220
-0
230
1
100
AcDbArc
50
90
51
135.00000000000091
0
LINE
5
13D
100
AcDbEntity
8
PERIMETER
100
AcDbLine
10
7.9364482849459357
20
-10.68574382751234
30
0
11
10.287121780268237
21
-8.3350703321900426
31
0
0
ARC
5
13E
100
AcDbEntity
8
PERIMETER
100
AcDbCircle
10
7.9921259842519596
20
-10.741421526818371
30
0
40
0.078740157480314793
210
0
220
0
230
1
100
AcDbArc
50
134.99999999999633
51
180
0
LINE
5
13F
100
AcDbEntity
8
PERIMETER
100
AcDbLine
10
7.9133858267716439
20
-11.835629921259841
30
0
11
7.9133858267716448
21
-10.741421526818371
31
0
0
ARC
5
140
100
AcDbEntity
8
PERIMETER
100
AcDbCircle
10
7.83464566929133
20
-11.835629921259844
30
0
40
0.07874015748031328
210
-0
220
0
230
1
100
AcDbArc
50
-90
51
0
0
LINE
5
141
100
AcDbEntity
8
PERIMETER
100
AcDbLine
10
-10.984251968503946
20
-11.914370078740157
30
0
11
7.83464566929133
21
-11.914370078740157
31
0
0
ARC
5
142
100
AcDbEntity
8
PERIMETER
100
AcDbCircle
10
-10.984251968503946
20
-11.835629921259844
30
0
40
0.078740157480314668
210
0
220
0
230
1
100
AcDbArc
50
180
51
270
0
LINE
5
143
100
AcDbEntity
8
PERIMETER
100
AcDbLine
10
-11.062992125984261
20
-10.741421526818367
30
0
11
-11.062992125984261
21
-11.835629921259841
31
0
0
ARC
5
144
100
AcDbEntity
8
PERIMETER
100
AcDbCircle
10
-11.141732283464576
20
-10.741421526818367
30
0
40
0.078740157480314668
210
0
220
-0
230
1
100
AcDbArc
50
0
51
45
0
LINE
5
145
100
AcDbEntity
8
PERIMETER
100
AcDbLine
10
-11.492685573321761
20
-10.279112838349127
30
0
11
-11.086054584158548
21
-10.68574382751234
31
0
0
ARC
5
146
100
AcDbEntity
8
PERIMETER
100
AcDbCircle
10
-11.437007874015727
20
-10.223435139043097
30
0
40
0.078740157480321663
210
0
220
0
230
1
100
AcDbArc
50
180
51
224.99999999999724
0
LINE
5
147
100
AcDbEntity
8
PERIMETER
100
AcDbLine
10
-11.515748031496049
20
-9.3879302017616819
30
0
11
-11.515748031496049
21
-10.223435139043103
31
0
0
ARC
5
148
100
AcDbEntity
8
PERIMETER
100
AcDbCircle
10
-11.437007874015734
20
-9.3879302017616819
30
0
40
0.078740157480314793
210
0
220
0
230
1
100
AcDbArc
50
135
51
180
0
LINE
5
149
100
AcDbEntity
8
PERIMETER
100
AcDbLine
10
-10.633298678641845
20
-8.4728656077757449
30
0
11
-11.492685573321761
21
-9.3322525024556544
31
0
0
ARC
5
14A
100
AcDbEntity
8
PERIMETER
100
AcDbCircle
10
-10.688976377947872
20
-8.4171879084697174
30
0
40
0.078740157480315792
210
-0
220
0
230
1
100
AcDbArc
50
-45
51
0
0
LINE
5
14B
100
AcDbEntity
8
PERIMETER
100
AcDbLine
10
-10.610236220467558
20
-1.2383239025540014
30
0
11
-10.610236220467558
21
-8.4171879084697174
31
0
0
ARC
5
14C
100
AcDbEntity
8
PERIMETER
100
AcDbCircle
10
-10.688976377947872
20
-1.2383239025540014
30
0
40
0.078740157480314668
210
0
220
-0
230
1
100
AcDbArc
50
0
51
44.999999999999773
0
LINE
5
14D
100
AcDbEntity
8
PERIMETER
100
AcDbLine
10
-11.492685573321769
20
-0.32325930856804663
30
0
11
-10.633298678641845
21
-1.1826462032479741
31
0
0
ARC
5
14E
100
AcDbEntity
8
PERIMETER
100
AcDbCircle
10
-11.437007874015737
20
-0.2675816092620194
30
0
40
0.078740157480317471
210
0
220
0
230
1
100
AcDbArc
50
180
51
224.9999999999979
0
LINE
5
14F
100
AcDbEntity
8
PERIMETER
100
AcDbLine
10
-11.515748031496056
20
0.45458948327764909
30
0
11
-11.515748031496056
21
-0.26758160926202218
31
0
0
ARC
5
150
100
AcDbEntity
8
PERIMETER
100
AcDbCircle
10
-11.43700787401575
20
0.45458948327765331
30
0
40
0.078740157480304912
210
0
220
0
230
1
100
AcDbArc
50
134.99999999999841
51
180
0
LINE
5
151
100
AcDbEntity
8
PERIMETER
100
AcDbLine
10
-10.633298678641845
20
1.3696540772636052
30
0
11
-11.492685573321769
21
0.51026718258367498
31
0
0
ARC
5
152
100
AcDbEntity
8
PERIMETER
100
AcDbCircle
10
-10.688976377947872
20
1.4253317765696312
30
0
40
0.078740157480314793
210
-0
220
0
230
1
100
AcDbArc
50
-44.99999999999919
51
0
0
LINE
5
153
100
AcDbEntity
8
PERIMETER
100
AcDbLine
10
-10.610236220467558
20
8.801046176186146
30
0
11
-10.610236220467558
21
1.4253317765696312
31
0
0
ARC
5
154
100
AcDbEntity
8
PERIMETER
100
AcDbCircle
10
-10.688976377947872
20
8.801046176186146
30
0
40
0.078740157480314668
210
0
220
-0
230
1
100
AcDbArc
50
0
51
44.999999999999091
0
LINE
5
155
100
AcDbEntity
8
PERIMETER
100
AcDbLine
10
-11.492685573321777
20
9.7161107701721612
30
0
11
-10.633298678641843
21
8.8567238754921735
31
0
0
ARC
5
156
100
AcDbEntity
8
PERIMETER
100
AcDbCircle
10
-11.437007874015753
20
9.7717884694781834
30
0
40
0.078740157480307688
210
0
220
0
230
1
100
AcDbArc
50
180
51
224.99999999999815
0
LINE
5
157
100
AcDbEntity
8
PERIMETER
100
AcDbLine
10
-11.515748031496061
20
10.608735473991146
30
0
11
-11.515748031496061
21
9.7717884694781869
31
0
0
ENDSEC
0
SECTION
2
OBJECTS
0
DICTIONARY
5
C
100
AcDbDictionary
3
ACAD_GROUP
350
D
3
ACAD_MLINESTYLE
350
17
0
DICTIONARY
5
D
100
AcDbDictionary
0
DICTIONARY
5
1A
330
C
100
AcDbDictionary
0
DICTIONARY
5
17
100
AcDbDictionary
0
ENDSEC
0
EOF
