0
SECTION
2
HEADER
9
$INSUNITS
70
1
9
$ACADVER
1
AC1014
9
$HANDSEED
5
FFFF
0
ENDSEC
0
SECTION
2
TABLES
0
TABLE
2
VPORT
5
8
100
AcDbSymbolTable
0
ENDTAB
0
TABLE
2
LTYPE
5
5
100
AcDbSymbolTable
70
2
0
LTYPE
5
14
100
AcDbSymbolTableRecord
100
AcDbLinetypeTableRecord
2
BYBLOCK
70
0
0
LTYPE
5
15
100
AcDbSymbolTableRecord
100
AcDbLinetypeTableRecord
2
BYLAYER
70
0
0
ENDTAB
0
TABLE
2
LAYER
5
2
100
AcDbSymbolTable
70
3
0
LAYER
5
50
100
AcDbSymbolTableRecord
100
AcDbLayerTableRecord
2
0
70
0
6
CONTINUOUS
0
LAYER
5
51
100
AcDbSymbolTableRecord
100
AcDbLayerTableRecord
2
CUTOUTS
70
0
62
1
6
CONTINUOUS
0
LAYER
5
52
100
AcDbSymbolTableRecord
100
AcDbLayerTableRecord
2
PERIMETER
70
0
62
5
6
CONTINUOUS
0
ENDTAB
0
TABLE
2
STYLE
5
3
100
AcDbSymbolTable
70
1
0
STYLE
5
11
100
AcDbSymbolTableRecord
100
AcDbTextStyleTableRecord
2
STANDARD
70
0
0
ENDTAB
0
TABLE
2
VIEW
5
6
100
AcDbSymbolTable
0
ENDTAB
0
TABLE
2
UCS
5
7
100
AcDbSymbolTable
0
ENDTAB
0
TABLE
2
APPID
5
9
100
AcDbSymbolTable
70
1
0
APPID
5
12
100
AcDbSymbolTableRecord
100
AcDbRegAppTableRecord
2
ACAD
70
0
0
ENDTAB
0
TABLE
2
DIMSTYLE
5
A
100
AcDbSymbolTable
0
ENDTAB
0
TABLE
2
BLOCK_RECORD
5
1
100
AcDbSymbolTable
70
2
0
BLOCK_RECORD
5
1F
100
AcDbSymbolTableRecord
100
AcDbBlockTableRecord
2
*MODEL_SPACE
0
BLOCK_RECORD
5
1B
100
AcDbSymbolTableRecord
100
AcDbBlockTableRecord
2
*PAPER_SPACE
0
ENDTAB
0
ENDSEC
0
SECTION
2
BLOCKS
0
BLOCK
5
20
100
AcDbEntity
100
AcDbBlockBegin
2
*MODEL_SPACE
0
ENDBLK
5
21
100
AcDbEntity
100
AcDbBlockEnd
0
BLOCK
5
1C
100
AcDbEntity
100
AcDbBlockBegin
2
*PAPER_SPACE
0
ENDBLK
5
1D
100
AcDbEntity
100
AcDbBlockEnd
0
ENDSEC
0
SECTION
2
ENTITIES
0
CIRCLE
5
100
100
AcDbEntity
8
CUTOUTS
100
AcDbCircle
10
3.221217362422328e-15
20
-6.8897637795275655
30
0
40
0.13779527559055119
210
0
220
0
230
1
0
CIRCLE
5
101
100
AcDbEntity
8
CUTOUTS
100
AcDbCircle
10
3.221217362422328e-15
20
-8.8582677165354387
30
0
40
0.13779527559055119
210
0
220
0
230
1
0
CIRCLE
5
102
100
AcDbEntity
8
CUTOUTS
100
AcDbCircle
10
3.221217362422328e-15
20
-2.9527559055118178
30
0
40
0.13779527559055119
210
0
220
0
230
1
0
CIRCLE
5
103
100
AcDbEntity
8
CUTOUTS
100
AcDbCircle
10
3.221217362422328e-15
20
-4.9212598425196914
30
0
40
0.13779527559055119
210
0
220
0
230
1
0
CIRCLE
5
104
100
AcDbEntity
8
CUTOUTS
100
AcDbCircle
10
3.221217362422328e-15
20
0.98425196850392993
30
0
40
0.13779527559055119
210
0
220
0
230
1
0
CIRCLE
5
105
100
AcDbEntity
8
CUTOUTS
100
AcDbCircle
10
3.221217362422328e-15
20
-0.98425196850394392
30
0
40
0.13779527559055119
210
0
220
0
230
1
0
CIRCLE
5
106
100
AcDbEntity
8
CUTOUTS
100
AcDbCircle
10
3.221217362422328e-15
20
4.9212598425196781
30
0
40
0.13779527559055119
210
0
220
0
230
1
0
CIRCLE
5
107
100
AcDbEntity
8
CUTOUTS
100
AcDbCircle
10
3.221217362422328e-15
20
2.952755905511804
30
0
40
0.13779527559055119
210
0
220
0
230
1
0
CIRCLE
5
108
100
AcDbEntity
8
CUTOUTS
100
AcDbCircle
10
3.221217362422328e-15
20
8.8582677165354262
30
0
40
0.13779527559055119
210
0
220
0
230
1
0
CIRCLE
5
109
100
AcDbEntity
8
CUTOUTS
100
AcDbCircle
10
3.221217362422328e-15
20
6.8897637795275513
30
0
40
0.13779527559055119
210
0
220
0
230
1
0
CIRCLE
5
10A
100
AcDbEntity
8
CUTOUTS
100
AcDbCircle
10
-1.3779527559055076
20
-1.1023622047244066
30
0
40
0.31496062992125973
210
0
220
0
230
1
0
CIRCLE
5
10B
100
AcDbEntity
8
CUTOUTS
100
AcDbCircle
10
11.220472440944915
20
-5.1377952755905332
30
0
40
0.13779527559055174
210
0
220
0
230
1
0
CIRCLE
5
10C
100
AcDbEntity
8
CUTOUTS
100
AcDbCircle
10
10.03937007874014
20
-10.82677165354329
30
0
40
0.13779527559055174
210
0
220
0
230
1
0
CIRCLE
5
10D
100
AcDbEntity
8
CUTOUTS
100
AcDbCircle
10
1.0236220472440767
20
-10.826771653543284
30
0
40
0.13779527559055121
210
0
220
0
230
1
0
CIRCLE
5
10E
100
AcDbEntity
8
CUTOUTS
100
AcDbCircle
10
-5.5314960629921117
20
-10.826771653543284
30
0
40
0.13779527559055102
210
0
220
0
230
1
0
CIRCLE
5
10F
100
AcDbEntity
8
CUTOUTS
100
AcDbCircle
10
-11.220472440944869
20
-9.6456692913385602
30
0
40
0.13779527559055174
210
0
220
0
230
1
0
CIRCLE
5
110
100
AcDbEntity
8
CUTOUTS
100
AcDbCircle
10
-11.220472440944958
20
-0.62992125984249703
30
0
40
0.13779527559055174
210
0
220
0
230
1
0
CIRCLE
5
111
100
AcDbEntity
8
CUTOUTS
100
AcDbCircle
10
11.220472440944921
20
5.1377952755905403
30
0
40
0.13779527559055174
210
0
220
0
230
1
0
CIRCLE
5
112
100
AcDbEntity
8
CUTOUTS
100
AcDbCircle
10
-11.220472440944958
20
0.62992125984251446
30
0
40
0.13779527559055174
210
0
220
0
230
1
0
CIRCLE
5
113
100
AcDbEntity
8
CUTOUTS
100
AcDbCircle
10
-11.220472440944867
20
9.6456692913385762
30
0
40
0.13779527559055174
210
0
220
0
230
1
0
CIRCLE
5
114
100
AcDbEntity
8
CUTOUTS
100
AcDbCircle
10
1.0236220472440833
20
10.826771653543457
30
0
40
0.13779527559055121
210
0
220
0
230
1
0
CIRCLE
5
115
100
AcDbEntity
8
CUTOUTS
100
AcDbCircle
10
-6.2992125984251786
20
10.826771653543295
30
0
40
0.13779527559055102
210
0
220
0
230
1
0
CIRCLE
5
116
100
AcDbEntity
8
CUTOUTS
100
AcDbCircle
10
-1.0236220472440765
20
10.826771653543457
30
0
40
0.13779527559055121
210
0
220
0
230
1
0
CIRCLE
5
117
100
AcDbEntity
8
CUTOUTS
100
AcDbCircle
10
6.2992125984251848
20
10.826771653543291
30
0
40
0.13779527559055174
210
0
220
0
230
1
0
CIRCLE
5
118
100
AcDbEntity
8
CUTOUTS
100
AcDbCircle
10
-11.220472440944915
20
5.1377952755905456
30
0
40
0.13779527559055174
210
0
220
0
230
1
0
CIRCLE
5
119
100
AcDbEntity
8
CUTOUTS
100
AcDbCircle
10
11.220472440944876
20
9.6456692913385709
30
0
40
0.13779527559055174
210
0
220
0
230
1
0
CIRCLE
5
11A
100
AcDbEntity
8
CUTOUTS
100
AcDbCircle
10
11.220472440944961
20
0.62992125984250869
30
0
40
0.13779527559055174
210
0
220
0
230
1
0
CIRCLE
5
11B
100
AcDbEntity
8
CUTOUTS
100
AcDbCircle
10
-11.220472440944915
20
-5.137795275590527
30
0
40
0.13779527559055174
210
0
220
0
230
1
0
CIRCLE
5
11C
100
AcDbEntity
8
CUTOUTS
100
AcDbCircle
10
-10.039370078740143
20
-10.826771653543284
30
0
40
0.13779527559055174
210
0
220
0
230
1
0
CIRCLE
5
11D
100
AcDbEntity
8
CUTOUTS
100
AcDbCircle
10
-1.0236220472440809
20
-10.826771653543284
30
0
40
0.13779527559055121
210
0
220
0
230
1
0
CIRCLE
5
11E
100
AcDbEntity
8
CUTOUTS
100
AcDbCircle
10
5.5314960629921073
20
-10.826771653543286
30
0
40
0.13779527559055102
210
0
220
0
230
1
0
CIRCLE
5
11F
100
AcDbEntity
8
CUTOUTS
100
AcDbCircle
10
11.220472440944873
20
-9.6456692913385602
30
0
40
0.13779527559055174
210
0
220
0
230
1
0
CIRCLE
5
120
100
AcDbEntity
8
CUTOUTS
100
AcDbCircle
10
11.220472440944961
20
-0.62992125984249681
30
0
40
0.13779527559055174
210
0
220
0
230
1
0
LINE
5
121
100
AcDbEntity
8
CUTOUTS
100
AcDbLine
10
-9.9744094488188804
20
10.196850393700783
30
0
11
-10.57677165354329
21
10.196850393700783
31
0
0
ARC
5
122
100
AcDbEntity
8
CUTOUTS
100
AcDbCircle
10
-10.57677165354329
20
10.275590551181098
30
0
40
0.078740157480314668
210
0
220
0
230
1
100
AcDbArc
50
180
51
270
0
LINE
5
123
100
AcDbEntity
8
CUTOUTS
100
AcDbLine
10
-10.655511811023604
20
10.275590551181098
30
0
11
-10.655511811023604
21
10.70866141732283
31
0
0
ARC
5
124
100
AcDbEntity
8
CUTOUTS
100
AcDbCircle
10
-10.57677165354329
20
10.70866141732283
30
0
40
0.078740157480314668
210
0
220
-0
230
1
100
AcDbArc
50
90
51
180
0
LINE
5
125
100
AcDbEntity
8
CUTOUTS
100
AcDbLine
10
-10.57677165354329
20
10.787401574803145
30
0
11
-9.9744094488188804
21
10.787401574803145
31
0
0
ARC
5
126
100
AcDbEntity
8
CUTOUTS
100
AcDbCircle
10
-9.9744094488188804
20
10.70866141732283
30
0
40
0.078740157480314668
210
0
220
-0
230
1
100
AcDbArc
50
0
51
90
0
LINE
5
127
100
AcDbEntity
8
CUTOUTS
100
AcDbLine
10
-9.8956692913385655
20
10.70866141732283
30
0
11
-9.8956692913385638
21
10.2755905511811
31
0
0
ARC
5
128
100
AcDbEntity
8
CUTOUTS
100
AcDbCircle
10
-9.9744094488188804
20
10.2755905511811
30
0
40
0.07874015748031607
210
-0
220
0
230
1
100
AcDbArc
50
-90
51
0
0
LINE
5
129
100
AcDbEntity
8
CUTOUTS
100
AcDbLine
10
10.655511811023622
20
10.708661417322825
30
0
11
10.655511811023622
21
10.275590551181093
31
0
0
ARC
5
12A
100
AcDbEntity
8
CUTOUTS
100
AcDbCircle
10
10.576771653543307
20
10.275590551181093
30
0
40
0.07874015748031607
210
-0
220
0
230
1
100
AcDbArc
50
-90
51
0
0
LINE
5
12B
100
AcDbEntity
8
CUTOUTS
100
AcDbLine
10
10.576771653543307
20
10.196850393700778
30
0
11
9.9744094488188964
21
10.196850393700778
31
0
0
ARC
5
12C
100
AcDbEntity
8
CUTOUTS
100
AcDbCircle
10
9.9744094488188964
20
10.275590551181093
30
0
40
0.078740157480314668
210
0
220
0
230
1
100
AcDbArc
50
180
51
270
0
LINE
5
12D
100
AcDbEntity
8
CUTOUTS
100
AcDbLine
10
9.8956692913385833
20
10.275590551181093
30
0
11
9.8956692913385833
21
10.708661417322825
31
0
0
ARC
5
12E
100
AcDbEntity
8
CUTOUTS
100
AcDbCircle
10
9.9744094488188964
20
10.708661417322825
30
0
40
0.078740157480314668
210
0
220
-0
230
1
100
AcDbArc
50
90
51
180
0
LINE
5
12F
100
AcDbEntity
8
CUTOUTS
100
AcDbLine
10
9.9744094488188964
20
10.787401574803138
30
0
11
10.576771653543307
21
10.787401574803139
31
0
0
ARC
5
130
100
AcDbEntity
8
CUTOUTS
100
AcDbCircle
10
10.576771653543307
20
10.708661417322825
30
0
40
0.078740157480314668
210
0
220
-0
230
1
100
AcDbArc
50
0
51
90
0
ARC
5
131
100
AcDbEntity
8
PERIMETER
100
AcDbCircle
10
11.692913385826774
20
-10.118110236220476
30
0
40
0.078740157480314668
210
0
220
0
230
1
100
AcDbArc
50
-90.000000000001322
51
0
0
LINE
5
132
100
AcDbEntity
8
PERIMETER
100
AcDbLine
10
10.66929133858268
20
-10.19685039370078
30
0
11
11.692913385826772
21
-10.196850393700791
31
0
0
ARC
5
133
100
AcDbEntity
8
PERIMETER
100
AcDbCircle
10
10.669291338582678
20
-10.275590551181095
30
0
40
0.078740157480314668
210
0
220
-0
230
1
100
AcDbArc
50
89.999999999998721
51
180
0
LINE
5
134
100
AcDbEntity
8
PERIMETER
100
AcDbLine
10
10.590551181102363
20
-11.299212598425193
30
0
11
10.590551181102363
21
-10.275590551181095
31
0
0
ARC
5
135
100
AcDbEntity
8
PERIMETER
100
AcDbCircle
10
10.511811023622048
20
-11.299212598425193
30
0
40
0.078740157480314668
210
-0
220
0
230
1
100
AcDbArc
50
-90
51
0
0
LINE
5
136
100
AcDbEntity
8
PERIMETER
100
AcDbLine
10
-10.511811023622041
20
-11.377952755905506
30
0
11
10.511811023622048
21
-11.377952755905508
31
0
0
ARC
5
137
100
AcDbEntity
8
PERIMETER
100
AcDbCircle
10
-10.511811023622041
20
-11.299212598425191
30
0
40
0.078740157480314668
210
0
220
0
230
1
100
AcDbArc
50
180
51
270
0
LINE
5
138
100
AcDbEntity
8
PERIMETER
100
AcDbLine
10
-10.590551181102356
20
-10.275590551181088
30
0
11
-10.590551181102356
21
-11.299212598425191
31
0
0
ARC
5
139
100
AcDbEntity
8
PERIMETER
100
AcDbCircle
10
-10.669291338582671
20
-10.275590551181088
30
0
40
0.078740157480314668
210
0
220
-0
230
1
100
AcDbArc
50
0
51
90
0
LINE
5
13A
100
AcDbEntity
8
PERIMETER
100
AcDbLine
10
-11.692913385826767
20
-10.196850393700782
30
0
11
-10.669291338582671
21
-10.196850393700773
31
0
0
ARC
5
13B
100
AcDbEntity
8
PERIMETER
100
AcDbCircle
10
-11.692913385826767
20
-10.118110236220467
30
0
40
0.078740157480314668
210
0
220
0
230
1
100
AcDbArc
50
180
51
270
0
LINE
5
13C
100
AcDbEntity
8
PERIMETER
100
AcDbLine
10
-11.771653543307062
20
11.299212598425196
30
0
11
-11.771653543307082
21
-10.118110236220467
31
0
0
ARC
5
13D
100
AcDbEntity
8
PERIMETER
100
AcDbCircle
10
-11.692913385826749
20
11.299212598425196
30
0
40
0.07874015748031328
210
0
220
-0
230
1
100
AcDbArc
50
89.999999999998721
51
180
0
LINE
5
13E
100
AcDbEntity
8
PERIMETER
100
AcDbLine
10
11.692913385826767
20
11.377952755905504
30
0
11
-11.692913385826747
21
11.377952755905511
31
0
0
ARC
5
13F
100
AcDbEntity
8
PERIMETER
100
AcDbCircle
10
11.692913385826769
20
11.299212598425189
30
0
40
0.07874015748031328
210
-0
220
0
230
1
100
AcDbArc
50
0
51
90.000000000001307
0
LINE
5
140
100
AcDbEntity
8
PERIMETER
100
AcDbLine
10
11.771653543307087
20
-10.118110236220476
30
0
11
11.771653543307082
21
11.299212598425189
31
0
0
ENDSEC
0
SECTION
2
OBJECTS
0
DICTIONARY
5
C
100
AcDbDictionary
3
ACAD_GROUP
350
D
3
ACAD_MLINESTYLE
350
17
0
DICTIONARY
5
D
100
AcDbDictionary
0
DICTIONARY
5
1A
330
C
100
AcDbDictionary
0
DICTIONARY
5
17
100
AcDbDictionary
0
ENDSEC
0
EOF
