0
SECTION
2
HEADER
9
$INSUNITS
70
1
9
$ACADVER
1
AC1014
9
$HANDSEED
5
FFFF
0
ENDSEC
0
SECTION
2
TABLES
0
TABLE
2
VPORT
5
8
100
AcDbSymbolTable
0
ENDTAB
0
TABLE
2
LTYPE
5
5
100
AcDbSymbolTable
70
2
0
LTYPE
5
14
100
AcDbSymbolTableRecord
100
AcDbLinetypeTableRecord
2
BYBLOCK
70
0
0
LTYPE
5
15
100
AcDbSymbolTableRecord
100
AcDbLinetypeTableRecord
2
BYLAYER
70
0
0
ENDTAB
0
TABLE
2
LAYER
5
2
100
AcDbSymbolTable
70
3
0
LAYER
5
50
100
AcDbSymbolTableRecord
100
AcDbLayerTableRecord
2
0
70
0
6
CONTINUOUS
0
LAYER
5
51
100
AcDbSymbolTableRecord
100
AcDbLayerTableRecord
2
CUTOUTS
70
0
62
1
6
CONTINUOUS
0
LAYER
5
52
100
AcDbSymbolTableRecord
100
AcDbLayerTableRecord
2
PERIMETER
70
0
62
5
6
CONTINUOUS
0
ENDTAB
0
TABLE
2
STYLE
5
3
100
AcDbSymbolTable
70
1
0
STYLE
5
11
100
AcDbSymbolTableRecord
100
AcDbTextStyleTableRecord
2
STANDARD
70
0
0
ENDTAB
0
TABLE
2
VIEW
5
6
100
AcDbSymbolTable
0
ENDTAB
0
TABLE
2
UCS
5
7
100
AcDbSymbolTable
0
ENDTAB
0
TABLE
2
APPID
5
9
100
AcDbSymbolTable
70
1
0
APPID
5
12
100
AcDbSymbolTableRecord
100
AcDbRegAppTableRecord
2
ACAD
70
0
0
ENDTAB
0
TABLE
2
DIMSTYLE
5
A
100
AcDbSymbolTable
0
ENDTAB
0
TABLE
2
BLOCK_RECORD
5
1
100
AcDbSymbolTable
70
2
0
BLOCK_RECORD
5
1F
100
AcDbSymbolTableRecord
100
AcDbBlockTableRecord
2
*MODEL_SPACE
0
BLOCK_RECORD
5
1B
100
AcDbSymbolTableRecord
100
AcDbBlockTableRecord
2
*PAPER_SPACE
0
ENDTAB
0
ENDSEC
0
SECTION
2
BLOCKS
0
BLOCK
5
20
100
AcDbEntity
100
AcDbBlockBegin
2
*MODEL_SPACE
0
ENDBLK
5
21
100
AcDbEntity
100
AcDbBlockEnd
0
BLOCK
5
1C
100
AcDbEntity
100
AcDbBlockBegin
2
*PAPER_SPACE
0
ENDBLK
5
1D
100
AcDbEntity
100
AcDbBlockEnd
0
ENDSEC
0
SECTION
2
ENTITIES
0
CIRCLE
5
100
100
AcDbEntity
8
CUTOUTS
100
AcDbCircle
10
4.1391182882935199e-15
20
-6.8897637795275539
30
0
40
0.13779527559055119
210
0
220
0
230
1
0
CIRCLE
5
101
100
AcDbEntity
8
CUTOUTS
100
AcDbCircle
10
4.1391182882935199e-15
20
-8.858267716535428
30
0
40
0.13779527559055119
210
0
220
0
230
1
0
CIRCLE
5
102
100
AcDbEntity
8
CUTOUTS
100
AcDbCircle
10
4.1391182882935199e-15
20
-2.9527559055118067
30
0
40
0.13779527559055119
210
0
220
0
230
1
0
CIRCLE
5
103
100
AcDbEntity
8
CUTOUTS
100
AcDbCircle
10
4.1391182882935199e-15
20
-4.9212598425196807
30
0
40
0.13779527559055119
210
0
220
0
230
1
0
CIRCLE
5
104
100
AcDbEntity
8
CUTOUTS
100
AcDbCircle
10
4.1391182882935199e-15
20
0.98425196850394114
30
0
40
0.13779527559055119
210
0
220
0
230
1
0
CIRCLE
5
105
100
AcDbEntity
8
CUTOUTS
100
AcDbCircle
10
4.1391182882935199e-15
20
-0.98425196850393271
30
0
40
0.13779527559055119
210
0
220
0
230
1
0
CIRCLE
5
106
100
AcDbEntity
8
CUTOUTS
100
AcDbCircle
10
4.1391182882935199e-15
20
4.9212598425196887
30
0
40
0.13779527559055119
210
0
220
0
230
1
0
CIRCLE
5
107
100
AcDbEntity
8
CUTOUTS
100
AcDbCircle
10
4.1391182882935199e-15
20
2.9527559055118151
30
0
40
0.13779527559055119
210
0
220
0
230
1
0
CIRCLE
5
108
100
AcDbEntity
8
CUTOUTS
100
AcDbCircle
10
4.1391182882935199e-15
20
8.8582677165354369
30
0
40
0.13779527559055119
210
0
220
0
230
1
0
CIRCLE
5
109
100
AcDbEntity
8
CUTOUTS
100
AcDbCircle
10
4.1391182882935199e-15
20
6.8897637795275628
30
0
40
0.13779527559055119
210
0
220
0
230
1
0
CIRCLE
5
10A
100
AcDbEntity
8
CUTOUTS
100
AcDbCircle
10
-1.3779527559055078
20
-5.2165354330708293
30
0
40
0.31496062992125973
210
0
220
0
230
1
0
CIRCLE
5
10B
100
AcDbEntity
8
CUTOUTS
100
AcDbCircle
10
-4.3897637795275548
20
-3.2874015748031402
30
0
40
0.06102362204724384
210
0
220
0
230
1
0
CIRCLE
5
10C
100
AcDbEntity
8
CUTOUTS
100
AcDbCircle
10
-2.1062992125984197
20
-5.216535433070856
30
0
40
0.061023622047244187
210
0
220
0
230
1
0
CIRCLE
5
10D
100
AcDbEntity
8
CUTOUTS
100
AcDbCircle
10
-4.3897637795275539
20
-5.2165354330708569
30
0
40
0.06102362204724384
210
0
220
0
230
1
0
CIRCLE
5
10E
100
AcDbEntity
8
CUTOUTS
100
AcDbCircle
10
-2.1062992125984201
20
-3.2874015748031393
30
0
40
0.061023622047244187
210
0
220
0
230
1
0
CIRCLE
5
10F
100
AcDbEntity
8
CUTOUTS
100
AcDbCircle
10
-4.9212598425196807
20
-0.82677165354329574
30
0
40
0.070866141732283353
210
0
220
0
230
1
0
CIRCLE
5
110
100
AcDbEntity
8
CUTOUTS
100
AcDbCircle
10
-4.9212598425196807
20
5.0787401574803255
30
0
40
0.070866141732283353
210
0
220
0
230
1
0
CIRCLE
5
111
100
AcDbEntity
8
CUTOUTS
100
AcDbCircle
10
-1.3779527559055076
20
5.0787401574803255
30
0
40
0.070866141732283519
210
0
220
0
230
1
0
CIRCLE
5
112
100
AcDbEntity
8
CUTOUTS
100
AcDbCircle
10
-1.3779527559055076
20
-0.82677165354329574
30
0
40
0.070866141732283519
210
0
220
0
230
1
0
CIRCLE
5
113
100
AcDbEntity
8
CUTOUTS
100
AcDbCircle
10
4.4094488188976415
20
-5.403543307086605
30
0
40
0.094488188976378035
210
0
220
0
230
1
0
CIRCLE
5
114
100
AcDbEntity
8
CUTOUTS
100
AcDbCircle
10
2.4606299212598466
20
-1.9094488188976284
30
0
40
0.094488188976378035
210
0
220
0
230
1
0
CIRCLE
5
115
100
AcDbEntity
8
CUTOUTS
100
AcDbCircle
10
2.4606299212598466
20
3.9960629921259931
30
0
40
0.094488188976378035
210
0
220
0
230
1
0
CIRCLE
5
116
100
AcDbEntity
8
CUTOUTS
100
AcDbCircle
10
4.4291338582677202
20
3.9960629921259931
30
0
40
0.094488188976378035
210
0
220
0
230
1
0
CIRCLE
5
117
100
AcDbEntity
8
CUTOUTS
100
AcDbCircle
10
4.4291338582677202
20
-1.9094488188976284
30
0
40
0.094488188976378035
210
0
220
0
230
1
0
CIRCLE
5
118
100
AcDbEntity
8
CUTOUTS
100
AcDbCircle
10
2.5196850393700823
20
-5.4035433070866024
30
0
40
0.094488188976378035
210
0
220
0
230
1
0
CIRCLE
5
119
100
AcDbEntity
8
CUTOUTS
100
AcDbCircle
10
11.220472440944869
20
-5.1377952755905412
30
0
40
0.13779527559055174
210
0
220
0
230
1
0
CIRCLE
5
11A
100
AcDbEntity
8
CUTOUTS
100
AcDbCircle
10
10.039370078740143
20
-10.826771653543306
30
0
40
0.13779527559055174
210
0
220
0
230
1
0
CIRCLE
5
11B
100
AcDbEntity
8
CUTOUTS
100
AcDbCircle
10
1.0236220472440831
20
-10.826771653543304
30
0
40
0.13779527559055121
210
0
220
0
230
1
0
CIRCLE
5
11C
100
AcDbEntity
8
CUTOUTS
100
AcDbCircle
10
-5.5314960629921108
20
-10.826771653543304
30
0
40
0.13779527559055102
210
0
220
0
230
1
0
CIRCLE
5
11D
100
AcDbEntity
8
CUTOUTS
100
AcDbCircle
10
-11.220472440944867
20
-9.6456692913385691
30
0
40
0.13779527559055174
210
0
220
0
230
1
0
CIRCLE
5
11E
100
AcDbEntity
8
CUTOUTS
100
AcDbCircle
10
-11.220472440944862
20
-0.62992125984250935
30
0
40
0.13779527559055174
210
0
220
0
230
1
0
CIRCLE
5
11F
100
AcDbEntity
8
CUTOUTS
100
AcDbCircle
10
11.220472440944869
20
5.1377952755905438
30
0
40
0.13779527559055174
210
0
220
0
230
1
0
CIRCLE
5
120
100
AcDbEntity
8
CUTOUTS
100
AcDbCircle
10
-11.220472440944862
20
0.62992125984251668
30
0
40
0.13779527559055174
210
0
220
0
230
1
0
CIRCLE
5
121
100
AcDbEntity
8
CUTOUTS
100
AcDbCircle
10
-11.220472440944867
20
9.645669291338578
30
0
40
0.13779527559055174
210
0
220
0
230
1
0
CIRCLE
5
122
100
AcDbEntity
8
CUTOUTS
100
AcDbCircle
10
1.0236220472440876
20
10.82677165354341
30
0
40
0.13779527559055121
210
0
220
0
230
1
0
CIRCLE
5
123
100
AcDbEntity
8
CUTOUTS
100
AcDbCircle
10
-6.2992125984251803
20
10.826771653543405
30
0
40
0.13779527559055102
210
0
220
0
230
1
0
CIRCLE
5
124
100
AcDbEntity
8
CUTOUTS
100
AcDbCircle
10
-1.0236220472440791
20
10.82677165354341
30
0
40
0.13779527559055121
210
0
220
0
230
1
0
CIRCLE
5
125
100
AcDbEntity
8
CUTOUTS
100
AcDbCircle
10
6.2992125984251901
20
10.826771653543405
30
0
40
0.13779527559055102
210
0
220
0
230
1
0
CIRCLE
5
126
100
AcDbEntity
8
CUTOUTS
100
AcDbCircle
10
-11.220472440944864
20
5.1377952755905465
30
0
40
0.13779527559055174
210
0
220
0
230
1
0
CIRCLE
5
127
100
AcDbEntity
8
CUTOUTS
100
AcDbCircle
10
11.220472440944876
20
9.6456692913385744
30
0
40
0.13779527559055174
210
0
220
0
230
1
0
CIRCLE
5
128
100
AcDbEntity
8
CUTOUTS
100
AcDbCircle
10
11.220472440944869
20
0.62992125984251335
30
0
40
0.13779527559055174
210
0
220
0
230
1
0
CIRCLE
5
129
100
AcDbEntity
8
CUTOUTS
100
AcDbCircle
10
-11.220472440944864
20
-5.1377952755905385
30
0
40
0.13779527559055174
210
0
220
0
230
1
0
CIRCLE
5
12A
100
AcDbEntity
8
CUTOUTS
100
AcDbCircle
10
-10.039370078740141
20
-10.826771653543304
30
0
40
0.13779527559055174
210
0
220
0
230
1
0
CIRCLE
5
12B
100
AcDbEntity
8
CUTOUTS
100
AcDbCircle
10
-1.0236220472440789
20
-10.826771653543304
30
0
40
0.13779527559055121
210
0
220
0
230
1
0
CIRCLE
5
12C
100
AcDbEntity
8
CUTOUTS
100
AcDbCircle
10
5.5314960629921144
20
-10.826771653543304
30
0
40
0.13779527559055102
210
0
220
0
230
1
0
CIRCLE
5
12D
100
AcDbEntity
8
CUTOUTS
100
AcDbCircle
10
11.220472440944876
20
-9.6456692913385673
30
0
40
0.13779527559055174
210
0
220
0
230
1
0
CIRCLE
5
12E
100
AcDbEntity
8
CUTOUTS
100
AcDbCircle
10
11.220472440944866
20
-0.62992125984250502
30
0
40
0.13779527559055174
210
0
220
0
230
1
0
ARC
5
12F
100
AcDbEntity
8
CUTOUTS
100
AcDbCircle
10
-9.9744094488188768
20
10.708661417322849
30
0
40
0.078740157480314668
210
0
220
-0
230
1
100
AcDbArc
50
0
51
90
0
LINE
5
130
100
AcDbEntity
8
CUTOUTS
100
AcDbLine
10
-10.576771653543288
20
10.787401574803164
30
0
11
-9.9744094488188768
21
10.787401574803164
31
0
0
ARC
5
131
100
AcDbEntity
8
CUTOUTS
100
AcDbCircle
10
-10.576771653543288
20
10.708661417322849
30
0
40
0.078740157480314668
210
0
220
-0
230
1
100
AcDbArc
50
90
51
180
0
LINE
5
132
100
AcDbEntity
8
CUTOUTS
100
AcDbLine
10
-10.655511811023603
20
10.275590551181116
30
0
11
-10.655511811023603
21
10.708661417322849
31
0
0
ARC
5
133
100
AcDbEntity
8
CUTOUTS
100
AcDbCircle
10
-10.576771653543288
20
10.275590551181116
30
0
40
0.078740157480314668
210
0
220
0
230
1
100
AcDbArc
50
180
51
270
0
LINE
5
134
100
AcDbEntity
8
CUTOUTS
100
AcDbLine
10
-9.9744094488188768
20
10.196850393700801
30
0
11
-10.576771653543288
21
10.196850393700801
31
0
0
ARC
5
135
100
AcDbEntity
8
CUTOUTS
100
AcDbCircle
10
-9.9744094488188768
20
10.275590551181116
30
0
40
0.078740157480314668
210
-0
220
0
230
1
100
AcDbArc
50
-90
51
0
0
LINE
5
136
100
AcDbEntity
8
CUTOUTS
100
AcDbLine
10
-9.895669291338562
20
10.708661417322849
30
0
11
-9.895669291338562
21
10.275590551181116
31
0
0
ARC
5
137
100
AcDbEntity
8
CUTOUTS
100
AcDbCircle
10
9.9744094488188946
20
10.708661417322846
30
0
40
0.078740157480314668
210
0
220
-0
230
1
100
AcDbArc
50
90
51
180
0
LINE
5
138
100
AcDbEntity
8
CUTOUTS
100
AcDbLine
10
9.8956692913385798
20
10.275590551181113
30
0
11
9.8956692913385798
21
10.708661417322846
31
0
0
ARC
5
139
100
AcDbEntity
8
CUTOUTS
100
AcDbCircle
10
9.9744094488188946
20
10.275590551181113
30
0
40
0.078740157480314668
210
0
220
0
230
1
100
AcDbArc
50
180
51
270
0
LINE
5
13A
100
AcDbEntity
8
CUTOUTS
100
AcDbLine
10
10.576771653543304
20
10.196850393700798
30
0
11
9.9744094488188946
21
10.196850393700798
31
0
0
ARC
5
13B
100
AcDbEntity
8
CUTOUTS
100
AcDbCircle
10
10.576771653543304
20
10.275590551181113
30
0
40
0.078740157480314668
210
-0
220
0
230
1
100
AcDbArc
50
-90
51
0
0
LINE
5
13C
100
AcDbEntity
8
CUTOUTS
100
AcDbLine
10
10.655511811023619
20
10.708661417322846
30
0
11
10.655511811023619
21
10.275590551181113
31
0
0
ARC
5
13D
100
AcDbEntity
8
CUTOUTS
100
AcDbCircle
10
10.576771653543304
20
10.708661417322846
30
0
40
0.078740157480314668
210
0
220
-0
230
1
100
AcDbArc
50
0
51
90
0
LINE
5
13E
100
AcDbEntity
8
CUTOUTS
100
AcDbLine
10
9.9744094488188946
20
10.787401574803161
30
0
11
10.576771653543304
21
10.787401574803161
31
0
0
LINE
5
13F
100
AcDbEntity
8
PERIMETER
100
AcDbLine
10
11.692913385826767
20
11.377952755905522
30
0
11
-11.692913385826753
21
11.377952755905083
31
0
0
ARC
5
140
100
AcDbEntity
8
PERIMETER
100
AcDbCircle
10
-11.692913385826753
20
11.29921259842477
30
0
40
0.07874015748031328
210
0
220
-0
230
1
100
AcDbArc
50
90
51
180
0
LINE
5
141
100
AcDbEntity
8
PERIMETER
100
AcDbLine
10
-11.771653543307066
20
11.299212598424768
30
0
11
-11.771653543307076
21
-10.118110236220458
31
0
0
ARC
5
142
100
AcDbEntity
8
PERIMETER
100
AcDbCircle
10
-11.692913385826762
20
-10.118110236220458
30
0
40
0.078740157480314668
210
0
220
0
230
1
100
AcDbArc
50
180
51
270
0
LINE
5
143
100
AcDbEntity
8
PERIMETER
100
AcDbLine
10
-11.692913385826762
20
-10.196850393700773
30
0
11
-10.669291338582671
21
-10.196850393700773
31
0
0
ARC
5
144
100
AcDbEntity
8
PERIMETER
100
AcDbCircle
10
-10.669291338582671
20
-10.275590551181088
30
0
40
0.078740157480314668
210
0
220
-0
230
1
100
AcDbArc
50
0
51
90
0
LINE
5
145
100
AcDbEntity
8
PERIMETER
100
AcDbLine
10
-10.590551181102356
20
-10.275590551181088
30
0
11
-10.590551181102356
21
-11.299212598425186
31
0
0
ARC
5
146
100
AcDbEntity
8
PERIMETER
100
AcDbCircle
10
-10.511811023622041
20
-11.299212598425186
30
0
40
0.078740157480314668
210
0
220
0
230
1
100
AcDbArc
50
180
51
270
0
LINE
5
147
100
AcDbEntity
8
PERIMETER
100
AcDbLine
10
-10.511811023622041
20
-11.3779527559055
30
0
11
10.511811023622048
21
-11.377952755905495
31
0
0
ARC
5
148
100
AcDbEntity
8
PERIMETER
100
AcDbCircle
10
10.51181102362205
20
-11.29921259842518
30
0
40
0.078740157480314668
210
0
220
0
230
1
100
AcDbArc
50
-90.000000000001322
51
0
0
LINE
5
149
100
AcDbEntity
8
PERIMETER
100
AcDbLine
10
10.590551181102365
20
-11.29921259842518
30
0
11
10.590551181102366
21
-10.275590551181091
31
0
0
ARC
5
14A
100
AcDbEntity
8
PERIMETER
100
AcDbCircle
10
10.669291338582681
20
-10.275590551181091
30
0
40
0.078740157480314668
210
0
220
-0
230
1
100
AcDbArc
50
90
51
180
0
LINE
5
14B
100
AcDbEntity
8
PERIMETER
100
AcDbLine
10
10.669291338582681
20
-10.196850393700776
30
0
11
11.69291338582677
21
-10.196850393700775
31
0
0
ARC
5
14C
100
AcDbEntity
8
PERIMETER
100
AcDbCircle
10
11.69291338582677
20
-10.118110236220458
30
0
40
0.07874015748031607
210
-0
220
0
230
1
100
AcDbArc
50
-90
51
0
0
LINE
5
14D
100
AcDbEntity
8
PERIMETER
100
AcDbLine
10
11.771653543307087
20
-10.118110236220458
30
0
11
11.771653543307082
21
11.299212598425205
31
0
0
ARC
5
14E
100
AcDbEntity
8
PERIMETER
100
AcDbCircle
10
11.692913385826767
20
11.299212598425205
30
0
40
0.07874015748031607
210
0
220
-0
230
1
100
AcDbArc
50
0
51
90
0
ENDSEC
0
SECTION
2
OBJECTS
0
DICTIONARY
5
C
100
AcDbDictionary
3
ACAD_GROUP
350
D
3
ACAD_MLINESTYLE
350
17
0
DICTIONARY
5
D
100
AcDbDictionary
0
DICTIONARY
5
1A
330
C
100
AcDbDictionary
0
DICTIONARY
5
17
100
AcDbDictionary
0
ENDSEC
0
EOF
