0
SECTION
2
HEADER
9
$INSUNITS
70
1
9
$ACADVER
1
AC1014
9
$HANDSEED
5
FFFF
0
ENDSEC
0
SECTION
2
TABLES
0
TABLE
2
VPORT
5
8
100
AcDbSymbolTable
0
ENDTAB
0
TABLE
2
LTYPE
5
5
100
AcDbSymbolTable
70
2
0
LTYPE
5
14
100
AcDbSymbolTableRecord
100
AcDbLinetypeTableRecord
2
BYBLOCK
70
0
0
LTYPE
5
15
100
AcDbSymbolTableRecord
100
AcDbLinetypeTableRecord
2
BYLAYER
70
0
0
ENDTAB
0
TABLE
2
LAYER
5
2
100
AcDbSymbolTable
70
3
0
LAYER
5
50
100
AcDbSymbolTableRecord
100
AcDbLayerTableRecord
2
0
70
0
6
CONTINUOUS
0
LAYER
5
51
100
AcDbSymbolTableRecord
100
AcDbLayerTableRecord
2
CUTOUTS
70
0
62
1
6
CONTINUOUS
0
LAYER
5
52
100
AcDbSymbolTableRecord
100
AcDbLayerTableRecord
2
PERIMETER
70
0
62
5
6
CONTINUOUS
0
ENDTAB
0
TABLE
2
STYLE
5
3
100
AcDbSymbolTable
70
1
0
STYLE
5
11
100
AcDbSymbolTableRecord
100
AcDbTextStyleTableRecord
2
STANDARD
70
0
0
ENDTAB
0
TABLE
2
VIEW
5
6
100
AcDbSymbolTable
0
ENDTAB
0
TABLE
2
UCS
5
7
100
AcDbSymbolTable
0
ENDTAB
0
TABLE
2
APPID
5
9
100
AcDbSymbolTable
70
1
0
APPID
5
12
100
AcDbSymbolTableRecord
100
AcDbRegAppTableRecord
2
ACAD
70
0
0
ENDTAB
0
TABLE
2
DIMSTYLE
5
A
100
AcDbSymbolTable
0
ENDTAB
0
TABLE
2
BLOCK_RECORD
5
1
100
AcDbSymbolTable
70
2
0
BLOCK_RECORD
5
1F
100
AcDbSymbolTableRecord
100
AcDbBlockTableRecord
2
*MODEL_SPACE
0
BLOCK_RECORD
5
1B
100
AcDbSymbolTableRecord
100
AcDbBlockTableRecord
2
*PAPER_SPACE
0
ENDTAB
0
ENDSEC
0
SECTION
2
BLOCKS
0
BLOCK
5
20
100
AcDbEntity
100
AcDbBlockBegin
2
*MODEL_SPACE
0
ENDBLK
5
21
100
AcDbEntity
100
AcDbBlockEnd
0
BLOCK
5
1C
100
AcDbEntity
100
AcDbBlockBegin
2
*PAPER_SPACE
0
ENDBLK
5
1D
100
AcDbEntity
100
AcDbBlockEnd
0
ENDSEC
0
SECTION
2
ENTITIES
0
CIRCLE
5
100
100
AcDbEntity
8
CUTOUTS
100
AcDbCircle
10
10.334649780403742
20
-0.16732283464567374
30
0
40
0.12992125984251901
210
0
220
0
230
1
0
CIRCLE
5
101
100
AcDbEntity
8
CUTOUTS
100
AcDbCircle
10
10.334649780403742
20
5.3641732283464503
30
0
40
0.12992125984251901
210
0
220
0
230
1
0
CIRCLE
5
102
100
AcDbEntity
8
CUTOUTS
100
AcDbCircle
10
10.334649780403748
20
-12.273622047229708
30
0
40
0.12992125984251901
210
0
220
0
230
1
0
CIRCLE
5
103
100
AcDbEntity
8
CUTOUTS
100
AcDbCircle
10
10.33464978040374
20
11.93897637795275
30
0
40
0.12992125984251901
210
0
220
0
230
1
0
CIRCLE
5
104
100
AcDbEntity
8
CUTOUTS
100
AcDbCircle
10
10.33464978040374
20
11.348425196850389
30
0
40
0.12992125984251901
210
0
220
0
230
1
0
CIRCLE
5
105
100
AcDbEntity
8
CUTOUTS
100
AcDbCircle
10
10.334649780403748
20
-12.864173228332071
30
0
40
0.12992125984251901
210
0
220
0
230
1
0
CIRCLE
5
106
100
AcDbEntity
8
CUTOUTS
100
AcDbCircle
10
10.334649780403742
20
1.8602362204724356
30
0
40
0.12992125984251901
210
0
220
0
230
1
0
CIRCLE
5
107
100
AcDbEntity
8
CUTOUTS
100
AcDbCircle
10
10.334649780403742
20
-0.75787401574803592
30
0
40
0.12992125984251901
210
0
220
0
230
1
0
CIRCLE
5
108
100
AcDbEntity
8
CUTOUTS
100
AcDbCircle
10
-10.334649780403774
20
-0.16732283464567374
30
0
40
0.12992125984251901
210
0
220
0
230
1
0
CIRCLE
5
109
100
AcDbEntity
8
CUTOUTS
100
AcDbCircle
10
-10.334649780403774
20
5.3641732283464503
30
0
40
0.12992125984251901
210
0
220
0
230
1
0
CIRCLE
5
10A
100
AcDbEntity
8
CUTOUTS
100
AcDbCircle
10
-10.334649780403778
20
-12.273622047229708
30
0
40
0.12992125984251901
210
0
220
0
230
1
0
CIRCLE
5
10B
100
AcDbEntity
8
CUTOUTS
100
AcDbCircle
10
-10.334649780403771
20
11.93897637795275
30
0
40
0.12992125984251901
210
0
220
0
230
1
0
CIRCLE
5
10C
100
AcDbEntity
8
CUTOUTS
100
AcDbCircle
10
-10.334649780403771
20
11.348425196850389
30
0
40
0.12992125984251901
210
0
220
0
230
1
0
CIRCLE
5
10D
100
AcDbEntity
8
CUTOUTS
100
AcDbCircle
10
-10.334649780403778
20
-12.864173228332071
30
0
40
0.12992125984251901
210
0
220
0
230
1
0
CIRCLE
5
10E
100
AcDbEntity
8
CUTOUTS
100
AcDbCircle
10
-10.334649780403774
20
1.8602362204724356
30
0
40
0.12992125984251901
210
0
220
0
230
1
0
CIRCLE
5
10F
100
AcDbEntity
8
CUTOUTS
100
AcDbCircle
10
-10.334649780403774
20
-0.75787401574803592
30
0
40
0.12992125984251901
210
0
220
0
230
1
0
ARC
5
110
100
AcDbEntity
8
PERIMETER
100
AcDbCircle
10
11.732287554519232
20
-13.710629921245442
30
0
40
0.07874015748031328
210
-0
220
0
230
1
100
AcDbArc
50
-90
51
8.7901376859282907e-06
0
LINE
5
111
100
AcDbEntity
8
PERIMETER
100
AcDbLine
10
11.811027711999543
20
-13.710629909153951
30
0
11
11.811023643207367
21
12.785433082957656
31
0
0
ARC
5
112
100
AcDbEntity
8
PERIMETER
100
AcDbCircle
10
11.732283485727049
20
12.785433070866144
30
0
40
0.078740157480318401
210
0
220
-0
230
1
100
AcDbArc
50
8.7901376859282907e-06
51
89.999999999997414
0
LINE
5
113
100
AcDbEntity
8
PERIMETER
100
AcDbLine
10
11.732283485727052
20
12.864173228346463
30
0
11
10.638075070125371
21
12.864173228346466
31
0
0
ARC
5
114
100
AcDbEntity
8
PERIMETER
100
AcDbCircle
10
10.638075070125371
20
12.942913385826779
30
0
40
0.078740157480314793
210
0
220
0
230
1
100
AcDbArc
50
225.00000000034913
51
270
0
LINE
5
115
100
AcDbEntity
8
PERIMETER
100
AcDbLine
10
10.582397370819683
20
12.887235686520413
30
0
11
8.2317238754687114
21
15.237909181842786
31
0
0
ARC
5
116
100
AcDbEntity
8
PERIMETER
100
AcDbCircle
10
8.2874015747743996
20
15.29358688114915
30
0
40
0.078740157480314668
210
0
220
0
230
1
100
AcDbArc
50
180
51
225.00000000034822
0
LINE
5
117
100
AcDbEntity
8
PERIMETER
100
AcDbLine
10
8.2086614172940848
20
15.29358688114915
30
0
11
8.2086614172940848
21
16.387795275590552
31
0
0
ARC
5
118
100
AcDbEntity
8
PERIMETER
100
AcDbCircle
10
8.12992125981377
20
16.387795275590552
30
0
40
0.078740157480314668
210
0
220
-0
230
1
100
AcDbArc
50
0
51
90
0
LINE
5
119
100
AcDbEntity
8
PERIMETER
100
AcDbLine
10
8.12992125981377
20
16.466535433070867
30
0
11
-8.1299212598138038
21
16.466535433070849
31
0
0
ARC
5
11A
100
AcDbEntity
8
PERIMETER
100
AcDbCircle
10
-8.129921259813802
20
16.387795275590538
30
0
40
0.07874015748031607
210
0
220
0
230
1
100
AcDbArc
50
90.000000000001307
51
180
0
LINE
5
11B
100
AcDbEntity
8
PERIMETER
100
AcDbLine
10
-8.2086614172941168
20
16.387795275590538
30
0
11
-8.208661417294115
21
15.293586881149142
31
0
0
ARC
5
11C
100
AcDbEntity
8
PERIMETER
100
AcDbCircle
10
-8.2874015747744298
20
15.293586881149141
30
0
40
0.078740157480314793
210
-0
220
0
230
1
100
AcDbArc
50
-45.000000000348237
51
0
0
LINE
5
11D
100
AcDbEntity
8
PERIMETER
100
AcDbLine
10
-8.2317238754687416
20
15.237909181842776
30
0
11
-10.582397370819711
21
12.887235686520405
31
0
0
ARC
5
11E
100
AcDbEntity
8
PERIMETER
100
AcDbCircle
10
-10.638075070125399
20
12.942913385826769
30
0
40
0.07874015748031328
210
-0
220
0
230
1
100
AcDbArc
50
270
51
314.99999999965178
0
LINE
5
11F
100
AcDbEntity
8
PERIMETER
100
AcDbLine
10
-10.638075070125399
20
12.864173228346454
30
0
11
-11.732283485727079
21
12.864173228346454
31
0
0
ARC
5
120
100
AcDbEntity
8
PERIMETER
100
AcDbCircle
10
-11.732283485727077
20
12.785433070866139
30
0
40
0.07874015748031607
210
0
220
0
230
1
100
AcDbArc
50
90.000000000001307
51
179.99999120986232
0
LINE
5
121
100
AcDbEntity
8
PERIMETER
100
AcDbLine
10
-11.811023643207392
20
12.785433082957645
30
0
11
-11.811027711999545
21
-13.710629909153946
31
0
0
ARC
5
122
100
AcDbEntity
8
PERIMETER
100
AcDbCircle
10
-11.732287554519226
20
-13.710629921245451
30
0
40
0.078740157480318401
210
0
220
0
230
1
100
AcDbArc
50
179.99999120986232
51
269.99999999999613
0
LINE
5
123
100
AcDbEntity
8
PERIMETER
100
AcDbLine
10
-11.732287554519232
20
-13.789370078725769
30
0
11
-10.63807918123789
21
-13.789370078725769
31
0
0
ARC
5
124
100
AcDbEntity
8
PERIMETER
100
AcDbCircle
10
-10.63807918123789
20
-13.868110236206087
30
0
40
0.078740157480314793
210
0
220
-0
230
1
100
AcDbArc
50
45.000000000000917
51
90
0
LINE
5
125
100
AcDbEntity
8
PERIMETER
100
AcDbLine
10
-10.582401481931864
20
-13.81243253690006
30
0
11
-8.2317279865952102
21
-16.163106032236755
31
0
0
ARC
5
126
100
AcDbEntity
8
PERIMETER
100
AcDbCircle
10
-8.2874056859012359
20
-16.218783731542779
30
0
40
0.078740157480314668
210
0
220
-0
230
1
100
AcDbArc
50
0
51
44.999999999999091
0
LINE
5
127
100
AcDbEntity
8
PERIMETER
100
AcDbLine
10
-8.2086655284209211
20
-16.218783731542779
30
0
11
-8.2086655284209211
21
-16.387795275590552
31
0
0
ARC
5
128
100
AcDbEntity
8
PERIMETER
100
AcDbCircle
10
-8.1299253709406045
20
-16.387795275590548
30
0
40
0.07874015748031607
210
0
220
0
230
1
100
AcDbArc
50
180
51
269.99999999999744
0
LINE
5
129
100
AcDbEntity
8
PERIMETER
100
AcDbLine
10
-8.1299253709406081
20
-16.466535433070867
30
0
11
8.1299253709406099
21
-16.46653543307087
31
0
0
ARC
5
12A
100
AcDbEntity
8
PERIMETER
100
AcDbCircle
10
8.1299253709406081
20
-16.387795275590548
30
0
40
0.078740157480318873
210
-0
220
0
230
1
100
AcDbArc
50
270.00000000000125
51
360
0
LINE
5
12B
100
AcDbEntity
8
PERIMETER
100
AcDbLine
10
8.2086655284209264
20
-16.387795275590552
30
0
11
8.2086655284209264
21
-16.218783731542775
31
0
0
ARC
5
12C
100
AcDbEntity
8
PERIMETER
100
AcDbCircle
10
8.2874056859012413
20
-16.218783731542775
30
0
40
0.078740157480315792
210
0
220
0
230
1
100
AcDbArc
50
135.00000000000091
51
180
0
LINE
5
12D
100
AcDbEntity
8
PERIMETER
100
AcDbLine
10
8.231727986595212
20
-16.163106032236747
30
0
11
10.582401481931871
21
-13.812432536900044
31
0
0
ARC
5
12E
100
AcDbEntity
8
PERIMETER
100
AcDbCircle
10
10.638079181237897
20
-13.868110236206071
30
0
40
0.07874015748031607
210
0
220
-0
230
1
100
AcDbArc
50
90
51
134.99999999999818
0
LINE
5
12F
100
AcDbEntity
8
PERIMETER
100
AcDbLine
10
10.638079181237897
20
-13.789370078725755
30
0
11
11.732287554519232
21
-13.789370078725755
31
0
0
ENDSEC
0
SECTION
2
OBJECTS
0
DICTIONARY
5
C
100
AcDbDictionary
3
ACAD_GROUP
350
D
3
ACAD_MLINESTYLE
350
17
0
DICTIONARY
5
D
100
AcDbDictionary
0
DICTIONARY
5
1A
330
C
100
AcDbDictionary
0
DICTIONARY
5
17
100
AcDbDictionary
0
ENDSEC
0
EOF
