0
SECTION
2
HEADER
9
$INSUNITS
70
1
9
$ACADVER
1
AC1014
9
$HANDSEED
5
FFFF
0
ENDSEC
0
SECTION
2
TABLES
0
TABLE
2
VPORT
5
8
100
AcDbSymbolTable
0
ENDTAB
0
TABLE
2
LTYPE
5
5
100
AcDbSymbolTable
70
2
0
LTYPE
5
14
100
AcDbSymbolTableRecord
100
AcDbLinetypeTableRecord
2
BYBLOCK
70
0
0
LTYPE
5
15
100
AcDbSymbolTableRecord
100
AcDbLinetypeTableRecord
2
BYLAYER
70
0
0
ENDTAB
0
TABLE
2
LAYER
5
2
100
AcDbSymbolTable
70
3
0
LAYER
5
50
100
AcDbSymbolTableRecord
100
AcDbLayerTableRecord
2
0
70
0
6
CONTINUOUS
0
LAYER
5
51
100
AcDbSymbolTableRecord
100
AcDbLayerTableRecord
2
CUTOUTS
70
0
62
1
6
CONTINUOUS
0
LAYER
5
52
100
AcDbSymbolTableRecord
100
AcDbLayerTableRecord
2
PERIMETER
70
0
62
5
6
CONTINUOUS
0
ENDTAB
0
TABLE
2
STYLE
5
3
100
AcDbSymbolTable
70
1
0
STYLE
5
11
100
AcDbSymbolTableRecord
100
AcDbTextStyleTableRecord
2
STANDARD
70
0
0
ENDTAB
0
TABLE
2
VIEW
5
6
100
AcDbSymbolTable
0
ENDTAB
0
TABLE
2
UCS
5
7
100
AcDbSymbolTable
0
ENDTAB
0
TABLE
2
APPID
5
9
100
AcDbSymbolTable
70
1
0
APPID
5
12
100
AcDbSymbolTableRecord
100
AcDbRegAppTableRecord
2
ACAD
70
0
0
ENDTAB
0
TABLE
2
DIMSTYLE
5
A
100
AcDbSymbolTable
0
ENDTAB
0
TABLE
2
BLOCK_RECORD
5
1
100
AcDbSymbolTable
70
2
0
BLOCK_RECORD
5
1F
100
AcDbSymbolTableRecord
100
AcDbBlockTableRecord
2
*MODEL_SPACE
0
BLOCK_RECORD
5
1B
100
AcDbSymbolTableRecord
100
AcDbBlockTableRecord
2
*PAPER_SPACE
0
ENDTAB
0
ENDSEC
0
SECTION
2
BLOCKS
0
BLOCK
5
20
100
AcDbEntity
100
AcDbBlockBegin
2
*MODEL_SPACE
0
ENDBLK
5
21
100
AcDbEntity
100
AcDbBlockEnd
0
BLOCK
5
1C
100
AcDbEntity
100
AcDbBlockBegin
2
*PAPER_SPACE
0
ENDBLK
5
1D
100
AcDbEntity
100
AcDbBlockEnd
0
ENDSEC
0
SECTION
2
ENTITIES
0
CIRCLE
5
100
100
AcDbEntity
8
CUTOUTS
100
AcDbCircle
10
-3.6741201581548549e-15
20
-10.984251968503935
30
0
40
0.12992125984251968
210
0
220
0
230
1
0
CIRCLE
5
101
100
AcDbEntity
8
CUTOUTS
100
AcDbCircle
10
11.220472440944878
20
0.31496062992125484
30
0
40
0.12992125984251901
210
0
220
0
230
1
0
CIRCLE
5
102
100
AcDbEntity
8
CUTOUTS
100
AcDbCircle
10
7.9921259842519623
20
-10.984251968503939
30
0
40
0.12992125984251901
210
0
220
0
230
1
0
CIRCLE
5
103
100
AcDbEntity
8
CUTOUTS
100
AcDbCircle
10
-11.220472440944883
20
-7.7559055118110267
30
0
40
0.12992125984251901
210
0
220
0
230
1
0
CIRCLE
5
104
100
AcDbEntity
8
CUTOUTS
100
AcDbCircle
10
-11.220472440944883
20
8.3858267716535408
30
0
40
0.12992125984251901
210
0
220
0
230
1
0
CIRCLE
5
105
100
AcDbEntity
8
CUTOUTS
100
AcDbCircle
10
2.5984251968503917
20
10.984251968503935
30
0
40
0.1299212598425197
210
0
220
0
230
1
0
CIRCLE
5
106
100
AcDbEntity
8
CUTOUTS
100
AcDbCircle
10
-8.6220472440944889
20
10.984251968503935
30
0
40
0.12992125984251901
210
0
220
0
230
1
0
CIRCLE
5
107
100
AcDbEntity
8
CUTOUTS
100
AcDbCircle
10
-2.086614173228349
20
10.984251968503933
30
0
40
0.1299212598425197
210
0
220
0
230
1
0
CIRCLE
5
108
100
AcDbEntity
8
CUTOUTS
100
AcDbCircle
10
8.6220472440944889
20
10.984251968503935
30
0
40
0.12992125984251901
210
0
220
0
230
1
0
CIRCLE
5
109
100
AcDbEntity
8
CUTOUTS
100
AcDbCircle
10
-11.220472440944883
20
0.31496062992125728
30
0
40
0.12992125984251901
210
0
220
0
230
1
0
CIRCLE
5
10A
100
AcDbEntity
8
CUTOUTS
100
AcDbCircle
10
-7.9921259842519712
20
-10.984251968503935
30
0
40
0.12992125984251901
210
0
220
0
230
1
0
CIRCLE
5
10B
100
AcDbEntity
8
CUTOUTS
100
AcDbCircle
10
11.220472440944876
20
-7.7559055118110294
30
0
40
0.12992125984251901
210
0
220
0
230
1
0
CIRCLE
5
10C
100
AcDbEntity
8
CUTOUTS
100
AcDbCircle
10
11.220472440944881
20
8.3858267716535391
30
0
40
0.12992125984251901
210
0
220
0
230
1
0
ARC
5
10D
100
AcDbEntity
8
PERIMETER
100
AcDbCircle
10
-9.0944881889763813
20
11.456692913385822
30
0
40
0.078740157480314668
210
0
220
0
230
1
100
AcDbArc
50
90
51
180
0
LINE
5
10E
100
AcDbEntity
8
PERIMETER
100
AcDbLine
10
-1.6141732283464607
20
11.535433070866135
30
0
11
-9.0944881889763813
21
11.535433070866137
31
0
0
ARC
5
10F
100
AcDbEntity
8
PERIMETER
100
AcDbCircle
10
-1.6141732283464603
20
11.456692913385821
30
0
40
0.078740157480314668
210
0
220
-0
230
1
100
AcDbArc
50
0
51
90.000000000000327
0
LINE
5
110
100
AcDbEntity
8
PERIMETER
100
AcDbLine
10
-1.5354330708661452
20
8.1496062992125911
30
0
11
-1.5354330708661457
21
11.456692913385821
31
0
0
LINE
5
111
100
AcDbEntity
8
PERIMETER
100
AcDbLine
10
-1.2598425196850429
20
7.8740157480314901
30
0
11
-1.5354330708661452
21
8.1496062992125911
31
0
0
LINE
5
112
100
AcDbEntity
8
PERIMETER
100
AcDbLine
10
1.2598425196850358
20
7.874015748031491
30
0
11
-1.2598425196850429
21
7.8740157480314901
31
0
0
LINE
5
113
100
AcDbEntity
8
PERIMETER
100
AcDbLine
10
1.5354330708661381
20
8.1496062992125911
30
0
11
1.2598425196850358
21
7.874015748031491
31
0
0
LINE
5
114
100
AcDbEntity
8
PERIMETER
100
AcDbLine
10
1.5354330708661386
20
10.314960629921254
30
0
11
1.5354330708661381
21
8.1496062992125911
31
0
0
ARC
5
115
100
AcDbEntity
8
PERIMETER
100
AcDbCircle
10
1.6141732283464532
20
10.314960629921254
30
0
40
0.078740157480314668
210
0
220
0
230
1
100
AcDbArc
50
90.000000000000171
51
180
0
LINE
5
116
100
AcDbEntity
8
PERIMETER
100
AcDbLine
10
1.9685039370078707
20
10.393700787401569
30
0
11
1.6141732283464529
21
10.393700787401567
31
0
0
ARC
5
117
100
AcDbEntity
8
PERIMETER
100
AcDbCircle
10
1.9685039370078707
20
10.472440944881884
30
0
40
0.078740157480314668
210
-0
220
0
230
1
100
AcDbArc
50
-90
51
0
0
LINE
5
118
100
AcDbEntity
8
PERIMETER
100
AcDbLine
10
2.0472440944881862
20
11.456692913385822
30
0
11
2.0472440944881858
21
10.472440944881884
31
0
0
ARC
5
119
100
AcDbEntity
8
PERIMETER
100
AcDbCircle
10
2.1259842519685006
20
11.456692913385822
30
0
40
0.078740157480314668
210
0
220
0
230
1
100
AcDbArc
50
90
51
180
0
LINE
5
11A
100
AcDbEntity
8
PERIMETER
100
AcDbLine
10
9.094488188976376
20
11.535433070866135
30
0
11
2.1259842519685006
21
11.535433070866137
31
0
0
ARC
5
11B
100
AcDbEntity
8
PERIMETER
100
AcDbCircle
10
9.0944881889763778
20
11.456692913385822
30
0
40
0.07874015748031328
210
-0
220
0
230
1
100
AcDbArc
50
0
51
90.000000000001307
0
LINE
5
11C
100
AcDbEntity
8
PERIMETER
100
AcDbLine
10
9.1732283464566908
20
10.472440944881882
30
0
11
9.1732283464566908
21
11.456692913385821
31
0
0
ARC
5
11D
100
AcDbEntity
8
PERIMETER
100
AcDbCircle
10
9.2519685039370057
20
10.472440944881882
30
0
40
0.078740157480314668
210
0
220
0
230
1
100
AcDbArc
50
180
51
270
0
LINE
5
11E
100
AcDbEntity
8
PERIMETER
100
AcDbLine
10
10.551181102362214
20
10.393700787401571
30
0
11
9.2519685039370057
21
10.393700787401567
31
0
0
ARC
5
11F
100
AcDbEntity
8
PERIMETER
100
AcDbCircle
10
10.551181102362214
20
10.314960629921256
30
0
40
0.078740157480314668
210
0
220
-0
230
1
100
AcDbArc
50
0
51
90
0
LINE
5
120
100
AcDbEntity
8
PERIMETER
100
AcDbLine
10
10.629921259842522
20
9.0157480314960576
30
0
11
10.629921259842529
21
10.314960629921256
31
0
0
ARC
5
121
100
AcDbEntity
8
PERIMETER
100
AcDbCircle
10
10.708661417322837
20
9.0157480314960576
30
0
40
0.078740157480314668
210
0
220
0
230
1
100
AcDbArc
50
180
51
270
0
LINE
5
122
100
AcDbEntity
8
PERIMETER
100
AcDbLine
10
11.69291338582677
20
8.9370078740157393
30
0
11
10.708661417322837
21
8.9370078740157428
31
0
0
ARC
5
123
100
AcDbEntity
8
PERIMETER
100
AcDbCircle
10
11.69291338582677
20
8.8582677165354262
30
0
40
0.078740157480314668
210
-0
220
0
230
1
100
AcDbArc
50
0
51
90
0
LINE
5
124
100
AcDbEntity
8
PERIMETER
100
AcDbLine
10
11.77165354330708
20
-8.2283464566929183
30
0
11
11.771653543307085
21
8.8582677165354244
31
0
0
ARC
5
125
100
AcDbEntity
8
PERIMETER
100
AcDbCircle
10
11.692913385826767
20
-8.2283464566929183
30
0
40
0.07874015748031328
210
0
220
0
230
1
100
AcDbArc
50
-90.000000000001322
51
0
0
LINE
5
126
100
AcDbEntity
8
PERIMETER
100
AcDbLine
10
8.8582677165354262
20
-8.3070866141732314
30
0
11
11.692913385826765
21
-8.3070866141732331
31
0
0
LINE
5
127
100
AcDbEntity
8
PERIMETER
100
AcDbLine
10
8.5433070866141652
20
-8.6220472440944924
30
0
11
8.8582677165354262
21
-8.3070866141732314
31
0
0
LINE
5
128
100
AcDbEntity
8
PERIMETER
100
AcDbLine
10
8.5433070866141634
20
-11.456692913385828
30
0
11
8.5433070866141652
21
-8.6220472440944924
31
0
0
ARC
5
129
100
AcDbEntity
8
PERIMETER
100
AcDbCircle
10
8.4645669291338486
20
-11.456692913385828
30
0
40
0.078740157480314668
210
-0
220
0
230
1
100
AcDbArc
50
-90
51
0
0
LINE
5
12A
100
AcDbEntity
8
PERIMETER
100
AcDbLine
10
-8.4645669291338628
20
-11.535433070866139
30
0
11
8.4645669291338486
21
-11.535433070866143
31
0
0
ARC
5
12B
100
AcDbEntity
8
PERIMETER
100
AcDbCircle
10
-8.4645669291338628
20
-11.456692913385826
30
0
40
0.07874015748031328
210
0
220
0
230
1
100
AcDbArc
50
180
51
270
0
LINE
5
12C
100
AcDbEntity
8
PERIMETER
100
AcDbLine
10
-8.5433070866141758
20
-8.6220472440944889
30
0
11
-8.5433070866141758
21
-11.456692913385826
31
0
0
LINE
5
12D
100
AcDbEntity
8
PERIMETER
100
AcDbLine
10
-8.8582677165354351
20
-8.3070866141732296
30
0
11
-8.5433070866141758
21
-8.6220472440944889
31
0
0
LINE
5
12E
100
AcDbEntity
8
PERIMETER
100
AcDbLine
10
-11.692913385826774
20
-8.3070866141732331
30
0
11
-8.8582677165354351
21
-8.3070866141732296
31
0
0
ARC
5
12F
100
AcDbEntity
8
PERIMETER
100
AcDbCircle
10
-11.692913385826774
20
-8.2283464566929183
30
0
40
0.078740157480314668
210
0
220
0
230
1
100
AcDbArc
50
180
51
270
0
LINE
5
130
100
AcDbEntity
8
PERIMETER
100
AcDbLine
10
-11.771653543307091
20
8.8582677165354244
30
0
11
-11.771653543307089
21
-8.2283464566929183
31
0
0
ARC
5
131
100
AcDbEntity
8
PERIMETER
100
AcDbCircle
10
-11.692913385826774
20
8.8582677165354244
30
0
40
0.07874015748031607
210
0
220
-0
230
1
100
AcDbArc
50
90
51
180
0
LINE
5
132
100
AcDbEntity
8
PERIMETER
100
AcDbLine
10
-10.708661417322837
20
8.937007874015741
30
0
11
-11.692913385826774
21
8.9370078740157393
31
0
0
ARC
5
133
100
AcDbEntity
8
PERIMETER
100
AcDbCircle
10
-10.708661417322837
20
9.0157480314960559
30
0
40
0.078740157480314668
210
-0
220
0
230
1
100
AcDbArc
50
-90
51
0
0
LINE
5
134
100
AcDbEntity
8
PERIMETER
100
AcDbLine
10
-10.629921259842529
20
10.314960629921256
30
0
11
-10.629921259842522
21
9.0157480314960559
31
0
0
ARC
5
135
100
AcDbEntity
8
PERIMETER
100
AcDbCircle
10
-10.551181102362216
20
10.314960629921256
30
0
40
0.078740157480314668
210
0
220
-0
230
1
100
AcDbArc
50
90
51
180
0
LINE
5
136
100
AcDbEntity
8
PERIMETER
100
AcDbLine
10
-9.2519685039370092
20
10.393700787401567
30
0
11
-10.551181102362216
21
10.393700787401571
31
0
0
ARC
5
137
100
AcDbEntity
8
PERIMETER
100
AcDbCircle
10
-9.2519685039370092
20
10.472440944881882
30
0
40
0.078740157480314668
210
-0
220
0
230
1
100
AcDbArc
50
-90
51
0
0
LINE
5
138
100
AcDbEntity
8
PERIMETER
100
AcDbLine
10
-9.1732283464566944
20
11.456692913385822
30
0
11
-9.1732283464566944
21
10.472440944881882
31
0
0
ENDSEC
0
SECTION
2
OBJECTS
0
DICTIONARY
5
C
100
AcDbDictionary
3
ACAD_GROUP
350
D
3
ACAD_MLINESTYLE
350
17
0
DICTIONARY
5
D
100
AcDbDictionary
0
DICTIONARY
5
1A
330
C
100
AcDbDictionary
0
DICTIONARY
5
17
100
AcDbDictionary
0
ENDSEC
0
EOF
