0
SECTION
2
HEADER
9
$INSUNITS
70
1
9
$ACADVER
1
AC1014
9
$HANDSEED
5
FFFF
0
ENDSEC
0
SECTION
2
TABLES
0
TABLE
2
VPORT
5
8
100
AcDbSymbolTable
0
ENDTAB
0
TABLE
2
LTYPE
5
5
100
AcDbSymbolTable
70
2
0
LTYPE
5
14
100
AcDbSymbolTableRecord
100
AcDbLinetypeTableRecord
2
BYBLOCK
70
0
0
LTYPE
5
15
100
AcDbSymbolTableRecord
100
AcDbLinetypeTableRecord
2
BYLAYER
70
0
0
ENDTAB
0
TABLE
2
LAYER
5
2
100
AcDbSymbolTable
70
3
0
LAYER
5
50
100
AcDbSymbolTableRecord
100
AcDbLayerTableRecord
2
0
70
0
6
CONTINUOUS
0
LAYER
5
51
100
AcDbSymbolTableRecord
100
AcDbLayerTableRecord
2
CUTOUTS
70
0
62
1
6
CONTINUOUS
0
LAYER
5
52
100
AcDbSymbolTableRecord
100
AcDbLayerTableRecord
2
PERIMETER
70
0
62
5
6
CONTINUOUS
0
ENDTAB
0
TABLE
2
STYLE
5
3
100
AcDbSymbolTable
70
1
0
STYLE
5
11
100
AcDbSymbolTableRecord
100
AcDbTextStyleTableRecord
2
STANDARD
70
0
0
ENDTAB
0
TABLE
2
VIEW
5
6
100
AcDbSymbolTable
0
ENDTAB
0
TABLE
2
UCS
5
7
100
AcDbSymbolTable
0
ENDTAB
0
TABLE
2
APPID
5
9
100
AcDbSymbolTable
70
1
0
APPID
5
12
100
AcDbSymbolTableRecord
100
AcDbRegAppTableRecord
2
ACAD
70
0
0
ENDTAB
0
TABLE
2
DIMSTYLE
5
A
100
AcDbSymbolTable
0
ENDTAB
0
TABLE
2
BLOCK_RECORD
5
1
100
AcDbSymbolTable
70
2
0
BLOCK_RECORD
5
1F
100
AcDbSymbolTableRecord
100
AcDbBlockTableRecord
2
*MODEL_SPACE
0
BLOCK_RECORD
5
1B
100
AcDbSymbolTableRecord
100
AcDbBlockTableRecord
2
*PAPER_SPACE
0
ENDTAB
0
ENDSEC
0
SECTION
2
BLOCKS
0
BLOCK
5
20
100
AcDbEntity
100
AcDbBlockBegin
2
*MODEL_SPACE
0
ENDBLK
5
21
100
AcDbEntity
100
AcDbBlockEnd
0
BLOCK
5
1C
100
AcDbEntity
100
AcDbBlockBegin
2
*PAPER_SPACE
0
ENDBLK
5
1D
100
AcDbEntity
100
AcDbBlockEnd
0
ENDSEC
0
SECTION
2
ENTITIES
0
CIRCLE
5
100
100
AcDbEntity
8
CUTOUTS
100
AcDbCircle
10
11.326771653543288
20
-7.2578740157480244
30
0
40
0.066929133858268389
210
0
220
0
230
1
0
CIRCLE
5
101
100
AcDbEntity
8
CUTOUTS
100
AcDbCircle
10
11.326771653543286
20
-4.5413385826771586
30
0
40
0.066929133858268389
210
0
220
0
230
1
0
CIRCLE
5
102
100
AcDbEntity
8
CUTOUTS
100
AcDbCircle
10
10.984251968503916
20
-3.6496062992125915
30
0
40
0.066929133858268389
210
0
220
0
230
1
0
CIRCLE
5
103
100
AcDbEntity
8
CUTOUTS
100
AcDbCircle
10
10.641732283464547
20
-4.5413385826771586
30
0
40
0.066929133858268389
210
0
220
0
230
1
0
CIRCLE
5
104
100
AcDbEntity
8
CUTOUTS
100
AcDbCircle
10
10.641732283464549
20
-7.2578740157480262
30
0
40
0.066929133858268389
210
0
220
0
230
1
0
CIRCLE
5
105
100
AcDbEntity
8
CUTOUTS
100
AcDbCircle
10
10.984251968503914
20
-1.9685039370078676
30
0
40
0.066929133858268389
210
0
220
0
230
1
0
CIRCLE
5
106
100
AcDbEntity
8
CUTOUTS
100
AcDbCircle
10
9.4685039370078723
20
7.6771653543306941
30
0
40
0.12992125984251901
210
0
220
0
230
1
0
CIRCLE
5
107
100
AcDbEntity
8
CUTOUTS
100
AcDbCircle
10
-12.499999999999998
20
5.4921259842519667
30
0
40
0.12992125984251901
210
0
220
0
230
1
0
CIRCLE
5
108
100
AcDbEntity
8
CUTOUTS
100
AcDbCircle
10
-8.7598425196850371
20
-11.41732283464567
30
0
40
0.12992125984251901
210
0
220
0
230
1
0
CIRCLE
5
109
100
AcDbEntity
8
CUTOUTS
100
AcDbCircle
10
8.7598425196850407
20
-11.417322834645661
30
0
40
0.12992125984251901
210
0
220
0
230
1
0
CIRCLE
5
10A
100
AcDbEntity
8
CUTOUTS
100
AcDbCircle
10
12.499999999999995
20
-1.2479548786457204e-14
30
0
40
0.1299212598425204
210
0
220
0
230
1
0
CIRCLE
5
10B
100
AcDbEntity
8
CUTOUTS
100
AcDbCircle
10
12.499999999999998
20
7.6771653543306941
30
0
40
0.1299212598425204
210
0
220
0
230
1
0
CIRCLE
5
10C
100
AcDbEntity
8
CUTOUTS
100
AcDbCircle
10
1.6566539530915641e-15
20
11.417322834645663
30
0
40
0.12992125984251968
210
0
220
0
230
1
0
CIRCLE
5
10D
100
AcDbEntity
8
CUTOUTS
100
AcDbCircle
10
-8.7598425196850354
20
11.417322834645663
30
0
40
0.12992125984251901
210
0
220
0
230
1
0
CIRCLE
5
10E
100
AcDbEntity
8
CUTOUTS
100
AcDbCircle
10
8.7598425196850389
20
11.417322834645653
30
0
40
0.12992125984251901
210
0
220
0
230
1
0
CIRCLE
5
10F
100
AcDbEntity
8
CUTOUTS
100
AcDbCircle
10
9.4685039370078687
20
-9.646301639975574e-15
30
0
40
0.12992125984251901
210
0
220
0
230
1
0
CIRCLE
5
110
100
AcDbEntity
8
CUTOUTS
100
AcDbCircle
10
12.499999999999998
20
-7.6771653543307021
30
0
40
0.1299212598425204
210
0
220
0
230
1
0
CIRCLE
5
111
100
AcDbEntity
8
CUTOUTS
100
AcDbCircle
10
2.3355477583108641e-15
20
-11.41732283464567
30
0
40
0.12992125984251968
210
0
220
0
230
1
0
CIRCLE
5
112
100
AcDbEntity
8
CUTOUTS
100
AcDbCircle
10
-12.499999999999998
20
-4.2146006299605871e-15
30
0
40
0.12992125984251901
210
0
220
0
230
1
0
CIRCLE
5
113
100
AcDbEntity
8
CUTOUTS
100
AcDbCircle
10
-12.499999999999998
20
-5.4921259842519747
30
0
40
0.12992125984251901
210
0
220
0
230
1
0
CIRCLE
5
114
100
AcDbEntity
8
CUTOUTS
100
AcDbCircle
10
9.4685039370078723
20
-7.6771653543307021
30
0
40
0.12992125984251901
210
0
220
0
230
1
0
LINE
5
115
100
AcDbEntity
8
CUTOUTS
100
AcDbLine
10
11.377952755905479
20
-2.1200787401574779
30
0
11
11.377952755905479
21
-3.4980314960629895
31
0
0
LINE
5
116
100
AcDbEntity
8
CUTOUTS
100
AcDbLine
10
11.377952755905479
20
-3.4980314960629895
30
0
11
10.590551181102329
21
-3.4980314960629895
31
0
0
LINE
5
117
100
AcDbEntity
8
CUTOUTS
100
AcDbLine
10
10.590551181102329
20
-3.4980314960629895
30
0
11
10.590551181102329
21
-2.1200787401574779
31
0
0
LINE
5
118
100
AcDbEntity
8
CUTOUTS
100
AcDbLine
10
10.590551181102329
20
-2.1200787401574779
30
0
11
11.377952755905479
21
-2.1200787401574779
31
0
0
LINE
5
119
100
AcDbEntity
8
CUTOUTS
100
AcDbLine
10
11.52559055118104
20
-4.9350393700787381
30
0
11
11.52559055118104
21
-6.7854330708661399
31
0
0
LINE
5
11A
100
AcDbEntity
8
CUTOUTS
100
AcDbLine
10
11.52559055118104
20
-6.7854330708661399
30
0
11
10.442913385826708
21
-6.7854330708661399
31
0
0
LINE
5
11B
100
AcDbEntity
8
CUTOUTS
100
AcDbLine
10
10.442913385826708
20
-6.7854330708661399
30
0
11
10.442913385826708
21
-4.9350393700787381
31
0
0
LINE
5
11C
100
AcDbEntity
8
CUTOUTS
100
AcDbLine
10
10.442913385826708
20
-4.9350393700787381
30
0
11
11.52559055118104
21
-4.9350393700787381
31
0
0
LINE
5
11D
100
AcDbEntity
8
PERIMETER
100
AcDbLine
10
11.901451671317155
20
8.4448818897637636
30
0
11
9.5275590551181057
21
10.818774505962814
31
0
0
LINE
5
11E
100
AcDbEntity
8
PERIMETER
100
AcDbLine
10
9.5275590551181057
20
10.818774505962814
30
0
11
9.5275590551181022
21
12.007874015748014
31
0
0
LINE
5
11F
100
AcDbEntity
8
PERIMETER
100
AcDbLine
10
9.5275590551181022
20
12.007874015748014
30
0
11
-9.5275590551181164
21
12.007874015748021
31
0
0
LINE
5
120
100
AcDbEntity
8
PERIMETER
100
AcDbLine
10
-9.5275590551181164
20
12.007874015748021
30
0
11
-9.5275590551181164
21
10.818774505962821
31
0
0
LINE
5
121
100
AcDbEntity
8
PERIMETER
100
AcDbLine
10
-9.5275590551181164
20
10.818774505962821
30
0
11
-11.901451671317171
21
8.4448818897637707
31
0
0
LINE
5
122
100
AcDbEntity
8
PERIMETER
100
AcDbLine
10
-11.901451671317171
20
8.4448818897637707
30
0
11
-11.988188976377964
21
8.4448818897637725
31
0
0
LINE
5
123
100
AcDbEntity
8
PERIMETER
100
AcDbLine
10
-11.988188976377964
20
8.4448818897637725
30
0
11
-11.988188976377959
21
6.0826771653543226
31
0
0
LINE
5
124
100
AcDbEntity
8
PERIMETER
100
AcDbLine
10
-11.988188976377959
20
6.0826771653543226
30
0
11
-13.09055118110237
21
6.0826771653543217
31
0
0
LINE
5
125
100
AcDbEntity
8
PERIMETER
100
AcDbLine
10
-13.09055118110237
20
6.0826771653543217
30
0
11
-13.09055118110237
21
-6.0826771653543386
31
0
0
LINE
5
126
100
AcDbEntity
8
PERIMETER
100
AcDbLine
10
-13.09055118110237
20
-6.0826771653543386
30
0
11
-11.988188976377959
21
-6.0826771653543394
31
0
0
LINE
5
127
100
AcDbEntity
8
PERIMETER
100
AcDbLine
10
-11.988188976377959
20
-6.0826771653543394
30
0
11
-11.988188976377964
21
-8.4448818897637903
31
0
0
LINE
5
128
100
AcDbEntity
8
PERIMETER
100
AcDbLine
10
-11.988188976377964
20
-8.4448818897637903
30
0
11
-11.901451671317171
21
-8.4448818897637867
31
0
0
LINE
5
129
100
AcDbEntity
8
PERIMETER
100
AcDbLine
10
-11.901451671317171
20
-8.4448818897637867
30
0
11
-9.5275590551181164
21
-10.818774505962837
31
0
0
LINE
5
12A
100
AcDbEntity
8
PERIMETER
100
AcDbLine
10
-9.5275590551181164
20
-10.818774505962837
30
0
11
-9.5275590551181182
21
-12.007874015748037
31
0
0
LINE
5
12B
100
AcDbEntity
8
PERIMETER
100
AcDbLine
10
-9.5275590551181182
20
-12.007874015748037
30
0
11
9.5275590551180986
21
-12.00787401574803
31
0
0
LINE
5
12C
100
AcDbEntity
8
PERIMETER
100
AcDbLine
10
9.5275590551180986
20
-12.00787401574803
30
0
11
9.527559055118104
21
-10.81877450596283
31
0
0
LINE
5
12D
100
AcDbEntity
8
PERIMETER
100
AcDbLine
10
9.527559055118104
20
-10.81877450596283
30
0
11
11.901451671317155
21
-8.4448818897637796
31
0
0
LINE
5
12E
100
AcDbEntity
8
PERIMETER
100
AcDbLine
10
11.901451671317155
20
-8.4448818897637796
30
0
11
13.090551181102356
21
-8.4448818897637761
31
0
0
LINE
5
12F
100
AcDbEntity
8
PERIMETER
100
AcDbLine
10
13.090551181102356
20
-8.4448818897637761
30
0
11
13.090551181102352
21
8.4448818897637583
31
0
0
LINE
5
130
100
AcDbEntity
8
PERIMETER
100
AcDbLine
10
13.090551181102352
20
8.4448818897637583
30
0
11
11.901451671317155
21
8.4448818897637636
31
0
0
ENDSEC
0
SECTION
2
OBJECTS
0
DICTIONARY
5
C
100
AcDbDictionary
3
ACAD_GROUP
350
D
3
ACAD_MLINESTYLE
350
17
0
DICTIONARY
5
D
100
AcDbDictionary
0
DICTIONARY
5
1A
330
C
100
AcDbDictionary
0
DICTIONARY
5
17
100
AcDbDictionary
0
ENDSEC
0
EOF
