0
SECTION
2
HEADER
9
$INSUNITS
70
1
9
$ACADVER
1
AC1014
9
$HANDSEED
5
FFFF
0
ENDSEC
0
SECTION
2
TABLES
0
TABLE
2
VPORT
5
8
100
AcDbSymbolTable
0
ENDTAB
0
TABLE
2
LTYPE
5
5
100
AcDbSymbolTable
70
2
0
LTYPE
5
14
100
AcDbSymbolTableRecord
100
AcDbLinetypeTableRecord
2
BYBLOCK
70
0
0
LTYPE
5
15
100
AcDbSymbolTableRecord
100
AcDbLinetypeTableRecord
2
BYLAYER
70
0
0
ENDTAB
0
TABLE
2
LAYER
5
2
100
AcDbSymbolTable
70
3
0
LAYER
5
50
100
AcDbSymbolTableRecord
100
AcDbLayerTableRecord
2
0
70
0
6
CONTINUOUS
0
LAYER
5
51
100
AcDbSymbolTableRecord
100
AcDbLayerTableRecord
2
CUTOUTS
70
0
62
1
6
CONTINUOUS
0
LAYER
5
52
100
AcDbSymbolTableRecord
100
AcDbLayerTableRecord
2
PERIMETER
70
0
62
5
6
CONTINUOUS
0
ENDTAB
0
TABLE
2
STYLE
5
3
100
AcDbSymbolTable
70
1
0
STYLE
5
11
100
AcDbSymbolTableRecord
100
AcDbTextStyleTableRecord
2
STANDARD
70
0
0
ENDTAB
0
TABLE
2
VIEW
5
6
100
AcDbSymbolTable
0
ENDTAB
0
TABLE
2
UCS
5
7
100
AcDbSymbolTable
0
ENDTAB
0
TABLE
2
APPID
5
9
100
AcDbSymbolTable
70
1
0
APPID
5
12
100
AcDbSymbolTableRecord
100
AcDbRegAppTableRecord
2
ACAD
70
0
0
ENDTAB
0
TABLE
2
DIMSTYLE
5
A
100
AcDbSymbolTable
0
ENDTAB
0
TABLE
2
BLOCK_RECORD
5
1
100
AcDbSymbolTable
70
2
0
BLOCK_RECORD
5
1F
100
AcDbSymbolTableRecord
100
AcDbBlockTableRecord
2
*MODEL_SPACE
0
BLOCK_RECORD
5
1B
100
AcDbSymbolTableRecord
100
AcDbBlockTableRecord
2
*PAPER_SPACE
0
ENDTAB
0
ENDSEC
0
SECTION
2
BLOCKS
0
BLOCK
5
20
100
AcDbEntity
100
AcDbBlockBegin
2
*MODEL_SPACE
0
ENDBLK
5
21
100
AcDbEntity
100
AcDbBlockEnd
0
BLOCK
5
1C
100
AcDbEntity
100
AcDbBlockBegin
2
*PAPER_SPACE
0
ENDBLK
5
1D
100
AcDbEntity
100
AcDbBlockEnd
0
ENDSEC
0
SECTION
2
ENTITIES
0
CIRCLE
5
100
100
AcDbEntity
8
CUTOUTS
100
AcDbCircle
10
10.33464844624512
20
-3.8582677165342232
30
0
40
0.12992125984251901
210
0
220
0
230
1
0
CIRCLE
5
101
100
AcDbEntity
8
CUTOUTS
100
AcDbCircle
10
10.3346484462452
20
6.4566929133870365
30
0
40
0.12992125984251901
210
0
220
0
230
1
0
CIRCLE
5
102
100
AcDbEntity
8
CUTOUTS
100
AcDbCircle
10
10.3346484462452
20
5.0000000000012088
30
0
40
0.12992125984251901
210
0
220
0
230
1
0
CIRCLE
5
103
100
AcDbEntity
8
CUTOUTS
100
AcDbCircle
10
10.3346484462452
20
4.4094488188988468
30
0
40
0.12992125984251901
210
0
220
0
230
1
0
CIRCLE
5
104
100
AcDbEntity
8
CUTOUTS
100
AcDbCircle
10
10.3346484462452
20
2.9527559055130195
30
0
40
0.12992125984251901
210
0
220
0
230
1
0
CIRCLE
5
105
100
AcDbEntity
8
CUTOUTS
100
AcDbCircle
10
10.33464844624512
20
-4.4488188976365857
30
0
40
0.12992125984251901
210
0
220
0
230
1
0
CIRCLE
5
106
100
AcDbEntity
8
CUTOUTS
100
AcDbCircle
10
-10.334648446245152
20
-3.8582677165342232
30
0
40
0.12992125984251901
210
0
220
0
230
1
0
CIRCLE
5
107
100
AcDbEntity
8
CUTOUTS
100
AcDbCircle
10
-10.334648446245231
20
6.4566929133870365
30
0
40
0.12992125984251901
210
0
220
0
230
1
0
CIRCLE
5
108
100
AcDbEntity
8
CUTOUTS
100
AcDbCircle
10
-10.334648446245231
20
5.0000000000012088
30
0
40
0.12992125984251901
210
0
220
0
230
1
0
CIRCLE
5
109
100
AcDbEntity
8
CUTOUTS
100
AcDbCircle
10
-10.334648446245231
20
4.4094488188988468
30
0
40
0.12992125984251901
210
0
220
0
230
1
0
CIRCLE
5
10A
100
AcDbEntity
8
CUTOUTS
100
AcDbCircle
10
-10.334648446245231
20
2.9527559055130195
30
0
40
0.12992125984251901
210
0
220
0
230
1
0
CIRCLE
5
10B
100
AcDbEntity
8
CUTOUTS
100
AcDbCircle
10
-10.334648446245152
20
-4.4488188976365857
30
0
40
0.12992125984251901
210
0
220
0
230
1
0
LINE
5
10C
100
AcDbEntity
8
PERIMETER
100
AcDbLine
10
-11.811025079948038
20
7.3425196932098116
30
0
11
-11.811026384707979
21
-5.2362204642698167
31
0
0
ARC
5
10D
100
AcDbEntity
8
PERIMETER
100
AcDbCircle
10
-11.732286227227659
20
-5.2362204724373207
30
0
40
0.078740157480319303
210
0
220
0
230
1
100
AcDbArc
50
179.99999408488267
51
269.99999999999613
0
LINE
5
10E
100
AcDbEntity
8
PERIMETER
100
AcDbLine
10
-11.732286227227664
20
-5.31496062991764
30
0
11
-10.638077847079334
21
-5.3149606299176337
31
0
0
ARC
5
10F
100
AcDbEntity
8
PERIMETER
100
AcDbCircle
10
-10.638077847079334
20
-5.3937007873979503
30
0
40
0.078740157480315792
210
0
220
-0
230
1
100
AcDbArc
50
44.999999999999091
51
90
0
LINE
5
110
100
AcDbEntity
8
PERIMETER
100
AcDbLine
10
-10.582400147773305
20
-5.3380230880919228
30
0
11
-8.2317266524462092
21
-7.6886965834190599
31
0
0
ARC
5
111
100
AcDbEntity
8
PERIMETER
100
AcDbCircle
10
-8.2874043517522367
20
-7.7443742827250865
30
0
40
0.078740157480314668
210
0
220
-0
230
1
100
AcDbArc
50
0
51
44.999999999999538
0
LINE
5
112
100
AcDbEntity
8
PERIMETER
100
AcDbLine
10
-8.2086641942719218
20
-7.7443742827250865
30
0
11
-8.2086641942719218
21
-7.913385826772859
31
0
0
ARC
5
113
100
AcDbEntity
8
PERIMETER
100
AcDbCircle
10
-8.1299240367916035
20
-7.9133858267728563
30
0
40
0.078740157480317471
210
0
220
0
230
1
100
AcDbArc
50
180
51
269.99999999999744
0
LINE
5
114
100
AcDbEntity
8
PERIMETER
100
AcDbLine
10
-8.129924036791607
20
-7.992125984253172
30
0
11
8.1299240367916141
21
-7.9921259842531756
31
0
0
ARC
5
115
100
AcDbEntity
8
PERIMETER
100
AcDbCircle
10
8.1299240367916106
20
-7.913385826772859
30
0
40
0.07874015748031607
210
-0
220
0
230
1
100
AcDbArc
50
-89.999999999997399
51
0
0
LINE
5
116
100
AcDbEntity
8
PERIMETER
100
AcDbLine
10
8.2086641942719272
20
-7.913385826772859
30
0
11
8.2086641942719272
21
-7.7443742827250812
31
0
0
ARC
5
117
100
AcDbEntity
8
PERIMETER
100
AcDbCircle
10
8.287404351752242
20
-7.7443742827250812
30
0
40
0.078740157480315792
210
0
220
0
230
1
100
AcDbArc
50
135.00000000000091
51
180
0
LINE
5
118
100
AcDbEntity
8
PERIMETER
100
AcDbLine
10
8.2317266524462127
20
-7.6886965834190537
30
0
11
10.58240014777331
21
-5.3380230880919113
31
0
0
ARC
5
119
100
AcDbEntity
8
PERIMETER
100
AcDbCircle
10
10.638077847079336
20
-5.3937007873979388
30
0
40
0.07874015748031607
210
0
220
-0
230
1
100
AcDbArc
50
90
51
135
0
LINE
5
11A
100
AcDbEntity
8
PERIMETER
100
AcDbLine
10
10.638077847079336
20
-5.3149606299176231
30
0
11
11.732286227227666
21
-5.3149606299176195
31
0
0
ARC
5
11B
100
AcDbEntity
8
PERIMETER
100
AcDbCircle
10
11.732286227227668
20
-5.2362204724373091
30
0
40
0.078740157480310477
210
0
220
0
230
1
100
AcDbArc
50
-90.000000000001322
51
5.8531772256259167e-06
0
LINE
5
11C
100
AcDbEntity
8
PERIMETER
100
AcDbLine
10
11.811026384707979
20
-5.2362204642698051
30
0
11
11.811025079948026
21
7.3425196932092911
31
0
0
ARC
5
11D
100
AcDbEntity
8
PERIMETER
100
AcDbCircle
10
11.732284922467713
20
7.34251968504178
30
0
40
0.078740157480313697
210
0
220
-0
230
1
100
AcDbArc
50
5.9151173338843952e-06
51
90.000000000469214
0
LINE
5
11E
100
AcDbEntity
8
PERIMETER
100
AcDbLine
10
11.732284922467068
20
7.4212598425220948
30
0
11
10.728347845170688
21
7.4212598425138987
31
0
0
ARC
5
11F
100
AcDbEntity
8
PERIMETER
100
AcDbCircle
10
10.728347845170045
20
7.4999999999942135
30
0
40
0.078740157480314668
210
0
220
0
230
1
100
AcDbArc
50
180
51
270.00000000046794
0
LINE
5
120
100
AcDbEntity
8
PERIMETER
100
AcDbLine
10
10.649607687689731
20
7.4999999999942135
30
0
11
10.649607687689731
21
7.9133858267728616
31
0
0
ARC
5
121
100
AcDbEntity
8
PERIMETER
100
AcDbCircle
10
10.570867530209416
20
7.9133858267728616
30
0
40
0.078740157480314668
210
0
220
-0
230
1
100
AcDbArc
50
0
51
90
0
LINE
5
122
100
AcDbEntity
8
PERIMETER
100
AcDbLine
10
10.570867530209416
20
7.9921259842531764
30
0
11
-10.570867530209444
21
7.9921259842531693
31
0
0
ARC
5
123
100
AcDbEntity
8
PERIMETER
100
AcDbCircle
10
-10.570867530209444
20
7.9133858267728545
30
0
40
0.078740157480314668
210
0
220
-0
230
1
100
AcDbArc
50
90
51
180
0
LINE
5
124
100
AcDbEntity
8
PERIMETER
100
AcDbLine
10
-10.649607687689759
20
7.9133858267728545
30
0
11
-10.649607687689759
21
7.5000000000013491
31
0
0
ARC
5
125
100
AcDbEntity
8
PERIMETER
100
AcDbCircle
10
-10.728347845170076
20
7.5000000000013491
30
0
40
0.078740157480314668
210
0
220
0
230
1
100
AcDbArc
50
-90.000000000089202
51
0
0
LINE
5
126
100
AcDbEntity
8
PERIMETER
100
AcDbLine
10
-10.728347845170198
20
7.4212598425210343
30
0
11
-11.732284922467599
21
7.4212598425226153
31
0
0
ARC
5
127
100
AcDbEntity
8
PERIMETER
100
AcDbCircle
10
-11.732284922467722
20
7.3425196850422978
30
0
40
0.078740157480317471
210
0
220
-0
230
1
100
AcDbArc
50
89.999999999910813
51
179.99999408488267
0
ENDSEC
0
SECTION
2
OBJECTS
0
DICTIONARY
5
C
100
AcDbDictionary
3
ACAD_GROUP
350
D
3
ACAD_MLINESTYLE
350
17
0
DICTIONARY
5
D
100
AcDbDictionary
0
DICTIONARY
5
1A
330
C
100
AcDbDictionary
0
DICTIONARY
5
17
100
AcDbDictionary
0
ENDSEC
0
EOF
