0
SECTION
2
HEADER
9
$INSUNITS
70
1
9
$ACADVER
1
AC1014
9
$HANDSEED
5
FFFF
0
ENDSEC
0
SECTION
2
TABLES
0
TABLE
2
VPORT
5
8
100
AcDbSymbolTable
0
ENDTAB
0
TABLE
2
LTYPE
5
5
100
AcDbSymbolTable
70
2
0
LTYPE
5
14
100
AcDbSymbolTableRecord
100
AcDbLinetypeTableRecord
2
BYBLOCK
70
0
0
LTYPE
5
15
100
AcDbSymbolTableRecord
100
AcDbLinetypeTableRecord
2
BYLAYER
70
0
0
ENDTAB
0
TABLE
2
LAYER
5
2
100
AcDbSymbolTable
70
3
0
LAYER
5
50
100
AcDbSymbolTableRecord
100
AcDbLayerTableRecord
2
0
70
0
6
CONTINUOUS
0
LAYER
5
51
100
AcDbSymbolTableRecord
100
AcDbLayerTableRecord
2
CUTOUTS
70
0
62
1
6
CONTINUOUS
0
LAYER
5
52
100
AcDbSymbolTableRecord
100
AcDbLayerTableRecord
2
PERIMETER
70
0
62
5
6
CONTINUOUS
0
ENDTAB
0
TABLE
2
STYLE
5
3
100
AcDbSymbolTable
70
1
0
STYLE
5
11
100
AcDbSymbolTableRecord
100
AcDbTextStyleTableRecord
2
STANDARD
70
0
0
ENDTAB
0
TABLE
2
VIEW
5
6
100
AcDbSymbolTable
0
ENDTAB
0
TABLE
2
UCS
5
7
100
AcDbSymbolTable
0
ENDTAB
0
TABLE
2
APPID
5
9
100
AcDbSymbolTable
70
1
0
APPID
5
12
100
AcDbSymbolTableRecord
100
AcDbRegAppTableRecord
2
ACAD
70
0
0
ENDTAB
0
TABLE
2
DIMSTYLE
5
A
100
AcDbSymbolTable
0
ENDTAB
0
TABLE
2
BLOCK_RECORD
5
1
100
AcDbSymbolTable
70
2
0
BLOCK_RECORD
5
1F
100
AcDbSymbolTableRecord
100
AcDbBlockTableRecord
2
*MODEL_SPACE
0
BLOCK_RECORD
5
1B
100
AcDbSymbolTableRecord
100
AcDbBlockTableRecord
2
*PAPER_SPACE
0
ENDTAB
0
ENDSEC
0
SECTION
2
BLOCKS
0
BLOCK
5
20
100
AcDbEntity
100
AcDbBlockBegin
2
*MODEL_SPACE
0
ENDBLK
5
21
100
AcDbEntity
100
AcDbBlockEnd
0
BLOCK
5
1C
100
AcDbEntity
100
AcDbBlockBegin
2
*PAPER_SPACE
0
ENDBLK
5
1D
100
AcDbEntity
100
AcDbBlockEnd
0
ENDSEC
0
SECTION
2
ENTITIES
0
CIRCLE
5
100
100
AcDbEntity
8
CUTOUTS
100
AcDbCircle
10
8.1102362204724372
20
-11.013779527559052
30
0
40
0.12696850393700848
210
0
220
0
230
1
0
CIRCLE
5
101
100
AcDbEntity
8
CUTOUTS
100
AcDbCircle
10
-1.2992125984251968
20
-11.013779527559054
30
0
40
0.12696850393700779
210
0
220
0
230
1
0
CIRCLE
5
102
100
AcDbEntity
8
CUTOUTS
100
AcDbCircle
10
-11.22047244094488
20
-7.9035433070866077
30
0
40
0.12696850393700848
210
0
220
0
230
1
0
CIRCLE
5
103
100
AcDbEntity
8
CUTOUTS
100
AcDbCircle
10
11.220472440944881
20
8.3562992125984259
30
0
40
0.12696850393700848
210
0
220
0
230
1
0
CIRCLE
5
104
100
AcDbEntity
8
CUTOUTS
100
AcDbCircle
10
-11.220472440944881
20
8.3562992125984259
30
0
40
0.12696850393700848
210
0
220
0
230
1
0
CIRCLE
5
105
100
AcDbEntity
8
CUTOUTS
100
AcDbCircle
10
2.5984251968503935
20
10.954724409448819
30
0
40
0.12696850393700779
210
0
220
0
230
1
0
CIRCLE
5
106
100
AcDbEntity
8
CUTOUTS
100
AcDbCircle
10
-8.6220472440944853
20
10.954724409448819
30
0
40
0.12696850393700848
210
0
220
0
230
1
0
CIRCLE
5
107
100
AcDbEntity
8
CUTOUTS
100
AcDbCircle
10
-2.9133858267716533
20
10.954724409448819
30
0
40
0.12696850393700779
210
0
220
0
230
1
0
CIRCLE
5
108
100
AcDbEntity
8
CUTOUTS
100
AcDbCircle
10
8.6220472440944871
20
10.954724409448819
30
0
40
0.12696850393700848
210
0
220
0
230
1
0
CIRCLE
5
109
100
AcDbEntity
8
CUTOUTS
100
AcDbCircle
10
-11.22047244094488
20
-0.029527559055117079
30
0
40
0.12696850393700848
210
0
220
0
230
1
0
CIRCLE
5
10A
100
AcDbEntity
8
CUTOUTS
100
AcDbCircle
10
11.22047244094488
20
-0.029527559055114401
30
0
40
0.12696850393700848
210
0
220
0
230
1
0
CIRCLE
5
10B
100
AcDbEntity
8
CUTOUTS
100
AcDbCircle
10
-8.1102362204724372
20
-11.013779527559052
30
0
40
0.12696850393700848
210
0
220
0
230
1
0
CIRCLE
5
10C
100
AcDbEntity
8
CUTOUTS
100
AcDbCircle
10
1.2992125984251968
20
-11.01377952755905
30
0
40
0.12696850393700779
210
0
220
0
230
1
0
CIRCLE
5
10D
100
AcDbEntity
8
CUTOUTS
100
AcDbCircle
10
11.22047244094488
20
-7.9035433070866059
30
0
40
0.12696850393700848
210
0
220
0
230
1
0
LINE
5
10E
100
AcDbEntity
8
PERIMETER
100
AcDbLine
10
0.45153283396937022
20
8.1820866141732278
30
0
11
-2.0066509442055911
21
8.1820866141732278
31
0
0
LINE
5
10F
100
AcDbEntity
8
PERIMETER
100
AcDbLine
10
-2.0066509442055911
20
8.1820866141732278
30
0
11
-2.3198818897637787
21
8.495317559731415
31
0
0
LINE
5
110
100
AcDbEntity
8
PERIMETER
100
AcDbLine
10
-2.3198818897637787
20
8.495317559731415
30
0
11
-2.3198818897637796
21
11.508858267716532
31
0
0
LINE
5
111
100
AcDbEntity
8
PERIMETER
100
AcDbLine
10
-2.3198818897637796
20
11.508858267716532
30
0
11
-9.2155511811023594
21
11.508858267716532
31
0
0
LINE
5
112
100
AcDbEntity
8
PERIMETER
100
AcDbLine
10
-9.2155511811023594
20
11.508858267716532
30
0
11
-9.2155511811023576
21
10.367125984251967
31
0
0
LINE
5
113
100
AcDbEntity
8
PERIMETER
100
AcDbLine
10
-9.2155511811023576
20
10.367125984251967
30
0
11
-10.632874015748028
21
10.367125984251967
31
0
0
LINE
5
114
100
AcDbEntity
8
PERIMETER
100
AcDbLine
10
-10.632874015748028
20
10.367125984251967
30
0
11
-10.632874015748028
21
8.9498031496062982
31
0
0
LINE
5
115
100
AcDbEntity
8
PERIMETER
100
AcDbLine
10
-10.632874015748028
20
8.9498031496062982
30
0
11
-11.774606299212596
21
8.9498031496062982
31
0
0
LINE
5
116
100
AcDbEntity
8
PERIMETER
100
AcDbLine
10
-11.774606299212596
20
8.9498031496062982
30
0
11
-11.774606299212595
21
-10.426181102362197
31
0
0
LINE
5
117
100
AcDbEntity
8
PERIMETER
100
AcDbLine
10
-11.774606299212595
20
-10.426181102362197
30
0
11
-11.422244094488192
21
-10.4261811023622
31
0
0
LINE
5
118
100
AcDbEntity
8
PERIMETER
100
AcDbLine
10
-11.422244094488192
20
-10.4261811023622
30
0
11
-11.422244094488187
21
-8.8956692913385762
31
0
0
ARC
5
119
100
AcDbEntity
8
PERIMETER
100
AcDbCircle
10
-11.22047244094488
20
-8.895669291338578
30
0
40
0.2017716535433082
210
0
220
-0
230
1
100
AcDbArc
50
0
51
180
0
LINE
5
11A
100
AcDbEntity
8
PERIMETER
100
AcDbLine
10
-11.018700787401571
20
-8.895669291338578
30
0
11
-11.018700787401574
21
-10.426181102362198
31
0
0
LINE
5
11B
100
AcDbEntity
8
PERIMETER
100
AcDbLine
10
-11.018700787401574
20
-10.426181102362198
30
0
11
-10.745078740157481
21
-10.426181102362198
31
0
0
LINE
5
11C
100
AcDbEntity
8
PERIMETER
100
AcDbLine
10
-10.745078740157481
20
-10.426181102362198
30
0
11
-10.745078740157483
21
-8.6938976377952706
31
0
0
LINE
5
11D
100
AcDbEntity
8
PERIMETER
100
AcDbLine
10
-10.745078740157483
20
-8.6938976377952706
30
0
11
-9.1744514179991352
21
-8.6938976377952706
31
0
0
LINE
5
11E
100
AcDbEntity
8
PERIMETER
100
AcDbLine
10
-9.1744514179991352
20
-8.6938976377952706
30
0
11
-8.9005905511811001
21
-8.9677585046133022
31
0
0
LINE
5
11F
100
AcDbEntity
8
PERIMETER
100
AcDbLine
10
-8.9005905511811001
20
-8.9677585046133022
30
0
11
-8.9005905511811001
21
-10.53838582677165
31
0
0
LINE
5
120
100
AcDbEntity
8
PERIMETER
100
AcDbLine
10
-8.9005905511811001
20
-10.53838582677165
30
0
11
-10.63287401574803
21
-10.53838582677165
31
0
0
LINE
5
121
100
AcDbEntity
8
PERIMETER
100
AcDbLine
10
-10.63287401574803
20
-10.53838582677165
30
0
11
-10.63287401574803
21
-10.812007874015745
31
0
0
LINE
5
122
100
AcDbEntity
8
PERIMETER
100
AcDbLine
10
-10.63287401574803
20
-10.812007874015745
30
0
11
-9.1023622047244057
21
-10.812007874015743
31
0
0
ARC
5
123
100
AcDbEntity
8
PERIMETER
100
AcDbCircle
10
-9.1023622047244057
20
-11.01377952755905
30
0
40
0.2017716535433082
210
-0
220
0
230
1
100
AcDbArc
50
-90
51
90
0
LINE
5
124
100
AcDbEntity
8
PERIMETER
100
AcDbLine
10
-9.1023622047244057
20
-11.215551181102359
30
0
11
-10.63287401574803
21
-11.215551181102358
31
0
0
LINE
5
125
100
AcDbEntity
8
PERIMETER
100
AcDbLine
10
-10.63287401574803
20
-11.215551181102358
30
0
11
-10.632874015748031
21
-11.508858267716532
31
0
0
LINE
5
126
100
AcDbEntity
8
PERIMETER
100
AcDbLine
10
-10.632874015748031
20
-11.508858267716532
30
0
11
-0.98302889696149742
21
-11.508858267716532
31
0
0
LINE
5
127
100
AcDbEntity
8
PERIMETER
100
AcDbLine
10
-0.98302889696149742
20
-11.508858267716532
30
0
11
-0.70570866141732336
21
-11.231538032172359
31
0
0
LINE
5
128
100
AcDbEntity
8
PERIMETER
100
AcDbLine
10
-0.70570866141732336
20
-11.231538032172359
30
0
11
-0.70570866141732347
21
-10.485236220472435
31
0
0
LINE
5
129
100
AcDbEntity
8
PERIMETER
100
AcDbLine
10
-0.70570866141732347
20
-10.485236220472435
30
0
11
0.70570866141732347
21
-10.485236220472435
31
0
0
LINE
5
12A
100
AcDbEntity
8
PERIMETER
100
AcDbLine
10
0.70570866141732347
20
-10.485236220472435
30
0
11
0.70570866141732302
21
-11.231538032172358
31
0
0
LINE
5
12B
100
AcDbEntity
8
PERIMETER
100
AcDbLine
10
0.70570866141732302
20
-11.231538032172358
30
0
11
0.98302889696149764
21
-11.508858267716532
31
0
0
LINE
5
12C
100
AcDbEntity
8
PERIMETER
100
AcDbLine
10
0.98302889696149764
20
-11.508858267716532
30
0
11
10.632874015748024
21
-11.508858267716532
31
0
0
LINE
5
12D
100
AcDbEntity
8
PERIMETER
100
AcDbLine
10
10.632874015748024
20
-11.508858267716532
30
0
11
10.63287401574803
21
-11.215551181102363
31
0
0
LINE
5
12E
100
AcDbEntity
8
PERIMETER
100
AcDbLine
10
10.63287401574803
20
-11.215551181102363
30
0
11
9.1023622047244075
21
-11.215551181102363
31
0
0
ARC
5
12F
100
AcDbEntity
8
PERIMETER
100
AcDbCircle
10
9.1023622047244075
20
-11.013779527559054
30
0
40
0.20177165354331097
210
0
220
-0
230
1
100
AcDbArc
50
90
51
270
0
LINE
5
130
100
AcDbEntity
8
PERIMETER
100
AcDbLine
10
9.1023622047244075
20
-10.812007874015743
30
0
11
10.63287401574803
21
-10.812007874015745
31
0
0
LINE
5
131
100
AcDbEntity
8
PERIMETER
100
AcDbLine
10
10.63287401574803
20
-10.812007874015745
30
0
11
10.632874015748026
21
-10.538385826771648
31
0
0
LINE
5
132
100
AcDbEntity
8
PERIMETER
100
AcDbLine
10
10.632874015748026
20
-10.538385826771648
30
0
11
8.9005905511811001
21
-10.538385826771648
31
0
0
LINE
5
133
100
AcDbEntity
8
PERIMETER
100
AcDbLine
10
8.9005905511811001
20
-10.538385826771648
30
0
11
8.9005905511811001
21
-8.9677585046133022
31
0
0
LINE
5
134
100
AcDbEntity
8
PERIMETER
100
AcDbLine
10
8.9005905511811001
20
-8.9677585046133022
30
0
11
9.1744514179991334
21
-8.6938976377952724
31
0
0
LINE
5
135
100
AcDbEntity
8
PERIMETER
100
AcDbLine
10
9.1744514179991334
20
-8.6938976377952724
30
0
11
10.745078740157483
21
-8.693897637795267
31
0
0
LINE
5
136
100
AcDbEntity
8
PERIMETER
100
AcDbLine
10
10.745078740157483
20
-8.693897637795267
30
0
11
10.745078740157483
21
-10.426181102362198
31
0
0
LINE
5
137
100
AcDbEntity
8
PERIMETER
100
AcDbLine
10
10.745078740157483
20
-10.426181102362198
30
0
11
11.018700787401574
21
-10.426181102362197
31
0
0
LINE
5
138
100
AcDbEntity
8
PERIMETER
100
AcDbLine
10
11.018700787401574
20
-10.426181102362197
30
0
11
11.018700787401569
21
-8.8956692913385726
31
0
0
ARC
5
139
100
AcDbEntity
8
PERIMETER
100
AcDbCircle
10
11.220472440944878
20
-8.8956692913385726
30
0
40
0.2017716535433082
210
0
220
-0
230
1
100
AcDbArc
50
0
51
180
0
LINE
5
13A
100
AcDbEntity
8
PERIMETER
100
AcDbLine
10
11.422244094488187
20
-8.8956692913385709
30
0
11
11.422244094488192
21
-10.426181102362197
31
0
0
LINE
5
13B
100
AcDbEntity
8
PERIMETER
100
AcDbLine
10
11.422244094488192
20
-10.426181102362197
30
0
11
11.774606299212595
21
-10.426181102362204
31
0
0
LINE
5
13C
100
AcDbEntity
8
PERIMETER
100
AcDbLine
10
11.774606299212595
20
-10.426181102362204
30
0
11
11.774606299212596
21
8.9498031496063
31
0
0
LINE
5
13D
100
AcDbEntity
8
PERIMETER
100
AcDbLine
10
11.774606299212596
20
8.9498031496063
30
0
11
10.632874015748028
21
8.9498031496062964
31
0
0
LINE
5
13E
100
AcDbEntity
8
PERIMETER
100
AcDbLine
10
10.632874015748028
20
8.9498031496062964
30
0
11
10.632874015748028
21
10.367125984251967
31
0
0
LINE
5
13F
100
AcDbEntity
8
PERIMETER
100
AcDbLine
10
10.632874015748028
20
10.367125984251967
30
0
11
9.2155511811023576
21
10.367125984251967
31
0
0
LINE
5
140
100
AcDbEntity
8
PERIMETER
100
AcDbLine
10
9.2155511811023576
20
10.367125984251967
30
0
11
9.2155511811023594
21
11.508858267716532
31
0
0
LINE
5
141
100
AcDbEntity
8
PERIMETER
100
AcDbLine
10
9.2155511811023594
20
11.508858267716532
30
0
11
2.0049212598425128
21
11.508858267716532
31
0
0
LINE
5
142
100
AcDbEntity
8
PERIMETER
100
AcDbLine
10
2.0049212598425128
20
11.508858267716532
30
0
11
2.0049212598425199
21
10.367125984251967
31
0
0
LINE
5
143
100
AcDbEntity
8
PERIMETER
100
AcDbLine
10
2.0049212598425199
20
10.367125984251967
30
0
11
0.76476377952756247
21
10.367125984251967
31
0
0
LINE
5
144
100
AcDbEntity
8
PERIMETER
100
AcDbLine
10
0.76476377952756247
20
10.367125984251967
30
0
11
0.76476377952756258
21
8.4953175597314168
31
0
0
LINE
5
145
100
AcDbEntity
8
PERIMETER
100
AcDbLine
10
0.76476377952756258
20
8.4953175597314168
30
0
11
0.45153283396937022
21
8.1820866141732278
31
0
0
ENDSEC
0
SECTION
2
OBJECTS
0
DICTIONARY
5
C
100
AcDbDictionary
3
ACAD_GROUP
350
D
3
ACAD_MLINESTYLE
350
17
0
DICTIONARY
5
D
100
AcDbDictionary
0
DICTIONARY
5
1A
330
C
100
AcDbDictionary
0
DICTIONARY
5
17
100
AcDbDictionary
0
ENDSEC
0
EOF
