0
SECTION
2
HEADER
9
$INSUNITS
70
1
9
$ACADVER
1
AC1014
9
$HANDSEED
5
FFFF
0
ENDSEC
0
SECTION
2
TABLES
0
TABLE
2
VPORT
5
8
100
AcDbSymbolTable
0
ENDTAB
0
TABLE
2
LTYPE
5
5
100
AcDbSymbolTable
70
2
0
LTYPE
5
14
100
AcDbSymbolTableRecord
100
AcDbLinetypeTableRecord
2
BYBLOCK
70
0
0
LTYPE
5
15
100
AcDbSymbolTableRecord
100
AcDbLinetypeTableRecord
2
BYLAYER
70
0
0
ENDTAB
0
TABLE
2
LAYER
5
2
100
AcDbSymbolTable
70
3
0
LAYER
5
50
100
AcDbSymbolTableRecord
100
AcDbLayerTableRecord
2
0
70
0
6
CONTINUOUS
0
LAYER
5
51
100
AcDbSymbolTableRecord
100
AcDbLayerTableRecord
2
CUTOUTS
70
0
62
1
6
CONTINUOUS
0
LAYER
5
52
100
AcDbSymbolTableRecord
100
AcDbLayerTableRecord
2
PERIMETER
70
0
62
5
6
CONTINUOUS
0
ENDTAB
0
TABLE
2
STYLE
5
3
100
AcDbSymbolTable
70
1
0
STYLE
5
11
100
AcDbSymbolTableRecord
100
AcDbTextStyleTableRecord
2
STANDARD
70
0
0
ENDTAB
0
TABLE
2
VIEW
5
6
100
AcDbSymbolTable
0
ENDTAB
0
TABLE
2
UCS
5
7
100
AcDbSymbolTable
0
ENDTAB
0
TABLE
2
APPID
5
9
100
AcDbSymbolTable
70
1
0
APPID
5
12
100
AcDbSymbolTableRecord
100
AcDbRegAppTableRecord
2
ACAD
70
0
0
ENDTAB
0
TABLE
2
DIMSTYLE
5
A
100
AcDbSymbolTable
0
ENDTAB
0
TABLE
2
BLOCK_RECORD
5
1
100
AcDbSymbolTable
70
2
0
BLOCK_RECORD
5
1F
100
AcDbSymbolTableRecord
100
AcDbBlockTableRecord
2
*MODEL_SPACE
0
BLOCK_RECORD
5
1B
100
AcDbSymbolTableRecord
100
AcDbBlockTableRecord
2
*PAPER_SPACE
0
ENDTAB
0
ENDSEC
0
SECTION
2
BLOCKS
0
BLOCK
5
20
100
AcDbEntity
100
AcDbBlockBegin
2
*MODEL_SPACE
0
ENDBLK
5
21
100
AcDbEntity
100
AcDbBlockEnd
0
BLOCK
5
1C
100
AcDbEntity
100
AcDbBlockBegin
2
*PAPER_SPACE
0
ENDBLK
5
1D
100
AcDbEntity
100
AcDbBlockEnd
0
ENDSEC
0
SECTION
2
ENTITIES
0
CIRCLE
5
100
100
AcDbEntity
8
CUTOUTS
100
AcDbCircle
10
9.468503937007867
20
7.6771653543306986
30
0
40
0.12696850393700848
210
0
220
0
230
1
0
CIRCLE
5
101
100
AcDbEntity
8
CUTOUTS
100
AcDbCircle
10
-12.5
20
5.4921259842519667
30
0
40
0.12696850393700848
210
0
220
0
230
1
0
CIRCLE
5
102
100
AcDbEntity
8
CUTOUTS
100
AcDbCircle
10
-8.7598425196850354
20
-11.41732283464567
30
0
40
0.12696850393700848
210
0
220
0
230
1
0
CIRCLE
5
103
100
AcDbEntity
8
CUTOUTS
100
AcDbCircle
10
8.7598425196850442
20
-11.417322834645665
30
0
40
0.12696850393700848
210
0
220
0
230
1
0
CIRCLE
5
104
100
AcDbEntity
8
CUTOUTS
100
AcDbCircle
10
12.499999999999993
20
-8.9216379652274893e-15
30
0
40
0.12696850393700709
210
0
220
0
230
1
0
CIRCLE
5
105
100
AcDbEntity
8
CUTOUTS
100
AcDbCircle
10
12.499999999999991
20
7.6771653543306986
30
0
40
0.12696850393700848
210
0
220
0
230
1
0
CIRCLE
5
106
100
AcDbEntity
8
CUTOUTS
100
AcDbCircle
10
-6.2582859550105142e-16
20
11.417322834645665
30
0
40
0.12696850393700787
210
0
220
0
230
1
0
CIRCLE
5
107
100
AcDbEntity
8
CUTOUTS
100
AcDbCircle
10
-8.7598425196850407
20
11.417322834645665
30
0
40
0.12696850393700848
210
0
220
0
230
1
0
CIRCLE
5
108
100
AcDbEntity
8
CUTOUTS
100
AcDbCircle
10
8.7598425196850389
20
11.417322834645658
30
0
40
0.12696850393700848
210
0
220
0
230
1
0
CIRCLE
5
109
100
AcDbEntity
8
CUTOUTS
100
AcDbCircle
10
9.468503937007867
20
-9.8651350170179071e-15
30
0
40
0.12696850393700848
210
0
220
0
230
1
0
CIRCLE
5
10A
100
AcDbEntity
8
CUTOUTS
100
AcDbCircle
10
12.499999999999996
20
-7.6771653543307039
30
0
40
0.12696850393700709
210
0
220
0
230
1
0
CIRCLE
5
10B
100
AcDbEntity
8
CUTOUTS
100
AcDbCircle
10
1.4903101734036111e-15
20
-11.41732283464567
30
0
40
0.12696850393700787
210
0
220
0
230
1
0
CIRCLE
5
10C
100
AcDbEntity
8
CUTOUTS
100
AcDbCircle
10
-12.5
20
-2.8407351030754474e-15
30
0
40
0.12696850393700848
210
0
220
0
230
1
0
CIRCLE
5
10D
100
AcDbEntity
8
CUTOUTS
100
AcDbCircle
10
-12.5
20
-5.492125984251973
30
0
40
0.12696850393700848
210
0
220
0
230
1
0
CIRCLE
5
10E
100
AcDbEntity
8
CUTOUTS
100
AcDbCircle
10
9.4685039370078723
20
-7.6771653543307039
30
0
40
0.12696850393700848
210
0
220
0
230
1
0
LINE
5
10F
100
AcDbEntity
8
PERIMETER
100
AcDbLine
10
9.5305118110236169
20
-10.819997577505283
30
0
11
11.90267474285961
21
-8.447834645669289
31
0
0
LINE
5
110
100
AcDbEntity
8
PERIMETER
100
AcDbLine
10
11.90267474285961
20
-8.447834645669289
30
0
11
13.093503937007867
21
-8.4478346456692908
31
0
0
LINE
5
111
100
AcDbEntity
8
PERIMETER
100
AcDbLine
10
13.093503937007867
20
-8.4478346456692908
30
0
11
13.093503937007867
21
8.4478346456692801
31
0
0
LINE
5
112
100
AcDbEntity
8
PERIMETER
100
AcDbLine
10
13.093503937007867
20
8.4478346456692801
30
0
11
11.902674742859602
21
8.4478346456692783
31
0
0
LINE
5
113
100
AcDbEntity
8
PERIMETER
100
AcDbLine
10
11.902674742859602
20
8.4478346456692783
30
0
11
9.5305118110236133
21
10.819997577505273
31
0
0
LINE
5
114
100
AcDbEntity
8
PERIMETER
100
AcDbLine
10
9.5305118110236133
20
10.819997577505273
30
0
11
9.5305118110236133
21
12.01082677165353
31
0
0
LINE
5
115
100
AcDbEntity
8
PERIMETER
100
AcDbLine
10
9.5305118110236133
20
12.01082677165353
30
0
11
-9.5305118110236275
21
12.010826771653536
31
0
0
LINE
5
116
100
AcDbEntity
8
PERIMETER
100
AcDbLine
10
-9.5305118110236275
20
12.010826771653536
30
0
11
-9.5305118110236275
21
10.819997577505275
31
0
0
LINE
5
117
100
AcDbEntity
8
PERIMETER
100
AcDbLine
10
-9.5305118110236275
20
10.819997577505275
30
0
11
-11.902674742859617
21
8.4478346456692854
31
0
0
LINE
5
118
100
AcDbEntity
8
PERIMETER
100
AcDbLine
10
-11.902674742859617
20
8.4478346456692854
30
0
11
-11.991141732283472
21
8.4478346456692872
31
0
0
LINE
5
119
100
AcDbEntity
8
PERIMETER
100
AcDbLine
10
-11.991141732283472
20
8.4478346456692872
30
0
11
-11.99114173228347
21
6.0856299212598373
31
0
0
LINE
5
11A
100
AcDbEntity
8
PERIMETER
100
AcDbLine
10
-11.99114173228347
20
6.0856299212598373
30
0
11
-13.093503937007879
21
6.0856299212598373
31
0
0
LINE
5
11B
100
AcDbEntity
8
PERIMETER
100
AcDbLine
10
-13.093503937007879
20
6.0856299212598373
30
0
11
-13.093503937007879
21
-6.0856299212598506
31
0
0
LINE
5
11C
100
AcDbEntity
8
PERIMETER
100
AcDbLine
10
-13.093503937007879
20
-6.0856299212598506
30
0
11
-11.991141732283468
21
-6.0856299212598506
31
0
0
LINE
5
11D
100
AcDbEntity
8
PERIMETER
100
AcDbLine
10
-11.991141732283468
20
-6.0856299212598506
30
0
11
-11.991141732283467
21
-8.4478346456692996
31
0
0
LINE
5
11E
100
AcDbEntity
8
PERIMETER
100
AcDbLine
10
-11.991141732283467
20
-8.4478346456692996
30
0
11
-11.902674742859615
21
-8.4478346456692979
31
0
0
LINE
5
11F
100
AcDbEntity
8
PERIMETER
100
AcDbLine
10
-11.902674742859615
20
-8.4478346456692979
30
0
11
-9.5305118110236204
21
-10.819997577505287
31
0
0
LINE
5
120
100
AcDbEntity
8
PERIMETER
100
AcDbLine
10
-9.5305118110236204
20
-10.819997577505287
30
0
11
-9.5305118110236222
21
-12.010826771653546
31
0
0
LINE
5
121
100
AcDbEntity
8
PERIMETER
100
AcDbLine
10
-9.5305118110236222
20
-12.010826771653546
30
0
11
9.5305118110236133
21
-12.010826771653541
31
0
0
LINE
5
122
100
AcDbEntity
8
PERIMETER
100
AcDbLine
10
9.5305118110236133
20
-12.010826771653541
30
0
11
9.5305118110236169
21
-10.819997577505283
31
0
0
ENDSEC
0
SECTION
2
OBJECTS
0
DICTIONARY
5
C
100
AcDbDictionary
3
ACAD_GROUP
350
D
3
ACAD_MLINESTYLE
350
17
0
DICTIONARY
5
D
100
AcDbDictionary
0
DICTIONARY
5
1A
330
C
100
AcDbDictionary
0
DICTIONARY
5
17
100
AcDbDictionary
0
ENDSEC
0
EOF
