0
SECTION
2
HEADER
9
$INSUNITS
70
4
9
$ACADVER
1
AC1014
9
$HANDSEED
5
FFFF
0
ENDSEC
0
SECTION
2
TABLES
0
TABLE
2
VPORT
5
8
100
AcDbSymbolTable
0
ENDTAB
0
TABLE
2
LTYPE
5
5
100
AcDbSymbolTable
70
2
0
LTYPE
5
14
100
AcDbSymbolTableRecord
100
AcDbLinetypeTableRecord
2
BYBLOCK
70
0
0
LTYPE
5
15
100
AcDbSymbolTableRecord
100
AcDbLinetypeTableRecord
2
BYLAYER
70
0
0
ENDTAB
0
TABLE
2
LAYER
5
2
100
AcDbSymbolTable
70
3
0
LAYER
5
50
100
AcDbSymbolTableRecord
100
AcDbLayerTableRecord
2
0
70
0
6
CONTINUOUS
0
LAYER
5
51
100
AcDbSymbolTableRecord
100
AcDbLayerTableRecord
2
CUTOUTS
70
0
62
1
6
CONTINUOUS
0
LAYER
5
52
100
AcDbSymbolTableRecord
100
AcDbLayerTableRecord
2
PERIMETER
70
0
62
5
6
CONTINUOUS
0
ENDTAB
0
TABLE
2
STYLE
5
3
100
AcDbSymbolTable
70
1
0
STYLE
5
11
100
AcDbSymbolTableRecord
100
AcDbTextStyleTableRecord
2
STANDARD
70
0
0
ENDTAB
0
TABLE
2
VIEW
5
6
100
AcDbSymbolTable
0
ENDTAB
0
TABLE
2
UCS
5
7
100
AcDbSymbolTable
0
ENDTAB
0
TABLE
2
APPID
5
9
100
AcDbSymbolTable
70
1
0
APPID
5
12
100
AcDbSymbolTableRecord
100
AcDbRegAppTableRecord
2
ACAD
70
0
0
ENDTAB
0
TABLE
2
DIMSTYLE
5
A
100
AcDbSymbolTable
0
ENDTAB
0
TABLE
2
BLOCK_RECORD
5
1
100
AcDbSymbolTable
70
2
0
BLOCK_RECORD
5
1F
100
AcDbSymbolTableRecord
100
AcDbBlockTableRecord
2
*MODEL_SPACE
0
BLOCK_RECORD
5
1B
100
AcDbSymbolTableRecord
100
AcDbBlockTableRecord
2
*PAPER_SPACE
0
ENDTAB
0
ENDSEC
0
SECTION
2
BLOCKS
0
BLOCK
5
20
100
AcDbEntity
100
AcDbBlockBegin
2
*MODEL_SPACE
0
ENDBLK
5
21
100
AcDbEntity
100
AcDbBlockEnd
0
BLOCK
5
1C
100
AcDbEntity
100
AcDbBlockBegin
2
*PAPER_SPACE
0
ENDBLK
5
1D
100
AcDbEntity
100
AcDbBlockEnd
0
ENDSEC
0
SECTION
2
ENTITIES
0
CIRCLE
5
100
100
AcDbEntity
8
CUTOUTS
100
AcDbCircle
10
187.50000000000003
20
292.37499999999989
30
0
40
3.2999999999999829
210
0
220
0
230
1
0
CIRCLE
5
101
100
AcDbEntity
8
CUTOUTS
100
AcDbCircle
10
-267.49999999999994
20
292.37499999999983
30
0
40
3.2999999999999829
210
0
220
0
230
1
0
CIRCLE
5
102
100
AcDbEntity
8
CUTOUTS
100
AcDbCircle
10
-280.50000000000017
20
2.3749999999984439
30
0
40
3.2999999999999829
210
0
220
0
230
1
0
CIRCLE
5
103
100
AcDbEntity
8
CUTOUTS
100
AcDbCircle
10
-267.49999999999994
20
-287.625
30
0
40
3.2999999999999829
210
0
220
0
230
1
0
CIRCLE
5
104
100
AcDbEntity
8
CUTOUTS
100
AcDbCircle
10
187.50000000000011
20
-287.625
30
0
40
3.2999999999999829
210
0
220
0
230
1
0
CIRCLE
5
105
100
AcDbEntity
8
CUTOUTS
100
AcDbCircle
10
277.49999999999994
20
17.374999999999829
30
0
40
3.2999999999999829
210
0
220
0
230
1
0
CIRCLE
5
106
100
AcDbEntity
8
CUTOUTS
100
AcDbCircle
10
277.5
20
232.37499999999977
30
0
40
3.2999999999999829
210
0
220
0
230
1
0
CIRCLE
5
107
100
AcDbEntity
8
CUTOUTS
100
AcDbCircle
10
277.49999999999983
20
-197.62500000000003
30
0
40
3.2999999999999829
210
0
220
0
230
1
0
CIRCLE
5
108
100
AcDbEntity
8
CUTOUTS
100
AcDbCircle
10
-40.000000000000213
20
-287.625
30
0
40
3.3000000000000007
210
0
220
0
230
1
0
CIRCLE
5
109
100
AcDbEntity
8
CUTOUTS
100
AcDbCircle
10
-280.50000000000034
20
-247.62500000000068
30
0
40
3.2999999999999829
210
0
220
0
230
1
0
CIRCLE
5
10A
100
AcDbEntity
8
CUTOUTS
100
AcDbCircle
10
-280.5
20
257.37499999999977
30
0
40
3.2999999999999829
210
0
220
0
230
1
0
CIRCLE
5
10B
100
AcDbEntity
8
CUTOUTS
100
AcDbCircle
10
-39.999999999999964
20
292.375
30
0
40
3.3000000000000007
210
0
220
0
230
1
0
LINE
5
10C
100
AcDbEntity
8
PERIMETER
100
AcDbLine
10
134.60355339059328
20
281.21078643762678
30
0
11
113.77512626584715
21
302.03921356237299
31
0
0
ARC
5
10D
100
AcDbEntity
8
PERIMETER
100
AcDbCircle
10
136.01776695296635
20
282.62499999999989
30
0
40
1.999999999999996
210
0
220
0
230
1
100
AcDbArc
50
225.00000000000057
51
270
0
LINE
5
10E
100
AcDbEntity
8
PERIMETER
100
AcDbLine
10
154.98223304703367
20
280.62499999999989
30
0
11
136.01776695296635
21
280.62499999999989
31
0
0
ARC
5
10F
100
AcDbEntity
8
PERIMETER
100
AcDbCircle
10
154.98223304703367
20
282.62499999999989
30
0
40
1.9999999999999929
210
-0
220
0
230
1
100
AcDbArc
50
270
51
314.99999999999943
0
LINE
5
110
100
AcDbEntity
8
PERIMETER
100
AcDbLine
10
177.22487373415308
20
302.03921356237299
30
0
11
156.39644660940675
21
281.21078643762678
31
0
0
ARC
5
111
100
AcDbEntity
8
PERIMETER
100
AcDbCircle
10
178.63908729652621
20
300.62499999999977
30
0
40
2.000000000000135
210
0
220
0
230
1
100
AcDbArc
50
90.000000000001634
51
134.99999999999827
0
LINE
5
112
100
AcDbEntity
8
PERIMETER
100
AcDbLine
10
199.00000000000009
20
302.62499999999989
30
0
11
178.63908729652616
21
302.62499999999989
31
0
0
ARC
5
113
100
AcDbEntity
8
PERIMETER
100
AcDbCircle
10
199.00000000000009
20
300.62499999999989
30
0
40
1.9999999999999929
210
-0
220
0
230
1
100
AcDbArc
50
0
51
90
0
LINE
5
114
100
AcDbEntity
8
PERIMETER
100
AcDbLine
10
201.00000000000009
20
277.68401699437482
30
0
11
201.00000000000009
21
300.62499999999989
31
0
0
ARC
5
115
100
AcDbEntity
8
PERIMETER
100
AcDbCircle
10
203.00000000000009
20
277.68401699437482
30
0
40
1.9999999999999929
210
0
220
0
230
1
100
AcDbArc
50
180
51
243.43494882292202
0
LINE
5
116
100
AcDbEntity
8
PERIMETER
100
AcDbLine
10
261.72360679774999
20
246.08614561799993
30
0
11
202.10557280900017
21
275.89516261237497
31
0
0
ARC
5
117
100
AcDbEntity
8
PERIMETER
100
AcDbCircle
10
262.61803398874991
20
247.87499999999977
30
0
40
2.0000000000000098
210
0
220
0
230
1
100
AcDbArc
50
243.43494882292202
51
270
0
LINE
5
118
100
AcDbEntity
8
PERIMETER
100
AcDbLine
10
290.5
20
245.87499999999977
30
0
11
262.61803398874991
21
245.87499999999977
31
0
0
ARC
5
119
100
AcDbEntity
8
PERIMETER
100
AcDbCircle
10
290.5
20
243.87499999999974
30
0
40
2.0000000000000284
210
0
220
0
230
1
100
AcDbArc
50
0
51
90
0
LINE
5
11A
100
AcDbEntity
8
PERIMETER
100
AcDbLine
10
292.49999999999989
20
-209.125
30
0
11
292.50000000000006
21
243.87499999999974
31
0
0
ARC
5
11B
100
AcDbEntity
8
PERIMETER
100
AcDbCircle
10
290.49999999999977
20
-209.12499999999994
30
0
40
2.0000000000000995
210
-0
220
0
230
1
100
AcDbArc
50
270.00000000000324
51
360
0
LINE
5
11C
100
AcDbEntity
8
PERIMETER
100
AcDbLine
10
262.70710678118633
20
-211.12500000000017
30
0
11
290.49999999999989
21
-211.12500000000006
31
0
0
ARC
5
11D
100
AcDbEntity
8
PERIMETER
100
AcDbCircle
10
262.70710678118633
20
-213.12500000000023
30
0
40
2.0000000000000284
210
0
220
-0
230
1
100
AcDbArc
50
90
51
134.99999999999943
0
LINE
5
11E
100
AcDbEntity
8
PERIMETER
100
AcDbLine
10
201.58578643762678
20
-271.41789321881345
30
0
11
261.29289321881322
21
-211.71078643762712
31
0
0
ARC
5
11F
100
AcDbEntity
8
PERIMETER
100
AcDbCircle
10
202.9999999999998
20
-272.83210678118667
30
0
40
1.999999999999996
210
0
220
0
230
1
100
AcDbArc
50
134.99999999999596
51
180
0
LINE
5
120
100
AcDbEntity
8
PERIMETER
100
AcDbLine
10
200.99999999999977
20
-300.625
30
0
11
200.9999999999998
21
-272.83210678118667
31
0
0
ARC
5
121
100
AcDbEntity
8
PERIMETER
100
AcDbCircle
10
198.9999999999998
20
-300.62500000000006
30
0
40
1.9999999999999574
210
-0
220
0
230
1
100
AcDbArc
50
-90
51
0
0
LINE
5
122
100
AcDbEntity
8
PERIMETER
100
AcDbLine
10
-279.00000000000023
20
-302.625
30
0
11
198.9999999999998
21
-302.625
31
0
0
ARC
5
123
100
AcDbEntity
8
PERIMETER
100
AcDbCircle
10
-279.00000000000023
20
-300.62500000000006
30
0
40
1.9999999999999929
210
0
220
0
230
1
100
AcDbArc
50
180
51
270
0
LINE
5
124
100
AcDbEntity
8
PERIMETER
100
AcDbLine
10
-281.00000000000028
20
-272.83210678118655
30
0
11
-281.00000000000023
21
-300.625
31
0
0
ARC
5
125
100
AcDbEntity
8
PERIMETER
100
AcDbCircle
10
-283.00000000000023
20
-272.83210678118655
30
0
40
1.9999999999999929
210
0
220
-0
230
1
100
AcDbArc
50
0
51
45.000000000001151
0
LINE
5
126
100
AcDbEntity
8
PERIMETER
100
AcDbLine
10
-291.91421356237277
20
-261.08946609406786
30
0
11
-281.58578643762718
21
-271.41789321881345
31
0
0
ARC
5
127
100
AcDbEntity
8
PERIMETER
100
AcDbCircle
10
-290.49999999999949
20
-259.6752525316947
30
0
40
2.0000000000001705
210
0
220
0
230
1
100
AcDbArc
50
180
51
224.99999999999767
0
LINE
5
128
100
AcDbEntity
8
PERIMETER
100
AcDbLine
10
-292.49999999999966
20
-238.45342712474675
30
0
11
-292.49999999999966
21
-259.67525253169481
31
0
0
ARC
5
129
100
AcDbEntity
8
PERIMETER
100
AcDbCircle
10
-290.49999999999966
20
-238.45342712474675
30
0
40
1.999999999999996
210
0
220
0
230
1
100
AcDbArc
50
135.0000000000006
51
180
0
LINE
5
12A
100
AcDbEntity
8
PERIMETER
100
AcDbLine
10
-270.08578643750286
20
-215.21078643750394
30
0
11
-291.91421356237277
21
-237.03921356237367
31
0
0
ARC
5
12B
100
AcDbEntity
8
PERIMETER
100
AcDbCircle
10
-271.49999999987597
20
-213.79657287513083
30
0
40
2.0000000000000213
210
-0
220
0
230
1
100
AcDbArc
50
-45
51
0
0
LINE
5
12C
100
AcDbEntity
8
PERIMETER
100
AcDbLine
10
-269.49999999987602
20
-31.453427124871638
30
0
11
-269.49999999987602
21
-213.79657287513083
31
0
0
ARC
5
12D
100
AcDbEntity
8
PERIMETER
100
AcDbCircle
10
-271.49999999987597
20
-31.453427124871638
30
0
40
1.9999999999999929
210
0
220
-0
230
1
100
AcDbArc
50
0
51
45.000000000000789
0
LINE
5
12E
100
AcDbEntity
8
PERIMETER
100
AcDbLine
10
-291.91421356237294
20
-8.2107864376283857
30
0
11
-270.08578643750292
21
-30.039213562498546
31
0
0
ARC
5
12F
100
AcDbEntity
8
PERIMETER
100
AcDbCircle
10
-290.49999999999977
20
-6.7965728752552934
30
0
40
2.0000000000000639
210
0
220
0
230
1
100
AcDbArc
50
180
51
224.99999999999844
0
LINE
5
130
100
AcDbEntity
8
PERIMETER
100
AcDbLine
10
-292.49999999999983
20
11.546572875252288
30
0
11
-292.49999999999983
21
-6.7965728752553645
31
0
0
ARC
5
131
100
AcDbEntity
8
PERIMETER
100
AcDbCircle
10
-290.50000000000006
20
11.546572875252394
30
0
40
1.9999999999997446
210
0
220
0
230
1
100
AcDbArc
50
134.99999999999858
51
180
0
LINE
5
132
100
AcDbEntity
8
PERIMETER
100
AcDbLine
10
-270.08578643750286
20
34.789213562495576
30
0
11
-291.91421356237294
21
12.960786437625345
31
0
0
ARC
5
133
100
AcDbEntity
8
PERIMETER
100
AcDbCircle
10
-271.49999999987597
20
36.203427124868632
30
0
40
1.999999999999996
210
-0
220
0
230
1
100
AcDbArc
50
-44.999999999998977
51
0
0
LINE
5
134
100
AcDbEntity
8
PERIMETER
100
AcDbLine
10
-269.49999999987597
20
223.54657287512816
30
0
11
-269.49999999987602
21
36.203427124868632
31
0
0
ARC
5
135
100
AcDbEntity
8
PERIMETER
100
AcDbCircle
10
-271.49999999987597
20
223.54657287512816
30
0
40
1.9999999999999929
210
0
220
-0
230
1
100
AcDbArc
50
0
51
44.999999999998849
0
LINE
5
136
100
AcDbEntity
8
PERIMETER
100
AcDbLine
10
-291.91421356237316
20
246.78921356237294
30
0
11
-270.08578643750286
21
224.96078643750121
31
0
0
ARC
5
137
100
AcDbEntity
8
PERIMETER
100
AcDbCircle
10
-290.50000000000017
20
248.20342712474587
30
0
40
1.9999999999998153
210
0
220
0
230
1
100
AcDbArc
50
180
51
224.99999999999827
0
LINE
5
138
100
AcDbEntity
8
PERIMETER
100
AcDbLine
10
-292.5
20
269.4618810393751
30
0
11
-292.5
21
248.20342712474596
31
0
0
ARC
5
139
100
AcDbEntity
8
PERIMETER
100
AcDbCircle
10
-290.49999999999994
20
269.4618810393751
30
0
40
2.0000000000000733
210
0
220
0
230
1
100
AcDbArc
50
116.56505117707944
51
180
0
LINE
5
13A
100
AcDbEntity
8
PERIMETER
100
AcDbLine
10
-282.10557280900002
20
275.89516261237497
30
0
11
-291.39442719099992
21
271.25073542137494
31
0
0
ARC
5
13B
100
AcDbEntity
8
PERIMETER
100
AcDbCircle
10
-283
20
277.68401699437482
30
0
40
2.0000000000000098
210
-0
220
0
230
1
100
AcDbArc
50
-63.434948822920525
51
0
0
LINE
5
13C
100
AcDbEntity
8
PERIMETER
100
AcDbLine
10
-281
20
300.62499999999983
30
0
11
-281
21
277.68401699437476
31
0
0
ARC
5
13D
100
AcDbEntity
8
PERIMETER
100
AcDbCircle
10
-279
20
300.62499999999983
30
0
40
1.9999999999999929
210
0
220
-0
230
1
100
AcDbArc
50
90
51
180
0
LINE
5
13E
100
AcDbEntity
8
PERIMETER
100
AcDbLine
10
-258.63908729652599
20
302.62499999999983
30
0
11
-279
21
302.62499999999983
31
0
0
ARC
5
13F
100
AcDbEntity
8
PERIMETER
100
AcDbCircle
10
-258.63908729652593
20
300.62499999999989
30
0
40
1.9999999999999207
210
0
220
-0
230
1
100
AcDbArc
50
45
51
90.000000000001634
0
LINE
5
140
100
AcDbEntity
8
PERIMETER
100
AcDbLine
10
-236.39644660940667
20
281.21078643762672
30
0
11
-257.22487373415288
21
302.03921356237294
31
0
0
ARC
5
141
100
AcDbEntity
8
PERIMETER
100
AcDbCircle
10
-234.98223304703359
20
282.62499999999983
30
0
40
1.999999999999996
210
0
220
0
230
1
100
AcDbArc
50
224.99999999999943
51
270
0
LINE
5
142
100
AcDbEntity
8
PERIMETER
100
AcDbLine
10
-216.01776695296633
20
280.62499999999989
30
0
11
-234.98223304703359
21
280.62499999999989
31
0
0
ARC
5
143
100
AcDbEntity
8
PERIMETER
100
AcDbCircle
10
-216.01776695296633
20
282.62499999999983
30
0
40
1.9999999999999929
210
-0
220
0
230
1
100
AcDbArc
50
270
51
315.00000000000119
0
LINE
5
144
100
AcDbEntity
8
PERIMETER
100
AcDbLine
10
-193.77512626584706
20
302.03921356237294
30
0
11
-214.60355339059322
21
281.21078643762678
31
0
0
ARC
5
145
100
AcDbEntity
8
PERIMETER
100
AcDbCircle
10
-192.36091270347401
20
300.62499999999989
30
0
40
1.9999999999999929
210
0
220
-0
230
1
100
AcDbArc
50
90
51
135.00000000000117
0
LINE
5
146
100
AcDbEntity
8
PERIMETER
100
AcDbLine
10
-115.13908729652587
20
302.62500000000006
30
0
11
-192.36091270347399
21
302.62499999999983
31
0
0
ARC
5
147
100
AcDbEntity
8
PERIMETER
100
AcDbCircle
10
-115.13908729652587
20
300.62500000000006
30
0
40
2.0000000000000338
210
0
220
-0
230
1
100
AcDbArc
50
45.000000000001151
51
90
0
LINE
5
148
100
AcDbEntity
8
PERIMETER
100
AcDbLine
10
-92.89644660940661
20
281.21078643762695
30
0
11
-113.72487373415277
21
302.03921356237316
31
0
0
ARC
5
149
100
AcDbEntity
8
PERIMETER
100
AcDbCircle
10
-91.482233047033503
20
282.62500000000006
30
0
40
2.0000000000000084
210
0
220
0
230
1
100
AcDbArc
50
225
51
270
0
LINE
5
14A
100
AcDbEntity
8
PERIMETER
100
AcDbLine
10
-72.517766952966255
20
280.62500000000006
30
0
11
-91.482233047033503
21
280.62500000000006
31
0
0
ARC
5
14B
100
AcDbEntity
8
PERIMETER
100
AcDbCircle
10
-72.517766952966255
20
282.62500000000006
30
0
40
1.9999999999999929
210
-0
220
0
230
1
100
AcDbArc
50
270
51
314.99999999999972
0
LINE
5
14C
100
AcDbEntity
8
PERIMETER
100
AcDbLine
10
-50.275126265846986
20
302.03921356237316
30
0
11
-71.103553390593149
21
281.21078643762695
31
0
0
ARC
5
14D
100
AcDbEntity
8
PERIMETER
100
AcDbCircle
10
-48.860912703473886
20
300.62500000000006
30
0
40
1.9999999999999929
210
0
220
-0
230
1
100
AcDbArc
50
89.999999999999588
51
134.99999999999986
0
LINE
5
14E
100
AcDbEntity
8
PERIMETER
100
AcDbLine
10
-31.139087296525908
20
302.62500000000006
30
0
11
-48.860912703473886
21
302.62500000000006
31
0
0
ARC
5
14F
100
AcDbEntity
8
PERIMETER
100
AcDbCircle
10
-31.139087296525901
20
300.62500000000006
30
0
40
2.0000000000000053
210
0
220
-0
230
1
100
AcDbArc
50
45.000000000000071
51
90.000000000000199
0
LINE
5
150
100
AcDbEntity
8
PERIMETER
100
AcDbLine
10
-8.8964466094066061
20
281.21078643762695
30
0
11
-29.724873734152801
21
302.03921356237311
31
0
0
ARC
5
151
100
AcDbEntity
8
PERIMETER
100
AcDbCircle
10
-7.4822330470335174
20
282.62500000000006
30
0
40
1.9999999999999929
210
0
220
0
230
1
100
AcDbArc
50
225.00000000000037
51
270
0
LINE
5
152
100
AcDbEntity
8
PERIMETER
100
AcDbLine
10
11.482233047033752
20
280.62500000000006
30
0
11
-7.4822330470335174
21
280.62500000000006
31
0
0
ARC
5
153
100
AcDbEntity
8
PERIMETER
100
AcDbCircle
10
11.482233047033752
20
282.625
30
0
40
1.9999999999999929
210
-0
220
0
230
1
100
AcDbArc
50
270
51
315.0000000000008
0
LINE
5
154
100
AcDbEntity
8
PERIMETER
100
AcDbLine
10
33.72487373415305
20
302.03921356237311
30
0
11
12.896446609406844
21
281.21078643762695
31
0
0
ARC
5
155
100
AcDbEntity
8
PERIMETER
100
AcDbCircle
10
35.139087296526171
20
300.625
30
0
40
2.0000000000000284
210
0
220
0
230
1
100
AcDbArc
50
90.000000000000199
51
135.00000000000017
0
LINE
5
156
100
AcDbEntity
8
PERIMETER
100
AcDbLine
10
112.36091270347403
20
302.62499999999994
30
0
11
35.139087296526164
21
302.625
31
0
0
ARC
5
157
100
AcDbEntity
8
PERIMETER
100
AcDbCircle
10
112.36091270347403
20
300.62499999999994
30
0
40
2.0000000000000084
210
0
220
-0
230
1
100
AcDbArc
50
44.99999999999855
51
90
0
ENDSEC
0
SECTION
2
OBJECTS
0
DICTIONARY
5
C
100
AcDbDictionary
3
ACAD_GROUP
350
D
3
ACAD_MLINESTYLE
350
17
0
DICTIONARY
5
D
100
AcDbDictionary
0
DICTIONARY
5
1A
330
C
100
AcDbDictionary
0
DICTIONARY
5
17
100
AcDbDictionary
0
ENDSEC
0
EOF
