0
SECTION
2
HEADER
9
$INSUNITS
70
4
9
$ACADVER
1
AC1014
9
$HANDSEED
5
FFFF
0
ENDSEC
0
SECTION
2
TABLES
0
TABLE
2
VPORT
5
8
100
AcDbSymbolTable
0
ENDTAB
0
TABLE
2
LTYPE
5
5
100
AcDbSymbolTable
70
2
0
LTYPE
5
14
100
AcDbSymbolTableRecord
100
AcDbLinetypeTableRecord
2
BYBLOCK
70
0
0
LTYPE
5
15
100
AcDbSymbolTableRecord
100
AcDbLinetypeTableRecord
2
BYLAYER
70
0
0
ENDTAB
0
TABLE
2
LAYER
5
2
100
AcDbSymbolTable
70
3
0
LAYER
5
50
100
AcDbSymbolTableRecord
100
AcDbLayerTableRecord
2
0
70
0
6
CONTINUOUS
0
LAYER
5
51
100
AcDbSymbolTableRecord
100
AcDbLayerTableRecord
2
CUTOUTS
70
0
62
1
6
CONTINUOUS
0
LAYER
5
52
100
AcDbSymbolTableRecord
100
AcDbLayerTableRecord
2
PERIMETER
70
0
62
5
6
CONTINUOUS
0
ENDTAB
0
TABLE
2
STYLE
5
3
100
AcDbSymbolTable
70
1
0
STYLE
5
11
100
AcDbSymbolTableRecord
100
AcDbTextStyleTableRecord
2
STANDARD
70
0
0
ENDTAB
0
TABLE
2
VIEW
5
6
100
AcDbSymbolTable
0
ENDTAB
0
TABLE
2
UCS
5
7
100
AcDbSymbolTable
0
ENDTAB
0
TABLE
2
APPID
5
9
100
AcDbSymbolTable
70
1
0
APPID
5
12
100
AcDbSymbolTableRecord
100
AcDbRegAppTableRecord
2
ACAD
70
0
0
ENDTAB
0
TABLE
2
DIMSTYLE
5
A
100
AcDbSymbolTable
0
ENDTAB
0
TABLE
2
BLOCK_RECORD
5
1
100
AcDbSymbolTable
70
2
0
BLOCK_RECORD
5
1F
100
AcDbSymbolTableRecord
100
AcDbBlockTableRecord
2
*MODEL_SPACE
0
BLOCK_RECORD
5
1B
100
AcDbSymbolTableRecord
100
AcDbBlockTableRecord
2
*PAPER_SPACE
0
ENDTAB
0
ENDSEC
0
SECTION
2
BLOCKS
0
BLOCK
5
20
100
AcDbEntity
100
AcDbBlockBegin
2
*MODEL_SPACE
0
ENDBLK
5
21
100
AcDbEntity
100
AcDbBlockEnd
0
BLOCK
5
1C
100
AcDbEntity
100
AcDbBlockBegin
2
*PAPER_SPACE
0
ENDBLK
5
1D
100
AcDbEntity
100
AcDbBlockEnd
0
ENDSEC
0
SECTION
2
ENTITIES
0
CIRCLE
5
100
100
AcDbEntity
8
CUTOUTS
100
AcDbCircle
10
-9.3322652017133329e-14
20
-279
30
0
40
3.3000000000000003
210
0
220
0
230
1
0
CIRCLE
5
101
100
AcDbEntity
8
CUTOUTS
100
AcDbCircle
10
284.99999999999994
20
7.9999999999998739
30
0
40
3.2999999999999829
210
0
220
0
230
1
0
CIRCLE
5
102
100
AcDbEntity
8
CUTOUTS
100
AcDbCircle
10
202.99999999999986
20
-279.00000000000006
30
0
40
3.2999999999999829
210
0
220
0
230
1
0
CIRCLE
5
103
100
AcDbEntity
8
CUTOUTS
100
AcDbCircle
10
-285.00000000000006
20
-197.00000000000011
30
0
40
3.2999999999999829
210
0
220
0
230
1
0
CIRCLE
5
104
100
AcDbEntity
8
CUTOUTS
100
AcDbCircle
10
-285.00000000000006
20
212.99999999999997
30
0
40
3.2999999999999829
210
0
220
0
230
1
0
CIRCLE
5
105
100
AcDbEntity
8
CUTOUTS
100
AcDbCircle
10
65.999999999999957
20
279
30
0
40
3.3000000000000007
210
0
220
0
230
1
0
CIRCLE
5
106
100
AcDbEntity
8
CUTOUTS
100
AcDbCircle
10
-219.00000000000003
20
279
30
0
40
3.2999999999999829
210
0
220
0
230
1
0
CIRCLE
5
107
100
AcDbEntity
8
CUTOUTS
100
AcDbCircle
10
-53.000000000000071
20
278.99999999999994
30
0
40
3.3000000000000007
210
0
220
0
230
1
0
CIRCLE
5
108
100
AcDbEntity
8
CUTOUTS
100
AcDbCircle
10
219.00000000000003
20
279
30
0
40
3.2999999999999829
210
0
220
0
230
1
0
CIRCLE
5
109
100
AcDbEntity
8
CUTOUTS
100
AcDbCircle
10
-285.00000000000006
20
7.9999999999999361
30
0
40
3.2999999999999829
210
0
220
0
230
1
0
CIRCLE
5
10A
100
AcDbEntity
8
CUTOUTS
100
AcDbCircle
10
-203.00000000000009
20
-279
30
0
40
3.2999999999999829
210
0
220
0
230
1
0
CIRCLE
5
10B
100
AcDbEntity
8
CUTOUTS
100
AcDbCircle
10
284.99999999999989
20
-197.00000000000017
30
0
40
3.2999999999999829
210
0
220
0
230
1
0
CIRCLE
5
10C
100
AcDbEntity
8
CUTOUTS
100
AcDbCircle
10
285
20
212.99999999999989
30
0
40
3.2999999999999829
210
0
220
0
230
1
0
ARC
5
10D
100
AcDbEntity
8
PERIMETER
100
AcDbCircle
10
214.99999999999977
20
-291.00000000000006
30
0
40
1.9999999999999929
210
-0
220
0
230
1
100
AcDbArc
50
-90
51
0
0
LINE
5
10E
100
AcDbEntity
8
PERIMETER
100
AcDbLine
10
216.99999999999977
20
-291.00000000000006
30
0
11
216.99999999999983
21
-219.00000000000011
31
0
0
LINE
5
10F
100
AcDbEntity
8
PERIMETER
100
AcDbLine
10
216.99999999999983
20
-219.00000000000011
30
0
11
224.99999999999983
21
-211.00000000000009
31
0
0
LINE
5
110
100
AcDbEntity
8
PERIMETER
100
AcDbLine
10
224.99999999999983
20
-211.00000000000009
30
0
11
296.99999999999983
21
-211.00000000000011
31
0
0
ARC
5
111
100
AcDbEntity
8
PERIMETER
100
AcDbCircle
10
296.99999999999989
20
-209.00000000000017
30
0
40
1.9999999999999574
210
0
220
0
230
1
100
AcDbArc
50
-90.000000000001634
51
0
0
LINE
5
112
100
AcDbEntity
8
PERIMETER
100
AcDbLine
10
298.99999999999983
20
-209.00000000000011
30
0
11
299
21
224.99999999999977
31
0
0
ARC
5
113
100
AcDbEntity
8
PERIMETER
100
AcDbCircle
10
297
20
224.99999999999983
30
0
40
1.9999999999999929
210
-0
220
0
230
1
100
AcDbArc
50
0
51
90
0
LINE
5
114
100
AcDbEntity
8
PERIMETER
100
AcDbLine
10
297
20
226.99999999999983
30
0
11
272.00000000000006
21
226.99999999999989
31
0
0
ARC
5
115
100
AcDbEntity
8
PERIMETER
100
AcDbCircle
10
272.00000000000006
20
228.99999999999989
30
0
40
1.9999999999999929
210
0
220
0
230
1
100
AcDbArc
50
180
51
270
0
LINE
5
116
100
AcDbEntity
8
PERIMETER
100
AcDbLine
10
270.00000000000006
20
228.99999999999989
30
0
11
270.00000000000023
21
261.99999999999994
31
0
0
ARC
5
117
100
AcDbEntity
8
PERIMETER
100
AcDbCircle
10
268.00000000000023
20
261.99999999999994
30
0
40
1.9999999999999929
210
0
220
-0
230
1
100
AcDbArc
50
0
51
90
0
LINE
5
118
100
AcDbEntity
8
PERIMETER
100
AcDbLine
10
268.00000000000023
20
263.99999999999989
30
0
11
234.99999999999997
21
263.99999999999983
31
0
0
ARC
5
119
100
AcDbEntity
8
PERIMETER
100
AcDbCircle
10
234.99999999999997
20
265.99999999999983
30
0
40
1.9999999999999929
210
0
220
0
230
1
100
AcDbArc
50
180
51
270
0
LINE
5
11A
100
AcDbEntity
8
PERIMETER
100
AcDbLine
10
232.99999999999997
20
265.99999999999983
30
0
11
232.99999999999997
21
290.99999999999989
31
0
0
ARC
5
11B
100
AcDbEntity
8
PERIMETER
100
AcDbCircle
10
231
20
290.99999999999989
30
0
40
1.9999999999999574
210
-0
220
0
230
1
100
AcDbArc
50
0
51
90.00000000000081
0
LINE
5
11C
100
AcDbEntity
8
PERIMETER
100
AcDbLine
10
230.99999999999997
20
292.99999999999989
30
0
11
53.999999999999915
21
292.99999999999989
31
0
0
ARC
5
11D
100
AcDbEntity
8
PERIMETER
100
AcDbCircle
10
53.999999999999922
20
290.99999999999989
30
0
40
1.9999999999999929
210
0
220
0
230
1
100
AcDbArc
50
90.000000000000199
51
180
0
LINE
5
11E
100
AcDbEntity
8
PERIMETER
100
AcDbLine
10
51.999999999999929
20
290.99999999999989
30
0
11
51.999999999999922
21
265.99999999999989
31
0
0
ARC
5
11F
100
AcDbEntity
8
PERIMETER
100
AcDbCircle
10
49.999999999999922
20
265.99999999999989
30
0
40
1.9999999999999929
210
-0
220
0
230
1
100
AcDbArc
50
-90
51
0
0
LINE
5
120
100
AcDbEntity
8
PERIMETER
100
AcDbLine
10
49.999999999999922
20
263.99999999999989
30
0
11
40.999999999999908
21
263.99999999999983
31
0
0
ARC
5
121
100
AcDbEntity
8
PERIMETER
100
AcDbCircle
10
40.999999999999915
20
261.99999999999983
30
0
40
1.9999999999999929
210
0
220
0
230
1
100
AcDbArc
50
90.000000000000199
51
180
0
LINE
5
122
100
AcDbEntity
8
PERIMETER
100
AcDbLine
10
38.999999999999922
20
261.99999999999983
30
0
11
38.999999999999908
21
206.99999999999986
31
0
0
LINE
5
123
100
AcDbEntity
8
PERIMETER
100
AcDbLine
10
38.999999999999908
20
206.99999999999986
30
0
11
31.999999999999915
21
199.99999999999989
31
0
0
LINE
5
124
100
AcDbEntity
8
PERIMETER
100
AcDbLine
10
31.999999999999915
20
199.99999999999989
30
0
11
-32.000000000000092
21
199.99999999999986
31
0
0
LINE
5
125
100
AcDbEntity
8
PERIMETER
100
AcDbLine
10
-32.000000000000092
20
199.99999999999986
30
0
11
-39.000000000000092
21
206.99999999999986
31
0
0
LINE
5
126
100
AcDbEntity
8
PERIMETER
100
AcDbLine
10
-39.000000000000092
20
206.99999999999986
30
0
11
-39.000000000000099
21
290.99999999999989
31
0
0
ARC
5
127
100
AcDbEntity
8
PERIMETER
100
AcDbCircle
10
-41.000000000000092
20
290.99999999999989
30
0
40
1.9999999999999929
210
0
220
-0
230
1
100
AcDbArc
50
0
51
90.000000000000199
0
LINE
5
128
100
AcDbEntity
8
PERIMETER
100
AcDbLine
10
-41.000000000000099
20
292.99999999999989
30
0
11
-231.00000000000009
21
292.99999999999989
31
0
0
ARC
5
129
100
AcDbEntity
8
PERIMETER
100
AcDbCircle
10
-231.00000000000009
20
290.99999999999989
30
0
40
1.9999999999999929
210
0
220
0
230
1
100
AcDbArc
50
90.00000000000081
51
180
0
LINE
5
12A
100
AcDbEntity
8
PERIMETER
100
AcDbLine
10
-233.00000000000009
20
290.99999999999989
30
0
11
-233.00000000000009
21
265.99999999999983
31
0
0
ARC
5
12B
100
AcDbEntity
8
PERIMETER
100
AcDbCircle
10
-235.00000000000006
20
265.99999999999983
30
0
40
1.9999999999999929
210
-0
220
0
230
1
100
AcDbArc
50
-90
51
0
0
LINE
5
12C
100
AcDbEntity
8
PERIMETER
100
AcDbLine
10
-235.00000000000006
20
263.99999999999983
30
0
11
-268.00000000000028
21
263.99999999999989
31
0
0
ARC
5
12D
100
AcDbEntity
8
PERIMETER
100
AcDbCircle
10
-268.00000000000028
20
261.99999999999994
30
0
40
1.9999999999999929
210
0
220
-0
230
1
100
AcDbArc
50
90
51
180
0
LINE
5
12E
100
AcDbEntity
8
PERIMETER
100
AcDbLine
10
-270.00000000000028
20
261.99999999999994
30
0
11
-270.00000000000011
21
228.99999999999983
31
0
0
ARC
5
12F
100
AcDbEntity
8
PERIMETER
100
AcDbCircle
10
-272.00000000000011
20
228.99999999999983
30
0
40
1.9999999999999929
210
-0
220
0
230
1
100
AcDbArc
50
-90
51
0
0
LINE
5
130
100
AcDbEntity
8
PERIMETER
100
AcDbLine
10
-272.00000000000011
20
226.99999999999986
30
0
11
-297.00000000000011
21
226.99999999999983
31
0
0
ARC
5
131
100
AcDbEntity
8
PERIMETER
100
AcDbCircle
10
-297.00000000000011
20
224.99999999999977
30
0
40
2.0000000000000284
210
0
220
-0
230
1
100
AcDbArc
50
90
51
180
0
LINE
5
132
100
AcDbEntity
8
PERIMETER
100
AcDbLine
10
-299.00000000000011
20
224.99999999999977
30
0
11
-299.00000000000011
21
-209.00000000000011
31
0
0
ARC
5
133
100
AcDbEntity
8
PERIMETER
100
AcDbCircle
10
-297.00000000000011
20
-209.00000000000011
30
0
40
1.9999999999999929
210
0
220
0
230
1
100
AcDbArc
50
180
51
270
0
LINE
5
134
100
AcDbEntity
8
PERIMETER
100
AcDbLine
10
-297.00000000000011
20
-211.00000000000011
30
0
11
-225.00000000000006
21
-211.00000000000006
31
0
0
LINE
5
135
100
AcDbEntity
8
PERIMETER
100
AcDbLine
10
-225.00000000000006
20
-211.00000000000006
30
0
11
-217.00000000000011
21
-219.00000000000006
31
0
0
LINE
5
136
100
AcDbEntity
8
PERIMETER
100
AcDbLine
10
-217.00000000000011
20
-219.00000000000006
30
0
11
-217.00000000000011
21
-291
31
0
0
ARC
5
137
100
AcDbEntity
8
PERIMETER
100
AcDbCircle
10
-215.00000000000014
20
-291
30
0
40
1.9999999999999574
210
0
220
0
230
1
100
AcDbArc
50
180
51
270
0
LINE
5
138
100
AcDbEntity
8
PERIMETER
100
AcDbLine
10
-215.00000000000014
20
-293
30
0
11
214.99999999999977
21
-293.00000000000006
31
0
0
ENDSEC
0
SECTION
2
OBJECTS
0
DICTIONARY
5
C
100
AcDbDictionary
3
ACAD_GROUP
350
D
3
ACAD_MLINESTYLE
350
17
0
DICTIONARY
5
D
100
AcDbDictionary
0
DICTIONARY
5
1A
330
C
100
AcDbDictionary
0
DICTIONARY
5
17
100
AcDbDictionary
0
ENDSEC
0
EOF
