0
SECTION
2
HEADER
9
$INSUNITS
70
4
9
$ACADVER
1
AC1014
9
$HANDSEED
5
FFFF
0
ENDSEC
0
SECTION
2
TABLES
0
TABLE
2
VPORT
5
8
100
AcDbSymbolTable
0
ENDTAB
0
TABLE
2
LTYPE
5
5
100
AcDbSymbolTable
70
2
0
LTYPE
5
14
100
AcDbSymbolTableRecord
100
AcDbLinetypeTableRecord
2
BYBLOCK
70
0
0
LTYPE
5
15
100
AcDbSymbolTableRecord
100
AcDbLinetypeTableRecord
2
BYLAYER
70
0
0
ENDTAB
0
TABLE
2
LAYER
5
2
100
AcDbSymbolTable
70
3
0
LAYER
5
50
100
AcDbSymbolTableRecord
100
AcDbLayerTableRecord
2
0
70
0
6
CONTINUOUS
0
LAYER
5
51
100
AcDbSymbolTableRecord
100
AcDbLayerTableRecord
2
CUTOUTS
70
0
62
1
6
CONTINUOUS
0
LAYER
5
52
100
AcDbSymbolTableRecord
100
AcDbLayerTableRecord
2
PERIMETER
70
0
62
5
6
CONTINUOUS
0
ENDTAB
0
TABLE
2
STYLE
5
3
100
AcDbSymbolTable
70
1
0
STYLE
5
11
100
AcDbSymbolTableRecord
100
AcDbTextStyleTableRecord
2
STANDARD
70
0
0
ENDTAB
0
TABLE
2
VIEW
5
6
100
AcDbSymbolTable
0
ENDTAB
0
TABLE
2
UCS
5
7
100
AcDbSymbolTable
0
ENDTAB
0
TABLE
2
APPID
5
9
100
AcDbSymbolTable
70
1
0
APPID
5
12
100
AcDbSymbolTableRecord
100
AcDbRegAppTableRecord
2
ACAD
70
0
0
ENDTAB
0
TABLE
2
DIMSTYLE
5
A
100
AcDbSymbolTable
0
ENDTAB
0
TABLE
2
BLOCK_RECORD
5
1
100
AcDbSymbolTable
70
2
0
BLOCK_RECORD
5
1F
100
AcDbSymbolTableRecord
100
AcDbBlockTableRecord
2
*MODEL_SPACE
0
BLOCK_RECORD
5
1B
100
AcDbSymbolTableRecord
100
AcDbBlockTableRecord
2
*PAPER_SPACE
0
ENDTAB
0
ENDSEC
0
SECTION
2
BLOCKS
0
BLOCK
5
20
100
AcDbEntity
100
AcDbBlockBegin
2
*MODEL_SPACE
0
ENDBLK
5
21
100
AcDbEntity
100
AcDbBlockEnd
0
BLOCK
5
1C
100
AcDbEntity
100
AcDbBlockBegin
2
*PAPER_SPACE
0
ENDBLK
5
1D
100
AcDbEntity
100
AcDbBlockEnd
0
ENDSEC
0
SECTION
2
ENTITIES
0
CIRCLE
5
100
100
AcDbEntity
8
CUTOUTS
100
AcDbCircle
10
42.000000000000085
20
-127.37499999999997
30
0
40
3.3000000000000007
210
0
220
0
230
1
0
CIRCLE
5
101
100
AcDbEntity
8
CUTOUTS
100
AcDbCircle
10
-185.5
20
-127.37500000000018
30
0
40
3.2999999999999829
210
0
220
0
230
1
0
CIRCLE
5
102
100
AcDbEntity
8
CUTOUTS
100
AcDbCircle
10
-41.999999999999915
20
-127.37499999999996
30
0
40
3.3000000000000007
210
0
220
0
230
1
0
CIRCLE
5
103
100
AcDbEntity
8
CUTOUTS
100
AcDbCircle
10
185.5
20
-127.37500000000013
30
0
40
3.2999999999999829
210
0
220
0
230
1
0
CIRCLE
5
104
100
AcDbEntity
8
CUTOUTS
100
AcDbCircle
10
317.50000000000006
20
32.624999999999943
30
0
40
3.3000000000000185
210
0
220
0
230
1
0
CIRCLE
5
105
100
AcDbEntity
8
CUTOUTS
100
AcDbCircle
10
3.5527136788005009e-14
20
122.62500000000003
30
0
40
3.3000000000000003
210
0
220
0
230
1
0
CIRCLE
5
106
100
AcDbEntity
8
CUTOUTS
100
AcDbCircle
10
-317.5
20
32.624999999999957
30
0
40
3.2999999999999829
210
0
220
0
230
1
0
CIRCLE
5
107
100
AcDbEntity
8
CUTOUTS
100
AcDbCircle
10
-317.5
20
-67.375000000000369
30
0
40
3.2999999999999829
210
0
220
0
230
1
0
CIRCLE
5
108
100
AcDbEntity
8
CUTOUTS
100
AcDbCircle
10
-227.5
20
122.62499999999996
30
0
40
3.2999999999999829
210
0
220
0
230
1
0
CIRCLE
5
109
100
AcDbEntity
8
CUTOUTS
100
AcDbCircle
10
227.50000000000003
20
122.62500000000003
30
0
40
3.2999999999999829
210
0
220
0
230
1
0
CIRCLE
5
10A
100
AcDbEntity
8
CUTOUTS
100
AcDbCircle
10
317.50000000000006
20
-67.375000000000284
30
0
40
3.3000000000000185
210
0
220
0
230
1
0
LINE
5
10B
100
AcDbEntity
8
PERIMETER
100
AcDbLine
10
52.275126265847156
20
-137.03921356237308
30
0
11
73.103553390593362
21
-116.21078643762687
31
0
0
ARC
5
10C
100
AcDbEntity
8
PERIMETER
100
AcDbCircle
10
50.860912703474085
20
-135.625
30
0
40
1.9999999999999751
210
0
220
0
230
1
100
AcDbArc
50
269.9999999999996
51
314.99999999999983
0
LINE
5
10D
100
AcDbEntity
8
PERIMETER
100
AcDbLine
10
33.139087296526093
20
-137.62499999999994
30
0
11
50.860912703474071
21
-137.62499999999994
31
0
0
ARC
5
10E
100
AcDbEntity
8
PERIMETER
100
AcDbCircle
10
33.139087296526093
20
-135.62499999999997
30
0
40
1.9999999999999993
210
0
220
0
230
1
100
AcDbArc
50
224.99999999999972
51
269.99999999999983
0
LINE
5
10F
100
AcDbEntity
8
PERIMETER
100
AcDbLine
10
10.896446609406796
20
-116.21078643762687
30
0
11
31.724873734153
21
-137.03921356237305
31
0
0
ARC
5
110
100
AcDbEntity
8
PERIMETER
100
AcDbCircle
10
9.4822330470337075
20
-117.62499999999996
30
0
40
2.0000000000000053
210
0
220
-0
230
1
100
AcDbArc
50
45.000000000000355
51
90
0
LINE
5
111
100
AcDbEntity
8
PERIMETER
100
AcDbLine
10
-9.4822330470335601
20
-115.62499999999997
30
0
11
9.4822330470337075
21
-115.62499999999997
31
0
0
ARC
5
112
100
AcDbEntity
8
PERIMETER
100
AcDbCircle
10
-9.4822330470335601
20
-117.62499999999996
30
0
40
1.9999999999999929
210
0
220
-0
230
1
100
AcDbArc
50
90
51
135
0
LINE
5
113
100
AcDbEntity
8
PERIMETER
100
AcDbLine
10
-31.724873734152812
20
-137.03921356237305
30
0
11
-10.896446609406656
21
-116.21078643762687
31
0
0
ARC
5
114
100
AcDbEntity
8
PERIMETER
100
AcDbCircle
10
-33.139087296525915
20
-135.62499999999997
30
0
40
1.9999999999999929
210
0
220
0
230
1
100
AcDbArc
50
270
51
315.00000000000051
0
LINE
5
115
100
AcDbEntity
8
PERIMETER
100
AcDbLine
10
-50.860912703473915
20
-137.62499999999994
30
0
11
-33.139087296525915
21
-137.62499999999994
31
0
0
ARC
5
116
100
AcDbEntity
8
PERIMETER
100
AcDbCircle
10
-50.860912703473922
20
-135.62499999999997
30
0
40
1.9999999999999585
210
0
220
0
230
1
100
AcDbArc
50
225.00000000000014
51
270.00000000000023
0
LINE
5
117
100
AcDbEntity
8
PERIMETER
100
AcDbLine
10
-73.103553390593191
20
-116.21078643762687
30
0
11
-52.275126265846993
21
-137.03921356237305
31
0
0
ARC
5
118
100
AcDbEntity
8
PERIMETER
100
AcDbCircle
10
-74.517766952966284
20
-117.62499999999996
30
0
40
2.0000000000000022
210
0
220
-0
230
1
100
AcDbArc
50
45
51
90.000000000000398
0
LINE
5
119
100
AcDbEntity
8
PERIMETER
100
AcDbLine
10
-152.98223304703362
20
-115.62500000000016
30
0
11
-74.517766952966298
21
-115.62499999999994
31
0
0
ARC
5
11A
100
AcDbEntity
8
PERIMETER
100
AcDbCircle
10
-152.98223304703362
20
-117.62500000000017
30
0
40
1.9999999999999929
210
0
220
-0
230
1
100
AcDbArc
50
90
51
135.00000000000031
0
LINE
5
11B
100
AcDbEntity
8
PERIMETER
100
AcDbLine
10
-175.22487373415294
20
-137.03921356237328
30
0
11
-154.39644660940672
21
-116.21078643762706
31
0
0
ARC
5
11C
100
AcDbEntity
8
PERIMETER
100
AcDbCircle
10
-176.63908729652607
20
-135.62500000000003
30
0
40
2.0000000000001528
210
-0
220
0
230
1
100
AcDbArc
50
270.00000000000159
51
314.99999999999773
0
LINE
5
11D
100
AcDbEntity
8
PERIMETER
100
AcDbLine
10
-194.36091270347393
20
-137.6250000000002
30
0
11
-176.63908729652601
21
-137.62500000000017
31
0
0
ARC
5
11E
100
AcDbEntity
8
PERIMETER
100
AcDbCircle
10
-194.36091270347387
20
-135.62500000000003
30
0
40
2.000000000000159
210
0
220
0
230
1
100
AcDbArc
50
225.00000000000173
51
269.99999999999835
0
LINE
5
11F
100
AcDbEntity
8
PERIMETER
100
AcDbLine
10
-216.60355339059322
20
-116.21078643762708
30
0
11
-195.77512626584704
21
-137.03921356237328
31
0
0
ARC
5
120
100
AcDbEntity
8
PERIMETER
100
AcDbCircle
10
-218.01776695296633
20
-117.62500000000017
30
0
40
1.999999999999996
210
0
220
-0
230
1
100
AcDbArc
50
44.999999999999709
51
90
0
LINE
5
121
100
AcDbEntity
8
PERIMETER
100
AcDbLine
10
-239.00000000000006
20
-115.62500000000016
30
0
11
-218.01776695296633
21
-115.62500000000017
31
0
0
ARC
5
122
100
AcDbEntity
8
PERIMETER
100
AcDbCircle
10
-239.00000000000006
20
-113.6250000000002
30
0
40
1.9999999999999574
210
0
220
0
230
1
100
AcDbArc
50
180
51
270
0
LINE
5
123
100
AcDbEntity
8
PERIMETER
100
AcDbLine
10
-241.00000000000006
20
-112.68401699437511
30
0
11
-241
21
-113.62500000000018
31
0
0
ARC
5
124
100
AcDbEntity
8
PERIMETER
100
AcDbCircle
10
-243.00000000000006
20
-112.68401699437511
30
0
40
1.9999999999999929
210
0
220
-0
230
1
100
AcDbArc
50
0
51
63.434948822921832
0
LINE
5
125
100
AcDbEntity
8
PERIMETER
100
AcDbLine
10
-301.72360679774999
20
-81.086145618000529
30
0
11
-242.10557280900014
21
-110.89516261237527
31
0
0
ARC
5
126
100
AcDbEntity
8
PERIMETER
100
AcDbCircle
10
-302.61803398874986
20
-82.875000000000355
30
0
40
1.9999999999999938
210
0
220
-0
230
1
100
AcDbArc
50
63.434948822923275
51
90
0
LINE
5
127
100
AcDbEntity
8
PERIMETER
100
AcDbLine
10
-330.5
20
-80.875000000000369
30
0
11
-302.61803398874986
21
-80.875000000000341
31
0
0
ARC
5
128
100
AcDbEntity
8
PERIMETER
100
AcDbCircle
10
-330.5
20
-78.875000000000341
30
0
40
2.0000000000000284
210
0
220
0
230
1
100
AcDbArc
50
180
51
270
0
LINE
5
129
100
AcDbEntity
8
PERIMETER
100
AcDbLine
10
-332.5
20
44.124999999999979
30
0
11
-332.5
21
-78.875000000000341
31
0
0
ARC
5
12A
100
AcDbEntity
8
PERIMETER
100
AcDbCircle
10
-330.5
20
44.124999999999943
30
0
40
2.0000000000000284
210
0
220
-0
230
1
100
AcDbArc
50
90
51
180
0
LINE
5
12B
100
AcDbEntity
8
PERIMETER
100
AcDbLine
10
-302.7071067811865
20
46.124999999999972
30
0
11
-330.5
21
46.124999999999972
31
0
0
ARC
5
12C
100
AcDbEntity
8
PERIMETER
100
AcDbCircle
10
-302.7071067811865
20
48.124999999999964
30
0
40
1.9999999999999929
210
-0
220
0
230
1
100
AcDbArc
50
270
51
315.00000000000028
0
LINE
5
12D
100
AcDbEntity
8
PERIMETER
100
AcDbLine
10
-241.58578643762692
20
106.4178932188133
30
0
11
-301.29289321881339
21
46.710786437626872
31
0
0
ARC
5
12E
100
AcDbEntity
8
PERIMETER
100
AcDbCircle
10
-243
20
107.83210678118643
30
0
40
2.0000000000000213
210
-0
220
0
230
1
100
AcDbArc
50
-45.00000000000086
51
0
0
LINE
5
12F
100
AcDbEntity
8
PERIMETER
100
AcDbLine
10
-241.00000000000006
20
135.62499999999977
30
0
11
-241
21
107.83210678118643
31
0
0
ARC
5
130
100
AcDbEntity
8
PERIMETER
100
AcDbCircle
10
-239.00000000000009
20
135.62499999999983
30
0
40
1.9999999999999574
210
0
220
-0
230
1
100
AcDbArc
50
90
51
180
0
LINE
5
131
100
AcDbEntity
8
PERIMETER
100
AcDbLine
10
239.00000000000003
20
137.62500000000006
30
0
11
-239.00000000000009
21
137.62499999999977
31
0
0
ARC
5
132
100
AcDbEntity
8
PERIMETER
100
AcDbCircle
10
239.00000000000003
20
135.62500000000006
30
0
40
1.9999999999999929
210
0
220
-0
230
1
100
AcDbArc
50
0
51
90
0
LINE
5
133
100
AcDbEntity
8
PERIMETER
100
AcDbLine
10
241
20
107.8321067811865
30
0
11
241
21
135.62500000000014
31
0
0
ARC
5
134
100
AcDbEntity
8
PERIMETER
100
AcDbCircle
10
243
20
107.83210678118647
30
0
40
1.9999999999999929
210
0
220
0
230
1
100
AcDbArc
50
180
51
225.00000000000057
0
LINE
5
135
100
AcDbEntity
8
PERIMETER
100
AcDbLine
10
301.2928932188135
20
46.710786437626872
30
0
11
241.58578643762695
21
106.4178932188134
31
0
0
ARC
5
136
100
AcDbEntity
8
PERIMETER
100
AcDbCircle
10
302.70710678118655
20
48.124999999999964
30
0
40
1.999999999999996
210
0
220
0
230
1
100
AcDbArc
50
225.00000000000085
51
270
0
LINE
5
137
100
AcDbEntity
8
PERIMETER
100
AcDbLine
10
330.5
20
46.124999999999972
30
0
11
302.70710678118655
21
46.124999999999972
31
0
0
ARC
5
138
100
AcDbEntity
8
PERIMETER
100
AcDbCircle
10
330.50000000000006
20
44.125000000000014
30
0
40
1.9999999999999574
210
0
220
-0
230
1
100
AcDbArc
50
0
51
90.000000000001634
0
LINE
5
139
100
AcDbEntity
8
PERIMETER
100
AcDbLine
10
332.50000000000006
20
-78.875000000000256
30
0
11
332.5
21
44.125000000000014
31
0
0
ARC
5
13A
100
AcDbEntity
8
PERIMETER
100
AcDbCircle
10
330.5
20
-78.875000000000171
30
0
40
2.0000000000000995
210
-0
220
0
230
1
100
AcDbArc
50
270.00000000000159
51
360
0
LINE
5
13B
100
AcDbEntity
8
PERIMETER
100
AcDbLine
10
302.61803398874986
20
-80.87500000000027
30
0
11
330.50000000000006
21
-80.87500000000027
31
0
0
ARC
5
13C
100
AcDbEntity
8
PERIMETER
100
AcDbCircle
10
302.61803398874986
20
-82.875000000000256
30
0
40
1.9999999999999929
210
0
220
-0
230
1
100
AcDbArc
50
90
51
116.56505117707836
0
LINE
5
13D
100
AcDbEntity
8
PERIMETER
100
AcDbLine
10
242.10557280900008
20
-110.89516261237526
30
0
11
301.72360679774994
21
-81.086145618000444
31
0
0
ARC
5
13E
100
AcDbEntity
8
PERIMETER
100
AcDbCircle
10
243
20
-112.68401699437507
30
0
40
2.0000000000000098
210
0
220
0
230
1
100
AcDbArc
50
116.56505117707799
51
180
0
LINE
5
13F
100
AcDbEntity
8
PERIMETER
100
AcDbLine
10
240.99999999999997
20
-113.62500000000011
30
0
11
241
21
-112.68401699437507
31
0
0
ARC
5
140
100
AcDbEntity
8
PERIMETER
100
AcDbCircle
10
239
20
-113.62500000000013
30
0
40
1.9999999999999929
210
-0
220
0
230
1
100
AcDbArc
50
-90
51
0
0
LINE
5
141
100
AcDbEntity
8
PERIMETER
100
AcDbLine
10
218.0177669529665
20
-115.62500000000013
30
0
11
239
21
-115.62500000000011
31
0
0
ARC
5
142
100
AcDbEntity
8
PERIMETER
100
AcDbCircle
10
218.0177669529665
20
-117.62500000000011
30
0
40
1.9999999999999929
210
0
220
-0
230
1
100
AcDbArc
50
90
51
135.00000000000117
0
LINE
5
143
100
AcDbEntity
8
PERIMETER
100
AcDbLine
10
195.77512626584712
20
-137.03921356237322
30
0
11
216.60355339059336
21
-116.21078643762702
31
0
0
ARC
5
144
100
AcDbEntity
8
PERIMETER
100
AcDbCircle
10
194.36091270347404
20
-135.62500000000011
30
0
40
1.9999999999999929
210
-0
220
0
230
1
100
AcDbArc
50
270
51
314.99999999999943
0
LINE
5
145
100
AcDbEntity
8
PERIMETER
100
AcDbLine
10
176.63908729652601
20
-137.62500000000014
30
0
11
194.36091270347404
21
-137.62500000000011
31
0
0
ARC
5
146
100
AcDbEntity
8
PERIMETER
100
AcDbCircle
10
176.63908729652607
20
-135.62499999999997
30
0
40
2.000000000000159
210
0
220
0
230
1
100
AcDbArc
50
225.00000000000173
51
269.99999999999835
0
LINE
5
147
100
AcDbEntity
8
PERIMETER
100
AcDbLine
10
154.39644660940684
20
-116.21078643762704
30
0
11
175.22487373415291
21
-137.03921356237322
31
0
0
ARC
5
148
100
AcDbEntity
8
PERIMETER
100
AcDbCircle
10
152.98223304703373
20
-117.62500000000014
30
0
40
1.999999999999996
210
0
220
-0
230
1
100
AcDbArc
50
45
51
90
0
LINE
5
149
100
AcDbEntity
8
PERIMETER
100
AcDbLine
10
74.517766952966454
20
-115.62499999999999
30
0
11
152.98223304703373
21
-115.62500000000014
31
0
0
ARC
5
14A
100
AcDbEntity
8
PERIMETER
100
AcDbCircle
10
74.517766952966454
20
-117.62499999999997
30
0
40
1.9999999999999929
210
0
220
-0
230
1
100
AcDbArc
50
90
51
135
0
ENDSEC
0
SECTION
2
OBJECTS
0
DICTIONARY
5
C
100
AcDbDictionary
3
ACAD_GROUP
350
D
3
ACAD_MLINESTYLE
350
17
0
DICTIONARY
5
D
100
AcDbDictionary
0
DICTIONARY
5
1A
330
C
100
AcDbDictionary
0
DICTIONARY
5
17
100
AcDbDictionary
0
ENDSEC
0
EOF
