0
SECTION
2
HEADER
9
$INSUNITS
70
4
9
$ACADVER
1
AC1014
9
$HANDSEED
5
FFFF
0
ENDSEC
0
SECTION
2
TABLES
0
TABLE
2
VPORT
5
8
100
AcDbSymbolTable
0
ENDTAB
0
TABLE
2
LTYPE
5
5
100
AcDbSymbolTable
70
2
0
LTYPE
5
14
100
AcDbSymbolTableRecord
100
AcDbLinetypeTableRecord
2
BYBLOCK
70
0
0
LTYPE
5
15
100
AcDbSymbolTableRecord
100
AcDbLinetypeTableRecord
2
BYLAYER
70
0
0
ENDTAB
0
TABLE
2
LAYER
5
2
100
AcDbSymbolTable
70
3
0
LAYER
5
50
100
AcDbSymbolTableRecord
100
AcDbLayerTableRecord
2
0
70
0
6
CONTINUOUS
0
LAYER
5
51
100
AcDbSymbolTableRecord
100
AcDbLayerTableRecord
2
CUTOUTS
70
0
62
1
6
CONTINUOUS
0
LAYER
5
52
100
AcDbSymbolTableRecord
100
AcDbLayerTableRecord
2
PERIMETER
70
0
62
5
6
CONTINUOUS
0
ENDTAB
0
TABLE
2
STYLE
5
3
100
AcDbSymbolTable
70
1
0
STYLE
5
11
100
AcDbSymbolTableRecord
100
AcDbTextStyleTableRecord
2
STANDARD
70
0
0
ENDTAB
0
TABLE
2
VIEW
5
6
100
AcDbSymbolTable
0
ENDTAB
0
TABLE
2
UCS
5
7
100
AcDbSymbolTable
0
ENDTAB
0
TABLE
2
APPID
5
9
100
AcDbSymbolTable
70
1
0
APPID
5
12
100
AcDbSymbolTableRecord
100
AcDbRegAppTableRecord
2
ACAD
70
0
0
ENDTAB
0
TABLE
2
DIMSTYLE
5
A
100
AcDbSymbolTable
0
ENDTAB
0
TABLE
2
BLOCK_RECORD
5
1
100
AcDbSymbolTable
70
2
0
BLOCK_RECORD
5
1F
100
AcDbSymbolTableRecord
100
AcDbBlockTableRecord
2
*MODEL_SPACE
0
BLOCK_RECORD
5
1B
100
AcDbSymbolTableRecord
100
AcDbBlockTableRecord
2
*PAPER_SPACE
0
ENDTAB
0
ENDSEC
0
SECTION
2
BLOCKS
0
BLOCK
5
20
100
AcDbEntity
100
AcDbBlockBegin
2
*MODEL_SPACE
0
ENDBLK
5
21
100
AcDbEntity
100
AcDbBlockEnd
0
BLOCK
5
1C
100
AcDbEntity
100
AcDbBlockBegin
2
*PAPER_SPACE
0
ENDBLK
5
1D
100
AcDbEntity
100
AcDbBlockEnd
0
ENDSEC
0
SECTION
2
ENTITIES
0
CIRCLE
5
100
100
AcDbEntity
8
CUTOUTS
100
AcDbCircle
10
262.50007053463173
20
-162.2500000000307
30
0
40
3.2999999999999829
210
0
220
0
230
1
0
CIRCLE
5
101
100
AcDbEntity
8
CUTOUTS
100
AcDbCircle
10
262.50007053463372
20
99.749999999969319
30
0
40
3.2999999999999829
210
0
220
0
230
1
0
CIRCLE
5
102
100
AcDbEntity
8
CUTOUTS
100
AcDbCircle
10
262.50007053463372
20
62.74999999996929
30
0
40
3.2999999999999829
210
0
220
0
230
1
0
CIRCLE
5
103
100
AcDbEntity
8
CUTOUTS
100
AcDbCircle
10
262.50007053463372
20
47.74999999996929
30
0
40
3.2999999999999829
210
0
220
0
230
1
0
CIRCLE
5
104
100
AcDbEntity
8
CUTOUTS
100
AcDbCircle
10
262.50007053463372
20
10.74999999996928
30
0
40
3.2999999999999829
210
0
220
0
230
1
0
CIRCLE
5
105
100
AcDbEntity
8
CUTOUTS
100
AcDbCircle
10
262.50007053463173
20
-177.2500000000307
30
0
40
3.2999999999999829
210
0
220
0
230
1
0
CIRCLE
5
106
100
AcDbEntity
8
CUTOUTS
100
AcDbCircle
10
-262.50007053463213
20
-162.2500000000307
30
0
40
3.2999999999999829
210
0
220
0
230
1
0
CIRCLE
5
107
100
AcDbEntity
8
CUTOUTS
100
AcDbCircle
10
-262.50007053463412
20
99.749999999969319
30
0
40
3.2999999999999829
210
0
220
0
230
1
0
CIRCLE
5
108
100
AcDbEntity
8
CUTOUTS
100
AcDbCircle
10
-262.50007053463412
20
62.74999999996929
30
0
40
3.2999999999999829
210
0
220
0
230
1
0
CIRCLE
5
109
100
AcDbEntity
8
CUTOUTS
100
AcDbCircle
10
-262.50007053463412
20
47.74999999996929
30
0
40
3.2999999999999829
210
0
220
0
230
1
0
CIRCLE
5
10A
100
AcDbEntity
8
CUTOUTS
100
AcDbCircle
10
-262.50007053463412
20
10.74999999996928
30
0
40
3.2999999999999829
210
0
220
0
230
1
0
CIRCLE
5
10B
100
AcDbEntity
8
CUTOUTS
100
AcDbCircle
10
-262.50007053463213
20
-177.2500000000307
30
0
40
3.2999999999999829
210
0
220
0
230
1
0
LINE
5
10C
100
AcDbEntity
8
PERIMETER
100
AcDbLine
10
-208.49999999975648
20
212.74999999996908
30
0
11
-208.49999999975643
21
184.95710678115645
31
0
0
ARC
5
10D
100
AcDbEntity
8
PERIMETER
100
AcDbCircle
10
-210.49999999975643
20
184.95710678115645
30
0
40
2.0000000000000213
210
-0
220
0
230
1
100
AcDbArc
50
-45.00000000011628
51
0
0
LINE
5
10E
100
AcDbEntity
8
PERIMETER
100
AcDbLine
10
-209.08578643738619
20
183.54289321878048
30
0
11
-268.79289321881595
21
123.83578643759338
31
0
0
ARC
5
10F
100
AcDbEntity
8
PERIMETER
100
AcDbCircle
10
-270.20710678118616
20
125.24999999996933
30
0
40
1.9999999999999929
210
-0
220
0
230
1
100
AcDbArc
50
270
51
314.99999999988307
0
LINE
5
110
100
AcDbEntity
8
PERIMETER
100
AcDbLine
10
-270.20710678118616
20
123.24999999996933
30
0
11
-298.00000036304607
21
123.24999999996948
31
0
0
ARC
5
111
100
AcDbEntity
8
PERIMETER
100
AcDbCircle
10
-298.00000036304601
20
121.24999999996938
30
0
40
2.0000000000000995
210
0
220
0
230
1
100
AcDbArc
50
90.000000000001634
51
179.99999408488267
0
LINE
5
112
100
AcDbEntity
8
PERIMETER
100
AcDbLine
10
-300.00000036304607
20
121.25000020742422
30
0
11
-300.0000335039486
21
-198.24999979250867
31
0
0
ARC
5
113
100
AcDbEntity
8
PERIMETER
100
AcDbCircle
10
-298.00003350394866
20
-198.24999999996345
30
0
40
1.9999999999999327
210
0
220
0
230
1
100
AcDbArc
50
179.99999408488267
51
269.99999999999676
0
LINE
5
114
100
AcDbEntity
8
PERIMETER
100
AcDbLine
10
-298.00003350394877
20
-200.24999999996334
30
0
11
-272.50003526731956
21
-200.24999999996496
31
0
0
ARC
5
115
100
AcDbEntity
8
PERIMETER
100
AcDbCircle
10
-272.50003526731967
20
-202.24999999996498
30
0
40
1.9999999999999929
210
0
220
-0
230
1
100
AcDbArc
50
0
51
89.999999999996746
0
LINE
5
116
100
AcDbEntity
8
PERIMETER
100
AcDbLine
10
-270.50003526731973
20
-202.24999999996498
30
0
11
-270.50003526731973
21
-212.7499999999695
31
0
0
ARC
5
117
100
AcDbEntity
8
PERIMETER
100
AcDbCircle
10
-268.50003526731973
20
-212.7499999999695
30
0
40
1.9999999999999929
210
0
220
0
230
1
100
AcDbArc
50
180
51
270
0
LINE
5
118
100
AcDbEntity
8
PERIMETER
100
AcDbLine
10
-268.50003526731973
20
-214.7499999999695
30
0
11
268.50003526731933
21
-214.74999999996928
31
0
0
ARC
5
119
100
AcDbEntity
8
PERIMETER
100
AcDbCircle
10
268.50003526731933
20
-212.7499999999693
30
0
40
1.9999999999999929
210
-0
220
0
230
1
100
AcDbArc
50
-90
51
0
0
LINE
5
11A
100
AcDbEntity
8
PERIMETER
100
AcDbLine
10
270.50003526731933
20
-212.7499999999693
30
0
11
270.50003526731933
21
-202.24999999995705
31
0
0
ARC
5
11B
100
AcDbEntity
8
PERIMETER
100
AcDbCircle
10
272.50003526731928
20
-202.24999999995705
30
0
40
1.9999999999999929
210
0
220
-0
230
1
100
AcDbArc
50
89.99999999999838
51
180
0
LINE
5
11C
100
AcDbEntity
8
PERIMETER
100
AcDbLine
10
272.50003526731933
20
-200.24999999995708
30
0
11
298.00003350394854
21
-200.24999999995745
31
0
0
ARC
5
11D
100
AcDbEntity
8
PERIMETER
100
AcDbCircle
10
298.00003350394866
20
-198.24999999995751
30
0
40
1.9999999999999574
210
0
220
0
230
1
100
AcDbArc
50
-90.000000000003254
51
5.9151173338843952e-06
0
LINE
5
11E
100
AcDbEntity
8
PERIMETER
100
AcDbLine
10
300.0000335039486
20
-198.24999979250279
30
0
11
300.00000036304573
21
121.25000020742441
31
0
0
ARC
5
11F
100
AcDbEntity
8
PERIMETER
100
AcDbCircle
10
298.00000036304579
20
121.24999999996966
30
0
40
1.9999999999999682
210
0
220
-0
230
1
100
AcDbArc
50
5.9151173338843952e-06
51
90.000000000001634
0
LINE
5
120
100
AcDbEntity
8
PERIMETER
100
AcDbLine
10
298.00000036304573
20
123.24999999996965
30
0
11
270.20710678118576
21
123.24999999996965
31
0
0
ARC
5
121
100
AcDbEntity
8
PERIMETER
100
AcDbCircle
10
270.20710678118576
20
125.24999999996962
30
0
40
1.999999999999996
210
0
220
0
230
1
100
AcDbArc
50
225.00000000011687
51
270
0
LINE
5
122
100
AcDbEntity
8
PERIMETER
100
AcDbLine
10
268.79289321881555
20
123.83578643759364
30
0
11
209.08578643738579
21
183.54289321878068
31
0
0
ARC
5
123
100
AcDbEntity
8
PERIMETER
100
AcDbCircle
10
210.499999999756
20
184.95710678115665
30
0
40
1.9999999999999929
210
0
220
0
230
1
100
AcDbArc
50
180
51
225.00000000011687
0
LINE
5
124
100
AcDbEntity
8
PERIMETER
100
AcDbLine
10
208.49999999975603
20
184.95710678115665
30
0
11
208.49999999975603
21
212.74999999996948
31
0
0
ARC
5
125
100
AcDbEntity
8
PERIMETER
100
AcDbCircle
10
206.49999999975603
20
212.74999999996948
30
0
40
1.9999999999999929
210
0
220
-0
230
1
100
AcDbArc
50
0
51
90
0
LINE
5
126
100
AcDbEntity
8
PERIMETER
100
AcDbLine
10
206.49999999975603
20
214.74999999996948
30
0
11
-206.49999999975651
21
214.74999999996908
31
0
0
ARC
5
127
100
AcDbEntity
8
PERIMETER
100
AcDbCircle
10
-206.49999999975648
20
212.74999999996908
30
0
40
1.9999999999999929
210
0
220
0
230
1
100
AcDbArc
50
90.00000000000081
51
180
0
ENDSEC
0
SECTION
2
OBJECTS
0
DICTIONARY
5
C
100
AcDbDictionary
3
ACAD_GROUP
350
D
3
ACAD_MLINESTYLE
350
17
0
DICTIONARY
5
D
100
AcDbDictionary
0
DICTIONARY
5
1A
330
C
100
AcDbDictionary
0
DICTIONARY
5
17
100
AcDbDictionary
0
ENDSEC
0
EOF
