0
SECTION
2
HEADER
9
$INSUNITS
70
4
9
$ACADVER
1
AC1014
9
$HANDSEED
5
FFFF
0
ENDSEC
0
SECTION
2
TABLES
0
TABLE
2
VPORT
5
8
100
AcDbSymbolTable
0
ENDTAB
0
TABLE
2
LTYPE
5
5
100
AcDbSymbolTable
70
2
0
LTYPE
5
14
100
AcDbSymbolTableRecord
100
AcDbLinetypeTableRecord
2
BYBLOCK
70
0
0
LTYPE
5
15
100
AcDbSymbolTableRecord
100
AcDbLinetypeTableRecord
2
BYLAYER
70
0
0
ENDTAB
0
TABLE
2
LAYER
5
2
100
AcDbSymbolTable
70
3
0
LAYER
5
50
100
AcDbSymbolTableRecord
100
AcDbLayerTableRecord
2
0
70
0
6
CONTINUOUS
0
LAYER
5
51
100
AcDbSymbolTableRecord
100
AcDbLayerTableRecord
2
CUTOUTS
70
0
62
1
6
CONTINUOUS
0
LAYER
5
52
100
AcDbSymbolTableRecord
100
AcDbLayerTableRecord
2
PERIMETER
70
0
62
5
6
CONTINUOUS
0
ENDTAB
0
TABLE
2
STYLE
5
3
100
AcDbSymbolTable
70
1
0
STYLE
5
11
100
AcDbSymbolTableRecord
100
AcDbTextStyleTableRecord
2
STANDARD
70
0
0
ENDTAB
0
TABLE
2
VIEW
5
6
100
AcDbSymbolTable
0
ENDTAB
0
TABLE
2
UCS
5
7
100
AcDbSymbolTable
0
ENDTAB
0
TABLE
2
APPID
5
9
100
AcDbSymbolTable
70
1
0
APPID
5
12
100
AcDbSymbolTableRecord
100
AcDbRegAppTableRecord
2
ACAD
70
0
0
ENDTAB
0
TABLE
2
DIMSTYLE
5
A
100
AcDbSymbolTable
0
ENDTAB
0
TABLE
2
BLOCK_RECORD
5
1
100
AcDbSymbolTable
70
2
0
BLOCK_RECORD
5
1F
100
AcDbSymbolTableRecord
100
AcDbBlockTableRecord
2
*MODEL_SPACE
0
BLOCK_RECORD
5
1B
100
AcDbSymbolTableRecord
100
AcDbBlockTableRecord
2
*PAPER_SPACE
0
ENDTAB
0
ENDSEC
0
SECTION
2
BLOCKS
0
BLOCK
5
20
100
AcDbEntity
100
AcDbBlockBegin
2
*MODEL_SPACE
0
ENDBLK
5
21
100
AcDbEntity
100
AcDbBlockEnd
0
BLOCK
5
1C
100
AcDbEntity
100
AcDbBlockBegin
2
*PAPER_SPACE
0
ENDBLK
5
1D
100
AcDbEntity
100
AcDbBlockEnd
0
ENDSEC
0
SECTION
2
ENTITIES
0
CIRCLE
5
100
100
AcDbEntity
8
CUTOUTS
100
AcDbCircle
10
284.99999999999994
20
7.9999999999999076
30
0
40
3.2999999999999829
210
0
220
0
230
1
0
CIRCLE
5
101
100
AcDbEntity
8
CUTOUTS
100
AcDbCircle
10
202.99999999999986
20
-279
30
0
40
3.2999999999999829
210
0
220
0
230
1
0
CIRCLE
5
102
100
AcDbEntity
8
CUTOUTS
100
AcDbCircle
10
-32.500000000000064
20
-279
30
0
40
3.3000000000000007
210
0
220
0
230
1
0
CIRCLE
5
103
100
AcDbEntity
8
CUTOUTS
100
AcDbCircle
10
-285.00000000000006
20
-197
30
0
40
3.2999999999999829
210
0
220
0
230
1
0
CIRCLE
5
104
100
AcDbEntity
8
CUTOUTS
100
AcDbCircle
10
-285.00000000000006
20
212.99999999999994
30
0
40
3.2999999999999829
210
0
220
0
230
1
0
CIRCLE
5
105
100
AcDbEntity
8
CUTOUTS
100
AcDbCircle
10
66
20
278.99999999999994
30
0
40
3.3000000000000007
210
0
220
0
230
1
0
CIRCLE
5
106
100
AcDbEntity
8
CUTOUTS
100
AcDbCircle
10
-219.00000000000003
20
279
30
0
40
3.2999999999999829
210
0
220
0
230
1
0
CIRCLE
5
107
100
AcDbEntity
8
CUTOUTS
100
AcDbCircle
10
-53.000000000000028
20
279
30
0
40
3.3000000000000007
210
0
220
0
230
1
0
CIRCLE
5
108
100
AcDbEntity
8
CUTOUTS
100
AcDbCircle
10
219.00000000000006
20
278.99999999999994
30
0
40
3.2999999999999829
210
0
220
0
230
1
0
CIRCLE
5
109
100
AcDbEntity
8
CUTOUTS
100
AcDbCircle
10
-285.00000000000006
20
7.9999999999999716
30
0
40
3.2999999999999829
210
0
220
0
230
1
0
CIRCLE
5
10A
100
AcDbEntity
8
CUTOUTS
100
AcDbCircle
10
-203
20
-279
30
0
40
3.2999999999999829
210
0
220
0
230
1
0
CIRCLE
5
10B
100
AcDbEntity
8
CUTOUTS
100
AcDbCircle
10
32.499999999999936
20
-279
30
0
40
3.3000000000000007
210
0
220
0
230
1
0
CIRCLE
5
10C
100
AcDbEntity
8
CUTOUTS
100
AcDbCircle
10
284.99999999999989
20
-197.00000000000006
30
0
40
3.2999999999999829
210
0
220
0
230
1
0
CIRCLE
5
10D
100
AcDbEntity
8
CUTOUTS
100
AcDbCircle
10
285.00000000000006
20
212.99999999999986
30
0
40
3.2999999999999829
210
0
220
0
230
1
0
LINE
5
10E
100
AcDbEntity
8
PERIMETER
100
AcDbLine
10
-41.000000014901218
20
292.99999998509884
30
0
11
-230.99999998509895
21
292.9999999850989
31
0
0
ARC
5
10F
100
AcDbEntity
8
PERIMETER
100
AcDbCircle
10
-230.99999998509895
20
290.9999999850989
30
0
40
1.9999999999999929
210
0
220
-0
230
1
100
AcDbArc
50
89.99999999999838
51
180
0
LINE
5
110
100
AcDbEntity
8
PERIMETER
100
AcDbLine
10
-232.99999998509892
20
290.9999999850989
30
0
11
-232.99999998509892
21
265.99999998509895
31
0
0
ARC
5
111
100
AcDbEntity
8
PERIMETER
100
AcDbCircle
10
-234.99999998509892
20
265.99999998509895
30
0
40
1.9999999999999929
210
-0
220
0
230
1
100
AcDbArc
50
-90
51
0
0
LINE
5
112
100
AcDbEntity
8
PERIMETER
100
AcDbLine
10
-234.99999998509892
20
263.99999998509895
30
0
11
-267.9999999850989
21
263.99999998509895
31
0
0
ARC
5
113
100
AcDbEntity
8
PERIMETER
100
AcDbCircle
10
-267.9999999850989
20
261.99999998509895
30
0
40
1.9999999999999929
210
0
220
-0
230
1
100
AcDbArc
50
90
51
180
0
LINE
5
114
100
AcDbEntity
8
PERIMETER
100
AcDbLine
10
-269.9999999850989
20
261.99999998509895
30
0
11
-269.99999998509895
21
228.99999998509881
31
0
0
ARC
5
115
100
AcDbEntity
8
PERIMETER
100
AcDbCircle
10
-271.9999999850989
20
228.99999998509881
30
0
40
1.9999999999999929
210
-0
220
0
230
1
100
AcDbArc
50
-90
51
0
0
LINE
5
116
100
AcDbEntity
8
PERIMETER
100
AcDbLine
10
-271.9999999850989
20
226.99999998509881
30
0
11
-296.9999999850989
21
226.99999998509878
31
0
0
ARC
5
117
100
AcDbEntity
8
PERIMETER
100
AcDbCircle
10
-296.9999999850989
20
224.99999998509878
30
0
40
1.9999999999999929
210
0
220
-0
230
1
100
AcDbArc
50
90
51
180
0
LINE
5
118
100
AcDbEntity
8
PERIMETER
100
AcDbLine
10
-298.9999999850989
20
224.99999998509878
30
0
11
-298.9999999850989
21
-208.99999998509878
31
0
0
ARC
5
119
100
AcDbEntity
8
PERIMETER
100
AcDbCircle
10
-296.9999999850989
20
-208.99999998509878
30
0
40
1.9999999999999929
210
0
220
0
230
1
100
AcDbArc
50
180
51
270
0
LINE
5
11A
100
AcDbEntity
8
PERIMETER
100
AcDbLine
10
-296.9999999850989
20
-210.99999998509875
30
0
11
-225.82842710984508
21
-210.99999998509875
31
0
0
ARC
5
11B
100
AcDbEntity
8
PERIMETER
100
AcDbCircle
10
-225.82842710984508
20
-212.99999998509875
30
0
40
1.999999999999996
210
0
220
-0
230
1
100
AcDbArc
50
45
51
90
0
LINE
5
11C
100
AcDbEntity
8
PERIMETER
100
AcDbLine
10
-224.414213547472
20
-211.58578642272568
30
0
11
-217.58578642272579
21
-218.41421354747189
31
0
0
ARC
5
11D
100
AcDbEntity
8
PERIMETER
100
AcDbCircle
10
-218.99999998509887
20
-219.82842710984499
30
0
40
1.9999999999999929
210
0
220
-0
230
1
100
AcDbArc
50
0
51
45.000000000000568
0
LINE
5
11E
100
AcDbEntity
8
PERIMETER
100
AcDbLine
10
-216.9999999850989
20
-219.82842710984499
30
0
11
-216.99999998509884
21
-290.99999998509878
31
0
0
ARC
5
11F
100
AcDbEntity
8
PERIMETER
100
AcDbCircle
10
-214.99999998509884
20
-290.99999998509878
30
0
40
1.9999999999999929
210
0
220
0
230
1
100
AcDbArc
50
180
51
270
0
LINE
5
120
100
AcDbEntity
8
PERIMETER
100
AcDbLine
10
-214.99999998509884
20
-292.99999998509878
30
0
11
-20.500000014901261
21
-292.99999998509878
31
0
0
ARC
5
121
100
AcDbEntity
8
PERIMETER
100
AcDbCircle
10
-20.500000014901268
20
-290.99999998509878
30
0
40
1.9999999999999929
210
-0
220
0
230
1
100
AcDbArc
50
-89.999999999999801
51
0
0
LINE
5
122
100
AcDbEntity
8
PERIMETER
100
AcDbLine
10
-18.500000014901275
20
-290.99999998509878
30
0
11
-18.500000014901261
21
-267.49999998509878
31
0
0
ARC
5
123
100
AcDbEntity
8
PERIMETER
100
AcDbCircle
10
-16.500000014901261
20
-267.49999998509878
30
0
40
1.9999999999999929
210
0
220
-0
230
1
100
AcDbArc
50
90
51
180
0
LINE
5
124
100
AcDbEntity
8
PERIMETER
100
AcDbLine
10
-16.500000014901261
20
-265.49999998509878
30
0
11
16.500000014901062
21
-265.49999998509878
31
0
0
ARC
5
125
100
AcDbEntity
8
PERIMETER
100
AcDbCircle
10
16.500000014901062
20
-267.49999998509878
30
0
40
1.9999999999999996
210
0
220
-0
230
1
100
AcDbArc
50
0
51
90
0
LINE
5
126
100
AcDbEntity
8
PERIMETER
100
AcDbLine
10
18.500000014901062
20
-267.49999998509878
30
0
11
18.500000014901062
21
-290.99999998509878
31
0
0
ARC
5
127
100
AcDbEntity
8
PERIMETER
100
AcDbCircle
10
20.500000014901069
20
-290.99999998509878
30
0
40
2.0000000000000084
210
0
220
0
230
1
100
AcDbArc
50
180
51
269.99999999999989
0
LINE
5
128
100
AcDbEntity
8
PERIMETER
100
AcDbLine
10
20.500000014901065
20
-292.99999998509878
30
0
11
214.99999998509873
21
-292.99999998509878
31
0
0
ARC
5
129
100
AcDbEntity
8
PERIMETER
100
AcDbCircle
10
214.99999998509873
20
-290.99999998509878
30
0
40
1.9999999999999929
210
-0
220
0
230
1
100
AcDbArc
50
-89.99999999999919
51
0
0
LINE
5
12A
100
AcDbEntity
8
PERIMETER
100
AcDbLine
10
216.9999999850987
20
-290.99999998509878
30
0
11
216.99999998509873
21
-219.82842710984497
31
0
0
ARC
5
12B
100
AcDbEntity
8
PERIMETER
100
AcDbCircle
10
218.99999998509873
20
-219.82842710984497
30
0
40
1.999999999999996
210
0
220
0
230
1
100
AcDbArc
50
134.99999999999943
51
180
0
LINE
5
12C
100
AcDbEntity
8
PERIMETER
100
AcDbLine
10
217.58578642272565
20
-218.41421354747186
30
0
11
224.41421354747183
21
-211.5857864227257
31
0
0
ARC
5
12D
100
AcDbEntity
8
PERIMETER
100
AcDbCircle
10
225.82842710984494
20
-212.99999998509878
30
0
40
1.9999999999999929
210
0
220
-0
230
1
100
AcDbArc
50
90
51
135.0000000000006
0
LINE
5
12E
100
AcDbEntity
8
PERIMETER
100
AcDbLine
10
225.82842710984494
20
-210.99999998509878
30
0
11
296.99999998509884
21
-210.99999998509878
31
0
0
ARC
5
12F
100
AcDbEntity
8
PERIMETER
100
AcDbCircle
10
296.99999998509884
20
-208.99999998509884
30
0
40
1.9999999999999574
210
-0
220
0
230
1
100
AcDbArc
50
-90
51
0
0
LINE
5
130
100
AcDbEntity
8
PERIMETER
100
AcDbLine
10
298.99999998509878
20
-208.99999998509884
30
0
11
298.99999998509884
21
224.99999998509873
31
0
0
ARC
5
131
100
AcDbEntity
8
PERIMETER
100
AcDbCircle
10
296.99999998509884
20
224.99999998509873
30
0
40
1.9999999999999929
210
0
220
-0
230
1
100
AcDbArc
50
0
51
90
0
LINE
5
132
100
AcDbEntity
8
PERIMETER
100
AcDbLine
10
296.99999998509884
20
226.9999999850987
30
0
11
271.9999999850989
21
226.9999999850987
31
0
0
ARC
5
133
100
AcDbEntity
8
PERIMETER
100
AcDbCircle
10
271.9999999850989
20
228.9999999850987
30
0
40
1.9999999999999929
210
0
220
0
230
1
100
AcDbArc
50
180
51
270
0
LINE
5
134
100
AcDbEntity
8
PERIMETER
100
AcDbLine
10
269.9999999850989
20
228.9999999850987
30
0
11
269.99999998509884
21
261.9999999850989
31
0
0
ARC
5
135
100
AcDbEntity
8
PERIMETER
100
AcDbCircle
10
267.99999998509884
20
261.9999999850989
30
0
40
1.9999999999999929
210
0
220
-0
230
1
100
AcDbArc
50
0
51
90
0
LINE
5
136
100
AcDbEntity
8
PERIMETER
100
AcDbLine
10
267.99999998509884
20
263.9999999850989
30
0
11
234.99999998509884
21
263.9999999850989
31
0
0
ARC
5
137
100
AcDbEntity
8
PERIMETER
100
AcDbCircle
10
234.99999998509884
20
265.99999998509884
30
0
40
1.9999999999999929
210
0
220
0
230
1
100
AcDbArc
50
180
51
270
0
LINE
5
138
100
AcDbEntity
8
PERIMETER
100
AcDbLine
10
232.99999998509887
20
265.99999998509884
30
0
11
232.99999998509887
21
290.99999998509884
31
0
0
ARC
5
139
100
AcDbEntity
8
PERIMETER
100
AcDbCircle
10
230.99999998509887
20
290.99999998509884
30
0
40
1.9999999999999929
210
0
220
-0
230
1
100
AcDbArc
50
0
51
90
0
LINE
5
13A
100
AcDbEntity
8
PERIMETER
100
AcDbLine
10
230.99999998509887
20
292.99999998509884
30
0
11
54.000000014901133
21
292.9999999850989
31
0
0
ARC
5
13B
100
AcDbEntity
8
PERIMETER
100
AcDbCircle
10
54.000000014901126
20
290.9999999850989
30
0
40
1.9999999999999929
210
0
220
-0
230
1
100
AcDbArc
50
89.999999999999801
51
180
0
LINE
5
13C
100
AcDbEntity
8
PERIMETER
100
AcDbLine
10
52.000000014901133
20
290.9999999850989
30
0
11
52.000000014901111
21
265.99999998509895
31
0
0
ARC
5
13D
100
AcDbEntity
8
PERIMETER
100
AcDbCircle
10
50.000000014901111
20
265.99999998509895
30
0
40
1.9999999999999929
210
-0
220
0
230
1
100
AcDbArc
50
-90
51
0
0
LINE
5
13E
100
AcDbEntity
8
PERIMETER
100
AcDbLine
10
50.000000014901111
20
263.99999998509895
30
0
11
41.000000014901119
21
263.9999999850989
31
0
0
ARC
5
13F
100
AcDbEntity
8
PERIMETER
100
AcDbCircle
10
41.000000014901104
20
261.9999999850989
30
0
40
1.9999999999999929
210
0
220
-0
230
1
100
AcDbArc
50
89.999999999999588
51
180
0
LINE
5
140
100
AcDbEntity
8
PERIMETER
100
AcDbLine
10
39.000000014901119
20
261.9999999850989
30
0
11
39.000000014901119
21
207.82842710984499
31
0
0
ARC
5
141
100
AcDbEntity
8
PERIMETER
100
AcDbCircle
10
37.000000014901119
20
207.82842710984499
30
0
40
1.999999999999996
210
-0
220
0
230
1
100
AcDbArc
50
-44.999999999999694
51
0
0
LINE
5
142
100
AcDbEntity
8
PERIMETER
100
AcDbLine
10
38.414213577274211
20
206.41421354747192
30
0
11
32.585786452528033
21
200.58578642272579
31
0
0
ARC
5
143
100
AcDbEntity
8
PERIMETER
100
AcDbCircle
10
31.171572890154906
20
201.9999999850989
30
0
40
1.9999999999999929
210
-0
220
0
230
1
100
AcDbArc
50
270.00000000000011
51
315
0
LINE
5
144
100
AcDbEntity
8
PERIMETER
100
AcDbLine
10
31.171572890154909
20
199.9999999850989
30
0
11
-31.171572890154987
21
199.99999998509884
31
0
0
ARC
5
145
100
AcDbEntity
8
PERIMETER
100
AcDbCircle
10
-31.171572890154987
20
201.99999998509884
30
0
40
1.9999999999999993
210
0
220
0
230
1
100
AcDbArc
50
224.99999999999963
51
270
0
LINE
5
146
100
AcDbEntity
8
PERIMETER
100
AcDbLine
10
-32.585786452528083
20
200.58578642272576
30
0
11
-38.414213577274296
21
206.41421354747195
31
0
0
ARC
5
147
100
AcDbEntity
8
PERIMETER
100
AcDbCircle
10
-37.000000014901204
20
207.82842710984505
30
0
40
2.0000000000000018
210
0
220
0
230
1
100
AcDbArc
50
180
51
225.00000000000028
0
LINE
5
148
100
AcDbEntity
8
PERIMETER
100
AcDbLine
10
-39.000000014901204
20
207.82842710984505
30
0
11
-39.000000014901218
21
290.99999998509884
31
0
0
ARC
5
149
100
AcDbEntity
8
PERIMETER
100
AcDbCircle
10
-41.000000014901225
20
290.99999998509884
30
0
40
2.0000000000000062
210
0
220
-0
230
1
100
AcDbArc
50
0
51
89.999999999999801
0
ENDSEC
0
SECTION
2
OBJECTS
0
DICTIONARY
5
C
100
AcDbDictionary
3
ACAD_GROUP
350
D
3
ACAD_MLINESTYLE
350
17
0
DICTIONARY
5
D
100
AcDbDictionary
0
DICTIONARY
5
1A
330
C
100
AcDbDictionary
0
DICTIONARY
5
17
100
AcDbDictionary
0
ENDSEC
0
EOF
