0
SECTION
2
HEADER
9
$INSUNITS
70
4
9
$ACADVER
1
AC1014
9
$HANDSEED
5
FFFF
0
ENDSEC
0
SECTION
2
TABLES
0
TABLE
2
VPORT
5
8
100
AcDbSymbolTable
0
ENDTAB
0
TABLE
2
LTYPE
5
5
100
AcDbSymbolTable
70
2
0
LTYPE
5
14
100
AcDbSymbolTableRecord
100
AcDbLinetypeTableRecord
2
BYBLOCK
70
0
0
LTYPE
5
15
100
AcDbSymbolTableRecord
100
AcDbLinetypeTableRecord
2
BYLAYER
70
0
0
ENDTAB
0
TABLE
2
LAYER
5
2
100
AcDbSymbolTable
70
3
0
LAYER
5
50
100
AcDbSymbolTableRecord
100
AcDbLayerTableRecord
2
0
70
0
6
CONTINUOUS
0
LAYER
5
51
100
AcDbSymbolTableRecord
100
AcDbLayerTableRecord
2
CUTOUTS
70
0
62
1
6
CONTINUOUS
0
LAYER
5
52
100
AcDbSymbolTableRecord
100
AcDbLayerTableRecord
2
PERIMETER
70
0
62
5
6
CONTINUOUS
0
ENDTAB
0
TABLE
2
STYLE
5
3
100
AcDbSymbolTable
70
1
0
STYLE
5
11
100
AcDbSymbolTableRecord
100
AcDbTextStyleTableRecord
2
STANDARD
70
0
0
ENDTAB
0
TABLE
2
VIEW
5
6
100
AcDbSymbolTable
0
ENDTAB
0
TABLE
2
UCS
5
7
100
AcDbSymbolTable
0
ENDTAB
0
TABLE
2
APPID
5
9
100
AcDbSymbolTable
70
1
0
APPID
5
12
100
AcDbSymbolTableRecord
100
AcDbRegAppTableRecord
2
ACAD
70
0
0
ENDTAB
0
TABLE
2
DIMSTYLE
5
A
100
AcDbSymbolTable
0
ENDTAB
0
TABLE
2
BLOCK_RECORD
5
1
100
AcDbSymbolTable
70
2
0
BLOCK_RECORD
5
1F
100
AcDbSymbolTableRecord
100
AcDbBlockTableRecord
2
*MODEL_SPACE
0
BLOCK_RECORD
5
1B
100
AcDbSymbolTableRecord
100
AcDbBlockTableRecord
2
*PAPER_SPACE
0
ENDTAB
0
ENDSEC
0
SECTION
2
BLOCKS
0
BLOCK
5
20
100
AcDbEntity
100
AcDbBlockBegin
2
*MODEL_SPACE
0
ENDBLK
5
21
100
AcDbEntity
100
AcDbBlockEnd
0
BLOCK
5
1C
100
AcDbEntity
100
AcDbBlockBegin
2
*PAPER_SPACE
0
ENDBLK
5
1D
100
AcDbEntity
100
AcDbBlockEnd
0
ENDSEC
0
SECTION
2
ENTITIES
0
CIRCLE
5
100
100
AcDbEntity
8
CUTOUTS
100
AcDbCircle
10
227.5
20
164.99999999999977
30
0
40
3.2999999999999829
210
0
220
0
230
1
0
CIRCLE
5
101
100
AcDbEntity
8
CUTOUTS
100
AcDbCircle
10
-227.5
20
164.99999999999972
30
0
40
3.2999999999999829
210
0
220
0
230
1
0
CIRCLE
5
102
100
AcDbEntity
8
CUTOUTS
100
AcDbCircle
10
-240.50000000000017
20
-124.99999999999875
30
0
40
3.2999999999999829
210
0
220
0
230
1
0
CIRCLE
5
103
100
AcDbEntity
8
CUTOUTS
100
AcDbCircle
10
-227.49999999999997
20
-415.00000000000011
30
0
40
3.2999999999999829
210
0
220
0
230
1
0
CIRCLE
5
104
100
AcDbEntity
8
CUTOUTS
100
AcDbCircle
10
227.50000000000006
20
-415.00000000000011
30
0
40
3.2999999999999829
210
0
220
0
230
1
0
CIRCLE
5
105
100
AcDbEntity
8
CUTOUTS
100
AcDbCircle
10
317.49999999999989
20
-110.00000000000028
30
0
40
3.3000000000000185
210
0
220
0
230
1
0
CIRCLE
5
106
100
AcDbEntity
8
CUTOUTS
100
AcDbCircle
10
317.50000000000006
20
224.9999999999996
30
0
40
3.3000000000000185
210
0
220
0
230
1
0
CIRCLE
5
107
100
AcDbEntity
8
CUTOUTS
100
AcDbCircle
10
227.50000000000003
20
414.99999999999994
30
0
40
3.2999999999999829
210
0
220
0
230
1
0
CIRCLE
5
108
100
AcDbEntity
8
CUTOUTS
100
AcDbCircle
10
-227.5
20
414.99999999999989
30
0
40
3.2999999999999829
210
0
220
0
230
1
0
CIRCLE
5
109
100
AcDbEntity
8
CUTOUTS
100
AcDbCircle
10
-317.5
20
224.99999999999955
30
0
40
3.2999999999999829
210
0
220
0
230
1
0
CIRCLE
5
10A
100
AcDbEntity
8
CUTOUTS
100
AcDbCircle
10
-317.5
20
324.99999999999989
30
0
40
3.2999999999999829
210
0
220
0
230
1
0
CIRCLE
5
10B
100
AcDbEntity
8
CUTOUTS
100
AcDbCircle
10
3.5527136788005009e-14
20
414.99999999999994
30
0
40
3.3000000000000003
210
0
220
0
230
1
0
CIRCLE
5
10C
100
AcDbEntity
8
CUTOUTS
100
AcDbCircle
10
317.50000000000006
20
324.99999999999989
30
0
40
3.3000000000000185
210
0
220
0
230
1
0
CIRCLE
5
10D
100
AcDbEntity
8
CUTOUTS
100
AcDbCircle
10
317.49999999999994
20
104.99999999999964
30
0
40
3.3000000000000185
210
0
220
0
230
1
0
CIRCLE
5
10E
100
AcDbEntity
8
CUTOUTS
100
AcDbCircle
10
317.49999999999977
20
-325.00000000000011
30
0
40
3.2999999999999829
210
0
220
0
230
1
0
CIRCLE
5
10F
100
AcDbEntity
8
CUTOUTS
100
AcDbCircle
10
-2.4868995751603507e-13
20
-415.00000000000011
30
0
40
3.3000000000000003
210
0
220
0
230
1
0
CIRCLE
5
110
100
AcDbEntity
8
CUTOUTS
100
AcDbCircle
10
-240.50000000000037
20
-375.0000000000008
30
0
40
3.2999999999999829
210
0
220
0
230
1
0
CIRCLE
5
111
100
AcDbEntity
8
CUTOUTS
100
AcDbCircle
10
-240.5
20
129.99999999999969
30
0
40
3.2999999999999829
210
0
220
0
230
1
0
CIRCLE
5
112
100
AcDbEntity
8
CUTOUTS
100
AcDbCircle
10
0
20
164.99999999999986
30
0
40
3.3000000000000003
210
0
220
0
230
1
0
ARC
5
113
100
AcDbEntity
8
PERIMETER
100
AcDbCircle
10
-243.00000000000028
20
-400.20710678118667
30
0
40
1.9999999999999929
210
0
220
-0
230
1
100
AcDbArc
50
0
51
45.000000000000568
0
LINE
5
114
100
AcDbEntity
8
PERIMETER
100
AcDbLine
10
-251.91421356237277
20
-388.46446609406797
30
0
11
-241.58578643762721
21
-398.79289321881356
31
0
0
ARC
5
115
100
AcDbEntity
8
PERIMETER
100
AcDbCircle
10
-250.49999999999952
20
-387.05025253169481
30
0
40
2.0000000000001705
210
0
220
0
230
1
100
AcDbArc
50
180
51
224.99999999999827
0
LINE
5
116
100
AcDbEntity
8
PERIMETER
100
AcDbLine
10
-252.49999999999966
20
-365.82842712474678
30
0
11
-252.49999999999969
21
-387.05025253169492
31
0
0
ARC
5
117
100
AcDbEntity
8
PERIMETER
100
AcDbCircle
10
-250.49999999999983
20
-365.82842712474672
30
0
40
1.9999999999998201
210
0
220
0
230
1
100
AcDbArc
50
134.99999999999713
51
180
0
LINE
5
118
100
AcDbEntity
8
PERIMETER
100
AcDbLine
10
-230.08578643750295
20
-342.58578643750405
30
0
11
-251.91421356237274
21
-364.41421356237367
31
0
0
ARC
5
119
100
AcDbEntity
8
PERIMETER
100
AcDbCircle
10
-231.49999999987602
20
-341.17157287513095
30
0
40
1.999999999999996
210
-0
220
0
230
1
100
AcDbArc
50
-45.000000000000561
51
0
0
LINE
5
11A
100
AcDbEntity
8
PERIMETER
100
AcDbLine
10
-229.49999999987602
20
-158.82842712486882
30
0
11
-229.49999999987602
21
-341.17157287513095
31
0
0
ARC
5
11B
100
AcDbEntity
8
PERIMETER
100
AcDbCircle
10
-231.49999999987602
20
-158.82842712486882
30
0
40
1.9999999999999929
210
0
220
-0
230
1
100
AcDbArc
50
0
51
44.999999999999424
0
LINE
5
11C
100
AcDbEntity
8
PERIMETER
100
AcDbLine
10
-251.91421356237299
20
-135.58578643762559
30
0
11
-230.08578643750297
21
-157.41421356249583
31
0
0
ARC
5
11D
100
AcDbEntity
8
PERIMETER
100
AcDbCircle
10
-250.4999999999998
20
-134.17157287525248
30
0
40
2.0000000000000639
210
0
220
0
230
1
100
AcDbArc
50
180
51
224.99999999999827
0
LINE
5
11E
100
AcDbEntity
8
PERIMETER
100
AcDbLine
10
-252.49999999999983
20
-115.82842712474495
30
0
11
-252.49999999999986
21
-134.17157287525256
31
0
0
ARC
5
11F
100
AcDbEntity
8
PERIMETER
100
AcDbCircle
10
-250.4999999999996
20
-115.82842712474502
30
0
40
2.0000000000001967
210
0
220
0
230
1
100
AcDbArc
50
135.00000000000347
51
180
0
LINE
5
120
100
AcDbEntity
8
PERIMETER
100
AcDbLine
10
-230.08578643750292
20
-92.585786437501696
30
0
11
-251.91421356237294
21
-114.41421356237186
31
0
0
ARC
5
121
100
AcDbEntity
8
PERIMETER
100
AcDbCircle
10
-231.49999999987602
20
-91.171572875128604
30
0
40
2.0000000000000213
210
-0
220
0
230
1
100
AcDbArc
50
-44.999999999999694
51
0
0
LINE
5
122
100
AcDbEntity
8
PERIMETER
100
AcDbLine
10
-229.499999999876
20
96.171572875129499
30
0
11
-229.49999999987602
21
-91.171572875128604
31
0
0
ARC
5
123
100
AcDbEntity
8
PERIMETER
100
AcDbCircle
10
-231.499999999876
20
96.171572875129499
30
0
40
1.9999999999999929
210
0
220
-0
230
1
100
AcDbArc
50
0
51
44.999999999997982
0
LINE
5
124
100
AcDbEntity
8
PERIMETER
100
AcDbLine
10
-251.91421356237322
20
119.41421356237427
30
0
11
-230.08578643750286
21
97.585786437502534
31
0
0
ARC
5
125
100
AcDbEntity
8
PERIMETER
100
AcDbCircle
10
-250.50000000000009
20
120.82842712474726
30
0
40
1.9999999999999574
210
0
220
0
230
1
100
AcDbArc
50
180
51
224.99999999999739
0
LINE
5
126
100
AcDbEntity
8
PERIMETER
100
AcDbLine
10
-252.50000000000003
20
142.08688103937502
30
0
11
-252.50000000000003
21
120.82842712474729
31
0
0
ARC
5
127
100
AcDbEntity
8
PERIMETER
100
AcDbCircle
10
-250.49999999999997
20
142.08688103937499
30
0
40
2.0000000000000733
210
0
220
0
230
1
100
AcDbArc
50
116.56505117707982
51
180
0
LINE
5
128
100
AcDbEntity
8
PERIMETER
100
AcDbLine
10
-242.10557280900008
20
148.52016261237483
30
0
11
-251.39442719099998
21
143.87573542137486
31
0
0
ARC
5
129
100
AcDbEntity
8
PERIMETER
100
AcDbCircle
10
-243
20
150.30901699437467
30
0
40
1.9999999999999938
210
-0
220
0
230
1
100
AcDbArc
50
-63.43494882292201
51
0
0
LINE
5
12A
100
AcDbEntity
8
PERIMETER
100
AcDbLine
10
-241.00000000000006
20
179.69098300562479
30
0
11
-241
21
150.30901699437467
31
0
0
ARC
5
12B
100
AcDbEntity
8
PERIMETER
100
AcDbCircle
10
-243.00000000000006
20
179.69098300562479
30
0
40
1.9999999999999929
210
0
220
-0
230
1
100
AcDbArc
50
0
51
63.43494882292201
0
LINE
5
12C
100
AcDbEntity
8
PERIMETER
100
AcDbLine
10
-301.72360679774999
20
211.28885438199939
30
0
11
-242.10557280900014
21
181.47983738762463
31
0
0
ARC
5
12D
100
AcDbEntity
8
PERIMETER
100
AcDbCircle
10
-302.61803398874986
20
209.49999999999955
30
0
40
2.0000000000000098
210
0
220
-0
230
1
100
AcDbArc
50
63.434948822923467
51
90
0
LINE
5
12E
100
AcDbEntity
8
PERIMETER
100
AcDbLine
10
-330.5
20
211.49999999999952
30
0
11
-302.61803398874986
21
211.49999999999955
31
0
0
ARC
5
12F
100
AcDbEntity
8
PERIMETER
100
AcDbCircle
10
-330.5
20
213.49999999999955
30
0
40
2.0000000000000284
210
0
220
0
230
1
100
AcDbArc
50
180
51
270
0
LINE
5
130
100
AcDbEntity
8
PERIMETER
100
AcDbLine
10
-332.5
20
336.49999999999989
30
0
11
-332.5
21
213.4999999999996
31
0
0
ARC
5
131
100
AcDbEntity
8
PERIMETER
100
AcDbCircle
10
-330.5
20
336.49999999999983
30
0
40
2.0000000000000284
210
0
220
-0
230
1
100
AcDbArc
50
90
51
180
0
LINE
5
132
100
AcDbEntity
8
PERIMETER
100
AcDbLine
10
-302.7071067811865
20
338.49999999999989
30
0
11
-330.5
21
338.49999999999989
31
0
0
ARC
5
133
100
AcDbEntity
8
PERIMETER
100
AcDbCircle
10
-302.7071067811865
20
340.49999999999983
30
0
40
2.0000000000000284
210
-0
220
0
230
1
100
AcDbArc
50
270
51
315
0
LINE
5
134
100
AcDbEntity
8
PERIMETER
100
AcDbLine
10
-241.58578643762692
20
398.79289321881316
30
0
11
-301.29289321881339
21
339.08578643762672
31
0
0
ARC
5
135
100
AcDbEntity
8
PERIMETER
100
AcDbCircle
10
-243
20
400.20710678118633
30
0
40
2.0000000000000466
210
-0
220
0
230
1
100
AcDbArc
50
-45.000000000001727
51
0
0
LINE
5
136
100
AcDbEntity
8
PERIMETER
100
AcDbLine
10
-241.00000000000006
20
427.99999999999966
30
0
11
-241
21
400.20710678118633
31
0
0
ARC
5
137
100
AcDbEntity
8
PERIMETER
100
AcDbCircle
10
-239.00000000000009
20
427.99999999999966
30
0
40
1.9999999999999574
210
0
220
-0
230
1
100
AcDbArc
50
90
51
180
0
LINE
5
138
100
AcDbEntity
8
PERIMETER
100
AcDbLine
10
239.00000000000003
20
430
30
0
11
-239.00000000000009
21
429.99999999999972
31
0
0
ARC
5
139
100
AcDbEntity
8
PERIMETER
100
AcDbCircle
10
239.00000000000003
20
428
30
0
40
1.9999999999999929
210
0
220
-0
230
1
100
AcDbArc
50
0
51
90
0
LINE
5
13A
100
AcDbEntity
8
PERIMETER
100
AcDbLine
10
241
20
400.20710678118638
30
0
11
241
21
428.00000000000006
31
0
0
ARC
5
13B
100
AcDbEntity
8
PERIMETER
100
AcDbCircle
10
243
20
400.20710678118633
30
0
40
1.9999999999999929
210
0
220
0
230
1
100
AcDbArc
50
180
51
225.00000000000057
0
LINE
5
13C
100
AcDbEntity
8
PERIMETER
100
AcDbLine
10
301.2928932188135
20
339.08578643762678
30
0
11
241.58578643762695
21
398.79289321881333
31
0
0
ARC
5
13D
100
AcDbEntity
8
PERIMETER
100
AcDbCircle
10
302.70710678118655
20
340.49999999999983
30
0
40
1.999999999999996
210
0
220
0
230
1
100
AcDbArc
50
225.00000000000117
51
270
0
LINE
5
13E
100
AcDbEntity
8
PERIMETER
100
AcDbLine
10
330.5
20
338.49999999999989
30
0
11
302.70710678118655
21
338.49999999999989
31
0
0
ARC
5
13F
100
AcDbEntity
8
PERIMETER
100
AcDbCircle
10
330.50000000000006
20
336.49999999999989
30
0
40
1.9999999999999574
210
0
220
-0
230
1
100
AcDbArc
50
0
51
90.000000000001634
0
LINE
5
140
100
AcDbEntity
8
PERIMETER
100
AcDbLine
10
332.50000000000006
20
213.49999999999966
30
0
11
332.5
21
336.49999999999989
31
0
0
ARC
5
141
100
AcDbEntity
8
PERIMETER
100
AcDbCircle
10
330.5
20
213.49999999999972
30
0
40
2.0000000000000995
210
-0
220
0
230
1
100
AcDbArc
50
270.00000000000159
51
360
0
LINE
5
142
100
AcDbEntity
8
PERIMETER
100
AcDbLine
10
302.61803398874986
20
211.49999999999963
30
0
11
330.50000000000006
21
211.49999999999963
31
0
0
ARC
5
143
100
AcDbEntity
8
PERIMETER
100
AcDbCircle
10
302.61803398874986
20
209.49999999999963
30
0
40
1.9999999999999929
210
0
220
-0
230
1
100
AcDbArc
50
90
51
116.56505117707836
0
LINE
5
144
100
AcDbEntity
8
PERIMETER
100
AcDbLine
10
242.10557280900008
20
181.47983738762466
30
0
11
301.72360679774994
21
211.28885438199947
31
0
0
ARC
5
145
100
AcDbEntity
8
PERIMETER
100
AcDbCircle
10
243
20
179.69098300562482
30
0
40
2.0000000000000098
210
0
220
0
230
1
100
AcDbArc
50
116.56505117707799
51
180
0
LINE
5
146
100
AcDbEntity
8
PERIMETER
100
AcDbLine
10
241.00000000000006
20
150.3090169943747
30
0
11
241
21
179.69098300562482
31
0
0
ARC
5
147
100
AcDbEntity
8
PERIMETER
100
AcDbCircle
10
243.00000000000006
20
150.3090169943747
30
0
40
1.9999999999999929
210
0
220
0
230
1
100
AcDbArc
50
180
51
243.43494882292165
0
LINE
5
148
100
AcDbEntity
8
PERIMETER
100
AcDbLine
10
301.72360679774999
20
118.71114561799982
30
0
11
242.10557280900014
21
148.52016261237486
31
0
0
ARC
5
149
100
AcDbEntity
8
PERIMETER
100
AcDbCircle
10
302.61803398874986
20
120.49999999999966
30
0
40
2.0000000000000098
210
0
220
0
230
1
100
AcDbArc
50
243.4349488229235
51
270
0
LINE
5
14A
100
AcDbEntity
8
PERIMETER
100
AcDbLine
10
330.5
20
118.49999999999964
30
0
11
302.61803398874986
21
118.49999999999966
31
0
0
ARC
5
14B
100
AcDbEntity
8
PERIMETER
100
AcDbCircle
10
330.5
20
116.49999999999962
30
0
40
2.0000000000000284
210
0
220
-0
230
1
100
AcDbArc
50
0
51
90
0
LINE
5
14C
100
AcDbEntity
8
PERIMETER
100
AcDbLine
10
332.49999999999989
20
-336.50000000000011
30
0
11
332.5
21
116.49999999999963
31
0
0
ARC
5
14D
100
AcDbEntity
8
PERIMETER
100
AcDbCircle
10
330.49999999999977
20
-336.50000000000006
30
0
40
2.0000000000000995
210
-0
220
0
230
1
100
AcDbArc
50
270.00000000000159
51
360
0
LINE
5
14E
100
AcDbEntity
8
PERIMETER
100
AcDbLine
10
302.70710678118627
20
-338.50000000000028
30
0
11
330.49999999999983
21
-338.50000000000017
31
0
0
ARC
5
14F
100
AcDbEntity
8
PERIMETER
100
AcDbCircle
10
302.70710678118627
20
-340.50000000000034
30
0
40
2.0000000000000284
210
0
220
-0
230
1
100
AcDbArc
50
90
51
135
0
LINE
5
150
100
AcDbEntity
8
PERIMETER
100
AcDbLine
10
241.58578643762672
20
-398.79289321881356
30
0
11
301.29289321881322
21
-339.08578643762723
31
0
0
ARC
5
151
100
AcDbEntity
8
PERIMETER
100
AcDbCircle
10
242.99999999999977
20
-400.20710678118678
30
0
40
1.999999999999996
210
0
220
0
230
1
100
AcDbArc
50
134.99999999999653
51
180
0
LINE
5
152
100
AcDbEntity
8
PERIMETER
100
AcDbLine
10
240.99999999999972
20
-428.00000000000011
30
0
11
240.99999999999977
21
-400.20710678118678
31
0
0
ARC
5
153
100
AcDbEntity
8
PERIMETER
100
AcDbCircle
10
238.99999999999977
20
-428.00000000000017
30
0
40
1.9999999999999574
210
-0
220
0
230
1
100
AcDbArc
50
-90
51
0
0
LINE
5
154
100
AcDbEntity
8
PERIMETER
100
AcDbLine
10
-239.00000000000028
20
-430.00000000000011
30
0
11
238.99999999999977
21
-430.00000000000011
31
0
0
ARC
5
155
100
AcDbEntity
8
PERIMETER
100
AcDbCircle
10
-239.00000000000028
20
-428.00000000000017
30
0
40
1.9999999999999929
210
0
220
0
230
1
100
AcDbArc
50
180
51
270
0
LINE
5
156
100
AcDbEntity
8
PERIMETER
100
AcDbLine
10
-241.00000000000028
20
-400.20710678118667
30
0
11
-241.00000000000026
21
-428.00000000000011
31
0
0
ENDSEC
0
SECTION
2
OBJECTS
0
DICTIONARY
5
C
100
AcDbDictionary
3
ACAD_GROUP
350
D
3
ACAD_MLINESTYLE
350
17
0
DICTIONARY
5
D
100
AcDbDictionary
0
DICTIONARY
5
1A
330
C
100
AcDbDictionary
0
DICTIONARY
5
17
100
AcDbDictionary
0
ENDSEC
0
EOF
