0
SECTION
2
HEADER
9
$INSUNITS
70
4
9
$ACADVER
1
AC1014
9
$HANDSEED
5
FFFF
0
ENDSEC
0
SECTION
2
TABLES
0
TABLE
2
VPORT
5
8
100
AcDbSymbolTable
0
ENDTAB
0
TABLE
2
LTYPE
5
5
100
AcDbSymbolTable
70
2
0
LTYPE
5
14
100
AcDbSymbolTableRecord
100
AcDbLinetypeTableRecord
2
BYBLOCK
70
0
0
LTYPE
5
15
100
AcDbSymbolTableRecord
100
AcDbLinetypeTableRecord
2
BYLAYER
70
0
0
ENDTAB
0
TABLE
2
LAYER
5
2
100
AcDbSymbolTable
70
3
0
LAYER
5
50
100
AcDbSymbolTableRecord
100
AcDbLayerTableRecord
2
0
70
0
6
CONTINUOUS
0
LAYER
5
51
100
AcDbSymbolTableRecord
100
AcDbLayerTableRecord
2
CUTOUTS
70
0
62
1
6
CONTINUOUS
0
LAYER
5
52
100
AcDbSymbolTableRecord
100
AcDbLayerTableRecord
2
PERIMETER
70
0
62
5
6
CONTINUOUS
0
ENDTAB
0
TABLE
2
STYLE
5
3
100
AcDbSymbolTable
70
1
0
STYLE
5
11
100
AcDbSymbolTableRecord
100
AcDbTextStyleTableRecord
2
STANDARD
70
0
0
ENDTAB
0
TABLE
2
VIEW
5
6
100
AcDbSymbolTable
0
ENDTAB
0
TABLE
2
UCS
5
7
100
AcDbSymbolTable
0
ENDTAB
0
TABLE
2
APPID
5
9
100
AcDbSymbolTable
70
1
0
APPID
5
12
100
AcDbSymbolTableRecord
100
AcDbRegAppTableRecord
2
ACAD
70
0
0
ENDTAB
0
TABLE
2
DIMSTYLE
5
A
100
AcDbSymbolTable
0
ENDTAB
0
TABLE
2
BLOCK_RECORD
5
1
100
AcDbSymbolTable
70
2
0
BLOCK_RECORD
5
1F
100
AcDbSymbolTableRecord
100
AcDbBlockTableRecord
2
*MODEL_SPACE
0
BLOCK_RECORD
5
1B
100
AcDbSymbolTableRecord
100
AcDbBlockTableRecord
2
*PAPER_SPACE
0
ENDTAB
0
ENDSEC
0
SECTION
2
BLOCKS
0
BLOCK
5
20
100
AcDbEntity
100
AcDbBlockBegin
2
*MODEL_SPACE
0
ENDBLK
5
21
100
AcDbEntity
100
AcDbBlockEnd
0
BLOCK
5
1C
100
AcDbEntity
100
AcDbBlockBegin
2
*PAPER_SPACE
0
ENDBLK
5
1D
100
AcDbEntity
100
AcDbBlockEnd
0
ENDSEC
0
SECTION
2
ENTITIES
0
CIRCLE
5
100
100
AcDbEntity
8
CUTOUTS
100
AcDbCircle
10
205.99999999999994
20
-279.74999999999994
30
0
40
3.2250000000000156
210
0
220
0
230
1
0
CIRCLE
5
101
100
AcDbEntity
8
CUTOUTS
100
AcDbCircle
10
-33
20
-279.75
30
0
40
3.2249999999999979
210
0
220
0
230
1
0
CIRCLE
5
102
100
AcDbEntity
8
CUTOUTS
100
AcDbCircle
10
-284.99999999999994
20
-200.74999999999986
30
0
40
3.2250000000000156
210
0
220
0
230
1
0
CIRCLE
5
103
100
AcDbEntity
8
CUTOUTS
100
AcDbCircle
10
285
20
212.25000000000006
30
0
40
3.2250000000000156
210
0
220
0
230
1
0
CIRCLE
5
104
100
AcDbEntity
8
CUTOUTS
100
AcDbCircle
10
-285
20
212.25
30
0
40
3.2250000000000156
210
0
220
0
230
1
0
CIRCLE
5
105
100
AcDbEntity
8
CUTOUTS
100
AcDbCircle
10
66
20
278.25
30
0
40
3.2249999999999979
210
0
220
0
230
1
0
CIRCLE
5
106
100
AcDbEntity
8
CUTOUTS
100
AcDbCircle
10
-218.99999999999994
20
278.25
30
0
40
3.2250000000000156
210
0
220
0
230
1
0
CIRCLE
5
107
100
AcDbEntity
8
CUTOUTS
100
AcDbCircle
10
-74
20
278.25
30
0
40
3.2249999999999979
210
0
220
0
230
1
0
CIRCLE
5
108
100
AcDbEntity
8
CUTOUTS
100
AcDbCircle
10
219
20
278.25
30
0
40
3.2250000000000156
210
0
220
0
230
1
0
CIRCLE
5
109
100
AcDbEntity
8
CUTOUTS
100
AcDbCircle
10
-284.99999999999994
20
-0.74999999999997391
30
0
40
3.2250000000000156
210
0
220
0
230
1
0
CIRCLE
5
10A
100
AcDbEntity
8
CUTOUTS
100
AcDbCircle
10
284.99999999999994
20
-0.74999999999990585
30
0
40
3.2250000000000156
210
0
220
0
230
1
0
CIRCLE
5
10B
100
AcDbEntity
8
CUTOUTS
100
AcDbCircle
10
-205.99999999999994
20
-279.74999999999994
30
0
40
3.2250000000000156
210
0
220
0
230
1
0
CIRCLE
5
10C
100
AcDbEntity
8
CUTOUTS
100
AcDbCircle
10
33
20
-279.74999999999989
30
0
40
3.2249999999999979
210
0
220
0
230
1
0
CIRCLE
5
10D
100
AcDbEntity
8
CUTOUTS
100
AcDbCircle
10
284.99999999999994
20
-200.74999999999983
30
0
40
3.2250000000000156
210
0
220
0
230
1
0
LINE
5
10E
100
AcDbEntity
8
PERIMETER
100
AcDbLine
10
-270.07499999999993
20
227.32499999999999
30
0
11
-299.07499999999993
21
227.32499999999999
31
0
0
LINE
5
10F
100
AcDbEntity
8
PERIMETER
100
AcDbLine
10
-299.07499999999993
20
227.32499999999999
30
0
11
-299.07499999999993
21
-264.82499999999982
31
0
0
LINE
5
110
100
AcDbEntity
8
PERIMETER
100
AcDbLine
10
-299.07499999999993
20
-264.82499999999982
30
0
11
-290.12500000000011
21
-264.82499999999993
31
0
0
LINE
5
111
100
AcDbEntity
8
PERIMETER
100
AcDbLine
10
-290.12500000000011
20
-264.82499999999993
30
0
11
-290.125
21
-225.94999999999985
31
0
0
ARC
5
112
100
AcDbEntity
8
PERIMETER
100
AcDbCircle
10
-284.99999999999994
20
-225.94999999999987
30
0
40
5.1250000000000284
210
0
220
-0
230
1
100
AcDbArc
50
0
51
180
0
LINE
5
113
100
AcDbEntity
8
PERIMETER
100
AcDbLine
10
-279.87499999999994
20
-225.94999999999987
30
0
11
-279.875
21
-264.82499999999987
31
0
0
LINE
5
114
100
AcDbEntity
8
PERIMETER
100
AcDbLine
10
-279.875
20
-264.82499999999987
30
0
11
-272.92500000000007
21
-264.82499999999987
31
0
0
LINE
5
115
100
AcDbEntity
8
PERIMETER
100
AcDbLine
10
-272.92500000000007
20
-264.82499999999987
30
0
11
-272.92500000000007
21
-220.82499999999987
31
0
0
LINE
5
116
100
AcDbEntity
8
PERIMETER
100
AcDbLine
10
-272.92500000000007
20
-220.82499999999987
30
0
11
-233.03106601717803
21
-220.82499999999987
31
0
0
LINE
5
117
100
AcDbEntity
8
PERIMETER
100
AcDbLine
10
-233.03106601717803
20
-220.82499999999987
30
0
11
-226.07499999999999
21
-227.78106601717792
31
0
0
LINE
5
118
100
AcDbEntity
8
PERIMETER
100
AcDbLine
10
-226.07499999999999
20
-227.78106601717792
30
0
11
-226.07499999999999
21
-267.67499999999995
31
0
0
LINE
5
119
100
AcDbEntity
8
PERIMETER
100
AcDbLine
10
-226.07499999999999
20
-267.67499999999995
30
0
11
-270.07499999999999
21
-267.67499999999995
31
0
0
LINE
5
11A
100
AcDbEntity
8
PERIMETER
100
AcDbLine
10
-270.07499999999999
20
-267.67499999999995
30
0
11
-270.07499999999999
21
-274.62499999999989
31
0
0
LINE
5
11B
100
AcDbEntity
8
PERIMETER
100
AcDbLine
10
-270.07499999999999
20
-274.62499999999989
30
0
11
-231.1999999999999
21
-274.62499999999989
31
0
0
ARC
5
11C
100
AcDbEntity
8
PERIMETER
100
AcDbCircle
10
-231.1999999999999
20
-279.74999999999989
30
0
40
5.1250000000000284
210
-0
220
0
230
1
100
AcDbArc
50
-90
51
90
0
LINE
5
11D
100
AcDbEntity
8
PERIMETER
100
AcDbLine
10
-231.1999999999999
20
-284.87499999999994
30
0
11
-270.07499999999999
21
-284.87499999999989
31
0
0
LINE
5
11E
100
AcDbEntity
8
PERIMETER
100
AcDbLine
10
-270.07499999999999
20
-284.87499999999989
30
0
11
-270.07499999999999
21
-292.32499999999993
31
0
0
LINE
5
11F
100
AcDbEntity
8
PERIMETER
100
AcDbLine
10
-270.07499999999999
20
-292.32499999999993
30
0
11
-24.968933982822037
21
-292.32499999999993
31
0
0
LINE
5
120
100
AcDbEntity
8
PERIMETER
100
AcDbLine
10
-24.968933982822037
20
-292.32499999999993
30
0
11
-17.925000000000015
21
-285.28106601717798
31
0
0
LINE
5
121
100
AcDbEntity
8
PERIMETER
100
AcDbLine
10
-17.925000000000015
20
-285.28106601717798
30
0
11
-17.925000000000018
21
-266.32499999999987
31
0
0
LINE
5
122
100
AcDbEntity
8
PERIMETER
100
AcDbLine
10
-17.925000000000018
20
-266.32499999999987
30
0
11
17.925000000000018
21
-266.32499999999987
31
0
0
LINE
5
123
100
AcDbEntity
8
PERIMETER
100
AcDbLine
10
17.925000000000018
20
-266.32499999999987
30
0
11
17.925000000000008
21
-285.28106601717792
31
0
0
LINE
5
124
100
AcDbEntity
8
PERIMETER
100
AcDbLine
10
17.925000000000008
20
-285.28106601717792
30
0
11
24.96893398282204
21
-292.32499999999993
31
0
0
LINE
5
125
100
AcDbEntity
8
PERIMETER
100
AcDbLine
10
24.96893398282204
20
-292.32499999999993
30
0
11
270.07499999999987
21
-292.32499999999993
31
0
0
LINE
5
126
100
AcDbEntity
8
PERIMETER
100
AcDbLine
10
270.07499999999987
20
-292.32499999999993
30
0
11
270.07499999999999
21
-284.87500000000006
31
0
0
LINE
5
127
100
AcDbEntity
8
PERIMETER
100
AcDbLine
10
270.07499999999999
20
-284.87500000000006
30
0
11
231.19999999999999
21
-284.87500000000006
31
0
0
ARC
5
128
100
AcDbEntity
8
PERIMETER
100
AcDbCircle
10
231.19999999999999
20
-279.75
30
0
40
5.1250000000000995
210
0
220
-0
230
1
100
AcDbArc
50
90
51
270
0
LINE
5
129
100
AcDbEntity
8
PERIMETER
100
AcDbLine
10
231.19999999999999
20
-274.62499999999989
30
0
11
270.07499999999999
21
-274.62499999999989
31
0
0
LINE
5
12A
100
AcDbEntity
8
PERIMETER
100
AcDbLine
10
270.07499999999999
20
-274.62499999999989
30
0
11
270.07499999999987
21
-267.6749999999999
31
0
0
LINE
5
12B
100
AcDbEntity
8
PERIMETER
100
AcDbLine
10
270.07499999999987
20
-267.6749999999999
30
0
11
226.07499999999999
21
-267.6749999999999
31
0
0
LINE
5
12C
100
AcDbEntity
8
PERIMETER
100
AcDbLine
10
226.07499999999999
20
-267.6749999999999
30
0
11
226.07499999999999
21
-227.78106601717792
31
0
0
LINE
5
12D
100
AcDbEntity
8
PERIMETER
100
AcDbLine
10
226.07499999999999
20
-227.78106601717792
30
0
11
233.03106601717801
21
-220.82499999999993
31
0
0
LINE
5
12E
100
AcDbEntity
8
PERIMETER
100
AcDbLine
10
233.03106601717801
20
-220.82499999999993
30
0
11
272.92500000000007
21
-220.82499999999982
31
0
0
LINE
5
12F
100
AcDbEntity
8
PERIMETER
100
AcDbLine
10
272.92500000000007
20
-220.82499999999982
30
0
11
272.92500000000007
21
-264.82499999999987
31
0
0
LINE
5
130
100
AcDbEntity
8
PERIMETER
100
AcDbLine
10
272.92500000000007
20
-264.82499999999987
30
0
11
279.875
21
-264.82499999999982
31
0
0
LINE
5
131
100
AcDbEntity
8
PERIMETER
100
AcDbLine
10
279.875
20
-264.82499999999982
30
0
11
279.87499999999989
21
-225.94999999999976
31
0
0
ARC
5
132
100
AcDbEntity
8
PERIMETER
100
AcDbCircle
10
284.99999999999994
20
-225.94999999999976
30
0
40
5.1250000000000284
210
0
220
-0
230
1
100
AcDbArc
50
0
51
180
0
LINE
5
133
100
AcDbEntity
8
PERIMETER
100
AcDbLine
10
290.12499999999994
20
-225.94999999999973
30
0
11
290.12500000000011
21
-264.82499999999982
31
0
0
LINE
5
134
100
AcDbEntity
8
PERIMETER
100
AcDbLine
10
290.12500000000011
20
-264.82499999999982
30
0
11
299.07499999999993
21
-264.82500000000005
31
0
0
LINE
5
135
100
AcDbEntity
8
PERIMETER
100
AcDbLine
10
299.07499999999993
20
-264.82500000000005
30
0
11
299.07499999999993
21
227.32500000000002
31
0
0
LINE
5
136
100
AcDbEntity
8
PERIMETER
100
AcDbLine
10
299.07499999999993
20
227.32500000000002
30
0
11
270.07499999999993
21
227.32499999999993
31
0
0
LINE
5
137
100
AcDbEntity
8
PERIMETER
100
AcDbLine
10
270.07499999999993
20
227.32499999999993
30
0
11
270.07499999999993
21
263.32499999999993
31
0
0
LINE
5
138
100
AcDbEntity
8
PERIMETER
100
AcDbLine
10
270.07499999999993
20
263.32499999999993
30
0
11
234.07499999999993
21
263.32499999999999
31
0
0
LINE
5
139
100
AcDbEntity
8
PERIMETER
100
AcDbLine
10
234.07499999999993
20
263.32499999999999
30
0
11
234.07499999999996
21
292.32499999999993
31
0
0
LINE
5
13A
100
AcDbEntity
8
PERIMETER
100
AcDbLine
10
234.07499999999996
20
292.32499999999993
30
0
11
50.924999999999834
21
292.32499999999993
31
0
0
LINE
5
13B
100
AcDbEntity
8
PERIMETER
100
AcDbLine
10
50.924999999999834
20
292.32499999999993
30
0
11
50.925000000000011
21
263.32499999999993
31
0
0
LINE
5
13C
100
AcDbEntity
8
PERIMETER
100
AcDbLine
10
50.925000000000011
20
263.32499999999993
30
0
11
19.42500000000009
21
263.32499999999993
31
0
0
LINE
5
13D
100
AcDbEntity
8
PERIMETER
100
AcDbLine
10
19.42500000000009
20
263.32499999999993
30
0
11
19.42500000000009
21
215.78106601717798
31
0
0
LINE
5
13E
100
AcDbEntity
8
PERIMETER
100
AcDbLine
10
19.42500000000009
20
215.78106601717798
30
0
11
11.468933982822005
21
207.82499999999999
31
0
0
LINE
5
13F
100
AcDbEntity
8
PERIMETER
100
AcDbLine
10
11.468933982822005
20
207.82499999999999
30
0
11
-50.968933982822016
21
207.82499999999999
31
0
0
LINE
5
140
100
AcDbEntity
8
PERIMETER
100
AcDbLine
10
-50.968933982822016
20
207.82499999999999
30
0
11
-58.924999999999983
21
215.78106601717795
31
0
0
LINE
5
141
100
AcDbEntity
8
PERIMETER
100
AcDbLine
10
-58.924999999999983
20
215.78106601717795
30
0
11
-58.925000000000011
21
292.32499999999993
31
0
0
LINE
5
142
100
AcDbEntity
8
PERIMETER
100
AcDbLine
10
-58.925000000000011
20
292.32499999999993
30
0
11
-234.07499999999996
21
292.32499999999993
31
0
0
LINE
5
143
100
AcDbEntity
8
PERIMETER
100
AcDbLine
10
-234.07499999999996
20
292.32499999999993
30
0
11
-234.07499999999993
21
263.32499999999999
31
0
0
LINE
5
144
100
AcDbEntity
8
PERIMETER
100
AcDbLine
10
-234.07499999999993
20
263.32499999999999
30
0
11
-270.07499999999993
21
263.32499999999999
31
0
0
LINE
5
145
100
AcDbEntity
8
PERIMETER
100
AcDbLine
10
-270.07499999999993
20
263.32499999999999
30
0
11
-270.07499999999993
21
227.32499999999999
31
0
0
ENDSEC
0
SECTION
2
OBJECTS
0
DICTIONARY
5
C
100
AcDbDictionary
3
ACAD_GROUP
350
D
3
ACAD_MLINESTYLE
350
17
0
DICTIONARY
5
D
100
AcDbDictionary
0
DICTIONARY
5
1A
330
C
100
AcDbDictionary
0
DICTIONARY
5
17
100
AcDbDictionary
0
ENDSEC
0
EOF
