0
SECTION
2
HEADER
9
$INSUNITS
70
4
9
$ACADVER
1
AC1014
9
$HANDSEED
5
FFFF
0
ENDSEC
0
SECTION
2
TABLES
0
TABLE
2
VPORT
5
8
100
AcDbSymbolTable
0
ENDTAB
0
TABLE
2
LTYPE
5
5
100
AcDbSymbolTable
70
2
0
LTYPE
5
14
100
AcDbSymbolTableRecord
100
AcDbLinetypeTableRecord
2
BYBLOCK
70
0
0
LTYPE
5
15
100
AcDbSymbolTableRecord
100
AcDbLinetypeTableRecord
2
BYLAYER
70
0
0
ENDTAB
0
TABLE
2
LAYER
5
2
100
AcDbSymbolTable
70
3
0
LAYER
5
50
100
AcDbSymbolTableRecord
100
AcDbLayerTableRecord
2
0
70
0
6
CONTINUOUS
0
LAYER
5
51
100
AcDbSymbolTableRecord
100
AcDbLayerTableRecord
2
CUTOUTS
70
0
62
1
6
CONTINUOUS
0
LAYER
5
52
100
AcDbSymbolTableRecord
100
AcDbLayerTableRecord
2
PERIMETER
70
0
62
5
6
CONTINUOUS
0
ENDTAB
0
TABLE
2
STYLE
5
3
100
AcDbSymbolTable
70
1
0
STYLE
5
11
100
AcDbSymbolTableRecord
100
AcDbTextStyleTableRecord
2
STANDARD
70
0
0
ENDTAB
0
TABLE
2
VIEW
5
6
100
AcDbSymbolTable
0
ENDTAB
0
TABLE
2
UCS
5
7
100
AcDbSymbolTable
0
ENDTAB
0
TABLE
2
APPID
5
9
100
AcDbSymbolTable
70
1
0
APPID
5
12
100
AcDbSymbolTableRecord
100
AcDbRegAppTableRecord
2
ACAD
70
0
0
ENDTAB
0
TABLE
2
DIMSTYLE
5
A
100
AcDbSymbolTable
0
ENDTAB
0
TABLE
2
BLOCK_RECORD
5
1
100
AcDbSymbolTable
70
2
0
BLOCK_RECORD
5
1F
100
AcDbSymbolTableRecord
100
AcDbBlockTableRecord
2
*MODEL_SPACE
0
BLOCK_RECORD
5
1B
100
AcDbSymbolTableRecord
100
AcDbBlockTableRecord
2
*PAPER_SPACE
0
ENDTAB
0
ENDSEC
0
SECTION
2
BLOCKS
0
BLOCK
5
20
100
AcDbEntity
100
AcDbBlockBegin
2
*MODEL_SPACE
0
ENDBLK
5
21
100
AcDbEntity
100
AcDbBlockEnd
0
BLOCK
5
1C
100
AcDbEntity
100
AcDbBlockBegin
2
*PAPER_SPACE
0
ENDBLK
5
1D
100
AcDbEntity
100
AcDbBlockEnd
0
ENDSEC
0
SECTION
2
ENTITIES
0
CIRCLE
5
100
100
AcDbEntity
8
CUTOUTS
100
AcDbCircle
10
262.50010442225511
20
-4.2500000000001137
30
0
40
3.2999999999999829
210
0
220
0
230
1
0
CIRCLE
5
101
100
AcDbEntity
8
CUTOUTS
100
AcDbCircle
10
262.50010442225511
20
136.24999999999986
30
0
40
3.2999999999999829
210
0
220
0
230
1
0
CIRCLE
5
102
100
AcDbEntity
8
CUTOUTS
100
AcDbCircle
10
262.50010442225522
20
-311.74999999963461
30
0
40
3.2999999999999829
210
0
220
0
230
1
0
CIRCLE
5
103
100
AcDbEntity
8
CUTOUTS
100
AcDbCircle
10
262.50010442225505
20
303.24999999999989
30
0
40
3.2999999999999829
210
0
220
0
230
1
0
CIRCLE
5
104
100
AcDbEntity
8
CUTOUTS
100
AcDbCircle
10
262.50010442225505
20
288.24999999999989
30
0
40
3.2999999999999829
210
0
220
0
230
1
0
CIRCLE
5
105
100
AcDbEntity
8
CUTOUTS
100
AcDbCircle
10
262.50010442225522
20
-326.74999999963461
30
0
40
3.2999999999999829
210
0
220
0
230
1
0
CIRCLE
5
106
100
AcDbEntity
8
CUTOUTS
100
AcDbCircle
10
262.50010442225511
20
47.249999999999872
30
0
40
3.2999999999999829
210
0
220
0
230
1
0
CIRCLE
5
107
100
AcDbEntity
8
CUTOUTS
100
AcDbCircle
10
262.50010442225511
20
-19.250000000000114
30
0
40
3.2999999999999829
210
0
220
0
230
1
0
CIRCLE
5
108
100
AcDbEntity
8
CUTOUTS
100
AcDbCircle
10
-262.50010442225584
20
-4.2500000000001137
30
0
40
3.2999999999999829
210
0
220
0
230
1
0
CIRCLE
5
109
100
AcDbEntity
8
CUTOUTS
100
AcDbCircle
10
-262.50010442225584
20
136.24999999999986
30
0
40
3.2999999999999829
210
0
220
0
230
1
0
CIRCLE
5
10A
100
AcDbEntity
8
CUTOUTS
100
AcDbCircle
10
-262.50010442225596
20
-311.74999999963461
30
0
40
3.2999999999999829
210
0
220
0
230
1
0
CIRCLE
5
10B
100
AcDbEntity
8
CUTOUTS
100
AcDbCircle
10
-262.50010442225579
20
303.24999999999989
30
0
40
3.2999999999999829
210
0
220
0
230
1
0
CIRCLE
5
10C
100
AcDbEntity
8
CUTOUTS
100
AcDbCircle
10
-262.50010442225579
20
288.24999999999989
30
0
40
3.2999999999999829
210
0
220
0
230
1
0
CIRCLE
5
10D
100
AcDbEntity
8
CUTOUTS
100
AcDbCircle
10
-262.50010442225596
20
-326.74999999963461
30
0
40
3.2999999999999829
210
0
220
0
230
1
0
CIRCLE
5
10E
100
AcDbEntity
8
CUTOUTS
100
AcDbCircle
10
-262.50010442225584
20
47.249999999999872
30
0
40
3.2999999999999829
210
0
220
0
230
1
0
CIRCLE
5
10F
100
AcDbEntity
8
CUTOUTS
100
AcDbCircle
10
-262.50010442225584
20
-19.250000000000114
30
0
40
3.2999999999999829
210
0
220
0
230
1
0
LINE
5
110
100
AcDbEntity
8
PERIMETER
100
AcDbLine
10
270.20721120344257
20
-350.24999999963421
30
0
11
298.00010388478853
21
-350.24999999963421
31
0
0
ARC
5
111
100
AcDbEntity
8
PERIMETER
100
AcDbCircle
10
298.00010388478847
20
-348.24999999963427
30
0
40
1.9999999999999574
210
-0
220
0
230
1
100
AcDbArc
50
-89.99999999999838
51
8.7901376859282907e-06
0
LINE
5
112
100
AcDbEntity
8
PERIMETER
100
AcDbLine
10
300.00010388478842
20
-348.24999969251041
30
0
11
300.00000053746714
21
324.75000030712454
31
0
0
ARC
5
113
100
AcDbEntity
8
PERIMETER
100
AcDbCircle
10
298.00000053746709
20
324.75000000000011
30
0
40
2.0000000000000875
210
0
220
-0
230
1
100
AcDbArc
50
8.7901376859282907e-06
51
89.99999999999838
0
LINE
5
114
100
AcDbEntity
8
PERIMETER
100
AcDbLine
10
298.00000053746714
20
326.75000000000017
30
0
11
270.20710678118445
21
326.75000000000023
31
0
0
ARC
5
115
100
AcDbEntity
8
PERIMETER
100
AcDbCircle
10
270.20710678118445
20
328.75000000000023
30
0
40
1.999999999999996
210
0
220
0
230
1
100
AcDbArc
50
225.00000000034777
51
270
0
LINE
5
116
100
AcDbEntity
8
PERIMETER
100
AcDbLine
10
268.79289321881993
20
327.33578643761854
30
0
11
209.08578643690529
21
387.0428932188068
31
0
0
ARC
5
117
100
AcDbEntity
8
PERIMETER
100
AcDbCircle
10
210.49999999926973
20
388.45710678118843
30
0
40
1.9999999999999929
210
0
220
0
230
1
100
AcDbArc
50
180
51
225.00000000034888
0
LINE
5
118
100
AcDbEntity
8
PERIMETER
100
AcDbLine
10
208.49999999926976
20
388.45710678118843
30
0
11
208.49999999926976
21
416.25000000000006
31
0
0
ARC
5
119
100
AcDbEntity
8
PERIMETER
100
AcDbCircle
10
206.49999999926976
20
416.25000000000006
30
0
40
1.9999999999999929
210
0
220
-0
230
1
100
AcDbArc
50
0
51
90
0
LINE
5
11A
100
AcDbEntity
8
PERIMETER
100
AcDbLine
10
206.49999999926976
20
418.25
30
0
11
-206.49999999927061
21
418.2499999999996
31
0
0
ARC
5
11B
100
AcDbEntity
8
PERIMETER
100
AcDbCircle
10
-206.49999999927059
20
416.24999999999972
30
0
40
2.0000000000000284
210
0
220
0
230
1
100
AcDbArc
50
90.00000000000081
51
180
0
LINE
5
11C
100
AcDbEntity
8
PERIMETER
100
AcDbLine
10
-208.49999999927059
20
416.24999999999972
30
0
11
-208.49999999927053
21
388.45710678118826
31
0
0
ARC
5
11D
100
AcDbEntity
8
PERIMETER
100
AcDbCircle
10
-210.49999999927053
20
388.4571067811882
30
0
40
1.999999999999996
210
-0
220
0
230
1
100
AcDbArc
50
-45.000000000348336
51
0
0
LINE
5
11E
100
AcDbEntity
8
PERIMETER
100
AcDbLine
10
-209.08578643690603
20
387.04289321880651
30
0
11
-268.79289321882072
21
327.33578643761831
31
0
0
ARC
5
11F
100
AcDbEntity
8
PERIMETER
100
AcDbCircle
10
-270.20710678118513
20
328.74999999999994
30
0
40
1.9999999999999574
210
-0
220
0
230
1
100
AcDbArc
50
270
51
314.9999999996511
0
LINE
5
120
100
AcDbEntity
8
PERIMETER
100
AcDbLine
10
-270.20710678118513
20
326.75
30
0
11
-298.00000053746783
21
326.75
31
0
0
ARC
5
121
100
AcDbEntity
8
PERIMETER
100
AcDbCircle
10
-298.00000053746777
20
324.74999999999994
30
0
40
2.0000000000000284
210
0
220
0
230
1
100
AcDbArc
50
90.000000000001634
51
179.99999120986232
0
LINE
5
122
100
AcDbEntity
8
PERIMETER
100
AcDbLine
10
-300.00000053746777
20
324.7500003071242
30
0
11
-300.00010388478847
21
-348.24999969251024
31
0
0
ARC
5
123
100
AcDbEntity
8
PERIMETER
100
AcDbCircle
10
-298.00010388478836
20
-348.24999999963444
30
0
40
2.0000000000000875
210
0
220
0
230
1
100
AcDbArc
50
179.99999120986232
51
269.99999999999676
0
LINE
5
124
100
AcDbEntity
8
PERIMETER
100
AcDbLine
10
-298.00010388478847
20
-350.24999999963455
30
0
11
-270.20721120344245
21
-350.24999999963455
31
0
0
ARC
5
125
100
AcDbEntity
8
PERIMETER
100
AcDbCircle
10
-270.20721120344245
20
-352.24999999963467
30
0
40
1.999999999999996
210
0
220
-0
230
1
100
AcDbArc
50
45
51
90
0
LINE
5
126
100
AcDbEntity
8
PERIMETER
100
AcDbLine
10
-268.79299764106935
20
-350.83578643726156
30
0
11
-209.08589085951834
21
-410.54289321881356
31
0
0
ARC
5
127
100
AcDbEntity
8
PERIMETER
100
AcDbCircle
10
-210.50010442189142
20
-411.95710678118667
30
0
40
1.9999999999999929
210
0
220
-0
230
1
100
AcDbArc
50
0
51
45.000000000000568
0
LINE
5
128
100
AcDbEntity
8
PERIMETER
100
AcDbLine
10
-208.50010442189142
20
-411.95710678118667
30
0
11
-208.50010442189142
21
-416.25000000000006
31
0
0
ARC
5
129
100
AcDbEntity
8
PERIMETER
100
AcDbCircle
10
-206.50010442189139
20
-416.25
30
0
40
2.0000000000000284
210
0
220
0
230
1
100
AcDbArc
50
180
51
269.99999999999835
0
LINE
5
12A
100
AcDbEntity
8
PERIMETER
100
AcDbLine
10
-206.50010442189145
20
-418.25
30
0
11
206.50010442189154
21
-418.25000000000011
31
0
0
ARC
5
12B
100
AcDbEntity
8
PERIMETER
100
AcDbCircle
10
206.50010442189145
20
-416.25
30
0
40
2.0000000000000995
210
-0
220
0
230
1
100
AcDbArc
50
270.00000000000244
51
360
0
LINE
5
12C
100
AcDbEntity
8
PERIMETER
100
AcDbLine
10
208.50010442189156
20
-416.25000000000006
30
0
11
208.50010442189156
21
-411.9571067811865
31
0
0
ARC
5
12D
100
AcDbEntity
8
PERIMETER
100
AcDbCircle
10
210.50010442189154
20
-411.9571067811865
30
0
40
2.0000000000000213
210
0
220
0
230
1
100
AcDbArc
50
135.00000000000117
51
180
0
LINE
5
12E
100
AcDbEntity
8
PERIMETER
100
AcDbLine
10
209.08589085951843
20
-410.54289321881345
30
0
11
268.79299764106952
21
-350.83578643726116
31
0
0
ARC
5
12F
100
AcDbEntity
8
PERIMETER
100
AcDbCircle
10
270.20721120344257
20
-352.24999999963421
30
0
40
2.0000000000000284
210
0
220
-0
230
1
100
AcDbArc
50
90
51
134.99999999999773
0
ENDSEC
0
SECTION
2
OBJECTS
0
DICTIONARY
5
C
100
AcDbDictionary
3
ACAD_GROUP
350
D
3
ACAD_MLINESTYLE
350
17
0
DICTIONARY
5
D
100
AcDbDictionary
0
DICTIONARY
5
1A
330
C
100
AcDbDictionary
0
DICTIONARY
5
17
100
AcDbDictionary
0
ENDSEC
0
EOF
