0
SECTION
2
HEADER
9
$INSUNITS
70
4
9
$ACADVER
1
AC1014
9
$HANDSEED
5
FFFF
0
ENDSEC
0
SECTION
2
TABLES
0
TABLE
2
VPORT
5
8
100
AcDbSymbolTable
0
ENDTAB
0
TABLE
2
LTYPE
5
5
100
AcDbSymbolTable
70
2
0
LTYPE
5
14
100
AcDbSymbolTableRecord
100
AcDbLinetypeTableRecord
2
BYBLOCK
70
0
0
LTYPE
5
15
100
AcDbSymbolTableRecord
100
AcDbLinetypeTableRecord
2
BYLAYER
70
0
0
ENDTAB
0
TABLE
2
LAYER
5
2
100
AcDbSymbolTable
70
3
0
LAYER
5
50
100
AcDbSymbolTableRecord
100
AcDbLayerTableRecord
2
0
70
0
6
CONTINUOUS
0
LAYER
5
51
100
AcDbSymbolTableRecord
100
AcDbLayerTableRecord
2
CUTOUTS
70
0
62
1
6
CONTINUOUS
0
LAYER
5
52
100
AcDbSymbolTableRecord
100
AcDbLayerTableRecord
2
PERIMETER
70
0
62
5
6
CONTINUOUS
0
ENDTAB
0
TABLE
2
STYLE
5
3
100
AcDbSymbolTable
70
1
0
STYLE
5
11
100
AcDbSymbolTableRecord
100
AcDbTextStyleTableRecord
2
STANDARD
70
0
0
ENDTAB
0
TABLE
2
VIEW
5
6
100
AcDbSymbolTable
0
ENDTAB
0
TABLE
2
UCS
5
7
100
AcDbSymbolTable
0
ENDTAB
0
TABLE
2
APPID
5
9
100
AcDbSymbolTable
70
1
0
APPID
5
12
100
AcDbSymbolTableRecord
100
AcDbRegAppTableRecord
2
ACAD
70
0
0
ENDTAB
0
TABLE
2
DIMSTYLE
5
A
100
AcDbSymbolTable
0
ENDTAB
0
TABLE
2
BLOCK_RECORD
5
1
100
AcDbSymbolTable
70
2
0
BLOCK_RECORD
5
1F
100
AcDbSymbolTableRecord
100
AcDbBlockTableRecord
2
*MODEL_SPACE
0
BLOCK_RECORD
5
1B
100
AcDbSymbolTableRecord
100
AcDbBlockTableRecord
2
*PAPER_SPACE
0
ENDTAB
0
ENDSEC
0
SECTION
2
BLOCKS
0
BLOCK
5
20
100
AcDbEntity
100
AcDbBlockBegin
2
*MODEL_SPACE
0
ENDBLK
5
21
100
AcDbEntity
100
AcDbBlockEnd
0
BLOCK
5
1C
100
AcDbEntity
100
AcDbBlockBegin
2
*PAPER_SPACE
0
ENDBLK
5
1D
100
AcDbEntity
100
AcDbBlockEnd
0
ENDSEC
0
SECTION
2
ENTITIES
0
CIRCLE
5
100
100
AcDbEntity
8
CUTOUTS
100
AcDbCircle
10
262.5000705346261
20
-97.999999999969276
30
0
40
3.2999999999999829
210
0
220
0
230
1
0
CIRCLE
5
101
100
AcDbEntity
8
CUTOUTS
100
AcDbCircle
10
262.50007053462809
20
164.00000000003075
30
0
40
3.2999999999999829
210
0
220
0
230
1
0
CIRCLE
5
102
100
AcDbEntity
8
CUTOUTS
100
AcDbCircle
10
262.50007053462809
20
127.00000000003072
30
0
40
3.2999999999999829
210
0
220
0
230
1
0
CIRCLE
5
103
100
AcDbEntity
8
CUTOUTS
100
AcDbCircle
10
262.50007053462809
20
112.00000000003072
30
0
40
3.2999999999999829
210
0
220
0
230
1
0
CIRCLE
5
104
100
AcDbEntity
8
CUTOUTS
100
AcDbCircle
10
262.50007053462809
20
75.000000000030695
30
0
40
3.2999999999999829
210
0
220
0
230
1
0
CIRCLE
5
105
100
AcDbEntity
8
CUTOUTS
100
AcDbCircle
10
262.5000705346261
20
-112.99999999996928
30
0
40
3.2999999999999829
210
0
220
0
230
1
0
CIRCLE
5
106
100
AcDbEntity
8
CUTOUTS
100
AcDbCircle
10
-262.5000705346269
20
-97.999999999969276
30
0
40
3.2999999999999829
210
0
220
0
230
1
0
CIRCLE
5
107
100
AcDbEntity
8
CUTOUTS
100
AcDbCircle
10
-262.50007053462889
20
164.00000000003075
30
0
40
3.2999999999999829
210
0
220
0
230
1
0
CIRCLE
5
108
100
AcDbEntity
8
CUTOUTS
100
AcDbCircle
10
-262.50007053462889
20
127.00000000003072
30
0
40
3.2999999999999829
210
0
220
0
230
1
0
CIRCLE
5
109
100
AcDbEntity
8
CUTOUTS
100
AcDbCircle
10
-262.50007053462889
20
112.00000000003072
30
0
40
3.2999999999999829
210
0
220
0
230
1
0
CIRCLE
5
10A
100
AcDbEntity
8
CUTOUTS
100
AcDbCircle
10
-262.50007053462889
20
75.000000000030695
30
0
40
3.2999999999999829
210
0
220
0
230
1
0
CIRCLE
5
10B
100
AcDbEntity
8
CUTOUTS
100
AcDbCircle
10
-262.5000705346269
20
-112.99999999996928
30
0
40
3.2999999999999829
210
0
220
0
230
1
0
LINE
5
10C
100
AcDbEntity
8
PERIMETER
100
AcDbLine
10
-272.50003526732309
20
188.50000000003431
30
0
11
-298.00003703067705
21
188.50000000007444
31
0
0
ARC
5
10D
100
AcDbEntity
8
PERIMETER
100
AcDbCircle
10
-298.00003703068012
20
186.50000000007438
30
0
40
2.0000000000000639
210
0
220
-0
230
1
100
AcDbArc
50
89.999999999912063
51
179.99999408488267
0
LINE
5
10E
100
AcDbEntity
8
PERIMETER
100
AcDbLine
10
-300.00003703068023
20
186.50000020752924
30
0
11
-300.00007017158271
21
-132.99999979245337
31
0
0
ARC
5
10F
100
AcDbEntity
8
PERIMETER
100
AcDbCircle
10
-298.00007017158259
20
-132.99999999990797
30
0
40
2.0000000000001101
210
0
220
0
230
1
100
AcDbArc
50
179.99999408488267
51
269.99999999999676
0
LINE
5
110
100
AcDbEntity
8
PERIMETER
100
AcDbLine
10
-298.00007017158271
20
-134.99999999990806
30
0
11
-270.2071773158151
21
-134.99999999990791
31
0
0
ARC
5
111
100
AcDbEntity
8
PERIMETER
100
AcDbCircle
10
-270.2071773158151
20
-136.99999999990794
30
0
40
2.0000000000000213
210
0
220
-0
230
1
100
AcDbArc
50
44.999999999999424
51
90
0
LINE
5
112
100
AcDbEntity
8
PERIMETER
100
AcDbLine
10
-268.792963753442
20
-135.58578643753486
30
0
11
-209.08585697213371
21
-195.29289321884414
31
0
0
ARC
5
113
100
AcDbEntity
8
PERIMETER
100
AcDbCircle
10
-210.50007053450682
20
-196.70710678121722
30
0
40
1.9999999999999929
210
0
220
-0
230
1
100
AcDbArc
50
0
51
44.999999999999424
0
LINE
5
114
100
AcDbEntity
8
PERIMETER
100
AcDbLine
10
-208.50007053450682
20
-196.70710678121722
30
0
11
-208.50007053450682
21
-201.00000000003064
31
0
0
ARC
5
115
100
AcDbEntity
8
PERIMETER
100
AcDbCircle
10
-206.50007053450676
20
-201.00000000003058
30
0
40
2.0000000000000639
210
0
220
0
230
1
100
AcDbArc
50
180
51
269.99999999999835
0
LINE
5
116
100
AcDbEntity
8
PERIMETER
100
AcDbLine
10
-206.50007053450682
20
-203.00000000003058
30
0
11
206.50007053450705
21
-203.00000000003067
31
0
0
ARC
5
117
100
AcDbEntity
8
PERIMETER
100
AcDbCircle
10
206.50007053450693
20
-201.00000000003064
30
0
40
2.0000000000000284
210
-0
220
0
230
1
100
AcDbArc
50
-89.999999999996746
51
0
0
LINE
5
118
100
AcDbEntity
8
PERIMETER
100
AcDbLine
10
208.50007053450696
20
-201.00000000003064
30
0
11
208.50007053450696
21
-196.70710678121708
31
0
0
ARC
5
119
100
AcDbEntity
8
PERIMETER
100
AcDbCircle
10
210.50007053450696
20
-196.70710678121708
30
0
40
2.0000000000000213
210
0
220
0
230
1
100
AcDbArc
50
135.0000000000006
51
180
0
LINE
5
11A
100
AcDbEntity
8
PERIMETER
100
AcDbLine
10
209.08585697213383
20
-195.29289321884397
30
0
11
268.79296375344205
21
-135.58578643753458
31
0
0
ARC
5
11B
100
AcDbEntity
8
PERIMETER
100
AcDbCircle
10
270.20717731581516
20
-136.99999999990766
30
0
40
2.0000000000000284
210
0
220
-0
230
1
100
AcDbArc
50
90
51
135
0
LINE
5
11C
100
AcDbEntity
8
PERIMETER
100
AcDbLine
10
270.20717731581516
20
-134.99999999990763
30
0
11
298.00007017158276
21
-134.99999999990757
31
0
0
ARC
5
11D
100
AcDbEntity
8
PERIMETER
100
AcDbCircle
10
298.00007017158282
20
-132.99999999990769
30
0
40
1.9999999999998863
210
0
220
0
230
1
100
AcDbArc
50
-90.000000000001634
51
5.9151173338843952e-06
0
LINE
5
11E
100
AcDbEntity
8
PERIMETER
100
AcDbLine
10
300.00007017158271
20
-132.99999979245308
30
0
11
300.00003703067989
21
186.50000020751602
31
0
0
ARC
5
11F
100
AcDbEntity
8
PERIMETER
100
AcDbCircle
10
298.00003703067995
20
186.50000000006122
30
0
40
1.9999999999999682
210
0
220
-0
230
1
100
AcDbArc
50
5.9151173338843952e-06
51
90.000000000469001
0
LINE
5
120
100
AcDbEntity
8
PERIMETER
100
AcDbLine
10
298.00003703066358
20
188.50000000006122
30
0
11
272.50003526733553
21
188.49999999985303
31
0
0
ARC
5
121
100
AcDbEntity
8
PERIMETER
100
AcDbCircle
10
272.50003526731916
20
190.49999999985303
30
0
40
1.9999999999999929
210
0
220
0
230
1
100
AcDbArc
50
180
51
270.00000000046896
0
LINE
5
122
100
AcDbEntity
8
PERIMETER
100
AcDbLine
10
270.50003526731916
20
190.49999999985303
30
0
11
270.50003526731916
21
201.0000000000307
31
0
0
ARC
5
123
100
AcDbEntity
8
PERIMETER
100
AcDbCircle
10
268.50003526731916
20
201.0000000000307
30
0
40
1.9999999999999929
210
0
220
-0
230
1
100
AcDbArc
50
0
51
90
0
LINE
5
124
100
AcDbEntity
8
PERIMETER
100
AcDbLine
10
268.50003526731916
20
203.0000000000307
30
0
11
-268.5000352673199
21
203.00000000003052
31
0
0
ARC
5
125
100
AcDbEntity
8
PERIMETER
100
AcDbCircle
10
-268.5000352673199
20
201.00000000003052
30
0
40
1.9999999999999929
210
0
220
-0
230
1
100
AcDbArc
50
90
51
180
0
LINE
5
126
100
AcDbEntity
8
PERIMETER
100
AcDbLine
10
-270.5000352673199
20
201.00000000003052
30
0
11
-270.5000352673199
21
190.50000000003428
31
0
0
ARC
5
127
100
AcDbEntity
8
PERIMETER
100
AcDbCircle
10
-272.50003526731996
20
190.50000000003428
30
0
40
1.9999999999999929
210
0
220
0
230
1
100
AcDbArc
50
-90.000000000089571
51
0
0
ENDSEC
0
SECTION
2
OBJECTS
0
DICTIONARY
5
C
100
AcDbDictionary
3
ACAD_GROUP
350
D
3
ACAD_MLINESTYLE
350
17
0
DICTIONARY
5
D
100
AcDbDictionary
0
DICTIONARY
5
1A
330
C
100
AcDbDictionary
0
DICTIONARY
5
17
100
AcDbDictionary
0
ENDSEC
0
EOF
