0
SECTION
2
HEADER
9
$INSUNITS
70
4
9
$ACADVER
1
AC1014
9
$HANDSEED
5
FFFF
0
ENDSEC
0
SECTION
2
TABLES
0
TABLE
2
VPORT
5
8
100
AcDbSymbolTable
0
ENDTAB
0
TABLE
2
LTYPE
5
5
100
AcDbSymbolTable
70
2
0
LTYPE
5
14
100
AcDbSymbolTableRecord
100
AcDbLinetypeTableRecord
2
BYBLOCK
70
0
0
LTYPE
5
15
100
AcDbSymbolTableRecord
100
AcDbLinetypeTableRecord
2
BYLAYER
70
0
0
ENDTAB
0
TABLE
2
LAYER
5
2
100
AcDbSymbolTable
70
3
0
LAYER
5
50
100
AcDbSymbolTableRecord
100
AcDbLayerTableRecord
2
0
70
0
6
CONTINUOUS
0
LAYER
5
51
100
AcDbSymbolTableRecord
100
AcDbLayerTableRecord
2
CUTOUTS
70
0
62
1
6
CONTINUOUS
0
LAYER
5
52
100
AcDbSymbolTableRecord
100
AcDbLayerTableRecord
2
PERIMETER
70
0
62
5
6
CONTINUOUS
0
ENDTAB
0
TABLE
2
STYLE
5
3
100
AcDbSymbolTable
70
1
0
STYLE
5
11
100
AcDbSymbolTableRecord
100
AcDbTextStyleTableRecord
2
STANDARD
70
0
0
ENDTAB
0
TABLE
2
VIEW
5
6
100
AcDbSymbolTable
0
ENDTAB
0
TABLE
2
UCS
5
7
100
AcDbSymbolTable
0
ENDTAB
0
TABLE
2
APPID
5
9
100
AcDbSymbolTable
70
1
0
APPID
5
12
100
AcDbSymbolTableRecord
100
AcDbRegAppTableRecord
2
ACAD
70
0
0
ENDTAB
0
TABLE
2
DIMSTYLE
5
A
100
AcDbSymbolTable
0
ENDTAB
0
TABLE
2
BLOCK_RECORD
5
1
100
AcDbSymbolTable
70
2
0
BLOCK_RECORD
5
1F
100
AcDbSymbolTableRecord
100
AcDbBlockTableRecord
2
*MODEL_SPACE
0
BLOCK_RECORD
5
1B
100
AcDbSymbolTableRecord
100
AcDbBlockTableRecord
2
*PAPER_SPACE
0
ENDTAB
0
ENDSEC
0
SECTION
2
BLOCKS
0
BLOCK
5
20
100
AcDbEntity
100
AcDbBlockBegin
2
*MODEL_SPACE
0
ENDBLK
5
21
100
AcDbEntity
100
AcDbBlockEnd
0
BLOCK
5
1C
100
AcDbEntity
100
AcDbBlockBegin
2
*PAPER_SPACE
0
ENDBLK
5
1D
100
AcDbEntity
100
AcDbBlockEnd
0
ENDSEC
0
SECTION
2
ENTITIES
0
CIRCLE
5
100
100
AcDbEntity
8
CUTOUTS
100
AcDbCircle
10
144.74999999999991
20
-69.249999999997328
30
0
40
3.4999999999999964
210
0
220
0
230
1
0
CIRCLE
5
101
100
AcDbEntity
8
CUTOUTS
100
AcDbCircle
10
19.749999999999925
20
-15.249999999997144
30
0
40
1.8000000000000016
210
0
220
0
230
1
0
CIRCLE
5
102
100
AcDbEntity
8
CUTOUTS
100
AcDbCircle
10
109.74999999999993
20
-15.249999999997144
30
0
40
1.7999999999999972
210
0
220
0
230
1
0
CIRCLE
5
103
100
AcDbEntity
8
CUTOUTS
100
AcDbCircle
10
-140.24999999999972
20
-128.2499999999975
30
0
40
3.4999999999999964
210
0
220
0
230
1
0
CIRCLE
5
104
100
AcDbEntity
8
CUTOUTS
100
AcDbCircle
10
-140.24999999999983
20
100.75000000000246
30
0
40
3.4999999999999964
210
0
220
0
230
1
0
CIRCLE
5
105
100
AcDbEntity
8
CUTOUTS
100
AcDbCircle
10
-15.249999999999773
20
130.75000000000509
30
0
40
3.5000000000000009
210
0
220
0
230
1
0
CIRCLE
5
106
100
AcDbEntity
8
CUTOUTS
100
AcDbCircle
10
118.75000000000021
20
130.75000000000523
30
0
40
3.4999999999999964
210
0
220
0
230
1
0
CIRCLE
5
107
100
AcDbEntity
8
CUTOUTS
100
AcDbCircle
10
-140.24999999999974
20
-13.749999999997531
30
0
40
3.4999999999999964
210
0
220
0
230
1
0
CIRCLE
5
108
100
AcDbEntity
8
CUTOUTS
100
AcDbCircle
10
144.74999999999991
20
30.750000000002675
30
0
40
3.4999999999999964
210
0
220
0
230
1
0
LINE
5
109
100
AcDbEntity
8
CUTOUTS
100
AcDbLine
10
-125.89999999999981
20
116.75000000000269
30
0
11
-125.89999999999981
21
127.7500000000027
31
0
0
ARC
5
10A
100
AcDbEntity
8
CUTOUTS
100
AcDbCircle
10
-123.89999999999981
20
127.7500000000027
30
0
40
1.9999999999999929
210
0
220
-0
230
1
100
AcDbArc
50
90
51
180
0
LINE
5
10B
100
AcDbEntity
8
CUTOUTS
100
AcDbLine
10
-123.89999999999981
20
129.7500000000027
30
0
11
-108.5999999999998
21
129.7500000000027
31
0
0
ARC
5
10C
100
AcDbEntity
8
CUTOUTS
100
AcDbCircle
10
-108.5999999999998
20
127.7500000000027
30
0
40
1.9999999999999929
210
0
220
-0
230
1
100
AcDbArc
50
0
51
90
0
LINE
5
10D
100
AcDbEntity
8
CUTOUTS
100
AcDbLine
10
-106.59999999999981
20
127.7500000000027
30
0
11
-106.59999999999981
21
116.75000000000269
31
0
0
ARC
5
10E
100
AcDbEntity
8
CUTOUTS
100
AcDbCircle
10
-108.5999999999998
20
116.75000000000269
30
0
40
1.9999999999999929
210
-0
220
0
230
1
100
AcDbArc
50
-90
51
0
0
LINE
5
10F
100
AcDbEntity
8
CUTOUTS
100
AcDbLine
10
-108.5999999999998
20
114.7500000000027
30
0
11
-123.89999999999981
21
114.7500000000027
31
0
0
ARC
5
110
100
AcDbEntity
8
CUTOUTS
100
AcDbCircle
10
-123.89999999999981
20
116.75000000000269
30
0
40
1.9999999999999929
210
0
220
0
230
1
100
AcDbArc
50
180
51
270
0
ARC
5
111
100
AcDbEntity
8
PERIMETER
100
AcDbCircle
10
153.24999999999991
20
54.250000000002686
30
0
40
0.99999999999999645
210
0
220
-0
230
1
100
AcDbArc
50
0
51
90
0
LINE
5
112
100
AcDbEntity
8
PERIMETER
100
AcDbLine
10
154.24999999999989
20
7.250000000002661
30
0
11
154.24999999999989
21
54.250000000002686
31
0
0
ARC
5
113
100
AcDbEntity
8
PERIMETER
100
AcDbCircle
10
153.24999999999991
20
7.250000000002661
30
0
40
0.99999999999997868
210
-0
220
0
230
1
100
AcDbArc
50
-90
51
0
0
LINE
5
114
100
AcDbEntity
8
PERIMETER
100
AcDbLine
10
136.24999999999994
20
6.2500000000026823
30
0
11
153.24999999999991
21
6.2500000000026823
31
0
0
ARC
5
115
100
AcDbEntity
8
PERIMETER
100
AcDbCircle
10
136.24999999999994
20
4.2500000000026894
30
0
40
1.9999999999999929
210
0
220
-0
230
1
100
AcDbArc
50
90
51
180
0
LINE
5
116
100
AcDbEntity
8
PERIMETER
100
AcDbLine
10
134.24999999999991
20
-42.749999999997343
30
0
11
134.24999999999994
21
4.2500000000026894
31
0
0
ARC
5
117
100
AcDbEntity
8
PERIMETER
100
AcDbCircle
10
136.24999999999991
20
-42.749999999997343
30
0
40
1.9999999999999929
210
0
220
0
230
1
100
AcDbArc
50
180
51
270
0
LINE
5
118
100
AcDbEntity
8
PERIMETER
100
AcDbLine
10
153.24999999999991
20
-44.749999999997314
30
0
11
136.24999999999994
21
-44.749999999997328
31
0
0
ARC
5
119
100
AcDbEntity
8
PERIMETER
100
AcDbCircle
10
153.24999999999991
20
-45.749999999997314
30
0
40
0.99999999999999645
210
0
220
-0
230
1
100
AcDbArc
50
0
51
90
0
LINE
5
11A
100
AcDbEntity
8
PERIMETER
100
AcDbLine
10
154.24999999999989
20
-92.749999999997343
30
0
11
154.24999999999989
21
-45.749999999997314
31
0
0
ARC
5
11B
100
AcDbEntity
8
PERIMETER
100
AcDbCircle
10
153.24999999999991
20
-92.749999999997343
30
0
40
0.99999999999997868
210
-0
220
0
230
1
100
AcDbArc
50
-90
51
0
0
LINE
5
11C
100
AcDbEntity
8
PERIMETER
100
AcDbLine
10
136.24999999999994
20
-93.749999999997314
30
0
11
153.24999999999991
21
-93.749999999997314
31
0
0
ARC
5
11D
100
AcDbEntity
8
PERIMETER
100
AcDbCircle
10
136.24999999999994
20
-95.7499999999973
30
0
40
1.9999999999999929
210
0
220
-0
230
1
100
AcDbArc
50
90
51
180
0
LINE
5
11E
100
AcDbEntity
8
PERIMETER
100
AcDbLine
10
134.24999999999991
20
-144.74999999999719
30
0
11
134.24999999999994
21
-95.749999999997328
31
0
0
LINE
5
11F
100
AcDbEntity
8
PERIMETER
100
AcDbLine
10
-154.24999999999991
20
-144.74999999999719
30
0
11
134.24999999999991
21
-144.74999999999719
31
0
0
LINE
5
120
100
AcDbEntity
8
PERIMETER
100
AcDbLine
10
-154.24999999999977
20
142.74999999999147
30
0
11
-154.24999999999991
21
-144.74999999999719
31
0
0
ARC
5
121
100
AcDbEntity
8
PERIMETER
100
AcDbCircle
10
-152.24999999999977
20
142.74999999999147
30
0
40
1.9999999999999929
210
0
220
0
230
1
100
AcDbArc
50
90.000000000001634
51
180
0
LINE
5
122
100
AcDbEntity
8
PERIMETER
100
AcDbLine
10
154.24999999999991
20
144.74999999999719
30
0
11
-152.24999999999983
21
144.74999999999147
31
0
0
LINE
5
123
100
AcDbEntity
8
PERIMETER
100
AcDbLine
10
154.24999999999986
20
107.75000000000267
30
0
11
154.24999999999991
21
144.74999999999719
31
0
0
ARC
5
124
100
AcDbEntity
8
PERIMETER
100
AcDbCircle
10
152.74999999999991
20
107.75000000000263
30
0
40
1.4999999999999503
210
-0
220
0
230
1
100
AcDbArc
50
-90
51
0
0
LINE
5
125
100
AcDbEntity
8
PERIMETER
100
AcDbLine
10
136.24999999999994
20
106.25000000000269
30
0
11
152.74999999999991
21
106.25000000000269
31
0
0
ARC
5
126
100
AcDbEntity
8
PERIMETER
100
AcDbCircle
10
136.24999999999991
20
104.25000000000269
30
0
40
1.9999999999999929
210
0
220
-0
230
1
100
AcDbArc
50
89.99999999999919
51
180
0
LINE
5
127
100
AcDbEntity
8
PERIMETER
100
AcDbLine
10
134.24999999999991
20
57.250000000002657
30
0
11
134.24999999999991
21
104.25000000000269
31
0
0
ARC
5
128
100
AcDbEntity
8
PERIMETER
100
AcDbCircle
10
136.24999999999991
20
57.250000000002657
30
0
40
1.9999999999999929
210
0
220
0
230
1
100
AcDbArc
50
180
51
270.0000000000008
0
LINE
5
129
100
AcDbEntity
8
PERIMETER
100
AcDbLine
10
153.24999999999991
20
55.2500000000027
30
0
11
136.24999999999994
21
55.250000000002672
31
0
0
ENDSEC
0
SECTION
2
OBJECTS
0
DICTIONARY
5
C
100
AcDbDictionary
3
ACAD_GROUP
350
D
3
ACAD_MLINESTYLE
350
17
0
DICTIONARY
5
D
100
AcDbDictionary
0
DICTIONARY
5
1A
330
C
100
AcDbDictionary
0
DICTIONARY
5
17
100
AcDbDictionary
0
ENDSEC
0
EOF
