0
SECTION
2
HEADER
9
$INSUNITS
70
4
9
$ACADVER
1
AC1014
9
$HANDSEED
5
FFFF
0
ENDSEC
0
SECTION
2
TABLES
0
TABLE
2
VPORT
5
8
100
AcDbSymbolTable
0
ENDTAB
0
TABLE
2
LTYPE
5
5
100
AcDbSymbolTable
70
2
0
LTYPE
5
14
100
AcDbSymbolTableRecord
100
AcDbLinetypeTableRecord
2
BYBLOCK
70
0
0
LTYPE
5
15
100
AcDbSymbolTableRecord
100
AcDbLinetypeTableRecord
2
BYLAYER
70
0
0
ENDTAB
0
TABLE
2
LAYER
5
2
100
AcDbSymbolTable
70
3
0
LAYER
5
50
100
AcDbSymbolTableRecord
100
AcDbLayerTableRecord
2
0
70
0
6
CONTINUOUS
0
LAYER
5
51
100
AcDbSymbolTableRecord
100
AcDbLayerTableRecord
2
CUTOUTS
70
0
62
1
6
CONTINUOUS
0
LAYER
5
52
100
AcDbSymbolTableRecord
100
AcDbLayerTableRecord
2
PERIMETER
70
0
62
5
6
CONTINUOUS
0
ENDTAB
0
TABLE
2
STYLE
5
3
100
AcDbSymbolTable
70
1
0
STYLE
5
11
100
AcDbSymbolTableRecord
100
AcDbTextStyleTableRecord
2
STANDARD
70
0
0
ENDTAB
0
TABLE
2
VIEW
5
6
100
AcDbSymbolTable
0
ENDTAB
0
TABLE
2
UCS
5
7
100
AcDbSymbolTable
0
ENDTAB
0
TABLE
2
APPID
5
9
100
AcDbSymbolTable
70
1
0
APPID
5
12
100
AcDbSymbolTableRecord
100
AcDbRegAppTableRecord
2
ACAD
70
0
0
ENDTAB
0
TABLE
2
DIMSTYLE
5
A
100
AcDbSymbolTable
0
ENDTAB
0
TABLE
2
BLOCK_RECORD
5
1
100
AcDbSymbolTable
70
2
0
BLOCK_RECORD
5
1F
100
AcDbSymbolTableRecord
100
AcDbBlockTableRecord
2
*MODEL_SPACE
0
BLOCK_RECORD
5
1B
100
AcDbSymbolTableRecord
100
AcDbBlockTableRecord
2
*PAPER_SPACE
0
ENDTAB
0
ENDSEC
0
SECTION
2
BLOCKS
0
BLOCK
5
20
100
AcDbEntity
100
AcDbBlockBegin
2
*MODEL_SPACE
0
ENDBLK
5
21
100
AcDbEntity
100
AcDbBlockEnd
0
BLOCK
5
1C
100
AcDbEntity
100
AcDbBlockBegin
2
*PAPER_SPACE
0
ENDBLK
5
1D
100
AcDbEntity
100
AcDbBlockEnd
0
ENDSEC
0
SECTION
2
ENTITIES
0
CIRCLE
5
100
100
AcDbEntity
8
CUTOUTS
100
AcDbCircle
10
287.69999999999953
20
-184.34999999999985
30
0
40
1.6250000000000142
210
0
220
0
230
1
0
CIRCLE
5
101
100
AcDbEntity
8
CUTOUTS
100
AcDbCircle
10
287.69999999999948
20
-115.34999999999984
30
0
40
1.6250000000000142
210
0
220
0
230
1
0
CIRCLE
5
102
100
AcDbEntity
8
CUTOUTS
100
AcDbCircle
10
278.99999999999949
20
-92.699999999999832
30
0
40
1.6250000000000142
210
0
220
0
230
1
0
CIRCLE
5
103
100
AcDbEntity
8
CUTOUTS
100
AcDbCircle
10
270.2999999999995
20
-115.34999999999984
30
0
40
1.6250000000000142
210
0
220
0
230
1
0
CIRCLE
5
104
100
AcDbEntity
8
CUTOUTS
100
AcDbCircle
10
270.29999999999956
20
-184.34999999999988
30
0
40
1.6250000000000142
210
0
220
0
230
1
0
CIRCLE
5
105
100
AcDbEntity
8
CUTOUTS
100
AcDbCircle
10
278.99999999999943
20
-49.999999999999844
30
0
40
1.6250000000000142
210
0
220
0
230
1
0
CIRCLE
5
106
100
AcDbEntity
8
CUTOUTS
100
AcDbCircle
10
240.49999999999997
20
194.99999999999966
30
0
40
3.2250000000000156
210
0
220
0
230
1
0
CIRCLE
5
107
100
AcDbEntity
8
CUTOUTS
100
AcDbCircle
10
-317.5
20
139.49999999999994
30
0
40
3.2250000000000156
210
0
220
0
230
1
0
CIRCLE
5
108
100
AcDbEntity
8
CUTOUTS
100
AcDbCircle
10
-222.49999999999997
20
-290.00000000000006
30
0
40
3.2250000000000156
210
0
220
0
230
1
0
CIRCLE
5
109
100
AcDbEntity
8
CUTOUTS
100
AcDbCircle
10
222.50000000000006
20
-289.99999999999983
30
0
40
3.2250000000000156
210
0
220
0
230
1
0
CIRCLE
5
10A
100
AcDbEntity
8
CUTOUTS
100
AcDbCircle
10
317.49999999999989
20
-3.1698053917601296e-13
30
0
40
3.2250000000000156
210
0
220
0
230
1
0
CIRCLE
5
10B
100
AcDbEntity
8
CUTOUTS
100
AcDbCircle
10
317.49999999999994
20
194.99999999999966
30
0
40
3.2250000000000156
210
0
220
0
230
1
0
CIRCLE
5
10C
100
AcDbEntity
8
CUTOUTS
100
AcDbCircle
10
4.2079010408525735e-14
20
289.99999999999989
30
0
40
3.2250000000000001
210
0
220
0
230
1
0
CIRCLE
5
10D
100
AcDbEntity
8
CUTOUTS
100
AcDbCircle
10
-222.49999999999994
20
289.99999999999989
30
0
40
3.2250000000000156
210
0
220
0
230
1
0
CIRCLE
5
10E
100
AcDbEntity
8
CUTOUTS
100
AcDbCircle
10
222.5
20
289.9999999999996
30
0
40
3.2250000000000156
210
0
220
0
230
1
0
CIRCLE
5
10F
100
AcDbEntity
8
CUTOUTS
100
AcDbCircle
10
240.49999999999989
20
-2.4501606165537958e-13
30
0
40
3.2250000000000156
210
0
220
0
230
1
0
CIRCLE
5
110
100
AcDbEntity
8
CUTOUTS
100
AcDbCircle
10
317.49999999999994
20
-194.99999999999986
30
0
40
3.2250000000000156
210
0
220
0
230
1
0
CIRCLE
5
111
100
AcDbEntity
8
CUTOUTS
100
AcDbCircle
10
5.9322913061095957e-14
20
-290.00000000000006
30
0
40
3.2250000000000001
210
0
220
0
230
1
0
CIRCLE
5
112
100
AcDbEntity
8
CUTOUTS
100
AcDbCircle
10
-317.5
20
-1.0705085600099892e-13
30
0
40
3.2250000000000156
210
0
220
0
230
1
0
CIRCLE
5
113
100
AcDbEntity
8
CUTOUTS
100
AcDbCircle
10
-317.49999999999994
20
-139.50000000000017
30
0
40
3.2250000000000156
210
0
220
0
230
1
0
CIRCLE
5
114
100
AcDbEntity
8
CUTOUTS
100
AcDbCircle
10
240.49999999999997
20
-194.99999999999986
30
0
40
3.2250000000000156
210
0
220
0
230
1
0
LINE
5
115
100
AcDbEntity
8
CUTOUTS
100
AcDbLine
10
288.92499999999922
20
-53.924999999999947
30
0
11
288.92499999999922
21
-88.774999999999949
31
0
0
LINE
5
116
100
AcDbEntity
8
CUTOUTS
100
AcDbLine
10
288.92499999999922
20
-88.774999999999949
30
0
11
269.07499999999919
21
-88.774999999999949
31
0
0
LINE
5
117
100
AcDbEntity
8
CUTOUTS
100
AcDbLine
10
269.07499999999919
20
-88.774999999999949
30
0
11
269.07499999999919
21
-53.924999999999947
31
0
0
LINE
5
118
100
AcDbEntity
8
CUTOUTS
100
AcDbLine
10
269.07499999999919
20
-53.924999999999947
30
0
11
288.92499999999922
21
-53.924999999999947
31
0
0
LINE
5
119
100
AcDbEntity
8
CUTOUTS
100
AcDbLine
10
292.67499999999842
20
-125.42499999999995
30
0
11
292.67499999999842
21
-172.27499999999995
31
0
0
LINE
5
11A
100
AcDbEntity
8
CUTOUTS
100
AcDbLine
10
292.67499999999842
20
-172.27499999999995
30
0
11
265.32499999999845
21
-172.27499999999995
31
0
0
LINE
5
11B
100
AcDbEntity
8
CUTOUTS
100
AcDbLine
10
265.32499999999845
20
-172.27499999999995
30
0
11
265.32499999999845
21
-125.42499999999995
31
0
0
LINE
5
11C
100
AcDbEntity
8
CUTOUTS
100
AcDbLine
10
265.32499999999845
20
-125.42499999999995
30
0
11
292.67499999999842
21
-125.42499999999995
31
0
0
LINE
5
11D
100
AcDbEntity
8
PERIMETER
100
AcDbLine
10
302.32793846863376
20
214.57499999999959
30
0
11
242.07499999999987
21
274.82793846863342
31
0
0
LINE
5
11E
100
AcDbEntity
8
PERIMETER
100
AcDbLine
10
242.07499999999987
20
274.82793846863342
30
0
11
242.07499999999982
21
305.07499999999959
31
0
0
LINE
5
11F
100
AcDbEntity
8
PERIMETER
100
AcDbLine
10
242.07499999999982
20
305.07499999999959
30
0
11
-242.07500000000016
21
305.07499999999976
31
0
0
LINE
5
120
100
AcDbEntity
8
PERIMETER
100
AcDbLine
10
-242.07500000000016
20
305.07499999999976
30
0
11
-242.07500000000016
21
274.82793846863365
31
0
0
LINE
5
121
100
AcDbEntity
8
PERIMETER
100
AcDbLine
10
-242.07500000000016
20
274.82793846863365
30
0
11
-302.32793846863416
21
214.57499999999979
31
0
0
LINE
5
122
100
AcDbEntity
8
PERIMETER
100
AcDbLine
10
-302.32793846863416
20
214.57499999999979
30
0
11
-304.57500000000033
21
214.57499999999985
31
0
0
LINE
5
123
100
AcDbEntity
8
PERIMETER
100
AcDbLine
10
-304.57500000000033
20
214.57499999999985
30
0
11
-304.57500000000022
21
154.57499999999982
31
0
0
LINE
5
124
100
AcDbEntity
8
PERIMETER
100
AcDbLine
10
-304.57500000000022
20
154.57499999999982
30
0
11
-332.57500000000022
21
154.57499999999979
31
0
0
LINE
5
125
100
AcDbEntity
8
PERIMETER
100
AcDbLine
10
-332.57500000000022
20
154.57499999999979
30
0
11
-332.57500000000022
21
-154.57500000000022
31
0
0
LINE
5
126
100
AcDbEntity
8
PERIMETER
100
AcDbLine
10
-332.57500000000022
20
-154.57500000000022
30
0
11
-304.57500000000022
21
-154.57500000000024
31
0
0
LINE
5
127
100
AcDbEntity
8
PERIMETER
100
AcDbLine
10
-304.57500000000022
20
-154.57500000000024
30
0
11
-304.57500000000033
21
-214.57500000000027
31
0
0
LINE
5
128
100
AcDbEntity
8
PERIMETER
100
AcDbLine
10
-304.57500000000033
20
-214.57500000000027
30
0
11
-302.3279384686341
21
-214.57500000000022
31
0
0
LINE
5
129
100
AcDbEntity
8
PERIMETER
100
AcDbLine
10
-302.3279384686341
20
-214.57500000000022
30
0
11
-242.07500000000016
21
-274.82793846863404
31
0
0
LINE
5
12A
100
AcDbEntity
8
PERIMETER
100
AcDbLine
10
-242.07500000000016
20
-274.82793846863404
30
0
11
-242.07500000000022
21
-305.07500000000016
31
0
0
LINE
5
12B
100
AcDbEntity
8
PERIMETER
100
AcDbLine
10
-242.07500000000022
20
-305.07500000000016
30
0
11
242.0749999999997
21
-305.07499999999999
31
0
0
LINE
5
12C
100
AcDbEntity
8
PERIMETER
100
AcDbLine
10
242.0749999999997
20
-305.07499999999999
30
0
11
242.07499999999985
21
-274.82793846863387
31
0
0
LINE
5
12D
100
AcDbEntity
8
PERIMETER
100
AcDbLine
10
242.07499999999985
20
-274.82793846863387
30
0
11
302.32793846863376
21
-214.57500000000005
31
0
0
LINE
5
12E
100
AcDbEntity
8
PERIMETER
100
AcDbLine
10
302.32793846863376
20
-214.57500000000005
30
0
11
332.57499999999987
21
-214.57499999999993
31
0
0
LINE
5
12F
100
AcDbEntity
8
PERIMETER
100
AcDbLine
10
332.57499999999987
20
-214.57499999999993
30
0
11
332.57499999999982
21
214.57499999999951
31
0
0
LINE
5
130
100
AcDbEntity
8
PERIMETER
100
AcDbLine
10
332.57499999999982
20
214.57499999999951
30
0
11
302.32793846863376
21
214.57499999999959
31
0
0
ENDSEC
0
SECTION
2
OBJECTS
0
DICTIONARY
5
C
100
AcDbDictionary
3
ACAD_GROUP
350
D
3
ACAD_MLINESTYLE
350
17
0
DICTIONARY
5
D
100
AcDbDictionary
0
DICTIONARY
5
1A
330
C
100
AcDbDictionary
0
DICTIONARY
5
17
100
AcDbDictionary
0
ENDSEC
0
EOF
