0
SECTION
2
HEADER
9
$INSUNITS
70
4
9
$ACADVER
1
AC1014
9
$HANDSEED
5
FFFF
0
ENDSEC
0
SECTION
2
TABLES
0
TABLE
2
VPORT
5
8
100
AcDbSymbolTable
0
ENDTAB
0
TABLE
2
LTYPE
5
5
100
AcDbSymbolTable
70
2
0
LTYPE
5
14
100
AcDbSymbolTableRecord
100
AcDbLinetypeTableRecord
2
BYBLOCK
70
0
0
LTYPE
5
15
100
AcDbSymbolTableRecord
100
AcDbLinetypeTableRecord
2
BYLAYER
70
0
0
ENDTAB
0
TABLE
2
LAYER
5
2
100
AcDbSymbolTable
70
3
0
LAYER
5
50
100
AcDbSymbolTableRecord
100
AcDbLayerTableRecord
2
0
70
0
6
CONTINUOUS
0
LAYER
5
51
100
AcDbSymbolTableRecord
100
AcDbLayerTableRecord
2
CUTOUTS
70
0
62
1
6
CONTINUOUS
0
LAYER
5
52
100
AcDbSymbolTableRecord
100
AcDbLayerTableRecord
2
PERIMETER
70
0
62
5
6
CONTINUOUS
0
ENDTAB
0
TABLE
2
STYLE
5
3
100
AcDbSymbolTable
70
1
0
STYLE
5
11
100
AcDbSymbolTableRecord
100
AcDbTextStyleTableRecord
2
STANDARD
70
0
0
ENDTAB
0
TABLE
2
VIEW
5
6
100
AcDbSymbolTable
0
ENDTAB
0
TABLE
2
UCS
5
7
100
AcDbSymbolTable
0
ENDTAB
0
TABLE
2
APPID
5
9
100
AcDbSymbolTable
70
1
0
APPID
5
12
100
AcDbSymbolTableRecord
100
AcDbRegAppTableRecord
2
ACAD
70
0
0
ENDTAB
0
TABLE
2
DIMSTYLE
5
A
100
AcDbSymbolTable
0
ENDTAB
0
TABLE
2
BLOCK_RECORD
5
1
100
AcDbSymbolTable
70
2
0
BLOCK_RECORD
5
1F
100
AcDbSymbolTableRecord
100
AcDbBlockTableRecord
2
*MODEL_SPACE
0
BLOCK_RECORD
5
1B
100
AcDbSymbolTableRecord
100
AcDbBlockTableRecord
2
*PAPER_SPACE
0
ENDTAB
0
ENDSEC
0
SECTION
2
BLOCKS
0
BLOCK
5
20
100
AcDbEntity
100
AcDbBlockBegin
2
*MODEL_SPACE
0
ENDBLK
5
21
100
AcDbEntity
100
AcDbBlockEnd
0
BLOCK
5
1C
100
AcDbEntity
100
AcDbBlockBegin
2
*PAPER_SPACE
0
ENDBLK
5
1D
100
AcDbEntity
100
AcDbBlockEnd
0
ENDSEC
0
SECTION
2
ENTITIES
0
CIRCLE
5
100
100
AcDbEntity
8
CUTOUTS
100
AcDbCircle
10
212.49994679057897
20
-35.750000000000064
30
0
40
3.2999999999999829
210
0
220
0
230
1
0
CIRCLE
5
101
100
AcDbEntity
8
CUTOUTS
100
AcDbCircle
10
212.49994679057897
20
86.249999999999886
30
0
40
3.2999999999999829
210
0
220
0
230
1
0
CIRCLE
5
102
100
AcDbEntity
8
CUTOUTS
100
AcDbCircle
10
212.49994679057897
20
-261.7499999999182
30
0
40
3.2999999999999829
210
0
220
0
230
1
0
CIRCLE
5
103
100
AcDbEntity
8
CUTOUTS
100
AcDbCircle
10
212.49994679057895
20
253.24999999999991
30
0
40
3.2999999999999829
210
0
220
0
230
1
0
CIRCLE
5
104
100
AcDbEntity
8
CUTOUTS
100
AcDbCircle
10
212.49994679057895
20
238.24999999999991
30
0
40
3.2999999999999829
210
0
220
0
230
1
0
CIRCLE
5
105
100
AcDbEntity
8
CUTOUTS
100
AcDbCircle
10
212.49994679057897
20
-276.7499999999182
30
0
40
3.2999999999999829
210
0
220
0
230
1
0
CIRCLE
5
106
100
AcDbEntity
8
CUTOUTS
100
AcDbCircle
10
212.49994679057897
20
-2.7500000000000924
30
0
40
3.2999999999999829
210
0
220
0
230
1
0
CIRCLE
5
107
100
AcDbEntity
8
CUTOUTS
100
AcDbCircle
10
212.49994679057897
20
-50.750000000000064
30
0
40
3.2999999999999829
210
0
220
0
230
1
0
CIRCLE
5
108
100
AcDbEntity
8
CUTOUTS
100
AcDbCircle
10
-212.49994679057906
20
-35.750000000000064
30
0
40
3.2999999999999829
210
0
220
0
230
1
0
CIRCLE
5
109
100
AcDbEntity
8
CUTOUTS
100
AcDbCircle
10
-212.49994679057906
20
86.249999999999886
30
0
40
3.2999999999999829
210
0
220
0
230
1
0
CIRCLE
5
10A
100
AcDbEntity
8
CUTOUTS
100
AcDbCircle
10
-212.49994679057906
20
-261.7499999999182
30
0
40
3.2999999999999829
210
0
220
0
230
1
0
CIRCLE
5
10B
100
AcDbEntity
8
CUTOUTS
100
AcDbCircle
10
-212.49994679057903
20
253.24999999999991
30
0
40
3.2999999999999829
210
0
220
0
230
1
0
CIRCLE
5
10C
100
AcDbEntity
8
CUTOUTS
100
AcDbCircle
10
-212.49994679057903
20
238.24999999999991
30
0
40
3.2999999999999829
210
0
220
0
230
1
0
CIRCLE
5
10D
100
AcDbEntity
8
CUTOUTS
100
AcDbCircle
10
-212.49994679057906
20
-276.7499999999182
30
0
40
3.2999999999999829
210
0
220
0
230
1
0
CIRCLE
5
10E
100
AcDbEntity
8
CUTOUTS
100
AcDbCircle
10
-212.49994679057906
20
-2.7500000000000924
30
0
40
3.2999999999999829
210
0
220
0
230
1
0
CIRCLE
5
10F
100
AcDbEntity
8
CUTOUTS
100
AcDbCircle
10
-212.49994679057906
20
-50.750000000000064
30
0
40
3.2999999999999829
210
0
220
0
230
1
0
LINE
5
110
100
AcDbEntity
8
PERIMETER
100
AcDbLine
10
220.20705357180657
20
-300.24999999987745
30
0
11
247.99994711171107
21
-300.2499999998775
31
0
0
ARC
5
111
100
AcDbEntity
8
PERIMETER
100
AcDbCircle
10
247.99994711171109
20
-298.24999999987745
30
0
40
2.0000000000000284
210
0
220
0
230
1
100
AcDbArc
50
269.9999999999992
51
359.9999947369858
0
LINE
5
112
100
AcDbEntity
8
PERIMETER
100
AcDbLine
10
249.99994711171112
20
-298.25000018335805
30
0
11
249.99999967890892
21
274.74999981651962
31
0
0
ARC
5
113
100
AcDbEntity
8
PERIMETER
100
AcDbCircle
10
247.99999967890901
20
274.75000000000028
30
0
40
1.9999999999999303
210
-0
220
0
230
1
100
AcDbArc
50
-5.2630142080430209e-06
51
90.000000000001634
0
LINE
5
114
100
AcDbEntity
8
PERIMETER
100
AcDbLine
10
247.99999967890895
20
276.75000000000017
30
0
11
220.2071067811859
21
276.75000000000017
31
0
0
ARC
5
115
100
AcDbEntity
8
PERIMETER
100
AcDbCircle
10
220.2071067811859
20
278.75000000000017
30
0
40
1.999999999999996
210
0
220
0
230
1
100
AcDbArc
50
225.00000000011627
51
270
0
LINE
5
116
100
AcDbEntity
8
PERIMETER
100
AcDbLine
10
218.79289321881569
20
277.33578643762422
30
0
11
159.08578643738613
21
337.04289321881134
31
0
0
ARC
5
117
100
AcDbEntity
8
PERIMETER
100
AcDbCircle
10
160.49999999975637
20
338.45710678118724
30
0
40
1.9999999999999929
210
0
220
0
230
1
100
AcDbArc
50
180
51
225.00000000011573
0
LINE
5
118
100
AcDbEntity
8
PERIMETER
100
AcDbLine
10
158.49999999975637
20
338.45710678118724
30
0
11
158.49999999975634
21
366.25
31
0
0
ARC
5
119
100
AcDbEntity
8
PERIMETER
100
AcDbCircle
10
156.49999999975637
20
366.25000000000006
30
0
40
1.9999999999999751
210
0
220
-0
230
1
100
AcDbArc
50
0
51
90.00000000000081
0
LINE
5
11A
100
AcDbEntity
8
PERIMETER
100
AcDbLine
10
156.49999999975634
20
368.25
30
0
11
-156.49999999975643
21
368.24999999999983
31
0
0
ARC
5
11B
100
AcDbEntity
8
PERIMETER
100
AcDbCircle
10
-156.49999999975645
20
366.24999999999989
30
0
40
1.9999999999999574
210
0
220
-0
230
1
100
AcDbArc
50
89.99999999999919
51
180
0
LINE
5
11C
100
AcDbEntity
8
PERIMETER
100
AcDbLine
10
-158.4999999997564
20
366.24999999999989
30
0
11
-158.4999999997564
21
338.45710678118706
31
0
0
ARC
5
11D
100
AcDbEntity
8
PERIMETER
100
AcDbCircle
10
-160.4999999997564
20
338.45710678118706
30
0
40
1.9999999999999709
210
-0
220
0
230
1
100
AcDbArc
50
-45.00000000011628
51
0
0
LINE
5
11E
100
AcDbEntity
8
PERIMETER
100
AcDbLine
10
-159.08578643738619
20
337.04289321881112
30
0
11
-218.79289321881566
21
277.33578643762405
31
0
0
ARC
5
11F
100
AcDbEntity
8
PERIMETER
100
AcDbCircle
10
-220.20710678118587
20
278.75
30
0
40
1.9999999999999929
210
-0
220
0
230
1
100
AcDbArc
50
270
51
314.9999999998837
0
LINE
5
120
100
AcDbEntity
8
PERIMETER
100
AcDbLine
10
-220.20710678118587
20
276.75
30
0
11
-247.99999967890895
21
276.75
31
0
0
ARC
5
121
100
AcDbEntity
8
PERIMETER
100
AcDbCircle
10
-247.99999967890901
20
274.75000000000006
30
0
40
1.9999999999999218
210
0
220
-0
230
1
100
AcDbArc
50
89.99999999999838
51
180.00000526301423
0
LINE
5
122
100
AcDbEntity
8
PERIMETER
100
AcDbLine
10
-249.99999967890892
20
274.74999981651939
30
0
11
-249.99994711171055
21
-298.2500001833584
31
0
0
ARC
5
123
100
AcDbEntity
8
PERIMETER
100
AcDbCircle
10
-247.99994711171055
20
-298.24999999987773
30
0
40
2.0000000000000013
210
0
220
0
230
1
100
AcDbArc
50
180.00000526301423
51
270
0
LINE
5
124
100
AcDbEntity
8
PERIMETER
100
AcDbLine
10
-247.99994711171055
20
-300.24999999987767
30
0
11
-220.20705357180603
21
-300.24999999987779
31
0
0
ARC
5
125
100
AcDbEntity
8
PERIMETER
100
AcDbCircle
10
-220.20705357180603
20
-302.24999999987779
30
0
40
2.0000000000000213
210
0
220
-0
230
1
100
AcDbArc
50
44.999999999999424
51
90
0
LINE
5
126
100
AcDbEntity
8
PERIMETER
100
AcDbLine
10
-218.79284000943289
20
-300.83578643750468
30
0
11
-159.08573322812512
21
-360.5428932188135
31
0
0
ARC
5
127
100
AcDbEntity
8
PERIMETER
100
AcDbCircle
10
-160.4999467904982
20
-361.95710678118655
30
0
40
1.9999999999999929
210
0
220
-0
230
1
100
AcDbArc
50
0
51
44.999999999999424
0
LINE
5
128
100
AcDbEntity
8
PERIMETER
100
AcDbLine
10
-158.4999467904982
20
-361.95710678118655
30
0
11
-158.4999467904982
21
-366.25
31
0
0
ARC
5
129
100
AcDbEntity
8
PERIMETER
100
AcDbCircle
10
-156.49994679049814
20
-366.24999999999994
30
0
40
2.0000000000000639
210
0
220
0
230
1
100
AcDbArc
50
180
51
269.99999999999756
0
LINE
5
12A
100
AcDbEntity
8
PERIMETER
100
AcDbLine
10
-156.49994679049823
20
-368.24999999999994
30
0
11
156.49994679049885
21
-368.25
31
0
0
ARC
5
12B
100
AcDbEntity
8
PERIMETER
100
AcDbCircle
10
156.4999467904988
20
-366.24999999999994
30
0
40
2.0000000000000995
210
-0
220
0
230
1
100
AcDbArc
50
270.00000000000159
51
360
0
LINE
5
12C
100
AcDbEntity
8
PERIMETER
100
AcDbLine
10
158.49994679049888
20
-366.25
30
0
11
158.49994679049883
21
-361.95710678118644
31
0
0
ARC
5
12D
100
AcDbEntity
8
PERIMETER
100
AcDbCircle
10
160.49994679049885
20
-361.95710678118644
30
0
40
1.999999999999996
210
0
220
0
230
1
100
AcDbArc
50
135
51
180
0
LINE
5
12E
100
AcDbEntity
8
PERIMETER
100
AcDbLine
10
159.08573322812575
20
-360.54289321881333
30
0
11
218.79284000943343
21
-300.83578643750434
31
0
0
ARC
5
12F
100
AcDbEntity
8
PERIMETER
100
AcDbCircle
10
220.20705357180657
20
-302.24999999987745
30
0
40
2.0000000000000284
210
0
220
-0
230
1
100
AcDbArc
50
90
51
135.0000000000006
0
ENDSEC
0
SECTION
2
OBJECTS
0
DICTIONARY
5
C
100
AcDbDictionary
3
ACAD_GROUP
350
D
3
ACAD_MLINESTYLE
350
17
0
DICTIONARY
5
D
100
AcDbDictionary
0
DICTIONARY
5
1A
330
C
100
AcDbDictionary
0
DICTIONARY
5
17
100
AcDbDictionary
0
ENDSEC
0
EOF
