0
SECTION
2
HEADER
9
$INSUNITS
70
4
9
$ACADVER
1
AC1014
9
$HANDSEED
5
FFFF
0
ENDSEC
0
SECTION
2
TABLES
0
TABLE
2
VPORT
5
8
100
AcDbSymbolTable
0
ENDTAB
0
TABLE
2
LTYPE
5
5
100
AcDbSymbolTable
70
2
0
LTYPE
5
14
100
AcDbSymbolTableRecord
100
AcDbLinetypeTableRecord
2
BYBLOCK
70
0
0
LTYPE
5
15
100
AcDbSymbolTableRecord
100
AcDbLinetypeTableRecord
2
BYLAYER
70
0
0
ENDTAB
0
TABLE
2
LAYER
5
2
100
AcDbSymbolTable
70
3
0
LAYER
5
50
100
AcDbSymbolTableRecord
100
AcDbLayerTableRecord
2
0
70
0
6
CONTINUOUS
0
LAYER
5
51
100
AcDbSymbolTableRecord
100
AcDbLayerTableRecord
2
CUTOUTS
70
0
62
1
6
CONTINUOUS
0
LAYER
5
52
100
AcDbSymbolTableRecord
100
AcDbLayerTableRecord
2
PERIMETER
70
0
62
5
6
CONTINUOUS
0
ENDTAB
0
TABLE
2
STYLE
5
3
100
AcDbSymbolTable
70
1
0
STYLE
5
11
100
AcDbSymbolTableRecord
100
AcDbTextStyleTableRecord
2
STANDARD
70
0
0
ENDTAB
0
TABLE
2
VIEW
5
6
100
AcDbSymbolTable
0
ENDTAB
0
TABLE
2
UCS
5
7
100
AcDbSymbolTable
0
ENDTAB
0
TABLE
2
APPID
5
9
100
AcDbSymbolTable
70
1
0
APPID
5
12
100
AcDbSymbolTableRecord
100
AcDbRegAppTableRecord
2
ACAD
70
0
0
ENDTAB
0
TABLE
2
DIMSTYLE
5
A
100
AcDbSymbolTable
0
ENDTAB
0
TABLE
2
BLOCK_RECORD
5
1
100
AcDbSymbolTable
70
2
0
BLOCK_RECORD
5
1F
100
AcDbSymbolTableRecord
100
AcDbBlockTableRecord
2
*MODEL_SPACE
0
BLOCK_RECORD
5
1B
100
AcDbSymbolTableRecord
100
AcDbBlockTableRecord
2
*PAPER_SPACE
0
ENDTAB
0
ENDSEC
0
SECTION
2
BLOCKS
0
BLOCK
5
20
100
AcDbEntity
100
AcDbBlockBegin
2
*MODEL_SPACE
0
ENDBLK
5
21
100
AcDbEntity
100
AcDbBlockEnd
0
BLOCK
5
1C
100
AcDbEntity
100
AcDbBlockBegin
2
*PAPER_SPACE
0
ENDBLK
5
1D
100
AcDbEntity
100
AcDbBlockEnd
0
ENDSEC
0
SECTION
2
ENTITIES
0
CIRCLE
5
100
100
AcDbEntity
8
CUTOUTS
100
AcDbCircle
10
137.50000000000006
20
242.37499999999997
30
0
40
3.3000000000000007
210
0
220
0
230
1
0
CIRCLE
5
101
100
AcDbEntity
8
CUTOUTS
100
AcDbCircle
10
-217.50000000000006
20
242.37499999999986
30
0
40
3.2999999999999829
210
0
220
0
230
1
0
CIRCLE
5
102
100
AcDbEntity
8
CUTOUTS
100
AcDbCircle
10
-230.50000000000006
20
2.3749999999999716
30
0
40
3.2999999999999829
210
0
220
0
230
1
0
CIRCLE
5
103
100
AcDbEntity
8
CUTOUTS
100
AcDbCircle
10
-217.49999999999974
20
-237.62500000000017
30
0
40
3.2999999999999829
210
0
220
0
230
1
0
CIRCLE
5
104
100
AcDbEntity
8
CUTOUTS
100
AcDbCircle
10
137.50000000000003
20
-237.62500000000003
30
0
40
3.3000000000000007
210
0
220
0
230
1
0
CIRCLE
5
105
100
AcDbEntity
8
CUTOUTS
100
AcDbCircle
10
227.50000000000003
20
17.374999999999972
30
0
40
3.2999999999999829
210
0
220
0
230
1
0
CIRCLE
5
106
100
AcDbEntity
8
CUTOUTS
100
AcDbCircle
10
227.50000000000006
20
182.37499999999994
30
0
40
3.2999999999999829
210
0
220
0
230
1
0
CIRCLE
5
107
100
AcDbEntity
8
CUTOUTS
100
AcDbCircle
10
227.49999999999997
20
-147.62499999999994
30
0
40
3.2999999999999829
210
0
220
0
230
1
0
CIRCLE
5
108
100
AcDbEntity
8
CUTOUTS
100
AcDbCircle
10
-40.000000000000036
20
-237.62500000000011
30
0
40
3.3000000000000007
210
0
220
0
230
1
0
CIRCLE
5
109
100
AcDbEntity
8
CUTOUTS
100
AcDbCircle
10
-230.50000000000006
20
-197.6250000000004
30
0
40
3.2999999999999829
210
0
220
0
230
1
0
CIRCLE
5
10A
100
AcDbEntity
8
CUTOUTS
100
AcDbCircle
10
-230.50000000000009
20
207.3749999999998
30
0
40
3.2999999999999829
210
0
220
0
230
1
0
CIRCLE
5
10B
100
AcDbEntity
8
CUTOUTS
100
AcDbCircle
10
-40.000000000000071
20
242.37499999999983
30
0
40
3.3000000000000007
210
0
220
0
230
1
0
LINE
5
10C
100
AcDbEntity
8
PERIMETER
100
AcDbLine
10
-72.517766952966355
20
230.62499999999994
30
0
11
-91.482233047033617
21
230.62499999999994
31
0
0
ARC
5
10D
100
AcDbEntity
8
PERIMETER
100
AcDbCircle
10
-91.482233047033617
20
232.62499999999991
30
0
40
1.999999999999996
210
0
220
0
230
1
100
AcDbArc
50
225
51
270
0
LINE
5
10E
100
AcDbEntity
8
PERIMETER
100
AcDbLine
10
-92.896446609406695
20
231.21078643762684
30
0
11
-113.72487373415289
21
252.03921356237305
31
0
0
ARC
5
10F
100
AcDbEntity
8
PERIMETER
100
AcDbCircle
10
-115.13908729652599
20
250.62499999999997
30
0
40
1.999999999999996
210
0
220
-0
230
1
100
AcDbArc
50
44.999999999999709
51
90.000000000000398
0
LINE
5
110
100
AcDbEntity
8
PERIMETER
100
AcDbLine
10
-115.13908729652599
20
252.62499999999994
30
0
11
-142.36091270347413
21
252.625
31
0
0
ARC
5
111
100
AcDbEntity
8
PERIMETER
100
AcDbCircle
10
-142.36091270347413
20
250.625
30
0
40
1.9999999999999574
210
0
220
-0
230
1
100
AcDbArc
50
90
51
135.00000000000117
0
LINE
5
112
100
AcDbEntity
8
PERIMETER
100
AcDbLine
10
-143.77512626584723
20
252.03921356237305
30
0
11
-164.60355339059333
21
231.21078643762689
31
0
0
ARC
5
113
100
AcDbEntity
8
PERIMETER
100
AcDbCircle
10
-166.01776695296644
20
232.625
30
0
40
1.9999999999999929
210
-0
220
0
230
1
100
AcDbArc
50
270
51
315
0
LINE
5
114
100
AcDbEntity
8
PERIMETER
100
AcDbLine
10
-166.01776695296644
20
230.625
30
0
11
-184.98223304703373
21
230.625
31
0
0
ARC
5
115
100
AcDbEntity
8
PERIMETER
100
AcDbCircle
10
-184.98223304703373
20
232.625
30
0
40
1.999999999999996
210
0
220
0
230
1
100
AcDbArc
50
225
51
270
0
LINE
5
116
100
AcDbEntity
8
PERIMETER
100
AcDbLine
10
-186.39644660940684
20
231.21078643762689
30
0
11
-207.22487373415291
21
252.03921356237311
31
0
0
ARC
5
117
100
AcDbEntity
8
PERIMETER
100
AcDbCircle
10
-208.63908729652599
20
250.62500000000006
30
0
40
1.9999999999999207
210
0
220
-0
230
1
100
AcDbArc
50
45
51
90.000000000001634
0
LINE
5
118
100
AcDbEntity
8
PERIMETER
100
AcDbLine
10
-208.63908729652604
20
252.625
30
0
11
-229.00000000000011
21
252.62500000000017
31
0
0
ARC
5
119
100
AcDbEntity
8
PERIMETER
100
AcDbCircle
10
-229.00000000000011
20
250.62500000000014
30
0
40
1.9999999999999929
210
0
220
-0
230
1
100
AcDbArc
50
90
51
180
0
LINE
5
11A
100
AcDbEntity
8
PERIMETER
100
AcDbLine
10
-231.00000000000011
20
250.62500000000014
30
0
11
-231.00000000000009
21
227.68401699437479
31
0
0
ARC
5
11B
100
AcDbEntity
8
PERIMETER
100
AcDbCircle
10
-233.00000000000009
20
227.68401699437479
30
0
40
2.0000000000000098
210
-0
220
0
230
1
100
AcDbArc
50
-63.43494882292201
51
0
0
LINE
5
11C
100
AcDbEntity
8
PERIMETER
100
AcDbLine
10
-232.10557280900017
20
225.89516261237497
30
0
11
-241.39442719100001
21
221.25073542137503
31
0
0
ARC
5
11D
100
AcDbEntity
8
PERIMETER
100
AcDbCircle
10
-240.50000000000006
20
219.46188103937516
30
0
40
2.0000000000000258
210
0
220
0
230
1
100
AcDbArc
50
116.56505117707873
51
180
0
LINE
5
11E
100
AcDbEntity
8
PERIMETER
100
AcDbLine
10
-242.50000000000006
20
219.46188103937519
30
0
11
-242.50000000000006
21
198.20342712474672
31
0
0
ARC
5
11F
100
AcDbEntity
8
PERIMETER
100
AcDbCircle
10
-240.49999999999969
20
198.2034271247469
30
0
40
2.0000000000003837
210
0
220
0
230
1
100
AcDbArc
50
180
51
224.99999999999366
0
LINE
5
120
100
AcDbEntity
8
PERIMETER
100
AcDbLine
10
-241.91421356237322
20
196.7892135623737
30
0
11
-220.08578643750809
21
174.96078643750721
31
0
0
ARC
5
121
100
AcDbEntity
8
PERIMETER
100
AcDbCircle
10
-221.49999999988123
20
173.54657287513416
30
0
40
1.9999999999999929
210
-0
220
0
230
1
100
AcDbArc
50
0
51
44.999999999998273
0
LINE
5
122
100
AcDbEntity
8
PERIMETER
100
AcDbLine
10
-219.49999999988123
20
173.54657287513385
30
0
11
-219.49999999990217
21
36.203427124843763
31
0
0
ARC
5
123
100
AcDbEntity
8
PERIMETER
100
AcDbCircle
10
-221.49999999990217
20
36.203427124844083
30
0
40
2.0000000000000213
210
-0
220
0
230
1
100
AcDbArc
50
315.00000000000028
51
360
0
LINE
5
124
100
AcDbEntity
8
PERIMETER
100
AcDbLine
10
-220.08578643752907
20
34.789213562470991
30
0
11
-241.91421356237305
21
12.960786437626837
31
0
0
ARC
5
125
100
AcDbEntity
8
PERIMETER
100
AcDbCircle
10
-240.49999999999989
20
11.546572875253815
30
0
40
1.999999999999996
210
0
220
0
230
1
100
AcDbArc
50
135.0000000000029
51
180
0
LINE
5
126
100
AcDbEntity
8
PERIMETER
100
AcDbLine
10
-242.49999999999989
20
11.54657287525378
30
0
11
-242.49999999999994
21
-6.7965728752538013
31
0
0
ARC
5
127
100
AcDbEntity
8
PERIMETER
100
AcDbCircle
10
-240.49999999999983
20
-6.7965728752537302
30
0
40
2.0000000000000995
210
0
220
0
230
1
100
AcDbArc
50
180
51
224.99999999999872
0
LINE
5
128
100
AcDbEntity
8
PERIMETER
100
AcDbLine
10
-241.91421356237302
20
-8.210786437626858
30
0
11
-220.08578643753947
21
-30.039213562460567
31
0
0
ARC
5
129
100
AcDbEntity
8
PERIMETER
100
AcDbCircle
10
-221.49999999991255
20
-31.453427124833659
30
0
40
1.9999999999999929
210
-0
220
0
230
1
100
AcDbArc
50
0
51
45.00000000000022
0
LINE
5
12A
100
AcDbEntity
8
PERIMETER
100
AcDbLine
10
-219.49999999991257
20
-31.453427124833979
30
0
11
-219.49999999993278
21
-163.79657287518745
31
0
0
ARC
5
12B
100
AcDbEntity
8
PERIMETER
100
AcDbCircle
10
-221.49999999993275
20
-163.79657287518717
30
0
40
1.999999999999996
210
-0
220
0
230
1
100
AcDbArc
50
314.99999999999943
51
360
0
LINE
5
12C
100
AcDbEntity
8
PERIMETER
100
AcDbLine
10
-220.08578643755968
20
-165.21078643756027
30
0
11
-241.91421356237294
21
-187.03921356237345
31
0
0
ARC
5
12D
100
AcDbEntity
8
PERIMETER
100
AcDbCircle
10
-240.49999999999997
20
-188.45342712474647
30
0
40
1.9999999999998455
210
0
220
0
230
1
100
AcDbArc
50
134.99999999999886
51
180
0
LINE
5
12E
100
AcDbEntity
8
PERIMETER
100
AcDbLine
10
-242.49999999999983
20
-188.45342712474655
30
0
11
-242.49999999999977
21
-209.67525253169455
31
0
0
ARC
5
12F
100
AcDbEntity
8
PERIMETER
100
AcDbCircle
10
-240.49999999999983
20
-209.67525253169464
30
0
40
1.9999999999999574
210
0
220
0
230
1
100
AcDbArc
50
180
51
224.99999999999883
0
LINE
5
130
100
AcDbEntity
8
PERIMETER
100
AcDbLine
10
-241.91421356237294
20
-211.08946609406763
30
0
11
-231.58578643762695
21
-221.41789321881362
31
0
0
ARC
5
131
100
AcDbEntity
8
PERIMETER
100
AcDbCircle
10
-233
20
-222.83210678118672
30
0
40
1.9999999999999929
210
0
220
-0
230
1
100
AcDbArc
50
0
51
45.000000000001151
0
LINE
5
132
100
AcDbEntity
8
PERIMETER
100
AcDbLine
10
-231
20
-222.83210678118672
30
0
11
-230.99999999999991
21
-250.62500000000014
31
0
0
ARC
5
133
100
AcDbEntity
8
PERIMETER
100
AcDbCircle
10
-229
20
-250.62500000000023
30
0
40
1.9999999999999218
210
0
220
0
230
1
100
AcDbArc
50
180
51
270
0
LINE
5
134
100
AcDbEntity
8
PERIMETER
100
AcDbLine
10
-229
20
-252.62500000000017
30
0
11
148.99999999999991
21
-252.62500000000017
31
0
0
ARC
5
135
100
AcDbEntity
8
PERIMETER
100
AcDbCircle
10
148.99999999999991
20
-250.62500000000023
30
0
40
1.9999999999999574
210
-0
220
0
230
1
100
AcDbArc
50
-90
51
0
0
LINE
5
136
100
AcDbEntity
8
PERIMETER
100
AcDbLine
10
150.99999999999989
20
-250.62500000000014
30
0
11
150.99999999999991
21
-222.8321067811865
31
0
0
ARC
5
137
100
AcDbEntity
8
PERIMETER
100
AcDbCircle
10
152.99999999999989
20
-222.8321067811865
30
0
40
1.999999999999996
210
0
220
0
230
1
100
AcDbArc
50
134.99999999999943
51
180
0
LINE
5
138
100
AcDbEntity
8
PERIMETER
100
AcDbLine
10
151.58578643762681
20
-221.41789321881339
30
0
11
211.29289321881339
21
-161.71078643762698
31
0
0
ARC
5
139
100
AcDbEntity
8
PERIMETER
100
AcDbCircle
10
212.70710678118644
20
-163.12500000000006
30
0
40
2.0000000000000284
210
0
220
-0
230
1
100
AcDbArc
50
90
51
135
0
LINE
5
13A
100
AcDbEntity
8
PERIMETER
100
AcDbLine
10
212.70710678118644
20
-161.12500000000006
30
0
11
240.5
21
-161.12499999999997
31
0
0
ARC
5
13B
100
AcDbEntity
8
PERIMETER
100
AcDbCircle
10
240.49999999999997
20
-159.12499999999994
30
0
40
2.0000000000000284
210
-0
220
0
230
1
100
AcDbArc
50
-89.99999999999919
51
0
0
LINE
5
13C
100
AcDbEntity
8
PERIMETER
100
AcDbLine
10
242.5
20
-159.12499999999994
30
0
11
242.50000000000006
21
193.87499999999994
31
0
0
ARC
5
13D
100
AcDbEntity
8
PERIMETER
100
AcDbCircle
10
240.50000000000009
20
193.87499999999991
30
0
40
1.9999999999999929
210
0
220
-0
230
1
100
AcDbArc
50
0
51
90
0
LINE
5
13E
100
AcDbEntity
8
PERIMETER
100
AcDbLine
10
240.50000000000009
20
195.87499999999991
30
0
11
212.61803398874997
21
195.87499999999991
31
0
0
ARC
5
13F
100
AcDbEntity
8
PERIMETER
100
AcDbCircle
10
212.61803398874997
20
197.87499999999994
30
0
40
2.0000000000000098
210
0
220
0
230
1
100
AcDbArc
50
243.43494882292202
51
270
0
LINE
5
140
100
AcDbEntity
8
PERIMETER
100
AcDbLine
10
211.72360679775005
20
196.0861456180001
30
0
11
152.10557280900019
21
225.89516261237509
31
0
0
ARC
5
141
100
AcDbEntity
8
PERIMETER
100
AcDbCircle
10
153.00000000000011
20
227.6840169943749
30
0
40
1.9999999999999929
210
0
220
0
230
1
100
AcDbArc
50
180
51
243.43494882292165
0
LINE
5
142
100
AcDbEntity
8
PERIMETER
100
AcDbLine
10
151.00000000000011
20
227.6840169943749
30
0
11
151.00000000000011
21
250.62500000000011
31
0
0
ARC
5
143
100
AcDbEntity
8
PERIMETER
100
AcDbCircle
10
149.00000000000011
20
250.62500000000011
30
0
40
1.9999999999999929
210
-0
220
0
230
1
100
AcDbArc
50
0
51
90
0
LINE
5
144
100
AcDbEntity
8
PERIMETER
100
AcDbLine
10
149.00000000000011
20
252.62500000000011
30
0
11
128.6390872965261
21
252.625
31
0
0
ARC
5
145
100
AcDbEntity
8
PERIMETER
100
AcDbCircle
10
128.6390872965261
20
250.62499999999997
30
0
40
2.0000000000000284
210
0
220
-0
230
1
100
AcDbArc
50
90
51
135.00000000000085
0
LINE
5
146
100
AcDbEntity
8
PERIMETER
100
AcDbLine
10
127.22487373415298
20
252.03921356237305
30
0
11
106.39644660940681
21
231.21078643762687
31
0
0
ARC
5
147
100
AcDbEntity
8
PERIMETER
100
AcDbCircle
10
104.98223304703372
20
232.625
30
0
40
1.9999999999999929
210
-0
220
0
230
1
100
AcDbArc
50
270
51
314.99999999999972
0
LINE
5
148
100
AcDbEntity
8
PERIMETER
100
AcDbLine
10
104.98223304703372
20
230.625
30
0
11
86.017766952966426
21
230.625
31
0
0
ARC
5
149
100
AcDbEntity
8
PERIMETER
100
AcDbCircle
10
86.017766952966426
20
232.625
30
0
40
1.999999999999996
210
0
220
0
230
1
100
AcDbArc
50
225.00000000000028
51
270
0
LINE
5
14A
100
AcDbEntity
8
PERIMETER
100
AcDbLine
10
84.603553390593333
20
231.21078643762689
30
0
11
63.775126265847213
21
252.03921356237305
31
0
0
ARC
5
14B
100
AcDbEntity
8
PERIMETER
100
AcDbCircle
10
62.360912703474121
20
250.62499999999997
30
0
40
1.999999999999996
210
0
220
-0
230
1
100
AcDbArc
50
44.999999999999709
51
90
0
LINE
5
14C
100
AcDbEntity
8
PERIMETER
100
AcDbLine
10
62.360912703474121
20
252.62499999999994
30
0
11
35.139087296526021
21
252.62499999999989
31
0
0
ARC
5
14D
100
AcDbEntity
8
PERIMETER
100
AcDbCircle
10
35.139087296526029
20
250.62499999999989
30
0
40
1.9999999999999929
210
0
220
0
230
1
100
AcDbArc
50
90.000000000000199
51
135
0
LINE
5
14E
100
AcDbEntity
8
PERIMETER
100
AcDbLine
10
33.724873734152922
20
252.03921356237299
30
0
11
12.896446609406738
21
231.21078643762678
31
0
0
ARC
5
14F
100
AcDbEntity
8
PERIMETER
100
AcDbCircle
10
11.482233047033645
20
232.62499999999989
30
0
40
1.9999999999999929
210
-0
220
0
230
1
100
AcDbArc
50
270
51
314.99999999999972
0
LINE
5
150
100
AcDbEntity
8
PERIMETER
100
AcDbLine
10
11.482233047033645
20
230.62499999999989
30
0
11
-7.482233047033624
21
230.62499999999989
31
0
0
ARC
5
151
100
AcDbEntity
8
PERIMETER
100
AcDbCircle
10
-7.482233047033624
20
232.62499999999991
30
0
40
1.9999999999999993
210
0
220
0
230
1
100
AcDbArc
50
224.99999999999963
51
270
0
LINE
5
152
100
AcDbEntity
8
PERIMETER
100
AcDbLine
10
-8.8964466094067198
20
231.21078643762678
30
0
11
-29.724873734152904
21
252.03921356237299
31
0
0
ARC
5
153
100
AcDbEntity
8
PERIMETER
100
AcDbCircle
10
-31.139087296526014
20
250.62499999999989
30
0
40
2.0000000000000084
210
0
220
-0
230
1
100
AcDbArc
50
44.999999999999922
51
89.999999999999801
0
LINE
5
154
100
AcDbEntity
8
PERIMETER
100
AcDbLine
10
-31.139087296526014
20
252.62499999999991
30
0
11
-48.860912703473993
21
252.62499999999991
31
0
0
ARC
5
155
100
AcDbEntity
8
PERIMETER
100
AcDbCircle
10
-48.860912703473993
20
250.62499999999994
30
0
40
1.9999999999999929
210
0
220
-0
230
1
100
AcDbArc
50
90
51
135.00000000000043
0
LINE
5
156
100
AcDbEntity
8
PERIMETER
100
AcDbLine
10
-50.275126265847092
20
252.03921356237302
30
0
11
-71.103553390593262
21
231.21078643762684
31
0
0
ARC
5
157
100
AcDbEntity
8
PERIMETER
100
AcDbCircle
10
-72.517766952966355
20
232.62499999999991
30
0
40
1.9999999999999929
210
-0
220
0
230
1
100
AcDbArc
50
270
51
315.00000000000028
0
ENDSEC
0
SECTION
2
OBJECTS
0
DICTIONARY
5
C
100
AcDbDictionary
3
ACAD_GROUP
350
D
3
ACAD_MLINESTYLE
350
17
0
DICTIONARY
5
D
100
AcDbDictionary
0
DICTIONARY
5
1A
330
C
100
AcDbDictionary
0
DICTIONARY
5
17
100
AcDbDictionary
0
ENDSEC
0
EOF
