0
SECTION
2
HEADER
9
$INSUNITS
70
4
9
$ACADVER
1
AC1014
9
$HANDSEED
5
FFFF
0
ENDSEC
0
SECTION
2
TABLES
0
TABLE
2
VPORT
5
8
100
AcDbSymbolTable
0
ENDTAB
0
TABLE
2
LTYPE
5
5
100
AcDbSymbolTable
70
2
0
LTYPE
5
14
100
AcDbSymbolTableRecord
100
AcDbLinetypeTableRecord
2
BYBLOCK
70
0
0
LTYPE
5
15
100
AcDbSymbolTableRecord
100
AcDbLinetypeTableRecord
2
BYLAYER
70
0
0
ENDTAB
0
TABLE
2
LAYER
5
2
100
AcDbSymbolTable
70
3
0
LAYER
5
50
100
AcDbSymbolTableRecord
100
AcDbLayerTableRecord
2
0
70
0
6
CONTINUOUS
0
LAYER
5
51
100
AcDbSymbolTableRecord
100
AcDbLayerTableRecord
2
CUTOUTS
70
0
62
1
6
CONTINUOUS
0
LAYER
5
52
100
AcDbSymbolTableRecord
100
AcDbLayerTableRecord
2
PERIMETER
70
0
62
5
6
CONTINUOUS
0
ENDTAB
0
TABLE
2
STYLE
5
3
100
AcDbSymbolTable
70
1
0
STYLE
5
11
100
AcDbSymbolTableRecord
100
AcDbTextStyleTableRecord
2
STANDARD
70
0
0
ENDTAB
0
TABLE
2
VIEW
5
6
100
AcDbSymbolTable
0
ENDTAB
0
TABLE
2
UCS
5
7
100
AcDbSymbolTable
0
ENDTAB
0
TABLE
2
APPID
5
9
100
AcDbSymbolTable
70
1
0
APPID
5
12
100
AcDbSymbolTableRecord
100
AcDbRegAppTableRecord
2
ACAD
70
0
0
ENDTAB
0
TABLE
2
DIMSTYLE
5
A
100
AcDbSymbolTable
0
ENDTAB
0
TABLE
2
BLOCK_RECORD
5
1
100
AcDbSymbolTable
70
2
0
BLOCK_RECORD
5
1F
100
AcDbSymbolTableRecord
100
AcDbBlockTableRecord
2
*MODEL_SPACE
0
BLOCK_RECORD
5
1B
100
AcDbSymbolTableRecord
100
AcDbBlockTableRecord
2
*PAPER_SPACE
0
ENDTAB
0
ENDSEC
0
SECTION
2
BLOCKS
0
BLOCK
5
20
100
AcDbEntity
100
AcDbBlockBegin
2
*MODEL_SPACE
0
ENDBLK
5
21
100
AcDbEntity
100
AcDbBlockEnd
0
BLOCK
5
1C
100
AcDbEntity
100
AcDbBlockBegin
2
*PAPER_SPACE
0
ENDBLK
5
1D
100
AcDbEntity
100
AcDbBlockEnd
0
ENDSEC
0
SECTION
2
ENTITIES
0
CIRCLE
5
100
100
AcDbEntity
8
CUTOUTS
100
AcDbCircle
10
-68.375000000007716
20
252.50000000000671
30
0
40
3.2249999999999979
210
0
220
0
230
1
0
CIRCLE
5
101
100
AcDbEntity
8
CUTOUTS
100
AcDbCircle
10
-235.00000000000801
20
-1.2184031084899773e-12
30
0
40
3.2250000000000156
210
0
220
0
230
1
0
CIRCLE
5
102
100
AcDbEntity
8
CUTOUTS
100
AcDbCircle
10
129.99999999999221
20
-252.50000000000102
30
0
40
3.2249999999999979
210
0
220
0
230
1
0
CIRCLE
5
103
100
AcDbEntity
8
CUTOUTS
100
AcDbCircle
10
-130.00000000000784
20
-252.50000000000125
30
0
40
3.2249999999999979
210
0
220
0
230
1
0
CIRCLE
5
104
100
AcDbEntity
8
CUTOUTS
100
AcDbCircle
10
234.99999999999199
20
147.49999999999832
30
0
40
3.2250000000000156
210
0
220
0
230
1
0
CIRCLE
5
105
100
AcDbEntity
8
CUTOUTS
100
AcDbCircle
10
-235.00000000000779
20
147.49999999999881
30
0
40
3.2250000000000156
210
0
220
0
230
1
0
CIRCLE
5
106
100
AcDbEntity
8
CUTOUTS
100
AcDbCircle
10
-235.00000000000779
20
-147.50000000000119
30
0
40
3.2250000000000156
210
0
220
0
230
1
0
CIRCLE
5
107
100
AcDbEntity
8
CUTOUTS
100
AcDbCircle
10
-8.0598844043281049e-12
20
-252.50000000000128
30
0
40
3.2250000000000001
210
0
220
0
230
1
0
CIRCLE
5
108
100
AcDbEntity
8
CUTOUTS
100
AcDbCircle
10
234.99999999999193
20
-147.50000000000082
30
0
40
3.2250000000000156
210
0
220
0
230
1
0
CIRCLE
5
109
100
AcDbEntity
8
CUTOUTS
100
AcDbCircle
10
234.99999999999199
20
-1.6707343162341006e-12
30
0
40
3.2250000000000156
210
0
220
0
230
1
0
CIRCLE
5
10A
100
AcDbEntity
8
CUTOUTS
100
AcDbCircle
10
68.375000000054968
20
252.49999999999844
30
0
40
3.2249999999999979
210
0
220
0
230
1
0
LINE
5
10B
100
AcDbEntity
8
PERIMETER
100
AcDbLine
10
-159.5749999996228
20
-237.32793846858758
30
0
11
-159.57499999966475
21
-267.57499999995059
31
0
0
LINE
5
10C
100
AcDbEntity
8
PERIMETER
100
AcDbLine
10
-159.57499999966475
20
-267.57499999995059
30
0
11
159.57499999916803
21
-267.57499999960686
31
0
0
LINE
5
10D
100
AcDbEntity
8
PERIMETER
100
AcDbLine
10
159.57499999916803
20
-267.57499999960686
30
0
11
159.57499999933285
21
-237.32793846843489
31
0
0
LINE
5
10E
100
AcDbEntity
8
PERIMETER
100
AcDbLine
10
159.57499999933285
20
-237.32793846843489
30
0
11
219.82793846870297
21
-177.07499999965339
31
0
0
LINE
5
10F
100
AcDbEntity
8
PERIMETER
100
AcDbLine
10
219.82793846870297
20
-177.07499999965339
30
0
11
250.07500000000016
21
-177.07500000008096
31
0
0
LINE
5
110
100
AcDbEntity
8
PERIMETER
100
AcDbLine
10
250.07500000000016
20
-177.07500000008096
30
0
11
250.07499999993053
21
177.07500000028887
31
0
0
LINE
5
111
100
AcDbEntity
8
PERIMETER
100
AcDbLine
10
250.07499999993053
20
177.07500000028887
30
0
11
219.8279384686337
21
177.07500000003358
31
0
0
LINE
5
112
100
AcDbEntity
8
PERIMETER
100
AcDbLine
10
219.8279384686337
20
177.07500000003358
30
0
11
159.5749999999004
21
237.32793846865422
31
0
0
LINE
5
113
100
AcDbEntity
8
PERIMETER
100
AcDbLine
10
159.5749999999004
20
237.32793846865422
30
0
11
159.57500000004816
21
241.57500000006655
31
0
0
LINE
5
114
100
AcDbEntity
8
PERIMETER
100
AcDbLine
10
159.57500000004816
20
241.57500000006655
30
0
11
114.07499999978006
21
241.57499999998464
31
0
0
LINE
5
115
100
AcDbEntity
8
PERIMETER
100
AcDbLine
10
114.07499999978006
20
241.57499999998464
30
0
11
114.07500000007491
21
267.57499999998504
31
0
0
LINE
5
116
100
AcDbEntity
8
PERIMETER
100
AcDbLine
10
114.07500000007491
20
267.57499999998504
30
0
11
22.674999999984138
21
267.57499999999857
31
0
0
LINE
5
117
100
AcDbEntity
8
PERIMETER
100
AcDbLine
10
22.674999999984138
20
267.57499999999857
30
0
11
22.674999999984145
21
241.57499999999845
31
0
0
LINE
5
118
100
AcDbEntity
8
PERIMETER
100
AcDbLine
10
22.674999999984145
20
241.57499999999845
30
0
11
-22.675000000015846
21
241.57499999999845
31
0
0
LINE
5
119
100
AcDbEntity
8
PERIMETER
100
AcDbLine
10
-22.675000000015846
20
241.57499999999845
30
0
11
-22.675000000015846
21
267.57499999999874
31
0
0
LINE
5
11A
100
AcDbEntity
8
PERIMETER
100
AcDbLine
10
-22.675000000015846
20
267.57499999999874
30
0
11
-114.07500000001588
21
267.57499999999999
31
0
0
LINE
5
11B
100
AcDbEntity
8
PERIMETER
100
AcDbLine
10
-114.07500000001588
20
267.57499999999999
30
0
11
-114.07500000001588
21
241.57499999999845
31
0
0
LINE
5
11C
100
AcDbEntity
8
PERIMETER
100
AcDbLine
10
-114.07500000001588
20
241.57499999999845
30
0
11
-159.57500000001585
21
241.57499999999757
31
0
0
LINE
5
11D
100
AcDbEntity
8
PERIMETER
100
AcDbLine
10
-159.57500000001585
20
241.57499999999757
30
0
11
-159.57500000001585
21
237.32793846863348
31
0
0
LINE
5
11E
100
AcDbEntity
8
PERIMETER
100
AcDbLine
10
-159.57500000001585
20
237.32793846863348
30
0
11
-219.82793846865093
21
177.07499999999794
31
0
0
LINE
5
11F
100
AcDbEntity
8
PERIMETER
100
AcDbLine
10
-219.82793846865093
20
177.07499999999794
30
0
11
-250.07500000001596
21
177.0749999999978
31
0
0
LINE
5
120
100
AcDbEntity
8
PERIMETER
100
AcDbLine
10
-250.07500000001596
20
177.0749999999978
30
0
11
-250.07499999991924
21
-177.07500000006536
31
0
0
LINE
5
121
100
AcDbEntity
8
PERIMETER
100
AcDbLine
10
-250.07499999991924
20
-177.07500000006536
30
0
11
-219.82793846855452
21
-177.07500000002943
31
0
0
LINE
5
122
100
AcDbEntity
8
PERIMETER
100
AcDbLine
10
-219.82793846855452
20
-177.07500000002943
30
0
11
-159.5749999996228
21
-237.32793846858758
31
0
0
ENDSEC
0
SECTION
2
OBJECTS
0
DICTIONARY
5
C
100
AcDbDictionary
3
ACAD_GROUP
350
D
3
ACAD_MLINESTYLE
350
17
0
DICTIONARY
5
D
100
AcDbDictionary
0
DICTIONARY
5
1A
330
C
100
AcDbDictionary
0
DICTIONARY
5
17
100
AcDbDictionary
0
ENDSEC
0
EOF
