0
SECTION
2
HEADER
9
$INSUNITS
70
4
9
$ACADVER
1
AC1014
9
$HANDSEED
5
FFFF
0
ENDSEC
0
SECTION
2
TABLES
0
TABLE
2
VPORT
5
8
100
AcDbSymbolTable
0
ENDTAB
0
TABLE
2
LTYPE
5
5
100
AcDbSymbolTable
70
2
0
LTYPE
5
14
100
AcDbSymbolTableRecord
100
AcDbLinetypeTableRecord
2
BYBLOCK
70
0
0
LTYPE
5
15
100
AcDbSymbolTableRecord
100
AcDbLinetypeTableRecord
2
BYLAYER
70
0
0
ENDTAB
0
TABLE
2
LAYER
5
2
100
AcDbSymbolTable
70
3
0
LAYER
5
50
100
AcDbSymbolTableRecord
100
AcDbLayerTableRecord
2
0
70
0
6
CONTINUOUS
0
LAYER
5
51
100
AcDbSymbolTableRecord
100
AcDbLayerTableRecord
2
CUTOUTS
70
0
62
1
6
CONTINUOUS
0
LAYER
5
52
100
AcDbSymbolTableRecord
100
AcDbLayerTableRecord
2
PERIMETER
70
0
62
5
6
CONTINUOUS
0
ENDTAB
0
TABLE
2
STYLE
5
3
100
AcDbSymbolTable
70
1
0
STYLE
5
11
100
AcDbSymbolTableRecord
100
AcDbTextStyleTableRecord
2
STANDARD
70
0
0
ENDTAB
0
TABLE
2
VIEW
5
6
100
AcDbSymbolTable
0
ENDTAB
0
TABLE
2
UCS
5
7
100
AcDbSymbolTable
0
ENDTAB
0
TABLE
2
APPID
5
9
100
AcDbSymbolTable
70
1
0
APPID
5
12
100
AcDbSymbolTableRecord
100
AcDbRegAppTableRecord
2
ACAD
70
0
0
ENDTAB
0
TABLE
2
DIMSTYLE
5
A
100
AcDbSymbolTable
0
ENDTAB
0
TABLE
2
BLOCK_RECORD
5
1
100
AcDbSymbolTable
70
2
0
BLOCK_RECORD
5
1F
100
AcDbSymbolTableRecord
100
AcDbBlockTableRecord
2
*MODEL_SPACE
0
BLOCK_RECORD
5
1B
100
AcDbSymbolTableRecord
100
AcDbBlockTableRecord
2
*PAPER_SPACE
0
ENDTAB
0
ENDSEC
0
SECTION
2
BLOCKS
0
BLOCK
5
20
100
AcDbEntity
100
AcDbBlockBegin
2
*MODEL_SPACE
0
ENDBLK
5
21
100
AcDbEntity
100
AcDbBlockEnd
0
BLOCK
5
1C
100
AcDbEntity
100
AcDbBlockBegin
2
*PAPER_SPACE
0
ENDBLK
5
1D
100
AcDbEntity
100
AcDbBlockEnd
0
ENDSEC
0
SECTION
2
ENTITIES
0
CIRCLE
5
100
100
AcDbEntity
8
CUTOUTS
100
AcDbCircle
10
155.99999999999997
20
-229.74999999999997
30
0
40
3.2249999999999979
210
0
220
0
230
1
0
CIRCLE
5
101
100
AcDbEntity
8
CUTOUTS
100
AcDbCircle
10
-33
20
-229.74999999999997
30
0
40
3.2249999999999979
210
0
220
0
230
1
0
CIRCLE
5
102
100
AcDbEntity
8
CUTOUTS
100
AcDbCircle
10
-235
20
-150.75
30
0
40
3.2250000000000156
210
0
220
0
230
1
0
CIRCLE
5
103
100
AcDbEntity
8
CUTOUTS
100
AcDbCircle
10
235
20
162.25000000000006
30
0
40
3.2250000000000156
210
0
220
0
230
1
0
CIRCLE
5
104
100
AcDbEntity
8
CUTOUTS
100
AcDbCircle
10
-235
20
162.25000000000006
30
0
40
3.2250000000000156
210
0
220
0
230
1
0
CIRCLE
5
105
100
AcDbEntity
8
CUTOUTS
100
AcDbCircle
10
66.000000000000071
20
228.25000000000006
30
0
40
3.2249999999999979
210
0
220
0
230
1
0
CIRCLE
5
106
100
AcDbEntity
8
CUTOUTS
100
AcDbCircle
10
-169
20
228.25000000000006
30
0
40
3.2250000000000156
210
0
220
0
230
1
0
CIRCLE
5
107
100
AcDbEntity
8
CUTOUTS
100
AcDbCircle
10
-73.999999999999929
20
228.25
30
0
40
3.2249999999999979
210
0
220
0
230
1
0
CIRCLE
5
108
100
AcDbEntity
8
CUTOUTS
100
AcDbCircle
10
169
20
228.25000000000006
30
0
40
3.2250000000000156
210
0
220
0
230
1
0
CIRCLE
5
109
100
AcDbEntity
8
CUTOUTS
100
AcDbCircle
10
-235
20
-0.74999999999995737
30
0
40
3.2250000000000156
210
0
220
0
230
1
0
CIRCLE
5
10A
100
AcDbEntity
8
CUTOUTS
100
AcDbCircle
10
235
20
-0.74999999999995737
30
0
40
3.2250000000000156
210
0
220
0
230
1
0
CIRCLE
5
10B
100
AcDbEntity
8
CUTOUTS
100
AcDbCircle
10
-155.99999999999997
20
-229.74999999999997
30
0
40
3.2249999999999979
210
0
220
0
230
1
0
CIRCLE
5
10C
100
AcDbEntity
8
CUTOUTS
100
AcDbCircle
10
33
20
-229.74999999999997
30
0
40
3.2249999999999979
210
0
220
0
230
1
0
CIRCLE
5
10D
100
AcDbEntity
8
CUTOUTS
100
AcDbCircle
10
235
20
-150.75
30
0
40
3.2250000000000156
210
0
220
0
230
1
0
LINE
5
10E
100
AcDbEntity
8
PERIMETER
100
AcDbLine
10
249.07499999999999
20
-214.82499999999999
30
0
11
249.07499999999999
21
177.32500000000005
31
0
0
LINE
5
10F
100
AcDbEntity
8
PERIMETER
100
AcDbLine
10
249.07499999999999
20
177.32500000000005
30
0
11
220.07499999999999
21
177.32500000000005
31
0
0
LINE
5
110
100
AcDbEntity
8
PERIMETER
100
AcDbLine
10
220.07499999999999
20
177.32500000000005
30
0
11
220.07499999999999
21
213.32500000000007
31
0
0
LINE
5
111
100
AcDbEntity
8
PERIMETER
100
AcDbLine
10
220.07499999999999
20
213.32500000000007
30
0
11
184.07499999999999
21
213.32500000000007
31
0
0
LINE
5
112
100
AcDbEntity
8
PERIMETER
100
AcDbLine
10
184.07499999999999
20
213.32500000000007
30
0
11
184.07499999999999
21
242.32500000000005
31
0
0
LINE
5
113
100
AcDbEntity
8
PERIMETER
100
AcDbLine
10
184.07499999999999
20
242.32500000000005
30
0
11
50.925000000000082
21
242.32500000000005
31
0
0
LINE
5
114
100
AcDbEntity
8
PERIMETER
100
AcDbLine
10
50.925000000000082
20
242.32500000000005
30
0
11
50.925000000000068
21
213.32500000000007
31
0
0
LINE
5
115
100
AcDbEntity
8
PERIMETER
100
AcDbLine
10
50.925000000000068
20
213.32500000000007
30
0
11
19.425000000000132
21
213.32500000000007
31
0
0
LINE
5
116
100
AcDbEntity
8
PERIMETER
100
AcDbLine
10
19.425000000000132
20
213.32500000000007
30
0
11
19.425000000000136
21
165.78106601717803
31
0
0
LINE
5
117
100
AcDbEntity
8
PERIMETER
100
AcDbLine
10
19.425000000000136
20
165.78106601717803
30
0
11
11.468933982822094
21
157.82499999999999
31
0
0
LINE
5
118
100
AcDbEntity
8
PERIMETER
100
AcDbLine
10
11.468933982822094
20
157.82499999999999
30
0
11
-50.968933982821966
21
157.82499999999999
31
0
0
LINE
5
119
100
AcDbEntity
8
PERIMETER
100
AcDbLine
10
-50.968933982821966
20
157.82499999999999
30
0
11
-58.924999999999926
21
165.78106601717795
31
0
0
LINE
5
11A
100
AcDbEntity
8
PERIMETER
100
AcDbLine
10
-58.924999999999926
20
165.78106601717795
30
0
11
-58.924999999999926
21
242.32500000000005
31
0
0
LINE
5
11B
100
AcDbEntity
8
PERIMETER
100
AcDbLine
10
-58.924999999999926
20
242.32500000000005
30
0
11
-184.07499999999999
21
242.32500000000005
31
0
0
LINE
5
11C
100
AcDbEntity
8
PERIMETER
100
AcDbLine
10
-184.07499999999999
20
242.32500000000005
30
0
11
-184.07499999999999
21
213.32500000000007
31
0
0
LINE
5
11D
100
AcDbEntity
8
PERIMETER
100
AcDbLine
10
-184.07499999999999
20
213.32500000000007
30
0
11
-220.07499999999999
21
213.32500000000007
31
0
0
LINE
5
11E
100
AcDbEntity
8
PERIMETER
100
AcDbLine
10
-220.07499999999999
20
213.32500000000007
30
0
11
-220.07499999999999
21
177.32500000000005
31
0
0
LINE
5
11F
100
AcDbEntity
8
PERIMETER
100
AcDbLine
10
-220.07499999999999
20
177.32500000000005
30
0
11
-249.07499999999999
21
177.32500000000005
31
0
0
LINE
5
120
100
AcDbEntity
8
PERIMETER
100
AcDbLine
10
-249.07499999999999
20
177.32500000000005
30
0
11
-249.07499999999999
21
-214.82499999999999
31
0
0
LINE
5
121
100
AcDbEntity
8
PERIMETER
100
AcDbLine
10
-249.07499999999999
20
-214.82499999999999
30
0
11
-240.12500000000014
21
-214.82499999999999
31
0
0
LINE
5
122
100
AcDbEntity
8
PERIMETER
100
AcDbLine
10
-240.12500000000014
20
-214.82499999999999
30
0
11
-240.125
21
-175.94999999999999
31
0
0
ARC
5
123
100
AcDbEntity
8
PERIMETER
100
AcDbCircle
10
-235.00000000000003
20
-175.94999999999999
30
0
40
5.1249999999999574
210
0
220
-0
230
1
100
AcDbArc
50
0
51
180
0
LINE
5
124
100
AcDbEntity
8
PERIMETER
100
AcDbLine
10
-229.87500000000009
20
-175.94999999999999
30
0
11
-229.87500000000014
21
-214.82499999999999
31
0
0
LINE
5
125
100
AcDbEntity
8
PERIMETER
100
AcDbLine
10
-229.87500000000014
20
-214.82499999999999
30
0
11
-222.92500000000001
21
-214.82499999999999
31
0
0
LINE
5
126
100
AcDbEntity
8
PERIMETER
100
AcDbLine
10
-222.92500000000001
20
-214.82499999999999
30
0
11
-222.92500000000001
21
-170.82499999999999
31
0
0
LINE
5
127
100
AcDbEntity
8
PERIMETER
100
AcDbLine
10
-222.92500000000001
20
-170.82499999999999
30
0
11
-183.03106601717801
21
-170.82499999999999
31
0
0
LINE
5
128
100
AcDbEntity
8
PERIMETER
100
AcDbLine
10
-183.03106601717801
20
-170.82499999999999
30
0
11
-176.07500000000002
21
-177.78106601717795
31
0
0
LINE
5
129
100
AcDbEntity
8
PERIMETER
100
AcDbLine
10
-176.07500000000002
20
-177.78106601717795
30
0
11
-176.07500000000002
21
-217.67499999999998
31
0
0
LINE
5
12A
100
AcDbEntity
8
PERIMETER
100
AcDbLine
10
-176.07500000000002
20
-217.67499999999998
30
0
11
-220.07499999999999
21
-217.67499999999998
31
0
0
LINE
5
12B
100
AcDbEntity
8
PERIMETER
100
AcDbLine
10
-220.07499999999999
20
-217.67499999999998
30
0
11
-220.07499999999999
21
-224.625
31
0
0
LINE
5
12C
100
AcDbEntity
8
PERIMETER
100
AcDbLine
10
-220.07499999999999
20
-224.625
30
0
11
-181.19999999999993
21
-224.625
31
0
0
ARC
5
12D
100
AcDbEntity
8
PERIMETER
100
AcDbCircle
10
-181.19999999999993
20
-229.74999999999994
30
0
40
5.1249999999999574
210
-0
220
0
230
1
100
AcDbArc
50
-90
51
90
0
LINE
5
12E
100
AcDbEntity
8
PERIMETER
100
AcDbLine
10
-181.19999999999993
20
-234.87499999999989
30
0
11
-220.07499999999999
21
-234.87499999999997
31
0
0
LINE
5
12F
100
AcDbEntity
8
PERIMETER
100
AcDbLine
10
-220.07499999999999
20
-234.87499999999997
30
0
11
-220.07499999999999
21
-242.32499999999999
31
0
0
LINE
5
130
100
AcDbEntity
8
PERIMETER
100
AcDbLine
10
-220.07499999999999
20
-242.32499999999999
30
0
11
-24.968933982822037
21
-242.32499999999999
31
0
0
LINE
5
131
100
AcDbEntity
8
PERIMETER
100
AcDbLine
10
-24.968933982822037
20
-242.32499999999999
30
0
11
-17.925000000000001
21
-235.28106601717795
31
0
0
LINE
5
132
100
AcDbEntity
8
PERIMETER
100
AcDbLine
10
-17.925000000000001
20
-235.28106601717795
30
0
11
-17.925000000000001
21
-216.32499999999996
31
0
0
LINE
5
133
100
AcDbEntity
8
PERIMETER
100
AcDbLine
10
-17.925000000000001
20
-216.32499999999996
30
0
11
17.925000000000001
21
-216.32499999999996
31
0
0
LINE
5
134
100
AcDbEntity
8
PERIMETER
100
AcDbLine
10
17.925000000000001
20
-216.32499999999996
30
0
11
17.924999999999994
21
-235.28106601717795
31
0
0
LINE
5
135
100
AcDbEntity
8
PERIMETER
100
AcDbLine
10
17.924999999999994
20
-235.28106601717795
30
0
11
24.96893398282203
21
-242.32499999999999
31
0
0
LINE
5
136
100
AcDbEntity
8
PERIMETER
100
AcDbLine
10
24.96893398282203
20
-242.32499999999999
30
0
11
220.07499999999999
21
-242.32499999999999
31
0
0
LINE
5
137
100
AcDbEntity
8
PERIMETER
100
AcDbLine
10
220.07499999999999
20
-242.32499999999999
30
0
11
220.07499999999999
21
-234.87499999999997
31
0
0
LINE
5
138
100
AcDbEntity
8
PERIMETER
100
AcDbLine
10
220.07499999999999
20
-234.87499999999997
30
0
11
181.19999999999999
21
-234.87499999999997
31
0
0
ARC
5
139
100
AcDbEntity
8
PERIMETER
100
AcDbCircle
10
181.19999999999999
20
-229.75
30
0
40
5.1250000000000284
210
0
220
-0
230
1
100
AcDbArc
50
90
51
270
0
LINE
5
13A
100
AcDbEntity
8
PERIMETER
100
AcDbLine
10
181.19999999999999
20
-224.625
30
0
11
220.07499999999999
21
-224.625
31
0
0
LINE
5
13B
100
AcDbEntity
8
PERIMETER
100
AcDbLine
10
220.07499999999999
20
-224.625
30
0
11
220.07499999999999
21
-217.67499999999998
31
0
0
LINE
5
13C
100
AcDbEntity
8
PERIMETER
100
AcDbLine
10
220.07499999999999
20
-217.67499999999998
30
0
11
176.07500000000002
21
-217.67499999999998
31
0
0
LINE
5
13D
100
AcDbEntity
8
PERIMETER
100
AcDbLine
10
176.07500000000002
20
-217.67499999999998
30
0
11
176.07500000000002
21
-177.78106601717795
31
0
0
LINE
5
13E
100
AcDbEntity
8
PERIMETER
100
AcDbLine
10
176.07500000000002
20
-177.78106601717795
30
0
11
183.03106601717798
21
-170.82499999999999
31
0
0
LINE
5
13F
100
AcDbEntity
8
PERIMETER
100
AcDbLine
10
183.03106601717798
20
-170.82499999999999
30
0
11
222.92500000000001
21
-170.82499999999999
31
0
0
LINE
5
140
100
AcDbEntity
8
PERIMETER
100
AcDbLine
10
222.92500000000001
20
-170.82499999999999
30
0
11
222.92500000000001
21
-214.82499999999999
31
0
0
LINE
5
141
100
AcDbEntity
8
PERIMETER
100
AcDbLine
10
222.92500000000001
20
-214.82499999999999
30
0
11
229.87500000000014
21
-214.82499999999999
31
0
0
LINE
5
142
100
AcDbEntity
8
PERIMETER
100
AcDbLine
10
229.87500000000014
20
-214.82499999999999
30
0
11
229.875
21
-175.95000000000002
31
0
0
ARC
5
143
100
AcDbEntity
8
PERIMETER
100
AcDbCircle
10
235
20
-175.94999999999999
30
0
40
5.1249999999999929
210
0
220
-0
230
1
100
AcDbArc
50
0
51
180
0
LINE
5
144
100
AcDbEntity
8
PERIMETER
100
AcDbLine
10
240.125
20
-175.94999999999996
30
0
11
240.12500000000014
21
-214.82499999999999
31
0
0
LINE
5
145
100
AcDbEntity
8
PERIMETER
100
AcDbLine
10
240.12500000000014
20
-214.82499999999999
30
0
11
249.07499999999999
21
-214.82499999999999
31
0
0
ENDSEC
0
SECTION
2
OBJECTS
0
DICTIONARY
5
C
100
AcDbDictionary
3
ACAD_GROUP
350
D
3
ACAD_MLINESTYLE
350
17
0
DICTIONARY
5
D
100
AcDbDictionary
0
DICTIONARY
5
1A
330
C
100
AcDbDictionary
0
DICTIONARY
5
17
100
AcDbDictionary
0
ENDSEC
0
EOF
