0
SECTION
2
HEADER
9
$INSUNITS
70
4
9
$ACADVER
1
AC1014
9
$HANDSEED
5
FFFF
0
ENDSEC
0
SECTION
2
TABLES
0
TABLE
2
VPORT
5
8
100
AcDbSymbolTable
0
ENDTAB
0
TABLE
2
LTYPE
5
5
100
AcDbSymbolTable
70
2
0
LTYPE
5
14
100
AcDbSymbolTableRecord
100
AcDbLinetypeTableRecord
2
BYBLOCK
70
0
0
LTYPE
5
15
100
AcDbSymbolTableRecord
100
AcDbLinetypeTableRecord
2
BYLAYER
70
0
0
ENDTAB
0
TABLE
2
LAYER
5
2
100
AcDbSymbolTable
70
3
0
LAYER
5
50
100
AcDbSymbolTableRecord
100
AcDbLayerTableRecord
2
0
70
0
6
CONTINUOUS
0
LAYER
5
51
100
AcDbSymbolTableRecord
100
AcDbLayerTableRecord
2
CUTOUTS
70
0
62
1
6
CONTINUOUS
0
LAYER
5
52
100
AcDbSymbolTableRecord
100
AcDbLayerTableRecord
2
PERIMETER
70
0
62
5
6
CONTINUOUS
0
ENDTAB
0
TABLE
2
STYLE
5
3
100
AcDbSymbolTable
70
1
0
STYLE
5
11
100
AcDbSymbolTableRecord
100
AcDbTextStyleTableRecord
2
STANDARD
70
0
0
ENDTAB
0
TABLE
2
VIEW
5
6
100
AcDbSymbolTable
0
ENDTAB
0
TABLE
2
UCS
5
7
100
AcDbSymbolTable
0
ENDTAB
0
TABLE
2
APPID
5
9
100
AcDbSymbolTable
70
1
0
APPID
5
12
100
AcDbSymbolTableRecord
100
AcDbRegAppTableRecord
2
ACAD
70
0
0
ENDTAB
0
TABLE
2
DIMSTYLE
5
A
100
AcDbSymbolTable
0
ENDTAB
0
TABLE
2
BLOCK_RECORD
5
1
100
AcDbSymbolTable
70
2
0
BLOCK_RECORD
5
1F
100
AcDbSymbolTableRecord
100
AcDbBlockTableRecord
2
*MODEL_SPACE
0
BLOCK_RECORD
5
1B
100
AcDbSymbolTableRecord
100
AcDbBlockTableRecord
2
*PAPER_SPACE
0
ENDTAB
0
ENDSEC
0
SECTION
2
BLOCKS
0
BLOCK
5
20
100
AcDbEntity
100
AcDbBlockBegin
2
*MODEL_SPACE
0
ENDBLK
5
21
100
AcDbEntity
100
AcDbBlockEnd
0
BLOCK
5
1C
100
AcDbEntity
100
AcDbBlockBegin
2
*PAPER_SPACE
0
ENDBLK
5
1D
100
AcDbEntity
100
AcDbBlockEnd
0
ENDSEC
0
SECTION
2
ENTITIES
0
CIRCLE
5
100
100
AcDbEntity
8
CUTOUTS
100
AcDbCircle
10
4.2500000000003091
20
-105.74999999999845
30
0
40
3.5000000000000009
210
0
220
0
230
1
0
CIRCLE
5
101
100
AcDbEntity
8
CUTOUTS
100
AcDbCircle
10
-115.24999999999974
20
-75.749999999998451
30
0
40
3.4999999999999964
210
0
220
0
230
1
0
CIRCLE
5
102
100
AcDbEntity
8
CUTOUTS
100
AcDbCircle
10
-115.2499999999997
20
103.25000000000153
30
0
40
3.4999999999999964
210
0
220
0
230
1
0
CIRCLE
5
103
100
AcDbEntity
8
CUTOUTS
100
AcDbCircle
10
-115.24999999999977
20
13.75000000000151
30
0
40
3.4999999999999964
210
0
220
0
230
1
0
CIRCLE
5
104
100
AcDbEntity
8
CUTOUTS
100
AcDbCircle
10
-85.249999999999702
20
-105.74999999999845
30
0
40
3.4999999999999964
210
0
220
0
230
1
0
CIRCLE
5
105
100
AcDbEntity
8
CUTOUTS
100
AcDbCircle
10
93.750000000000313
20
-105.74999999999845
30
0
40
3.4999999999999964
210
0
220
0
230
1
0
CIRCLE
5
106
100
AcDbEntity
8
CUTOUTS
100
AcDbCircle
10
84.750000000000014
20
91.250000000000057
30
0
40
8.0000000000000071
210
0
220
0
230
1
0
CIRCLE
5
107
100
AcDbEntity
8
CUTOUTS
100
AcDbCircle
10
119.75
20
44.249999999999886
30
0
40
3.4999999999999964
210
0
220
0
230
1
0
CIRCLE
5
108
100
AcDbEntity
8
CUTOUTS
100
AcDbCircle
10
119.75
20
-55.750000000000114
30
0
40
3.4999999999999964
210
0
220
0
230
1
0
ARC
5
109
100
AcDbEntity
8
PERIMETER
100
AcDbCircle
10
128.25
20
-32.250000000000099
30
0
40
0.99999999999999645
210
0
220
-0
230
1
100
AcDbArc
50
0
51
90
0
LINE
5
10A
100
AcDbEntity
8
PERIMETER
100
AcDbLine
10
128.25
20
-31.250000000000107
30
0
11
111.25
21
-31.250000000000124
31
0
0
ARC
5
10B
100
AcDbEntity
8
PERIMETER
100
AcDbCircle
10
111.24999999999999
20
-29.250000000000131
30
0
40
1.9999999999999929
210
0
220
0
230
1
100
AcDbArc
50
180
51
270
0
LINE
5
10C
100
AcDbEntity
8
PERIMETER
100
AcDbLine
10
109.24999999999999
20
-29.250000000000131
30
0
11
109.25
21
17.749999999999897
31
0
0
ARC
5
10D
100
AcDbEntity
8
PERIMETER
100
AcDbCircle
10
111.25
20
17.749999999999897
30
0
40
1.9999999999999929
210
0
220
-0
230
1
100
AcDbArc
50
90
51
180
0
LINE
5
10E
100
AcDbEntity
8
PERIMETER
100
AcDbLine
10
111.25
20
19.74999999999989
30
0
11
128.25
21
19.74999999999989
31
0
0
ARC
5
10F
100
AcDbEntity
8
PERIMETER
100
AcDbCircle
10
128.25
20
20.749999999999869
30
0
40
0.99999999999997868
210
-0
220
0
230
1
100
AcDbArc
50
-90
51
0
0
LINE
5
110
100
AcDbEntity
8
PERIMETER
100
AcDbLine
10
129.24999999999997
20
20.749999999999869
30
0
11
129.25
21
67.749999999999901
31
0
0
ARC
5
111
100
AcDbEntity
8
PERIMETER
100
AcDbCircle
10
128.25
20
67.749999999999901
30
0
40
0.99999999999999645
210
0
220
-0
230
1
100
AcDbArc
50
0
51
90
0
LINE
5
112
100
AcDbEntity
8
PERIMETER
100
AcDbLine
10
128.25
20
68.749999999999886
30
0
11
111.25
21
68.749999999999872
31
0
0
ARC
5
113
100
AcDbEntity
8
PERIMETER
100
AcDbCircle
10
111.25
20
70.749999999999872
30
0
40
2.0000000000000107
210
0
220
0
230
1
100
AcDbArc
50
180
51
270
0
LINE
5
114
100
AcDbEntity
8
PERIMETER
100
AcDbLine
10
109.24999999999999
20
70.749999999999872
30
0
11
109.25
21
119.75000000000006
31
0
0
LINE
5
115
100
AcDbEntity
8
PERIMETER
100
AcDbLine
10
109.25
20
119.75000000000006
30
0
11
-129.24999999999986
21
119.75000000000006
31
0
0
LINE
5
116
100
AcDbEntity
8
PERIMETER
100
AcDbLine
10
-129.24999999999986
20
119.75000000000007
30
0
11
-129.24999999999997
21
-87.749999999999901
31
0
0
ARC
5
117
100
AcDbEntity
8
PERIMETER
100
AcDbCircle
10
-127.24999999999997
20
-87.749999999999901
30
0
40
1.9999999999999929
210
0
220
0
230
1
100
AcDbArc
50
180
51
270
0
LINE
5
118
100
AcDbEntity
8
PERIMETER
100
AcDbLine
10
-127.24999999999997
20
-89.749999999999886
30
0
11
-101.25
21
-89.749999999999929
31
0
0
ARC
5
119
100
AcDbEntity
8
PERIMETER
100
AcDbCircle
10
-101.25
20
-91.749999999999915
30
0
40
1.9999999999999929
210
0
220
-0
230
1
100
AcDbArc
50
0
51
90
0
LINE
5
11A
100
AcDbEntity
8
PERIMETER
100
AcDbLine
10
-99.25
20
-91.749999999999915
30
0
11
-99.249999999999972
21
-117.75000000000007
31
0
0
ARC
5
11B
100
AcDbEntity
8
PERIMETER
100
AcDbCircle
10
-97.249999999999972
20
-117.75000000000007
30
0
40
1.9999999999999929
210
0
220
0
230
1
100
AcDbArc
50
180
51
270
0
LINE
5
11C
100
AcDbEntity
8
PERIMETER
100
AcDbLine
10
-97.249999999999972
20
-119.75000000000007
30
0
11
109.25
21
-119.75
31
0
0
LINE
5
11D
100
AcDbEntity
8
PERIMETER
100
AcDbLine
10
109.25
20
-119.75
30
0
11
109.24999999999999
21
-82.749999999999972
31
0
0
ARC
5
11E
100
AcDbEntity
8
PERIMETER
100
AcDbCircle
10
111.74999999999999
20
-82.749999999999972
30
0
40
2.5
210
0
220
-0
230
1
100
AcDbArc
50
90
51
180
0
LINE
5
11F
100
AcDbEntity
8
PERIMETER
100
AcDbLine
10
111.74999999999999
20
-80.249999999999972
30
0
11
128.24999999999997
21
-80.250000000000114
31
0
0
ARC
5
120
100
AcDbEntity
8
PERIMETER
100
AcDbCircle
10
128.25
20
-79.250000000000128
30
0
40
0.99999999999997868
210
-0
220
0
230
1
100
AcDbArc
50
-90
51
0
0
LINE
5
121
100
AcDbEntity
8
PERIMETER
100
AcDbLine
10
129.24999999999997
20
-79.250000000000128
30
0
11
129.25
21
-32.250000000000099
31
0
0
ENDSEC
0
SECTION
2
OBJECTS
0
DICTIONARY
5
C
100
AcDbDictionary
3
ACAD_GROUP
350
D
3
ACAD_MLINESTYLE
350
17
0
DICTIONARY
5
D
100
AcDbDictionary
0
DICTIONARY
5
1A
330
C
100
AcDbDictionary
0
DICTIONARY
5
17
100
AcDbDictionary
0
ENDSEC
0
EOF
