0
SECTION
2
HEADER
9
$INSUNITS
70
4
9
$ACADVER
1
AC1014
9
$HANDSEED
5
FFFF
0
ENDSEC
0
SECTION
2
TABLES
0
TABLE
2
VPORT
5
8
100
AcDbSymbolTable
0
ENDTAB
0
TABLE
2
LTYPE
5
5
100
AcDbSymbolTable
70
2
0
LTYPE
5
14
100
AcDbSymbolTableRecord
100
AcDbLinetypeTableRecord
2
BYBLOCK
70
0
0
LTYPE
5
15
100
AcDbSymbolTableRecord
100
AcDbLinetypeTableRecord
2
BYLAYER
70
0
0
ENDTAB
0
TABLE
2
LAYER
5
2
100
AcDbSymbolTable
70
3
0
LAYER
5
50
100
AcDbSymbolTableRecord
100
AcDbLayerTableRecord
2
0
70
0
6
CONTINUOUS
0
LAYER
5
51
100
AcDbSymbolTableRecord
100
AcDbLayerTableRecord
2
CUTOUTS
70
0
62
1
6
CONTINUOUS
0
LAYER
5
52
100
AcDbSymbolTableRecord
100
AcDbLayerTableRecord
2
PERIMETER
70
0
62
5
6
CONTINUOUS
0
ENDTAB
0
TABLE
2
STYLE
5
3
100
AcDbSymbolTable
70
1
0
STYLE
5
11
100
AcDbSymbolTableRecord
100
AcDbTextStyleTableRecord
2
STANDARD
70
0
0
ENDTAB
0
TABLE
2
VIEW
5
6
100
AcDbSymbolTable
0
ENDTAB
0
TABLE
2
UCS
5
7
100
AcDbSymbolTable
0
ENDTAB
0
TABLE
2
APPID
5
9
100
AcDbSymbolTable
70
1
0
APPID
5
12
100
AcDbSymbolTableRecord
100
AcDbRegAppTableRecord
2
ACAD
70
0
0
ENDTAB
0
TABLE
2
DIMSTYLE
5
A
100
AcDbSymbolTable
0
ENDTAB
0
TABLE
2
BLOCK_RECORD
5
1
100
AcDbSymbolTable
70
2
0
BLOCK_RECORD
5
1F
100
AcDbSymbolTableRecord
100
AcDbBlockTableRecord
2
*MODEL_SPACE
0
BLOCK_RECORD
5
1B
100
AcDbSymbolTableRecord
100
AcDbBlockTableRecord
2
*PAPER_SPACE
0
ENDTAB
0
ENDSEC
0
SECTION
2
BLOCKS
0
BLOCK
5
20
100
AcDbEntity
100
AcDbBlockBegin
2
*MODEL_SPACE
0
ENDBLK
5
21
100
AcDbEntity
100
AcDbBlockEnd
0
BLOCK
5
1C
100
AcDbEntity
100
AcDbBlockBegin
2
*PAPER_SPACE
0
ENDBLK
5
1D
100
AcDbEntity
100
AcDbBlockEnd
0
ENDSEC
0
SECTION
2
ENTITIES
0
CIRCLE
5
100
100
AcDbEntity
8
CUTOUTS
100
AcDbCircle
10
177.50000000000006
20
115.00000000000007
30
0
40
3.2999999999999829
210
0
220
0
230
1
0
CIRCLE
5
101
100
AcDbEntity
8
CUTOUTS
100
AcDbCircle
10
-177.50000000000006
20
114.99999999999994
30
0
40
3.2999999999999829
210
0
220
0
230
1
0
CIRCLE
5
102
100
AcDbEntity
8
CUTOUTS
100
AcDbCircle
10
-190.50000000000006
20
-124.99999999999993
30
0
40
3.2999999999999829
210
0
220
0
230
1
0
CIRCLE
5
103
100
AcDbEntity
8
CUTOUTS
100
AcDbCircle
10
-177.49999999999974
20
-365.00000000000006
30
0
40
3.2999999999999829
210
0
220
0
230
1
0
CIRCLE
5
104
100
AcDbEntity
8
CUTOUTS
100
AcDbCircle
10
177.50000000000003
20
-364.99999999999994
30
0
40
3.2999999999999829
210
0
220
0
230
1
0
CIRCLE
5
105
100
AcDbEntity
8
CUTOUTS
100
AcDbCircle
10
267.50000000000006
20
-109.99999999999993
30
0
40
3.2999999999999829
210
0
220
0
230
1
0
CIRCLE
5
106
100
AcDbEntity
8
CUTOUTS
100
AcDbCircle
10
267.50000000000006
20
175
30
0
40
3.2999999999999829
210
0
220
0
230
1
0
CIRCLE
5
107
100
AcDbEntity
8
CUTOUTS
100
AcDbCircle
10
177.50000000000003
20
365
30
0
40
3.2999999999999829
210
0
220
0
230
1
0
CIRCLE
5
108
100
AcDbEntity
8
CUTOUTS
100
AcDbCircle
10
-177.50000000000006
20
364.99999999999994
30
0
40
3.2999999999999829
210
0
220
0
230
1
0
CIRCLE
5
109
100
AcDbEntity
8
CUTOUTS
100
AcDbCircle
10
-267.50000000000006
20
174.99999999999983
30
0
40
3.2999999999999829
210
0
220
0
230
1
0
CIRCLE
5
10A
100
AcDbEntity
8
CUTOUTS
100
AcDbCircle
10
-267.50000000000006
20
274.99999999999994
30
0
40
3.2999999999999829
210
0
220
0
230
1
0
CIRCLE
5
10B
100
AcDbEntity
8
CUTOUTS
100
AcDbCircle
10
-3.5527136788005009e-14
20
365
30
0
40
3.3000000000000003
210
0
220
0
230
1
0
CIRCLE
5
10C
100
AcDbEntity
8
CUTOUTS
100
AcDbCircle
10
267.5
20
274.99999999999994
30
0
40
3.2999999999999829
210
0
220
0
230
1
0
CIRCLE
5
10D
100
AcDbEntity
8
CUTOUTS
100
AcDbCircle
10
267.50000000000006
20
55.000000000000036
30
0
40
3.2999999999999829
210
0
220
0
230
1
0
CIRCLE
5
10E
100
AcDbEntity
8
CUTOUTS
100
AcDbCircle
10
267.49999999999994
20
-274.99999999999989
30
0
40
3.2999999999999829
210
0
220
0
230
1
0
CIRCLE
5
10F
100
AcDbEntity
8
CUTOUTS
100
AcDbCircle
10
-3.5527136788005009e-14
20
-365
30
0
40
3.3000000000000003
210
0
220
0
230
1
0
CIRCLE
5
110
100
AcDbEntity
8
CUTOUTS
100
AcDbCircle
10
-190.50000000000006
20
-325.00000000000028
30
0
40
3.2999999999999829
210
0
220
0
230
1
0
CIRCLE
5
111
100
AcDbEntity
8
CUTOUTS
100
AcDbCircle
10
-190.50000000000009
20
79.999999999999915
30
0
40
3.2999999999999829
210
0
220
0
230
1
0
CIRCLE
5
112
100
AcDbEntity
8
CUTOUTS
100
AcDbCircle
10
-7.1054273576010019e-14
20
114.99999999999993
30
0
40
3.3000000000000003
210
0
220
0
230
1
0
ARC
5
113
100
AcDbEntity
8
PERIMETER
100
AcDbCircle
10
-189.00000000000011
20
377.99999999999983
30
0
40
2.0000000000000284
210
0
220
-0
230
1
100
AcDbArc
50
89.99999999999919
51
180
0
LINE
5
114
100
AcDbEntity
8
PERIMETER
100
AcDbLine
10
-191.00000000000011
20
377.99999999999983
30
0
11
-191.00000000000009
21
350.20710678118644
31
0
0
ARC
5
115
100
AcDbEntity
8
PERIMETER
100
AcDbCircle
10
-193.00000000000009
20
350.20710678118638
30
0
40
2.0000000000000213
210
-0
220
0
230
1
100
AcDbArc
50
-44.999999999998273
51
0
0
LINE
5
116
100
AcDbEntity
8
PERIMETER
100
AcDbLine
10
-191.58578643762695
20
348.79289321881333
30
0
11
-251.2928932188135
21
289.08578643762689
31
0
0
ARC
5
117
100
AcDbEntity
8
PERIMETER
100
AcDbCircle
10
-252.70710678118658
20
290.49999999999994
30
0
40
1.9999999999999929
210
-0
220
0
230
1
100
AcDbArc
50
270
51
315
0
LINE
5
118
100
AcDbEntity
8
PERIMETER
100
AcDbLine
10
-252.70710678118658
20
288.49999999999994
30
0
11
-280.50000000000006
21
288.49999999999994
31
0
0
ARC
5
119
100
AcDbEntity
8
PERIMETER
100
AcDbCircle
10
-280.50000000000006
20
286.49999999999994
30
0
40
1.9999999999999929
210
0
220
-0
230
1
100
AcDbArc
50
90
51
180
0
LINE
5
11A
100
AcDbEntity
8
PERIMETER
100
AcDbLine
10
-282.50000000000006
20
286.49999999999994
30
0
11
-282.50000000000006
21
163.49999999999983
31
0
0
ARC
5
11B
100
AcDbEntity
8
PERIMETER
100
AcDbCircle
10
-280.50000000000006
20
163.49999999999983
30
0
40
1.9999999999999929
210
0
220
0
230
1
100
AcDbArc
50
180
51
270
0
LINE
5
11C
100
AcDbEntity
8
PERIMETER
100
AcDbLine
10
-280.50000000000006
20
161.49999999999983
30
0
11
-252.61803398874997
21
161.49999999999983
31
0
0
ARC
5
11D
100
AcDbEntity
8
PERIMETER
100
AcDbCircle
10
-252.61803398874997
20
159.49999999999983
30
0
40
1.9999999999999938
210
0
220
-0
230
1
100
AcDbArc
50
63.43494882292201
51
90
0
LINE
5
11E
100
AcDbEntity
8
PERIMETER
100
AcDbLine
10
-251.72360679775005
20
161.28885438199967
30
0
11
-192.10557280900019
21
131.47983738762485
31
0
0
ARC
5
11F
100
AcDbEntity
8
PERIMETER
100
AcDbCircle
10
-193.00000000000011
20
129.69098300562501
30
0
40
1.9999999999999929
210
-0
220
0
230
1
100
AcDbArc
50
0
51
63.43494882292201
0
LINE
5
120
100
AcDbEntity
8
PERIMETER
100
AcDbLine
10
-191.00000000000011
20
129.69098300562501
30
0
11
-191.00000000000009
21
100.3090169943749
31
0
0
ARC
5
121
100
AcDbEntity
8
PERIMETER
100
AcDbCircle
10
-193.00000000000009
20
100.3090169943749
30
0
40
2.0000000000000098
210
-0
220
0
230
1
100
AcDbArc
50
-63.43494882292201
51
0
0
LINE
5
122
100
AcDbEntity
8
PERIMETER
100
AcDbLine
10
-192.10557280900017
20
98.520162612375074
30
0
11
-201.39442719100001
21
93.875735421375111
31
0
0
ARC
5
123
100
AcDbEntity
8
PERIMETER
100
AcDbCircle
10
-200.50000000000006
20
92.086881039375271
30
0
40
2.0000000000000258
210
0
220
0
230
1
100
AcDbArc
50
116.56505117707873
51
180
0
LINE
5
124
100
AcDbEntity
8
PERIMETER
100
AcDbLine
10
-202.50000000000006
20
92.086881039375299
30
0
11
-202.50000000000006
21
70.828427124746838
31
0
0
ARC
5
125
100
AcDbEntity
8
PERIMETER
100
AcDbCircle
10
-200.49999999999969
20
70.828427124747009
30
0
40
2.0000000000003837
210
0
220
0
230
1
100
AcDbArc
50
180
51
224.99999999999338
0
LINE
5
126
100
AcDbEntity
8
PERIMETER
100
AcDbLine
10
-201.91421356237322
20
69.414213562373803
30
0
11
-180.08578643750809
21
47.585786437507302
31
0
0
ARC
5
127
100
AcDbEntity
8
PERIMETER
100
AcDbCircle
10
-181.49999999988123
20
46.171572875134245
30
0
40
1.9999999999999929
210
-0
220
0
230
1
100
AcDbArc
50
0
51
44.999999999998415
0
LINE
5
128
100
AcDbEntity
8
PERIMETER
100
AcDbLine
10
-179.49999999988123
20
46.17157287513394
30
0
11
-179.49999999990217
21
-91.17157287515613
31
0
0
ARC
5
129
100
AcDbEntity
8
PERIMETER
100
AcDbCircle
10
-181.49999999990217
20
-91.171572875155817
30
0
40
2.0000000000000213
210
-0
220
0
230
1
100
AcDbArc
50
315.00000000000028
51
360
0
LINE
5
12A
100
AcDbEntity
8
PERIMETER
100
AcDbLine
10
-180.08578643752907
20
-92.58578643752891
30
0
11
-201.91421356237305
21
-114.41421356237306
31
0
0
ARC
5
12B
100
AcDbEntity
8
PERIMETER
100
AcDbCircle
10
-200.49999999999989
20
-115.82842712474609
30
0
40
1.999999999999996
210
0
220
0
230
1
100
AcDbArc
50
135.0000000000029
51
180
0
LINE
5
12C
100
AcDbEntity
8
PERIMETER
100
AcDbLine
10
-202.49999999999989
20
-115.82842712474613
30
0
11
-202.49999999999994
21
-134.1715728752537
31
0
0
ARC
5
12D
100
AcDbEntity
8
PERIMETER
100
AcDbCircle
10
-200.49999999999983
20
-134.17157287525362
30
0
40
2.0000000000000995
210
0
220
0
230
1
100
AcDbArc
50
180
51
224.99999999999883
0
LINE
5
12E
100
AcDbEntity
8
PERIMETER
100
AcDbLine
10
-201.91421356237302
20
-135.58578643762675
30
0
11
-180.08578643753947
21
-157.41421356246047
31
0
0
ARC
5
12F
100
AcDbEntity
8
PERIMETER
100
AcDbCircle
10
-181.49999999991255
20
-158.82842712483355
30
0
40
1.9999999999999929
210
-0
220
0
230
1
100
AcDbArc
50
0
51
45
0
LINE
5
130
100
AcDbEntity
8
PERIMETER
100
AcDbLine
10
-179.49999999991257
20
-158.82842712483387
30
0
11
-179.49999999993278
21
-291.17157287518739
31
0
0
ARC
5
131
100
AcDbEntity
8
PERIMETER
100
AcDbCircle
10
-181.49999999993275
20
-291.17157287518705
30
0
40
1.999999999999996
210
-0
220
0
230
1
100
AcDbArc
50
314.99999999999943
51
360
0
LINE
5
132
100
AcDbEntity
8
PERIMETER
100
AcDbLine
10
-180.08578643755968
20
-292.58578643756016
30
0
11
-201.91421356237294
21
-314.41421356237333
31
0
0
ARC
5
133
100
AcDbEntity
8
PERIMETER
100
AcDbCircle
10
-200.49999999999997
20
-315.82842712474638
30
0
40
1.9999999999998455
210
0
220
0
230
1
100
AcDbArc
50
134.99999999999827
51
180
0
LINE
5
134
100
AcDbEntity
8
PERIMETER
100
AcDbLine
10
-202.49999999999983
20
-315.82842712474644
30
0
11
-202.49999999999977
21
-337.05025253169447
31
0
0
ARC
5
135
100
AcDbEntity
8
PERIMETER
100
AcDbCircle
10
-200.49999999999983
20
-337.05025253169453
30
0
40
1.9999999999999574
210
0
220
0
230
1
100
AcDbArc
50
180
51
224.99999999999883
0
LINE
5
136
100
AcDbEntity
8
PERIMETER
100
AcDbLine
10
-201.91421356237294
20
-338.46446609406757
30
0
11
-191.58578643762695
21
-348.7928932188135
31
0
0
ARC
5
137
100
AcDbEntity
8
PERIMETER
100
AcDbCircle
10
-193
20
-350.20710678118661
30
0
40
1.9999999999999929
210
0
220
-0
230
1
100
AcDbArc
50
0
51
45.000000000001151
0
LINE
5
138
100
AcDbEntity
8
PERIMETER
100
AcDbLine
10
-191
20
-350.20710678118661
30
0
11
-190.99999999999991
21
-378.00000000000006
31
0
0
ARC
5
139
100
AcDbEntity
8
PERIMETER
100
AcDbCircle
10
-189
20
-378.00000000000011
30
0
40
1.9999999999999218
210
0
220
0
230
1
100
AcDbArc
50
180
51
270
0
LINE
5
13A
100
AcDbEntity
8
PERIMETER
100
AcDbLine
10
-189
20
-380.00000000000006
30
0
11
188.99999999999991
21
-380.00000000000006
31
0
0
ARC
5
13B
100
AcDbEntity
8
PERIMETER
100
AcDbCircle
10
188.99999999999991
20
-378.00000000000011
30
0
40
1.9999999999999574
210
-0
220
0
230
1
100
AcDbArc
50
-90
51
0
0
LINE
5
13C
100
AcDbEntity
8
PERIMETER
100
AcDbLine
10
190.99999999999989
20
-378.00000000000006
30
0
11
190.99999999999991
21
-350.20710678118638
31
0
0
ARC
5
13D
100
AcDbEntity
8
PERIMETER
100
AcDbCircle
10
192.99999999999989
20
-350.20710678118638
30
0
40
1.999999999999996
210
0
220
0
230
1
100
AcDbArc
50
135.0000000000006
51
180
0
LINE
5
13E
100
AcDbEntity
8
PERIMETER
100
AcDbLine
10
191.58578643762681
20
-348.79289321881333
30
0
11
251.29289321881339
21
-289.08578643762689
31
0
0
ARC
5
13F
100
AcDbEntity
8
PERIMETER
100
AcDbCircle
10
252.70710678118644
20
-290.5
30
0
40
2.0000000000000284
210
0
220
-0
230
1
100
AcDbArc
50
90
51
134.99999999999886
0
LINE
5
140
100
AcDbEntity
8
PERIMETER
100
AcDbLine
10
252.70710678118644
20
-288.49999999999994
30
0
11
280.5
21
-288.49999999999989
31
0
0
ARC
5
141
100
AcDbEntity
8
PERIMETER
100
AcDbCircle
10
280.5
20
-286.49999999999983
30
0
40
2.0000000000000284
210
-0
220
0
230
1
100
AcDbArc
50
-90
51
0
0
LINE
5
142
100
AcDbEntity
8
PERIMETER
100
AcDbLine
10
282.5
20
-286.49999999999983
30
0
11
282.50000000000006
21
66.500000000000057
31
0
0
ARC
5
143
100
AcDbEntity
8
PERIMETER
100
AcDbCircle
10
280.50000000000006
20
66.500000000000028
30
0
40
1.9999999999999929
210
0
220
-0
230
1
100
AcDbArc
50
0
51
90
0
LINE
5
144
100
AcDbEntity
8
PERIMETER
100
AcDbLine
10
280.50000000000006
20
68.500000000000014
30
0
11
252.61803398874997
21
68.500000000000014
31
0
0
ARC
5
145
100
AcDbEntity
8
PERIMETER
100
AcDbCircle
10
252.61803398874997
20
70.500000000000028
30
0
40
1.9999999999999938
210
0
220
0
230
1
100
AcDbArc
50
243.43494882292188
51
270
0
LINE
5
146
100
AcDbEntity
8
PERIMETER
100
AcDbLine
10
251.72360679775005
20
68.711145618000202
30
0
11
192.10557280900019
21
98.520162612375202
31
0
0
ARC
5
147
100
AcDbEntity
8
PERIMETER
100
AcDbCircle
10
193.00000000000011
20
100.309016994375
30
0
40
1.9999999999999929
210
0
220
0
230
1
100
AcDbArc
50
180
51
243.43494882292188
0
LINE
5
148
100
AcDbEntity
8
PERIMETER
100
AcDbLine
10
191.00000000000011
20
100.309016994375
30
0
11
191.00000000000009
21
129.69098300562513
31
0
0
ARC
5
149
100
AcDbEntity
8
PERIMETER
100
AcDbCircle
10
193.00000000000009
20
129.69098300562513
30
0
40
1.9999999999999938
210
0
220
0
230
1
100
AcDbArc
50
116.56505117707729
51
180
0
LINE
5
14A
100
AcDbEntity
8
PERIMETER
100
AcDbLine
10
192.10557280900019
20
131.47983738762497
30
0
11
251.72360679775008
21
161.28885438199984
31
0
0
ARC
5
14B
100
AcDbEntity
8
PERIMETER
100
AcDbCircle
10
252.61803398875
20
159.50000000000003
30
0
40
1.9999999999999929
210
0
220
-0
230
1
100
AcDbArc
50
90
51
116.56505117707799
0
LINE
5
14C
100
AcDbEntity
8
PERIMETER
100
AcDbLine
10
252.61803398875
20
161.50000000000003
30
0
11
280.50000000000006
21
161.50000000000003
31
0
0
ARC
5
14D
100
AcDbEntity
8
PERIMETER
100
AcDbCircle
10
280.50000000000006
20
163.50000000000006
30
0
40
2.0000000000000284
210
-0
220
0
230
1
100
AcDbArc
50
-90
51
0
0
LINE
5
14E
100
AcDbEntity
8
PERIMETER
100
AcDbLine
10
282.50000000000011
20
163.50000000000006
30
0
11
282.5
21
286.50000000000006
31
0
0
ARC
5
14F
100
AcDbEntity
8
PERIMETER
100
AcDbCircle
10
280.5
20
286.50000000000006
30
0
40
1.9999999999999929
210
0
220
-0
230
1
100
AcDbArc
50
0
51
90
0
LINE
5
150
100
AcDbEntity
8
PERIMETER
100
AcDbLine
10
280.5
20
288.50000000000006
30
0
11
252.70710678118647
21
288.50000000000006
31
0
0
ARC
5
151
100
AcDbEntity
8
PERIMETER
100
AcDbCircle
10
252.70710678118647
20
290.50000000000006
30
0
40
1.999999999999996
210
0
220
0
230
1
100
AcDbArc
50
225.00000000000057
51
270
0
LINE
5
152
100
AcDbEntity
8
PERIMETER
100
AcDbLine
10
251.29289321881339
20
289.08578643762695
30
0
11
191.58578643762692
21
348.79289321881345
31
0
0
ARC
5
153
100
AcDbEntity
8
PERIMETER
100
AcDbCircle
10
193
20
350.20710678118644
30
0
40
1.9999999999999929
210
0
220
0
230
1
100
AcDbArc
50
180
51
224.99999999999943
0
LINE
5
154
100
AcDbEntity
8
PERIMETER
100
AcDbLine
10
191
20
350.20710678118644
30
0
11
191
21
378
31
0
0
ARC
5
155
100
AcDbEntity
8
PERIMETER
100
AcDbCircle
10
189.00000000000003
20
378.00000000000006
30
0
40
1.9999999999999929
210
0
220
-0
230
1
100
AcDbArc
50
0
51
90
0
LINE
5
156
100
AcDbEntity
8
PERIMETER
100
AcDbLine
10
189.00000000000003
20
380
30
0
11
-189.00000000000009
21
379.99999999999972
31
0
0
ENDSEC
0
SECTION
2
OBJECTS
0
DICTIONARY
5
C
100
AcDbDictionary
3
ACAD_GROUP
350
D
3
ACAD_MLINESTYLE
350
17
0
DICTIONARY
5
D
100
AcDbDictionary
0
DICTIONARY
5
1A
330
C
100
AcDbDictionary
0
DICTIONARY
5
17
100
AcDbDictionary
0
ENDSEC
0
EOF
