0
SECTION
2
HEADER
9
$INSUNITS
70
4
9
$ACADVER
1
AC1014
9
$HANDSEED
5
FFFF
0
ENDSEC
0
SECTION
2
TABLES
0
TABLE
2
VPORT
5
8
100
AcDbSymbolTable
0
ENDTAB
0
TABLE
2
LTYPE
5
5
100
AcDbSymbolTable
70
2
0
LTYPE
5
14
100
AcDbSymbolTableRecord
100
AcDbLinetypeTableRecord
2
BYBLOCK
70
0
0
LTYPE
5
15
100
AcDbSymbolTableRecord
100
AcDbLinetypeTableRecord
2
BYLAYER
70
0
0
ENDTAB
0
TABLE
2
LAYER
5
2
100
AcDbSymbolTable
70
3
0
LAYER
5
50
100
AcDbSymbolTableRecord
100
AcDbLayerTableRecord
2
0
70
0
6
CONTINUOUS
0
LAYER
5
51
100
AcDbSymbolTableRecord
100
AcDbLayerTableRecord
2
CUTOUTS
70
0
62
1
6
CONTINUOUS
0
LAYER
5
52
100
AcDbSymbolTableRecord
100
AcDbLayerTableRecord
2
PERIMETER
70
0
62
5
6
CONTINUOUS
0
ENDTAB
0
TABLE
2
STYLE
5
3
100
AcDbSymbolTable
70
1
0
STYLE
5
11
100
AcDbSymbolTableRecord
100
AcDbTextStyleTableRecord
2
STANDARD
70
0
0
ENDTAB
0
TABLE
2
VIEW
5
6
100
AcDbSymbolTable
0
ENDTAB
0
TABLE
2
UCS
5
7
100
AcDbSymbolTable
0
ENDTAB
0
TABLE
2
APPID
5
9
100
AcDbSymbolTable
70
1
0
APPID
5
12
100
AcDbSymbolTableRecord
100
AcDbRegAppTableRecord
2
ACAD
70
0
0
ENDTAB
0
TABLE
2
DIMSTYLE
5
A
100
AcDbSymbolTable
0
ENDTAB
0
TABLE
2
BLOCK_RECORD
5
1
100
AcDbSymbolTable
70
2
0
BLOCK_RECORD
5
1F
100
AcDbSymbolTableRecord
100
AcDbBlockTableRecord
2
*MODEL_SPACE
0
BLOCK_RECORD
5
1B
100
AcDbSymbolTableRecord
100
AcDbBlockTableRecord
2
*PAPER_SPACE
0
ENDTAB
0
ENDSEC
0
SECTION
2
BLOCKS
0
BLOCK
5
20
100
AcDbEntity
100
AcDbBlockBegin
2
*MODEL_SPACE
0
ENDBLK
5
21
100
AcDbEntity
100
AcDbBlockEnd
0
BLOCK
5
1C
100
AcDbEntity
100
AcDbBlockBegin
2
*PAPER_SPACE
0
ENDBLK
5
1D
100
AcDbEntity
100
AcDbBlockEnd
0
ENDSEC
0
SECTION
2
ENTITIES
0
CIRCLE
5
100
100
AcDbEntity
8
CUTOUTS
100
AcDbCircle
10
235.00000000000003
20
8.0000000000000071
30
0
40
3.2999999999999829
210
0
220
0
230
1
0
CIRCLE
5
101
100
AcDbEntity
8
CUTOUTS
100
AcDbCircle
10
153
20
-229
30
0
40
3.3000000000000007
210
0
220
0
230
1
0
CIRCLE
5
102
100
AcDbEntity
8
CUTOUTS
100
AcDbCircle
10
-32.499999999999964
20
-229
30
0
40
3.3000000000000007
210
0
220
0
230
1
0
CIRCLE
5
103
100
AcDbEntity
8
CUTOUTS
100
AcDbCircle
10
-234.99999999999997
20
-147
30
0
40
3.2999999999999829
210
0
220
0
230
1
0
CIRCLE
5
104
100
AcDbEntity
8
CUTOUTS
100
AcDbCircle
10
-234.99999999999997
20
162.99999999999997
30
0
40
3.2999999999999829
210
0
220
0
230
1
0
CIRCLE
5
105
100
AcDbEntity
8
CUTOUTS
100
AcDbCircle
10
66.000000000000028
20
229
30
0
40
3.3000000000000007
210
0
220
0
230
1
0
CIRCLE
5
106
100
AcDbEntity
8
CUTOUTS
100
AcDbCircle
10
-168.99999999999994
20
229
30
0
40
3.2999999999999829
210
0
220
0
230
1
0
CIRCLE
5
107
100
AcDbEntity
8
CUTOUTS
100
AcDbCircle
10
-52.999999999999986
20
228.99999999999994
30
0
40
3.3000000000000007
210
0
220
0
230
1
0
CIRCLE
5
108
100
AcDbEntity
8
CUTOUTS
100
AcDbCircle
10
169.00000000000003
20
229
30
0
40
3.2999999999999829
210
0
220
0
230
1
0
CIRCLE
5
109
100
AcDbEntity
8
CUTOUTS
100
AcDbCircle
10
-234.99999999999997
20
8.0000000000000071
30
0
40
3.2999999999999829
210
0
220
0
230
1
0
CIRCLE
5
10A
100
AcDbEntity
8
CUTOUTS
100
AcDbCircle
10
-152.99999999999994
20
-229
30
0
40
3.3000000000000007
210
0
220
0
230
1
0
CIRCLE
5
10B
100
AcDbEntity
8
CUTOUTS
100
AcDbCircle
10
32.500000000000036
20
-229
30
0
40
3.3000000000000007
210
0
220
0
230
1
0
CIRCLE
5
10C
100
AcDbEntity
8
CUTOUTS
100
AcDbCircle
10
235.00000000000003
20
-147.00000000000003
30
0
40
3.2999999999999829
210
0
220
0
230
1
0
CIRCLE
5
10D
100
AcDbEntity
8
CUTOUTS
100
AcDbCircle
10
235.00000000000003
20
162.99999999999997
30
0
40
3.2999999999999829
210
0
220
0
230
1
0
LINE
5
10E
100
AcDbEntity
8
PERIMETER
100
AcDbLine
10
39.000000014901204
20
211.99999998509878
30
0
11
39.000000014901232
21
157.82842710984497
31
0
0
ARC
5
10F
100
AcDbEntity
8
PERIMETER
100
AcDbCircle
10
37.000000014901232
20
157.82842710984497
30
0
40
2.0000000000000022
210
-0
220
0
230
1
100
AcDbArc
50
-44.999999999999538
51
0
0
LINE
5
110
100
AcDbEntity
8
PERIMETER
100
AcDbLine
10
38.414213577274332
20
156.41421354747189
30
0
11
32.585786452528126
21
150.58578642272568
31
0
0
ARC
5
111
100
AcDbEntity
8
PERIMETER
100
AcDbCircle
10
31.171572890155051
20
151.99999998509878
30
0
40
1.9999999999999929
210
-0
220
0
230
1
100
AcDbArc
50
270.00000000000011
51
314.99999999999949
0
LINE
5
112
100
AcDbEntity
8
PERIMETER
100
AcDbLine
10
31.171572890155055
20
149.99999998509878
30
0
11
-31.171572890154913
21
149.99999998509878
31
0
0
ARC
5
113
100
AcDbEntity
8
PERIMETER
100
AcDbCircle
10
-31.171572890154916
20
151.99999998509878
30
0
40
2.0000000000000022
210
0
220
0
230
1
100
AcDbArc
50
225.00000000000045
51
270.00000000000011
0
LINE
5
114
100
AcDbEntity
8
PERIMETER
100
AcDbLine
10
-32.585786452527998
20
150.58578642272568
30
0
11
-38.414213577274182
21
156.41421354747189
31
0
0
ARC
5
115
100
AcDbEntity
8
PERIMETER
100
AcDbCircle
10
-37.000000014901097
20
157.82842710984494
30
0
40
2.0000000000000018
210
0
220
0
230
1
100
AcDbArc
50
180
51
224.99999999999957
0
LINE
5
116
100
AcDbEntity
8
PERIMETER
100
AcDbLine
10
-39.000000014901097
20
157.82842710984494
30
0
11
-39.000000014901104
21
240.99999998509878
31
0
0
ARC
5
117
100
AcDbEntity
8
PERIMETER
100
AcDbCircle
10
-41.000000014901119
20
240.99999998509878
30
0
40
2.0000000000000107
210
0
220
-0
230
1
100
AcDbArc
50
0
51
89.999999999999588
0
LINE
5
118
100
AcDbEntity
8
PERIMETER
100
AcDbLine
10
-41.000000014901104
20
242.99999998509878
30
0
11
-180.99999998509873
21
242.99999998509878
31
0
0
ARC
5
119
100
AcDbEntity
8
PERIMETER
100
AcDbCircle
10
-180.99999998509873
20
240.99999998509878
30
0
40
1.9999999999999929
210
0
220
-0
230
1
100
AcDbArc
50
90
51
180
0
LINE
5
11A
100
AcDbEntity
8
PERIMETER
100
AcDbLine
10
-182.99999998509873
20
240.99999998509878
30
0
11
-182.99999998509875
21
215.99999998509878
31
0
0
ARC
5
11B
100
AcDbEntity
8
PERIMETER
100
AcDbCircle
10
-184.99999998509875
20
215.99999998509878
30
0
40
1.9999999999999929
210
-0
220
0
230
1
100
AcDbArc
50
-90
51
0
0
LINE
5
11C
100
AcDbEntity
8
PERIMETER
100
AcDbLine
10
-184.99999998509875
20
213.99999998509881
30
0
11
-217.99999998509875
21
213.99999998509878
31
0
0
ARC
5
11D
100
AcDbEntity
8
PERIMETER
100
AcDbCircle
10
-217.99999998509875
20
211.99999998509878
30
0
40
1.9999999999999929
210
0
220
-0
230
1
100
AcDbArc
50
90
51
180
0
LINE
5
11E
100
AcDbEntity
8
PERIMETER
100
AcDbLine
10
-219.99999998509875
20
211.99999998509878
30
0
11
-219.99999998509878
21
178.99999998509878
31
0
0
ARC
5
11F
100
AcDbEntity
8
PERIMETER
100
AcDbCircle
10
-221.99999998509878
20
178.99999998509878
30
0
40
1.9999999999999929
210
-0
220
0
230
1
100
AcDbArc
50
-90
51
0
0
LINE
5
120
100
AcDbEntity
8
PERIMETER
100
AcDbLine
10
-221.99999998509878
20
176.99999998509878
30
0
11
-246.99999998509873
21
176.99999998509878
31
0
0
ARC
5
121
100
AcDbEntity
8
PERIMETER
100
AcDbCircle
10
-246.99999998509873
20
174.99999998509878
30
0
40
1.9999999999999929
210
0
220
-0
230
1
100
AcDbArc
50
90
51
180
0
LINE
5
122
100
AcDbEntity
8
PERIMETER
100
AcDbLine
10
-248.99999998509873
20
174.99999998509878
30
0
11
-248.99999998509878
21
-158.99999998509884
31
0
0
ARC
5
123
100
AcDbEntity
8
PERIMETER
100
AcDbCircle
10
-246.99999998509878
20
-158.99999998509892
30
0
40
1.9999999999999929
210
0
220
0
230
1
100
AcDbArc
50
180
51
269.9999999999992
0
LINE
5
124
100
AcDbEntity
8
PERIMETER
100
AcDbLine
10
-246.99999998509878
20
-160.9999999850989
30
0
11
-175.82842710984488
21
-160.99999998509887
31
0
0
ARC
5
125
100
AcDbEntity
8
PERIMETER
100
AcDbCircle
10
-175.82842710984488
20
-162.99999998509887
30
0
40
1.999999999999996
210
0
220
-0
230
1
100
AcDbArc
50
45
51
90
0
LINE
5
126
100
AcDbEntity
8
PERIMETER
100
AcDbLine
10
-174.41421354747177
20
-161.58578642272576
30
0
11
-167.58578642272565
21
-168.41421354747197
31
0
0
ARC
5
127
100
AcDbEntity
8
PERIMETER
100
AcDbCircle
10
-168.99999998509873
20
-169.82842710984505
30
0
40
1.9999999999999929
210
0
220
-0
230
1
100
AcDbArc
50
0
51
45
0
LINE
5
128
100
AcDbEntity
8
PERIMETER
100
AcDbLine
10
-166.99999998509873
20
-169.82842710984505
30
0
11
-166.99999998509873
21
-240.99999998509887
31
0
0
ARC
5
129
100
AcDbEntity
8
PERIMETER
100
AcDbCircle
10
-164.99999998509875
20
-240.99999998509887
30
0
40
1.9999999999999929
210
0
220
0
230
1
100
AcDbArc
50
180
51
270
0
LINE
5
12A
100
AcDbEntity
8
PERIMETER
100
AcDbLine
10
-164.99999998509875
20
-242.99999998509887
30
0
11
-20.500000014901083
21
-242.99999998509887
31
0
0
ARC
5
12B
100
AcDbEntity
8
PERIMETER
100
AcDbCircle
10
-20.500000014901087
20
-240.99999998509887
30
0
40
1.9999999999999929
210
-0
220
0
230
1
100
AcDbArc
50
-89.999999999999901
51
0
0
LINE
5
12C
100
AcDbEntity
8
PERIMETER
100
AcDbLine
10
-18.500000014901094
20
-240.99999998509887
30
0
11
-18.500000014901087
21
-217.49999998509884
31
0
0
ARC
5
12D
100
AcDbEntity
8
PERIMETER
100
AcDbCircle
10
-16.50000001490109
20
-217.49999998509884
30
0
40
1.9999999999999929
210
0
220
-0
230
1
100
AcDbArc
50
90
51
180
0
LINE
5
12E
100
AcDbEntity
8
PERIMETER
100
AcDbLine
10
-16.50000001490109
20
-215.49999998509887
30
0
11
16.500000014901232
21
-215.49999998509887
31
0
0
ARC
5
12F
100
AcDbEntity
8
PERIMETER
100
AcDbCircle
10
16.500000014901232
20
-217.49999998509884
30
0
40
1.9999999999999996
210
0
220
-0
230
1
100
AcDbArc
50
0
51
90
0
LINE
5
130
100
AcDbEntity
8
PERIMETER
100
AcDbLine
10
18.500000014901229
20
-217.49999998509884
30
0
11
18.500000014901232
21
-240.99999998509887
31
0
0
ARC
5
131
100
AcDbEntity
8
PERIMETER
100
AcDbCircle
10
20.500000014901239
20
-240.99999998509887
30
0
40
2.0000000000000062
210
0
220
0
230
1
100
AcDbArc
50
180
51
269.99999999999983
0
LINE
5
132
100
AcDbEntity
8
PERIMETER
100
AcDbLine
10
20.500000014901232
20
-242.99999998509887
30
0
11
164.99999998509892
21
-242.99999998509887
31
0
0
ARC
5
133
100
AcDbEntity
8
PERIMETER
100
AcDbCircle
10
164.99999998509892
20
-240.99999998509887
30
0
40
1.9999999999999929
210
-0
220
0
230
1
100
AcDbArc
50
-90
51
0
0
LINE
5
134
100
AcDbEntity
8
PERIMETER
100
AcDbLine
10
166.99999998509892
20
-240.99999998509887
30
0
11
166.99999998509895
21
-169.82842710984502
31
0
0
ARC
5
135
100
AcDbEntity
8
PERIMETER
100
AcDbCircle
10
168.99999998509895
20
-169.82842710984502
30
0
40
1.999999999999996
210
0
220
0
230
1
100
AcDbArc
50
135.0000000000006
51
180
0
LINE
5
136
100
AcDbEntity
8
PERIMETER
100
AcDbLine
10
167.58578642272585
20
-168.41421354747195
30
0
11
174.41421354747206
21
-161.58578642272576
31
0
0
ARC
5
137
100
AcDbEntity
8
PERIMETER
100
AcDbCircle
10
175.82842710984517
20
-162.99999998509887
30
0
40
1.9999999999999929
210
0
220
-0
230
1
100
AcDbArc
50
90
51
135
0
LINE
5
138
100
AcDbEntity
8
PERIMETER
100
AcDbLine
10
175.82842710984517
20
-160.99999998509887
30
0
11
246.9999999850989
21
-160.99999998509887
31
0
0
ARC
5
139
100
AcDbEntity
8
PERIMETER
100
AcDbCircle
10
246.99999998509881
20
-158.99999998509881
30
0
40
2.0000000000000639
210
-0
220
0
230
1
100
AcDbArc
50
270.00000000000244
51
360
0
LINE
5
13A
100
AcDbEntity
8
PERIMETER
100
AcDbLine
10
248.99999998509887
20
-158.99999998509887
30
0
11
248.9999999850989
21
174.99999998509878
31
0
0
ARC
5
13B
100
AcDbEntity
8
PERIMETER
100
AcDbCircle
10
246.99999998509892
20
174.99999998509878
30
0
40
1.9999999999999929
210
-0
220
0
230
1
100
AcDbArc
50
0
51
90
0
LINE
5
13C
100
AcDbEntity
8
PERIMETER
100
AcDbLine
10
246.99999998509892
20
176.99999998509878
30
0
11
221.99999998509895
21
176.99999998509878
31
0
0
ARC
5
13D
100
AcDbEntity
8
PERIMETER
100
AcDbCircle
10
221.99999998509895
20
178.99999998509878
30
0
40
1.9999999999999929
210
0
220
0
230
1
100
AcDbArc
50
180
51
270
0
LINE
5
13E
100
AcDbEntity
8
PERIMETER
100
AcDbLine
10
219.99999998509895
20
178.99999998509878
30
0
11
219.99999998509892
21
211.99999998509873
31
0
0
ARC
5
13F
100
AcDbEntity
8
PERIMETER
100
AcDbCircle
10
217.99999998509892
20
211.99999998509873
30
0
40
1.9999999999999929
210
0
220
-0
230
1
100
AcDbArc
50
0
51
90
0
LINE
5
140
100
AcDbEntity
8
PERIMETER
100
AcDbLine
10
217.99999998509892
20
213.99999998509873
30
0
11
184.99999998509892
21
213.99999998509878
31
0
0
ARC
5
141
100
AcDbEntity
8
PERIMETER
100
AcDbCircle
10
184.99999998509892
20
215.99999998509875
30
0
40
1.9999999999999929
210
0
220
0
230
1
100
AcDbArc
50
180
51
270
0
LINE
5
142
100
AcDbEntity
8
PERIMETER
100
AcDbLine
10
182.99999998509892
20
215.99999998509875
30
0
11
182.9999999850989
21
240.99999998509878
31
0
0
ARC
5
143
100
AcDbEntity
8
PERIMETER
100
AcDbCircle
10
180.9999999850989
20
240.99999998509878
30
0
40
1.9999999999999929
210
0
220
-0
230
1
100
AcDbArc
50
0
51
90
0
LINE
5
144
100
AcDbEntity
8
PERIMETER
100
AcDbLine
10
180.9999999850989
20
242.99999998509878
30
0
11
54.000000014901218
21
242.99999998509878
31
0
0
ARC
5
145
100
AcDbEntity
8
PERIMETER
100
AcDbCircle
10
54.000000014901232
20
240.99999998509878
30
0
40
1.9999999999999929
210
0
220
0
230
1
100
AcDbArc
50
90.000000000000398
51
180
0
LINE
5
146
100
AcDbEntity
8
PERIMETER
100
AcDbLine
10
52.000000014901239
20
240.99999998509878
30
0
11
52.000000014901218
21
215.99999998509875
31
0
0
ARC
5
147
100
AcDbEntity
8
PERIMETER
100
AcDbCircle
10
50.000000014901218
20
215.99999998509875
30
0
40
1.9999999999999929
210
-0
220
0
230
1
100
AcDbArc
50
-89.999999999999801
51
0
0
LINE
5
148
100
AcDbEntity
8
PERIMETER
100
AcDbLine
10
50.000000014901225
20
213.99999998509878
30
0
11
41.000000014901204
21
213.99999998509878
31
0
0
ARC
5
149
100
AcDbEntity
8
PERIMETER
100
AcDbCircle
10
41.000000014901197
20
211.99999998509878
30
0
40
1.9999999999999929
210
0
220
-0
230
1
100
AcDbArc
50
89.999999999999801
51
180
0
ENDSEC
0
SECTION
2
OBJECTS
0
DICTIONARY
5
C
100
AcDbDictionary
3
ACAD_GROUP
350
D
3
ACAD_MLINESTYLE
350
17
0
DICTIONARY
5
D
100
AcDbDictionary
0
DICTIONARY
5
1A
330
C
100
AcDbDictionary
0
DICTIONARY
5
17
100
AcDbDictionary
0
ENDSEC
0
EOF
