0
SECTION
2
HEADER
9
$INSUNITS
70
4
9
$ACADVER
1
AC1014
9
$HANDSEED
5
FFFF
0
ENDSEC
0
SECTION
2
TABLES
0
TABLE
2
VPORT
5
8
100
AcDbSymbolTable
0
ENDTAB
0
TABLE
2
LTYPE
5
5
100
AcDbSymbolTable
70
2
0
LTYPE
5
14
100
AcDbSymbolTableRecord
100
AcDbLinetypeTableRecord
2
BYBLOCK
70
0
0
LTYPE
5
15
100
AcDbSymbolTableRecord
100
AcDbLinetypeTableRecord
2
BYLAYER
70
0
0
ENDTAB
0
TABLE
2
LAYER
5
2
100
AcDbSymbolTable
70
3
0
LAYER
5
50
100
AcDbSymbolTableRecord
100
AcDbLayerTableRecord
2
0
70
0
6
CONTINUOUS
0
LAYER
5
51
100
AcDbSymbolTableRecord
100
AcDbLayerTableRecord
2
CUTOUTS
70
0
62
1
6
CONTINUOUS
0
LAYER
5
52
100
AcDbSymbolTableRecord
100
AcDbLayerTableRecord
2
PERIMETER
70
0
62
5
6
CONTINUOUS
0
ENDTAB
0
TABLE
2
STYLE
5
3
100
AcDbSymbolTable
70
1
0
STYLE
5
11
100
AcDbSymbolTableRecord
100
AcDbTextStyleTableRecord
2
STANDARD
70
0
0
ENDTAB
0
TABLE
2
VIEW
5
6
100
AcDbSymbolTable
0
ENDTAB
0
TABLE
2
UCS
5
7
100
AcDbSymbolTable
0
ENDTAB
0
TABLE
2
APPID
5
9
100
AcDbSymbolTable
70
1
0
APPID
5
12
100
AcDbSymbolTableRecord
100
AcDbRegAppTableRecord
2
ACAD
70
0
0
ENDTAB
0
TABLE
2
DIMSTYLE
5
A
100
AcDbSymbolTable
0
ENDTAB
0
TABLE
2
BLOCK_RECORD
5
1
100
AcDbSymbolTable
70
2
0
BLOCK_RECORD
5
1F
100
AcDbSymbolTableRecord
100
AcDbBlockTableRecord
2
*MODEL_SPACE
0
BLOCK_RECORD
5
1B
100
AcDbSymbolTableRecord
100
AcDbBlockTableRecord
2
*PAPER_SPACE
0
ENDTAB
0
ENDSEC
0
SECTION
2
BLOCKS
0
BLOCK
5
20
100
AcDbEntity
100
AcDbBlockBegin
2
*MODEL_SPACE
0
ENDBLK
5
21
100
AcDbEntity
100
AcDbBlockEnd
0
BLOCK
5
1C
100
AcDbEntity
100
AcDbBlockBegin
2
*PAPER_SPACE
0
ENDBLK
5
1D
100
AcDbEntity
100
AcDbBlockEnd
0
ENDSEC
0
SECTION
2
ENTITIES
0
CIRCLE
5
100
100
AcDbEntity
8
CUTOUTS
100
AcDbCircle
10
5.4063345389898222e-14
20
-125.00000000000003
30
0
40
3.5000000000000004
210
0
220
0
230
1
0
CIRCLE
5
101
100
AcDbEntity
8
CUTOUTS
100
AcDbCircle
10
5.4063345389898222e-14
20
-175.00000000000003
30
0
40
3.5000000000000004
210
0
220
0
230
1
0
CIRCLE
5
102
100
AcDbEntity
8
CUTOUTS
100
AcDbCircle
10
5.4063345389898222e-14
20
-25.000000000000036
30
0
40
3.5000000000000004
210
0
220
0
230
1
0
CIRCLE
5
103
100
AcDbEntity
8
CUTOUTS
100
AcDbCircle
10
5.4063345389898222e-14
20
-75.000000000000028
30
0
40
3.5000000000000004
210
0
220
0
230
1
0
CIRCLE
5
104
100
AcDbEntity
8
CUTOUTS
100
AcDbCircle
10
5.4063345389898222e-14
20
74.999999999999972
30
0
40
3.5000000000000004
210
0
220
0
230
1
0
CIRCLE
5
105
100
AcDbEntity
8
CUTOUTS
100
AcDbCircle
10
5.4063345389898222e-14
20
24.999999999999964
30
0
40
3.5000000000000004
210
0
220
0
230
1
0
CIRCLE
5
106
100
AcDbEntity
8
CUTOUTS
100
AcDbCircle
10
5.4063345389898222e-14
20
174.99999999999997
30
0
40
3.5000000000000004
210
0
220
0
230
1
0
CIRCLE
5
107
100
AcDbEntity
8
CUTOUTS
100
AcDbCircle
10
5.4063345389898222e-14
20
124.99999999999997
30
0
40
3.5000000000000004
210
0
220
0
230
1
0
CIRCLE
5
108
100
AcDbEntity
8
CUTOUTS
100
AcDbCircle
10
-34.999999999999929
20
-27.999999999999861
30
0
40
7.9999999999999982
210
0
220
0
230
1
0
CIRCLE
5
109
100
AcDbEntity
8
CUTOUTS
100
AcDbCircle
10
234.99999999999977
20
-105.49999999999848
30
0
40
3.5000000000000142
210
0
220
0
230
1
0
CIRCLE
5
10A
100
AcDbEntity
8
CUTOUTS
100
AcDbCircle
10
204.99999999999966
20
-224.99999999999844
30
0
40
3.5000000000000142
210
0
220
0
230
1
0
CIRCLE
5
10B
100
AcDbEntity
8
CUTOUTS
100
AcDbCircle
10
25.999999999999616
20
-224.99999999999835
30
0
40
3.5000000000000009
210
0
220
0
230
1
0
CIRCLE
5
10C
100
AcDbEntity
8
CUTOUTS
100
AcDbCircle
10
-115.49999999999963
20
-224.99999999999835
30
0
40
3.4999999999999964
210
0
220
0
230
1
0
CIRCLE
5
10D
100
AcDbEntity
8
CUTOUTS
100
AcDbCircle
10
-234.99999999999969
20
-194.99999999999835
30
0
40
3.5000000000000142
210
0
220
0
230
1
0
CIRCLE
5
10E
100
AcDbEntity
8
CUTOUTS
100
AcDbCircle
10
-234.99999999999966
20
-15.999999999998382
30
0
40
3.5000000000000142
210
0
220
0
230
1
0
CIRCLE
5
10F
100
AcDbEntity
8
CUTOUTS
100
AcDbCircle
10
234.99999999999977
20
105.49999999999994
30
0
40
3.5000000000000142
210
0
220
0
230
1
0
CIRCLE
5
110
100
AcDbEntity
8
CUTOUTS
100
AcDbCircle
10
-234.99999999999966
20
16.000000000000007
30
0
40
3.5000000000000142
210
0
220
0
230
1
0
CIRCLE
5
111
100
AcDbEntity
8
CUTOUTS
100
AcDbCircle
10
-234.99999999999974
20
195
30
0
40
3.5000000000000142
210
0
220
0
230
1
0
CIRCLE
5
112
100
AcDbEntity
8
CUTOUTS
100
AcDbCircle
10
25.999999999999844
20
225.00000000000239
30
0
40
3.5000000000000009
210
0
220
0
230
1
0
CIRCLE
5
113
100
AcDbEntity
8
CUTOUTS
100
AcDbCircle
10
-109.99999999999972
20
225.00000000000239
30
0
40
3.4999999999999964
210
0
220
0
230
1
0
CIRCLE
5
114
100
AcDbEntity
8
CUTOUTS
100
AcDbCircle
10
-25.999999999999723
20
225.00000000000239
30
0
40
3.5000000000000009
210
0
220
0
230
1
0
CIRCLE
5
115
100
AcDbEntity
8
CUTOUTS
100
AcDbCircle
10
109.99999999999983
20
225.00000000000239
30
0
40
3.4999999999999964
210
0
220
0
230
1
0
CIRCLE
5
116
100
AcDbEntity
8
CUTOUTS
100
AcDbCircle
10
-234.99999999999972
20
105.5
30
0
40
3.5000000000000142
210
0
220
0
230
1
0
CIRCLE
5
117
100
AcDbEntity
8
CUTOUTS
100
AcDbCircle
10
234.99999999999989
20
194.99999999999994
30
0
40
3.5000000000000142
210
0
220
0
230
1
0
CIRCLE
5
118
100
AcDbEntity
8
CUTOUTS
100
AcDbCircle
10
234.99999999999972
20
15.999999999999936
30
0
40
3.5000000000000142
210
0
220
0
230
1
0
CIRCLE
5
119
100
AcDbEntity
8
CUTOUTS
100
AcDbCircle
10
-234.99999999999972
20
-105.49999999999841
30
0
40
3.5000000000000142
210
0
220
0
230
1
0
CIRCLE
5
11A
100
AcDbEntity
8
CUTOUTS
100
AcDbCircle
10
-204.99999999999966
20
-224.99999999999835
30
0
40
3.5000000000000142
210
0
220
0
230
1
0
CIRCLE
5
11B
100
AcDbEntity
8
CUTOUTS
100
AcDbCircle
10
-25.999999999999631
20
-224.99999999999835
30
0
40
3.5000000000000009
210
0
220
0
230
1
0
CIRCLE
5
11C
100
AcDbEntity
8
CUTOUTS
100
AcDbCircle
10
115.4999999999996
20
-224.99999999999835
30
0
40
3.4999999999999964
210
0
220
0
230
1
0
CIRCLE
5
11D
100
AcDbEntity
8
CUTOUTS
100
AcDbCircle
10
234.99999999999997
20
-194.99999999999815
30
0
40
3.5000000000000142
210
0
220
0
230
1
0
CIRCLE
5
11E
100
AcDbEntity
8
CUTOUTS
100
AcDbCircle
10
234.99999999999972
20
-15.999999999998204
30
0
40
3.5000000000000142
210
0
220
0
230
1
0
ARC
5
11F
100
AcDbEntity
8
CUTOUTS
100
AcDbCircle
10
-218.64999999999975
20
222.00000000000074
30
0
40
1.9999999999999929
210
0
220
-0
230
1
100
AcDbArc
50
90
51
180
0
LINE
5
120
100
AcDbEntity
8
CUTOUTS
100
AcDbLine
10
-220.64999999999972
20
211.00000000000077
30
0
11
-220.64999999999972
21
222.00000000000074
31
0
0
ARC
5
121
100
AcDbEntity
8
CUTOUTS
100
AcDbCircle
10
-218.64999999999975
20
211.00000000000077
30
0
40
1.9999999999999929
210
0
220
0
230
1
100
AcDbArc
50
180
51
270
0
LINE
5
122
100
AcDbEntity
8
CUTOUTS
100
AcDbLine
10
-203.34999999999974
20
209.00000000000077
30
0
11
-218.64999999999975
21
209.00000000000077
31
0
0
ARC
5
123
100
AcDbEntity
8
CUTOUTS
100
AcDbCircle
10
-203.34999999999974
20
211.0000000000008
30
0
40
2.0000000000000284
210
-0
220
0
230
1
100
AcDbArc
50
-90
51
0
0
LINE
5
124
100
AcDbEntity
8
CUTOUTS
100
AcDbLine
10
-201.34999999999974
20
222.00000000000077
30
0
11
-201.34999999999968
21
211.0000000000008
31
0
0
ARC
5
125
100
AcDbEntity
8
CUTOUTS
100
AcDbCircle
10
-203.34999999999974
20
222.00000000000077
30
0
40
1.9999999999999929
210
0
220
-0
230
1
100
AcDbArc
50
0
51
90
0
LINE
5
126
100
AcDbEntity
8
CUTOUTS
100
AcDbLine
10
-218.64999999999975
20
224.00000000000074
30
0
11
-203.34999999999974
21
224.00000000000077
31
0
0
ARC
5
127
100
AcDbEntity
8
CUTOUTS
100
AcDbCircle
10
218.65000000000003
20
222.00000000000071
30
0
40
1.9999999999999929
210
0
220
-0
230
1
100
AcDbArc
50
0
51
90
0
LINE
5
128
100
AcDbEntity
8
CUTOUTS
100
AcDbLine
10
203.35000000000002
20
224.00000000000065
30
0
11
218.65000000000003
21
224.00000000000068
31
0
0
ARC
5
129
100
AcDbEntity
8
CUTOUTS
100
AcDbCircle
10
203.35000000000002
20
222.00000000000068
30
0
40
1.9999999999999929
210
0
220
-0
230
1
100
AcDbArc
50
90
51
180
0
LINE
5
12A
100
AcDbEntity
8
CUTOUTS
100
AcDbLine
10
201.35000000000002
20
211.00000000000068
30
0
11
201.35000000000002
21
222.00000000000068
31
0
0
ARC
5
12B
100
AcDbEntity
8
CUTOUTS
100
AcDbCircle
10
203.35000000000002
20
211.00000000000068
30
0
40
1.9999999999999929
210
0
220
0
230
1
100
AcDbArc
50
180
51
270
0
LINE
5
12C
100
AcDbEntity
8
CUTOUTS
100
AcDbLine
10
218.65000000000003
20
209.00000000000068
30
0
11
203.35000000000002
21
209.00000000000068
31
0
0
ARC
5
12D
100
AcDbEntity
8
CUTOUTS
100
AcDbCircle
10
218.65000000000003
20
211.00000000000074
30
0
40
2.0000000000000284
210
-0
220
0
230
1
100
AcDbArc
50
-90
51
0
0
LINE
5
12E
100
AcDbEntity
8
CUTOUTS
100
AcDbLine
10
220.65000000000001
20
222.00000000000071
30
0
11
220.65000000000003
21
211.00000000000074
31
0
0
LINE
5
12F
100
AcDbEntity
8
PERIMETER
100
AcDbLine
10
-216.99999999999986
20
-238.9999999999998
30
0
11
216.99999999999991
21
-238.99999999999972
31
0
0
ARC
5
130
100
AcDbEntity
8
PERIMETER
100
AcDbCircle
10
216.99999999999994
20
-236.99999999999972
30
0
40
1.9999999999999929
210
0
220
0
230
1
100
AcDbArc
50
-90.00000000000081
51
0
0
LINE
5
131
100
AcDbEntity
8
PERIMETER
100
AcDbLine
10
218.99999999999994
20
-236.99999999999972
30
0
11
219
21
-210.9999999999998
31
0
0
ARC
5
132
100
AcDbEntity
8
PERIMETER
100
AcDbCircle
10
220.99999999999997
20
-210.9999999999998
30
0
40
1.9999999999999929
210
0
220
-0
230
1
100
AcDbArc
50
90
51
180
0
LINE
5
133
100
AcDbEntity
8
PERIMETER
100
AcDbLine
10
220.99999999999997
20
-208.9999999999998
30
0
11
247
21
-208.9999999999998
31
0
0
ARC
5
134
100
AcDbEntity
8
PERIMETER
100
AcDbCircle
10
247
20
-206.99999999999983
30
0
40
1.9999999999999929
210
-0
220
0
230
1
100
AcDbArc
50
-90
51
0
0
LINE
5
135
100
AcDbEntity
8
PERIMETER
100
AcDbLine
10
249
20
-206.99999999999983
30
0
11
248.99999999999991
21
237.00000000000011
31
0
0
ARC
5
136
100
AcDbEntity
8
PERIMETER
100
AcDbCircle
10
246.99999999999991
20
237.00000000000011
30
0
40
1.9999999999999929
210
0
220
-0
230
1
100
AcDbArc
50
0
51
90
0
LINE
5
137
100
AcDbEntity
8
PERIMETER
100
AcDbLine
10
246.99999999999991
20
239.00000000000009
30
0
11
-246.99999999999972
21
239.00000000000011
31
0
0
ARC
5
138
100
AcDbEntity
8
PERIMETER
100
AcDbCircle
10
-246.99999999999972
20
237.00000000000014
30
0
40
1.9999999999999929
210
0
220
-0
230
1
100
AcDbArc
50
90
51
180
0
LINE
5
139
100
AcDbEntity
8
PERIMETER
100
AcDbLine
10
-248.99999999999972
20
237.00000000000011
30
0
11
-248.99999999999983
21
-206.99999999999966
31
0
0
ARC
5
13A
100
AcDbEntity
8
PERIMETER
100
AcDbCircle
10
-246.99999999999986
20
-206.99999999999966
30
0
40
1.9999999999999929
210
0
220
0
230
1
100
AcDbArc
50
180
51
270
0
LINE
5
13B
100
AcDbEntity
8
PERIMETER
100
AcDbLine
10
-246.99999999999986
20
-208.99999999999966
30
0
11
-220.99999999999989
21
-208.99999999999972
31
0
0
ARC
5
13C
100
AcDbEntity
8
PERIMETER
100
AcDbCircle
10
-220.99999999999989
20
-210.99999999999969
30
0
40
1.9999999999999929
210
0
220
-0
230
1
100
AcDbArc
50
0
51
90
0
LINE
5
13D
100
AcDbEntity
8
PERIMETER
100
AcDbLine
10
-218.99999999999989
20
-210.99999999999969
30
0
11
-218.99999999999983
21
-236.99999999999983
31
0
0
ARC
5
13E
100
AcDbEntity
8
PERIMETER
100
AcDbCircle
10
-216.99999999999986
20
-236.99999999999983
30
0
40
1.9999999999999929
210
0
220
0
230
1
100
AcDbArc
50
180
51
270
0
ENDSEC
0
SECTION
2
OBJECTS
0
DICTIONARY
5
C
100
AcDbDictionary
3
ACAD_GROUP
350
D
3
ACAD_MLINESTYLE
350
17
0
DICTIONARY
5
D
100
AcDbDictionary
0
DICTIONARY
5
1A
330
C
100
AcDbDictionary
0
DICTIONARY
5
17
100
AcDbDictionary
0
ENDSEC
0
EOF
