0
SECTION
2
HEADER
9
$INSUNITS
70
4
9
$ACADVER
1
AC1014
9
$HANDSEED
5
FFFF
0
ENDSEC
0
SECTION
2
TABLES
0
TABLE
2
VPORT
5
8
100
AcDbSymbolTable
0
ENDTAB
0
TABLE
2
LTYPE
5
5
100
AcDbSymbolTable
70
2
0
LTYPE
5
14
100
AcDbSymbolTableRecord
100
AcDbLinetypeTableRecord
2
BYBLOCK
70
0
0
LTYPE
5
15
100
AcDbSymbolTableRecord
100
AcDbLinetypeTableRecord
2
BYLAYER
70
0
0
ENDTAB
0
TABLE
2
LAYER
5
2
100
AcDbSymbolTable
70
3
0
LAYER
5
50
100
AcDbSymbolTableRecord
100
AcDbLayerTableRecord
2
0
70
0
6
CONTINUOUS
0
LAYER
5
51
100
AcDbSymbolTableRecord
100
AcDbLayerTableRecord
2
CUTOUTS
70
0
62
1
6
CONTINUOUS
0
LAYER
5
52
100
AcDbSymbolTableRecord
100
AcDbLayerTableRecord
2
PERIMETER
70
0
62
5
6
CONTINUOUS
0
ENDTAB
0
TABLE
2
STYLE
5
3
100
AcDbSymbolTable
70
1
0
STYLE
5
11
100
AcDbSymbolTableRecord
100
AcDbTextStyleTableRecord
2
STANDARD
70
0
0
ENDTAB
0
TABLE
2
VIEW
5
6
100
AcDbSymbolTable
0
ENDTAB
0
TABLE
2
UCS
5
7
100
AcDbSymbolTable
0
ENDTAB
0
TABLE
2
APPID
5
9
100
AcDbSymbolTable
70
1
0
APPID
5
12
100
AcDbSymbolTableRecord
100
AcDbRegAppTableRecord
2
ACAD
70
0
0
ENDTAB
0
TABLE
2
DIMSTYLE
5
A
100
AcDbSymbolTable
0
ENDTAB
0
TABLE
2
BLOCK_RECORD
5
1
100
AcDbSymbolTable
70
2
0
BLOCK_RECORD
5
1F
100
AcDbSymbolTableRecord
100
AcDbBlockTableRecord
2
*MODEL_SPACE
0
BLOCK_RECORD
5
1B
100
AcDbSymbolTableRecord
100
AcDbBlockTableRecord
2
*PAPER_SPACE
0
ENDTAB
0
ENDSEC
0
SECTION
2
BLOCKS
0
BLOCK
5
20
100
AcDbEntity
100
AcDbBlockBegin
2
*MODEL_SPACE
0
ENDBLK
5
21
100
AcDbEntity
100
AcDbBlockEnd
0
BLOCK
5
1C
100
AcDbEntity
100
AcDbBlockBegin
2
*PAPER_SPACE
0
ENDBLK
5
1D
100
AcDbEntity
100
AcDbBlockEnd
0
ENDSEC
0
SECTION
2
ENTITIES
0
CIRCLE
5
100
100
AcDbEntity
8
CUTOUTS
100
AcDbCircle
10
42.000000000000014
20
-127.37500000000003
30
0
40
3.3000000000000007
210
0
220
0
230
1
0
CIRCLE
5
101
100
AcDbEntity
8
CUTOUTS
100
AcDbCircle
10
-135.50000000000009
20
-127.37499999999994
30
0
40
3.3000000000000007
210
0
220
0
230
1
0
CIRCLE
5
102
100
AcDbEntity
8
CUTOUTS
100
AcDbCircle
10
-41.999999999999986
20
-127.375
30
0
40
3.3000000000000007
210
0
220
0
230
1
0
CIRCLE
5
103
100
AcDbEntity
8
CUTOUTS
100
AcDbCircle
10
135.50000000000009
20
-127.37499999999994
30
0
40
3.3000000000000007
210
0
220
0
230
1
0
CIRCLE
5
104
100
AcDbEntity
8
CUTOUTS
100
AcDbCircle
10
267.5
20
32.624999999999943
30
0
40
3.2999999999999829
210
0
220
0
230
1
0
CIRCLE
5
105
100
AcDbEntity
8
CUTOUTS
100
AcDbCircle
10
-3.5527136788005009e-14
20
122.62499999999997
30
0
40
3.3000000000000003
210
0
220
0
230
1
0
CIRCLE
5
106
100
AcDbEntity
8
CUTOUTS
100
AcDbCircle
10
-267.50000000000006
20
32.624999999999901
30
0
40
3.2999999999999829
210
0
220
0
230
1
0
CIRCLE
5
107
100
AcDbEntity
8
CUTOUTS
100
AcDbCircle
10
-267.50000000000006
20
-67.375000000000199
30
0
40
3.2999999999999829
210
0
220
0
230
1
0
CIRCLE
5
108
100
AcDbEntity
8
CUTOUTS
100
AcDbCircle
10
-177.50000000000006
20
122.6249999999999
30
0
40
3.2999999999999829
210
0
220
0
230
1
0
CIRCLE
5
109
100
AcDbEntity
8
CUTOUTS
100
AcDbCircle
10
177.50000000000003
20
122.62499999999997
30
0
40
3.2999999999999829
210
0
220
0
230
1
0
CIRCLE
5
10A
100
AcDbEntity
8
CUTOUTS
100
AcDbCircle
10
267.50000000000006
20
-67.375
30
0
40
3.2999999999999829
210
0
220
0
230
1
0
LINE
5
10B
100
AcDbEntity
8
PERIMETER
100
AcDbLine
10
-282.50000000000006
20
44.124999999999929
30
0
11
-282.50000000000006
21
-78.875000000000185
31
0
0
ARC
5
10C
100
AcDbEntity
8
PERIMETER
100
AcDbCircle
10
-280.50000000000006
20
-78.875000000000185
30
0
40
1.9999999999999929
210
0
220
0
230
1
100
AcDbArc
50
180
51
270
0
LINE
5
10D
100
AcDbEntity
8
PERIMETER
100
AcDbLine
10
-280.50000000000006
20
-80.875000000000171
30
0
11
-252.61803398874997
21
-80.875000000000171
31
0
0
ARC
5
10E
100
AcDbEntity
8
PERIMETER
100
AcDbCircle
10
-252.61803398874997
20
-82.875000000000199
30
0
40
1.9999999999999938
210
0
220
-0
230
1
100
AcDbArc
50
63.434948822921832
51
90
0
LINE
5
10F
100
AcDbEntity
8
PERIMETER
100
AcDbLine
10
-251.72360679775005
20
-81.086145618000373
30
0
11
-192.10557280900019
21
-110.89516261237519
31
0
0
ARC
5
110
100
AcDbEntity
8
PERIMETER
100
AcDbCircle
10
-193.00000000000011
20
-112.68401699437501
30
0
40
1.9999999999999929
210
-0
220
0
230
1
100
AcDbArc
50
0
51
63.434948822921832
0
LINE
5
111
100
AcDbEntity
8
PERIMETER
100
AcDbLine
10
-191.00000000000011
20
-112.68401699437501
30
0
11
-191.00000000000009
21
-113.62499999999977
31
0
0
ARC
5
112
100
AcDbEntity
8
PERIMETER
100
AcDbCircle
10
-189.00000000000011
20
-113.6249999999998
30
0
40
1.9999999999999574
210
0
220
0
230
1
100
AcDbArc
50
180
51
270
0
LINE
5
113
100
AcDbEntity
8
PERIMETER
100
AcDbLine
10
-189.00000000000011
20
-115.62499999999974
30
0
11
-168.01776695296635
21
-115.62499999999997
31
0
0
ARC
5
114
100
AcDbEntity
8
PERIMETER
100
AcDbCircle
10
-168.01776695296635
20
-117.62499999999996
30
0
40
2.0000000000000084
210
0
220
-0
230
1
100
AcDbArc
50
45
51
90
0
LINE
5
115
100
AcDbEntity
8
PERIMETER
100
AcDbLine
10
-166.60355339059325
20
-116.21078643762685
30
0
11
-145.77512626584718
21
-137.03921356237302
31
0
0
ARC
5
116
100
AcDbEntity
8
PERIMETER
100
AcDbCircle
10
-144.36091270347404
20
-135.62499999999989
30
0
40
2.0000000000000591
210
0
220
0
230
1
100
AcDbArc
50
225
51
269.9999999999992
0
LINE
5
117
100
AcDbEntity
8
PERIMETER
100
AcDbLine
10
-144.36091270347407
20
-137.62499999999994
30
0
11
-126.63908729652607
21
-137.62499999999994
31
0
0
ARC
5
118
100
AcDbEntity
8
PERIMETER
100
AcDbCircle
10
-126.63908729652606
20
-135.62499999999994
30
0
40
1.9999999999999929
210
0
220
0
230
1
100
AcDbArc
50
269.9999999999996
51
314.99999999999915
0
LINE
5
119
100
AcDbEntity
8
PERIMETER
100
AcDbLine
10
-125.22487373415299
20
-137.03921356237305
30
0
11
-104.39644660940687
21
-116.21078643762687
31
0
0
ARC
5
11A
100
AcDbEntity
8
PERIMETER
100
AcDbCircle
10
-102.98223304703377
20
-117.62499999999996
30
0
40
1.9999999999999929
210
0
220
-0
230
1
100
AcDbArc
50
90
51
135
0
LINE
5
11B
100
AcDbEntity
8
PERIMETER
100
AcDbLine
10
-102.98223304703377
20
-115.62499999999994
30
0
11
-74.517766952966369
21
-115.62499999999999
31
0
0
ARC
5
11C
100
AcDbEntity
8
PERIMETER
100
AcDbCircle
10
-74.517766952966369
20
-117.625
30
0
40
1.999999999999996
210
0
220
-0
230
1
100
AcDbArc
50
45.000000000000291
51
90
0
LINE
5
11D
100
AcDbEntity
8
PERIMETER
100
AcDbLine
10
-73.103553390593277
20
-116.21078643762689
30
0
11
-52.275126265847085
21
-137.03921356237311
31
0
0
ARC
5
11E
100
AcDbEntity
8
PERIMETER
100
AcDbCircle
10
-50.860912703473971
20
-135.625
30
0
40
2.0000000000000084
210
0
220
0
230
1
100
AcDbArc
50
224.99999999999986
51
269.9999999999996
0
LINE
5
11F
100
AcDbEntity
8
PERIMETER
100
AcDbLine
10
-50.860912703473986
20
-137.625
30
0
11
-33.139087296525986
21
-137.62500000000003
31
0
0
ARC
5
120
100
AcDbEntity
8
PERIMETER
100
AcDbCircle
10
-33.139087296525986
20
-135.625
30
0
40
2.0000000000000107
210
0
220
0
230
1
100
AcDbArc
50
270
51
314.99999999999994
0
LINE
5
121
100
AcDbEntity
8
PERIMETER
100
AcDbLine
10
-31.724873734152883
20
-137.03921356237311
30
0
11
-10.896446609406718
21
-116.21078643762689
31
0
0
ARC
5
122
100
AcDbEntity
8
PERIMETER
100
AcDbCircle
10
-9.4822330470336311
20
-117.62500000000001
30
0
40
1.9999999999999929
210
0
220
-0
230
1
100
AcDbArc
50
90
51
134.9999999999992
0
LINE
5
123
100
AcDbEntity
8
PERIMETER
100
AcDbLine
10
-9.4822330470336311
20
-115.62500000000001
30
0
11
9.4822330470336365
21
-115.62500000000001
31
0
0
ARC
5
124
100
AcDbEntity
8
PERIMETER
100
AcDbCircle
10
9.4822330470336365
20
-117.62500000000001
30
0
40
2.0000000000000053
210
0
220
-0
230
1
100
AcDbArc
50
45.000000000000647
51
90
0
LINE
5
125
100
AcDbEntity
8
PERIMETER
100
AcDbLine
10
10.896446609406725
20
-116.21078643762692
30
0
11
31.724873734152929
21
-137.03921356237313
31
0
0
ARC
5
126
100
AcDbEntity
8
PERIMETER
100
AcDbCircle
10
33.139087296526021
20
-135.62500000000003
30
0
40
2.0000000000000115
210
0
220
0
230
1
100
AcDbArc
50
225.00000000000028
51
270
0
LINE
5
127
100
AcDbEntity
8
PERIMETER
100
AcDbLine
10
33.139087296526021
20
-137.62500000000003
30
0
11
50.860912703474
21
-137.62500000000006
31
0
0
ARC
5
128
100
AcDbEntity
8
PERIMETER
100
AcDbCircle
10
50.860912703474
20
-135.62500000000003
30
0
40
1.9999999999999929
210
-0
220
0
230
1
100
AcDbArc
50
270
51
314.99999999999972
0
LINE
5
129
100
AcDbEntity
8
PERIMETER
100
AcDbLine
10
52.275126265847092
20
-137.03921356237313
30
0
11
73.103553390593305
21
-116.21078643762694
31
0
0
ARC
5
12A
100
AcDbEntity
8
PERIMETER
100
AcDbCircle
10
74.517766952966383
20
-117.62500000000003
30
0
40
1.9999999999999929
210
0
220
0
230
1
100
AcDbArc
50
90
51
134.99999999999943
0
LINE
5
12B
100
AcDbEntity
8
PERIMETER
100
AcDbLine
10
74.517766952966383
20
-115.62500000000001
30
0
11
102.98223304703376
21
-115.62499999999993
31
0
0
ARC
5
12C
100
AcDbEntity
8
PERIMETER
100
AcDbCircle
10
102.98223304703376
20
-117.62499999999996
30
0
40
1.999999999999996
210
0
220
-0
230
1
100
AcDbArc
50
45
51
90
0
LINE
5
12D
100
AcDbEntity
8
PERIMETER
100
AcDbLine
10
104.39644660940685
20
-116.21078643762685
30
0
11
125.22487373415301
21
-137.03921356237302
31
0
0
ARC
5
12E
100
AcDbEntity
8
PERIMETER
100
AcDbCircle
10
126.63908729652611
20
-135.62499999999994
30
0
40
2.0000000000000084
210
0
220
0
230
1
100
AcDbArc
50
225
51
269.9999999999996
0
LINE
5
12F
100
AcDbEntity
8
PERIMETER
100
AcDbLine
10
126.6390872965261
20
-137.62499999999994
30
0
11
144.36091270347407
21
-137.62499999999994
31
0
0
ARC
5
130
100
AcDbEntity
8
PERIMETER
100
AcDbCircle
10
144.36091270347404
20
-135.62499999999989
30
0
40
2.0000000000000462
210
-0
220
0
230
1
100
AcDbArc
50
270.0000000000008
51
315.00000000000057
0
LINE
5
131
100
AcDbEntity
8
PERIMETER
100
AcDbLine
10
145.77512626584718
20
-137.03921356237302
30
0
11
166.60355339059336
21
-116.21078643762685
31
0
0
ARC
5
132
100
AcDbEntity
8
PERIMETER
100
AcDbCircle
10
168.01776695296644
20
-117.62499999999996
30
0
40
1.9999999999999929
210
0
220
-0
230
1
100
AcDbArc
50
90
51
134.99999999999972
0
LINE
5
133
100
AcDbEntity
8
PERIMETER
100
AcDbLine
10
168.01776695296644
20
-115.62499999999994
30
0
11
189.00000000000009
21
-115.62499999999984
31
0
0
ARC
5
134
100
AcDbEntity
8
PERIMETER
100
AcDbCircle
10
189.00000000000009
20
-113.62499999999983
30
0
40
1.9999999999999929
210
-0
220
0
230
1
100
AcDbArc
50
-90
51
0
0
LINE
5
135
100
AcDbEntity
8
PERIMETER
100
AcDbLine
10
191.00000000000009
20
-113.62499999999983
30
0
11
191.00000000000009
21
-112.6840169943749
31
0
0
ARC
5
136
100
AcDbEntity
8
PERIMETER
100
AcDbCircle
10
193.00000000000009
20
-112.6840169943749
30
0
40
1.9999999999999938
210
0
220
0
230
1
100
AcDbArc
50
116.56505117707729
51
180
0
LINE
5
137
100
AcDbEntity
8
PERIMETER
100
AcDbLine
10
192.10557280900019
20
-110.89516261237506
30
0
11
251.72360679775008
21
-81.086145618000174
31
0
0
ARC
5
138
100
AcDbEntity
8
PERIMETER
100
AcDbCircle
10
252.61803398875
20
-82.875
30
0
40
2.0000000000000107
210
0
220
-0
230
1
100
AcDbArc
50
90
51
116.56505117707817
0
LINE
5
139
100
AcDbEntity
8
PERIMETER
100
AcDbLine
10
252.61803398875
20
-80.874999999999986
30
0
11
280.50000000000006
21
-80.874999999999986
31
0
0
ARC
5
13A
100
AcDbEntity
8
PERIMETER
100
AcDbCircle
10
280.50000000000006
20
-78.874999999999972
30
0
40
2.0000000000000195
210
-0
220
0
230
1
100
AcDbArc
50
-90
51
0
0
LINE
5
13B
100
AcDbEntity
8
PERIMETER
100
AcDbLine
10
282.50000000000011
20
-78.874999999999972
30
0
11
282.5
21
44.125000000000028
31
0
0
ARC
5
13C
100
AcDbEntity
8
PERIMETER
100
AcDbCircle
10
280.5
20
44.125000000000028
30
0
40
1.9999999999999929
210
0
220
-0
230
1
100
AcDbArc
50
0
51
90
0
LINE
5
13D
100
AcDbEntity
8
PERIMETER
100
AcDbLine
10
280.5
20
46.125000000000028
30
0
11
252.70710678118647
21
46.125000000000028
31
0
0
ARC
5
13E
100
AcDbEntity
8
PERIMETER
100
AcDbCircle
10
252.70710678118647
20
48.125000000000014
30
0
40
1.999999999999996
210
0
220
0
230
1
100
AcDbArc
50
225.00000000000028
51
270
0
LINE
5
13F
100
AcDbEntity
8
PERIMETER
100
AcDbLine
10
251.29289321881339
20
46.710786437626922
30
0
11
191.58578643762692
21
106.41789321881339
31
0
0
ARC
5
140
100
AcDbEntity
8
PERIMETER
100
AcDbCircle
10
193
20
107.83210678118648
30
0
40
1.9999999999999929
210
0
220
0
230
1
100
AcDbArc
50
180
51
225.00000000000028
0
LINE
5
141
100
AcDbEntity
8
PERIMETER
100
AcDbLine
10
191
20
107.83210678118648
30
0
11
191
21
135.62500000000003
31
0
0
ARC
5
142
100
AcDbEntity
8
PERIMETER
100
AcDbCircle
10
189.00000000000003
20
135.62500000000003
30
0
40
1.9999999999999929
210
0
220
-0
230
1
100
AcDbArc
50
0
51
90
0
LINE
5
143
100
AcDbEntity
8
PERIMETER
100
AcDbLine
10
189.00000000000003
20
137.625
30
0
11
-189.00000000000009
21
137.62499999999977
31
0
0
ARC
5
144
100
AcDbEntity
8
PERIMETER
100
AcDbCircle
10
-189.00000000000011
20
135.62499999999977
30
0
40
1.9999999999999929
210
0
220
-0
230
1
100
AcDbArc
50
89.99999999999919
51
180
0
LINE
5
145
100
AcDbEntity
8
PERIMETER
100
AcDbLine
10
-191.00000000000011
20
135.62499999999977
30
0
11
-191.00000000000009
21
107.83210678118637
31
0
0
ARC
5
146
100
AcDbEntity
8
PERIMETER
100
AcDbCircle
10
-193.00000000000009
20
107.83210678118637
30
0
40
2.0000000000000213
210
-0
220
0
230
1
100
AcDbArc
50
-44.999999999999133
51
0
0
LINE
5
147
100
AcDbEntity
8
PERIMETER
100
AcDbLine
10
-191.58578643762695
20
106.41789321881328
30
0
11
-251.2928932188135
21
46.710786437626851
31
0
0
ARC
5
148
100
AcDbEntity
8
PERIMETER
100
AcDbCircle
10
-252.70710678118658
20
48.124999999999915
30
0
40
1.9999999999999929
210
-0
220
0
230
1
100
AcDbArc
50
270
51
315.00000000000028
0
LINE
5
149
100
AcDbEntity
8
PERIMETER
100
AcDbLine
10
-252.70710678118658
20
46.124999999999915
30
0
11
-280.50000000000006
21
46.124999999999915
31
0
0
ARC
5
14A
100
AcDbEntity
8
PERIMETER
100
AcDbCircle
10
-280.50000000000006
20
44.124999999999929
30
0
40
1.9999999999999929
210
0
220
-0
230
1
100
AcDbArc
50
90
51
180
0
ENDSEC
0
SECTION
2
OBJECTS
0
DICTIONARY
5
C
100
AcDbDictionary
3
ACAD_GROUP
350
D
3
ACAD_MLINESTYLE
350
17
0
DICTIONARY
5
D
100
AcDbDictionary
0
DICTIONARY
5
1A
330
C
100
AcDbDictionary
0
DICTIONARY
5
17
100
AcDbDictionary
0
ENDSEC
0
EOF
