0
SECTION
2
HEADER
9
$INSUNITS
70
4
9
$ACADVER
1
AC1014
9
$HANDSEED
5
FFFF
0
ENDSEC
0
SECTION
2
TABLES
0
TABLE
2
VPORT
5
8
100
AcDbSymbolTable
0
ENDTAB
0
TABLE
2
LTYPE
5
5
100
AcDbSymbolTable
70
2
0
LTYPE
5
14
100
AcDbSymbolTableRecord
100
AcDbLinetypeTableRecord
2
BYBLOCK
70
0
0
LTYPE
5
15
100
AcDbSymbolTableRecord
100
AcDbLinetypeTableRecord
2
BYLAYER
70
0
0
ENDTAB
0
TABLE
2
LAYER
5
2
100
AcDbSymbolTable
70
3
0
LAYER
5
50
100
AcDbSymbolTableRecord
100
AcDbLayerTableRecord
2
0
70
0
6
CONTINUOUS
0
LAYER
5
51
100
AcDbSymbolTableRecord
100
AcDbLayerTableRecord
2
CUTOUTS
70
0
62
1
6
CONTINUOUS
0
LAYER
5
52
100
AcDbSymbolTableRecord
100
AcDbLayerTableRecord
2
PERIMETER
70
0
62
5
6
CONTINUOUS
0
ENDTAB
0
TABLE
2
STYLE
5
3
100
AcDbSymbolTable
70
1
0
STYLE
5
11
100
AcDbSymbolTableRecord
100
AcDbTextStyleTableRecord
2
STANDARD
70
0
0
ENDTAB
0
TABLE
2
VIEW
5
6
100
AcDbSymbolTable
0
ENDTAB
0
TABLE
2
UCS
5
7
100
AcDbSymbolTable
0
ENDTAB
0
TABLE
2
APPID
5
9
100
AcDbSymbolTable
70
1
0
APPID
5
12
100
AcDbSymbolTableRecord
100
AcDbRegAppTableRecord
2
ACAD
70
0
0
ENDTAB
0
TABLE
2
DIMSTYLE
5
A
100
AcDbSymbolTable
0
ENDTAB
0
TABLE
2
BLOCK_RECORD
5
1
100
AcDbSymbolTable
70
2
0
BLOCK_RECORD
5
1F
100
AcDbSymbolTableRecord
100
AcDbBlockTableRecord
2
*MODEL_SPACE
0
BLOCK_RECORD
5
1B
100
AcDbSymbolTableRecord
100
AcDbBlockTableRecord
2
*PAPER_SPACE
0
ENDTAB
0
ENDSEC
0
SECTION
2
BLOCKS
0
BLOCK
5
20
100
AcDbEntity
100
AcDbBlockBegin
2
*MODEL_SPACE
0
ENDBLK
5
21
100
AcDbEntity
100
AcDbBlockEnd
0
BLOCK
5
1C
100
AcDbEntity
100
AcDbBlockBegin
2
*PAPER_SPACE
0
ENDBLK
5
1D
100
AcDbEntity
100
AcDbBlockEnd
0
ENDSEC
0
SECTION
2
ENTITIES
0
CIRCLE
5
100
100
AcDbEntity
8
CUTOUTS
100
AcDbCircle
10
234.99999999999986
20
-65.000000000000156
30
0
40
3.2999999999999829
210
0
220
0
230
1
0
CIRCLE
5
101
100
AcDbEntity
8
CUTOUTS
100
AcDbCircle
10
144.99999999987787
20
124.99999999997956
30
0
40
3.3000000000000007
210
0
220
0
230
1
0
CIRCLE
5
102
100
AcDbEntity
8
CUTOUTS
100
AcDbCircle
10
234.99999999999994
20
34.999999999999893
30
0
40
3.2999999999999829
210
0
220
0
230
1
0
CIRCLE
5
103
100
AcDbEntity
8
CUTOUTS
100
AcDbCircle
10
144.99999999999994
20
-125.00000000000003
30
0
40
3.3000000000000007
210
0
220
0
230
1
0
CIRCLE
5
104
100
AcDbEntity
8
CUTOUTS
100
AcDbCircle
10
-7.1054273576010019e-14
20
-125.00000000000011
30
0
40
3.3000000000000003
210
0
220
0
230
1
0
CIRCLE
5
105
100
AcDbEntity
8
CUTOUTS
100
AcDbCircle
10
-235
20
-65.000000000000156
30
0
40
3.2999999999999829
210
0
220
0
230
1
0
CIRCLE
5
106
100
AcDbEntity
8
CUTOUTS
100
AcDbCircle
10
-6.404233868363117e-14
20
124.99999999997968
30
0
40
3.3000000000000003
210
0
220
0
230
1
0
CIRCLE
5
107
100
AcDbEntity
8
CUTOUTS
100
AcDbCircle
10
-144.99999999987801
20
124.99999999997956
30
0
40
3.3000000000000007
210
0
220
0
230
1
0
CIRCLE
5
108
100
AcDbEntity
8
CUTOUTS
100
AcDbCircle
10
-235.00000000000006
20
34.999999999999893
30
0
40
3.2999999999999829
210
0
220
0
230
1
0
CIRCLE
5
109
100
AcDbEntity
8
CUTOUTS
100
AcDbCircle
10
-145.00000000000006
20
-125.00000000000003
30
0
40
3.3000000000000007
210
0
220
0
230
1
0
LINE
5
10A
100
AcDbEntity
8
PERIMETER
100
AcDbLine
10
-219.22360679775005
20
-78.711145618000302
30
0
11
-159.60557280900019
21
-108.52016261237512
31
0
0
ARC
5
10B
100
AcDbEntity
8
PERIMETER
100
AcDbCircle
10
-160.50000000000011
20
-110.30901699437496
30
0
40
1.9999999999999929
210
0
220
-0
230
1
100
AcDbArc
50
0
51
63.434948822921648
0
LINE
5
10C
100
AcDbEntity
8
PERIMETER
100
AcDbLine
10
-158.50000000000011
20
-110.30901699437496
30
0
11
-158.50000000000006
21
-138.00000000000006
31
0
0
ARC
5
10D
100
AcDbEntity
8
PERIMETER
100
AcDbCircle
10
-156.50000000000006
20
-138.00000000000006
30
0
40
1.9999999999999929
210
0
220
0
230
1
100
AcDbArc
50
180
51
270
0
LINE
5
10E
100
AcDbEntity
8
PERIMETER
100
AcDbLine
10
-156.50000000000006
20
-140.00000000000003
30
0
11
156.50000000000006
21
-140.00000000000003
31
0
0
ARC
5
10F
100
AcDbEntity
8
PERIMETER
100
AcDbCircle
10
156.50000000000006
20
-138.00000000000003
30
0
40
2.0000000000000107
210
-0
220
0
230
1
100
AcDbArc
50
-90
51
0
0
LINE
5
110
100
AcDbEntity
8
PERIMETER
100
AcDbLine
10
158.50000000000006
20
-138
30
0
11
158.50000000000006
21
-110.3090169943749
31
0
0
ARC
5
111
100
AcDbEntity
8
PERIMETER
100
AcDbCircle
10
160.50000000000009
20
-110.30901699437491
30
0
40
1.9999999999999938
210
0
220
0
230
1
100
AcDbArc
50
116.56505117707817
51
180
0
LINE
5
112
100
AcDbEntity
8
PERIMETER
100
AcDbLine
10
159.60557280900017
20
-108.52016261237507
30
0
11
219.22360679775008
21
-78.711145618000188
31
0
0
ARC
5
113
100
AcDbEntity
8
PERIMETER
100
AcDbCircle
10
220.11803398875
20
-80.5
30
0
40
2.0000000000000018
210
0
220
-0
230
1
100
AcDbArc
50
90
51
116.56505117707817
0
LINE
5
114
100
AcDbEntity
8
PERIMETER
100
AcDbLine
10
220.11803398875
20
-78.5
30
0
11
248.00000000000009
21
-78.499999999999986
31
0
0
ARC
5
115
100
AcDbEntity
8
PERIMETER
100
AcDbCircle
10
248.00000000000009
20
-76.499999999999972
30
0
40
2.0000000000000107
210
-0
220
0
230
1
100
AcDbArc
50
270
51
360
0
LINE
5
116
100
AcDbEntity
8
PERIMETER
100
AcDbLine
10
250.00000000000006
20
-76.499999999999986
30
0
11
250
21
46.500000000000163
31
0
0
ARC
5
117
100
AcDbEntity
8
PERIMETER
100
AcDbCircle
10
248
20
46.500000000000163
30
0
40
1.9999999999999929
210
0
220
-0
230
1
100
AcDbArc
50
0
51
90
0
LINE
5
118
100
AcDbEntity
8
PERIMETER
100
AcDbLine
10
248
20
48.500000000000156
30
0
11
220.20710678118616
21
48.500000000000121
31
0
0
ARC
5
119
100
AcDbEntity
8
PERIMETER
100
AcDbCircle
10
220.20710678118616
20
50.500000000000114
30
0
40
2.0000000000000213
210
0
220
0
230
1
100
AcDbArc
50
225.00000000007657
51
270
0
LINE
5
11A
100
AcDbEntity
8
PERIMETER
100
AcDbLine
10
218.79289321881492
20
49.085786437625103
30
0
11
159.08578643750667
21
108.79289321877152
31
0
0
ARC
5
11B
100
AcDbEntity
8
PERIMETER
100
AcDbCircle
10
160.49999999987784
20
110.20710678114651
30
0
40
1.9999999999999929
210
0
220
0
230
1
100
AcDbArc
50
180
51
225.00000000007745
0
LINE
5
11C
100
AcDbEntity
8
PERIMETER
100
AcDbLine
10
158.49999999987784
20
110.20710678114651
30
0
11
158.49999999987782
21
138
31
0
0
ARC
5
11D
100
AcDbEntity
8
PERIMETER
100
AcDbCircle
10
156.49999999987784
20
138
30
0
40
1.9999999999999751
210
0
220
-0
230
1
100
AcDbArc
50
0
51
90.00000000000081
0
LINE
5
11E
100
AcDbEntity
8
PERIMETER
100
AcDbLine
10
156.49999999987782
20
139.99999999999997
30
0
11
-156.49999999987801
21
139.99999999999974
31
0
0
ARC
5
11F
100
AcDbEntity
8
PERIMETER
100
AcDbCircle
10
-156.49999999987799
20
137.99999999999977
30
0
40
1.9999999999999929
210
0
220
0
230
1
100
AcDbArc
50
90.00000000000081
51
180
0
LINE
5
120
100
AcDbEntity
8
PERIMETER
100
AcDbLine
10
-158.49999999987799
20
137.9999999999998
30
0
11
-158.49999999987799
21
110.20710678114632
31
0
0
ARC
5
121
100
AcDbEntity
8
PERIMETER
100
AcDbCircle
10
-160.49999999987801
20
110.20710678114632
30
0
40
2.0000000000000084
210
-0
220
0
230
1
100
AcDbArc
50
-45.000000000077144
51
0
0
LINE
5
122
100
AcDbEntity
8
PERIMETER
100
AcDbLine
10
-159.08578643750681
20
108.79289321877131
30
0
11
-218.79289321881504
21
49.08578643762489
31
0
0
ARC
5
123
100
AcDbEntity
8
PERIMETER
100
AcDbCircle
10
-220.20710678118621
20
50.499999999999901
30
0
40
1.9999999999999929
210
-0
220
0
230
1
100
AcDbArc
50
270
51
314.9999999999223
0
LINE
5
124
100
AcDbEntity
8
PERIMETER
100
AcDbLine
10
-220.20710678118621
20
48.499999999999908
30
0
11
-248.00000000000006
21
48.499999999999908
31
0
0
ARC
5
125
100
AcDbEntity
8
PERIMETER
100
AcDbCircle
10
-248.00000000000006
20
46.499999999999915
30
0
40
1.9999999999999929
210
0
220
-0
230
1
100
AcDbArc
50
90
51
180
0
LINE
5
126
100
AcDbEntity
8
PERIMETER
100
AcDbLine
10
-250.00000000000003
20
46.499999999999915
30
0
11
-250.00000000000006
21
-76.500000000000128
31
0
0
ARC
5
127
100
AcDbEntity
8
PERIMETER
100
AcDbCircle
10
-248.00000000000009
20
-76.500000000000114
30
0
40
1.9999999999999929
210
0
220
0
230
1
100
AcDbArc
50
180
51
270
0
LINE
5
128
100
AcDbEntity
8
PERIMETER
100
AcDbLine
10
-248.00000000000009
20
-78.500000000000114
30
0
11
-220.11803398874997
21
-78.500000000000142
31
0
0
ARC
5
129
100
AcDbEntity
8
PERIMETER
100
AcDbCircle
10
-220.11803398874997
20
-80.500000000000142
30
0
40
2.0000000000000018
210
0
220
-0
230
1
100
AcDbArc
50
63.434948822921832
51
90
0
ENDSEC
0
SECTION
2
OBJECTS
0
DICTIONARY
5
C
100
AcDbDictionary
3
ACAD_GROUP
350
D
3
ACAD_MLINESTYLE
350
17
0
DICTIONARY
5
D
100
AcDbDictionary
0
DICTIONARY
5
1A
330
C
100
AcDbDictionary
0
DICTIONARY
5
17
100
AcDbDictionary
0
ENDSEC
0
EOF
