<?xml version="1.0" encoding="UTF-8"?>
<svg width="300px" height="300px" viewBox="0 0 300 300" version="1.1" xmlns="http://www.w3.org/2000/svg" xmlns:xlink="http://www.w3.org/1999/xlink" xmlns:sketch="http://www.bohemiancoding.com/sketch/ns">
    <!-- Generator: Sketch 3.4.2 (15855) - http://www.bohemiancoding.com/sketch -->
    <title>Bed-Texture</title>
    <desc>Created with Sketch.</desc>
    <defs></defs>
    <g id="Page-1" stroke="none" stroke-width="1" fill="none" fill-rule="evenodd" sketch:type="MSPage">
        <g id="Bed-Texture" sketch:type="MSLayerGroup">
            <rect id="Rectangle-1" sketch:type="MSShapeGroup" x="0" y="0" width="300" height="300"></rect>
            <g id="Grid-H-10" transform="translate(10.000000, 9.000000)" stroke="#5D5D5D" stroke-linecap="square" stroke-dasharray="4,2" sketch:type="MSShapeGroup">
                <path d="M0,1 L289,1" id="Line"></path>
                <path d="M0,11 L289,11" id="Line"></path>
                <path d="M0,21 L289,21" id="Line"></path>
                <path d="M0,31 L289,31" id="Line"></path>
                <path d="M0,51 L289,51" id="Line"></path>
                <path d="M0,61 L289,61" id="Line"></path>
                <path d="M0,71 L289,71" id="Line"></path>
                <path d="M0,81 L289,81" id="Line"></path>
                <path d="M0,101 L289,101" id="Line"></path>
                <path d="M0,111 L289,111" id="Line"></path>
                <path d="M0,121 L289,121" id="Line"></path>
                <path d="M0,131 L289,131" id="Line"></path>
                <path d="M0,151 L289,151" id="Line"></path>
                <path d="M0,161 L289,161" id="Line"></path>
                <path d="M0,171 L289,171" id="Line"></path>
                <path d="M0,181 L289,181" id="Line"></path>
                <path d="M0,201 L289,201" id="Line"></path>
                <path d="M0,211 L289,211" id="Line"></path>
                <path d="M0,221 L289,221" id="Line"></path>
                <path d="M0,231 L289,231" id="Line"></path>
                <path d="M0,251 L289,251" id="Line"></path>
                <path d="M0,261 L289,261" id="Line"></path>
                <path d="M0,271 L289,271" id="Line"></path>
                <path d="M0,281 L289,281" id="Line"></path>
            </g>
            <g id="Grid-V-10" transform="translate(9.000000, 1.000000)" stroke="#5D5D5D" stroke-linecap="square" stroke-dasharray="4,2" sketch:type="MSShapeGroup">
                <path d="M1,0 L1,289" id="Line"></path>
                <path d="M11,0 L11,289" id="Line"></path>
                <path d="M21,0 L21,289" id="Line"></path>
                <path d="M31,0 L31,289" id="Line"></path>
                <path d="M51,0 L51,289" id="Line"></path>
                <path d="M61,0 L61,289" id="Line"></path>
                <path d="M71,0 L71,289" id="Line"></path>
                <path d="M81,0 L81,289" id="Line"></path>
                <path d="M101,0 L101,289" id="Line"></path>
                <path d="M111,0 L111,289" id="Line"></path>
                <path d="M121,0 L121,289" id="Line"></path>
                <path d="M131,0 L131,289" id="Line"></path>
                <path d="M151,0 L151,289" id="Line"></path>
                <path d="M161,0 L161,289" id="Line"></path>
                <path d="M171,0 L171,289" id="Line"></path>
                <path d="M181,0 L181,289" id="Line"></path>
                <path d="M201,0 L201,289" id="Line"></path>
                <path d="M211,0 L211,289" id="Line"></path>
                <path d="M221,0 L221,289" id="Line"></path>
                <path d="M231,0 L231,289" id="Line"></path>
                <path d="M251,0 L251,289" id="Line"></path>
                <path d="M261,0 L261,289" id="Line"></path>
                <path d="M271,0 L271,289" id="Line"></path>
                <path d="M281,0 L281,289" id="Line"></path>
            </g>
            <g id="Grid-50" transform="translate(10.000000, 1.000000)" stroke="#979797" stroke-linecap="square" sketch:type="MSShapeGroup">
                <path d="M0,49 L289,49" id="Line"></path>
                <path d="M0,99 L289,99" id="Line"></path>
                <path d="M0,149 L289,149" id="Line"></path>
                <path d="M0,199 L289,199" id="Line"></path>
                <path d="M0,249 L289,249" id="Line"></path>
                <path d="M40,0 L40,289" id="Line"></path>
                <path d="M90,0 L90,289" id="Line"></path>
                <path d="M140,0 L140,289" id="Line"></path>
                <path d="M190,0 L190,289" id="Line"></path>
                <path d="M240,0 L240,289" id="Line"></path>
            </g>
            <g id="Rat" transform="translate(51.000000, 44.000000)" stroke="#A4A4A4" stroke-width="2" sketch:type="MSShapeGroup">
                <path d="M53.1863017,68.8934971 C51.7448159,70.7362658 50.5700656,74.728412 52.1759679,79.9212672 C53.9116279,85.5337072 59.0265264,93.0456191 62.5614289,97.83691 C65.4044733,101.69044 66.9560191,103.651981 66.9560191,102.45545 C66.9560191,97.5183173 67.4726397,86.116796 67.4726397,86.116796 C67.4726397,86.116796 62.5071023,77.0787946 59.8429912,73.0505749 C58.4653649,70.9675607 55.3474276,67.7830944 55.3474276,67.7830944 C55.3474276,67.7830944 54.1040938,67.7202088 53.1863017,68.8934971 Z" id="Path-1"></path>
                <path d="M28.4795395,24.4758805 C27.6462119,25.5133639 25.5179075,28.0390895 24.0731938,29.6405795 C22.3815456,31.5158005 21.4177518,32.4063383 21.4177518,32.4063383 C21.4177518,32.4063383 20.3939318,31.7981924 19.1924252,28.9340692 C17.8707264,25.7834344 16.3356088,20.2839047 15.7487902,18.6978077 C14.7333568,15.9532187 15.0106316,15.0886973 15.0106316,15.0886973 C15.0106316,15.0886973 22.7646769,18.0618222 25.5338375,19.4712315 C26.3694078,19.8965086 27.3832462,20.3336221 28.0430946,20.8625505 C28.9926221,21.6236829 29.4320022,22.4286885 29.4320022,22.4286885 C29.4320022,22.4286885 29.3418664,23.4022934 28.4795395,24.4758805 Z" id="Path-2"></path>
                <g id="Path-3-+-Line">
                    <path d="M99.8081462,14.8032599 L33.32444,14.8249616 L0.285135991,0.068119169 L55.3061342,138.158033 C55.3061342,138.158033 55.0018129,138.648807 53.3517771,138.785272 C47.365433,139.280366 32.3969945,140.05271 32.3969945,140.05271 C32.3969945,140.05271 48.1175378,139.966232 54.6195171,140.743246 C56.6753349,140.988924 58.0703859,143.120785 58.0703859,143.120785 C58.0703859,143.120785 58.9977822,146.230003 57.353929,147.339653 C55.5432294,148.561929 46.818777,152.071818 43.7738,153.568337 C37.7446674,156.531482 36.9510322,157.376982 36.9510322,157.376982 C36.9510322,157.376982 38.0657847,157.412254 39.0856338,157.064719 C43.3418487,155.614323 51.613483,152.071493 56.4551177,150.299822 C59.3296896,149.247947 60.3602148,149.399805 60.3602148,149.399805 C60.3602148,149.399805 61.3426032,151.438756 61.6225293,152.264126 C61.8676633,152.98691 61.9353952,154.044267 61.9353952,154.044267 C61.9353952,154.044267 61.2106128,156.265146 60.3602148,157.376982 C58.3914999,159.95094 54.0689535,164.594391 51.3317122,167.871252 C48.3106102,171.487935 46.9594261,173.624308 46.9594261,173.624308 C46.9594261,173.624308 51.0528596,170.118595 52.290806,168.968092 C55.2248289,166.241316 59.512001,161.753989 61.9353952,159.413323 C63.1183301,158.270771 63.7719001,157.999398 63.7719001,157.999398 C63.7719001,157.999398 67.0801145,165.166646 68.3096616,167.175292 C71.925216,173.081832 78.3072046,181.744957 78.3072046,181.744957 L99.9009811,181.690703" id="Path-3"></path>
                    <path d="M99.3840591,15.1236612 L99.3840591,181.483934" id="Line" stroke-linecap="square"></path>
                </g>
                <path d="M99.3704958,185.423362 C99.3704958,185.423362 88.2282785,185.268085 83.2594081,185.423362 C82.5472604,185.445617 82.3274414,185.955957 82.3274414,185.955957 C82.3274414,185.955957 81.9641327,187.333597 82.8558171,188.102917 C84.8520648,189.825223 88.8865453,196.993087 91.9421906,199.284407 C93.9419971,200.78399 95.5351189,200.616024 96.8256719,200.594947 C98.269265,200.571372 99.2948413,200.594948 99.2948413,200.594948 L99.3704958,185.423362 Z" id="Path-4"></path>
            </g>
            <g id="Num-Shapes" transform="translate(2.000000, 8.000000)" sketch:type="MSShapeGroup">
                <path d="M4.125,283 L3.57617188,283 L3.57617188,280.931641 C3.37565004,281.119142 3.13932428,281.257812 2.8671875,281.347656 L2.8671875,280.849609 C3.01041738,280.802734 3.16601479,280.713868 3.33398438,280.583008 C3.50195396,280.452148 3.61718719,280.29948 3.6796875,280.125 L4.125,280.125 L4.125,283 Z M5.87304688,280.125 C6.15039201,280.125 6.36718672,280.223957 6.5234375,280.421875 C6.70963635,280.656251 6.80273438,281.044919 6.80273438,281.587891 C6.80273438,282.12956 6.70898531,282.518879 6.52148438,282.755859 C6.36653568,282.951173 6.15039201,283.048828 5.87304688,283.048828 C5.59439965,283.048828 5.36979252,282.941733 5.19921875,282.727539 C5.02864498,282.513345 4.94335938,282.131513 4.94335938,281.582031 C4.94335938,281.042966 5.03710844,280.654949 5.22460938,280.417969 C5.37955807,280.222655 5.59570174,280.125 5.87304688,280.125 L5.87304688,280.125 Z M5.87304688,280.580078 C5.80664029,280.580078 5.74739609,280.601237 5.6953125,280.643555 C5.64322891,280.685873 5.60286473,280.761718 5.57421875,280.871094 C5.53645814,281.013022 5.51757812,281.251951 5.51757812,281.587891 C5.51757812,281.92383 5.53450504,282.154622 5.56835938,282.280273 C5.60221371,282.405925 5.64485651,282.489583 5.69628906,282.53125 C5.74772161,282.572917 5.80664029,282.59375 5.87304688,282.59375 C5.93945346,282.59375 5.99869766,282.572591 6.05078125,282.530273 C6.10286484,282.487956 6.14322902,282.41211 6.171875,282.302734 C6.20963561,282.162109 6.22851562,281.92383 6.22851562,281.587891 C6.22851562,281.251951 6.21158871,281.021159 6.17773438,280.895508 C6.14388004,280.769856 6.10123724,280.685873 6.04980469,280.643555 C5.99837214,280.601237 5.93945346,280.580078 5.87304688,280.580078 L5.87304688,280.580078 Z" id="10" fill="#A4A4A4"></path>
                <path d="M2.72851562,242.263672 L3.27539062,242.207031 C3.2910157,242.33073 3.3372392,242.428711 3.4140625,242.500977 C3.4908858,242.573243 3.57942658,242.609375 3.6796875,242.609375 C3.79427141,242.609375 3.89127564,242.562826 3.97070312,242.469727 C4.05013061,242.376627 4.08984375,242.236329 4.08984375,242.048828 C4.08984375,241.873046 4.05045612,241.741211 3.97167969,241.65332 C3.89290325,241.565429 3.79036521,241.521484 3.6640625,241.521484 C3.50650963,241.521484 3.365235,241.591145 3.24023438,241.730469 L2.79492188,241.666016 L3.07617188,240.175781 L4.52734375,240.175781 L4.52734375,240.689453 L3.4921875,240.689453 L3.40625,241.175781 C3.52864645,241.114583 3.6536452,241.083984 3.78125,241.083984 C4.0247408,241.083984 4.23111895,241.172525 4.40039062,241.349609 C4.5696623,241.526694 4.65429688,241.756509 4.65429688,242.039062 C4.65429688,242.274741 4.58593818,242.485025 4.44921875,242.669922 C4.2630199,242.922527 4.00455895,243.048828 3.67382812,243.048828 C3.40950389,243.048828 3.19401125,242.977865 3.02734375,242.835938 C2.86067625,242.69401 2.76106787,242.503256 2.72851562,242.263672 L2.72851562,242.263672 Z M5.87304688,240.125 C6.15039201,240.125 6.36718672,240.223957 6.5234375,240.421875 C6.70963635,240.656251 6.80273438,241.044919 6.80273438,241.587891 C6.80273438,242.12956 6.70898531,242.518879 6.52148438,242.755859 C6.36653568,242.951173 6.15039201,243.048828 5.87304688,243.048828 C5.59439965,243.048828 5.36979252,242.941733 5.19921875,242.727539 C5.02864498,242.513345 4.94335938,242.131513 4.94335938,241.582031 C4.94335938,241.042966 5.03710844,240.654949 5.22460938,240.417969 C5.37955807,240.222655 5.59570174,240.125 5.87304688,240.125 L5.87304688,240.125 Z M5.87304688,240.580078 C5.80664029,240.580078 5.74739609,240.601237 5.6953125,240.643555 C5.64322891,240.685873 5.60286473,240.761718 5.57421875,240.871094 C5.53645814,241.013022 5.51757812,241.251951 5.51757812,241.587891 C5.51757812,241.92383 5.53450504,242.154622 5.56835938,242.280273 C5.60221371,242.405925 5.64485651,242.489583 5.69628906,242.53125 C5.74772161,242.572917 5.80664029,242.59375 5.87304688,242.59375 C5.93945346,242.59375 5.99869766,242.572591 6.05078125,242.530273 C6.10286484,242.487956 6.14322902,242.41211 6.171875,242.302734 C6.20963561,242.162109 6.22851562,241.92383 6.22851562,241.587891 C6.22851562,241.251951 6.21158871,241.021159 6.17773438,240.895508 C6.14388004,240.769856 6.10123724,240.685873 6.04980469,240.643555 C5.99837214,240.601237 5.93945346,240.580078 5.87304688,240.580078 L5.87304688,240.580078 Z" id="50" fill="#E0E0E0"></path>
                <path d="M1.90039062,193 L1.3515625,193 L1.3515625,190.931641 C1.15104066,191.119142 0.914714902,191.257812 0.642578125,191.347656 L0.642578125,190.849609 C0.785808008,190.802734 0.94140541,190.713868 1.109375,190.583008 C1.27734459,190.452148 1.39257781,190.29948 1.45507812,190.125 L1.90039062,190.125 L1.90039062,193 Z M3.6484375,190.125 C3.92578264,190.125 4.14257734,190.223957 4.29882812,190.421875 C4.48502697,190.656251 4.578125,191.044919 4.578125,191.587891 C4.578125,192.12956 4.48437594,192.518879 4.296875,192.755859 C4.14192631,192.951173 3.92578264,193.048828 3.6484375,193.048828 C3.36979027,193.048828 3.14518314,192.941733 2.97460938,192.727539 C2.80403561,192.513345 2.71875,192.131513 2.71875,191.582031 C2.71875,191.042966 2.81249906,190.654949 3,190.417969 C3.15494869,190.222655 3.37109236,190.125 3.6484375,190.125 L3.6484375,190.125 Z M3.6484375,190.580078 C3.58203092,190.580078 3.52278672,190.601237 3.47070312,190.643555 C3.41861953,190.685873 3.37825535,190.761718 3.34960938,190.871094 C3.31184877,191.013022 3.29296875,191.251951 3.29296875,191.587891 C3.29296875,191.92383 3.30989566,192.154622 3.34375,192.280273 C3.37760434,192.405925 3.42024714,192.489583 3.47167969,192.53125 C3.52311224,192.572917 3.58203092,192.59375 3.6484375,192.59375 C3.71484408,192.59375 3.77408828,192.572591 3.82617188,192.530273 C3.87825547,192.487956 3.91861965,192.41211 3.94726562,192.302734 C3.98502623,192.162109 4.00390625,191.92383 4.00390625,191.587891 C4.00390625,191.251951 3.98697934,191.021159 3.953125,190.895508 C3.91927066,190.769856 3.87662786,190.685873 3.82519531,190.643555 C3.77376276,190.601237 3.71484408,190.580078 3.6484375,190.580078 L3.6484375,190.580078 Z M5.87304688,190.125 C6.15039201,190.125 6.36718672,190.223957 6.5234375,190.421875 C6.70963635,190.656251 6.80273438,191.044919 6.80273438,191.587891 C6.80273438,192.12956 6.70898531,192.518879 6.52148438,192.755859 C6.36653568,192.951173 6.15039201,193.048828 5.87304688,193.048828 C5.59439965,193.048828 5.36979252,192.941733 5.19921875,192.727539 C5.02864498,192.513345 4.94335938,192.131513 4.94335938,191.582031 C4.94335938,191.042966 5.03710844,190.654949 5.22460938,190.417969 C5.37955807,190.222655 5.59570174,190.125 5.87304688,190.125 L5.87304688,190.125 Z M5.87304688,190.580078 C5.80664029,190.580078 5.74739609,190.601237 5.6953125,190.643555 C5.64322891,190.685873 5.60286473,190.761718 5.57421875,190.871094 C5.53645814,191.013022 5.51757812,191.251951 5.51757812,191.587891 C5.51757812,191.92383 5.53450504,192.154622 5.56835938,192.280273 C5.60221371,192.405925 5.64485651,192.489583 5.69628906,192.53125 C5.74772161,192.572917 5.80664029,192.59375 5.87304688,192.59375 C5.93945346,192.59375 5.99869766,192.572591 6.05078125,192.530273 C6.10286484,192.487956 6.14322902,192.41211 6.171875,192.302734 C6.20963561,192.162109 6.22851562,191.92383 6.22851562,191.587891 C6.22851562,191.251951 6.21158871,191.021159 6.17773438,190.895508 C6.14388004,190.769856 6.10123724,190.685873 6.04980469,190.643555 C5.99837214,190.601237 5.93945346,190.580078 5.87304688,190.580078 L5.87304688,190.580078 Z" id="100" fill="#E0E0E0"></path>
                <path d="M1.90039062,143 L1.3515625,143 L1.3515625,140.931641 C1.15104066,141.119142 0.914714902,141.257812 0.642578125,141.347656 L0.642578125,140.849609 C0.785808008,140.802734 0.94140541,140.713868 1.109375,140.583008 C1.27734459,140.452148 1.39257781,140.29948 1.45507812,140.125 L1.90039062,140.125 L1.90039062,143 Z M2.72851562,142.263672 L3.27539062,142.207031 C3.2910157,142.33073 3.3372392,142.428711 3.4140625,142.500977 C3.4908858,142.573243 3.57942658,142.609375 3.6796875,142.609375 C3.79427141,142.609375 3.89127564,142.562826 3.97070312,142.469727 C4.05013061,142.376627 4.08984375,142.236329 4.08984375,142.048828 C4.08984375,141.873046 4.05045612,141.741211 3.97167969,141.65332 C3.89290325,141.565429 3.79036521,141.521484 3.6640625,141.521484 C3.50650963,141.521484 3.365235,141.591145 3.24023438,141.730469 L2.79492188,141.666016 L3.07617188,140.175781 L4.52734375,140.175781 L4.52734375,140.689453 L3.4921875,140.689453 L3.40625,141.175781 C3.52864645,141.114583 3.6536452,141.083984 3.78125,141.083984 C4.0247408,141.083984 4.23111895,141.172525 4.40039062,141.349609 C4.5696623,141.526694 4.65429688,141.756509 4.65429688,142.039062 C4.65429688,142.274741 4.58593818,142.485025 4.44921875,142.669922 C4.2630199,142.922527 4.00455895,143.048828 3.67382812,143.048828 C3.40950389,143.048828 3.19401125,142.977865 3.02734375,142.835938 C2.86067625,142.69401 2.76106787,142.503256 2.72851562,142.263672 L2.72851562,142.263672 Z M5.87304688,140.125 C6.15039201,140.125 6.36718672,140.223957 6.5234375,140.421875 C6.70963635,140.656251 6.80273438,141.044919 6.80273438,141.587891 C6.80273438,142.12956 6.70898531,142.518879 6.52148438,142.755859 C6.36653568,142.951173 6.15039201,143.048828 5.87304688,143.048828 C5.59439965,143.048828 5.36979252,142.941733 5.19921875,142.727539 C5.02864498,142.513345 4.94335938,142.131513 4.94335938,141.582031 C4.94335938,141.042966 5.03710844,140.654949 5.22460938,140.417969 C5.37955807,140.222655 5.59570174,140.125 5.87304688,140.125 L5.87304688,140.125 Z M5.87304688,140.580078 C5.80664029,140.580078 5.74739609,140.601237 5.6953125,140.643555 C5.64322891,140.685873 5.60286473,140.761718 5.57421875,140.871094 C5.53645814,141.013022 5.51757812,141.251951 5.51757812,141.587891 C5.51757812,141.92383 5.53450504,142.154622 5.56835938,142.280273 C5.60221371,142.405925 5.64485651,142.489583 5.69628906,142.53125 C5.74772161,142.572917 5.80664029,142.59375 5.87304688,142.59375 C5.93945346,142.59375 5.99869766,142.572591 6.05078125,142.530273 C6.10286484,142.487956 6.14322902,142.41211 6.171875,142.302734 C6.20963561,142.162109 6.22851562,141.92383 6.22851562,141.587891 C6.22851562,141.251951 6.21158871,141.021159 6.17773438,140.895508 C6.14388004,140.769856 6.10123724,140.685873 6.04980469,140.643555 C5.99837214,140.601237 5.93945346,140.580078 5.87304688,140.580078 L5.87304688,140.580078 Z" id="150" fill="#E0E0E0"></path>
                <path d="M2.34960938,92.4902344 L2.34960938,93 L0.42578125,93 C0.446614687,92.8072907 0.509114063,92.6246753 0.61328125,92.4521484 C0.717448437,92.2796215 0.923175547,92.0507827 1.23046875,91.765625 C1.47786582,91.5351551 1.62955701,91.3789067 1.68554688,91.296875 C1.76106809,91.1835932 1.79882812,91.0716151 1.79882812,90.9609375 C1.79882812,90.8385411 1.76595085,90.7444665 1.70019531,90.6787109 C1.63443978,90.6129554 1.54362037,90.5800781 1.42773438,90.5800781 C1.31315047,90.5800781 1.22200555,90.614583 1.15429688,90.6835938 C1.0865882,90.7526045 1.04752609,90.8671867 1.03710938,91.0273438 L0.490234375,90.9726562 C0.522786621,90.6705714 0.624999141,90.4537767 0.796875,90.3222656 C0.968750859,90.1907546 1.18359246,90.125 1.44140625,90.125 C1.72395975,90.125 1.94596273,90.2011711 2.10742188,90.3535156 C2.26888102,90.5058601 2.34960938,90.6953114 2.34960938,90.921875 C2.34960938,91.0507819 2.32649763,91.173502 2.28027344,91.2900391 C2.23404925,91.4065761 2.16080779,91.5286452 2.06054688,91.65625 C1.99414029,91.7408858 1.87434982,91.8626294 1.70117188,92.0214844 C1.52799393,92.1803393 1.4182945,92.285807 1.37207031,92.3378906 C1.32584612,92.3899742 1.2884116,92.440755 1.25976562,92.4902344 L2.34960938,92.4902344 Z M3.6484375,90.125 C3.92578264,90.125 4.14257734,90.2239573 4.29882812,90.421875 C4.48502697,90.6562512 4.578125,91.0449192 4.578125,91.5878906 C4.578125,92.12956 4.48437594,92.518879 4.296875,92.7558594 C4.14192631,92.9511729 3.92578264,93.0488281 3.6484375,93.0488281 C3.36979027,93.0488281 3.14518314,92.9417328 2.97460938,92.7275391 C2.80403561,92.5133453 2.71875,92.1315132 2.71875,91.5820312 C2.71875,91.0429661 2.81249906,90.6549491 3,90.4179688 C3.15494869,90.2226553 3.37109236,90.125 3.6484375,90.125 L3.6484375,90.125 Z M3.6484375,90.5800781 C3.58203092,90.5800781 3.52278672,90.6012368 3.47070312,90.6435547 C3.41861953,90.6858726 3.37825535,90.7617182 3.34960938,90.8710938 C3.31184877,91.0130215 3.29296875,91.2519514 3.29296875,91.5878906 C3.29296875,91.9238298 3.30989566,92.1546218 3.34375,92.2802734 C3.37760434,92.4059251 3.42024714,92.4895831 3.47167969,92.53125 C3.52311224,92.5729169 3.58203092,92.59375 3.6484375,92.59375 C3.71484408,92.59375 3.77408828,92.5725914 3.82617188,92.5302734 C3.87825547,92.4879555 3.91861965,92.4121099 3.94726562,92.3027344 C3.98502623,92.1621087 4.00390625,91.9238298 4.00390625,91.5878906 C4.00390625,91.2519514 3.98697934,91.0211595 3.953125,90.8955078 C3.91927066,90.7698561 3.87662786,90.6858726 3.82519531,90.6435547 C3.77376276,90.6012368 3.71484408,90.5800781 3.6484375,90.5800781 L3.6484375,90.5800781 Z M5.87304688,90.125 C6.15039201,90.125 6.36718672,90.2239573 6.5234375,90.421875 C6.70963635,90.6562512 6.80273438,91.0449192 6.80273438,91.5878906 C6.80273438,92.12956 6.70898531,92.518879 6.52148438,92.7558594 C6.36653568,92.9511729 6.15039201,93.0488281 5.87304688,93.0488281 C5.59439965,93.0488281 5.36979252,92.9417328 5.19921875,92.7275391 C5.02864498,92.5133453 4.94335938,92.1315132 4.94335938,91.5820312 C4.94335938,91.0429661 5.03710844,90.6549491 5.22460938,90.4179688 C5.37955807,90.2226553 5.59570174,90.125 5.87304688,90.125 L5.87304688,90.125 Z M5.87304688,90.5800781 C5.80664029,90.5800781 5.74739609,90.6012368 5.6953125,90.6435547 C5.64322891,90.6858726 5.60286473,90.7617182 5.57421875,90.8710938 C5.53645814,91.0130215 5.51757812,91.2519514 5.51757812,91.5878906 C5.51757812,91.9238298 5.53450504,92.1546218 5.56835938,92.2802734 C5.60221371,92.4059251 5.64485651,92.4895831 5.69628906,92.53125 C5.74772161,92.5729169 5.80664029,92.59375 5.87304688,92.59375 C5.93945346,92.59375 5.99869766,92.5725914 6.05078125,92.5302734 C6.10286484,92.4879555 6.14322902,92.4121099 6.171875,92.3027344 C6.20963561,92.1621087 6.22851562,91.9238298 6.22851562,91.5878906 C6.22851562,91.2519514 6.21158871,91.0211595 6.17773438,90.8955078 C6.14388004,90.7698561 6.10123724,90.6858726 6.04980469,90.6435547 C5.99837214,90.6012368 5.93945346,90.5800781 5.87304688,90.5800781 L5.87304688,90.5800781 Z" id="200" fill="#E0E0E0"></path>
                <path d="M2.34960938,42.4902344 L2.34960938,43 L0.42578125,43 C0.446614687,42.8072907 0.509114063,42.6246753 0.61328125,42.4521484 C0.717448437,42.2796215 0.923175547,42.0507827 1.23046875,41.765625 C1.47786582,41.5351551 1.62955701,41.3789067 1.68554688,41.296875 C1.76106809,41.1835932 1.79882812,41.0716151 1.79882812,40.9609375 C1.79882812,40.8385411 1.76595085,40.7444665 1.70019531,40.6787109 C1.63443978,40.6129554 1.54362037,40.5800781 1.42773438,40.5800781 C1.31315047,40.5800781 1.22200555,40.614583 1.15429688,40.6835938 C1.0865882,40.7526045 1.04752609,40.8671867 1.03710938,41.0273438 L0.490234375,40.9726562 C0.522786621,40.6705714 0.624999141,40.4537767 0.796875,40.3222656 C0.968750859,40.1907546 1.18359246,40.125 1.44140625,40.125 C1.72395975,40.125 1.94596273,40.2011711 2.10742188,40.3535156 C2.26888102,40.5058601 2.34960938,40.6953114 2.34960938,40.921875 C2.34960938,41.0507819 2.32649763,41.173502 2.28027344,41.2900391 C2.23404925,41.4065761 2.16080779,41.5286452 2.06054688,41.65625 C1.99414029,41.7408858 1.87434982,41.8626294 1.70117188,42.0214844 C1.52799393,42.1803393 1.4182945,42.285807 1.37207031,42.3378906 C1.32584612,42.3899742 1.2884116,42.440755 1.25976562,42.4902344 L2.34960938,42.4902344 Z M2.72851562,42.2636719 L3.27539062,42.2070312 C3.2910157,42.3307298 3.3372392,42.4287106 3.4140625,42.5009766 C3.4908858,42.5732425 3.57942658,42.609375 3.6796875,42.609375 C3.79427141,42.609375 3.89127564,42.562826 3.97070312,42.4697266 C4.05013061,42.3766271 4.08984375,42.2363291 4.08984375,42.0488281 C4.08984375,41.873046 4.05045612,41.7412114 3.97167969,41.6533203 C3.89290325,41.5654292 3.79036521,41.5214844 3.6640625,41.5214844 C3.50650963,41.5214844 3.365235,41.5911451 3.24023438,41.7304688 L2.79492188,41.6660156 L3.07617188,40.1757812 L4.52734375,40.1757812 L4.52734375,40.6894531 L3.4921875,40.6894531 L3.40625,41.1757812 C3.52864645,41.114583 3.6536452,41.0839844 3.78125,41.0839844 C4.0247408,41.0839844 4.23111895,41.1725252 4.40039062,41.3496094 C4.5696623,41.5266936 4.65429688,41.756509 4.65429688,42.0390625 C4.65429688,42.2747408 4.58593818,42.4850251 4.44921875,42.6699219 C4.2630199,42.9225273 4.00455895,43.0488281 3.67382812,43.0488281 C3.40950389,43.0488281 3.19401125,42.9778653 3.02734375,42.8359375 C2.86067625,42.6940097 2.76106787,42.5032564 2.72851562,42.2636719 L2.72851562,42.2636719 Z M5.87304688,40.125 C6.15039201,40.125 6.36718672,40.2239573 6.5234375,40.421875 C6.70963635,40.6562512 6.80273438,41.0449192 6.80273438,41.5878906 C6.80273438,42.12956 6.70898531,42.518879 6.52148438,42.7558594 C6.36653568,42.9511729 6.15039201,43.0488281 5.87304688,43.0488281 C5.59439965,43.0488281 5.36979252,42.9417328 5.19921875,42.7275391 C5.02864498,42.5133453 4.94335938,42.1315132 4.94335938,41.5820312 C4.94335938,41.0429661 5.03710844,40.6549491 5.22460938,40.4179688 C5.37955807,40.2226553 5.59570174,40.125 5.87304688,40.125 L5.87304688,40.125 Z M5.87304688,40.5800781 C5.80664029,40.5800781 5.74739609,40.6012368 5.6953125,40.6435547 C5.64322891,40.6858726 5.60286473,40.7617182 5.57421875,40.8710938 C5.53645814,41.0130215 5.51757812,41.2519514 5.51757812,41.5878906 C5.51757812,41.9238298 5.53450504,42.1546218 5.56835938,42.2802734 C5.60221371,42.4059251 5.64485651,42.4895831 5.69628906,42.53125 C5.74772161,42.5729169 5.80664029,42.59375 5.87304688,42.59375 C5.93945346,42.59375 5.99869766,42.5725914 6.05078125,42.5302734 C6.10286484,42.4879555 6.14322902,42.4121099 6.171875,42.3027344 C6.20963561,42.1621087 6.22851562,41.9238298 6.22851562,41.5878906 C6.22851562,41.2519514 6.21158871,41.0211595 6.17773438,40.8955078 C6.14388004,40.7698561 6.10123724,40.6858726 6.04980469,40.6435547 C5.99837214,40.6012368 5.93945346,40.5800781 5.87304688,40.5800781 L5.87304688,40.5800781 Z" id="250" fill="#E0E0E0"></path>
                <path d="M45.453125,286.258667 L46,286.202026 C46.0156251,286.325725 46.0618486,286.423706 46.1386719,286.495972 C46.2154952,286.568238 46.304036,286.60437 46.4042969,286.60437 C46.5188808,286.60437 46.615885,286.557821 46.6953125,286.464722 C46.77474,286.371622 46.8144531,286.231324 46.8144531,286.043823 C46.8144531,285.868041 46.7750655,285.736206 46.6962891,285.648315 C46.6175126,285.560424 46.5149746,285.516479 46.3886719,285.516479 C46.231119,285.516479 46.0898444,285.58614 45.9648438,285.725464 L45.5195312,285.661011 L45.8007812,284.170776 L47.2519531,284.170776 L47.2519531,284.684448 L46.2167969,284.684448 L46.1308594,285.170776 C46.2532558,285.109578 46.3782546,285.078979 46.5058594,285.078979 C46.7493502,285.078979 46.9557283,285.16752 47.125,285.344604 C47.2942717,285.521689 47.3789062,285.751504 47.3789062,286.034058 C47.3789062,286.269736 47.3105476,286.48002 47.1738281,286.664917 C46.9876293,286.917522 46.7291683,287.043823 46.3984375,287.043823 C46.1341133,287.043823 45.9186206,286.97286 45.7519531,286.830933 C45.5852856,286.689005 45.4856772,286.498252 45.453125,286.258667 L45.453125,286.258667 Z M48.5976562,284.119995 C48.8750014,284.119995 49.0917961,284.218952 49.2480469,284.41687 C49.4342457,284.651246 49.5273438,285.039914 49.5273438,285.582886 C49.5273438,286.124555 49.4335947,286.513874 49.2460938,286.750854 C49.0911451,286.946168 48.8750014,287.043823 48.5976562,287.043823 C48.319009,287.043823 48.0944019,286.936728 47.9238281,286.722534 C47.7532544,286.50834 47.6679688,286.126508 47.6679688,285.577026 C47.6679688,285.037961 47.7617178,284.649944 47.9492188,284.412964 C48.1041674,284.21765 48.3203111,284.119995 48.5976562,284.119995 L48.5976562,284.119995 Z M48.5976562,284.575073 C48.5312497,284.575073 48.4720055,284.596232 48.4199219,284.63855 C48.3678383,284.680868 48.3274741,284.756713 48.2988281,284.866089 C48.2610675,285.008017 48.2421875,285.246947 48.2421875,285.582886 C48.2421875,285.918825 48.2591144,286.149617 48.2929688,286.275269 C48.3268231,286.40092 48.3694659,286.484578 48.4208984,286.526245 C48.472331,286.567912 48.5312497,286.588745 48.5976562,286.588745 C48.6640628,286.588745 48.723307,286.567586 48.7753906,286.525269 C48.8274742,286.482951 48.8678384,286.407105 48.8964844,286.297729 C48.934245,286.157104 48.953125,285.918825 48.953125,285.582886 C48.953125,285.246947 48.9361981,285.016155 48.9023438,284.890503 C48.8684894,284.764851 48.8258466,284.680868 48.7744141,284.63855 C48.7229815,284.596232 48.6640628,284.575073 48.5976562,284.575073 L48.5976562,284.575073 Z" id="50" fill="#E0E0E0"></path>
                <path d="M95.7373047,286.994995 L95.1884766,286.994995 L95.1884766,284.926636 C94.9879547,285.114137 94.751629,285.252807 94.4794922,285.342651 L94.4794922,284.844604 C94.6227221,284.797729 94.7783195,284.708863 94.9462891,284.578003 C95.1142587,284.447143 95.2294919,284.294475 95.2919922,284.119995 L95.7373047,284.119995 L95.7373047,286.994995 Z M97.4853516,284.119995 C97.7626967,284.119995 97.9794914,284.218952 98.1357422,284.41687 C98.321941,284.651246 98.4150391,285.039914 98.4150391,285.582886 C98.4150391,286.124555 98.32129,286.513874 98.1337891,286.750854 C97.9788404,286.946168 97.7626967,287.043823 97.4853516,287.043823 C97.2067043,287.043823 96.9820972,286.936728 96.8115234,286.722534 C96.6409497,286.50834 96.5556641,286.126508 96.5556641,285.577026 C96.5556641,285.037961 96.6494131,284.649944 96.8369141,284.412964 C96.9918628,284.21765 97.2080064,284.119995 97.4853516,284.119995 L97.4853516,284.119995 Z M97.4853516,284.575073 C97.418945,284.575073 97.3597008,284.596232 97.3076172,284.63855 C97.2555336,284.680868 97.2151694,284.756713 97.1865234,284.866089 C97.1487628,285.008017 97.1298828,285.246947 97.1298828,285.582886 C97.1298828,285.918825 97.1468097,286.149617 97.1806641,286.275269 C97.2145184,286.40092 97.2571612,286.484578 97.3085938,286.526245 C97.3600263,286.567912 97.418945,286.588745 97.4853516,286.588745 C97.5517581,286.588745 97.6110023,286.567586 97.6630859,286.525269 C97.7151695,286.482951 97.7555337,286.407105 97.7841797,286.297729 C97.8219403,286.157104 97.8408203,285.918825 97.8408203,285.582886 C97.8408203,285.246947 97.8238934,285.016155 97.7900391,284.890503 C97.7561847,284.764851 97.7135419,284.680868 97.6621094,284.63855 C97.6106768,284.596232 97.5517581,284.575073 97.4853516,284.575073 L97.4853516,284.575073 Z M99.7099609,284.119995 C99.9873061,284.119995 100.204101,284.218952 100.360352,284.41687 C100.54655,284.651246 100.639648,285.039914 100.639648,285.582886 C100.639648,286.124555 100.545899,286.513874 100.358398,286.750854 C100.20345,286.946168 99.9873061,287.043823 99.7099609,287.043823 C99.4313137,287.043823 99.2067066,286.936728 99.0361328,286.722534 C98.865559,286.50834 98.7802734,286.126508 98.7802734,285.577026 C98.7802734,285.037961 98.8740225,284.649944 99.0615234,284.412964 C99.2164721,284.21765 99.4326158,284.119995 99.7099609,284.119995 L99.7099609,284.119995 Z M99.7099609,284.575073 C99.6435544,284.575073 99.5843102,284.596232 99.5322266,284.63855 C99.480143,284.680868 99.4397788,284.756713 99.4111328,284.866089 C99.3733722,285.008017 99.3544922,285.246947 99.3544922,285.582886 C99.3544922,285.918825 99.3714191,286.149617 99.4052734,286.275269 C99.4391278,286.40092 99.4817706,286.484578 99.5332031,286.526245 C99.5846357,286.567912 99.6435544,286.588745 99.7099609,286.588745 C99.7763675,286.588745 99.8356117,286.567586 99.8876953,286.525269 C99.9397789,286.482951 99.9801431,286.407105 100.008789,286.297729 C100.04655,286.157104 100.06543,285.918825 100.06543,285.582886 C100.06543,285.246947 100.048503,285.016155 100.014648,284.890503 C99.9807941,284.764851 99.9381513,284.680868 99.8867188,284.63855 C99.8352862,284.596232 99.7763675,284.575073 99.7099609,284.575073 L99.7099609,284.575073 Z" id="100" fill="#E0E0E0"></path>
                <path d="M145.737305,286.994995 L145.188477,286.994995 L145.188477,284.926636 C144.987955,285.114137 144.751629,285.252807 144.479492,285.342651 L144.479492,284.844604 C144.622722,284.797729 144.778319,284.708863 144.946289,284.578003 C145.114259,284.447143 145.229492,284.294475 145.291992,284.119995 L145.737305,284.119995 L145.737305,286.994995 Z M146.56543,286.258667 L147.112305,286.202026 C147.12793,286.325725 147.174153,286.423706 147.250977,286.495972 C147.3278,286.568238 147.416341,286.60437 147.516602,286.60437 C147.631185,286.60437 147.72819,286.557821 147.807617,286.464722 C147.887045,286.371622 147.926758,286.231324 147.926758,286.043823 C147.926758,285.868041 147.88737,285.736206 147.808594,285.648315 C147.729817,285.560424 147.627279,285.516479 147.500977,285.516479 C147.343424,285.516479 147.202149,285.58614 147.077148,285.725464 L146.631836,285.661011 L146.913086,284.170776 L148.364258,284.170776 L148.364258,284.684448 L147.329102,284.684448 L147.243164,285.170776 C147.365561,285.109578 147.490559,285.078979 147.618164,285.078979 C147.861655,285.078979 148.068033,285.16752 148.237305,285.344604 C148.406576,285.521689 148.491211,285.751504 148.491211,286.034058 C148.491211,286.269736 148.422852,286.48002 148.286133,286.664917 C148.099934,286.917522 147.841473,287.043823 147.510742,287.043823 C147.246418,287.043823 147.030925,286.97286 146.864258,286.830933 C146.69759,286.689005 146.597982,286.498252 146.56543,286.258667 L146.56543,286.258667 Z M149.709961,284.119995 C149.987306,284.119995 150.204101,284.218952 150.360352,284.41687 C150.54655,284.651246 150.639648,285.039914 150.639648,285.582886 C150.639648,286.124555 150.545899,286.513874 150.358398,286.750854 C150.20345,286.946168 149.987306,287.043823 149.709961,287.043823 C149.431314,287.043823 149.206707,286.936728 149.036133,286.722534 C148.865559,286.50834 148.780273,286.126508 148.780273,285.577026 C148.780273,285.037961 148.874022,284.649944 149.061523,284.412964 C149.216472,284.21765 149.432616,284.119995 149.709961,284.119995 L149.709961,284.119995 Z M149.709961,284.575073 C149.643554,284.575073 149.58431,284.596232 149.532227,284.63855 C149.480143,284.680868 149.439779,284.756713 149.411133,284.866089 C149.373372,285.008017 149.354492,285.246947 149.354492,285.582886 C149.354492,285.918825 149.371419,286.149617 149.405273,286.275269 C149.439128,286.40092 149.481771,286.484578 149.533203,286.526245 C149.584636,286.567912 149.643554,286.588745 149.709961,286.588745 C149.776368,286.588745 149.835612,286.567586 149.887695,286.525269 C149.939779,286.482951 149.980143,286.407105 150.008789,286.297729 C150.04655,286.157104 150.06543,285.918825 150.06543,285.582886 C150.06543,285.246947 150.048503,285.016155 150.014648,284.890503 C149.980794,284.764851 149.938151,284.680868 149.886719,284.63855 C149.835286,284.596232 149.776368,284.575073 149.709961,284.575073 L149.709961,284.575073 Z" id="150" fill="#E0E0E0"></path>
                <path d="M196.186523,286.485229 L196.186523,286.994995 L194.262695,286.994995 C194.283529,286.802286 194.346028,286.61967 194.450195,286.447144 C194.554362,286.274617 194.76009,286.045778 195.067383,285.76062 C195.31478,285.53015 195.466471,285.373902 195.522461,285.29187 C195.597982,285.178588 195.635742,285.06661 195.635742,284.955933 C195.635742,284.833536 195.602865,284.739462 195.537109,284.673706 C195.471354,284.607951 195.380534,284.575073 195.264648,284.575073 C195.150065,284.575073 195.05892,284.609578 194.991211,284.678589 C194.923502,284.7476 194.88444,284.862182 194.874023,285.022339 L194.327148,284.967651 C194.359701,284.665567 194.461913,284.448772 194.633789,284.317261 C194.805665,284.18575 195.020507,284.119995 195.27832,284.119995 C195.560874,284.119995 195.782877,284.196166 195.944336,284.348511 C196.105795,284.500855 196.186523,284.690306 196.186523,284.91687 C196.186523,285.045777 196.163412,285.168497 196.117188,285.285034 C196.070963,285.401571 195.997722,285.52364 195.897461,285.651245 C195.831054,285.735881 195.711264,285.857625 195.538086,286.016479 C195.364908,286.175334 195.255209,286.280802 195.208984,286.332886 C195.16276,286.384969 195.125326,286.43575 195.09668,286.485229 L196.186523,286.485229 Z M197.485352,284.119995 C197.762697,284.119995 197.979491,284.218952 198.135742,284.41687 C198.321941,284.651246 198.415039,285.039914 198.415039,285.582886 C198.415039,286.124555 198.32129,286.513874 198.133789,286.750854 C197.97884,286.946168 197.762697,287.043823 197.485352,287.043823 C197.206704,287.043823 196.982097,286.936728 196.811523,286.722534 C196.64095,286.50834 196.555664,286.126508 196.555664,285.577026 C196.555664,285.037961 196.649413,284.649944 196.836914,284.412964 C196.991863,284.21765 197.208006,284.119995 197.485352,284.119995 L197.485352,284.119995 Z M197.485352,284.575073 C197.418945,284.575073 197.359701,284.596232 197.307617,284.63855 C197.255534,284.680868 197.215169,284.756713 197.186523,284.866089 C197.148763,285.008017 197.129883,285.246947 197.129883,285.582886 C197.129883,285.918825 197.14681,286.149617 197.180664,286.275269 C197.214518,286.40092 197.257161,286.484578 197.308594,286.526245 C197.360026,286.567912 197.418945,286.588745 197.485352,286.588745 C197.551758,286.588745 197.611002,286.567586 197.663086,286.525269 C197.71517,286.482951 197.755534,286.407105 197.78418,286.297729 C197.82194,286.157104 197.84082,285.918825 197.84082,285.582886 C197.84082,285.246947 197.823893,285.016155 197.790039,284.890503 C197.756185,284.764851 197.713542,284.680868 197.662109,284.63855 C197.610677,284.596232 197.551758,284.575073 197.485352,284.575073 L197.485352,284.575073 Z M199.709961,284.119995 C199.987306,284.119995 200.204101,284.218952 200.360352,284.41687 C200.54655,284.651246 200.639648,285.039914 200.639648,285.582886 C200.639648,286.124555 200.545899,286.513874 200.358398,286.750854 C200.20345,286.946168 199.987306,287.043823 199.709961,287.043823 C199.431314,287.043823 199.206707,286.936728 199.036133,286.722534 C198.865559,286.50834 198.780273,286.126508 198.780273,285.577026 C198.780273,285.037961 198.874022,284.649944 199.061523,284.412964 C199.216472,284.21765 199.432616,284.119995 199.709961,284.119995 L199.709961,284.119995 Z M199.709961,284.575073 C199.643554,284.575073 199.58431,284.596232 199.532227,284.63855 C199.480143,284.680868 199.439779,284.756713 199.411133,284.866089 C199.373372,285.008017 199.354492,285.246947 199.354492,285.582886 C199.354492,285.918825 199.371419,286.149617 199.405273,286.275269 C199.439128,286.40092 199.481771,286.484578 199.533203,286.526245 C199.584636,286.567912 199.643554,286.588745 199.709961,286.588745 C199.776368,286.588745 199.835612,286.567586 199.887695,286.525269 C199.939779,286.482951 199.980143,286.407105 200.008789,286.297729 C200.04655,286.157104 200.06543,285.918825 200.06543,285.582886 C200.06543,285.246947 200.048503,285.016155 200.014648,284.890503 C199.980794,284.764851 199.938151,284.680868 199.886719,284.63855 C199.835286,284.596232 199.776368,284.575073 199.709961,284.575073 L199.709961,284.575073 Z" id="200" fill="#E0E0E0"></path>
                <path d="M246.186523,286.485229 L246.186523,286.994995 L244.262695,286.994995 C244.283529,286.802286 244.346028,286.61967 244.450195,286.447144 C244.554362,286.274617 244.76009,286.045778 245.067383,285.76062 C245.31478,285.53015 245.466471,285.373902 245.522461,285.29187 C245.597982,285.178588 245.635742,285.06661 245.635742,284.955933 C245.635742,284.833536 245.602865,284.739462 245.537109,284.673706 C245.471354,284.607951 245.380534,284.575073 245.264648,284.575073 C245.150065,284.575073 245.05892,284.609578 244.991211,284.678589 C244.923502,284.7476 244.88444,284.862182 244.874023,285.022339 L244.327148,284.967651 C244.359701,284.665567 244.461913,284.448772 244.633789,284.317261 C244.805665,284.18575 245.020507,284.119995 245.27832,284.119995 C245.560874,284.119995 245.782877,284.196166 245.944336,284.348511 C246.105795,284.500855 246.186523,284.690306 246.186523,284.91687 C246.186523,285.045777 246.163412,285.168497 246.117188,285.285034 C246.070963,285.401571 245.997722,285.52364 245.897461,285.651245 C245.831054,285.735881 245.711264,285.857625 245.538086,286.016479 C245.364908,286.175334 245.255209,286.280802 245.208984,286.332886 C245.16276,286.384969 245.125326,286.43575 245.09668,286.485229 L246.186523,286.485229 Z M246.56543,286.258667 L247.112305,286.202026 C247.12793,286.325725 247.174153,286.423706 247.250977,286.495972 C247.3278,286.568238 247.416341,286.60437 247.516602,286.60437 C247.631185,286.60437 247.72819,286.557821 247.807617,286.464722 C247.887045,286.371622 247.926758,286.231324 247.926758,286.043823 C247.926758,285.868041 247.88737,285.736206 247.808594,285.648315 C247.729817,285.560424 247.627279,285.516479 247.500977,285.516479 C247.343424,285.516479 247.202149,285.58614 247.077148,285.725464 L246.631836,285.661011 L246.913086,284.170776 L248.364258,284.170776 L248.364258,284.684448 L247.329102,284.684448 L247.243164,285.170776 C247.365561,285.109578 247.490559,285.078979 247.618164,285.078979 C247.861655,285.078979 248.068033,285.16752 248.237305,285.344604 C248.406576,285.521689 248.491211,285.751504 248.491211,286.034058 C248.491211,286.269736 248.422852,286.48002 248.286133,286.664917 C248.099934,286.917522 247.841473,287.043823 247.510742,287.043823 C247.246418,287.043823 247.030925,286.97286 246.864258,286.830933 C246.69759,286.689005 246.597982,286.498252 246.56543,286.258667 L246.56543,286.258667 Z M249.709961,284.119995 C249.987306,284.119995 250.204101,284.218952 250.360352,284.41687 C250.54655,284.651246 250.639648,285.039914 250.639648,285.582886 C250.639648,286.124555 250.545899,286.513874 250.358398,286.750854 C250.20345,286.946168 249.987306,287.043823 249.709961,287.043823 C249.431314,287.043823 249.206707,286.936728 249.036133,286.722534 C248.865559,286.50834 248.780273,286.126508 248.780273,285.577026 C248.780273,285.037961 248.874022,284.649944 249.061523,284.412964 C249.216472,284.21765 249.432616,284.119995 249.709961,284.119995 L249.709961,284.119995 Z M249.709961,284.575073 C249.643554,284.575073 249.58431,284.596232 249.532227,284.63855 C249.480143,284.680868 249.439779,284.756713 249.411133,284.866089 C249.373372,285.008017 249.354492,285.246947 249.354492,285.582886 C249.354492,285.918825 249.371419,286.149617 249.405273,286.275269 C249.439128,286.40092 249.481771,286.484578 249.533203,286.526245 C249.584636,286.567912 249.643554,286.588745 249.709961,286.588745 C249.776368,286.588745 249.835612,286.567586 249.887695,286.525269 C249.939779,286.482951 249.980143,286.407105 250.008789,286.297729 C250.04655,286.157104 250.06543,285.918825 250.06543,285.582886 C250.06543,285.246947 250.048503,285.016155 250.014648,284.890503 C249.980794,284.764851 249.938151,284.680868 249.886719,284.63855 C249.835286,284.596232 249.776368,284.575073 249.709961,284.575073 L249.709961,284.575073 Z" id="250" fill="#E0E0E0"></path>
                <path d="M284.313477,286.240234 L284.844727,286.175781 C284.861654,286.311199 284.907226,286.414713 284.981445,286.486328 C285.055664,286.557943 285.145507,286.59375 285.250977,286.59375 C285.364258,286.59375 285.459635,286.550782 285.537109,286.464844 C285.614584,286.378906 285.65332,286.263022 285.65332,286.117188 C285.65332,285.979166 285.616211,285.869792 285.541992,285.789062 C285.467773,285.708333 285.377279,285.667969 285.270508,285.667969 C285.200195,285.667969 285.116211,285.68164 285.018555,285.708984 L285.079102,285.261719 C285.22754,285.265625 285.34082,285.233399 285.418945,285.165039 C285.497071,285.096679 285.536133,285.00586 285.536133,284.892578 C285.536133,284.796223 285.507487,284.719401 285.450195,284.662109 C285.392903,284.604817 285.316732,284.576172 285.22168,284.576172 C285.127929,284.576172 285.047852,284.608724 284.981445,284.673828 C284.915039,284.738933 284.874675,284.833984 284.860352,284.958984 L284.354492,284.873047 C284.389649,284.699869 284.442708,284.561524 284.513672,284.458008 C284.584636,284.354492 284.683593,284.273112 284.810547,284.213867 C284.937501,284.154622 285.079752,284.125 285.237305,284.125 C285.506837,284.125 285.722981,284.210937 285.885742,284.382812 C286.019857,284.523438 286.086914,284.682291 286.086914,284.859375 C286.086914,285.110678 285.949546,285.311197 285.674805,285.460938 C285.838868,285.496094 285.970052,285.574869 286.068359,285.697266 C286.166667,285.819662 286.21582,285.967447 286.21582,286.140625 C286.21582,286.391928 286.124024,286.606119 285.94043,286.783203 C285.756835,286.960287 285.528322,287.048828 285.254883,287.048828 C284.995767,287.048828 284.780925,286.974285 284.610352,286.825195 C284.439778,286.676106 284.34082,286.481121 284.313477,286.240234 L284.313477,286.240234 Z M286.569336,286.337891 L287.100586,286.279297 C287.113607,286.38737 287.147461,286.467448 287.202148,286.519531 C287.256836,286.571615 287.329101,286.597656 287.418945,286.597656 C287.532227,286.597656 287.62858,286.545573 287.708008,286.441406 C287.787435,286.337239 287.838216,286.121095 287.860352,285.792969 C287.72233,285.953126 287.549806,286.033203 287.342773,286.033203 C287.117512,286.033203 286.923178,285.94629 286.759766,285.772461 C286.596353,285.598632 286.514648,285.372397 286.514648,285.09375 C286.514648,284.803384 286.600911,284.569337 286.773438,284.391602 C286.945964,284.213866 287.165689,284.125 287.432617,284.125 C287.722983,284.125 287.961262,284.237304 288.147461,284.461914 C288.33366,284.686525 288.426758,285.055987 288.426758,285.570312 C288.426758,286.093753 288.329754,286.471353 288.135742,286.703125 C287.941731,286.934897 287.689129,287.050781 287.37793,287.050781 C287.15397,287.050781 286.972982,286.991212 286.834961,286.87207 C286.696939,286.752929 286.608399,286.574871 286.569336,286.337891 L286.569336,286.337891 Z M287.811523,285.138672 C287.811523,284.961588 287.770834,284.824219 287.689453,284.726562 C287.608073,284.628906 287.513998,284.580078 287.407227,284.580078 C287.305664,284.580078 287.221355,284.620117 287.154297,284.700195 C287.087239,284.780274 287.053711,284.911457 287.053711,285.09375 C287.053711,285.278647 287.090169,285.414388 287.163086,285.500977 C287.236003,285.587566 287.327148,285.630859 287.436523,285.630859 C287.541993,285.630859 287.630859,285.589193 287.703125,285.505859 C287.775391,285.422526 287.811523,285.300131 287.811523,285.138672 L287.811523,285.138672 Z M289.709961,284.125 C289.987306,284.125 290.204101,284.223957 290.360352,284.421875 C290.54655,284.656251 290.639648,285.044919 290.639648,285.587891 C290.639648,286.12956 290.545899,286.518879 290.358398,286.755859 C290.20345,286.951173 289.987306,287.048828 289.709961,287.048828 C289.431314,287.048828 289.206707,286.941733 289.036133,286.727539 C288.865559,286.513345 288.780273,286.131513 288.780273,285.582031 C288.780273,285.042966 288.874023,284.654949 289.061523,284.417969 C289.216472,284.222655 289.432616,284.125 289.709961,284.125 L289.709961,284.125 Z M289.709961,284.580078 C289.643554,284.580078 289.58431,284.601237 289.532227,284.643555 C289.480143,284.685873 289.439779,284.761718 289.411133,284.871094 C289.373372,285.013022 289.354492,285.251951 289.354492,285.587891 C289.354492,285.92383 289.371419,286.154622 289.405273,286.280273 C289.439128,286.405925 289.481771,286.489583 289.533203,286.53125 C289.584636,286.572917 289.643554,286.59375 289.709961,286.59375 C289.776368,286.59375 289.835612,286.572591 289.887695,286.530273 C289.939779,286.487956 289.980143,286.41211 290.008789,286.302734 C290.04655,286.162109 290.06543,285.92383 290.06543,285.587891 C290.06543,285.251951 290.048503,285.021159 290.014648,284.895508 C289.980794,284.769856 289.938151,284.685873 289.886719,284.643555 C289.835286,284.601237 289.776368,284.580078 289.709961,284.580078 L289.709961,284.580078 Z" id="390" fill="#A4A4A4"></path>
                <path d="M0.4765625,2.24023438 L1.0078125,2.17578125 C1.02473967,2.31119859 1.07031213,2.41471318 1.14453125,2.48632812 C1.21875037,2.55794307 1.30859322,2.59375 1.4140625,2.59375 C1.52734432,2.59375 1.62272097,2.55078168 1.70019531,2.46484375 C1.77766966,2.37890582 1.81640625,2.26302156 1.81640625,2.1171875 C1.81640625,1.97916598 1.77929725,1.86979207 1.70507812,1.7890625 C1.630859,1.70833293 1.54036512,1.66796875 1.43359375,1.66796875 C1.3632809,1.66796875 1.27929736,1.68164049 1.18164062,1.70898438 L1.2421875,1.26171875 C1.39062574,1.26562502 1.50390586,1.23339878 1.58203125,1.16503906 C1.66015664,1.09667935 1.69921875,1.00585994 1.69921875,0.892578125 C1.69921875,0.796223477 1.6705732,0.719401328 1.61328125,0.662109375 C1.5559893,0.604817422 1.47981818,0.576171875 1.38476562,0.576171875 C1.29101516,0.576171875 1.21093783,0.608723633 1.14453125,0.673828125 C1.07812467,0.738932617 1.03776049,0.83398375 1.0234375,0.958984375 L0.517578125,0.873046875 C0.552734551,0.699868926 0.605793916,0.561523955 0.676757812,0.458007812 C0.747721709,0.35449167 0.846679053,0.273112275 0.973632812,0.213867188 C1.10058657,0.1546221 1.24283775,0.125 1.40039062,0.125 C1.66992322,0.125 1.88606689,0.210936641 2.04882812,0.3828125 C2.18294338,0.523438203 2.25,0.682290781 2.25,0.859375 C2.25,1.11067834 2.11263158,1.31119717 1.83789062,1.4609375 C2.00195395,1.49609393 2.13313753,1.57486918 2.23144531,1.69726562 C2.3297531,1.81966207 2.37890625,1.96744705 2.37890625,2.140625 C2.37890625,2.39192834 2.28711029,2.60611891 2.10351562,2.78320312 C1.91992096,2.96028734 1.69140762,3.04882812 1.41796875,3.04882812 C1.15885287,3.04882812 0.94401127,2.9742846 0.7734375,2.82519531 C0.60286373,2.67610603 0.503906387,2.481121 0.4765625,2.24023438 L0.4765625,2.24023438 Z M2.73242188,2.33789062 L3.26367188,2.27929688 C3.27669277,2.38737033 3.3105466,2.46744766 3.36523438,2.51953125 C3.41992215,2.57161484 3.49218705,2.59765625 3.58203125,2.59765625 C3.69531307,2.59765625 3.79166627,2.54557344 3.87109375,2.44140625 C3.95052123,2.33723906 4.00130197,2.12109539 4.0234375,1.79296875 C3.88541598,1.9531258 3.71289166,2.03320312 3.50585938,2.03320312 C3.28059783,2.03320312 3.08626384,1.94628993 2.92285156,1.77246094 C2.75943929,1.59863194 2.67773438,1.37239723 2.67773438,1.09375 C2.67773438,0.803383965 2.76399653,0.569336826 2.93652344,0.391601562 C3.10905034,0.213866299 3.32877471,0.125 3.59570312,0.125 C3.88606916,0.125 4.12434803,0.237303564 4.31054688,0.461914062 C4.49674572,0.686524561 4.58984375,1.05598701 4.58984375,1.5703125 C4.58984375,2.09375262 4.49283951,2.47135301 4.29882812,2.703125 C4.10481674,2.93489699 3.8522151,3.05078125 3.54101562,3.05078125 C3.31705617,3.05078125 3.1360684,2.99121153 2.99804688,2.87207031 C2.86002535,2.75292909 2.77148457,2.57487098 2.73242188,2.33789062 L2.73242188,2.33789062 Z M3.97460938,1.13867188 C3.97460938,0.961587656 3.93391968,0.824219238 3.85253906,0.7265625 C3.77115845,0.628905762 3.67708387,0.580078125 3.5703125,0.580078125 C3.46874949,0.580078125 3.38444044,0.620116787 3.31738281,0.700195312 C3.25032519,0.780273838 3.21679688,0.911457422 3.21679688,1.09375 C3.21679688,1.27864676 3.25325484,1.41438759 3.32617188,1.50097656 C3.39908891,1.58756554 3.49023383,1.63085938 3.59960938,1.63085938 C3.70507865,1.63085938 3.79394495,1.58919312 3.86621094,1.50585938 C3.93847692,1.42252563 3.97460938,1.30013102 3.97460938,1.13867188 L3.97460938,1.13867188 Z M5.87304688,0.125 C6.15039201,0.125 6.36718672,0.223957344 6.5234375,0.421875 C6.70963635,0.656251172 6.80273438,1.04491916 6.80273438,1.58789062 C6.80273438,2.12956 6.70898531,2.51887902 6.52148438,2.75585938 C6.36653568,2.95117285 6.15039201,3.04882812 5.87304688,3.04882812 C5.59439965,3.04882812 5.36979252,2.94173284 5.19921875,2.72753906 C5.02864498,2.51334528 4.94335938,2.13151316 4.94335938,1.58203125 C4.94335938,1.04296605 5.03710844,0.654949102 5.22460938,0.41796875 C5.37955807,0.222655273 5.59570174,0.125 5.87304688,0.125 L5.87304688,0.125 Z M5.87304688,0.580078125 C5.80664029,0.580078125 5.74739609,0.601236768 5.6953125,0.643554688 C5.64322891,0.685872607 5.60286473,0.761718203 5.57421875,0.87109375 C5.53645814,1.01302154 5.51757812,1.25195145 5.51757812,1.58789062 C5.51757812,1.9238298 5.53450504,2.15462177 5.56835938,2.28027344 C5.60221371,2.40592511 5.64485651,2.48958312 5.69628906,2.53125 C5.74772161,2.57291687 5.80664029,2.59375 5.87304688,2.59375 C5.93945346,2.59375 5.99869766,2.57259136 6.05078125,2.53027344 C6.10286484,2.48795552 6.14322902,2.41210992 6.171875,2.30273438 C6.20963561,2.16210867 6.22851562,1.9238298 6.22851562,1.58789062 C6.22851562,1.25195145 6.21158871,1.02115948 6.17773438,0.895507812 C6.14388004,0.769856143 6.10123724,0.685872607 6.04980469,0.643554688 C5.99837214,0.601236768 5.93945346,0.580078125 5.87304688,0.580078125 L5.87304688,0.580078125 Z" id="390" fill="#A4A4A4"></path>
            </g>
            <rect id="Rectangle-1" stroke="#000000" stroke-width="2" sketch:type="MSShapeGroup" x="0" y="0" width="300" height="300"></rect>
        </g>
    </g>
</svg>