0
SECTION
2
HEADER
9
$INSUNITS
70
1
9
$ACADVER
1
AC1014
9
$HANDSEED
5
FFFF
0
ENDSEC
0
SECTION
2
TABLES
0
TABLE
2
VPORT
5
8
100
AcDbSymbolTable
0
ENDTAB
0
TABLE
2
LTYPE
5
5
100
AcDbSymbolTable
70
2
0
LTYPE
5
14
100
AcDbSymbolTableRecord
100
AcDbLinetypeTableRecord
2
BYBLOCK
70
0
0
LTYPE
5
15
100
AcDbSymbolTableRecord
100
AcDbLinetypeTableRecord
2
BYLAYER
70
0
0
ENDTAB
0
TABLE
2
LAYER
5
2
100
AcDbSymbolTable
70
3
0
LAYER
5
50
100
AcDbSymbolTableRecord
100
AcDbLayerTableRecord
2
0
70
0
6
CONTINUOUS
0
LAYER
5
51
100
AcDbSymbolTableRecord
100
AcDbLayerTableRecord
2
CUTOUTS
70
0
62
1
6
CONTINUOUS
0
LAYER
5
52
100
AcDbSymbolTableRecord
100
AcDbLayerTableRecord
2
PERIMETER
70
0
62
5
6
CONTINUOUS
0
ENDTAB
0
TABLE
2
STYLE
5
3
100
AcDbSymbolTable
70
1
0
STYLE
5
11
100
AcDbSymbolTableRecord
100
AcDbTextStyleTableRecord
2
STANDARD
70
0
0
ENDTAB
0
TABLE
2
VIEW
5
6
100
AcDbSymbolTable
0
ENDTAB
0
TABLE
2
UCS
5
7
100
AcDbSymbolTable
0
ENDTAB
0
TABLE
2
APPID
5
9
100
AcDbSymbolTable
70
1
0
APPID
5
12
100
AcDbSymbolTableRecord
100
AcDbRegAppTableRecord
2
ACAD
70
0
0
ENDTAB
0
TABLE
2
DIMSTYLE
5
A
100
AcDbSymbolTable
0
ENDTAB
0
TABLE
2
BLOCK_RECORD
5
1
100
AcDbSymbolTable
70
2
0
BLOCK_RECORD
5
1F
100
AcDbSymbolTableRecord
100
AcDbBlockTableRecord
2
*MODEL_SPACE
0
BLOCK_RECORD
5
1B
100
AcDbSymbolTableRecord
100
AcDbBlockTableRecord
2
*PAPER_SPACE
0
ENDTAB
0
ENDSEC
0
SECTION
2
BLOCKS
0
BLOCK
5
20
100
AcDbEntity
100
AcDbBlockBegin
2
*MODEL_SPACE
0
ENDBLK
5
21
100
AcDbEntity
100
AcDbBlockEnd
0
BLOCK
5
1C
100
AcDbEntity
100
AcDbBlockBegin
2
*PAPER_SPACE
0
ENDBLK
5
1D
100
AcDbEntity
100
AcDbBlockEnd
0
ENDSEC
0
SECTION
2
ENTITIES
0
CIRCLE
5
100
100
AcDbEntity
8
CUTOUTS
100
AcDbCircle
10
10.078740157480313
20
-12.982283464566926
30
0
40
0.12992125984251901
210
0
220
0
230
1
0
CIRCLE
5
101
100
AcDbEntity
8
CUTOUTS
100
AcDbCircle
10
-1.2992125984251939
20
-12.982283464566926
30
0
40
0.1299212598425197
210
0
220
0
230
1
0
CIRCLE
5
102
100
AcDbEntity
8
CUTOUTS
100
AcDbCircle
10
-13.188976377952747
20
-9.8720472440944835
30
0
40
0.12992125984251901
210
0
220
0
230
1
0
CIRCLE
5
103
100
AcDbEntity
8
CUTOUTS
100
AcDbCircle
10
13.188976377952756
20
10.324803149606302
30
0
40
0.12992125984251901
210
0
220
0
230
1
0
CIRCLE
5
104
100
AcDbEntity
8
CUTOUTS
100
AcDbCircle
10
-13.188976377952748
20
10.324803149606298
30
0
40
0.12992125984251901
210
0
220
0
230
1
0
CIRCLE
5
105
100
AcDbEntity
8
CUTOUTS
100
AcDbCircle
10
2.5984251968504082
20
12.923228346456691
30
0
40
0.1299212598425197
210
0
220
0
230
1
0
CIRCLE
5
106
100
AcDbEntity
8
CUTOUTS
100
AcDbCircle
10
-10.59055118110235
20
12.923228346456691
30
0
40
0.12992125984251901
210
0
220
0
230
1
0
CIRCLE
5
107
100
AcDbEntity
8
CUTOUTS
100
AcDbCircle
10
-2.913385826771655
20
12.923228346456691
30
0
40
0.1299212598425197
210
0
220
0
230
1
0
CIRCLE
5
108
100
AcDbEntity
8
CUTOUTS
100
AcDbCircle
10
10.590551181102363
20
12.923228346456691
30
0
40
0.12992125984251901
210
0
220
0
230
1
0
CIRCLE
5
109
100
AcDbEntity
8
CUTOUTS
100
AcDbCircle
10
-13.188976377952748
20
-0.02952755905511897
30
0
40
0.12992125984251901
210
0
220
0
230
1
0
CIRCLE
5
10A
100
AcDbEntity
8
CUTOUTS
100
AcDbCircle
10
13.188976377952756
20
-0.02952755905511462
30
0
40
0.12992125984251901
210
0
220
0
230
1
0
CIRCLE
5
10B
100
AcDbEntity
8
CUTOUTS
100
AcDbCircle
10
-10.078740157480308
20
-12.982283464566926
30
0
40
0.12992125984251901
210
0
220
0
230
1
0
CIRCLE
5
10C
100
AcDbEntity
8
CUTOUTS
100
AcDbCircle
10
1.2992125984251994
20
-12.982283464566923
30
0
40
0.1299212598425197
210
0
220
0
230
1
0
CIRCLE
5
10D
100
AcDbEntity
8
CUTOUTS
100
AcDbCircle
10
13.188976377952752
20
-9.8720472440944818
30
0
40
0.12992125984251901
210
0
220
0
230
1
0
LINE
5
10E
100
AcDbEntity
8
PERIMETER
100
AcDbLine
10
-0.70866141732283183
20
-12.450787401574797
30
0
11
0.70866141732283738
21
-12.450787401574797
31
0
0
LINE
5
10F
100
AcDbEntity
8
PERIMETER
100
AcDbLine
10
-0.7086614173228315
20
-13.198818897637791
30
0
11
-0.70866141732283183
21
-12.450787401574797
31
0
0
LINE
5
110
100
AcDbEntity
8
PERIMETER
100
AcDbLine
10
-0.98425196850393415
20
-13.474409448818895
30
0
11
-0.7086614173228315
21
-13.198818897637791
31
0
0
LINE
5
111
100
AcDbEntity
8
PERIMETER
100
AcDbLine
10
-12.598425196850403
20
-13.474409448818895
30
0
11
-0.98425196850393415
21
-13.474409448818895
31
0
0
LINE
5
112
100
AcDbEntity
8
PERIMETER
100
AcDbLine
10
-12.598425196850398
20
-13.187007874015743
30
0
11
-12.598425196850403
21
-13.474409448818895
31
0
0
LINE
5
113
100
AcDbEntity
8
PERIMETER
100
AcDbLine
10
-11.070866141732273
20
-13.187007874015748
30
0
11
-12.598425196850398
21
-13.187007874015743
31
0
0
ARC
5
114
100
AcDbEntity
8
PERIMETER
100
AcDbCircle
10
-11.070866141732273
20
-12.982283464566928
30
0
40
0.20472440944882012
210
-0
220
0
230
1
100
AcDbArc
50
-90
51
90
0
LINE
5
115
100
AcDbEntity
8
PERIMETER
100
AcDbLine
10
-12.598425196850396
20
-12.777559055118106
30
0
11
-11.070866141732273
21
-12.777559055118109
31
0
0
LINE
5
116
100
AcDbEntity
8
PERIMETER
100
AcDbLine
10
-12.598425196850393
20
-12.509842519685041
30
0
11
-12.598425196850396
21
-12.777559055118106
31
0
0
LINE
5
117
100
AcDbEntity
8
PERIMETER
100
AcDbLine
10
-10.866141732283465
20
-12.509842519685041
30
0
11
-12.598425196850393
21
-12.509842519685041
31
0
0
LINE
5
118
100
AcDbEntity
8
PERIMETER
100
AcDbLine
10
-10.866141732283465
20
-10.935039370078741
30
0
11
-10.866141732283465
21
-12.509842519685041
31
0
0
LINE
5
119
100
AcDbEntity
8
PERIMETER
100
AcDbLine
10
-11.141732283464568
20
-10.659448818897639
30
0
11
-10.866141732283465
21
-10.935039370078741
31
0
0
LINE
5
11A
100
AcDbEntity
8
PERIMETER
100
AcDbLine
10
-12.716535433070867
20
-10.659448818897639
30
0
11
-11.141732283464568
21
-10.659448818897639
31
0
0
LINE
5
11B
100
AcDbEntity
8
PERIMETER
100
AcDbLine
10
-12.716535433070863
20
-12.391732283464556
30
0
11
-12.716535433070867
21
-10.659448818897639
31
0
0
LINE
5
11C
100
AcDbEntity
8
PERIMETER
100
AcDbLine
10
-12.984251968503935
20
-12.391732283464567
30
0
11
-12.716535433070863
21
-12.391732283464556
31
0
0
LINE
5
11D
100
AcDbEntity
8
PERIMETER
100
AcDbLine
10
-12.984251968503932
20
-10.864173228346452
30
0
11
-12.984251968503935
21
-12.391732283464567
31
0
0
ARC
5
11E
100
AcDbEntity
8
PERIMETER
100
AcDbCircle
10
-13.188976377952748
20
-10.864173228346452
30
0
40
0.20472440944881731
210
0
220
-0
230
1
100
AcDbArc
50
0
51
180
0
LINE
5
11F
100
AcDbEntity
8
PERIMETER
100
AcDbLine
10
-13.393700787401574
20
-12.391732283464567
30
0
11
-13.393700787401567
21
-10.86417322834645
31
0
0
LINE
5
120
100
AcDbEntity
8
PERIMETER
100
AcDbLine
10
-13.740157480314947
20
-12.391732283464552
30
0
11
-13.393700787401574
21
-12.391732283464567
31
0
0
LINE
5
121
100
AcDbEntity
8
PERIMETER
100
AcDbLine
10
-13.740157480314961
20
10.915354330708658
30
0
11
-13.740157480314947
21
-12.391732283464552
31
0
0
LINE
5
122
100
AcDbEntity
8
PERIMETER
100
AcDbLine
10
-12.598425196850389
20
10.915354330708661
30
0
11
-13.740157480314961
21
10.915354330708658
31
0
0
LINE
5
123
100
AcDbEntity
8
PERIMETER
100
AcDbLine
10
-12.598425196850389
20
12.332677165354328
30
0
11
-12.598425196850389
21
10.915354330708661
31
0
0
LINE
5
124
100
AcDbEntity
8
PERIMETER
100
AcDbLine
10
-11.181102362204719
20
12.332677165354328
30
0
11
-12.598425196850389
21
12.332677165354328
31
0
0
LINE
5
125
100
AcDbEntity
8
PERIMETER
100
AcDbLine
10
-11.181102362204717
20
13.474409448818895
30
0
11
-11.181102362204719
21
12.332677165354328
31
0
0
LINE
5
126
100
AcDbEntity
8
PERIMETER
100
AcDbLine
10
-2.322834645669293
20
13.474409448818895
30
0
11
-11.181102362204717
21
13.474409448818895
31
0
0
LINE
5
127
100
AcDbEntity
8
PERIMETER
100
AcDbLine
10
-2.3228346456692921
20
10.462598425196848
30
0
11
-2.322834645669293
21
13.474409448818895
31
0
0
LINE
5
128
100
AcDbEntity
8
PERIMETER
100
AcDbLine
10
-2.0078740157480288
20
10.147637795275591
30
0
11
-2.3228346456692921
21
10.462598425196848
31
0
0
LINE
5
129
100
AcDbEntity
8
PERIMETER
100
AcDbLine
10
0.45275590551181355
20
10.147637795275591
30
0
11
-2.0078740157480288
21
10.147637795275591
31
0
0
LINE
5
12A
100
AcDbEntity
8
PERIMETER
100
AcDbLine
10
0.76771653543307639
20
10.462598425196852
30
0
11
0.45275590551181355
21
10.147637795275591
31
0
0
LINE
5
12B
100
AcDbEntity
8
PERIMETER
100
AcDbLine
10
0.7677165354330765
20
12.33267716535433
30
0
11
0.76771653543307639
21
10.462598425196852
31
0
0
LINE
5
12C
100
AcDbEntity
8
PERIMETER
100
AcDbLine
10
2.0078740157480341
20
12.33267716535433
30
0
11
0.7677165354330765
21
12.33267716535433
31
0
0
LINE
5
12D
100
AcDbEntity
8
PERIMETER
100
AcDbLine
10
2.0078740157480262
20
13.474409448818895
30
0
11
2.0078740157480341
21
12.33267716535433
31
0
0
LINE
5
12E
100
AcDbEntity
8
PERIMETER
100
AcDbLine
10
11.181102362204722
20
13.474409448818895
30
0
11
2.0078740157480262
21
13.474409448818895
31
0
0
LINE
5
12F
100
AcDbEntity
8
PERIMETER
100
AcDbLine
10
11.181102362204724
20
12.332677165354328
30
0
11
11.181102362204722
21
13.474409448818895
31
0
0
LINE
5
130
100
AcDbEntity
8
PERIMETER
100
AcDbLine
10
12.598425196850393
20
12.332677165354331
30
0
11
11.181102362204722
21
12.332677165354328
31
0
0
LINE
5
131
100
AcDbEntity
8
PERIMETER
100
AcDbLine
10
12.598425196850393
20
10.915354330708659
30
0
11
12.598425196850393
21
12.332677165354331
31
0
0
LINE
5
132
100
AcDbEntity
8
PERIMETER
100
AcDbLine
10
13.740157480314961
20
10.915354330708661
30
0
11
12.598425196850393
21
10.915354330708659
31
0
0
LINE
5
133
100
AcDbEntity
8
PERIMETER
100
AcDbLine
10
13.740157480314954
20
-12.391732283464581
30
0
11
13.740157480314961
21
10.915354330708661
31
0
0
LINE
5
134
100
AcDbEntity
8
PERIMETER
100
AcDbLine
10
13.393700787401581
20
-12.39173228346456
30
0
11
13.740157480314954
21
-12.391732283464581
31
0
0
LINE
5
135
100
AcDbEntity
8
PERIMETER
100
AcDbLine
10
13.393700787401572
20
-10.864173228346448
30
0
11
13.393700787401581
21
-12.39173228346456
31
0
0
ARC
5
136
100
AcDbEntity
8
PERIMETER
100
AcDbCircle
10
13.188976377952752
20
-10.86417322834645
30
0
40
0.20472440944882012
210
0
220
-0
230
1
100
AcDbArc
50
0
51
180
0
LINE
5
137
100
AcDbEntity
8
PERIMETER
100
AcDbLine
10
12.984251968503941
20
-12.39173228346456
30
0
11
12.984251968503935
21
-10.86417322834645
31
0
0
LINE
5
138
100
AcDbEntity
8
PERIMETER
100
AcDbLine
10
12.716535433070872
20
-12.391732283464581
30
0
11
12.984251968503941
21
-12.39173228346456
31
0
0
LINE
5
139
100
AcDbEntity
8
PERIMETER
100
AcDbLine
10
12.716535433070872
20
-10.659448818897632
30
0
11
12.716535433070872
21
-12.391732283464581
31
0
0
LINE
5
13A
100
AcDbEntity
8
PERIMETER
100
AcDbLine
10
11.141732283464572
20
-10.659448818897637
30
0
11
12.716535433070872
21
-10.659448818897632
31
0
0
LINE
5
13B
100
AcDbEntity
8
PERIMETER
100
AcDbLine
10
10.86614173228347
20
-10.935039370078737
30
0
11
11.141732283464572
21
-10.659448818897637
31
0
0
LINE
5
13C
100
AcDbEntity
8
PERIMETER
100
AcDbLine
10
10.86614173228347
20
-12.509842519685037
30
0
11
10.86614173228347
21
-10.935039370078737
31
0
0
LINE
5
13D
100
AcDbEntity
8
PERIMETER
100
AcDbLine
10
12.598425196850393
20
-12.509842519685037
30
0
11
10.86614173228347
21
-12.509842519685037
31
0
0
LINE
5
13E
100
AcDbEntity
8
PERIMETER
100
AcDbLine
10
12.598425196850402
20
-12.777559055118106
30
0
11
12.598425196850393
21
-12.509842519685037
31
0
0
LINE
5
13F
100
AcDbEntity
8
PERIMETER
100
AcDbLine
10
11.070866141732285
20
-12.777559055118109
30
0
11
12.598425196850402
21
-12.777559055118106
31
0
0
ARC
5
140
100
AcDbEntity
8
PERIMETER
100
AcDbCircle
10
11.070866141732285
20
-12.982283464566928
30
0
40
0.20472440944882012
210
0
220
-0
230
1
100
AcDbArc
50
90
51
270
0
LINE
5
141
100
AcDbEntity
8
PERIMETER
100
AcDbLine
10
12.598425196850402
20
-13.187007874015743
30
0
11
11.070866141732285
21
-13.187007874015752
31
0
0
LINE
5
142
100
AcDbEntity
8
PERIMETER
100
AcDbLine
10
12.598425196850393
20
-13.474409448818895
30
0
11
12.598425196850402
21
-13.187007874015743
31
0
0
LINE
5
143
100
AcDbEntity
8
PERIMETER
100
AcDbLine
10
0.98425196850393692
20
-13.474409448818895
30
0
11
12.598425196850393
21
-13.474409448818895
31
0
0
LINE
5
144
100
AcDbEntity
8
PERIMETER
100
AcDbLine
10
0.70866141732283727
20
-13.198818897637791
30
0
11
0.98425196850393692
21
-13.474409448818895
31
0
0
LINE
5
145
100
AcDbEntity
8
PERIMETER
100
AcDbLine
10
0.70866141732283738
20
-12.450787401574797
30
0
11
0.70866141732283727
21
-13.198818897637791
31
0
0
ENDSEC
0
SECTION
2
OBJECTS
0
DICTIONARY
5
C
100
AcDbDictionary
3
ACAD_GROUP
350
D
3
ACAD_MLINESTYLE
350
17
0
DICTIONARY
5
D
100
AcDbDictionary
0
DICTIONARY
5
1A
330
C
100
AcDbDictionary
0
DICTIONARY
5
17
100
AcDbDictionary
0
ENDSEC
0
EOF
