0
SECTION
2
HEADER
9
$INSUNITS
70
1
9
$ACADVER
1
AC1014
9
$HANDSEED
5
FFFF
0
ENDSEC
0
SECTION
2
TABLES
0
TABLE
2
VPORT
5
8
100
AcDbSymbolTable
0
ENDTAB
0
TABLE
2
LTYPE
5
5
100
AcDbSymbolTable
70
2
0
LTYPE
5
14
100
AcDbSymbolTableRecord
100
AcDbLinetypeTableRecord
2
BYBLOCK
70
0
0
LTYPE
5
15
100
AcDbSymbolTableRecord
100
AcDbLinetypeTableRecord
2
BYLAYER
70
0
0
ENDTAB
0
TABLE
2
LAYER
5
2
100
AcDbSymbolTable
70
3
0
LAYER
5
50
100
AcDbSymbolTableRecord
100
AcDbLayerTableRecord
2
0
70
0
6
CONTINUOUS
0
LAYER
5
51
100
AcDbSymbolTableRecord
100
AcDbLayerTableRecord
2
CUTOUTS
70
0
62
1
6
CONTINUOUS
0
LAYER
5
52
100
AcDbSymbolTableRecord
100
AcDbLayerTableRecord
2
PERIMETER
70
0
62
5
6
CONTINUOUS
0
ENDTAB
0
TABLE
2
STYLE
5
3
100
AcDbSymbolTable
70
1
0
STYLE
5
11
100
AcDbSymbolTableRecord
100
AcDbTextStyleTableRecord
2
STANDARD
70
0
0
ENDTAB
0
TABLE
2
VIEW
5
6
100
AcDbSymbolTable
0
ENDTAB
0
TABLE
2
UCS
5
7
100
AcDbSymbolTable
0
ENDTAB
0
TABLE
2
APPID
5
9
100
AcDbSymbolTable
70
1
0
APPID
5
12
100
AcDbSymbolTableRecord
100
AcDbRegAppTableRecord
2
ACAD
70
0
0
ENDTAB
0
TABLE
2
DIMSTYLE
5
A
100
AcDbSymbolTable
0
ENDTAB
0
TABLE
2
BLOCK_RECORD
5
1
100
AcDbSymbolTable
70
2
0
BLOCK_RECORD
5
1F
100
AcDbSymbolTableRecord
100
AcDbBlockTableRecord
2
*MODEL_SPACE
0
BLOCK_RECORD
5
1B
100
AcDbSymbolTableRecord
100
AcDbBlockTableRecord
2
*PAPER_SPACE
0
ENDTAB
0
ENDSEC
0
SECTION
2
BLOCKS
0
BLOCK
5
20
100
AcDbEntity
100
AcDbBlockBegin
2
*MODEL_SPACE
0
ENDBLK
5
21
100
AcDbEntity
100
AcDbBlockEnd
0
BLOCK
5
1C
100
AcDbEntity
100
AcDbBlockBegin
2
*PAPER_SPACE
0
ENDBLK
5
1D
100
AcDbEntity
100
AcDbBlockEnd
0
ENDSEC
0
SECTION
2
ENTITIES
0
CIRCLE
5
100
100
AcDbEntity
8
CUTOUTS
100
AcDbCircle
10
10.925196850393695
20
8.4645669291338415
30
0
40
0.12992125984251901
210
0
220
0
230
1
0
CIRCLE
5
101
100
AcDbEntity
8
CUTOUTS
100
AcDbCircle
10
-10.9251968503937
20
8.4645669291338468
30
0
40
0.12992125984251901
210
0
220
0
230
1
0
CIRCLE
5
102
100
AcDbEntity
8
CUTOUTS
100
AcDbCircle
10
-11.437007874015761
20
-4.9212598425195786
30
0
40
0.12992125984251901
210
0
220
0
230
1
0
CIRCLE
5
103
100
AcDbEntity
8
CUTOUTS
100
AcDbCircle
10
-10.925196850393711
20
-18.307086614173226
30
0
40
0.12992125984251901
210
0
220
0
230
1
0
CIRCLE
5
104
100
AcDbEntity
8
CUTOUTS
100
AcDbCircle
10
10.925196850393691
20
-18.307086614173226
30
0
40
0.12992125984251901
210
0
220
0
230
1
0
CIRCLE
5
105
100
AcDbEntity
8
CUTOUTS
100
AcDbCircle
10
14.468503937007865
20
-4.3307086614173418
30
0
40
0.12992125984251901
210
0
220
0
230
1
0
CIRCLE
5
106
100
AcDbEntity
8
CUTOUTS
100
AcDbCircle
10
14.468503937007867
20
10.826771653543279
30
0
40
0.12992125984251901
210
0
220
0
230
1
0
CIRCLE
5
107
100
AcDbEntity
8
CUTOUTS
100
AcDbCircle
10
10.925196850393702
20
18.30708661417323
30
0
40
0.12992125984251901
210
0
220
0
230
1
0
CIRCLE
5
108
100
AcDbEntity
8
CUTOUTS
100
AcDbCircle
10
-10.9251968503937
20
18.307086614173226
30
0
40
0.12992125984251901
210
0
220
0
230
1
0
CIRCLE
5
109
100
AcDbEntity
8
CUTOUTS
100
AcDbCircle
10
-14.468503937007872
20
10.826771653543286
30
0
40
0.12992125984251901
210
0
220
0
230
1
0
CIRCLE
5
10A
100
AcDbEntity
8
CUTOUTS
100
AcDbCircle
10
-14.468503937007872
20
14.763779527559054
30
0
40
0.12992125984251901
210
0
220
0
230
1
0
CIRCLE
5
10B
100
AcDbEntity
8
CUTOUTS
100
AcDbCircle
10
1.3987061727561026e-15
20
18.30708661417323
30
0
40
0.12992125984251968
210
0
220
0
230
1
0
CIRCLE
5
10C
100
AcDbEntity
8
CUTOUTS
100
AcDbCircle
10
14.468503937007871
20
14.763779527559045
30
0
40
0.12992125984251901
210
0
220
0
230
1
0
CIRCLE
5
10D
100
AcDbEntity
8
CUTOUTS
100
AcDbCircle
10
14.468503937007867
20
6.1023622047243826
30
0
40
0.12992125984251901
210
0
220
0
230
1
0
CIRCLE
5
10E
100
AcDbEntity
8
CUTOUTS
100
AcDbCircle
10
14.468503937007858
20
-14.763779527559064
30
0
40
0.12992125984251901
210
0
220
0
230
1
0
CIRCLE
5
10F
100
AcDbEntity
8
CUTOUTS
100
AcDbCircle
10
-2.3778004936853745e-14
20
-18.307086614173226
30
0
40
0.12992125984251968
210
0
220
0
230
1
0
CIRCLE
5
110
100
AcDbEntity
8
CUTOUTS
100
AcDbCircle
10
-11.437007874015775
20
-16.732283464566972
30
0
40
0.12992125984251901
210
0
220
0
230
1
0
CIRCLE
5
111
100
AcDbEntity
8
CUTOUTS
100
AcDbCircle
10
-11.437007874015748
20
7.086614173228333
30
0
40
0.12992125984251901
210
0
220
0
230
1
0
CIRCLE
5
112
100
AcDbEntity
8
CUTOUTS
100
AcDbCircle
10
0
20
8.4645669291338574
30
0
40
0.12992125984251968
210
0
220
0
230
1
0
LINE
5
113
100
AcDbEntity
8
PERIMETER
100
AcDbLine
10
-11.88638636072335
20
6.6698509276525577
30
0
11
-11.026999466043421
21
5.8104640329725701
31
0
0
ARC
5
114
100
AcDbEntity
8
PERIMETER
100
AcDbCircle
10
-11.082677165349448
20
5.7547863336665444
30
0
40
0.078740157480314668
210
0
220
-0
230
1
100
AcDbArc
50
0
51
44.999999999999091
0
LINE
5
115
100
AcDbEntity
8
PERIMETER
100
AcDbLine
10
-11.003937007869135
20
5.7547863336665444
30
0
11
-11.003937007869135
21
-3.5894320029577655
31
0
0
ARC
5
116
100
AcDbEntity
8
PERIMETER
100
AcDbCircle
10
-11.08267716534945
20
-3.5894320029577655
30
0
40
0.078740157480314793
210
-0
220
0
230
1
100
AcDbArc
50
-45
51
0
0
LINE
5
117
100
AcDbEntity
8
PERIMETER
100
AcDbLine
10
-11.026999466043423
20
-3.6451097022637931
30
0
11
-11.886386360723337
21
-4.5044965969437145
31
0
0
ARC
5
118
100
AcDbEntity
8
PERIMETER
100
AcDbCircle
10
-11.83070866141731
20
-4.560174296249742
30
0
40
0.078740157480314793
210
0
220
0
230
1
100
AcDbArc
50
135
51
180
0
LINE
5
119
100
AcDbEntity
8
PERIMETER
100
AcDbLine
10
-11.909448818897626
20
-4.560174296249742
30
0
11
-11.909448818897626
21
-5.282345388789409
31
0
0
ARC
5
11A
100
AcDbEntity
8
PERIMETER
100
AcDbCircle
10
-11.830708661417301
20
-5.2823453887894036
30
0
40
0.078740157480325867
210
0
220
0
230
1
100
AcDbArc
50
180
51
224.99999999999861
0
LINE
5
11B
100
AcDbEntity
8
PERIMETER
100
AcDbLine
10
-11.886386360723337
20
-5.3380230880954365
30
0
11
-11.026999466043424
21
-6.1974099827753664
31
0
0
ARC
5
11C
100
AcDbEntity
8
PERIMETER
100
AcDbCircle
10
-11.08267716534945
20
-6.2530876820813912
30
0
40
0.078740157480314668
210
0
220
-0
230
1
100
AcDbArc
50
0
51
44.999999999999538
0
LINE
5
11D
100
AcDbEntity
8
PERIMETER
100
AcDbLine
10
-11.003937007869135
20
-6.2530876820813912
30
0
11
-11.003937007869135
21
-15.400455625005185
31
0
0
ARC
5
11E
100
AcDbEntity
8
PERIMETER
100
AcDbCircle
10
-11.082677165349452
20
-15.400455625005185
30
0
40
0.078740157480314793
210
-0
220
0
230
1
100
AcDbArc
50
-45
51
0
0
LINE
5
11F
100
AcDbEntity
8
PERIMETER
100
AcDbLine
10
-11.026999466043424
20
-15.456133324311212
30
0
11
-11.886386360723332
21
-16.315520218991107
31
0
0
ARC
5
120
100
AcDbEntity
8
PERIMETER
100
AcDbCircle
10
-11.83070866141731
20
-16.371197918297131
30
0
40
0.078740157480308867
210
0
220
0
230
1
100
AcDbArc
50
134.99999999999909
51
180
0
LINE
5
121
100
AcDbEntity
8
PERIMETER
100
AcDbLine
10
-11.909448818897619
20
-16.371197918297135
30
0
11
-11.909448818897618
21
-17.206702855578552
31
0
0
ARC
5
122
100
AcDbEntity
8
PERIMETER
100
AcDbCircle
10
-11.830708661417299
20
-17.206702855578552
30
0
40
0.078740157480318873
210
0
220
0
230
1
100
AcDbArc
50
180
51
224.99999999999909
0
LINE
5
123
100
AcDbEntity
8
PERIMETER
100
AcDbLine
10
-11.886386360723328
20
-17.262380554884579
30
0
11
-11.479755371560138
21
-17.669011544047773
31
0
0
ARC
5
124
100
AcDbEntity
8
PERIMETER
100
AcDbCircle
10
-11.535433070866166
20
-17.724689243353801
30
0
40
0.078740157480314668
210
0
220
-0
230
1
100
AcDbArc
50
0
51
45.000000000000917
0
LINE
5
125
100
AcDbEntity
8
PERIMETER
100
AcDbLine
10
-11.456692913385851
20
-17.724689243353801
30
0
11
-11.456692913385849
21
-18.818897637795278
31
0
0
ARC
5
126
100
AcDbEntity
8
PERIMETER
100
AcDbCircle
10
-11.377952755905527
20
-18.818897637795267
30
0
40
0.078740157480321663
210
0
220
0
230
1
100
AcDbArc
50
180
51
269.99999999999352
0
LINE
5
127
100
AcDbEntity
8
PERIMETER
100
AcDbLine
10
-11.377952755905536
20
-18.897637795275589
30
0
11
11.377952755905488
21
-18.897637795275589
31
0
0
ARC
5
128
100
AcDbEntity
8
PERIMETER
100
AcDbCircle
10
11.377952755905483
20
-18.818897637795274
30
0
40
0.07874015748031607
210
-0
220
0
230
1
100
AcDbArc
50
-89.999999999996135
51
0
0
LINE
5
129
100
AcDbEntity
8
PERIMETER
100
AcDbLine
10
11.456692913385798
20
-18.818897637795274
30
0
11
11.456692913385805
21
-17.724689243353801
31
0
0
ARC
5
12A
100
AcDbEntity
8
PERIMETER
100
AcDbCircle
10
11.535433070866118
20
-17.724689243353801
30
0
40
0.078740157480315792
210
0
220
0
230
1
100
AcDbArc
50
134.99999999999909
51
180
0
LINE
5
12B
100
AcDbEntity
8
PERIMETER
100
AcDbLine
10
11.479755371560092
20
-17.669011544047773
30
0
11
13.830428866882402
21
-15.318338048725487
31
0
0
ARC
5
12C
100
AcDbEntity
8
PERIMETER
100
AcDbCircle
10
13.886106566188429
20
-15.374015748031514
30
0
40
0.07874015748031607
210
0
220
-0
230
1
100
AcDbArc
50
90
51
135
0
LINE
5
12D
100
AcDbEntity
8
PERIMETER
100
AcDbLine
10
13.886106566188429
20
-15.295275590551197
30
0
11
14.980314960629899
21
-15.295275590551192
31
0
0
ARC
5
12E
100
AcDbEntity
8
PERIMETER
100
AcDbCircle
10
14.980314960629894
20
-15.21653543307087
30
0
40
0.078740157480321663
210
-0
220
0
230
1
100
AcDbArc
50
270.00000000000387
51
360
0
LINE
5
12F
100
AcDbEntity
8
PERIMETER
100
AcDbLine
10
15.059055118110216
20
-15.216535433070876
30
0
11
15.05905511811023
21
6.5551181102361946
31
0
0
ARC
5
130
100
AcDbEntity
8
PERIMETER
100
AcDbCircle
10
14.980314960629913
20
6.5551181102361946
30
0
40
0.07874015748031607
210
0
220
0
230
1
100
AcDbArc
50
0
51
90
0
LINE
5
131
100
AcDbEntity
8
PERIMETER
100
AcDbLine
10
14.980314960629913
20
6.6338582677165103
30
0
11
13.882599763336605
21
6.6338582677165112
31
0
0
ARC
5
132
100
AcDbEntity
8
PERIMETER
100
AcDbCircle
10
13.882599763336605
20
6.712598425196826
30
0
40
0.078740157480315334
210
0
220
0
230
1
100
AcDbArc
50
243.43494882292228
51
270
0
LINE
5
133
100
AcDbEntity
8
PERIMETER
100
AcDbLine
10
13.847386094399601
20
6.6421710873228168
30
0
11
11.500219401929131
21
7.815754433558058
31
0
0
ARC
5
134
100
AcDbEntity
8
PERIMETER
100
AcDbCircle
10
11.535433070866137
20
7.8861817714320681
30
0
40
0.078740157480314668
210
0
220
0
230
1
100
AcDbArc
50
180
51
243.43494882292083
0
LINE
5
135
100
AcDbEntity
8
PERIMETER
100
AcDbLine
10
11.456692913385822
20
7.8861817714320663
30
0
11
11.456692913385821
21
9.0429520868356157
31
0
0
ARC
5
136
100
AcDbEntity
8
PERIMETER
100
AcDbCircle
10
11.535433070866135
20
9.0429520868356157
30
0
40
0.078740157480315334
210
0
220
0
230
1
100
AcDbArc
50
116.56505117707799
51
180
0
LINE
5
137
100
AcDbEntity
8
PERIMETER
100
AcDbLine
10
11.500219401929131
20
9.113379424709624
30
0
11
13.847386094399598
21
10.28696277094485
31
0
0
ARC
5
138
100
AcDbEntity
8
PERIMETER
100
AcDbCircle
10
13.882599763336604
20
10.216535433070842
30
0
40
0.078740157480314668
210
0
220
-0
230
1
100
AcDbArc
50
90
51
116.56505117707917
0
LINE
5
139
100
AcDbEntity
8
PERIMETER
100
AcDbLine
10
13.882599763336604
20
10.295275590551157
30
0
11
14.980314960629913
21
10.295275590551155
31
0
0
ARC
5
13A
100
AcDbEntity
8
PERIMETER
100
AcDbCircle
10
14.980314960629913
20
10.374015748031471
30
0
40
0.078740157480314668
210
-0
220
0
230
1
100
AcDbArc
50
270
51
360
0
LINE
5
13B
100
AcDbEntity
8
PERIMETER
100
AcDbLine
10
15.05905511811023
20
10.37401574803147
30
0
11
15.059055118110235
21
15.21653543307086
31
0
0
ARC
5
13C
100
AcDbEntity
8
PERIMETER
100
AcDbCircle
10
14.980314960629922
20
15.21653543307086
30
0
40
0.07874015748031328
210
0
220
-0
230
1
100
AcDbArc
50
0
51
90.000000000002586
0
LINE
5
13D
100
AcDbEntity
8
PERIMETER
100
AcDbLine
10
14.980314960629919
20
15.295275590551173
30
0
11
13.886106566188442
21
15.295275590551173
31
0
0
ARC
5
13E
100
AcDbEntity
8
PERIMETER
100
AcDbCircle
10
13.886106566188442
20
15.374015748031487
30
0
40
0.078740157480314793
210
0
220
0
230
1
100
AcDbArc
50
225
51
270
0
LINE
5
13F
100
AcDbEntity
8
PERIMETER
100
AcDbLine
10
13.830428866882416
20
15.318338048725462
30
0
11
11.479755371560115
21
17.669011544047766
31
0
0
ARC
5
140
100
AcDbEntity
8
PERIMETER
100
AcDbCircle
10
11.535433070866141
20
17.72468924335379
30
0
40
0.078740157480314668
210
0
220
0
230
1
100
AcDbArc
50
180
51
225
0
LINE
5
141
100
AcDbEntity
8
PERIMETER
100
AcDbLine
10
11.456692913385826
20
17.72468924335379
30
0
11
11.456692913385826
21
18.818897637795278
31
0
0
ARC
5
142
100
AcDbEntity
8
PERIMETER
100
AcDbCircle
10
11.377952755905511
20
18.818897637795281
30
0
40
0.078740157480314668
210
0
220
-0
230
1
100
AcDbArc
50
0
51
90
0
LINE
5
143
100
AcDbEntity
8
PERIMETER
100
AcDbLine
10
11.377952755905511
20
18.897637795275596
30
0
11
-11.377952755905515
21
18.897637795275578
31
0
0
ARC
5
144
100
AcDbEntity
8
PERIMETER
100
AcDbCircle
10
-11.377952755905513
20
18.818897637795267
30
0
40
0.07874015748031607
210
0
220
0
230
1
100
AcDbArc
50
90.000000000001307
51
180
0
LINE
5
145
100
AcDbEntity
8
PERIMETER
100
AcDbLine
10
-11.456692913385828
20
18.818897637795267
30
0
11
-11.456692913385826
21
17.724689243353801
31
0
0
ARC
5
146
100
AcDbEntity
8
PERIMETER
100
AcDbCircle
10
-11.535433070866141
20
17.724689243353801
30
0
40
0.078740157480314793
210
-0
220
0
230
1
100
AcDbArc
50
-45
51
0
0
LINE
5
147
100
AcDbEntity
8
PERIMETER
100
AcDbLine
10
-11.479755371560113
20
17.669011544047773
30
0
11
-13.830428866882418
21
15.318338048725469
31
0
0
ARC
5
148
100
AcDbEntity
8
PERIMETER
100
AcDbCircle
10
-13.886106566188445
20
15.374015748031495
30
0
40
0.07874015748031607
210
-0
220
0
230
1
100
AcDbArc
50
270
51
315
0
LINE
5
149
100
AcDbEntity
8
PERIMETER
100
AcDbLine
10
-13.886106566188445
20
15.29527559055118
30
0
11
-14.980314960629919
21
15.29527559055118
31
0
0
ARC
5
14A
100
AcDbEntity
8
PERIMETER
100
AcDbCircle
10
-14.980314960629919
20
15.216535433070865
30
0
40
0.07874015748031607
210
0
220
-0
230
1
100
AcDbArc
50
90
51
180
0
LINE
5
14B
100
AcDbEntity
8
PERIMETER
100
AcDbLine
10
-15.059055118110235
20
15.216535433070867
30
0
11
-15.059055118110235
21
10.374015748031477
31
0
0
ARC
5
14C
100
AcDbEntity
8
PERIMETER
100
AcDbCircle
10
-14.980314960629919
20
10.374015748031475
30
0
40
0.07874015748031607
210
0
220
0
230
1
100
AcDbArc
50
180
51
270
0
LINE
5
14D
100
AcDbEntity
8
PERIMETER
100
AcDbLine
10
-14.980314960629919
20
10.295275590551158
30
0
11
-13.882599763336609
21
10.29527559055116
31
0
0
ARC
5
14E
100
AcDbEntity
8
PERIMETER
100
AcDbCircle
10
-13.882599763336609
20
10.216535433070845
30
0
40
0.078740157480315334
210
0
220
-0
230
1
100
AcDbArc
50
63.434948822919694
51
90
0
LINE
5
14F
100
AcDbEntity
8
PERIMETER
100
AcDbLine
10
-13.847386094399601
20
10.286962770944854
30
0
11
-11.500219401929138
21
9.1133794247096294
31
0
0
ARC
5
150
100
AcDbEntity
8
PERIMETER
100
AcDbCircle
10
-11.535433070866143
20
9.042952086835621
30
0
40
0.078740157480314668
210
0
220
0
230
1
100
AcDbArc
50
0
51
63.43494882292201
0
LINE
5
151
100
AcDbEntity
8
PERIMETER
100
AcDbLine
10
-11.456692913385828
20
9.042952086835621
30
0
11
-11.456692913385826
21
7.8861817714320717
31
0
0
ARC
5
152
100
AcDbEntity
8
PERIMETER
100
AcDbCircle
10
-11.535433070866141
20
7.8861817714320717
30
0
40
0.07874015748031471
210
-0
220
0
230
1
100
AcDbArc
50
-63.434948822923488
51
0
0
LINE
5
153
100
AcDbEntity
8
PERIMETER
100
AcDbLine
10
-11.500219401929138
20
7.8157544335580624
30
0
11
-11.865922330354325
21
7.6329029693454684
31
0
0
ARC
5
154
100
AcDbEntity
8
PERIMETER
100
AcDbCircle
10
-11.830708661417319
20
7.5624756314714574
30
0
40
0.078740157480317832
210
0
220
0
230
1
100
AcDbArc
50
116.56505117707826
51
180
0
LINE
5
155
100
AcDbEntity
8
PERIMETER
100
AcDbLine
10
-11.909448818897635
20
7.5624756314714592
30
0
11
-11.909448818897635
21
6.7255286269585808
31
0
0
ARC
5
156
100
AcDbEntity
8
PERIMETER
100
AcDbCircle
10
-11.83070866141731
20
6.7255286269585879
30
0
40
0.078740157480325867
210
0
220
0
230
1
100
AcDbArc
50
180
51
224.99999999999497
0
ENDSEC
0
SECTION
2
OBJECTS
0
DICTIONARY
5
C
100
AcDbDictionary
3
ACAD_GROUP
350
D
3
ACAD_MLINESTYLE
350
17
0
DICTIONARY
5
D
100
AcDbDictionary
0
DICTIONARY
5
1A
330
C
100
AcDbDictionary
0
DICTIONARY
5
17
100
AcDbDictionary
0
ENDSEC
0
EOF
