0
SECTION
2
HEADER
9
$INSUNITS
70
1
9
$ACADVER
1
AC1014
9
$HANDSEED
5
FFFF
0
ENDSEC
0
SECTION
2
TABLES
0
TABLE
2
VPORT
5
8
100
AcDbSymbolTable
0
ENDTAB
0
TABLE
2
LTYPE
5
5
100
AcDbSymbolTable
70
2
0
LTYPE
5
14
100
AcDbSymbolTableRecord
100
AcDbLinetypeTableRecord
2
BYBLOCK
70
0
0
LTYPE
5
15
100
AcDbSymbolTableRecord
100
AcDbLinetypeTableRecord
2
BYLAYER
70
0
0
ENDTAB
0
TABLE
2
LAYER
5
2
100
AcDbSymbolTable
70
3
0
LAYER
5
50
100
AcDbSymbolTableRecord
100
AcDbLayerTableRecord
2
0
70
0
6
CONTINUOUS
0
LAYER
5
51
100
AcDbSymbolTableRecord
100
AcDbLayerTableRecord
2
CUTOUTS
70
0
62
1
6
CONTINUOUS
0
LAYER
5
52
100
AcDbSymbolTableRecord
100
AcDbLayerTableRecord
2
PERIMETER
70
0
62
5
6
CONTINUOUS
0
ENDTAB
0
TABLE
2
STYLE
5
3
100
AcDbSymbolTable
70
1
0
STYLE
5
11
100
AcDbSymbolTableRecord
100
AcDbTextStyleTableRecord
2
STANDARD
70
0
0
ENDTAB
0
TABLE
2
VIEW
5
6
100
AcDbSymbolTable
0
ENDTAB
0
TABLE
2
UCS
5
7
100
AcDbSymbolTable
0
ENDTAB
0
TABLE
2
APPID
5
9
100
AcDbSymbolTable
70
1
0
APPID
5
12
100
AcDbSymbolTableRecord
100
AcDbRegAppTableRecord
2
ACAD
70
0
0
ENDTAB
0
TABLE
2
DIMSTYLE
5
A
100
AcDbSymbolTable
0
ENDTAB
0
TABLE
2
BLOCK_RECORD
5
1
100
AcDbSymbolTable
70
2
0
BLOCK_RECORD
5
1F
100
AcDbSymbolTableRecord
100
AcDbBlockTableRecord
2
*MODEL_SPACE
0
BLOCK_RECORD
5
1B
100
AcDbSymbolTableRecord
100
AcDbBlockTableRecord
2
*PAPER_SPACE
0
ENDTAB
0
ENDSEC
0
SECTION
2
BLOCKS
0
BLOCK
5
20
100
AcDbEntity
100
AcDbBlockBegin
2
*MODEL_SPACE
0
ENDBLK
5
21
100
AcDbEntity
100
AcDbBlockEnd
0
BLOCK
5
1C
100
AcDbEntity
100
AcDbBlockBegin
2
*PAPER_SPACE
0
ENDBLK
5
1D
100
AcDbEntity
100
AcDbBlockEnd
0
ENDSEC
0
SECTION
2
ENTITIES
0
CIRCLE
5
100
100
AcDbEntity
8
CUTOUTS
100
AcDbCircle
10
6.6830708661417271
20
-5.6988188976377936
30
0
40
0.13779527559055174
210
0
220
0
230
1
0
CIRCLE
5
101
100
AcDbEntity
8
CUTOUTS
100
AcDbCircle
10
6.6830708661417271
20
2.1751968503937014
30
0
40
0.13779527559055174
210
0
220
0
230
1
0
CIRCLE
5
102
100
AcDbEntity
8
CUTOUTS
100
AcDbCircle
10
-6.5059055118110649
20
-0.56102362204724432
30
0
40
0.13779527559055174
210
0
220
0
230
1
0
CIRCLE
5
103
100
AcDbEntity
8
CUTOUTS
100
AcDbCircle
10
5.6594488188976433
20
6.1122047244096116
30
0
40
0.13779527559055102
210
0
220
0
230
1
0
CIRCLE
5
104
100
AcDbEntity
8
CUTOUTS
100
AcDbCircle
10
-1.5846456692913322
20
6.1122047244094437
30
0
40
0.13779527559055121
210
0
220
0
230
1
0
CIRCLE
5
105
100
AcDbEntity
8
CUTOUTS
100
AcDbCircle
10
-6.505905511811017
20
4.9311023622047232
30
0
40
0.13779527559055174
210
0
220
0
230
1
0
CIRCLE
5
106
100
AcDbEntity
8
CUTOUTS
100
AcDbCircle
10
-6.505905511811112
20
-6.0531496062992121
30
0
40
0.13779527559055174
210
0
220
0
230
1
0
CIRCLE
5
107
100
AcDbEntity
8
CUTOUTS
100
AcDbCircle
10
6.6830708661417271
20
-1.7618110236220463
30
0
40
0.13779527559055174
210
0
220
0
230
1
0
LINE
5
108
100
AcDbEntity
8
CUTOUTS
100
AcDbLine
10
-5.2598425196850345
20
5.4822834645669278
30
0
11
-5.8622047244094455
21
5.4822834645669278
31
0
0
ARC
5
109
100
AcDbEntity
8
CUTOUTS
100
AcDbCircle
10
-5.8622047244094455
20
5.5610236220472435
30
0
40
0.07874015748031607
210
0
220
0
230
1
100
AcDbArc
50
180
51
270
0
LINE
5
10A
100
AcDbEntity
8
CUTOUTS
100
AcDbLine
10
-5.9409448818897621
20
5.5610236220472435
30
0
11
-5.9409448818897594
21
5.9940944881889751
31
0
0
ARC
5
10B
100
AcDbEntity
8
CUTOUTS
100
AcDbCircle
10
-5.8622047244094446
20
5.9940944881889751
30
0
40
0.07874015748031607
210
0
220
-0
230
1
100
AcDbArc
50
90
51
180
0
LINE
5
10C
100
AcDbEntity
8
CUTOUTS
100
AcDbLine
10
-5.8622047244094446
20
6.0728346456692908
30
0
11
-5.2598425196850327
21
6.0728346456692908
31
0
0
ARC
5
10D
100
AcDbEntity
8
CUTOUTS
100
AcDbCircle
10
-5.2598425196850327
20
5.9940944881889751
30
0
40
0.078740157480314668
210
0
220
-0
230
1
100
AcDbArc
50
0
51
90
0
LINE
5
10E
100
AcDbEntity
8
CUTOUTS
100
AcDbLine
10
-5.1811023622047188
20
5.9940944881889751
30
0
11
-5.1811023622047196
21
5.5610236220472427
31
0
0
ARC
5
10F
100
AcDbEntity
8
CUTOUTS
100
AcDbCircle
10
-5.2598425196850345
20
5.5610236220472427
30
0
40
0.078740157480314668
210
-0
220
0
230
1
100
AcDbArc
50
-90
51
0
0
LINE
5
110
100
AcDbEntity
8
PERIMETER
100
AcDbLine
10
6.3484251968503873
20
1.2106299212598435
30
0
11
7.0177165354330642
21
1.2106299212598435
31
0
0
ARC
5
111
100
AcDbEntity
8
PERIMETER
100
AcDbCircle
10
6.3484251968503873
20
1.1318897637795289
30
0
40
0.078740157480314668
210
0
220
-0
230
1
100
AcDbArc
50
90
51
180
0
LINE
5
112
100
AcDbEntity
8
PERIMETER
100
AcDbLine
10
6.2696850393700725
20
-0.71850393700787363
30
0
11
6.2696850393700734
21
1.1318897637795289
31
0
0
ARC
5
113
100
AcDbEntity
8
PERIMETER
100
AcDbCircle
10
6.3484251968503873
20
-0.71850393700787363
30
0
40
0.078740157480314668
210
0
220
0
230
1
100
AcDbArc
50
180
51
270
0
LINE
5
114
100
AcDbEntity
8
PERIMETER
100
AcDbLine
10
7.0177165354330642
20
-0.79724409448818767
30
0
11
6.3484251968503873
21
-0.79724409448818834
31
0
0
ARC
5
115
100
AcDbEntity
8
PERIMETER
100
AcDbCircle
10
7.0177165354330642
20
-0.83661417322834497
30
0
40
0.039370078740158035
210
0
220
-0
230
1
100
AcDbArc
50
0
51
90
0
LINE
5
116
100
AcDbEntity
8
PERIMETER
100
AcDbLine
10
7.0570866141732207
20
-2.6870078740157477
30
0
11
7.0570866141732225
21
-0.83661417322834497
31
0
0
ARC
5
117
100
AcDbEntity
8
PERIMETER
100
AcDbCircle
10
7.0177165354330642
20
-2.6870078740157477
30
0
40
0.03937007874015664
210
-0
220
0
230
1
100
AcDbArc
50
-90
51
0
0
LINE
5
118
100
AcDbEntity
8
PERIMETER
100
AcDbLine
10
6.3484251968503873
20
-2.7263779527559042
30
0
11
7.0177165354330642
21
-2.7263779527559042
31
0
0
ARC
5
119
100
AcDbEntity
8
PERIMETER
100
AcDbCircle
10
6.3484251968503873
20
-2.805118110236219
30
0
40
0.078740157480314668
210
0
220
-0
230
1
100
AcDbArc
50
90
51
180
0
LINE
5
11A
100
AcDbEntity
8
PERIMETER
100
AcDbLine
10
6.2696850393700725
20
-4.6555118110236213
30
0
11
6.2696850393700734
21
-2.805118110236219
31
0
0
ARC
5
11B
100
AcDbEntity
8
PERIMETER
100
AcDbCircle
10
6.3484251968503873
20
-4.6555118110236213
30
0
40
0.078740157480315376
210
0
220
0
230
1
100
AcDbArc
50
180
51
270
0
LINE
5
11C
100
AcDbEntity
8
PERIMETER
100
AcDbLine
10
7.0177165354330642
20
-4.7342519685039353
30
0
11
6.3484251968503873
21
-4.7342519685039361
31
0
0
ARC
5
11D
100
AcDbEntity
8
PERIMETER
100
AcDbCircle
10
7.0177165354330642
20
-4.7736220472440927
30
0
40
0.039370078740158035
210
0
220
-0
230
1
100
AcDbArc
50
0
51
90
0
LINE
5
11E
100
AcDbEntity
8
PERIMETER
100
AcDbLine
10
7.0570866141732207
20
-6.6240157480314954
30
0
11
7.0570866141732225
21
-4.7736220472440927
31
0
0
ARC
5
11F
100
AcDbEntity
8
PERIMETER
100
AcDbCircle
10
7.0177165354330642
20
-6.6240157480314954
30
0
40
0.03937007874015664
210
-0
220
0
230
1
100
AcDbArc
50
-89.999999999997399
51
0
0
LINE
5
120
100
AcDbEntity
8
PERIMETER
100
AcDbLine
10
-7.0570866141732242
20
-6.6633858267716501
30
0
11
7.0177165354330659
21
-6.6633858267716519
31
0
0
LINE
5
121
100
AcDbEntity
8
PERIMETER
100
AcDbLine
10
-7.0570866141732207
20
6.5846456692913371
30
0
11
-7.0570866141732242
21
-6.6633858267716501
31
0
0
ARC
5
122
100
AcDbEntity
8
PERIMETER
100
AcDbCircle
10
-6.978346456692905
20
6.5846456692913371
30
0
40
0.07874015748031607
210
0
220
-0
230
1
100
AcDbArc
50
90
51
180
0
LINE
5
123
100
AcDbEntity
8
PERIMETER
100
AcDbLine
10
7.0570866141732242
20
6.6633858267716537
30
0
11
-6.978346456692905
21
6.6633858267716537
31
0
0
LINE
5
124
100
AcDbEntity
8
PERIMETER
100
AcDbLine
10
7.057086614173218
20
5.2066929133858268
30
0
11
7.0570866141732242
21
6.6633858267716537
31
0
0
ARC
5
125
100
AcDbEntity
8
PERIMETER
100
AcDbCircle
10
6.9980314960629828
20
5.2066929133858268
30
0
40
0.059055118110235658
210
-0
220
0
230
1
100
AcDbArc
50
-90
51
0
0
LINE
5
126
100
AcDbEntity
8
PERIMETER
100
AcDbLine
10
6.3484251968503873
20
5.1476377952755916
30
0
11
6.9980314960629828
21
5.1476377952755916
31
0
0
ARC
5
127
100
AcDbEntity
8
PERIMETER
100
AcDbCircle
10
6.3484251968503873
20
5.0688976377952768
30
0
40
0.078740157480314668
210
0
220
-0
230
1
100
AcDbArc
50
90
51
180
0
LINE
5
128
100
AcDbEntity
8
PERIMETER
100
AcDbLine
10
6.2696850393700725
20
3.2185039370078741
30
0
11
6.2696850393700734
21
5.0688976377952768
31
0
0
ARC
5
129
100
AcDbEntity
8
PERIMETER
100
AcDbCircle
10
6.3484251968503873
20
3.2185039370078741
30
0
40
0.078740157480314668
210
0
220
0
230
1
100
AcDbArc
50
180
51
270
0
LINE
5
12A
100
AcDbEntity
8
PERIMETER
100
AcDbLine
10
7.0177165354330642
20
3.1397637795275606
30
0
11
6.3484251968503873
21
3.1397637795275593
31
0
0
ARC
5
12B
100
AcDbEntity
8
PERIMETER
100
AcDbCircle
10
7.0177165354330642
20
3.1003937007874027
30
0
40
0.039370078740158035
210
0
220
-0
230
1
100
AcDbArc
50
0
51
90
0
LINE
5
12C
100
AcDbEntity
8
PERIMETER
100
AcDbLine
10
7.0570866141732207
20
1.2500000000000002
30
0
11
7.0570866141732225
21
3.1003937007874027
31
0
0
ARC
5
12D
100
AcDbEntity
8
PERIMETER
100
AcDbCircle
10
7.0177165354330642
20
1.2500000000000002
30
0
40
0.03937007874015664
210
-0
220
0
230
1
100
AcDbArc
50
-90
51
0
0
ENDSEC
0
SECTION
2
OBJECTS
0
DICTIONARY
5
C
100
AcDbDictionary
3
ACAD_GROUP
350
D
3
ACAD_MLINESTYLE
350
17
0
DICTIONARY
5
D
100
AcDbDictionary
0
DICTIONARY
5
1A
330
C
100
AcDbDictionary
0
DICTIONARY
5
17
100
AcDbDictionary
0
ENDSEC
0
EOF
