0
SECTION
2
HEADER
9
$INSUNITS
70
1
9
$ACADVER
1
AC1014
9
$HANDSEED
5
FFFF
0
ENDSEC
0
SECTION
2
TABLES
0
TABLE
2
VPORT
5
8
100
AcDbSymbolTable
0
ENDTAB
0
TABLE
2
LTYPE
5
5
100
AcDbSymbolTable
70
2
0
LTYPE
5
14
100
AcDbSymbolTableRecord
100
AcDbLinetypeTableRecord
2
BYBLOCK
70
0
0
LTYPE
5
15
100
AcDbSymbolTableRecord
100
AcDbLinetypeTableRecord
2
BYLAYER
70
0
0
ENDTAB
0
TABLE
2
LAYER
5
2
100
AcDbSymbolTable
70
3
0
LAYER
5
50
100
AcDbSymbolTableRecord
100
AcDbLayerTableRecord
2
0
70
0
6
CONTINUOUS
0
LAYER
5
51
100
AcDbSymbolTableRecord
100
AcDbLayerTableRecord
2
CUTOUTS
70
0
62
1
6
CONTINUOUS
0
LAYER
5
52
100
AcDbSymbolTableRecord
100
AcDbLayerTableRecord
2
PERIMETER
70
0
62
5
6
CONTINUOUS
0
ENDTAB
0
TABLE
2
STYLE
5
3
100
AcDbSymbolTable
70
1
0
STYLE
5
11
100
AcDbSymbolTableRecord
100
AcDbTextStyleTableRecord
2
STANDARD
70
0
0
ENDTAB
0
TABLE
2
VIEW
5
6
100
AcDbSymbolTable
0
ENDTAB
0
TABLE
2
UCS
5
7
100
AcDbSymbolTable
0
ENDTAB
0
TABLE
2
APPID
5
9
100
AcDbSymbolTable
70
1
0
APPID
5
12
100
AcDbSymbolTableRecord
100
AcDbRegAppTableRecord
2
ACAD
70
0
0
ENDTAB
0
TABLE
2
DIMSTYLE
5
A
100
AcDbSymbolTable
0
ENDTAB
0
TABLE
2
BLOCK_RECORD
5
1
100
AcDbSymbolTable
70
2
0
BLOCK_RECORD
5
1F
100
AcDbSymbolTableRecord
100
AcDbBlockTableRecord
2
*MODEL_SPACE
0
BLOCK_RECORD
5
1B
100
AcDbSymbolTableRecord
100
AcDbBlockTableRecord
2
*PAPER_SPACE
0
ENDTAB
0
ENDSEC
0
SECTION
2
BLOCKS
0
BLOCK
5
20
100
AcDbEntity
100
AcDbBlockBegin
2
*MODEL_SPACE
0
ENDBLK
5
21
100
AcDbEntity
100
AcDbBlockEnd
0
BLOCK
5
1C
100
AcDbEntity
100
AcDbBlockBegin
2
*PAPER_SPACE
0
ENDBLK
5
1D
100
AcDbEntity
100
AcDbBlockEnd
0
ENDSEC
0
SECTION
2
ENTITIES
0
CIRCLE
5
100
100
AcDbEntity
8
CUTOUTS
100
AcDbCircle
10
13.188976377952747
20
-2.5590551181102441
30
0
40
0.12992125984251901
210
0
220
0
230
1
0
CIRCLE
5
101
100
AcDbEntity
8
CUTOUTS
100
AcDbCircle
10
9.6456692913194129
20
4.9212598425196754
30
0
40
0.12992125984251901
210
0
220
0
230
1
0
CIRCLE
5
102
100
AcDbEntity
8
CUTOUTS
100
AcDbCircle
10
13.188976377952748
20
1.3779527559055067
30
0
40
0.12992125984251901
210
0
220
0
230
1
0
CIRCLE
5
103
100
AcDbEntity
8
CUTOUTS
100
AcDbCircle
10
9.6456692913385762
20
-4.9212598425196852
30
0
40
0.12992125984251901
210
0
220
0
230
1
0
CIRCLE
5
104
100
AcDbEntity
8
CUTOUTS
100
AcDbCircle
10
-5.5948246910244104e-15
20
-4.9212598425196905
30
0
40
0.12992125984251968
210
0
220
0
230
1
0
CIRCLE
5
105
100
AcDbEntity
8
CUTOUTS
100
AcDbCircle
10
-13.188976377952757
20
-2.5590551181102441
30
0
40
0.12992125984251901
210
0
220
0
230
1
0
CIRCLE
5
106
100
AcDbEntity
8
CUTOUTS
100
AcDbCircle
10
-5.318764262190597e-15
20
4.9212598425188823
30
0
40
0.12992125984251968
210
0
220
0
230
1
0
CIRCLE
5
107
100
AcDbEntity
8
CUTOUTS
100
AcDbCircle
10
-9.6456692913194235
20
4.9212598425196754
30
0
40
0.12992125984251901
210
0
220
0
230
1
0
CIRCLE
5
108
100
AcDbEntity
8
CUTOUTS
100
AcDbCircle
10
-13.188976377952761
20
1.3779527559055067
30
0
40
0.12992125984251901
210
0
220
0
230
1
0
CIRCLE
5
109
100
AcDbEntity
8
CUTOUTS
100
AcDbCircle
10
-9.6456692913385869
20
-4.9212598425196852
30
0
40
0.12992125984251901
210
0
220
0
230
1
0
ARC
5
10A
100
AcDbEntity
8
PERIMETER
100
AcDbCircle
10
-10.0984251968504
20
-5.4330708661417324
30
0
40
0.078740157480314668
210
0
220
0
230
1
100
AcDbArc
50
180
51
270
0
LINE
5
10B
100
AcDbEntity
8
PERIMETER
100
AcDbLine
10
-10.177165354330715
20
-4.3428746848179109
30
0
11
-10.177165354330715
21
-5.4330708661417324
31
0
0
ARC
5
10C
100
AcDbEntity
8
PERIMETER
100
AcDbCircle
10
-10.255905511811029
20
-4.3428746848179109
30
0
40
0.078740157480314668
210
0
220
-0
230
1
100
AcDbArc
50
0
51
63.434948822922301
0
LINE
5
10D
100
AcDbEntity
8
PERIMETER
100
AcDbLine
10
-12.567858535344492
20
-3.0988640007086756
30
0
11
-10.220691842874025
21
-4.2724473469439008
31
0
0
ARC
5
10E
100
AcDbEntity
8
PERIMETER
100
AcDbCircle
10
-12.603072204281496
20
-3.169291338582684
30
0
40
0.078740157480315029
210
0
220
-0
230
1
100
AcDbArc
50
63.434948822922159
51
90
0
LINE
5
10F
100
AcDbEntity
8
PERIMETER
100
AcDbLine
10
-13.700787401574807
20
-3.0905511811023696
30
0
11
-12.603072204281496
21
-3.09055118110237
31
0
0
ARC
5
110
100
AcDbEntity
8
PERIMETER
100
AcDbCircle
10
-13.700787401574807
20
-3.0118110236220534
30
0
40
0.07874015748031607
210
0
220
0
230
1
100
AcDbArc
50
180
51
270
0
LINE
5
111
100
AcDbEntity
8
PERIMETER
100
AcDbLine
10
-13.779527559055122
20
1.8307086614173171
30
0
11
-13.779527559055122
21
-3.0118110236220543
31
0
0
ARC
5
112
100
AcDbEntity
8
PERIMETER
100
AcDbCircle
10
-13.700787401574807
20
1.8307086614173158
30
0
40
0.07874015748031607
210
0
220
-0
230
1
100
AcDbArc
50
90
51
180
0
LINE
5
113
100
AcDbEntity
8
PERIMETER
100
AcDbLine
10
-12.606579007133286
20
1.9094488188976333
30
0
11
-13.700787401574807
21
1.909448818897632
31
0
0
ARC
5
114
100
AcDbEntity
8
PERIMETER
100
AcDbCircle
10
-12.606579007133286
20
1.9881889763779479
30
0
40
0.078740157480314668
210
-0
220
0
230
1
100
AcDbArc
50
270
51
314.99999999976785
0
LINE
5
115
100
AcDbEntity
8
PERIMETER
100
AcDbLine
10
-10.200227812486062
20
4.2831847723940442
30
0
11
-12.550901307827484
21
1.9325112770716955
31
0
0
ARC
5
116
100
AcDbEntity
8
PERIMETER
100
AcDbCircle
10
-10.255905511791864
20
4.3388624717002982
30
0
40
0.078740157480315792
210
-0
220
0
230
1
100
AcDbArc
50
-45.000000000232617
51
0
0
LINE
5
117
100
AcDbEntity
8
PERIMETER
100
AcDbLine
10
-10.177165354311549
20
5.4330708661417146
30
0
11
-10.177165354311549
21
4.3388624717002982
31
0
0
ARC
5
118
100
AcDbEntity
8
PERIMETER
100
AcDbCircle
10
-10.098425196831235
20
5.4330708661417146
30
0
40
0.078740157480314668
210
0
220
0
230
1
100
AcDbArc
50
90.000000000001307
51
180
0
LINE
5
119
100
AcDbEntity
8
PERIMETER
100
AcDbLine
10
10.098425196831224
20
5.5118110236220499
30
0
11
-10.098425196831236
21
5.5118110236220295
31
0
0
ARC
5
11A
100
AcDbEntity
8
PERIMETER
100
AcDbCircle
10
10.098425196831226
20
5.4330708661417368
30
0
40
0.07874015748031328
210
-0
220
0
230
1
100
AcDbArc
50
0
51
90.000000000001307
0
LINE
5
11B
100
AcDbEntity
8
PERIMETER
100
AcDbLine
10
10.177165354311539
20
4.3388624717003097
30
0
11
10.177165354311539
21
5.433070866141736
31
0
0
ARC
5
11C
100
AcDbEntity
8
PERIMETER
100
AcDbCircle
10
10.255905511791854
20
4.3388624717003097
30
0
40
0.078740157480314668
210
0
220
0
230
1
100
AcDbArc
50
180
51
225.00000000023351
0
LINE
5
11D
100
AcDbEntity
8
PERIMETER
100
AcDbLine
10
12.550901307827477
20
1.9325112770717068
30
0
11
10.200227812486053
21
4.2831847723940557
31
0
0
ARC
5
11E
100
AcDbEntity
8
PERIMETER
100
AcDbCircle
10
12.606579007133279
20
1.9881889763779605
30
0
40
0.078740157480315792
210
0
220
0
230
1
100
AcDbArc
50
225.00000000023249
51
270
0
LINE
5
11F
100
AcDbEntity
8
PERIMETER
100
AcDbLine
10
13.7007874015748
20
1.9094488188976459
30
0
11
12.606579007133279
21
1.9094488188976459
31
0
0
ARC
5
120
100
AcDbEntity
8
PERIMETER
100
AcDbCircle
10
13.700787401574804
20
1.8307086614173327
30
0
40
0.07874015748031328
210
0
220
-0
230
1
100
AcDbArc
50
0
51
90.000000000002586
0
LINE
5
121
100
AcDbEntity
8
PERIMETER
100
AcDbLine
10
13.779527559055126
20
-3.0118110236220401
30
0
11
13.779527559055117
21
1.8307086614173327
31
0
0
ARC
5
122
100
AcDbEntity
8
PERIMETER
100
AcDbCircle
10
13.700787401574809
20
-3.0118110236220397
30
0
40
0.078740157480315376
210
0
220
0
230
1
100
AcDbArc
50
269.99999999999869
51
360
0
LINE
5
123
100
AcDbEntity
8
PERIMETER
100
AcDbLine
10
12.603072204281496
20
-3.0905511811023563
30
0
11
13.700787401574807
21
-3.0905511811023549
31
0
0
ARC
5
124
100
AcDbEntity
8
PERIMETER
100
AcDbCircle
10
12.603072204281496
20
-3.1692913385826715
30
0
40
0.078740157480315029
210
0
220
-0
230
1
100
AcDbArc
50
90
51
116.56505117707785
0
LINE
5
125
100
AcDbEntity
8
PERIMETER
100
AcDbLine
10
10.220691842874025
20
-4.2724473469438911
30
0
11
12.567858535344492
21
-3.0988640007086627
31
0
0
ARC
5
126
100
AcDbEntity
8
PERIMETER
100
AcDbCircle
10
10.255905511811029
20
-4.3428746848179012
30
0
40
0.07874015748031471
210
0
220
0
230
1
100
AcDbArc
50
116.56505117707771
51
180
0
LINE
5
127
100
AcDbEntity
8
PERIMETER
100
AcDbLine
10
10.177165354330715
20
-5.4330708661417377
30
0
11
10.177165354330715
21
-4.3428746848179003
31
0
0
ARC
5
128
100
AcDbEntity
8
PERIMETER
100
AcDbCircle
10
10.098425196850402
20
-5.4330708661417386
30
0
40
0.078740157480313974
210
-0
220
0
230
1
100
AcDbArc
50
-90
51
0
0
LINE
5
129
100
AcDbEntity
8
PERIMETER
100
AcDbLine
10
-10.0984251968504
20
-5.5118110236220472
30
0
11
10.098425196850402
21
-5.5118110236220526
31
0
0
ENDSEC
0
SECTION
2
OBJECTS
0
DICTIONARY
5
C
100
AcDbDictionary
3
ACAD_GROUP
350
D
3
ACAD_MLINESTYLE
350
17
0
DICTIONARY
5
D
100
AcDbDictionary
0
DICTIONARY
5
1A
330
C
100
AcDbDictionary
0
DICTIONARY
5
17
100
AcDbDictionary
0
ENDSEC
0
EOF
