0
SECTION
2
HEADER
9
$INSUNITS
70
1
9
$ACADVER
1
AC1014
9
$HANDSEED
5
FFFF
0
ENDSEC
0
SECTION
2
TABLES
0
TABLE
2
VPORT
5
8
100
AcDbSymbolTable
0
ENDTAB
0
TABLE
2
LTYPE
5
5
100
AcDbSymbolTable
70
2
0
LTYPE
5
14
100
AcDbSymbolTableRecord
100
AcDbLinetypeTableRecord
2
BYBLOCK
70
0
0
LTYPE
5
15
100
AcDbSymbolTableRecord
100
AcDbLinetypeTableRecord
2
BYLAYER
70
0
0
ENDTAB
0
TABLE
2
LAYER
5
2
100
AcDbSymbolTable
70
3
0
LAYER
5
50
100
AcDbSymbolTableRecord
100
AcDbLayerTableRecord
2
0
70
0
6
CONTINUOUS
0
LAYER
5
51
100
AcDbSymbolTableRecord
100
AcDbLayerTableRecord
2
CUTOUTS
70
0
62
1
6
CONTINUOUS
0
LAYER
5
52
100
AcDbSymbolTableRecord
100
AcDbLayerTableRecord
2
PERIMETER
70
0
62
5
6
CONTINUOUS
0
ENDTAB
0
TABLE
2
STYLE
5
3
100
AcDbSymbolTable
70
1
0
STYLE
5
11
100
AcDbSymbolTableRecord
100
AcDbTextStyleTableRecord
2
STANDARD
70
0
0
ENDTAB
0
TABLE
2
VIEW
5
6
100
AcDbSymbolTable
0
ENDTAB
0
TABLE
2
UCS
5
7
100
AcDbSymbolTable
0
ENDTAB
0
TABLE
2
APPID
5
9
100
AcDbSymbolTable
70
1
0
APPID
5
12
100
AcDbSymbolTableRecord
100
AcDbRegAppTableRecord
2
ACAD
70
0
0
ENDTAB
0
TABLE
2
DIMSTYLE
5
A
100
AcDbSymbolTable
0
ENDTAB
0
TABLE
2
BLOCK_RECORD
5
1
100
AcDbSymbolTable
70
2
0
BLOCK_RECORD
5
1F
100
AcDbSymbolTableRecord
100
AcDbBlockTableRecord
2
*MODEL_SPACE
0
BLOCK_RECORD
5
1B
100
AcDbSymbolTableRecord
100
AcDbBlockTableRecord
2
*PAPER_SPACE
0
ENDTAB
0
ENDSEC
0
SECTION
2
BLOCKS
0
BLOCK
5
20
100
AcDbEntity
100
AcDbBlockBegin
2
*MODEL_SPACE
0
ENDBLK
5
21
100
AcDbEntity
100
AcDbBlockEnd
0
BLOCK
5
1C
100
AcDbEntity
100
AcDbBlockBegin
2
*PAPER_SPACE
0
ENDBLK
5
1D
100
AcDbEntity
100
AcDbBlockEnd
0
ENDSEC
0
SECTION
2
ENTITIES
0
CIRCLE
5
100
100
AcDbEntity
8
CUTOUTS
100
AcDbCircle
10
13.295275590551158
20
-9.2263779527559038
30
0
40
0.066929133858268389
210
0
220
0
230
1
0
CIRCLE
5
101
100
AcDbEntity
8
CUTOUTS
100
AcDbCircle
10
13.295275590551158
20
-6.5098425196850362
30
0
40
0.066929133858268389
210
0
220
0
230
1
0
CIRCLE
5
102
100
AcDbEntity
8
CUTOUTS
100
AcDbCircle
10
12.952755905511786
20
-5.6181102362204722
30
0
40
0.066929133858268389
210
0
220
0
230
1
0
CIRCLE
5
103
100
AcDbEntity
8
CUTOUTS
100
AcDbCircle
10
12.610236220472421
20
-6.5098425196850371
30
0
40
0.066929133858268389
210
0
220
0
230
1
0
CIRCLE
5
104
100
AcDbEntity
8
CUTOUTS
100
AcDbCircle
10
12.610236220472421
20
-9.2263779527559056
30
0
40
0.066929133858268389
210
0
220
0
230
1
0
CIRCLE
5
105
100
AcDbEntity
8
CUTOUTS
100
AcDbCircle
10
12.952755905511786
20
-3.9370078740157477
30
0
40
0.066929133858268389
210
0
220
0
230
1
0
CIRCLE
5
106
100
AcDbEntity
8
CUTOUTS
100
AcDbCircle
10
11.437007874015745
20
9.6456692913385584
30
0
40
0.12992125984251901
210
0
220
0
230
1
0
CIRCLE
5
107
100
AcDbEntity
8
CUTOUTS
100
AcDbCircle
10
-14.468503937007872
20
7.4606299212598319
30
0
40
0.12992125984251901
210
0
220
0
230
1
0
CIRCLE
5
108
100
AcDbEntity
8
CUTOUTS
100
AcDbCircle
10
-10.728346456692909
20
-13.385826771653548
30
0
40
0.12992125984251901
210
0
220
0
230
1
0
CIRCLE
5
109
100
AcDbEntity
8
CUTOUTS
100
AcDbCircle
10
10.728346456692913
20
-13.385826771653539
30
0
40
0.12992125984251901
210
0
220
0
230
1
0
CIRCLE
5
10A
100
AcDbEntity
8
CUTOUTS
100
AcDbCircle
10
14.468503937007865
20
-1.8922233302445511e-14
30
0
40
0.12992125984251901
210
0
220
0
230
1
0
CIRCLE
5
10B
100
AcDbEntity
8
CUTOUTS
100
AcDbCircle
10
14.468503937007871
20
9.6456692913385584
30
0
40
0.12992125984251901
210
0
220
0
230
1
0
CIRCLE
5
10C
100
AcDbEntity
8
CUTOUTS
100
AcDbCircle
10
1.0208401271319936e-15
20
13.38582677165353
30
0
40
0.12992125984251968
210
0
220
0
230
1
0
CIRCLE
5
10D
100
AcDbEntity
8
CUTOUTS
100
AcDbCircle
10
-10.728346456692909
20
13.38582677165353
30
0
40
0.12992125984251901
210
0
220
0
230
1
0
CIRCLE
5
10E
100
AcDbEntity
8
CUTOUTS
100
AcDbCircle
10
10.728346456692913
20
13.385826771653523
30
0
40
0.12992125984251901
210
0
220
0
230
1
0
CIRCLE
5
10F
100
AcDbEntity
8
CUTOUTS
100
AcDbCircle
10
11.437007874015737
20
-1.5450219344169633e-14
30
0
40
0.12992125984251901
210
0
220
0
230
1
0
CIRCLE
5
110
100
AcDbEntity
8
CUTOUTS
100
AcDbCircle
10
14.468503937007871
20
-9.6456692913385798
30
0
40
0.12992125984251901
210
0
220
0
230
1
0
CIRCLE
5
111
100
AcDbEntity
8
CUTOUTS
100
AcDbCircle
10
5.1334767939374568e-16
20
-13.385826771653548
30
0
40
0.12992125984251968
210
0
220
0
230
1
0
CIRCLE
5
112
100
AcDbEntity
8
CUTOUTS
100
AcDbCircle
10
-14.468503937007872
20
-8.2816197095513992e-15
30
0
40
0.12992125984251901
210
0
220
0
230
1
0
CIRCLE
5
113
100
AcDbEntity
8
CUTOUTS
100
AcDbCircle
10
-14.468503937007871
20
-7.4606299212598488
30
0
40
0.12992125984251901
210
0
220
0
230
1
0
CIRCLE
5
114
100
AcDbEntity
8
CUTOUTS
100
AcDbCircle
10
11.437007874015748
20
-9.6456692913385798
30
0
40
0.12992125984251901
210
0
220
0
230
1
0
LINE
5
115
100
AcDbEntity
8
CUTOUTS
100
AcDbLine
10
13.346456692913348
20
-4.0885826771653617
30
0
11
13.346456692913348
21
-5.4665354330708729
31
0
0
LINE
5
116
100
AcDbEntity
8
CUTOUTS
100
AcDbLine
10
13.346456692913348
20
-5.4665354330708729
30
0
11
12.559055118110198
21
-5.4665354330708729
31
0
0
LINE
5
117
100
AcDbEntity
8
CUTOUTS
100
AcDbLine
10
12.559055118110198
20
-5.4665354330708729
30
0
11
12.559055118110198
21
-4.0885826771653617
31
0
0
LINE
5
118
100
AcDbEntity
8
CUTOUTS
100
AcDbLine
10
12.559055118110198
20
-4.0885826771653617
30
0
11
13.346456692913348
21
-4.0885826771653617
31
0
0
LINE
5
119
100
AcDbEntity
8
CUTOUTS
100
AcDbLine
10
13.494094488188905
20
-6.903543307086621
30
0
11
13.494094488188905
21
-8.7539370078740237
31
0
0
LINE
5
11A
100
AcDbEntity
8
CUTOUTS
100
AcDbLine
10
13.494094488188905
20
-8.7539370078740237
30
0
11
12.411417322834573
21
-8.7539370078740237
31
0
0
LINE
5
11B
100
AcDbEntity
8
CUTOUTS
100
AcDbLine
10
12.411417322834573
20
-8.7539370078740237
30
0
11
12.411417322834573
21
-6.903543307086621
31
0
0
LINE
5
11C
100
AcDbEntity
8
CUTOUTS
100
AcDbLine
10
12.411417322834573
20
-6.903543307086621
30
0
11
13.494094488188905
21
-6.903543307086621
31
0
0
LINE
5
11D
100
AcDbEntity
8
PERIMETER
100
AcDbLine
10
13.869955608325027
20
10.413385826771623
30
0
11
11.496062992125973
21
12.787278442970662
31
0
0
LINE
5
11E
100
AcDbEntity
8
PERIMETER
100
AcDbLine
10
11.496062992125973
20
12.787278442970662
30
0
11
11.496062992125973
21
13.976377952755868
31
0
0
LINE
5
11F
100
AcDbEntity
8
PERIMETER
100
AcDbLine
10
11.496062992125973
20
13.976377952755868
30
0
11
-11.496062992125985
21
13.976377952755884
31
0
0
LINE
5
120
100
AcDbEntity
8
PERIMETER
100
AcDbLine
10
-11.496062992125985
20
13.976377952755884
30
0
11
-11.496062992125985
21
12.787278442970676
31
0
0
LINE
5
121
100
AcDbEntity
8
PERIMETER
100
AcDbLine
10
-11.496062992125985
20
12.787278442970676
30
0
11
-13.869955608325046
21
10.413385826771632
31
0
0
LINE
5
122
100
AcDbEntity
8
PERIMETER
100
AcDbLine
10
-13.869955608325046
20
10.413385826771632
30
0
11
-13.956692913385838
21
10.413385826771632
31
0
0
LINE
5
123
100
AcDbEntity
8
PERIMETER
100
AcDbLine
10
-13.956692913385838
20
10.413385826771632
30
0
11
-13.956692913385833
21
8.051181102362186
31
0
0
LINE
5
124
100
AcDbEntity
8
PERIMETER
100
AcDbLine
10
-13.956692913385833
20
8.051181102362186
30
0
11
-15.059055118110244
21
8.0511811023621824
31
0
0
LINE
5
125
100
AcDbEntity
8
PERIMETER
100
AcDbLine
10
-15.059055118110244
20
8.0511811023621824
30
0
11
-15.059055118110244
21
-8.0511811023622162
31
0
0
LINE
5
126
100
AcDbEntity
8
PERIMETER
100
AcDbLine
10
-15.059055118110244
20
-8.0511811023622162
30
0
11
-13.956692913385835
21
-8.0511811023622197
31
0
0
LINE
5
127
100
AcDbEntity
8
PERIMETER
100
AcDbLine
10
-13.956692913385835
20
-8.0511811023622197
30
0
11
-13.956692913385838
21
-10.413385826771666
31
0
0
LINE
5
128
100
AcDbEntity
8
PERIMETER
100
AcDbLine
10
-13.956692913385838
20
-10.413385826771666
30
0
11
-13.869955608325043
21
-10.413385826771666
31
0
0
LINE
5
129
100
AcDbEntity
8
PERIMETER
100
AcDbLine
10
-13.869955608325043
20
-10.413385826771666
30
0
11
-11.496062992125987
21
-12.78727844297071
31
0
0
LINE
5
12A
100
AcDbEntity
8
PERIMETER
100
AcDbLine
10
-11.496062992125987
20
-12.78727844297071
30
0
11
-11.496062992125987
21
-13.976377952755918
31
0
0
LINE
5
12B
100
AcDbEntity
8
PERIMETER
100
AcDbLine
10
-11.496062992125987
20
-13.976377952755918
30
0
11
11.496062992125976
21
-13.976377952755902
31
0
0
LINE
5
12C
100
AcDbEntity
8
PERIMETER
100
AcDbLine
10
11.496062992125976
20
-13.976377952755902
30
0
11
11.496062992125973
21
-12.787278442970695
31
0
0
LINE
5
12D
100
AcDbEntity
8
PERIMETER
100
AcDbLine
10
11.496062992125973
20
-12.787278442970695
30
0
11
13.869955608325029
21
-10.413385826771663
31
0
0
LINE
5
12E
100
AcDbEntity
8
PERIMETER
100
AcDbLine
10
13.869955608325029
20
-10.413385826771663
30
0
11
15.059055118110225
21
-10.413385826771663
31
0
0
LINE
5
12F
100
AcDbEntity
8
PERIMETER
100
AcDbLine
10
15.059055118110225
20
-10.413385826771663
30
0
11
15.059055118110225
21
10.413385826771623
31
0
0
LINE
5
130
100
AcDbEntity
8
PERIMETER
100
AcDbLine
10
15.059055118110225
20
10.413385826771623
30
0
11
13.869955608325027
21
10.413385826771623
31
0
0
ENDSEC
0
SECTION
2
OBJECTS
0
DICTIONARY
5
C
100
AcDbDictionary
3
ACAD_GROUP
350
D
3
ACAD_MLINESTYLE
350
17
0
DICTIONARY
5
D
100
AcDbDictionary
0
DICTIONARY
5
1A
330
C
100
AcDbDictionary
0
DICTIONARY
5
17
100
AcDbDictionary
0
ENDSEC
0
EOF
