0
SECTION
2
HEADER
9
$INSUNITS
70
1
9
$ACADVER
1
AC1014
9
$HANDSEED
5
FFFF
0
ENDSEC
0
SECTION
2
TABLES
0
TABLE
2
VPORT
5
8
100
AcDbSymbolTable
0
ENDTAB
0
TABLE
2
LTYPE
5
5
100
AcDbSymbolTable
70
2
0
LTYPE
5
14
100
AcDbSymbolTableRecord
100
AcDbLinetypeTableRecord
2
BYBLOCK
70
0
0
LTYPE
5
15
100
AcDbSymbolTableRecord
100
AcDbLinetypeTableRecord
2
BYLAYER
70
0
0
ENDTAB
0
TABLE
2
LAYER
5
2
100
AcDbSymbolTable
70
3
0
LAYER
5
50
100
AcDbSymbolTableRecord
100
AcDbLayerTableRecord
2
0
70
0
6
CONTINUOUS
0
LAYER
5
51
100
AcDbSymbolTableRecord
100
AcDbLayerTableRecord
2
CUTOUTS
70
0
62
1
6
CONTINUOUS
0
LAYER
5
52
100
AcDbSymbolTableRecord
100
AcDbLayerTableRecord
2
PERIMETER
70
0
62
5
6
CONTINUOUS
0
ENDTAB
0
TABLE
2
STYLE
5
3
100
AcDbSymbolTable
70
1
0
STYLE
5
11
100
AcDbSymbolTableRecord
100
AcDbTextStyleTableRecord
2
STANDARD
70
0
0
ENDTAB
0
TABLE
2
VIEW
5
6
100
AcDbSymbolTable
0
ENDTAB
0
TABLE
2
UCS
5
7
100
AcDbSymbolTable
0
ENDTAB
0
TABLE
2
APPID
5
9
100
AcDbSymbolTable
70
1
0
APPID
5
12
100
AcDbSymbolTableRecord
100
AcDbRegAppTableRecord
2
ACAD
70
0
0
ENDTAB
0
TABLE
2
DIMSTYLE
5
A
100
AcDbSymbolTable
0
ENDTAB
0
TABLE
2
BLOCK_RECORD
5
1
100
AcDbSymbolTable
70
2
0
BLOCK_RECORD
5
1F
100
AcDbSymbolTableRecord
100
AcDbBlockTableRecord
2
*MODEL_SPACE
0
BLOCK_RECORD
5
1B
100
AcDbSymbolTableRecord
100
AcDbBlockTableRecord
2
*PAPER_SPACE
0
ENDTAB
0
ENDSEC
0
SECTION
2
BLOCKS
0
BLOCK
5
20
100
AcDbEntity
100
AcDbBlockBegin
2
*MODEL_SPACE
0
ENDBLK
5
21
100
AcDbEntity
100
AcDbBlockEnd
0
BLOCK
5
1C
100
AcDbEntity
100
AcDbBlockBegin
2
*PAPER_SPACE
0
ENDBLK
5
1D
100
AcDbEntity
100
AcDbBlockEnd
0
ENDSEC
0
SECTION
2
ENTITIES
0
CIRCLE
5
100
100
AcDbEntity
8
CUTOUTS
100
AcDbCircle
10
10.078740157480313
20
-12.982283464566926
30
0
40
0.12696850393700848
210
0
220
0
230
1
0
CIRCLE
5
101
100
AcDbEntity
8
CUTOUTS
100
AcDbCircle
10
-1.2992125984251939
20
-12.982283464566926
30
0
40
0.12696850393700779
210
0
220
0
230
1
0
CIRCLE
5
102
100
AcDbEntity
8
CUTOUTS
100
AcDbCircle
10
-13.188976377952747
20
-9.8720472440944835
30
0
40
0.12696850393700709
210
0
220
0
230
1
0
CIRCLE
5
103
100
AcDbEntity
8
CUTOUTS
100
AcDbCircle
10
13.188976377952756
20
10.324803149606302
30
0
40
0.12696850393700709
210
0
220
0
230
1
0
CIRCLE
5
104
100
AcDbEntity
8
CUTOUTS
100
AcDbCircle
10
-13.188976377952748
20
10.324803149606298
30
0
40
0.12696850393700709
210
0
220
0
230
1
0
CIRCLE
5
105
100
AcDbEntity
8
CUTOUTS
100
AcDbCircle
10
2.5984251968504082
20
12.923228346456691
30
0
40
0.12696850393700779
210
0
220
0
230
1
0
CIRCLE
5
106
100
AcDbEntity
8
CUTOUTS
100
AcDbCircle
10
-10.59055118110235
20
12.923228346456691
30
0
40
0.12696850393700848
210
0
220
0
230
1
0
CIRCLE
5
107
100
AcDbEntity
8
CUTOUTS
100
AcDbCircle
10
-2.913385826771655
20
12.923228346456691
30
0
40
0.12696850393700779
210
0
220
0
230
1
0
CIRCLE
5
108
100
AcDbEntity
8
CUTOUTS
100
AcDbCircle
10
10.590551181102363
20
12.923228346456691
30
0
40
0.12696850393700848
210
0
220
0
230
1
0
CIRCLE
5
109
100
AcDbEntity
8
CUTOUTS
100
AcDbCircle
10
-13.188976377952748
20
-0.02952755905511897
30
0
40
0.12696850393700709
210
0
220
0
230
1
0
CIRCLE
5
10A
100
AcDbEntity
8
CUTOUTS
100
AcDbCircle
10
13.188976377952756
20
-0.02952755905511462
30
0
40
0.12696850393700709
210
0
220
0
230
1
0
CIRCLE
5
10B
100
AcDbEntity
8
CUTOUTS
100
AcDbCircle
10
-10.078740157480308
20
-12.982283464566926
30
0
40
0.12696850393700848
210
0
220
0
230
1
0
CIRCLE
5
10C
100
AcDbEntity
8
CUTOUTS
100
AcDbCircle
10
1.2992125984251994
20
-12.982283464566923
30
0
40
0.12696850393700779
210
0
220
0
230
1
0
CIRCLE
5
10D
100
AcDbEntity
8
CUTOUTS
100
AcDbCircle
10
13.188976377952752
20
-9.8720472440944818
30
0
40
0.12696850393700709
210
0
220
0
230
1
0
LINE
5
10E
100
AcDbEntity
8
PERIMETER
100
AcDbLine
10
-12.713582677165352
20
-12.394685039370069
30
0
11
-12.713582677165356
21
-10.66240157480315
31
0
0
LINE
5
10F
100
AcDbEntity
8
PERIMETER
100
AcDbLine
10
-12.713582677165356
20
-10.66240157480315
30
0
11
-11.142955355007008
21
-10.66240157480315
31
0
0
LINE
5
110
100
AcDbEntity
8
PERIMETER
100
AcDbLine
10
-11.142955355007008
20
-10.66240157480315
30
0
11
-10.869094488188976
21
-10.93626244162118
31
0
0
LINE
5
111
100
AcDbEntity
8
PERIMETER
100
AcDbLine
10
-10.869094488188976
20
-10.93626244162118
30
0
11
-10.869094488188976
21
-12.506889763779528
31
0
0
LINE
5
112
100
AcDbEntity
8
PERIMETER
100
AcDbLine
10
-10.869094488188976
20
-12.506889763779528
30
0
11
-12.601377952755904
21
-12.506889763779528
31
0
0
LINE
5
113
100
AcDbEntity
8
PERIMETER
100
AcDbLine
10
-12.601377952755904
20
-12.506889763779528
30
0
11
-12.601377952755907
21
-12.780511811023617
31
0
0
LINE
5
114
100
AcDbEntity
8
PERIMETER
100
AcDbLine
10
-12.601377952755907
20
-12.780511811023617
30
0
11
-11.070866141732273
21
-12.78051181102362
31
0
0
ARC
5
115
100
AcDbEntity
8
PERIMETER
100
AcDbCircle
10
-11.070866141732273
20
-12.982283464566928
30
0
40
0.2017716535433082
210
-0
220
0
230
1
100
AcDbArc
50
-90
51
90
0
LINE
5
116
100
AcDbEntity
8
PERIMETER
100
AcDbLine
10
-11.070866141732273
20
-13.184055118110237
30
0
11
-12.601377952755911
21
-13.184055118110232
31
0
0
LINE
5
117
100
AcDbEntity
8
PERIMETER
100
AcDbLine
10
-12.601377952755911
20
-13.184055118110232
30
0
11
-12.601377952755916
21
-13.477362204724406
31
0
0
LINE
5
118
100
AcDbEntity
8
PERIMETER
100
AcDbLine
10
-12.601377952755916
20
-13.477362204724406
30
0
11
-0.9830288969614932
21
-13.477362204724406
31
0
0
LINE
5
119
100
AcDbEntity
8
PERIMETER
100
AcDbLine
10
-0.9830288969614932
20
-13.477362204724406
30
0
11
-0.70570866141731992
21
-13.20004196918023
31
0
0
LINE
5
11A
100
AcDbEntity
8
PERIMETER
100
AcDbLine
10
-0.70570866141731992
20
-13.20004196918023
30
0
11
-0.70570866141732025
21
-12.453740157480308
31
0
0
LINE
5
11B
100
AcDbEntity
8
PERIMETER
100
AcDbLine
10
-0.70570866141732025
20
-12.453740157480308
30
0
11
0.7057086614173258
21
-12.453740157480308
31
0
0
LINE
5
11C
100
AcDbEntity
8
PERIMETER
100
AcDbLine
10
0.7057086614173258
20
-12.453740157480308
30
0
11
0.70570866141732547
21
-13.20004196918023
31
0
0
LINE
5
11D
100
AcDbEntity
8
PERIMETER
100
AcDbLine
10
0.70570866141732547
20
-13.20004196918023
30
0
11
0.98302889696149731
21
-13.477362204724406
31
0
0
LINE
5
11E
100
AcDbEntity
8
PERIMETER
100
AcDbLine
10
0.98302889696149731
20
-13.477362204724406
30
0
11
12.601377952755904
21
-13.477362204724406
31
0
0
LINE
5
11F
100
AcDbEntity
8
PERIMETER
100
AcDbLine
10
12.601377952755904
20
-13.477362204724406
30
0
11
12.601377952755913
21
-13.184055118110232
31
0
0
LINE
5
120
100
AcDbEntity
8
PERIMETER
100
AcDbLine
10
12.601377952755913
20
-13.184055118110232
30
0
11
11.070866141732285
21
-13.184055118110239
31
0
0
ARC
5
121
100
AcDbEntity
8
PERIMETER
100
AcDbCircle
10
11.070866141732285
20
-12.982283464566928
30
0
40
0.2017716535433082
210
0
220
-0
230
1
100
AcDbArc
50
90
51
270
0
LINE
5
122
100
AcDbEntity
8
PERIMETER
100
AcDbLine
10
11.070866141732285
20
-12.78051181102362
30
0
11
12.601377952755913
21
-12.780511811023617
31
0
0
LINE
5
123
100
AcDbEntity
8
PERIMETER
100
AcDbLine
10
12.601377952755913
20
-12.780511811023617
30
0
11
12.601377952755904
21
-12.506889763779526
31
0
0
LINE
5
124
100
AcDbEntity
8
PERIMETER
100
AcDbLine
10
12.601377952755904
20
-12.506889763779526
30
0
11
10.869094488188981
21
-12.506889763779524
31
0
0
LINE
5
125
100
AcDbEntity
8
PERIMETER
100
AcDbLine
10
10.869094488188981
20
-12.506889763779524
30
0
11
10.869094488188981
21
-10.936262441621176
31
0
0
LINE
5
126
100
AcDbEntity
8
PERIMETER
100
AcDbLine
10
10.869094488188981
20
-10.936262441621176
30
0
11
11.142955355007011
21
-10.662401574803148
31
0
0
LINE
5
127
100
AcDbEntity
8
PERIMETER
100
AcDbLine
10
11.142955355007011
20
-10.662401574803148
30
0
11
12.713582677165361
21
-10.662401574803145
31
0
0
LINE
5
128
100
AcDbEntity
8
PERIMETER
100
AcDbLine
10
12.713582677165361
20
-10.662401574803145
30
0
11
12.713582677165361
21
-12.394685039370092
31
0
0
LINE
5
129
100
AcDbEntity
8
PERIMETER
100
AcDbLine
10
12.713582677165361
20
-12.394685039370092
30
0
11
12.987204724409452
21
-12.394685039370071
31
0
0
LINE
5
12A
100
AcDbEntity
8
PERIMETER
100
AcDbLine
10
12.987204724409452
20
-12.394685039370071
30
0
11
12.987204724409446
21
-10.86417322834645
31
0
0
ARC
5
12B
100
AcDbEntity
8
PERIMETER
100
AcDbCircle
10
13.188976377952752
20
-10.86417322834645
30
0
40
0.2017716535433082
210
0
220
-0
230
1
100
AcDbArc
50
0
51
180
0
LINE
5
12C
100
AcDbEntity
8
PERIMETER
100
AcDbLine
10
13.390748031496059
20
-10.864173228346448
30
0
11
13.390748031496068
21
-12.394685039370071
31
0
0
LINE
5
12D
100
AcDbEntity
8
PERIMETER
100
AcDbLine
10
13.390748031496068
20
-12.394685039370071
30
0
11
13.743110236220465
21
-12.394685039370092
31
0
0
LINE
5
12E
100
AcDbEntity
8
PERIMETER
100
AcDbLine
10
13.743110236220465
20
-12.394685039370092
30
0
11
13.743110236220474
21
10.918307086614172
31
0
0
LINE
5
12F
100
AcDbEntity
8
PERIMETER
100
AcDbLine
10
13.743110236220474
20
10.918307086614172
30
0
11
12.601377952755904
21
10.918307086614172
31
0
0
LINE
5
130
100
AcDbEntity
8
PERIMETER
100
AcDbLine
10
12.601377952755904
20
10.918307086614172
30
0
11
12.601377952755904
21
12.335629921259843
31
0
0
LINE
5
131
100
AcDbEntity
8
PERIMETER
100
AcDbLine
10
12.601377952755904
20
12.335629921259843
30
0
11
11.184055118110237
21
12.335629921259839
31
0
0
LINE
5
132
100
AcDbEntity
8
PERIMETER
100
AcDbLine
10
11.184055118110237
20
12.335629921259839
30
0
11
11.184055118110235
21
13.477362204724406
31
0
0
LINE
5
133
100
AcDbEntity
8
PERIMETER
100
AcDbLine
10
11.184055118110235
20
13.477362204724406
30
0
11
2.0049212598425146
21
13.477362204724406
31
0
0
LINE
5
134
100
AcDbEntity
8
PERIMETER
100
AcDbLine
10
2.0049212598425146
20
13.477362204724406
30
0
11
2.0049212598425226
21
12.335629921259841
31
0
0
LINE
5
135
100
AcDbEntity
8
PERIMETER
100
AcDbLine
10
2.0049212598425226
20
12.335629921259841
30
0
11
0.76476377952756491
21
12.335629921259841
31
0
0
LINE
5
136
100
AcDbEntity
8
PERIMETER
100
AcDbLine
10
0.76476377952756491
20
12.335629921259841
30
0
11
0.7647637795275648
21
10.463821496739293
31
0
0
LINE
5
137
100
AcDbEntity
8
PERIMETER
100
AcDbLine
10
0.7647637795275648
20
10.463821496739293
30
0
11
0.45153283396937371
21
10.150590551181102
31
0
0
LINE
5
138
100
AcDbEntity
8
PERIMETER
100
AcDbLine
10
0.45153283396937371
20
10.150590551181102
30
0
11
-2.0066509442055889
21
10.150590551181102
31
0
0
LINE
5
139
100
AcDbEntity
8
PERIMETER
100
AcDbLine
10
-2.0066509442055889
20
10.150590551181102
30
0
11
-2.3198818897637801
21
10.463821496739287
31
0
0
LINE
5
13A
100
AcDbEntity
8
PERIMETER
100
AcDbLine
10
-2.3198818897637801
20
10.463821496739287
30
0
11
-2.3198818897637814
21
13.477362204724406
31
0
0
LINE
5
13B
100
AcDbEntity
8
PERIMETER
100
AcDbLine
10
-2.3198818897637814
20
13.477362204724406
30
0
11
-11.18405511811023
21
13.477362204724406
31
0
0
LINE
5
13C
100
AcDbEntity
8
PERIMETER
100
AcDbLine
10
-11.18405511811023
20
13.477362204724406
30
0
11
-11.18405511811023
21
12.335629921259839
31
0
0
LINE
5
13D
100
AcDbEntity
8
PERIMETER
100
AcDbLine
10
-11.18405511811023
20
12.335629921259839
30
0
11
-12.601377952755902
21
12.335629921259839
31
0
0
LINE
5
13E
100
AcDbEntity
8
PERIMETER
100
AcDbLine
10
-12.601377952755902
20
12.335629921259839
30
0
11
-12.601377952755902
21
10.918307086614172
31
0
0
LINE
5
13F
100
AcDbEntity
8
PERIMETER
100
AcDbLine
10
-12.601377952755902
20
10.918307086614172
30
0
11
-13.743110236220474
21
10.91830708661417
31
0
0
LINE
5
140
100
AcDbEntity
8
PERIMETER
100
AcDbLine
10
-13.743110236220474
20
10.91830708661417
30
0
11
-13.74311023622046
21
-12.394685039370064
31
0
0
LINE
5
141
100
AcDbEntity
8
PERIMETER
100
AcDbLine
10
-13.74311023622046
20
-12.394685039370064
30
0
11
-13.390748031496063
21
-12.394685039370078
31
0
0
LINE
5
142
100
AcDbEntity
8
PERIMETER
100
AcDbLine
10
-13.390748031496063
20
-12.394685039370078
30
0
11
-13.390748031496054
21
-10.86417322834645
31
0
0
ARC
5
143
100
AcDbEntity
8
PERIMETER
100
AcDbCircle
10
-13.188976377952748
20
-10.864173228346452
30
0
40
0.2017716535433054
210
0
220
-0
230
1
100
AcDbArc
50
0
51
180
0
LINE
5
144
100
AcDbEntity
8
PERIMETER
100
AcDbLine
10
-12.987204724409445
20
-10.864173228346452
30
0
11
-12.987204724409446
21
-12.394685039370078
31
0
0
LINE
5
145
100
AcDbEntity
8
PERIMETER
100
AcDbLine
10
-12.987204724409446
20
-12.394685039370078
30
0
11
-12.713582677165352
21
-12.394685039370069
31
0
0
ENDSEC
0
SECTION
2
OBJECTS
0
DICTIONARY
5
C
100
AcDbDictionary
3
ACAD_GROUP
350
D
3
ACAD_MLINESTYLE
350
17
0
DICTIONARY
5
D
100
AcDbDictionary
0
DICTIONARY
5
1A
330
C
100
AcDbDictionary
0
DICTIONARY
5
17
100
AcDbDictionary
0
ENDSEC
0
EOF
