0
SECTION
2
HEADER
9
$INSUNITS
70
1
9
$ACADVER
1
AC1014
9
$HANDSEED
5
FFFF
0
ENDSEC
0
SECTION
2
TABLES
0
TABLE
2
VPORT
5
8
100
AcDbSymbolTable
0
ENDTAB
0
TABLE
2
LTYPE
5
5
100
AcDbSymbolTable
70
2
0
LTYPE
5
14
100
AcDbSymbolTableRecord
100
AcDbLinetypeTableRecord
2
BYBLOCK
70
0
0
LTYPE
5
15
100
AcDbSymbolTableRecord
100
AcDbLinetypeTableRecord
2
BYLAYER
70
0
0
ENDTAB
0
TABLE
2
LAYER
5
2
100
AcDbSymbolTable
70
3
0
LAYER
5
50
100
AcDbSymbolTableRecord
100
AcDbLayerTableRecord
2
0
70
0
6
CONTINUOUS
0
LAYER
5
51
100
AcDbSymbolTableRecord
100
AcDbLayerTableRecord
2
CUTOUTS
70
0
62
1
6
CONTINUOUS
0
LAYER
5
52
100
AcDbSymbolTableRecord
100
AcDbLayerTableRecord
2
PERIMETER
70
0
62
5
6
CONTINUOUS
0
ENDTAB
0
TABLE
2
STYLE
5
3
100
AcDbSymbolTable
70
1
0
STYLE
5
11
100
AcDbSymbolTableRecord
100
AcDbTextStyleTableRecord
2
STANDARD
70
0
0
ENDTAB
0
TABLE
2
VIEW
5
6
100
AcDbSymbolTable
0
ENDTAB
0
TABLE
2
UCS
5
7
100
AcDbSymbolTable
0
ENDTAB
0
TABLE
2
APPID
5
9
100
AcDbSymbolTable
70
1
0
APPID
5
12
100
AcDbSymbolTableRecord
100
AcDbRegAppTableRecord
2
ACAD
70
0
0
ENDTAB
0
TABLE
2
DIMSTYLE
5
A
100
AcDbSymbolTable
0
ENDTAB
0
TABLE
2
BLOCK_RECORD
5
1
100
AcDbSymbolTable
70
2
0
BLOCK_RECORD
5
1F
100
AcDbSymbolTableRecord
100
AcDbBlockTableRecord
2
*MODEL_SPACE
0
BLOCK_RECORD
5
1B
100
AcDbSymbolTableRecord
100
AcDbBlockTableRecord
2
*PAPER_SPACE
0
ENDTAB
0
ENDSEC
0
SECTION
2
BLOCKS
0
BLOCK
5
20
100
AcDbEntity
100
AcDbBlockBegin
2
*MODEL_SPACE
0
ENDBLK
5
21
100
AcDbEntity
100
AcDbBlockEnd
0
BLOCK
5
1C
100
AcDbEntity
100
AcDbBlockBegin
2
*PAPER_SPACE
0
ENDBLK
5
1D
100
AcDbEntity
100
AcDbBlockEnd
0
ENDSEC
0
SECTION
2
ENTITIES
0
CIRCLE
5
100
100
AcDbEntity
8
CUTOUTS
100
AcDbCircle
10
12.303153040003574
20
-0.16732283464567235
30
0
40
0.12992125984251901
210
0
220
0
230
1
0
CIRCLE
5
101
100
AcDbEntity
8
CUTOUTS
100
AcDbCircle
10
12.303153040003574
20
7.3326771653543261
30
0
40
0.12992125984251901
210
0
220
0
230
1
0
CIRCLE
5
102
100
AcDbEntity
8
CUTOUTS
100
AcDbCircle
10
12.303153040003579
20
-14.242125984232802
30
0
40
0.12992125984251901
210
0
220
0
230
1
0
CIRCLE
5
103
100
AcDbEntity
8
CUTOUTS
100
AcDbCircle
10
12.30315304000357
20
13.907480314960624
30
0
40
0.12992125984251901
210
0
220
0
230
1
0
CIRCLE
5
104
100
AcDbEntity
8
CUTOUTS
100
AcDbCircle
10
12.30315304000357
20
13.316929133858261
30
0
40
0.12992125984251901
210
0
220
0
230
1
0
CIRCLE
5
105
100
AcDbEntity
8
CUTOUTS
100
AcDbCircle
10
12.303153040003579
20
-14.832677165335163
30
0
40
0.12992125984251901
210
0
220
0
230
1
0
CIRCLE
5
106
100
AcDbEntity
8
CUTOUTS
100
AcDbCircle
10
12.303153040003574
20
3.8287401574803108
30
0
40
0.12992125984251901
210
0
220
0
230
1
0
CIRCLE
5
107
100
AcDbEntity
8
CUTOUTS
100
AcDbCircle
10
12.303153040003574
20
-0.75787401574803448
30
0
40
0.12992125984251901
210
0
220
0
230
1
0
CIRCLE
5
108
100
AcDbEntity
8
CUTOUTS
100
AcDbCircle
10
-12.303153040003618
20
-0.16732283464567235
30
0
40
0.12992125984251901
210
0
220
0
230
1
0
CIRCLE
5
109
100
AcDbEntity
8
CUTOUTS
100
AcDbCircle
10
-12.303153040003618
20
7.3326771653543261
30
0
40
0.12992125984251901
210
0
220
0
230
1
0
CIRCLE
5
10A
100
AcDbEntity
8
CUTOUTS
100
AcDbCircle
10
-12.303153040003625
20
-14.242125984232802
30
0
40
0.12992125984251901
210
0
220
0
230
1
0
CIRCLE
5
10B
100
AcDbEntity
8
CUTOUTS
100
AcDbCircle
10
-12.303153040003615
20
13.907480314960624
30
0
40
0.12992125984251901
210
0
220
0
230
1
0
CIRCLE
5
10C
100
AcDbEntity
8
CUTOUTS
100
AcDbCircle
10
-12.303153040003615
20
13.316929133858261
30
0
40
0.12992125984251901
210
0
220
0
230
1
0
CIRCLE
5
10D
100
AcDbEntity
8
CUTOUTS
100
AcDbCircle
10
-12.303153040003625
20
-14.832677165335163
30
0
40
0.12992125984251901
210
0
220
0
230
1
0
CIRCLE
5
10E
100
AcDbEntity
8
CUTOUTS
100
AcDbCircle
10
-12.303153040003618
20
3.8287401574803108
30
0
40
0.12992125984251901
210
0
220
0
230
1
0
CIRCLE
5
10F
100
AcDbEntity
8
CUTOUTS
100
AcDbCircle
10
-12.303153040003618
20
-0.75787401574803448
30
0
40
0.12992125984251901
210
0
220
0
230
1
0
LINE
5
110
100
AcDbEntity
8
PERIMETER
100
AcDbLine
10
-10.09842863053567
20
-18.435039370078744
30
0
11
10.098428630535675
21
-18.435039370078744
31
0
0
ARC
5
111
100
AcDbEntity
8
PERIMETER
100
AcDbCircle
10
10.09842863053567
20
-18.356299212598426
30
0
40
0.07874015748031607
210
-0
220
0
230
1
100
AcDbArc
50
-89.999999999996135
51
0
0
LINE
5
112
100
AcDbEntity
8
PERIMETER
100
AcDbLine
10
10.177168788015985
20
-18.356299212598426
30
0
11
10.177168788015987
21
-18.187287668550642
31
0
0
ARC
5
113
100
AcDbEntity
8
PERIMETER
100
AcDbCircle
10
10.255908945496303
20
-18.187287668550642
30
0
40
0.078740157480314793
210
0
220
0
230
1
100
AcDbArc
50
134.99999999999818
51
180
0
LINE
5
114
100
AcDbEntity
8
PERIMETER
100
AcDbLine
10
10.200231246190279
20
-18.131609969244614
30
0
11
12.550904741531712
21
-15.780936473903136
31
0
0
ARC
5
115
100
AcDbEntity
8
PERIMETER
100
AcDbCircle
10
12.606582440837739
20
-15.836614173209163
30
0
40
0.07874015748031607
210
0
220
-0
230
1
100
AcDbArc
50
90
51
135.00000000000091
0
LINE
5
116
100
AcDbEntity
8
PERIMETER
100
AcDbLine
10
12.606582440837739
20
-15.757874015728849
30
0
11
13.700790819871569
21
-15.75787401572884
31
0
0
ARC
5
117
100
AcDbEntity
8
PERIMETER
100
AcDbCircle
10
13.700790819871575
20
-15.679133858248534
30
0
40
0.078740157480304884
210
0
220
0
230
1
100
AcDbArc
50
-90.00000000000388
51
6.3317548236532219e-06
0
LINE
5
118
100
AcDbEntity
8
PERIMETER
100
AcDbLine
10
13.779530977351879
20
-15.679133849444154
30
0
11
13.779527574462747
21
14.7539370166784
31
0
0
ARC
5
119
100
AcDbEntity
8
PERIMETER
100
AcDbCircle
10
13.700787416982436
20
14.753937007874034
30
0
40
0.078740157480310977
210
0
220
-0
230
1
100
AcDbArc
50
6.3317548236532219e-06
51
89.999999999996106
0
LINE
5
11A
100
AcDbEntity
8
PERIMETER
100
AcDbLine
10
13.700787416982442
20
14.832677165354346
30
0
11
12.606579007133218
21
14.832677165354342
31
0
0
ARC
5
11B
100
AcDbEntity
8
PERIMETER
100
AcDbCircle
10
12.606579007133218
20
14.911417322834655
30
0
40
0.078740157480314793
210
0
220
0
230
1
100
AcDbArc
50
225.00000000046339
51
270
0
LINE
5
11C
100
AcDbEntity
8
PERIMETER
100
AcDbLine
10
12.550901307827642
20
14.855739623528178
30
0
11
10.200227812467119
21
17.20641311885057
31
0
0
ARC
5
11D
100
AcDbEntity
8
PERIMETER
100
AcDbCircle
10
10.255905511772696
20
17.262090818157052
30
0
40
0.078740157480314668
210
0
220
0
230
1
100
AcDbArc
50
180
51
225.00000000046339
0
LINE
5
11E
100
AcDbEntity
8
PERIMETER
100
AcDbLine
10
10.177165354292381
20
17.262090818157052
30
0
11
10.177165354292379
21
18.356299212598437
31
0
0
ARC
5
11F
100
AcDbEntity
8
PERIMETER
100
AcDbCircle
10
10.098425196812064
20
18.356299212598433
30
0
40
0.078740157480314668
210
0
220
-0
230
1
100
AcDbArc
50
0
51
90
0
LINE
5
120
100
AcDbEntity
8
PERIMETER
100
AcDbLine
10
10.098425196812064
20
18.435039370078744
30
0
11
-10.09842519681211
21
18.435039370078723
31
0
0
ARC
5
121
100
AcDbEntity
8
PERIMETER
100
AcDbCircle
10
-10.09842519681211
20
18.356299212598412
30
0
40
0.07874015748031607
210
0
220
0
230
1
100
AcDbArc
50
90
51
180
0
LINE
5
122
100
AcDbEntity
8
PERIMETER
100
AcDbLine
10
-10.177165354292425
20
18.356299212598412
30
0
11
-10.177165354292423
21
17.262090818157041
31
0
0
ARC
5
123
100
AcDbEntity
8
PERIMETER
100
AcDbCircle
10
-10.255905511772738
20
17.262090818157041
30
0
40
0.078740157480314793
210
-0
220
0
230
1
100
AcDbArc
50
-45.000000000461569
51
0
0
LINE
5
124
100
AcDbEntity
8
PERIMETER
100
AcDbLine
10
-10.20022781246716
20
17.206413118850566
30
0
11
-12.550901307827681
21
14.855739623528168
31
0
0
ARC
5
125
100
AcDbEntity
8
PERIMETER
100
AcDbCircle
10
-12.606579007133258
20
14.911417322834644
30
0
40
0.07874015748031607
210
-0
220
0
230
1
100
AcDbArc
50
270
51
314.99999999953661
0
LINE
5
126
100
AcDbEntity
8
PERIMETER
100
AcDbLine
10
-12.606579007133258
20
14.832677165354328
30
0
11
-13.70078741698247
21
14.832677165354328
31
0
0
ARC
5
127
100
AcDbEntity
8
PERIMETER
100
AcDbCircle
10
-13.700787416982472
20
14.753937007874015
30
0
40
0.07874015748031328
210
0
220
-0
230
1
100
AcDbArc
50
89.999999999998721
51
179.99999361094308
0
LINE
5
128
100
AcDbEntity
8
PERIMETER
100
AcDbLine
10
-13.779527574462787
20
14.75393701667838
30
0
11
-13.779530977351879
21
-15.679133849444179
31
0
0
ARC
5
129
100
AcDbEntity
8
PERIMETER
100
AcDbCircle
10
-13.700790819871564
20
-15.679133858248548
30
0
40
0.078740157480316569
210
0
220
0
230
1
100
AcDbArc
50
179.99999361094308
51
269.99999999999869
0
LINE
5
12A
100
AcDbEntity
8
PERIMETER
100
AcDbLine
10
-13.700790819871566
20
-15.757874015728865
30
0
11
-12.606582440837736
21
-15.757874015728861
31
0
0
ARC
5
12B
100
AcDbEntity
8
PERIMETER
100
AcDbCircle
10
-12.606582440837736
20
-15.836614173209181
30
0
40
0.078740157480314793
210
0
220
-0
230
1
100
AcDbArc
50
45
51
90
0
LINE
5
12C
100
AcDbEntity
8
PERIMETER
100
AcDbLine
10
-12.550904741531708
20
-15.780936473903154
30
0
11
-10.200231246190272
21
-18.131609969244625
31
0
0
ARC
5
12D
100
AcDbEntity
8
PERIMETER
100
AcDbCircle
10
-10.2559089454963
20
-18.187287668550649
30
0
40
0.078740157480314668
210
0
220
-0
230
1
100
AcDbArc
50
0
51
44.999999999998174
0
LINE
5
12E
100
AcDbEntity
8
PERIMETER
100
AcDbLine
10
-10.177168788015985
20
-18.187287668550649
30
0
11
-10.177168788015985
21
-18.356299212598433
31
0
0
ARC
5
12F
100
AcDbEntity
8
PERIMETER
100
AcDbCircle
10
-10.098428630535661
20
-18.356299212598422
30
0
40
0.078740157480324466
210
0
220
0
230
1
100
AcDbArc
50
180
51
269.99999999999352
0
ENDSEC
0
SECTION
2
OBJECTS
0
DICTIONARY
5
C
100
AcDbDictionary
3
ACAD_GROUP
350
D
3
ACAD_MLINESTYLE
350
17
0
DICTIONARY
5
D
100
AcDbDictionary
0
DICTIONARY
5
1A
330
C
100
AcDbDictionary
0
DICTIONARY
5
17
100
AcDbDictionary
0
ENDSEC
0
EOF
