0
SECTION
2
HEADER
9
$INSUNITS
70
1
9
$ACADVER
1
AC1014
9
$HANDSEED
5
FFFF
0
ENDSEC
0
SECTION
2
TABLES
0
TABLE
2
VPORT
5
8
100
AcDbSymbolTable
0
ENDTAB
0
TABLE
2
LTYPE
5
5
100
AcDbSymbolTable
70
2
0
LTYPE
5
14
100
AcDbSymbolTableRecord
100
AcDbLinetypeTableRecord
2
BYBLOCK
70
0
0
LTYPE
5
15
100
AcDbSymbolTableRecord
100
AcDbLinetypeTableRecord
2
BYLAYER
70
0
0
ENDTAB
0
TABLE
2
LAYER
5
2
100
AcDbSymbolTable
70
3
0
LAYER
5
50
100
AcDbSymbolTableRecord
100
AcDbLayerTableRecord
2
0
70
0
6
CONTINUOUS
0
LAYER
5
51
100
AcDbSymbolTableRecord
100
AcDbLayerTableRecord
2
CUTOUTS
70
0
62
1
6
CONTINUOUS
0
LAYER
5
52
100
AcDbSymbolTableRecord
100
AcDbLayerTableRecord
2
PERIMETER
70
0
62
5
6
CONTINUOUS
0
ENDTAB
0
TABLE
2
STYLE
5
3
100
AcDbSymbolTable
70
1
0
STYLE
5
11
100
AcDbSymbolTableRecord
100
AcDbTextStyleTableRecord
2
STANDARD
70
0
0
ENDTAB
0
TABLE
2
VIEW
5
6
100
AcDbSymbolTable
0
ENDTAB
0
TABLE
2
UCS
5
7
100
AcDbSymbolTable
0
ENDTAB
0
TABLE
2
APPID
5
9
100
AcDbSymbolTable
70
1
0
APPID
5
12
100
AcDbSymbolTableRecord
100
AcDbRegAppTableRecord
2
ACAD
70
0
0
ENDTAB
0
TABLE
2
DIMSTYLE
5
A
100
AcDbSymbolTable
0
ENDTAB
0
TABLE
2
BLOCK_RECORD
5
1
100
AcDbSymbolTable
70
2
0
BLOCK_RECORD
5
1F
100
AcDbSymbolTableRecord
100
AcDbBlockTableRecord
2
*MODEL_SPACE
0
BLOCK_RECORD
5
1B
100
AcDbSymbolTableRecord
100
AcDbBlockTableRecord
2
*PAPER_SPACE
0
ENDTAB
0
ENDSEC
0
SECTION
2
BLOCKS
0
BLOCK
5
20
100
AcDbEntity
100
AcDbBlockBegin
2
*MODEL_SPACE
0
ENDBLK
5
21
100
AcDbEntity
100
AcDbBlockEnd
0
BLOCK
5
1C
100
AcDbEntity
100
AcDbBlockBegin
2
*PAPER_SPACE
0
ENDBLK
5
1D
100
AcDbEntity
100
AcDbBlockEnd
0
ENDSEC
0
SECTION
2
ENTITIES
0
CIRCLE
5
100
100
AcDbEntity
8
CUTOUTS
100
AcDbCircle
10
12.303146383267039
20
-4.8425196850381518
30
0
40
0.12992125984251901
210
0
220
0
230
1
0
CIRCLE
5
101
100
AcDbEntity
8
CUTOUTS
100
AcDbCircle
10
12.303146383267137
20
7.4409448818909807
30
0
40
0.12992125984251901
210
0
220
0
230
1
0
CIRCLE
5
102
100
AcDbEntity
8
CUTOUTS
100
AcDbCircle
10
12.303146383267135
20
5.9842519685051547
30
0
40
0.12992125984251901
210
0
220
0
230
1
0
CIRCLE
5
103
100
AcDbEntity
8
CUTOUTS
100
AcDbCircle
10
12.303146383267135
20
5.3937007874027927
30
0
40
0.12992125984251901
210
0
220
0
230
1
0
CIRCLE
5
104
100
AcDbEntity
8
CUTOUTS
100
AcDbCircle
10
12.303146383267137
20
3.9370078740169645
30
0
40
0.12992125984251901
210
0
220
0
230
1
0
CIRCLE
5
105
100
AcDbEntity
8
CUTOUTS
100
AcDbCircle
10
12.303146383267039
20
-5.4330708661405138
30
0
40
0.12992125984251901
210
0
220
0
230
1
0
CIRCLE
5
106
100
AcDbEntity
8
CUTOUTS
100
AcDbCircle
10
-12.303146383267068
20
-4.8425196850381518
30
0
40
0.12992125984251901
210
0
220
0
230
1
0
CIRCLE
5
107
100
AcDbEntity
8
CUTOUTS
100
AcDbCircle
10
-12.303146383267164
20
7.4409448818909807
30
0
40
0.12992125984251901
210
0
220
0
230
1
0
CIRCLE
5
108
100
AcDbEntity
8
CUTOUTS
100
AcDbCircle
10
-12.303146383267162
20
5.9842519685051547
30
0
40
0.12992125984251901
210
0
220
0
230
1
0
CIRCLE
5
109
100
AcDbEntity
8
CUTOUTS
100
AcDbCircle
10
-12.303146383267162
20
5.3937007874027927
30
0
40
0.12992125984251901
210
0
220
0
230
1
0
CIRCLE
5
10A
100
AcDbEntity
8
CUTOUTS
100
AcDbCircle
10
-12.303146383267164
20
3.9370078740169645
30
0
40
0.12992125984251901
210
0
220
0
230
1
0
CIRCLE
5
10B
100
AcDbEntity
8
CUTOUTS
100
AcDbCircle
10
-12.303146383267068
20
-5.4330708661405138
30
0
40
0.12992125984251901
210
0
220
0
230
1
0
ARC
5
10C
100
AcDbEntity
8
PERIMETER
100
AcDbCircle
10
-10.09842197381351
20
-8.8976377952768075
30
0
40
0.078740157480324466
210
0
220
0
230
1
100
AcDbArc
50
180
51
269.99999999999352
0
LINE
5
10D
100
AcDbEntity
8
PERIMETER
100
AcDbLine
10
-10.098421973813519
20
-8.9763779527571295
30
0
11
10.09842197381354
21
-8.9763779527571295
31
0
0
ARC
5
10E
100
AcDbEntity
8
PERIMETER
100
AcDbCircle
10
10.098421973813535
20
-8.8976377952768129
30
0
40
0.07874015748031607
210
-0
220
0
230
1
100
AcDbArc
50
-89.999999999996135
51
0
0
LINE
5
10F
100
AcDbEntity
8
PERIMETER
100
AcDbLine
10
10.177162131293851
20
-8.8976377952768129
30
0
11
10.177162131293851
21
-8.7286262512290289
31
0
0
ARC
5
110
100
AcDbEntity
8
PERIMETER
100
AcDbCircle
10
10.255902288774168
20
-8.7286262512290289
30
0
40
0.078740157480315792
210
0
220
0
230
1
100
AcDbArc
50
134.99999999999818
51
180
0
LINE
5
111
100
AcDbEntity
8
PERIMETER
100
AcDbLine
10
10.200224589468142
20
-8.6729485519229996
30
0
11
12.550898084795223
21
-6.3222750565958119
31
0
0
ARC
5
112
100
AcDbEntity
8
PERIMETER
100
AcDbCircle
10
12.606575784101251
20
-6.3779527559018394
30
0
40
0.07874015748031607
210
0
220
-0
230
1
100
AcDbArc
50
90
51
135.00000000000045
0
LINE
5
113
100
AcDbEntity
8
PERIMETER
100
AcDbLine
10
12.606575784101251
20
-6.2992125984215237
30
0
11
13.700784193005049
21
-6.2992125984215264
31
0
0
ARC
5
114
100
AcDbEntity
8
PERIMETER
100
AcDbCircle
10
13.700784193005052
20
-6.2204724409412071
30
0
40
0.078740157480318873
210
0
220
0
230
1
100
AcDbArc
50
269.99999999999744
51
359.99999402358446
0
LINE
5
115
100
AcDbEntity
8
PERIMETER
100
AcDbLine
10
13.779524350485371
20
-6.2204724492053813
30
0
11
13.779525877293503
21
8.326771645279921
31
0
0
ARC
5
116
100
AcDbEntity
8
PERIMETER
100
AcDbCircle
10
13.70078571981319
20
8.3267716535441068
30
0
40
0.078740157480313711
210
-0
220
0
230
1
100
AcDbArc
50
-5.9764155237611571e-06
51
89.999999999975444
0
LINE
5
117
100
AcDbEntity
8
PERIMETER
100
AcDbLine
10
13.700785719813224
20
8.4055118110244216
30
0
11
12.696848782184686
21
8.4055118110248301
31
0
0
ARC
5
118
100
AcDbEntity
8
PERIMETER
100
AcDbCircle
10
12.69684878218472
20
8.484251968505145
30
0
40
0.07874015748031607
210
0
220
0
230
1
100
AcDbArc
50
180
51
269.99999999997544
0
LINE
5
119
100
AcDbEntity
8
PERIMETER
100
AcDbLine
10
12.618108624704403
20
8.484251968505145
30
0
11
12.618108624704403
21
8.8976377952768182
31
0
0
ARC
5
11A
100
AcDbEntity
8
PERIMETER
100
AcDbCircle
10
12.539368467224088
20
8.8976377952768182
30
0
40
0.078740157480314668
210
0
220
-0
230
1
100
AcDbArc
50
0
51
90
0
LINE
5
11B
100
AcDbEntity
8
PERIMETER
100
AcDbLine
10
12.539368467224088
20
8.976377952757133
30
0
11
-12.539368467224117
21
8.9763779527571241
31
0
0
ARC
5
11C
100
AcDbEntity
8
PERIMETER
100
AcDbCircle
10
-12.539368467224119
20
8.8976377952768058
30
0
40
0.078740157480317471
210
0
220
-0
230
1
100
AcDbArc
50
89.999999999998721
51
180
0
LINE
5
11D
100
AcDbEntity
8
PERIMETER
100
AcDbLine
10
-12.618108624704435
20
8.8976377952768075
30
0
11
-12.618108624704432
21
8.4842519685051414
31
0
0
ARC
5
11E
100
AcDbEntity
8
PERIMETER
100
AcDbCircle
10
-12.696848782184748
20
8.4842519685051414
30
0
40
0.078740157480314668
210
-0
220
0
230
1
100
AcDbArc
50
-89.999999999975472
51
0
0
LINE
5
11F
100
AcDbEntity
8
PERIMETER
100
AcDbLine
10
-12.696848782184714
20
8.4055118110248284
30
0
11
-13.700785719813224
21
8.4055118110244198
31
0
0
ARC
5
120
100
AcDbEntity
8
PERIMETER
100
AcDbCircle
10
-13.70078571981319
20
8.326771653544105
30
0
40
0.078740157480314668
210
0
220
0
230
1
100
AcDbArc
50
90.000000000024571
51
180.00000597641554
0
LINE
5
121
100
AcDbEntity
8
PERIMETER
100
AcDbLine
10
-13.779525877293503
20
8.3267716452799156
30
0
11
-13.779524350485346
21
-6.2204724492054098
31
0
0
ARC
5
122
100
AcDbEntity
8
PERIMETER
100
AcDbCircle
10
-13.700784193005033
20
-6.2204724409412329
30
0
40
0.078740157480313711
210
0
220
0
230
1
100
AcDbArc
50
180.00000597641554
51
270
0
LINE
5
123
100
AcDbEntity
8
PERIMETER
100
AcDbLine
10
-13.700784193005033
20
-6.2992125984215459
30
0
11
-12.606575784101231
21
-6.2992125984215397
31
0
0
ARC
5
124
100
AcDbEntity
8
PERIMETER
100
AcDbCircle
10
-12.606575784101231
20
-6.3779527559018563
30
0
40
0.078740157480315792
210
0
220
-0
230
1
100
AcDbArc
50
44.999999999999091
51
90
0
LINE
5
125
100
AcDbEntity
8
PERIMETER
100
AcDbLine
10
-12.550898084795202
20
-6.3222750565958288
30
0
11
-10.200224589468124
21
-8.6729485519230103
31
0
0
ARC
5
126
100
AcDbEntity
8
PERIMETER
100
AcDbCircle
10
-10.25590228877415
20
-8.7286262512290342
30
0
40
0.078740157480314668
210
0
220
-0
230
1
100
AcDbArc
50
0
51
44.999999999999091
0
LINE
5
127
100
AcDbEntity
8
PERIMETER
100
AcDbLine
10
-10.177162131293835
20
-8.7286262512290342
30
0
11
-10.177162131293834
21
-8.8976377952768182
31
0
0
ENDSEC
0
SECTION
2
OBJECTS
0
DICTIONARY
5
C
100
AcDbDictionary
3
ACAD_GROUP
350
D
3
ACAD_MLINESTYLE
350
17
0
DICTIONARY
5
D
100
AcDbDictionary
0
DICTIONARY
5
1A
330
C
100
AcDbDictionary
0
DICTIONARY
5
17
100
AcDbDictionary
0
ENDSEC
0
EOF
