0
SECTION
2
HEADER
9
$INSUNITS
70
1
9
$ACADVER
1
AC1014
9
$HANDSEED
5
FFFF
0
ENDSEC
0
SECTION
2
TABLES
0
TABLE
2
VPORT
5
8
100
AcDbSymbolTable
0
ENDTAB
0
TABLE
2
LTYPE
5
5
100
AcDbSymbolTable
70
2
0
LTYPE
5
14
100
AcDbSymbolTableRecord
100
AcDbLinetypeTableRecord
2
BYBLOCK
70
0
0
LTYPE
5
15
100
AcDbSymbolTableRecord
100
AcDbLinetypeTableRecord
2
BYLAYER
70
0
0
ENDTAB
0
TABLE
2
LAYER
5
2
100
AcDbSymbolTable
70
3
0
LAYER
5
50
100
AcDbSymbolTableRecord
100
AcDbLayerTableRecord
2
0
70
0
6
CONTINUOUS
0
LAYER
5
51
100
AcDbSymbolTableRecord
100
AcDbLayerTableRecord
2
CUTOUTS
70
0
62
1
6
CONTINUOUS
0
LAYER
5
52
100
AcDbSymbolTableRecord
100
AcDbLayerTableRecord
2
PERIMETER
70
0
62
5
6
CONTINUOUS
0
ENDTAB
0
TABLE
2
STYLE
5
3
100
AcDbSymbolTable
70
1
0
STYLE
5
11
100
AcDbSymbolTableRecord
100
AcDbTextStyleTableRecord
2
STANDARD
70
0
0
ENDTAB
0
TABLE
2
VIEW
5
6
100
AcDbSymbolTable
0
ENDTAB
0
TABLE
2
UCS
5
7
100
AcDbSymbolTable
0
ENDTAB
0
TABLE
2
APPID
5
9
100
AcDbSymbolTable
70
1
0
APPID
5
12
100
AcDbSymbolTableRecord
100
AcDbRegAppTableRecord
2
ACAD
70
0
0
ENDTAB
0
TABLE
2
DIMSTYLE
5
A
100
AcDbSymbolTable
0
ENDTAB
0
TABLE
2
BLOCK_RECORD
5
1
100
AcDbSymbolTable
70
2
0
BLOCK_RECORD
5
1F
100
AcDbSymbolTableRecord
100
AcDbBlockTableRecord
2
*MODEL_SPACE
0
BLOCK_RECORD
5
1B
100
AcDbSymbolTableRecord
100
AcDbBlockTableRecord
2
*PAPER_SPACE
0
ENDTAB
0
ENDSEC
0
SECTION
2
BLOCKS
0
BLOCK
5
20
100
AcDbEntity
100
AcDbBlockBegin
2
*MODEL_SPACE
0
ENDBLK
5
21
100
AcDbEntity
100
AcDbBlockEnd
0
BLOCK
5
1C
100
AcDbEntity
100
AcDbBlockBegin
2
*PAPER_SPACE
0
ENDBLK
5
1D
100
AcDbEntity
100
AcDbBlockEnd
0
ENDSEC
0
SECTION
2
ENTITIES
0
CIRCLE
5
100
100
AcDbEntity
8
CUTOUTS
100
AcDbCircle
10
9.3503937007873983
20
13.479330708661401
30
0
40
0.12992125984251901
210
0
220
0
230
1
0
CIRCLE
5
101
100
AcDbEntity
8
CUTOUTS
100
AcDbCircle
10
-12.499999999999996
20
13.479330708661406
30
0
40
0.12992125984251901
210
0
220
0
230
1
0
CIRCLE
5
102
100
AcDbEntity
8
CUTOUTS
100
AcDbCircle
10
-13.011811023622057
20
0.093503937007752599
30
0
40
0.12992125984251901
210
0
220
0
230
1
0
CIRCLE
5
103
100
AcDbEntity
8
CUTOUTS
100
AcDbCircle
10
-12.500000000000007
20
-13.292322834645667
30
0
40
0.12992125984251901
210
0
220
0
230
1
0
CIRCLE
5
104
100
AcDbEntity
8
CUTOUTS
100
AcDbCircle
10
9.3503937007873947
20
-13.292322834645667
30
0
40
0.12992125984251901
210
0
220
0
230
1
0
CIRCLE
5
105
100
AcDbEntity
8
CUTOUTS
100
AcDbCircle
10
12.893700787401569
20
0.68405511811021824
30
0
40
0.12992125984251901
210
0
220
0
230
1
0
CIRCLE
5
106
100
AcDbEntity
8
CUTOUTS
100
AcDbCircle
10
12.893700787401571
20
11.117125984251944
30
0
40
0.12992125984251901
210
0
220
0
230
1
0
CIRCLE
5
107
100
AcDbEntity
8
CUTOUTS
100
AcDbCircle
10
12.893700787401562
20
-9.7490157480315052
30
0
40
0.12992125984251901
210
0
220
0
230
1
0
CIRCLE
5
108
100
AcDbEntity
8
CUTOUTS
100
AcDbCircle
10
-1.57480314960632
20
-13.292322834645667
30
0
40
0.1299212598425197
210
0
220
0
230
1
0
CIRCLE
5
109
100
AcDbEntity
8
CUTOUTS
100
AcDbCircle
10
-13.011811023622069
20
-11.717519685039413
30
0
40
0.12992125984251901
210
0
220
0
230
1
0
CIRCLE
5
10A
100
AcDbEntity
8
CUTOUTS
100
AcDbCircle
10
-13.011811023622045
20
12.101377952755893
30
0
40
0.12992125984251901
210
0
220
0
230
1
0
CIRCLE
5
10B
100
AcDbEntity
8
CUTOUTS
100
AcDbCircle
10
-1.5748031496062962
20
13.479330708661418
30
0
40
0.1299212598425197
210
0
220
0
230
1
0
LINE
5
10C
100
AcDbEntity
8
PERIMETER
100
AcDbLine
10
7.2678564327005191
20
13.039794741638838
30
0
11
6.4478396167656395
21
13.859811557573721
31
0
0
ARC
5
10D
100
AcDbEntity
8
PERIMETER
100
AcDbCircle
10
7.3235341320065457
20
13.095472440944866
30
0
40
0.078740157480314793
210
0
220
0
230
1
100
AcDbArc
50
225.00000000000045
51
270
0
LINE
5
10E
100
AcDbEntity
8
PERIMETER
100
AcDbLine
10
8.0701666553950222
20
13.016732283464552
30
0
11
7.3235341320065457
21
13.016732283464552
31
0
0
ARC
5
10F
100
AcDbEntity
8
PERIMETER
100
AcDbCircle
10
8.0701666553950222
20
13.095472440944866
30
0
40
0.07874015748031607
210
-0
220
0
230
1
100
AcDbArc
50
270
51
315
0
LINE
5
110
100
AcDbEntity
8
PERIMETER
100
AcDbLine
10
8.9458611706359452
20
13.859811557573732
30
0
11
8.1258443547010497
21
13.03979474163884
31
0
0
ARC
5
111
100
AcDbEntity
8
PERIMETER
100
AcDbCircle
10
9.0015388699419727
20
13.804133858267704
30
0
40
0.07874015748031328
210
0
220
-0
230
1
100
AcDbArc
50
90
51
135.00000000000185
0
LINE
5
112
100
AcDbEntity
8
PERIMETER
100
AcDbLine
10
9.8031496062992112
20
13.882874015748017
30
0
11
9.0015388699419727
21
13.882874015748017
31
0
0
ARC
5
113
100
AcDbEntity
8
PERIMETER
100
AcDbCircle
10
9.8031496062992112
20
13.804133858267704
30
0
40
0.078740157480314668
210
-0
220
0
230
1
100
AcDbArc
50
0
51
90
0
LINE
5
114
100
AcDbEntity
8
PERIMETER
100
AcDbLine
10
9.881889763779526
20
12.900945550959626
30
0
11
9.881889763779526
21
13.804133858267701
31
0
0
ARC
5
115
100
AcDbEntity
8
PERIMETER
100
AcDbCircle
10
9.9606299212598408
20
12.900945550959626
30
0
40
0.078740157480314668
210
0
220
0
230
1
100
AcDbArc
50
180
51
243.43494882292256
0
LINE
5
116
100
AcDbEntity
8
PERIMETER
100
AcDbLine
10
12.272582944793305
20
11.656934866850378
30
0
11
9.9254162523228366
21
12.83051821308562
31
0
0
ARC
5
117
100
AcDbEntity
8
PERIMETER
100
AcDbCircle
10
12.307796613730309
20
11.727362204724386
30
0
40
0.078740157480315334
210
0
220
0
230
1
100
AcDbArc
50
243.43494882292202
51
270
0
LINE
5
118
100
AcDbEntity
8
PERIMETER
100
AcDbLine
10
13.405511811023617
20
11.648622047244071
30
0
11
12.307796613730309
21
11.648622047244071
31
0
0
ARC
5
119
100
AcDbEntity
8
PERIMETER
100
AcDbCircle
10
13.405511811023617
20
11.569881889763755
30
0
40
0.07874015748031607
210
0
220
0
230
1
100
AcDbArc
50
0
51
90
0
LINE
5
11A
100
AcDbEntity
8
PERIMETER
100
AcDbLine
10
13.484251968503919
20
-10.201771653543314
30
0
11
13.484251968503933
21
11.569881889763755
31
0
0
ARC
5
11B
100
AcDbEntity
8
PERIMETER
100
AcDbCircle
10
13.405511811023597
20
-10.201771653543309
30
0
40
0.078740157480321663
210
-0
220
0
230
1
100
AcDbArc
50
270.00000000000387
51
360
0
LINE
5
11C
100
AcDbEntity
8
PERIMETER
100
AcDbLine
10
12.311303416582133
20
-10.280511811023636
30
0
11
13.405511811023603
21
-10.280511811023631
31
0
0
ARC
5
11D
100
AcDbEntity
8
PERIMETER
100
AcDbCircle
10
12.311303416582133
20
-10.359251968503953
30
0
40
0.07874015748031607
210
0
220
-0
230
1
100
AcDbArc
50
90
51
135
0
LINE
5
11E
100
AcDbEntity
8
PERIMETER
100
AcDbLine
10
9.9049522219537955
20
-12.654247764520212
30
0
11
12.255625717276105
21
-10.303574269197926
31
0
0
ARC
5
11F
100
AcDbEntity
8
PERIMETER
100
AcDbCircle
10
9.9606299212598213
20
-12.709925463826242
30
0
40
0.078740157480315792
210
0
220
0
230
1
100
AcDbArc
50
134.99999999999818
51
180
0
LINE
5
120
100
AcDbEntity
8
PERIMETER
100
AcDbLine
10
9.8818897637795029
20
-13.804133858267713
30
0
11
9.8818897637795082
21
-12.709925463826242
31
0
0
ARC
5
121
100
AcDbEntity
8
PERIMETER
100
AcDbCircle
10
9.8031496062991863
20
-13.804133858267713
30
0
40
0.07874015748031607
210
-0
220
0
230
1
100
AcDbArc
50
-89.999999999996135
51
0
0
LINE
5
122
100
AcDbEntity
8
PERIMETER
100
AcDbLine
10
-12.952755905511832
20
-13.882874015748028
30
0
11
9.8031496062991916
21
-13.882874015748028
31
0
0
ARC
5
123
100
AcDbEntity
8
PERIMETER
100
AcDbCircle
10
-12.952755905511824
20
-13.804133858267708
30
0
40
0.078740157480321663
210
0
220
0
230
1
100
AcDbArc
50
180
51
269.99999999999352
0
LINE
5
124
100
AcDbEntity
8
PERIMETER
100
AcDbLine
10
-13.031496062992147
20
-12.709925463826242
30
0
11
-13.031496062992145
21
-13.804133858267718
31
0
0
ARC
5
125
100
AcDbEntity
8
PERIMETER
100
AcDbCircle
10
-13.11023622047246
20
-12.709925463826242
30
0
40
0.07874015748031607
210
0
220
-0
230
1
100
AcDbArc
50
0
51
45.000000000001826
0
LINE
5
126
100
AcDbEntity
8
PERIMETER
100
AcDbLine
10
-13.461189510329625
20
-12.24761677535702
30
0
11
-13.054558521166436
21
-12.654247764520212
31
0
0
ARC
5
127
100
AcDbEntity
8
PERIMETER
100
AcDbCircle
10
-13.405511811023594
20
-12.191939076050991
30
0
40
0.078740157480318873
210
0
220
0
230
1
100
AcDbArc
50
180
51
224.99999999999909
0
LINE
5
128
100
AcDbEntity
8
PERIMETER
100
AcDbLine
10
-13.484251968503914
20
-11.356434138769574
30
0
11
-13.484251968503914
21
-12.191939076050991
31
0
0
ARC
5
129
100
AcDbEntity
8
PERIMETER
100
AcDbCircle
10
-13.405511811023603
20
-11.35643413876957
30
0
40
0.078740157480308867
210
0
220
0
230
1
100
AcDbArc
50
134.99999999999909
51
180
0
LINE
5
12A
100
AcDbEntity
8
PERIMETER
100
AcDbLine
10
-12.601802615649719
20
-10.441369544783646
30
0
11
-13.461189510329625
21
-11.300756439463546
31
0
0
ARC
5
12B
100
AcDbEntity
8
PERIMETER
100
AcDbCircle
10
-12.657480314955746
20
-10.385691845477618
30
0
40
0.078740157480316778
210
-0
220
0
230
1
100
AcDbArc
50
-44.999999999999091
51
0
0
LINE
5
12C
100
AcDbEntity
8
PERIMETER
100
AcDbLine
10
-12.578740157475432
20
-1.2383239025540573
30
0
11
-12.578740157475433
21
-10.385691845477618
31
0
0
ARC
5
12D
100
AcDbEntity
8
PERIMETER
100
AcDbCircle
10
-12.657480314955746
20
-1.2383239025540573
30
0
40
0.078740157480314668
210
0
220
-0
230
1
100
AcDbArc
50
0
51
45.000000000000121
0
LINE
5
12E
100
AcDbEntity
8
PERIMETER
100
AcDbLine
10
-13.461189510329634
20
-0.32325930856810542
30
0
11
-12.601802615649719
21
-1.18264620324803
31
0
0
ARC
5
12F
100
AcDbEntity
8
PERIMETER
100
AcDbCircle
10
-13.405511811023597
20
-0.26758160926207253
30
0
40
0.078740157480327269
210
0
220
0
230
1
100
AcDbArc
50
180
51
224.99999999999736
0
LINE
5
130
100
AcDbEntity
8
PERIMETER
100
AcDbLine
10
-13.484251968503925
20
0.45458948327758614
30
0
11
-13.484251968503925
21
-0.26758160926207814
31
0
0
ARC
5
131
100
AcDbEntity
8
PERIMETER
100
AcDbCircle
10
-13.405511811023613
20
0.45458948327758897
30
0
40
0.078740157480308867
210
0
220
0
230
1
100
AcDbArc
50
134.99999999999886
51
180
0
LINE
5
132
100
AcDbEntity
8
PERIMETER
100
AcDbLine
10
-12.601802615649717
20
1.3696540772635353
30
0
11
-13.461189510329636
21
0.51026718258361337
31
0
0
ARC
5
133
100
AcDbEntity
8
PERIMETER
100
AcDbCircle
10
-12.657480314955746
20
1.4253317765695626
30
0
40
0.078740157480316778
210
-0
220
0
230
1
100
AcDbArc
50
-44.999999999998977
51
0
0
LINE
5
134
100
AcDbEntity
8
PERIMETER
100
AcDbLine
10
-12.57874015747543
20
10.76955011319399
30
0
11
-12.578740157475432
21
1.4253317765695626
31
0
0
ARC
5
135
100
AcDbEntity
8
PERIMETER
100
AcDbCircle
10
-12.657480314955745
20
10.76955011319399
30
0
40
0.078740157480314668
210
0
220
-0
230
1
100
AcDbArc
50
0
51
44.999999999999091
0
LINE
5
136
100
AcDbEntity
8
PERIMETER
100
AcDbLine
10
-13.461189510329646
20
11.684614707180002
30
0
11
-12.601802615649717
21
10.825227812500014
31
0
0
ARC
5
137
100
AcDbEntity
8
PERIMETER
100
AcDbCircle
10
-13.405511811023622
20
11.740292406486025
30
0
40
0.078740157480307688
210
0
220
0
230
1
100
AcDbArc
50
180
51
224.99999999999909
0
LINE
5
138
100
AcDbEntity
8
PERIMETER
100
AcDbLine
10
-13.48425196850393
20
12.57723941099902
30
0
11
-13.48425196850393
21
11.740292406486027
31
0
0
ARC
5
139
100
AcDbEntity
8
PERIMETER
100
AcDbCircle
10
-13.405511811023613
20
12.577239410999018
30
0
40
0.078740157480319095
210
0
220
0
230
1
100
AcDbArc
50
116.56505117707917
51
180
0
LINE
5
13A
100
AcDbEntity
8
PERIMETER
100
AcDbLine
10
-13.075022551535435
20
12.830518213085623
30
0
11
-13.440725479960621
21
12.64766674887303
31
0
0
ARC
5
13B
100
AcDbEntity
8
PERIMETER
100
AcDbCircle
10
-13.110236220472439
20
12.900945550959632
30
0
40
0.078740157480315334
210
-0
220
0
230
1
100
AcDbArc
50
-63.43494882292201
51
0
0
LINE
5
13C
100
AcDbEntity
8
PERIMETER
100
AcDbLine
10
-13.031496062992122
20
13.804133858267704
30
0
11
-13.031496062992122
21
12.900945550959632
31
0
0
ARC
5
13D
100
AcDbEntity
8
PERIMETER
100
AcDbCircle
10
-12.952755905511806
20
13.804133858267704
30
0
40
0.07874015748031607
210
0
220
-0
230
1
100
AcDbArc
50
90
51
180
0
LINE
5
13E
100
AcDbEntity
8
PERIMETER
100
AcDbLine
10
-12.151145169154564
20
13.882874015748021
30
0
11
-12.952755905511806
21
13.882874015748021
31
0
0
ARC
5
13F
100
AcDbEntity
8
PERIMETER
100
AcDbCircle
10
-12.151145169154564
20
13.804133858267704
30
0
40
0.078740157480314793
210
0
220
-0
230
1
100
AcDbArc
50
45
51
90
0
LINE
5
140
100
AcDbEntity
8
PERIMETER
100
AcDbLine
10
-11.275450653913646
20
13.039794741638843
30
0
11
-12.095467469848536
21
13.859811557573732
31
0
0
ARC
5
141
100
AcDbEntity
8
PERIMETER
100
AcDbCircle
10
-11.219772954607619
20
13.095472440944871
30
0
40
0.078740157480314793
210
0
220
0
230
1
100
AcDbArc
50
225
51
270
0
LINE
5
142
100
AcDbEntity
8
PERIMETER
100
AcDbLine
10
-10.473140431219147
20
13.016732283464554
30
0
11
-11.219772954607619
21
13.016732283464554
31
0
0
ARC
5
143
100
AcDbEntity
8
PERIMETER
100
AcDbCircle
10
-10.473140431219147
20
13.095472440944871
30
0
40
0.07874015748031607
210
-0
220
0
230
1
100
AcDbArc
50
270
51
315
0
LINE
5
144
100
AcDbEntity
8
PERIMETER
100
AcDbLine
10
-9.597445915978243
20
13.859811557573723
30
0
11
-10.417462731913119
21
13.039794741638843
31
0
0
ARC
5
145
100
AcDbEntity
8
PERIMETER
100
AcDbCircle
10
-9.5417682166722155
20
13.804133858267695
30
0
40
0.07874015748031328
210
0
220
-0
230
1
100
AcDbArc
50
90
51
135
0
LINE
5
146
100
AcDbEntity
8
PERIMETER
100
AcDbLine
10
-4.533034932934088
20
13.882874015748037
30
0
11
-9.5417682166722155
21
13.882874015748012
31
0
0
ARC
5
147
100
AcDbEntity
8
PERIMETER
100
AcDbCircle
10
-4.533034932934088
20
13.80413385826772
30
0
40
0.078740157480317277
210
0
220
-0
230
1
100
AcDbArc
50
45.000000000001378
51
90
0
LINE
5
148
100
AcDbEntity
8
PERIMETER
100
AcDbLine
10
-3.6573404176931725
20
13.039794741638861
30
0
11
-4.4773572336280605
21
13.859811557573748
31
0
0
ARC
5
149
100
AcDbEntity
8
PERIMETER
100
AcDbCircle
10
-3.6016627183871441
20
13.095472440944887
30
0
40
0.078740157480315293
210
0
220
0
230
1
100
AcDbArc
50
224.99999999999883
51
270
0
LINE
5
14A
100
AcDbEntity
8
PERIMETER
100
AcDbLine
10
-2.8550301949986698
20
13.016732283464572
30
0
11
-3.6016627183871441
21
13.016732283464572
31
0
0
ARC
5
14B
100
AcDbEntity
8
PERIMETER
100
AcDbCircle
10
-2.8550301949986698
20
13.095472440944885
30
0
40
0.07874015748031607
210
-0
220
0
230
1
100
AcDbArc
50
270
51
315
0
LINE
5
14C
100
AcDbEntity
8
PERIMETER
100
AcDbLine
10
-1.9793356797577542
20
13.859811557573748
30
0
11
-2.7993524956926419
21
13.039794741638861
31
0
0
ARC
5
14D
100
AcDbEntity
8
PERIMETER
100
AcDbCircle
10
-1.9236579804517262
20
13.80413385826772
30
0
40
0.07874015748031607
210
0
220
-0
230
1
100
AcDbArc
50
90
51
135.00000000000023
0
LINE
5
14E
100
AcDbEntity
8
PERIMETER
100
AcDbLine
10
-1.2259483187608611
20
13.882874015748035
30
0
11
-1.9236579804517262
21
13.882874015748035
31
0
0
ARC
5
14F
100
AcDbEntity
8
PERIMETER
100
AcDbCircle
10
-1.2259483187608611
20
13.80413385826772
30
0
40
0.078740157480314793
210
0
220
-0
230
1
100
AcDbArc
50
45.000000000000121
51
90
0
LINE
5
150
100
AcDbEntity
8
PERIMETER
100
AcDbLine
10
-0.35025380351994384
20
13.039794741638858
30
0
11
-1.1702706194548338
21
13.859811557573746
31
0
0
ARC
5
151
100
AcDbEntity
8
PERIMETER
100
AcDbCircle
10
-0.29457610421391661
20
13.095472440944885
30
0
40
0.078740157480314793
210
0
220
0
230
1
100
AcDbArc
50
225.00000000000014
51
270
0
LINE
5
152
100
AcDbEntity
8
PERIMETER
100
AcDbLine
10
0.45205641917455852
20
13.016732283464572
30
0
11
-0.29457610421391661
21
13.016732283464572
31
0
0
ARC
5
153
100
AcDbEntity
8
PERIMETER
100
AcDbCircle
10
0.45205641917455852
20
13.095472440944885
30
0
40
0.07874015748031607
210
-0
220
0
230
1
100
AcDbArc
50
270
51
314.99999999999994
0
LINE
5
154
100
AcDbEntity
8
PERIMETER
100
AcDbLine
10
1.3277509344154759
20
13.859811557573748
30
0
11
0.50773411848058647
21
13.039794741638858
31
0
0
ARC
5
155
100
AcDbEntity
8
PERIMETER
100
AcDbCircle
10
1.3834286337215032
20
13.80413385826772
30
0
40
0.07874015748031607
210
0
220
-0
230
1
100
AcDbArc
50
89.999999999999517
51
134.99999999999991
0
LINE
5
156
100
AcDbEntity
8
PERIMETER
100
AcDbLine
10
6.392161917459612
20
13.882874015748008
30
0
11
1.3834286337215038
21
13.882874015748035
31
0
0
ARC
5
157
100
AcDbEntity
8
PERIMETER
100
AcDbCircle
10
6.3921619174596129
20
13.804133858267699
30
0
40
0.078740157480311837
210
0
220
-0
230
1
100
AcDbArc
50
44.999999999998614
51
90.000000000000654
0
ENDSEC
0
SECTION
2
OBJECTS
0
DICTIONARY
5
C
100
AcDbDictionary
3
ACAD_GROUP
350
D
3
ACAD_MLINESTYLE
350
17
0
DICTIONARY
5
D
100
AcDbDictionary
0
DICTIONARY
5
1A
330
C
100
AcDbDictionary
0
DICTIONARY
5
17
100
AcDbDictionary
0
ENDSEC
0
EOF
