0
SECTION
2
HEADER
9
$INSUNITS
70
1
9
$ACADVER
1
AC1014
9
$HANDSEED
5
FFFF
0
ENDSEC
0
SECTION
2
TABLES
0
TABLE
2
VPORT
5
8
100
AcDbSymbolTable
0
ENDTAB
0
TABLE
2
LTYPE
5
5
100
AcDbSymbolTable
70
2
0
LTYPE
5
14
100
AcDbSymbolTableRecord
100
AcDbLinetypeTableRecord
2
BYBLOCK
70
0
0
LTYPE
5
15
100
AcDbSymbolTableRecord
100
AcDbLinetypeTableRecord
2
BYLAYER
70
0
0
ENDTAB
0
TABLE
2
LAYER
5
2
100
AcDbSymbolTable
70
3
0
LAYER
5
50
100
AcDbSymbolTableRecord
100
AcDbLayerTableRecord
2
0
70
0
6
CONTINUOUS
0
LAYER
5
51
100
AcDbSymbolTableRecord
100
AcDbLayerTableRecord
2
CUTOUTS
70
0
62
1
6
CONTINUOUS
0
LAYER
5
52
100
AcDbSymbolTableRecord
100
AcDbLayerTableRecord
2
PERIMETER
70
0
62
5
6
CONTINUOUS
0
ENDTAB
0
TABLE
2
STYLE
5
3
100
AcDbSymbolTable
70
1
0
STYLE
5
11
100
AcDbSymbolTableRecord
100
AcDbTextStyleTableRecord
2
STANDARD
70
0
0
ENDTAB
0
TABLE
2
VIEW
5
6
100
AcDbSymbolTable
0
ENDTAB
0
TABLE
2
UCS
5
7
100
AcDbSymbolTable
0
ENDTAB
0
TABLE
2
APPID
5
9
100
AcDbSymbolTable
70
1
0
APPID
5
12
100
AcDbSymbolTableRecord
100
AcDbRegAppTableRecord
2
ACAD
70
0
0
ENDTAB
0
TABLE
2
DIMSTYLE
5
A
100
AcDbSymbolTable
0
ENDTAB
0
TABLE
2
BLOCK_RECORD
5
1
100
AcDbSymbolTable
70
2
0
BLOCK_RECORD
5
1F
100
AcDbSymbolTableRecord
100
AcDbBlockTableRecord
2
*MODEL_SPACE
0
BLOCK_RECORD
5
1B
100
AcDbSymbolTableRecord
100
AcDbBlockTableRecord
2
*PAPER_SPACE
0
ENDTAB
0
ENDSEC
0
SECTION
2
BLOCKS
0
BLOCK
5
20
100
AcDbEntity
100
AcDbBlockBegin
2
*MODEL_SPACE
0
ENDBLK
5
21
100
AcDbEntity
100
AcDbBlockEnd
0
BLOCK
5
1C
100
AcDbEntity
100
AcDbBlockBegin
2
*PAPER_SPACE
0
ENDBLK
5
1D
100
AcDbEntity
100
AcDbBlockEnd
0
ENDSEC
0
SECTION
2
ENTITIES
0
CIRCLE
5
100
100
AcDbEntity
8
CUTOUTS
100
AcDbCircle
10
-5.9106929098836573e-15
20
-12.952755905511809
30
0
40
0.12992125984251968
210
0
220
0
230
1
0
CIRCLE
5
101
100
AcDbEntity
8
CUTOUTS
100
AcDbCircle
10
13.188976377952747
20
0.31496062992124757
30
0
40
0.12992125984251901
210
0
220
0
230
1
0
CIRCLE
5
102
100
AcDbEntity
8
CUTOUTS
100
AcDbCircle
10
9.9606299212598355
20
-12.952755905511815
30
0
40
0.12992125984251901
210
0
220
0
230
1
0
CIRCLE
5
103
100
AcDbEntity
8
CUTOUTS
100
AcDbCircle
10
-13.188976377952752
20
-9.7244094488188999
30
0
40
0.12992125984251901
210
0
220
0
230
1
0
CIRCLE
5
104
100
AcDbEntity
8
CUTOUTS
100
AcDbCircle
10
-13.188976377952752
20
10.35433070866141
30
0
40
0.12992125984251901
210
0
220
0
230
1
0
CIRCLE
5
105
100
AcDbEntity
8
CUTOUTS
100
AcDbCircle
10
2.5984251968503922
20
12.952755905511804
30
0
40
0.1299212598425197
210
0
220
0
230
1
0
CIRCLE
5
106
100
AcDbEntity
8
CUTOUTS
100
AcDbCircle
10
-10.590551181102363
20
12.952755905511809
30
0
40
0.12992125984251901
210
0
220
0
230
1
0
CIRCLE
5
107
100
AcDbEntity
8
CUTOUTS
100
AcDbCircle
10
-2.0866141732283485
20
12.952755905511806
30
0
40
0.1299212598425197
210
0
220
0
230
1
0
CIRCLE
5
108
100
AcDbEntity
8
CUTOUTS
100
AcDbCircle
10
10.590551181102363
20
12.952755905511804
30
0
40
0.12992125984251901
210
0
220
0
230
1
0
CIRCLE
5
109
100
AcDbEntity
8
CUTOUTS
100
AcDbCircle
10
-13.188976377952752
20
0.31496062992125312
30
0
40
0.12992125984251901
210
0
220
0
230
1
0
CIRCLE
5
10A
100
AcDbEntity
8
CUTOUTS
100
AcDbCircle
10
-9.9606299212598461
20
-12.952755905511809
30
0
40
0.12992125984251901
210
0
220
0
230
1
0
CIRCLE
5
10B
100
AcDbEntity
8
CUTOUTS
100
AcDbCircle
10
13.188976377952741
20
-9.724409448818907
30
0
40
0.12992125984251901
210
0
220
0
230
1
0
CIRCLE
5
10C
100
AcDbEntity
8
CUTOUTS
100
AcDbCircle
10
13.188976377952752
20
10.354330708661404
30
0
40
0.12992125984251901
210
0
220
0
230
1
0
ARC
5
10D
100
AcDbEntity
8
PERIMETER
100
AcDbCircle
10
-10.43307086614174
20
-13.4251968503937
30
0
40
0.07874015748031328
210
0
220
0
230
1
100
AcDbArc
50
180
51
270
0
LINE
5
10E
100
AcDbEntity
8
PERIMETER
100
AcDbLine
10
-10.43307086614174
20
-13.503937007874013
30
0
11
10.433070866141714
21
-13.503937007874013
31
0
0
ARC
5
10F
100
AcDbEntity
8
PERIMETER
100
AcDbCircle
10
10.433070866141714
20
-13.4251968503937
30
0
40
0.07874015748031328
210
-0
220
0
230
1
100
AcDbArc
50
-90
51
0
0
LINE
5
110
100
AcDbEntity
8
PERIMETER
100
AcDbLine
10
10.511811023622029
20
-13.425196850393698
30
0
11
10.511811023622034
21
-10.590551181102358
31
0
0
LINE
5
111
100
AcDbEntity
8
PERIMETER
100
AcDbLine
10
10.511811023622034
20
-10.590551181102358
30
0
11
10.826771653543293
21
-10.2755905511811
31
0
0
LINE
5
112
100
AcDbEntity
8
PERIMETER
100
AcDbLine
10
10.826771653543293
20
-10.2755905511811
30
0
11
13.661417322834634
21
-10.2755905511811
31
0
0
ARC
5
113
100
AcDbEntity
8
PERIMETER
100
AcDbCircle
10
13.661417322834632
20
-10.196850393700783
30
0
40
0.07874015748031607
210
-0
220
0
230
1
100
AcDbArc
50
270.00000000000125
51
360
0
LINE
5
114
100
AcDbEntity
8
PERIMETER
100
AcDbLine
10
13.740157480314947
20
-10.196850393700785
30
0
11
13.740157480314956
21
10.82677165354329
31
0
0
ARC
5
115
100
AcDbEntity
8
PERIMETER
100
AcDbCircle
10
13.661417322834639
20
10.826771653543286
30
0
40
0.07874015748031607
210
0
220
-0
230
1
100
AcDbArc
50
0
51
90
0
LINE
5
116
100
AcDbEntity
8
PERIMETER
100
AcDbLine
10
13.661417322834639
20
10.905511811023603
30
0
11
12.677165354330704
21
10.905511811023608
31
0
0
ARC
5
117
100
AcDbEntity
8
PERIMETER
100
AcDbCircle
10
12.677165354330704
20
10.984251968503923
30
0
40
0.078740157480314668
210
0
220
0
230
1
100
AcDbArc
50
180
51
270
0
LINE
5
118
100
AcDbEntity
8
PERIMETER
100
AcDbLine
10
12.598425196850389
20
10.984251968503923
30
0
11
12.598425196850393
21
12.283464566929128
31
0
0
ARC
5
119
100
AcDbEntity
8
PERIMETER
100
AcDbCircle
10
12.519685039370078
20
12.283464566929128
30
0
40
0.078740157480314668
210
0
220
-0
230
1
100
AcDbArc
50
0
51
90
0
LINE
5
11A
100
AcDbEntity
8
PERIMETER
100
AcDbLine
10
12.519685039370078
20
12.362204724409443
30
0
11
11.220472440944876
21
12.362204724409441
31
0
0
ARC
5
11B
100
AcDbEntity
8
PERIMETER
100
AcDbCircle
10
11.220472440944876
20
12.440944881889754
30
0
40
0.078740157480314668
210
0
220
0
230
1
100
AcDbArc
50
180
51
270
0
LINE
5
11C
100
AcDbEntity
8
PERIMETER
100
AcDbLine
10
11.141732283464561
20
12.440944881889754
30
0
11
11.141732283464561
21
13.425196850393695
31
0
0
ARC
5
11D
100
AcDbEntity
8
PERIMETER
100
AcDbCircle
10
11.062992125984243
20
13.425196850393691
30
0
40
0.078740157480318873
210
0
220
-0
230
1
100
AcDbArc
50
0
51
89.999999999997414
0
LINE
5
11E
100
AcDbEntity
8
PERIMETER
100
AcDbLine
10
11.062992125984247
20
13.503937007874011
30
0
11
2.1259842519685006
21
13.503937007874011
31
0
0
ARC
5
11F
100
AcDbEntity
8
PERIMETER
100
AcDbCircle
10
2.1259842519685024
20
13.425196850393691
30
0
40
0.078740157480318873
210
0
220
0
230
1
100
AcDbArc
50
90.000000000001307
51
180
0
LINE
5
120
100
AcDbEntity
8
PERIMETER
100
AcDbLine
10
2.0472440944881836
20
13.425196850393695
30
0
11
2.0472440944881849
21
12.440944881889761
31
0
0
ARC
5
121
100
AcDbEntity
8
PERIMETER
100
AcDbCircle
10
1.9685039370078696
20
12.440944881889761
30
0
40
0.078740157480314668
210
-0
220
0
230
1
100
AcDbArc
50
-90
51
0
0
LINE
5
122
100
AcDbEntity
8
PERIMETER
100
AcDbLine
10
1.9685039370078696
20
12.362204724409446
30
0
11
1.6141732283464525
21
12.362204724409446
31
0
0
ARC
5
123
100
AcDbEntity
8
PERIMETER
100
AcDbCircle
10
1.6141732283464523
20
12.283464566929132
30
0
40
0.078740157480314668
210
0
220
-0
230
1
100
AcDbArc
50
89.999999999999844
51
180
0
LINE
5
124
100
AcDbEntity
8
PERIMETER
100
AcDbLine
10
1.5354330708661375
20
12.283464566929132
30
0
11
1.5354330708661377
21
10.118110236220469
31
0
0
LINE
5
125
100
AcDbEntity
8
PERIMETER
100
AcDbLine
10
1.5354330708661377
20
10.118110236220469
30
0
11
1.2598425196850356
21
9.842519685039365
31
0
0
LINE
5
126
100
AcDbEntity
8
PERIMETER
100
AcDbLine
10
1.2598425196850356
20
9.842519685039365
30
0
11
-1.2598425196850438
21
9.8425196850393668
31
0
0
LINE
5
127
100
AcDbEntity
8
PERIMETER
100
AcDbLine
10
-1.2598425196850438
20
9.8425196850393668
30
0
11
-1.5354330708661463
21
10.118110236220469
31
0
0
LINE
5
128
100
AcDbEntity
8
PERIMETER
100
AcDbLine
10
-1.5354330708661463
20
10.118110236220469
30
0
11
-1.5354330708661466
21
13.425196850393695
31
0
0
ARC
5
129
100
AcDbEntity
8
PERIMETER
100
AcDbCircle
10
-1.614173228346464
20
13.425196850393691
30
0
40
0.078740157480317471
210
0
220
-0
230
1
100
AcDbArc
50
0
51
89.999999999998067
0
LINE
5
12A
100
AcDbEntity
8
PERIMETER
100
AcDbLine
10
-1.6141732283464614
20
13.503937007874008
30
0
11
-11.062992125984254
21
13.503937007874011
31
0
0
ARC
5
12B
100
AcDbEntity
8
PERIMETER
100
AcDbCircle
10
-11.062992125984252
20
13.425196850393691
30
0
40
0.078740157480318873
210
0
220
0
230
1
100
AcDbArc
50
90.000000000001307
51
180
0
LINE
5
12C
100
AcDbEntity
8
PERIMETER
100
AcDbLine
10
-11.14173228346457
20
13.425196850393695
30
0
11
-11.141732283464568
21
12.440944881889761
31
0
0
ARC
5
12D
100
AcDbEntity
8
PERIMETER
100
AcDbCircle
10
-11.220472440944883
20
12.440944881889761
30
0
40
0.078740157480314668
210
-0
220
0
230
1
100
AcDbArc
50
-90
51
0
0
LINE
5
12E
100
AcDbEntity
8
PERIMETER
100
AcDbLine
10
-11.220472440944883
20
12.362204724409446
30
0
11
-12.519685039370081
21
12.36220472440945
31
0
0
ARC
5
12F
100
AcDbEntity
8
PERIMETER
100
AcDbCircle
10
-12.519685039370081
20
12.283464566929133
30
0
40
0.078740157480317471
210
0
220
0
230
1
100
AcDbArc
50
90
51
180
0
LINE
5
130
100
AcDbEntity
8
PERIMETER
100
AcDbLine
10
-12.598425196850398
20
12.283464566929135
30
0
11
-12.598425196850393
21
10.984251968503926
31
0
0
ARC
5
131
100
AcDbEntity
8
PERIMETER
100
AcDbCircle
10
-12.677165354330709
20
10.984251968503926
30
0
40
0.078740157480314668
210
-0
220
0
230
1
100
AcDbArc
50
-90
51
0
0
LINE
5
132
100
AcDbEntity
8
PERIMETER
100
AcDbLine
10
-12.677165354330709
20
10.905511811023613
30
0
11
-13.661417322834643
21
10.905511811023612
31
0
0
ARC
5
133
100
AcDbEntity
8
PERIMETER
100
AcDbCircle
10
-13.661417322834646
20
10.826771653543299
30
0
40
0.07874015748031328
210
0
220
-0
230
1
100
AcDbArc
50
89.999999999997414
51
180
0
LINE
5
134
100
AcDbEntity
8
PERIMETER
100
AcDbLine
10
-13.740157480314959
20
10.826771653543299
30
0
11
-13.740157480314965
21
-10.196850393700792
31
0
0
ARC
5
135
100
AcDbEntity
8
PERIMETER
100
AcDbCircle
10
-13.661417322834652
20
-10.196850393700792
30
0
40
0.07874015748031328
210
0
220
0
230
1
100
AcDbArc
50
180
51
270.00000000000261
0
LINE
5
136
100
AcDbEntity
8
PERIMETER
100
AcDbLine
10
-13.661417322834648
20
-10.275590551181105
30
0
11
-10.826771653543311
21
-10.275590551181102
31
0
0
LINE
5
137
100
AcDbEntity
8
PERIMETER
100
AcDbLine
10
-10.826771653543311
20
-10.275590551181102
30
0
11
-10.511811023622053
21
-10.590551181102363
31
0
0
LINE
5
138
100
AcDbEntity
8
PERIMETER
100
AcDbLine
10
-10.511811023622053
20
-10.590551181102363
30
0
11
-10.511811023622053
21
-13.425196850393698
31
0
0
ENDSEC
0
SECTION
2
OBJECTS
0
DICTIONARY
5
C
100
AcDbDictionary
3
ACAD_GROUP
350
D
3
ACAD_MLINESTYLE
350
17
0
DICTIONARY
5
D
100
AcDbDictionary
0
DICTIONARY
5
1A
330
C
100
AcDbDictionary
0
DICTIONARY
5
17
100
AcDbDictionary
0
ENDSEC
0
EOF
