0
SECTION
2
HEADER
9
$INSUNITS
70
1
9
$ACADVER
1
AC1014
9
$HANDSEED
5
FFFF
0
ENDSEC
0
SECTION
2
TABLES
0
TABLE
2
VPORT
5
8
100
AcDbSymbolTable
0
ENDTAB
0
TABLE
2
LTYPE
5
5
100
AcDbSymbolTable
70
2
0
LTYPE
5
14
100
AcDbSymbolTableRecord
100
AcDbLinetypeTableRecord
2
BYBLOCK
70
0
0
LTYPE
5
15
100
AcDbSymbolTableRecord
100
AcDbLinetypeTableRecord
2
BYLAYER
70
0
0
ENDTAB
0
TABLE
2
LAYER
5
2
100
AcDbSymbolTable
70
3
0
LAYER
5
50
100
AcDbSymbolTableRecord
100
AcDbLayerTableRecord
2
0
70
0
6
CONTINUOUS
0
LAYER
5
51
100
AcDbSymbolTableRecord
100
AcDbLayerTableRecord
2
CUTOUTS
70
0
62
1
6
CONTINUOUS
0
LAYER
5
52
100
AcDbSymbolTableRecord
100
AcDbLayerTableRecord
2
PERIMETER
70
0
62
5
6
CONTINUOUS
0
ENDTAB
0
TABLE
2
STYLE
5
3
100
AcDbSymbolTable
70
1
0
STYLE
5
11
100
AcDbSymbolTableRecord
100
AcDbTextStyleTableRecord
2
STANDARD
70
0
0
ENDTAB
0
TABLE
2
VIEW
5
6
100
AcDbSymbolTable
0
ENDTAB
0
TABLE
2
UCS
5
7
100
AcDbSymbolTable
0
ENDTAB
0
TABLE
2
APPID
5
9
100
AcDbSymbolTable
70
1
0
APPID
5
12
100
AcDbSymbolTableRecord
100
AcDbRegAppTableRecord
2
ACAD
70
0
0
ENDTAB
0
TABLE
2
DIMSTYLE
5
A
100
AcDbSymbolTable
0
ENDTAB
0
TABLE
2
BLOCK_RECORD
5
1
100
AcDbSymbolTable
70
2
0
BLOCK_RECORD
5
1F
100
AcDbSymbolTableRecord
100
AcDbBlockTableRecord
2
*MODEL_SPACE
0
BLOCK_RECORD
5
1B
100
AcDbSymbolTableRecord
100
AcDbBlockTableRecord
2
*PAPER_SPACE
0
ENDTAB
0
ENDSEC
0
SECTION
2
BLOCKS
0
BLOCK
5
20
100
AcDbEntity
100
AcDbBlockBegin
2
*MODEL_SPACE
0
ENDBLK
5
21
100
AcDbEntity
100
AcDbBlockEnd
0
BLOCK
5
1C
100
AcDbEntity
100
AcDbBlockBegin
2
*PAPER_SPACE
0
ENDBLK
5
1D
100
AcDbEntity
100
AcDbBlockEnd
0
ENDSEC
0
SECTION
2
ENTITIES
0
CIRCLE
5
100
100
AcDbEntity
8
CUTOUTS
100
AcDbCircle
10
2.5655738439429048e-15
20
-8.8582677165354298
30
0
40
0.13779527559055119
210
0
220
0
230
1
0
CIRCLE
5
101
100
AcDbEntity
8
CUTOUTS
100
AcDbCircle
10
2.5655738439429048e-15
20
-10.826771653543304
30
0
40
0.13779527559055119
210
0
220
0
230
1
0
CIRCLE
5
102
100
AcDbEntity
8
CUTOUTS
100
AcDbCircle
10
2.5655738439429048e-15
20
-4.9212598425196816
30
0
40
0.13779527559055119
210
0
220
0
230
1
0
CIRCLE
5
103
100
AcDbEntity
8
CUTOUTS
100
AcDbCircle
10
2.5655738439429048e-15
20
-6.8897637795275557
30
0
40
0.13779527559055119
210
0
220
0
230
1
0
CIRCLE
5
104
100
AcDbEntity
8
CUTOUTS
100
AcDbCircle
10
2.5655738439429048e-15
20
-0.98425196850393415
30
0
40
0.13779527559055119
210
0
220
0
230
1
0
CIRCLE
5
105
100
AcDbEntity
8
CUTOUTS
100
AcDbCircle
10
2.5655738439429048e-15
20
-2.952755905511808
30
0
40
0.13779527559055119
210
0
220
0
230
1
0
CIRCLE
5
106
100
AcDbEntity
8
CUTOUTS
100
AcDbCircle
10
2.5655738439429048e-15
20
2.9527559055118138
30
0
40
0.13779527559055119
210
0
220
0
230
1
0
CIRCLE
5
107
100
AcDbEntity
8
CUTOUTS
100
AcDbCircle
10
2.5655738439429048e-15
20
0.9842519685039397
30
0
40
0.13779527559055119
210
0
220
0
230
1
0
CIRCLE
5
108
100
AcDbEntity
8
CUTOUTS
100
AcDbCircle
10
2.5655738439429048e-15
20
6.889763779527561
30
0
40
0.13779527559055119
210
0
220
0
230
1
0
CIRCLE
5
109
100
AcDbEntity
8
CUTOUTS
100
AcDbCircle
10
2.5655738439429048e-15
20
4.9212598425196878
30
0
40
0.13779527559055119
210
0
220
0
230
1
0
CIRCLE
5
10A
100
AcDbEntity
8
CUTOUTS
100
AcDbCircle
10
2.5655738439429048e-15
20
10.826771653543309
30
0
40
0.13779527559055119
210
0
220
0
230
1
0
CIRCLE
5
10B
100
AcDbEntity
8
CUTOUTS
100
AcDbCircle
10
2.5655738439429048e-15
20
8.8582677165354351
30
0
40
0.13779527559055119
210
0
220
0
230
1
0
CIRCLE
5
10C
100
AcDbEntity
8
CUTOUTS
100
AcDbCircle
10
-1.3779527559055116
20
-1.1023622047244039
30
0
40
0.31496062992125973
210
0
220
0
230
1
0
CIRCLE
5
10D
100
AcDbEntity
8
CUTOUTS
100
AcDbCircle
10
13.188976377952782
20
-6.1220472440945732
30
0
40
0.13779527559055174
210
0
220
0
230
1
0
CIRCLE
5
10E
100
AcDbEntity
8
CUTOUTS
100
AcDbCircle
10
12.007874015748007
20
-12.795275590551267
30
0
40
0.13779527559055174
210
0
220
0
230
1
0
CIRCLE
5
10F
100
AcDbEntity
8
CUTOUTS
100
AcDbCircle
10
1.0236220472440711
20
-12.795275590551261
30
0
40
0.13779527559055121
210
0
220
0
230
1
0
CIRCLE
5
110
100
AcDbEntity
8
CUTOUTS
100
AcDbCircle
10
-6.5157480314960443
20
-12.795275590551261
30
0
40
0.13779527559055174
210
0
220
0
230
1
0
CIRCLE
5
111
100
AcDbEntity
8
CUTOUTS
100
AcDbCircle
10
-13.188976377952741
20
-11.614173228346539
30
0
40
0.13779527559055174
210
0
220
0
230
1
0
CIRCLE
5
112
100
AcDbEntity
8
CUTOUTS
100
AcDbCircle
10
-13.188976377952836
20
-0.62992125984260117
30
0
40
0.13779527559055174
210
0
220
0
230
1
0
CIRCLE
5
113
100
AcDbEntity
8
CUTOUTS
100
AcDbCircle
10
13.188976377952795
20
6.1220472440944835
30
0
40
0.13779527559055174
210
0
220
0
230
1
0
CIRCLE
5
114
100
AcDbEntity
8
CUTOUTS
100
AcDbCircle
10
-13.188976377952836
20
0.62992125984252156
30
0
40
0.13779527559055174
210
0
220
0
230
1
0
CIRCLE
5
115
100
AcDbEntity
8
CUTOUTS
100
AcDbCircle
10
-13.188976377952741
20
11.614173228346457
30
0
40
0.13779527559055174
210
0
220
0
230
1
0
CIRCLE
5
116
100
AcDbEntity
8
CUTOUTS
100
AcDbCircle
10
1.0236220472440858
20
12.795275590551345
30
0
40
0.13779527559055121
210
0
220
0
230
1
0
CIRCLE
5
117
100
AcDbEntity
8
CUTOUTS
100
AcDbCircle
10
-8.2677165354330562
20
12.795275590551178
30
0
40
0.13779527559055174
210
0
220
0
230
1
0
CIRCLE
5
118
100
AcDbEntity
8
CUTOUTS
100
AcDbCircle
10
-1.02362204724408
20
12.795275590551345
30
0
40
0.13779527559055121
210
0
220
0
230
1
0
CIRCLE
5
119
100
AcDbEntity
8
CUTOUTS
100
AcDbCircle
10
8.2677165354330615
20
12.795275590551171
30
0
40
0.13779527559055174
210
0
220
0
230
1
0
CIRCLE
5
11A
100
AcDbEntity
8
CUTOUTS
100
AcDbCircle
10
-13.188976377952788
20
6.1220472440944897
30
0
40
0.13779527559055174
210
0
220
0
230
1
0
CIRCLE
5
11B
100
AcDbEntity
8
CUTOUTS
100
AcDbCircle
10
13.188976377952747
20
11.614173228346452
30
0
40
0.13779527559055174
210
0
220
0
230
1
0
CIRCLE
5
11C
100
AcDbEntity
8
CUTOUTS
100
AcDbCircle
10
13.188976377952836
20
0.62992125984251546
30
0
40
0.13779527559055174
210
0
220
0
230
1
0
CIRCLE
5
11D
100
AcDbEntity
8
CUTOUTS
100
AcDbCircle
10
-13.188976377952788
20
-6.1220472440945679
30
0
40
0.13779527559055174
210
0
220
0
230
1
0
CIRCLE
5
11E
100
AcDbEntity
8
CUTOUTS
100
AcDbCircle
10
-12.007874015748012
20
-12.795275590551261
30
0
40
0.13779527559055174
210
0
220
0
230
1
0
CIRCLE
5
11F
100
AcDbEntity
8
CUTOUTS
100
AcDbCircle
10
-1.0236220472440776
20
-12.795275590551261
30
0
40
0.13779527559055121
210
0
220
0
230
1
0
CIRCLE
5
120
100
AcDbEntity
8
CUTOUTS
100
AcDbCircle
10
6.515748031496039
20
-12.795275590551267
30
0
40
0.13779527559055174
210
0
220
0
230
1
0
CIRCLE
5
121
100
AcDbEntity
8
CUTOUTS
100
AcDbCircle
10
13.188976377952747
20
-11.614173228346527
30
0
40
0.13779527559055174
210
0
220
0
230
1
0
CIRCLE
5
122
100
AcDbEntity
8
CUTOUTS
100
AcDbCircle
10
13.188976377952836
20
-0.62992125984259117
30
0
40
0.13779527559055174
210
0
220
0
230
1
0
ARC
5
123
100
AcDbEntity
8
CUTOUTS
100
AcDbCircle
10
-12.545275590551169
20
12.244094488188983
30
0
40
0.07874015748031607
210
0
220
0
230
1
100
AcDbArc
50
180
51
270
0
LINE
5
124
100
AcDbEntity
8
CUTOUTS
100
AcDbLine
10
-11.942913385826758
20
12.165354330708666
30
0
11
-12.545275590551169
21
12.165354330708666
31
0
0
ARC
5
125
100
AcDbEntity
8
CUTOUTS
100
AcDbCircle
10
-11.942913385826758
20
12.244094488188981
30
0
40
0.078740157480314668
210
-0
220
0
230
1
100
AcDbArc
50
-90
51
0
0
LINE
5
126
100
AcDbEntity
8
CUTOUTS
100
AcDbLine
10
-11.864173228346443
20
12.677165354330715
30
0
11
-11.864173228346443
21
12.244094488188981
31
0
0
ARC
5
127
100
AcDbEntity
8
CUTOUTS
100
AcDbCircle
10
-11.942913385826756
20
12.677165354330715
30
0
40
0.078740157480314668
210
0
220
-0
230
1
100
AcDbArc
50
0
51
90
0
LINE
5
128
100
AcDbEntity
8
CUTOUTS
100
AcDbLine
10
-12.545275590551169
20
12.755905511811031
30
0
11
-11.942913385826756
21
12.755905511811031
31
0
0
ARC
5
129
100
AcDbEntity
8
CUTOUTS
100
AcDbCircle
10
-12.545275590551169
20
12.677165354330715
30
0
40
0.07874015748031607
210
0
220
-0
230
1
100
AcDbArc
50
90
51
180
0
LINE
5
12A
100
AcDbEntity
8
CUTOUTS
100
AcDbLine
10
-12.624015748031486
20
12.244094488188983
30
0
11
-12.624015748031482
21
12.677165354330715
31
0
0
ARC
5
12B
100
AcDbEntity
8
CUTOUTS
100
AcDbCircle
10
11.942913385826763
20
12.677165354330709
30
0
40
0.07874015748031607
210
0
220
-0
230
1
100
AcDbArc
50
90
51
180
0
LINE
5
12C
100
AcDbEntity
8
CUTOUTS
100
AcDbLine
10
11.864173228346448
20
12.244094488188976
30
0
11
11.864173228346448
21
12.677165354330709
31
0
0
ARC
5
12D
100
AcDbEntity
8
CUTOUTS
100
AcDbCircle
10
11.942913385826763
20
12.244094488188976
30
0
40
0.078740157480314668
210
0
220
0
230
1
100
AcDbArc
50
180
51
270
0
LINE
5
12E
100
AcDbEntity
8
CUTOUTS
100
AcDbLine
10
12.545275590551174
20
12.165354330708663
30
0
11
11.942913385826763
21
12.165354330708661
31
0
0
ARC
5
12F
100
AcDbEntity
8
CUTOUTS
100
AcDbCircle
10
12.545275590551174
20
12.244094488188978
30
0
40
0.078740157480314668
210
-0
220
0
230
1
100
AcDbArc
50
-90
51
0
0
LINE
5
130
100
AcDbEntity
8
CUTOUTS
100
AcDbLine
10
12.624015748031491
20
12.677165354330709
30
0
11
12.624015748031489
21
12.244094488188978
31
0
0
ARC
5
131
100
AcDbEntity
8
CUTOUTS
100
AcDbCircle
10
12.545275590551174
20
12.677165354330709
30
0
40
0.07874015748031607
210
0
220
-0
230
1
100
AcDbArc
50
0
51
90
0
LINE
5
132
100
AcDbEntity
8
CUTOUTS
100
AcDbLine
10
11.942913385826763
20
12.755905511811024
30
0
11
12.545275590551174
21
12.755905511811024
31
0
0
ARC
5
133
100
AcDbEntity
8
PERIMETER
100
AcDbCircle
10
12.480314960629919
20
-13.267716535433056
30
0
40
0.07874015748031328
210
-0
220
0
230
1
100
AcDbArc
50
-89.999999999998735
51
0
0
LINE
5
134
100
AcDbEntity
8
PERIMETER
100
AcDbLine
10
12.559055118110232
20
-13.267716535433054
30
0
11
12.559055118110235
21
-12.244094488188979
31
0
0
ARC
5
135
100
AcDbEntity
8
PERIMETER
100
AcDbCircle
10
12.63779527559055
20
-12.244094488188979
30
0
40
0.078740157480314668
210
0
220
-0
230
1
100
AcDbArc
50
90
51
180
0
LINE
5
136
100
AcDbEntity
8
PERIMETER
100
AcDbLine
10
12.63779527559055
20
-12.165354330708665
30
0
11
13.661417322834634
21
-12.165354330708663
31
0
0
ARC
5
137
100
AcDbEntity
8
PERIMETER
100
AcDbCircle
10
13.661417322834637
20
-12.086614173228346
30
0
40
0.07874015748031607
210
0
220
0
230
1
100
AcDbArc
50
-90.000000000002586
51
0
0
LINE
5
138
100
AcDbEntity
8
PERIMETER
100
AcDbLine
10
13.740157480314954
20
-12.086614173228346
30
0
11
13.74015748031495
21
13.267716535433076
31
0
0
ARC
5
139
100
AcDbEntity
8
PERIMETER
100
AcDbCircle
10
13.661417322834634
20
13.267716535433076
30
0
40
0.07874015748031607
210
0
220
-0
230
1
100
AcDbArc
50
0
51
90
0
LINE
5
13A
100
AcDbEntity
8
PERIMETER
100
AcDbLine
10
13.661417322834634
20
13.346456692913392
30
0
11
-13.661417322834629
21
13.346456692913392
31
0
0
ARC
5
13B
100
AcDbEntity
8
PERIMETER
100
AcDbCircle
10
-13.661417322834629
20
13.267716535433076
30
0
40
0.07874015748031607
210
0
220
-0
230
1
100
AcDbArc
50
90
51
180
0
LINE
5
13C
100
AcDbEntity
8
PERIMETER
100
AcDbLine
10
-13.740157480314945
20
13.267716535433076
30
0
11
-13.74015748031495
21
-12.086614173228336
31
0
0
ARC
5
13D
100
AcDbEntity
8
PERIMETER
100
AcDbCircle
10
-13.661417322834637
20
-12.086614173228336
30
0
40
0.07874015748031328
210
0
220
0
230
1
100
AcDbArc
50
180
51
270.00000000000261
0
LINE
5
13E
100
AcDbEntity
8
PERIMETER
100
AcDbLine
10
-13.661417322834634
20
-12.165354330708649
30
0
11
-12.637795275590559
21
-12.165354330708652
31
0
0
ARC
5
13F
100
AcDbEntity
8
PERIMETER
100
AcDbCircle
10
-12.637795275590559
20
-12.244094488188965
30
0
40
0.078740157480314668
210
0
220
-0
230
1
100
AcDbArc
50
0
51
90
0
LINE
5
140
100
AcDbEntity
8
PERIMETER
100
AcDbLine
10
-12.559055118110244
20
-12.244094488188965
30
0
11
-12.559055118110242
21
-13.267716535433065
31
0
0
ARC
5
141
100
AcDbEntity
8
PERIMETER
100
AcDbCircle
10
-12.480314960629928
20
-13.267716535433065
30
0
40
0.07874015748031607
210
0
220
0
230
1
100
AcDbArc
50
180
51
270
0
LINE
5
142
100
AcDbEntity
8
PERIMETER
100
AcDbLine
10
-12.480314960629928
20
-13.346456692913382
30
0
11
12.48031496062992
21
-13.346456692913371
31
0
0
ENDSEC
0
SECTION
2
OBJECTS
0
DICTIONARY
5
C
100
AcDbDictionary
3
ACAD_GROUP
350
D
3
ACAD_MLINESTYLE
350
17
0
DICTIONARY
5
D
100
AcDbDictionary
0
DICTIONARY
5
1A
330
C
100
AcDbDictionary
0
DICTIONARY
5
17
100
AcDbDictionary
0
ENDSEC
0
EOF
