0
SECTION
2
HEADER
9
$INSUNITS
70
1
9
$ACADVER
1
AC1014
9
$HANDSEED
5
FFFF
0
ENDSEC
0
SECTION
2
TABLES
0
TABLE
2
VPORT
5
8
100
AcDbSymbolTable
0
ENDTAB
0
TABLE
2
LTYPE
5
5
100
AcDbSymbolTable
70
2
0
LTYPE
5
14
100
AcDbSymbolTableRecord
100
AcDbLinetypeTableRecord
2
BYBLOCK
70
0
0
LTYPE
5
15
100
AcDbSymbolTableRecord
100
AcDbLinetypeTableRecord
2
BYLAYER
70
0
0
ENDTAB
0
TABLE
2
LAYER
5
2
100
AcDbSymbolTable
70
3
0
LAYER
5
50
100
AcDbSymbolTableRecord
100
AcDbLayerTableRecord
2
0
70
0
6
CONTINUOUS
0
LAYER
5
51
100
AcDbSymbolTableRecord
100
AcDbLayerTableRecord
2
CUTOUTS
70
0
62
1
6
CONTINUOUS
0
LAYER
5
52
100
AcDbSymbolTableRecord
100
AcDbLayerTableRecord
2
PERIMETER
70
0
62
5
6
CONTINUOUS
0
ENDTAB
0
TABLE
2
STYLE
5
3
100
AcDbSymbolTable
70
1
0
STYLE
5
11
100
AcDbSymbolTableRecord
100
AcDbTextStyleTableRecord
2
STANDARD
70
0
0
ENDTAB
0
TABLE
2
VIEW
5
6
100
AcDbSymbolTable
0
ENDTAB
0
TABLE
2
UCS
5
7
100
AcDbSymbolTable
0
ENDTAB
0
TABLE
2
APPID
5
9
100
AcDbSymbolTable
70
1
0
APPID
5
12
100
AcDbSymbolTableRecord
100
AcDbRegAppTableRecord
2
ACAD
70
0
0
ENDTAB
0
TABLE
2
DIMSTYLE
5
A
100
AcDbSymbolTable
0
ENDTAB
0
TABLE
2
BLOCK_RECORD
5
1
100
AcDbSymbolTable
70
2
0
BLOCK_RECORD
5
1F
100
AcDbSymbolTableRecord
100
AcDbBlockTableRecord
2
*MODEL_SPACE
0
BLOCK_RECORD
5
1B
100
AcDbSymbolTableRecord
100
AcDbBlockTableRecord
2
*PAPER_SPACE
0
ENDTAB
0
ENDSEC
0
SECTION
2
BLOCKS
0
BLOCK
5
20
100
AcDbEntity
100
AcDbBlockBegin
2
*MODEL_SPACE
0
ENDBLK
5
21
100
AcDbEntity
100
AcDbBlockEnd
0
BLOCK
5
1C
100
AcDbEntity
100
AcDbBlockBegin
2
*PAPER_SPACE
0
ENDBLK
5
1D
100
AcDbEntity
100
AcDbBlockEnd
0
ENDSEC
0
SECTION
2
ENTITIES
0
CIRCLE
5
100
100
AcDbEntity
8
CUTOUTS
100
AcDbCircle
10
13.188976377952756
20
0.31496062992124846
30
0
40
0.12992125984251901
210
0
220
0
230
1
0
CIRCLE
5
101
100
AcDbEntity
8
CUTOUTS
100
AcDbCircle
10
9.9606299212598373
20
-12.952755905511815
30
0
40
0.12992125984251901
210
0
220
0
230
1
0
CIRCLE
5
102
100
AcDbEntity
8
CUTOUTS
100
AcDbCircle
10
-1.2795275590551196
20
-12.952755905511809
30
0
40
0.1299212598425197
210
0
220
0
230
1
0
CIRCLE
5
103
100
AcDbEntity
8
CUTOUTS
100
AcDbCircle
10
-13.188976377952748
20
-9.7244094488188981
30
0
40
0.12992125984251901
210
0
220
0
230
1
0
CIRCLE
5
104
100
AcDbEntity
8
CUTOUTS
100
AcDbCircle
10
-13.188976377952748
20
10.354330708661413
30
0
40
0.12992125984251901
210
0
220
0
230
1
0
CIRCLE
5
105
100
AcDbEntity
8
CUTOUTS
100
AcDbCircle
10
2.5984251968503989
20
12.9527559055118
30
0
40
0.1299212598425197
210
0
220
0
230
1
0
CIRCLE
5
106
100
AcDbEntity
8
CUTOUTS
100
AcDbCircle
10
-10.590551181102356
20
12.952755905511813
30
0
40
0.12992125984251901
210
0
220
0
230
1
0
CIRCLE
5
107
100
AcDbEntity
8
CUTOUTS
100
AcDbCircle
10
-2.0866141732283405
20
12.952755905511809
30
0
40
0.1299212598425197
210
0
220
0
230
1
0
CIRCLE
5
108
100
AcDbEntity
8
CUTOUTS
100
AcDbCircle
10
10.590551181102368
20
12.9527559055118
30
0
40
0.12992125984251901
210
0
220
0
230
1
0
CIRCLE
5
109
100
AcDbEntity
8
CUTOUTS
100
AcDbCircle
10
-13.188976377952748
20
0.3149606299212559
30
0
40
0.12992125984251901
210
0
220
0
230
1
0
CIRCLE
5
10A
100
AcDbEntity
8
CUTOUTS
100
AcDbCircle
10
-9.9606299212598408
20
-12.952755905511809
30
0
40
0.12992125984251901
210
0
220
0
230
1
0
CIRCLE
5
10B
100
AcDbEntity
8
CUTOUTS
100
AcDbCircle
10
1.2795275590551172
20
-12.952755905511809
30
0
40
0.1299212598425197
210
0
220
0
230
1
0
CIRCLE
5
10C
100
AcDbEntity
8
CUTOUTS
100
AcDbCircle
10
13.188976377952748
20
-9.724409448818907
30
0
40
0.12992125984251901
210
0
220
0
230
1
0
CIRCLE
5
10D
100
AcDbEntity
8
CUTOUTS
100
AcDbCircle
10
13.188976377952761
20
10.354330708661404
30
0
40
0.12992125984251901
210
0
220
0
230
1
0
LINE
5
10E
100
AcDbEntity
8
PERIMETER
100
AcDbLine
10
11.062992125397601
20
13.503937007287343
30
0
11
2.1259842525551722
21
13.503937007287352
31
0
0
ARC
5
10F
100
AcDbEntity
8
PERIMETER
100
AcDbCircle
10
2.1259842525551753
20
13.425196849807033
30
0
40
0.078740157480318873
210
0
220
0
230
1
100
AcDbArc
50
90.00000000000226
51
180
0
LINE
5
110
100
AcDbEntity
8
PERIMETER
100
AcDbLine
10
2.0472440950748565
20
13.425196849807035
30
0
11
2.0472440950748569
21
12.440944881303098
31
0
0
ARC
5
111
100
AcDbEntity
8
PERIMETER
100
AcDbCircle
10
1.9685039375945419
20
12.440944881303098
30
0
40
0.078740157480314668
210
-0
220
0
230
1
100
AcDbArc
50
-90
51
0
0
LINE
5
112
100
AcDbEntity
8
PERIMETER
100
AcDbLine
10
1.9685039375945419
20
12.362204723822783
30
0
11
1.6141732289331252
21
12.362204723822783
31
0
0
ARC
5
113
100
AcDbEntity
8
PERIMETER
100
AcDbCircle
10
1.6141732289331248
20
12.283464566342468
30
0
40
0.078740157480314668
210
0
220
-0
230
1
100
AcDbArc
50
89.999999999999673
51
180
0
LINE
5
114
100
AcDbEntity
8
PERIMETER
100
AcDbLine
10
1.5354330714528102
20
12.283464566342468
30
0
11
1.5354330714528097
21
10.150725476765544
31
0
0
ARC
5
115
100
AcDbEntity
8
PERIMETER
100
AcDbCircle
10
1.4566929139724945
20
10.150725476765544
30
0
40
0.078740157480314793
210
-0
220
0
230
1
100
AcDbArc
50
-44.99999999999919
51
0
0
LINE
5
116
100
AcDbEntity
8
PERIMETER
100
AcDbLine
10
1.5123706132785217
20
10.095047777459518
30
0
11
1.2829049784459945
21
9.8655821426269927
31
0
0
ARC
5
117
100
AcDbEntity
8
PERIMETER
100
AcDbCircle
10
1.2272272791399665
20
9.9212598419330202
30
0
40
0.078740157480314668
210
-0
220
0
230
1
100
AcDbArc
50
270
51
315
0
LINE
5
118
100
AcDbEntity
8
PERIMETER
100
AcDbLine
10
1.2272272791399665
20
9.8425196844527054
30
0
11
-1.2272272791399497
21
9.8425196844527036
31
0
0
ARC
5
119
100
AcDbEntity
8
PERIMETER
100
AcDbCircle
10
-1.2272272791399499
20
9.9212598419330185
30
0
40
0.078740157480314932
210
0
220
0
230
1
100
AcDbArc
50
225
51
270.00000000000017
0
LINE
5
11A
100
AcDbEntity
8
PERIMETER
100
AcDbLine
10
-1.2829049784459774
20
9.865582142626991
30
0
11
-1.5123706132785053
21
10.095047777459518
31
0
0
ARC
5
11B
100
AcDbEntity
8
PERIMETER
100
AcDbCircle
10
-1.456692913972478
20
10.150725476765546
30
0
40
0.078740157480315029
210
0
220
0
230
1
100
AcDbArc
50
180
51
225
0
LINE
5
11C
100
AcDbEntity
8
PERIMETER
100
AcDbLine
10
-1.5354330714527931
20
10.150725476765546
30
0
11
-1.5354330714527933
21
13.425196849807035
31
0
0
ARC
5
11D
100
AcDbEntity
8
PERIMETER
100
AcDbCircle
10
-1.6141732289331108
20
13.425196849807033
30
0
40
0.078740157480317471
210
0
220
-0
230
1
100
AcDbArc
50
0
51
89.999999999998067
0
LINE
5
11E
100
AcDbEntity
8
PERIMETER
100
AcDbLine
10
-1.6141732289331081
20
13.503937007287348
30
0
11
-11.062992125397582
21
13.503937007287352
31
0
0
ARC
5
11F
100
AcDbEntity
8
PERIMETER
100
AcDbCircle
10
-11.062992125397578
20
13.425196849807033
30
0
40
0.078740157480318873
210
0
220
0
230
1
100
AcDbArc
50
90.000000000002586
51
180
0
LINE
5
120
100
AcDbEntity
8
PERIMETER
100
AcDbLine
10
-11.141732282877896
20
13.425196849807035
30
0
11
-11.141732282877896
21
12.440944881303098
31
0
0
ARC
5
121
100
AcDbEntity
8
PERIMETER
100
AcDbCircle
10
-11.220472440358211
20
12.440944881303098
30
0
40
0.078740157480314668
210
-0
220
0
230
1
100
AcDbArc
50
-90
51
0
0
LINE
5
122
100
AcDbEntity
8
PERIMETER
100
AcDbLine
10
-11.220472440358211
20
12.362204723822783
30
0
11
-12.519685038783409
21
12.362204723822783
31
0
0
ARC
5
123
100
AcDbEntity
8
PERIMETER
100
AcDbCircle
10
-12.519685038783411
20
12.28346456634247
30
0
40
0.07874015748031328
210
0
220
-0
230
1
100
AcDbArc
50
89.999999999998721
51
180
0
LINE
5
124
100
AcDbEntity
8
PERIMETER
100
AcDbLine
10
-12.598425196263724
20
12.283464566342468
30
0
11
-12.598425196263724
21
10.984251967917269
31
0
0
ARC
5
125
100
AcDbEntity
8
PERIMETER
100
AcDbCircle
10
-12.677165353744041
20
10.984251967917269
30
0
40
0.078740157480314668
210
-0
220
0
230
1
100
AcDbArc
50
-90
51
0
0
LINE
5
126
100
AcDbEntity
8
PERIMETER
100
AcDbLine
10
-12.677165353744041
20
10.905511810436954
30
0
11
-13.661417322247976
21
10.905511810436954
31
0
0
ARC
5
127
100
AcDbEntity
8
PERIMETER
100
AcDbCircle
10
-13.661417322247978
20
10.826771652956639
30
0
40
0.078740157480314668
210
0
220
-0
230
1
100
AcDbArc
50
89.999999999998721
51
180
0
LINE
5
128
100
AcDbEntity
8
PERIMETER
100
AcDbLine
10
-13.740157479728291
20
10.826771652956639
30
0
11
-13.740157479728296
21
-10.196850393114133
31
0
0
ARC
5
129
100
AcDbEntity
8
PERIMETER
100
AcDbCircle
10
-13.661417322247981
20
-10.196850393114129
30
0
40
0.07874015748031607
210
0
220
0
230
1
100
AcDbArc
50
180
51
270
0
LINE
5
12A
100
AcDbEntity
8
PERIMETER
100
AcDbLine
10
-13.661417322247981
20
-10.275590550594446
30
0
11
-10.859386894088381
21
-10.275590550594448
31
0
0
ARC
5
12B
100
AcDbEntity
8
PERIMETER
100
AcDbCircle
10
-10.859386894088381
20
-10.354330708074762
30
0
40
0.078740157480314793
210
0
220
-0
230
1
100
AcDbArc
50
45
51
90
0
LINE
5
12C
100
AcDbEntity
8
PERIMETER
100
AcDbLine
10
-10.803709194782353
20
-10.298653008768735
30
0
11
-10.53487348120967
21
-10.567488722341423
31
0
0
ARC
5
12D
100
AcDbEntity
8
PERIMETER
100
AcDbCircle
10
-10.590551180515698
20
-10.623166421647449
30
0
40
0.078740157480314668
210
0
220
-0
230
1
100
AcDbArc
50
0
51
45
0
LINE
5
12E
100
AcDbEntity
8
PERIMETER
100
AcDbLine
10
-10.511811023035383
20
-10.623166421647449
30
0
11
-10.511811023035383
21
-13.42519684980704
31
0
0
ARC
5
12F
100
AcDbEntity
8
PERIMETER
100
AcDbCircle
10
-10.433070865555063
20
-13.425196849807039
30
0
40
0.078740157480318873
210
0
220
0
230
1
100
AcDbArc
50
180
51
269.99999999999613
0
LINE
5
130
100
AcDbEntity
8
PERIMETER
100
AcDbLine
10
-10.433070865555068
20
-13.503937007287357
30
0
11
-0.80708661475988652
21
-13.503937007287357
31
0
0
ARC
5
131
100
AcDbEntity
8
PERIMETER
100
AcDbCircle
10
-0.80708661475988941
20
-13.425196849807039
30
0
40
0.078740157480318873
210
-0
220
0
230
1
100
AcDbArc
50
270.0000000000021
51
360
0
LINE
5
132
100
AcDbEntity
8
PERIMETER
100
AcDbLine
10
-0.72834645727957059
20
-13.42519684980704
30
0
11
-0.72834645727957203
21
-12.49999999941334
31
0
0
ARC
5
133
100
AcDbEntity
8
PERIMETER
100
AcDbCircle
10
-0.64960629979925699
20
-12.49999999941334
30
0
40
0.078740157480314668
210
0
220
-0
230
1
100
AcDbArc
50
90
51
180
0
LINE
5
134
100
AcDbEntity
8
PERIMETER
100
AcDbLine
10
-0.64960629979925699
20
-12.421259841933026
30
0
11
0.64960629979925955
21
-12.421259841933026
31
0
0
ARC
5
135
100
AcDbEntity
8
PERIMETER
100
AcDbCircle
10
0.64960629979925955
20
-12.49999999941334
30
0
40
0.078740157480314932
210
0
220
-0
230
1
100
AcDbArc
50
0
51
90
0
LINE
5
136
100
AcDbEntity
8
PERIMETER
100
AcDbLine
10
0.72834645727957448
20
-12.49999999941334
30
0
11
0.72834645727957459
21
-13.42519684980704
31
0
0
ARC
5
137
100
AcDbEntity
8
PERIMETER
100
AcDbCircle
10
0.80708661475989207
20
-13.425196849807039
30
0
40
0.078740157480317471
210
0
220
0
230
1
100
AcDbArc
50
180
51
269.99999999999795
0
LINE
5
138
100
AcDbEntity
8
PERIMETER
100
AcDbLine
10
0.8070866147598893
20
-13.503937007287353
30
0
11
10.433070865555063
21
-13.503937007287357
31
0
0
ARC
5
139
100
AcDbEntity
8
PERIMETER
100
AcDbCircle
10
10.433070865555061
20
-13.425196849807039
30
0
40
0.078740157480318873
210
-0
220
0
230
1
100
AcDbArc
50
270.00000000000125
51
360
0
LINE
5
13A
100
AcDbEntity
8
PERIMETER
100
AcDbLine
10
10.51181102303538
20
-13.42519684980704
30
0
11
10.511811023035381
21
-10.623166421647449
31
0
0
ARC
5
13B
100
AcDbEntity
8
PERIMETER
100
AcDbCircle
10
10.590551180515696
20
-10.623166421647449
30
0
40
0.078740157480314793
210
0
220
0
230
1
100
AcDbArc
50
135
51
180
0
LINE
5
13C
100
AcDbEntity
8
PERIMETER
100
AcDbLine
10
10.534873481209669
20
-10.567488722341421
30
0
11
10.803709194782355
21
-10.298653008768731
31
0
0
ARC
5
13D
100
AcDbEntity
8
PERIMETER
100
AcDbCircle
10
10.859386894088383
20
-10.354330708074759
30
0
40
0.078740157480314668
210
0
220
-0
230
1
100
AcDbArc
50
90
51
135
0
LINE
5
13E
100
AcDbEntity
8
PERIMETER
100
AcDbLine
10
10.859386894088383
20
-10.275590550594444
30
0
11
13.661417322247983
21
-10.275590550594446
31
0
0
ARC
5
13F
100
AcDbEntity
8
PERIMETER
100
AcDbCircle
10
13.661417322247981
20
-10.196850393114127
30
0
40
0.078740157480318873
210
-0
220
0
230
1
100
AcDbArc
50
270.00000000000125
51
360
0
LINE
5
140
100
AcDbEntity
8
PERIMETER
100
AcDbLine
10
13.7401574797283
20
-10.196850393114129
30
0
11
13.740157479728305
21
10.82677165295663
31
0
0
ARC
5
141
100
AcDbEntity
8
PERIMETER
100
AcDbCircle
10
13.661417322247987
20
10.826771652956626
30
0
40
0.078740157480318873
210
0
220
-0
230
1
100
AcDbArc
50
0
51
89.999999999998721
0
LINE
5
142
100
AcDbEntity
8
PERIMETER
100
AcDbLine
10
13.661417322247988
20
10.905511810436947
30
0
11
12.677165353744055
21
10.905511810436947
31
0
0
ARC
5
143
100
AcDbEntity
8
PERIMETER
100
AcDbCircle
10
12.677165353744055
20
10.984251967917261
30
0
40
0.078740157480314668
210
0
220
0
230
1
100
AcDbArc
50
180
51
270
0
LINE
5
144
100
AcDbEntity
8
PERIMETER
100
AcDbLine
10
12.59842519626374
20
10.984251967917261
30
0
11
12.598425196263738
21
12.283464566342461
31
0
0
ARC
5
145
100
AcDbEntity
8
PERIMETER
100
AcDbCircle
10
12.519685038783424
20
12.283464566342461
30
0
40
0.078740157480314668
210
0
220
-0
230
1
100
AcDbArc
50
0
51
90
0
LINE
5
146
100
AcDbEntity
8
PERIMETER
100
AcDbLine
10
12.519685038783424
20
12.362204723822776
30
0
11
11.220472440358231
21
12.362204723822776
31
0
0
ARC
5
147
100
AcDbEntity
8
PERIMETER
100
AcDbCircle
10
11.220472440358231
20
12.440944881303089
30
0
40
0.078740157480314668
210
0
220
0
230
1
100
AcDbArc
50
180
51
270
0
LINE
5
148
100
AcDbEntity
8
PERIMETER
100
AcDbLine
10
11.141732282877916
20
12.440944881303089
30
0
11
11.141732282877916
21
13.42519684980703
31
0
0
ARC
5
149
100
AcDbEntity
8
PERIMETER
100
AcDbCircle
10
11.062992125397598
20
13.425196849807026
30
0
40
0.078740157480317471
210
0
220
-0
230
1
100
AcDbArc
50
0
51
89.999999999997414
0
ENDSEC
0
SECTION
2
OBJECTS
0
DICTIONARY
5
C
100
AcDbDictionary
3
ACAD_GROUP
350
D
3
ACAD_MLINESTYLE
350
17
0
DICTIONARY
5
D
100
AcDbDictionary
0
DICTIONARY
5
1A
330
C
100
AcDbDictionary
0
DICTIONARY
5
17
100
AcDbDictionary
0
ENDSEC
0
EOF
