0
SECTION
2
HEADER
9
$INSUNITS
70
1
9
$ACADVER
1
AC1014
9
$HANDSEED
5
FFFF
0
ENDSEC
0
SECTION
2
TABLES
0
TABLE
2
VPORT
5
8
100
AcDbSymbolTable
0
ENDTAB
0
TABLE
2
LTYPE
5
5
100
AcDbSymbolTable
70
2
0
LTYPE
5
14
100
AcDbSymbolTableRecord
100
AcDbLinetypeTableRecord
2
BYBLOCK
70
0
0
LTYPE
5
15
100
AcDbSymbolTableRecord
100
AcDbLinetypeTableRecord
2
BYLAYER
70
0
0
ENDTAB
0
TABLE
2
LAYER
5
2
100
AcDbSymbolTable
70
3
0
LAYER
5
50
100
AcDbSymbolTableRecord
100
AcDbLayerTableRecord
2
0
70
0
6
CONTINUOUS
0
LAYER
5
51
100
AcDbSymbolTableRecord
100
AcDbLayerTableRecord
2
CUTOUTS
70
0
62
1
6
CONTINUOUS
0
LAYER
5
52
100
AcDbSymbolTableRecord
100
AcDbLayerTableRecord
2
PERIMETER
70
0
62
5
6
CONTINUOUS
0
ENDTAB
0
TABLE
2
STYLE
5
3
100
AcDbSymbolTable
70
1
0
STYLE
5
11
100
AcDbSymbolTableRecord
100
AcDbTextStyleTableRecord
2
STANDARD
70
0
0
ENDTAB
0
TABLE
2
VIEW
5
6
100
AcDbSymbolTable
0
ENDTAB
0
TABLE
2
UCS
5
7
100
AcDbSymbolTable
0
ENDTAB
0
TABLE
2
APPID
5
9
100
AcDbSymbolTable
70
1
0
APPID
5
12
100
AcDbSymbolTableRecord
100
AcDbRegAppTableRecord
2
ACAD
70
0
0
ENDTAB
0
TABLE
2
DIMSTYLE
5
A
100
AcDbSymbolTable
0
ENDTAB
0
TABLE
2
BLOCK_RECORD
5
1
100
AcDbSymbolTable
70
2
0
BLOCK_RECORD
5
1F
100
AcDbSymbolTableRecord
100
AcDbBlockTableRecord
2
*MODEL_SPACE
0
BLOCK_RECORD
5
1B
100
AcDbSymbolTableRecord
100
AcDbBlockTableRecord
2
*PAPER_SPACE
0
ENDTAB
0
ENDSEC
0
SECTION
2
BLOCKS
0
BLOCK
5
20
100
AcDbEntity
100
AcDbBlockBegin
2
*MODEL_SPACE
0
ENDBLK
5
21
100
AcDbEntity
100
AcDbBlockEnd
0
BLOCK
5
1C
100
AcDbEntity
100
AcDbBlockBegin
2
*PAPER_SPACE
0
ENDBLK
5
1D
100
AcDbEntity
100
AcDbBlockEnd
0
ENDSEC
0
SECTION
2
ENTITIES
0
CIRCLE
5
100
100
AcDbEntity
8
CUTOUTS
100
AcDbCircle
10
12.303146383267253
20
-7.3720472440957137
30
0
40
0.12992125984251901
210
0
220
0
230
1
0
CIRCLE
5
101
100
AcDbEntity
8
CUTOUTS
100
AcDbCircle
10
12.303146383267347
20
4.9114173228334197
30
0
40
0.12992125984251901
210
0
220
0
230
1
0
CIRCLE
5
102
100
AcDbEntity
8
CUTOUTS
100
AcDbCircle
10
12.303146383267347
20
3.4547244094475928
30
0
40
0.12992125984251901
210
0
220
0
230
1
0
CIRCLE
5
103
100
AcDbEntity
8
CUTOUTS
100
AcDbCircle
10
12.303146383267347
20
2.8641732283452308
30
0
40
0.12992125984251901
210
0
220
0
230
1
0
CIRCLE
5
104
100
AcDbEntity
8
CUTOUTS
100
AcDbCircle
10
12.303146383267347
20
1.407480314959404
30
0
40
0.12992125984251901
210
0
220
0
230
1
0
CIRCLE
5
105
100
AcDbEntity
8
CUTOUTS
100
AcDbCircle
10
12.303146383267253
20
-7.9625984251980757
30
0
40
0.12992125984251901
210
0
220
0
230
1
0
CIRCLE
5
106
100
AcDbEntity
8
CUTOUTS
100
AcDbCircle
10
-12.303146383267258
20
-7.3720472440957137
30
0
40
0.12992125984251901
210
0
220
0
230
1
0
CIRCLE
5
107
100
AcDbEntity
8
CUTOUTS
100
AcDbCircle
10
-12.303146383267354
20
4.9114173228334197
30
0
40
0.12992125984251901
210
0
220
0
230
1
0
CIRCLE
5
108
100
AcDbEntity
8
CUTOUTS
100
AcDbCircle
10
-12.303146383267354
20
3.4547244094475928
30
0
40
0.12992125984251901
210
0
220
0
230
1
0
CIRCLE
5
109
100
AcDbEntity
8
CUTOUTS
100
AcDbCircle
10
-12.303146383267354
20
2.8641732283452308
30
0
40
0.12992125984251901
210
0
220
0
230
1
0
CIRCLE
5
10A
100
AcDbEntity
8
CUTOUTS
100
AcDbCircle
10
-12.303146383267354
20
1.407480314959404
30
0
40
0.12992125984251901
210
0
220
0
230
1
0
CIRCLE
5
10B
100
AcDbEntity
8
CUTOUTS
100
AcDbCircle
10
-12.303146383267258
20
-7.9625984251980757
30
0
40
0.12992125984251901
210
0
220
0
230
1
0
LINE
5
10C
100
AcDbEntity
8
PERIMETER
100
AcDbLine
10
12.550901307827392
20
5.8596766314013085
30
0
11
10.200227812495489
21
8.2103501267236343
31
0
0
ARC
5
10D
100
AcDbEntity
8
PERIMETER
100
AcDbCircle
10
10.255905511801403
20
8.2660278260297737
30
0
40
0.078740157480314668
210
0
220
0
230
1
100
AcDbArc
50
180
51
225.00000000011607
0
LINE
5
10E
100
AcDbEntity
8
PERIMETER
100
AcDbLine
10
10.177165354321088
20
8.2660278260297737
30
0
11
10.177165354321087
21
9.3602362204712257
31
0
0
ARC
5
10F
100
AcDbEntity
8
PERIMETER
100
AcDbCircle
10
10.09842519684077
20
9.3602362204712257
30
0
40
0.07874015748031607
210
0
220
-0
230
1
100
AcDbArc
50
0
51
90
0
LINE
5
110
100
AcDbEntity
8
PERIMETER
100
AcDbLine
10
10.09842519684077
20
9.4389763779515423
30
0
11
-10.098425196840779
21
9.4389763779515192
31
0
0
ARC
5
111
100
AcDbEntity
8
PERIMETER
100
AcDbCircle
10
-10.098425196840777
20
9.3602362204712044
30
0
40
0.078740157480314668
210
0
220
0
230
1
100
AcDbArc
50
90.000000000001307
51
180
0
LINE
5
112
100
AcDbEntity
8
PERIMETER
100
AcDbLine
10
-10.177165354321092
20
9.3602362204712062
30
0
11
-10.17716535432109
21
8.266027826029763
31
0
0
ARC
5
113
100
AcDbEntity
8
PERIMETER
100
AcDbCircle
10
-10.255905511801405
20
8.266027826029763
30
0
40
0.078740157480314793
210
-0
220
0
230
1
100
AcDbArc
50
-45.000000000116998
51
0
0
LINE
5
114
100
AcDbEntity
8
PERIMETER
100
AcDbLine
10
-10.200227812495491
20
8.2103501267236219
30
0
11
-12.550901307827393
21
5.859676631401296
31
0
0
ARC
5
115
100
AcDbEntity
8
PERIMETER
100
AcDbCircle
10
-12.606579007133307
20
5.9153543307074381
30
0
40
0.078740157480314668
210
-0
220
0
230
1
100
AcDbArc
50
270
51
314.99999999988211
0
LINE
5
116
100
AcDbEntity
8
PERIMETER
100
AcDbLine
10
-12.606579007133307
20
5.8366141732271233
30
0
11
-13.700787387112484
21
5.8366141732271206
31
0
0
ARC
5
117
100
AcDbEntity
8
PERIMETER
100
AcDbCircle
10
-13.700787387112484
20
5.7578740157468076
30
0
40
0.07874015748031328
210
0
220
-0
230
1
100
AcDbArc
50
90
51
180.00000597641554
0
LINE
5
118
100
AcDbEntity
8
PERIMETER
100
AcDbLine
10
-13.779527544592797
20
5.7578740074826191
30
0
11
-13.779526017784637
21
-8.7893700870027054
31
0
0
ARC
5
119
100
AcDbEntity
8
PERIMETER
100
AcDbCircle
10
-13.700785860304324
20
-8.7893700787385214
30
0
40
0.078740157480313711
210
0
220
0
230
1
100
AcDbArc
50
180.00000597641554
51
269.99999999996766
0
LINE
5
11A
100
AcDbEntity
8
PERIMETER
100
AcDbLine
10
-13.700785860304368
20
-8.8681102362188362
30
0
11
-12.696848782184704
21
-8.8681102362192519
31
0
0
ARC
5
11B
100
AcDbEntity
8
PERIMETER
100
AcDbCircle
10
-12.696848782184738
20
-8.9468503936995667
30
0
40
0.07874015748031607
210
0
220
-0
230
1
100
AcDbArc
50
0
51
89.999999999975444
0
LINE
5
11C
100
AcDbEntity
8
PERIMETER
100
AcDbLine
10
-12.618108624704421
20
-8.9468503936995667
30
0
11
-12.618108624704421
21
-9.3602362204712257
31
0
0
ARC
5
11D
100
AcDbEntity
8
PERIMETER
100
AcDbCircle
10
-12.539368467224106
20
-9.3602362204712257
30
0
40
0.078740157480314668
210
0
220
0
230
1
100
AcDbArc
50
180
51
270
0
LINE
5
11E
100
AcDbEntity
8
PERIMETER
100
AcDbLine
10
-12.539368467224106
20
-9.4389763779515405
30
0
11
12.539368467224103
21
-9.4389763779515299
31
0
0
ARC
5
11F
100
AcDbEntity
8
PERIMETER
100
AcDbCircle
10
12.539368467224103
20
-9.3602362204712133
30
0
40
0.078740157480317471
210
-0
220
0
230
1
100
AcDbArc
50
270
51
360
0
LINE
5
120
100
AcDbEntity
8
PERIMETER
100
AcDbLine
10
12.618108624704421
20
-9.3602362204712151
30
0
11
12.618108624704416
21
-8.9468503936995631
31
0
0
ARC
5
121
100
AcDbEntity
8
PERIMETER
100
AcDbCircle
10
12.69684878218473
20
-8.9468503936995631
30
0
40
0.078740157480314668
210
0
220
0
230
1
100
AcDbArc
50
90.000000000023277
51
180
0
LINE
5
122
100
AcDbEntity
8
PERIMETER
100
AcDbLine
10
12.696848782184698
20
-8.8681102362192483
30
0
11
13.700785860304373
21
-8.868110236218838
31
0
0
ARC
5
123
100
AcDbEntity
8
PERIMETER
100
AcDbCircle
10
13.700785860304341
20
-8.7893700787385249
30
0
40
0.07874015748031328
210
-0
220
0
230
1
100
AcDbArc
50
270.00000000002325
51
359.99999402358446
0
LINE
5
124
100
AcDbEntity
8
PERIMETER
100
AcDbLine
10
13.779526017784654
20
-8.7893700870027018
30
0
11
13.779527544592794
21
5.757874007482636
31
0
0
ARC
5
125
100
AcDbEntity
8
PERIMETER
100
AcDbCircle
10
13.700787387112479
20
5.75787401574682
30
0
40
0.078740157480316514
210
-0
220
0
230
1
100
AcDbArc
50
-5.9764155237611571e-06
51
90
0
LINE
5
126
100
AcDbEntity
8
PERIMETER
100
AcDbLine
10
13.700787387112481
20
5.8366141732271375
30
0
11
12.606579007133305
21
5.8366141732271357
31
0
0
ARC
5
127
100
AcDbEntity
8
PERIMETER
100
AcDbCircle
10
12.606579007133305
20
5.9153543307074505
30
0
40
0.078740157480315792
210
0
220
0
230
1
100
AcDbArc
50
225.00000000011747
51
270
0
ENDSEC
0
SECTION
2
OBJECTS
0
DICTIONARY
5
C
100
AcDbDictionary
3
ACAD_GROUP
350
D
3
ACAD_MLINESTYLE
350
17
0
DICTIONARY
5
D
100
AcDbDictionary
0
DICTIONARY
5
1A
330
C
100
AcDbDictionary
0
DICTIONARY
5
17
100
AcDbDictionary
0
ENDSEC
0
EOF
