0
SECTION
2
HEADER
9
$INSUNITS
70
1
9
$ACADVER
1
AC1014
9
$HANDSEED
5
FFFF
0
ENDSEC
0
SECTION
2
TABLES
0
TABLE
2
VPORT
5
8
100
AcDbSymbolTable
0
ENDTAB
0
TABLE
2
LTYPE
5
5
100
AcDbSymbolTable
70
2
0
LTYPE
5
14
100
AcDbSymbolTableRecord
100
AcDbLinetypeTableRecord
2
BYBLOCK
70
0
0
LTYPE
5
15
100
AcDbSymbolTableRecord
100
AcDbLinetypeTableRecord
2
BYLAYER
70
0
0
ENDTAB
0
TABLE
2
LAYER
5
2
100
AcDbSymbolTable
70
3
0
LAYER
5
50
100
AcDbSymbolTableRecord
100
AcDbLayerTableRecord
2
0
70
0
6
CONTINUOUS
0
LAYER
5
51
100
AcDbSymbolTableRecord
100
AcDbLayerTableRecord
2
CUTOUTS
70
0
62
1
6
CONTINUOUS
0
LAYER
5
52
100
AcDbSymbolTableRecord
100
AcDbLayerTableRecord
2
PERIMETER
70
0
62
5
6
CONTINUOUS
0
ENDTAB
0
TABLE
2
STYLE
5
3
100
AcDbSymbolTable
70
1
0
STYLE
5
11
100
AcDbSymbolTableRecord
100
AcDbTextStyleTableRecord
2
STANDARD
70
0
0
ENDTAB
0
TABLE
2
VIEW
5
6
100
AcDbSymbolTable
0
ENDTAB
0
TABLE
2
UCS
5
7
100
AcDbSymbolTable
0
ENDTAB
0
TABLE
2
APPID
5
9
100
AcDbSymbolTable
70
1
0
APPID
5
12
100
AcDbSymbolTableRecord
100
AcDbRegAppTableRecord
2
ACAD
70
0
0
ENDTAB
0
TABLE
2
DIMSTYLE
5
A
100
AcDbSymbolTable
0
ENDTAB
0
TABLE
2
BLOCK_RECORD
5
1
100
AcDbSymbolTable
70
2
0
BLOCK_RECORD
5
1F
100
AcDbSymbolTableRecord
100
AcDbBlockTableRecord
2
*MODEL_SPACE
0
BLOCK_RECORD
5
1B
100
AcDbSymbolTableRecord
100
AcDbBlockTableRecord
2
*PAPER_SPACE
0
ENDTAB
0
ENDSEC
0
SECTION
2
BLOCKS
0
BLOCK
5
20
100
AcDbEntity
100
AcDbBlockBegin
2
*MODEL_SPACE
0
ENDBLK
5
21
100
AcDbEntity
100
AcDbBlockEnd
0
BLOCK
5
1C
100
AcDbEntity
100
AcDbBlockBegin
2
*PAPER_SPACE
0
ENDBLK
5
1D
100
AcDbEntity
100
AcDbBlockEnd
0
ENDSEC
0
SECTION
2
ENTITIES
0
CIRCLE
5
100
100
AcDbEntity
8
CUTOUTS
100
AcDbCircle
10
1.6535433070866172
20
-5.0147637795275521
30
0
40
0.1299212598425197
210
0
220
0
230
1
0
CIRCLE
5
101
100
AcDbEntity
8
CUTOUTS
100
AcDbCircle
10
-9.2716535433070852
20
-5.0147637795275664
30
0
40
0.12992125984251901
210
0
220
0
230
1
0
CIRCLE
5
102
100
AcDbEntity
8
CUTOUTS
100
AcDbCircle
10
-1.6535433070866106
20
-5.0147637795275513
30
0
40
0.1299212598425197
210
0
220
0
230
1
0
CIRCLE
5
103
100
AcDbEntity
8
CUTOUTS
100
AcDbCircle
10
9.2716535433070799
20
-5.0147637795275699
30
0
40
0.12992125984251901
210
0
220
0
230
1
0
CIRCLE
5
104
100
AcDbEntity
8
CUTOUTS
100
AcDbCircle
10
14.468503937007871
20
1.2844488188976333
30
0
40
0.12992125984251901
210
0
220
0
230
1
0
CIRCLE
5
105
100
AcDbEntity
8
CUTOUTS
100
AcDbCircle
10
1.3987061727561026e-15
20
4.8277559055118173
30
0
40
0.12992125984251968
210
0
220
0
230
1
0
CIRCLE
5
106
100
AcDbEntity
8
CUTOUTS
100
AcDbCircle
10
-14.468503937007872
20
1.2844488188976415
30
0
40
0.12992125984251901
210
0
220
0
230
1
0
CIRCLE
5
107
100
AcDbEntity
8
CUTOUTS
100
AcDbCircle
10
-14.468503937007872
20
-2.6525590551181271
30
0
40
0.12992125984251901
210
0
220
0
230
1
0
CIRCLE
5
108
100
AcDbEntity
8
CUTOUTS
100
AcDbCircle
10
-10.9251968503937
20
4.8277559055118147
30
0
40
0.12992125984251901
210
0
220
0
230
1
0
CIRCLE
5
109
100
AcDbEntity
8
CUTOUTS
100
AcDbCircle
10
10.925196850393702
20
4.8277559055118173
30
0
40
0.12992125984251901
210
0
220
0
230
1
0
CIRCLE
5
10A
100
AcDbEntity
8
CUTOUTS
100
AcDbCircle
10
14.468503937007867
20
-2.6525590551181328
30
0
40
0.12992125984251901
210
0
220
0
230
1
0
LINE
5
10B
100
AcDbEntity
8
PERIMETER
100
AcDbLine
10
-7.9914264979147074
20
-4.5521653543307163
30
0
11
-2.9337703524789873
21
-4.5521653543306995
31
0
0
ARC
5
10C
100
AcDbEntity
8
PERIMETER
100
AcDbCircle
10
-7.9914264979147074
20
-4.630905511811032
30
0
40
0.078740157480314668
210
0
220
-0
230
1
100
AcDbArc
50
90
51
134.99999999999955
0
LINE
5
10D
100
AcDbEntity
8
PERIMETER
100
AcDbLine
10
-8.8671210131556251
20
-5.3952446284398929
30
0
11
-8.0471041972207349
21
-4.5752278125050037
31
0
0
ARC
5
10E
100
AcDbEntity
8
PERIMETER
100
AcDbCircle
10
-8.9227987124616508
20
-5.3395669291338699
30
0
40
0.078740157480311171
210
0
220
0
230
1
100
AcDbArc
50
269.99999999999869
51
315.00000000000136
0
LINE
5
10F
100
AcDbEntity
8
PERIMETER
100
AcDbLine
10
-9.6205083741525215
20
-5.418307086614182
30
0
11
-8.9227987124616526
21
-5.4183070866141811
31
0
0
ARC
5
110
100
AcDbEntity
8
PERIMETER
100
AcDbCircle
10
-9.6205083741525232
20
-5.339566929133869
30
0
40
0.078740157480313322
210
0
220
0
230
1
100
AcDbArc
50
224.99999999999861
51
270.00000000000125
0
LINE
5
111
100
AcDbEntity
8
PERIMETER
100
AcDbLine
10
-10.496202889393437
20
-4.5752278125050037
30
0
11
-9.6761860734585508
21
-5.3952446284398938
31
0
0
ARC
5
112
100
AcDbEntity
8
PERIMETER
100
AcDbCircle
10
-10.551880588699465
20
-4.6309055118110312
30
0
40
0.078740157480314793
210
0
220
-0
230
1
100
AcDbArc
50
45
51
90
0
LINE
5
113
100
AcDbEntity
8
PERIMETER
100
AcDbLine
10
-11.377952755905513
20
-4.5521653543307155
30
0
11
-10.551880588699465
21
-4.5521653543307172
31
0
0
ARC
5
114
100
AcDbEntity
8
PERIMETER
100
AcDbCircle
10
-11.377952755905513
20
-4.4734251968504024
30
0
40
0.07874015748031328
210
0
220
0
230
1
100
AcDbArc
50
180
51
270
0
LINE
5
115
100
AcDbEntity
8
PERIMETER
100
AcDbLine
10
-11.456692913385828
20
-4.4363786218257912
30
0
11
-11.456692913385826
21
-4.4734251968504015
31
0
0
ARC
5
116
100
AcDbEntity
8
PERIMETER
100
AcDbCircle
10
-11.535433070866143
20
-4.4363786218257912
30
0
40
0.078740157480314668
210
0
220
0
230
1
100
AcDbArc
50
0
51
63.43494882292201
0
LINE
5
117
100
AcDbEntity
8
PERIMETER
100
AcDbLine
10
-13.847386094399601
20
-3.1923679377165595
30
0
11
-11.500219401929138
21
-4.365951283951782
31
0
0
ARC
5
118
100
AcDbEntity
8
PERIMETER
100
AcDbCircle
10
-13.882599763336609
20
-3.2627952755905669
30
0
40
0.078740157480315334
210
0
220
-0
230
1
100
AcDbArc
50
63.434948822919694
51
90
0
LINE
5
119
100
AcDbEntity
8
PERIMETER
100
AcDbLine
10
-14.980314960629919
20
-3.1840551181102534
30
0
11
-13.882599763336609
21
-3.1840551181102521
31
0
0
ARC
5
11A
100
AcDbEntity
8
PERIMETER
100
AcDbCircle
10
-14.980314960629919
20
-3.1053149606299373
30
0
40
0.07874015748031607
210
0
220
0
230
1
100
AcDbArc
50
180
51
270
0
LINE
5
11B
100
AcDbEntity
8
PERIMETER
100
AcDbLine
10
-15.059055118110235
20
1.7372047244094535
30
0
11
-15.059055118110235
21
-3.1053149606299373
31
0
0
ARC
5
11C
100
AcDbEntity
8
PERIMETER
100
AcDbCircle
10
-14.980314960629919
20
1.737204724409452
30
0
40
0.07874015748031607
210
0
220
-0
230
1
100
AcDbArc
50
90
51
180
0
LINE
5
11D
100
AcDbEntity
8
PERIMETER
100
AcDbLine
10
-13.886106566188445
20
1.8159448818897681
30
0
11
-14.980314960629919
21
1.8159448818897681
31
0
0
ARC
5
11E
100
AcDbEntity
8
PERIMETER
100
AcDbCircle
10
-13.886106566188445
20
1.8946850393700827
30
0
40
0.078740157480314668
210
-0
220
0
230
1
100
AcDbArc
50
270
51
315.00000000000057
0
LINE
5
11F
100
AcDbEntity
8
PERIMETER
100
AcDbLine
10
-11.479755371560113
20
4.1896808353863584
30
0
11
-13.830428866882418
21
1.839007340064057
31
0
0
ARC
5
120
100
AcDbEntity
8
PERIMETER
100
AcDbCircle
10
-11.535433070866141
20
4.2453585346923868
30
0
40
0.078740157480315792
210
-0
220
0
230
1
100
AcDbArc
50
-45.000000000000462
51
0
0
LINE
5
121
100
AcDbEntity
8
PERIMETER
100
AcDbLine
10
-11.456692913385828
20
5.3395669291338539
30
0
11
-11.456692913385826
21
4.2453585346923868
31
0
0
ARC
5
122
100
AcDbEntity
8
PERIMETER
100
AcDbCircle
10
-11.377952755905513
20
5.3395669291338539
30
0
40
0.078740157480314668
210
0
220
0
230
1
100
AcDbArc
50
90.000000000001307
51
180
0
LINE
5
123
100
AcDbEntity
8
PERIMETER
100
AcDbLine
10
11.377952755905511
20
5.4183070866141838
30
0
11
-11.377952755905515
21
5.4183070866141687
31
0
0
ARC
5
124
100
AcDbEntity
8
PERIMETER
100
AcDbCircle
10
11.377952755905511
20
5.339566929133869
30
0
40
0.078740157480314668
210
0
220
-0
230
1
100
AcDbArc
50
0
51
90
0
LINE
5
125
100
AcDbEntity
8
PERIMETER
100
AcDbLine
10
11.456692913385826
20
4.2453585346923797
30
0
11
11.456692913385826
21
5.339566929133869
31
0
0
ARC
5
126
100
AcDbEntity
8
PERIMETER
100
AcDbCircle
10
11.535433070866141
20
4.2453585346923797
30
0
40
0.078740157480314668
210
0
220
0
230
1
100
AcDbArc
50
180
51
224.99999999999952
0
LINE
5
127
100
AcDbEntity
8
PERIMETER
100
AcDbLine
10
13.830428866882416
20
1.8390073400640485
30
0
11
11.479755371560115
21
4.1896808353863539
31
0
0
ARC
5
128
100
AcDbEntity
8
PERIMETER
100
AcDbCircle
10
13.886106566188442
20
1.8946850393700758
30
0
40
0.078740157480314793
210
0
220
0
230
1
100
AcDbArc
50
225.0000000000008
51
270
0
LINE
5
129
100
AcDbEntity
8
PERIMETER
100
AcDbLine
10
14.980314960629919
20
1.8159448818897597
30
0
11
13.886106566188442
21
1.8159448818897597
31
0
0
ARC
5
12A
100
AcDbEntity
8
PERIMETER
100
AcDbCircle
10
14.980314960629922
20
1.7372047244094464
30
0
40
0.07874015748031328
210
0
220
-0
230
1
100
AcDbArc
50
0
51
90.000000000002586
0
LINE
5
12B
100
AcDbEntity
8
PERIMETER
100
AcDbLine
10
15.05905511811023
20
-3.1053149606299431
30
0
11
15.059055118110235
21
1.7372047244094464
31
0
0
ARC
5
12C
100
AcDbEntity
8
PERIMETER
100
AcDbCircle
10
14.980314960629913
20
-3.1053149606299426
30
0
40
0.078740157480315376
210
-0
220
0
230
1
100
AcDbArc
50
270
51
360
0
LINE
5
12D
100
AcDbEntity
8
PERIMETER
100
AcDbLine
10
13.882599763336604
20
-3.1840551181102565
30
0
11
14.980314960629913
21
-3.184055118110257
31
0
0
ARC
5
12E
100
AcDbEntity
8
PERIMETER
100
AcDbCircle
10
13.882599763336604
20
-3.2627952755905718
30
0
40
0.078740157480315376
210
0
220
-0
230
1
100
AcDbArc
50
90
51
116.5650511770787
0
LINE
5
12F
100
AcDbEntity
8
PERIMETER
100
AcDbLine
10
11.500219401929131
20
-4.3659512839517873
30
0
11
13.847386094399598
21
-3.1923679377165621
31
0
0
ARC
5
130
100
AcDbEntity
8
PERIMETER
100
AcDbCircle
10
11.535433070866135
20
-4.4363786218257975
30
0
40
0.078740157480315334
210
0
220
0
230
1
100
AcDbArc
50
116.56505117707741
51
180
0
LINE
5
131
100
AcDbEntity
8
PERIMETER
100
AcDbLine
10
11.456692913385821
20
-4.4734251968504033
30
0
11
11.456692913385821
21
-4.4363786218257966
31
0
0
ARC
5
132
100
AcDbEntity
8
PERIMETER
100
AcDbCircle
10
11.377952755905506
20
-4.4734251968504033
30
0
40
0.078740157480315376
210
-0
220
0
230
1
100
AcDbArc
50
-90
51
0
0
LINE
5
133
100
AcDbEntity
8
PERIMETER
100
AcDbLine
10
10.551880588699467
20
-4.5521653543307181
30
0
11
11.377952755905506
21
-4.552165354330719
31
0
0
ARC
5
134
100
AcDbEntity
8
PERIMETER
100
AcDbCircle
10
10.551880588699467
20
-4.6309055118110329
30
0
40
0.078740157480314668
210
0
220
-0
230
1
100
AcDbArc
50
90
51
134.99999999999955
0
LINE
5
135
100
AcDbEntity
8
PERIMETER
100
AcDbLine
10
9.6761860734585454
20
-5.3952446284398974
30
0
11
10.496202889393439
21
-4.5752278125050045
31
0
0
ARC
5
136
100
AcDbEntity
8
PERIMETER
100
AcDbCircle
10
9.6205083741525197
20
-5.3395669291338743
30
0
40
0.078740157480311171
210
0
220
0
230
1
100
AcDbArc
50
269.99999999999869
51
315.00000000000136
0
LINE
5
137
100
AcDbEntity
8
PERIMETER
100
AcDbLine
10
8.922798712461649
20
-5.4183070866141847
30
0
11
9.6205083741525179
21
-5.4183070866141847
31
0
0
ARC
5
138
100
AcDbEntity
8
PERIMETER
100
AcDbCircle
10
8.9227987124616472
20
-5.3395669291338734
30
0
40
0.078740157480311837
210
0
220
0
230
1
100
AcDbArc
50
224.99999999999909
51
270.00000000000125
0
LINE
5
139
100
AcDbEntity
8
PERIMETER
100
AcDbLine
10
8.0471041972207331
20
-4.5752278125050054
30
0
11
8.8671210131556215
21
-5.3952446284398974
31
0
0
ARC
5
13A
100
AcDbEntity
8
PERIMETER
100
AcDbCircle
10
7.9914264979147065
20
-4.6309055118110329
30
0
40
0.078740157480314793
210
0
220
-0
230
1
100
AcDbArc
50
45.000000000000462
51
90
0
LINE
5
13B
100
AcDbEntity
8
PERIMETER
100
AcDbLine
10
2.9337703524789944
20
-4.5521653543307021
30
0
11
7.9914264979147065
21
-4.5521653543307172
31
0
0
ARC
5
13C
100
AcDbEntity
8
PERIMETER
100
AcDbCircle
10
2.933770352478994
20
-4.630905511811017
30
0
40
0.078740157480314668
210
0
220
-0
230
1
100
AcDbArc
50
89.999999999999673
51
135.00000000000045
0
LINE
5
13D
100
AcDbEntity
8
PERIMETER
100
AcDbLine
10
2.0580758372380763
20
-5.3952446284398787
30
0
11
2.878092653172966
21
-4.5752278125049894
31
0
0
ARC
5
13E
100
AcDbEntity
8
PERIMETER
100
AcDbCircle
10
2.0023981379320501
20
-5.3395669291338512
30
0
40
0.078740157480313974
210
0
220
0
230
1
100
AcDbArc
50
270
51
314.99999999999932
0
LINE
5
13F
100
AcDbEntity
8
PERIMETER
100
AcDbLine
10
1.3046884762411846
20
-5.418307086614166
30
0
11
2.0023981379320501
21
-5.418307086614166
31
0
0
ARC
5
140
100
AcDbEntity
8
PERIMETER
100
AcDbCircle
10
1.3046884762411848
20
-5.3395669291338512
30
0
40
0.078740157480314932
210
0
220
0
230
1
100
AcDbArc
50
224.99999999999952
51
270
0
LINE
5
141
100
AcDbEntity
8
PERIMETER
100
AcDbLine
10
0.42899396100026749
20
-4.5752278125049886
30
0
11
1.2490107769351573
21
-5.3952446284398778
31
0
0
ARC
5
142
100
AcDbEntity
8
PERIMETER
100
AcDbCircle
10
0.37331626169424043
20
-4.6309055118110161
30
0
40
0.078740157480315168
210
0
220
-0
230
1
100
AcDbArc
50
45.000000000000682
51
90
0
LINE
5
143
100
AcDbEntity
8
PERIMETER
100
AcDbLine
10
-0.3733162616942346
20
-4.5521653543307012
30
0
11
0.37331626169424043
21
-4.5521653543307012
31
0
0
ARC
5
144
100
AcDbEntity
8
PERIMETER
100
AcDbCircle
10
-0.3733162616942346
20
-4.6309055118110161
30
0
40
0.078740157480314668
210
0
220
-0
230
1
100
AcDbArc
50
90
51
134.99999999999986
0
LINE
5
145
100
AcDbEntity
8
PERIMETER
100
AcDbLine
10
-1.2490107769351502
20
-5.395244628439877
30
0
11
-0.42899396100026238
21
-4.5752278125049877
31
0
0
ARC
5
146
100
AcDbEntity
8
PERIMETER
100
AcDbCircle
10
-1.3046884762411777
20
-5.3395669291338512
30
0
40
0.078740157480314668
210
0
220
0
230
1
100
AcDbArc
50
270
51
315.00000000000045
0
LINE
5
147
100
AcDbEntity
8
PERIMETER
100
AcDbLine
10
-2.0023981379320435
20
-5.4183070866141652
30
0
11
-1.3046884762411777
21
-5.4183070866141652
31
0
0
ARC
5
148
100
AcDbEntity
8
PERIMETER
100
AcDbCircle
10
-2.0023981379320435
20
-5.3395669291338494
30
0
40
0.078740157480315043
210
0
220
0
230
1
100
AcDbArc
50
225
51
270
0
LINE
5
149
100
AcDbEntity
8
PERIMETER
100
AcDbLine
10
-2.8780926531729594
20
-4.5752278125049886
30
0
11
-2.058075837238071
21
-5.395244628439877
31
0
0
ARC
5
14A
100
AcDbEntity
8
PERIMETER
100
AcDbCircle
10
-2.9337703524789869
20
-4.6309055118110152
30
0
40
0.078740157480315043
210
0
220
-0
230
1
100
AcDbArc
50
45
51
90.000000000000327
0
ENDSEC
0
SECTION
2
OBJECTS
0
DICTIONARY
5
C
100
AcDbDictionary
3
ACAD_GROUP
350
D
3
ACAD_MLINESTYLE
350
17
0
DICTIONARY
5
D
100
AcDbDictionary
0
DICTIONARY
5
1A
330
C
100
AcDbDictionary
0
DICTIONARY
5
17
100
AcDbDictionary
0
ENDSEC
0
EOF
